<?xml version="1.0" encoding="utf-8"?>
<!-- Generator: Adobe Illustrator 21.0.2, SVG Export Plug-In . SVG Version: 6.00 Build 0)  -->
<svg version="1.1" id="Layer_1" xmlns="http://www.w3.org/2000/svg" xmlns:xlink="http://www.w3.org/1999/xlink" x="0px" y="0px"
	 viewBox="0 0 900 400" style="enable-background:new 0 0 900 400;" xml:space="preserve">
<style type="text/css">
	.st0{fill:#414042;}
	.st1{fill:none;stroke:#414042;stroke-width:2.5;stroke-miterlimit:10;}
	.st2{fill:#414042;stroke:#414042;stroke-width:0.75;stroke-miterlimit:10;}
	.st3{fill:none;stroke:#414042;stroke-width:2;stroke-miterlimit:10;}
	.st4{fill:#1D1D1B;}
	.st5{fill:none;stroke:#414042;stroke-width:2;stroke-linejoin:bevel;stroke-miterlimit:10;}
	.st6{fill:none;stroke:#0A0E10;stroke-width:2;stroke-miterlimit:10;}
</style>
<g>
	<g>
		<path class="st0" d="M87.1,122h-2.9c-7.7,0-14-6.3-14-14V91.6c0-7.7,6.3-14,14-14h2.9c7.7,0,14,6.3,14,14V108
			C101.1,115.7,94.8,122,87.1,122z M84.2,80.1c-6.3,0-11.5,5.1-11.5,11.5V108c0,6.3,5.1,11.5,11.5,11.5h2.9
			c6.3,0,11.5-5.1,11.5-11.5V91.6c0-6.3-5.1-11.5-11.5-11.5H84.2z"/>
		<g>
			<path class="st0" d="M117.3,145.6H52.8v-6.9c-0.2-5.9,18.6-10.8,25.8-12.4V121h2.5v7.2l-1,0.2c-12.1,2.7-24.9,7.4-24.8,10.2
				l0,4.4h62V145.6z"/>
			<path class="st0" d="M118.5,144.3H116v-5.6c0.1-2.8-12.8-7.5-24.8-10.2l0.5-2.4c6.3,1.4,27,6.5,26.8,12.7L118.5,144.3z"/>
		</g>
	</g>
	<path class="st0" d="M67.2,120.7h-2.3c-6.3,0-11.4-5.1-11.4-11.4V96.2c0-6.3,5.1-11.4,11.4-11.4h2.3v2.5h-2.3c-4.9,0-8.9,4-8.9,8.9
		v13.1c0,4.9,4,8.9,8.9,8.9h2.3V120.7z"/>
	<path class="st0" d="M42,144.5h-2.5v-10.6c-0.2-4.7,13.7-8.5,20.7-10.2v-4h2.5v6l-1,0.2C51.1,128.3,42,132,42,133.9L42,144.5z"/>
</g>
<g>
	<g>
		<g>
			<g>
				<path class="st0" d="M59.6,264.5c-0.6,0-1-0.5-1-1l0.1-22.7c0-2.2,1.8-4,4.1-4l40.8,0.3c2.2,0,4.1,1.8,4,4.1l-0.1,21.8
					c0,0.6-0.5,1-1,1c-0.6,0-1-0.5-1-1l0.1-21.8c0-1.1-0.9-2.1-2.1-2.1l-40.8-0.3c-1.1,0-2.1,0.9-2.1,2l-0.1,22.7
					C60.6,264,60.2,264.5,59.6,264.5z"/>
				<path class="st0" d="M59.6,264.8C59.6,264.8,59.6,264.8,59.6,264.8c-0.8,0-1.4-0.6-1.4-1.4l0.1-22.7c0-1.2,0.5-2.3,1.3-3.1
					c0.8-0.8,1.9-1.3,3.1-1.3c0,0,0,0,0,0l40.8,0.3c1.2,0,2.3,0.5,3.1,1.3c0.8,0.8,1.3,2,1.3,3.1l-0.1,21.8c0,0.8-0.6,1.4-1.4,1.4
					c0,0,0,0,0,0c-0.8,0-1.4-0.6-1.4-1.4l0.1-21.8c0-0.9-0.8-1.7-1.7-1.7l-40.8-0.3c0,0,0,0,0,0c-0.9,0-1.7,0.8-1.7,1.7L61,263.5
					c0,0.4-0.1,0.7-0.4,1C60.3,264.7,60,264.8,59.6,264.8z M62.8,237.1c-1,0-1.9,0.4-2.6,1.1c-0.7,0.7-1.1,1.6-1.1,2.6L59,263.5
					c0,0.3,0.3,0.6,0.6,0.6c0,0,0,0,0,0c0.2,0,0.3-0.1,0.4-0.2c0.1-0.1,0.2-0.3,0.2-0.4l0.1-22.7c0-1.3,1.1-2.4,2.4-2.4c0,0,0,0,0,0
					l40.8,0.3c1.4,0,2.4,1.1,2.4,2.5l-0.1,21.8c0,0.3,0.3,0.6,0.6,0.6c0,0,0,0,0,0c0.3,0,0.6-0.3,0.6-0.6l0.1-21.8
					c0-1-0.4-1.9-1.1-2.6c-0.7-0.7-1.6-1.1-2.6-1.1L62.8,237.1C62.8,237.1,62.8,237.1,62.8,237.1z"/>
			</g>
		</g>
		<g>
			<g>
				<path class="st0" d="M83,277.1c-0.2,0-0.3,0-0.5-0.1l-33.1-17.5c-0.3-0.2-0.5-0.4-0.5-0.8c0-0.3,0.1-0.7,0.3-0.9l9.3-8.1
					c0.4-0.4,1-0.3,1.4,0.1c0.4,0.4,0.3,1-0.1,1.4l-8.2,7.2L83,275l32.6-16.8c0.5-0.3,1.1-0.1,1.3,0.4c0.3,0.5,0.1,1.1-0.4,1.3
					l-33,17.1C83.3,277.1,83.2,277.1,83,277.1z"/>
				<path class="st0" d="M83,277.5C83,277.5,83,277.5,83,277.5L83,277.5c-0.2,0-0.4-0.1-0.6-0.2l-33.1-17.5
					c-0.4-0.2-0.7-0.6-0.7-1.1c-0.1-0.4,0.1-0.9,0.5-1.2l9.3-8.1c0.6-0.5,1.4-0.4,1.9,0.1c0.2,0.3,0.4,0.6,0.3,1
					c0,0.4-0.2,0.7-0.5,0.9l-7.8,6.8L83,274.6l32.4-16.7c0.7-0.3,1.5-0.1,1.8,0.6s0.1,1.5-0.6,1.8l-33,17.1
					C83.5,277.5,83.2,277.5,83,277.5z M83,276.8c0.1,0,0.2,0,0.3-0.1l33-17.1c0.3-0.2,0.4-0.5,0.3-0.8c-0.2-0.3-0.5-0.4-0.8-0.3
					L83,275.4l-0.2-0.1L51,258.5l8.6-7.5c0.1-0.1,0.2-0.3,0.2-0.4c0-0.2,0-0.3-0.2-0.5c-0.2-0.3-0.6-0.3-0.9-0.1l-9.3,8.1
					c-0.2,0.1-0.2,0.3-0.2,0.5c0,0.2,0.1,0.4,0.3,0.5l33.1,17.5C82.8,276.7,82.9,276.8,83,276.8L83,276.8z"/>
			</g>
		</g>
		<g>
			<g>
				<path class="st0" d="M112.9,298.3l-60.7-0.4c-2.2,0-4.1-1.9-4.1-4.2l0.2-33.8c0-0.3,0-0.5,0.1-0.8c0.1-0.5,0.6-0.9,1.2-0.8
					c0.5,0.1,0.9,0.6,0.8,1.2c0,0.1,0,0.3,0,0.4l-0.2,33.8c0,1.2,1,2.2,2.1,2.2l60.7,0.4c1.1,0,2.1-1,2.1-2.2l0.2-33.8
					c0-0.2,0-0.4-0.1-0.6l-9.2-8c-0.4-0.4-0.5-1-0.1-1.4c0.4-0.4,1-0.5,1.4-0.1l9.4,8.2c0.1,0.1,0.2,0.2,0.3,0.4
					c0.2,0.5,0.3,1,0.3,1.6l-0.2,33.8C117.1,296.4,115.2,298.3,112.9,298.3z"/>
				<path class="st0" d="M113,298.6C113,298.6,112.9,298.6,113,298.6l-60.7-0.4c-1.2,0-2.3-0.5-3.2-1.4c-0.9-0.9-1.3-2-1.3-3.2
					l0.2-33.8c0-0.3,0-0.6,0.1-0.9c0.1-0.4,0.3-0.7,0.6-0.9c0.3-0.2,0.7-0.3,1-0.2c0.7,0.2,1.2,0.9,1.1,1.6c0,0.1,0,0.2,0,0.3
					l-0.2,33.8c0,1,0.8,1.8,1.7,1.8l60.7,0.4c0,0,0,0,0,0c0.9,0,1.7-0.8,1.7-1.8l0.2-33.8c0-0.1,0-0.3,0-0.4l-9.1-7.9
					c-0.3-0.2-0.4-0.6-0.5-0.9c0-0.4,0.1-0.7,0.3-1c0.2-0.3,0.6-0.4,0.9-0.5c0.4,0,0.7,0.1,1,0.3l9.4,8.2c0.2,0.1,0.3,0.3,0.4,0.5
					c0.2,0.5,0.4,1.1,0.3,1.8l-0.2,33.8c0,1.2-0.5,2.3-1.3,3.2C115.2,298.2,114.1,298.6,113,298.6z M49.5,258.6
					c-0.1,0-0.2,0-0.3,0.1c-0.1,0.1-0.2,0.2-0.3,0.4c0,0.2-0.1,0.5-0.1,0.7l-0.2,33.8c0,1,0.4,1.9,1.1,2.7c0.7,0.7,1.6,1.1,2.6,1.1
					l60.7,0.4c1,0,1.9-0.4,2.6-1.1c0.7-0.7,1.1-1.7,1.1-2.7l0.2-33.8c0-0.5-0.1-1-0.3-1.5c0-0.1-0.1-0.2-0.2-0.2l-9.4-8.2
					c-0.1-0.1-0.3-0.2-0.5-0.2c-0.2,0-0.3,0.1-0.4,0.2c-0.1,0.1-0.2,0.3-0.2,0.5c0,0.2,0.1,0.3,0.2,0.4l9.3,8.1l0,0.1
					c0.1,0.2,0.1,0.5,0.1,0.7l-0.2,33.8c0,1.4-1.1,2.5-2.5,2.5c0,0,0,0,0,0l-60.7-0.4c-1.4,0-2.5-1.2-2.5-2.6l0.2-33.8
					c0-0.2,0-0.3,0-0.5c0.1-0.3-0.1-0.7-0.5-0.7C49.5,258.6,49.5,258.6,49.5,258.6z"/>
			</g>
		</g>
		<g>
			<g>
				<g>
					<path class="st0" d="M83.5,268.7c-0.1,0-0.2,0-0.3,0c-3.3-0.1-6.4-2.3-7.6-5.2c-0.2-0.5,0.1-1.1,0.6-1.3
						c0.5-0.2,1.1,0.1,1.3,0.6c0.8,2.2,3.2,3.8,5.8,3.9c2,0.1,3.6-0.8,4.3-2.5c0.5-1.1,0.6-2.1,0.2-3.1c-0.8-2.3-3.7-3.8-4.9-4.3
						c-2.3-1-4.8-3.2-5.4-5.8c-0.4-1.6,0-3.2,1.2-4.6c1.1-1.3,2.7-2.1,4.5-2.1c0,0,0,0,0,0c2,0,4,1.1,5.5,3c0.3,0.4,0.3,1.1-0.1,1.4
						c-0.4,0.3-1.1,0.3-1.4-0.1c-1.5-1.8-3-2.2-4-2.2c0,0,0,0,0,0c-1.1,0-2.2,0.5-2.9,1.4c-0.8,0.9-1,1.9-0.8,2.9
						c0.5,1.9,2.6,3.6,4.3,4.4c1.8,0.8,4.9,2.6,5.9,5.4c0.5,1.5,0.4,3.1-0.3,4.7C88.3,267.4,86.1,268.7,83.5,268.7z"/>
					<path class="st0" d="M83.5,269.1c-0.1,0-0.2,0-0.3,0c-3.5-0.1-6.7-2.4-7.9-5.4c-0.3-0.7,0.1-1.5,0.8-1.8
						c0.7-0.3,1.5,0.1,1.8,0.8c0.8,2.1,3,3.6,5.4,3.7c1.8,0.1,3.3-0.7,4-2.2c0.5-1,0.6-1.9,0.2-2.8c-0.8-2.1-3.5-3.6-4.7-4.1
						c-2.4-1.1-5-3.4-5.6-6.1c-0.4-1.7,0-3.4,1.2-4.9c1.1-1.4,2.9-2.2,4.7-2.2c2.2,0,4.2,1.1,5.8,3.1c0.2,0.3,0.3,0.6,0.3,1
						s-0.2,0.7-0.5,0.9c-0.3,0.2-0.6,0.3-1,0.3c-0.4,0-0.7-0.2-0.9-0.5c-1.4-1.7-2.8-2.1-3.7-2.1c-1,0-2,0.5-2.6,1.2
						c-0.7,0.8-0.9,1.7-0.7,2.6c0.4,1.8,2.4,3.4,4.1,4.2c1.8,0.8,5,2.7,6.1,5.7c0.6,1.6,0.5,3.3-0.3,5
						C88.6,267.7,86.3,269.1,83.5,269.1z M76.6,262.6c-0.1,0-0.1,0-0.2,0c-0.3,0.1-0.5,0.5-0.4,0.8c1.1,2.8,4,4.8,7.2,4.9
						c0.1,0,0.2,0,0.2,0h0c2.5,0,4.6-1.2,5.6-3.4c0.7-1.5,0.8-3,0.3-4.4c-1-2.7-4-4.5-5.7-5.2c-1.8-0.8-4.1-2.7-4.5-4.7
						c-0.3-1.1,0-2.2,0.9-3.2c0.8-0.9,2-1.5,3.2-1.5c1.1,0,2.7,0.4,4.3,2.4c0.1,0.1,0.3,0.2,0.4,0.2c0.2,0,0.3,0,0.5-0.1
						c0.1-0.1,0.2-0.3,0.2-0.4s0-0.3-0.1-0.5c-1.5-1.8-3.3-2.8-5.2-2.8c-1.7,0-3.2,0.7-4.2,2c-1.1,1.3-1.4,2.8-1.1,4.3
						c0.6,2.5,3,4.6,5.2,5.5c1.2,0.6,4.2,2.1,5.1,4.5c0.4,1.1,0.3,2.2-0.3,3.4c-0.9,1.8-2.5,2.7-4.7,2.7c-2.7-0.1-5.2-1.8-6.1-4.1
						C77.1,262.7,76.8,262.6,76.6,262.6z"/>
				</g>
			</g>
			<g>
				<g>
					<path class="st0" d="M83.1,270.8c-0.6,0-1-0.5-1-1l0.2-27.1c0-0.6,0.5-1,1-1h0c0.6,0,1,0.5,1,1l-0.2,27.1
						C84.1,270.4,83.6,270.8,83.1,270.8L83.1,270.8z"/>
					<path class="st0" d="M83.1,271.2C83.1,271.2,83.1,271.2,83.1,271.2L83.1,271.2c-0.8,0-1.4-0.6-1.4-1.4l0.2-27.1
						c0-0.8,0.7-1.4,1.4-1.4c0.4,0,0.7,0.1,1,0.4c0.3,0.3,0.4,0.6,0.4,1l-0.2,27.1C84.4,270.6,83.8,271.2,83.1,271.2z M83.1,270.4
						C83.1,270.4,83.1,270.4,83.1,270.4c0.3,0,0.6-0.3,0.6-0.6l0.2-27.1c0-0.2-0.1-0.3-0.2-0.4s-0.3-0.2-0.4-0.2c0,0,0,0,0,0
						c-0.3,0-0.6,0.3-0.6,0.6l-0.2,27.1C82.4,270.1,82.7,270.4,83.1,270.4L83.1,270.4z"/>
				</g>
			</g>
		</g>
	</g>
	<g>
		<g>
			<path class="st0" d="M107.7,294.3c-0.4,0-0.8,0-1.2,0c-0.3,0-0.7,0-1,0c-0.6,0-1-0.5-1-1c0-0.6,0.5-1,1-1c0.3,0,0.7,0,1,0
				c1.3,0.1,2.8,0.1,3.7-0.5c0.6-0.4,0.5-2.5,0.5-3.5c0-0.4,0-0.7,0-1c0-0.5,0.5-1,1-1c0.5,0,1,0.5,1,1c0,0.2,0,0.5,0,0.9
				c0,1.7,0.1,4.1-1.3,5.1C110.4,294.2,109,294.3,107.7,294.3z"/>
			<path class="st0" d="M107.8,294.7c0,0-0.1,0-0.1,0c-0.4,0-0.8,0-1.1,0c-0.4,0-0.7,0-1,0c-0.4,0-0.7-0.1-1-0.4s-0.4-0.6-0.4-1
				s0.1-0.7,0.4-1c0.3-0.3,0.6-0.4,1-0.4c0,0,0,0,0,0c0.3,0,0.6,0,1,0c1.3,0.1,2.8,0.1,3.5-0.4c0.2-0.1,0.4-0.8,0.4-3.2
				c0-0.4,0-0.7,0-1c0-0.8,0.7-1.3,1.4-1.3c0.8,0,1.4,0.7,1.3,1.4c0,0.2,0,0.5,0,0.8c0,1.8,0.1,4.3-1.5,5.4
				C110.5,294.6,109,294.7,107.8,294.7z M105.5,292.6c-0.2,0-0.3,0.1-0.4,0.2c-0.1,0.1-0.2,0.3-0.2,0.4c0,0.2,0.1,0.3,0.2,0.4
				s0.3,0.2,0.4,0.2c0.3,0,0.6,0,1,0c0.4,0,0.8,0,1.2,0h0c1.1,0,2.5-0.1,3.6-0.9c1.2-0.9,1.2-3.2,1.2-4.8c0-0.3,0-0.7,0-0.9
				c0-0.3-0.3-0.6-0.6-0.6c-0.4,0-0.6,0.3-0.6,0.6c0,0.3,0,0.6,0,0.9c0,2-0.1,3.3-0.7,3.8c-1,0.7-2.6,0.7-3.9,0.6
				C106.2,292.7,105.8,292.6,105.5,292.6C105.5,292.6,105.5,292.6,105.5,292.6z"/>
		</g>
	</g>
	<g>
		<g>
			<path class="st0" d="M111.9,285c-0.6,0-1-0.5-1-1l0-2.3c0-0.6,0.5-1,1-1c0.6,0,1,0.5,1,1l0,2.3C112.9,284.6,112.4,285,111.9,285z
				"/>
			<path class="st0" d="M111.9,285.4C111.9,285.4,111.9,285.4,111.9,285.4L111.9,285.4c-0.8,0-1.4-0.6-1.4-1.4l0-2.3
				c0-0.4,0.1-0.7,0.4-1c0.3-0.3,0.6-0.4,1-0.4c0.8,0,1.4,0.6,1.4,1.4l0,2.3C113.2,284.8,112.6,285.4,111.9,285.4z M111.9,284.6
				C111.9,284.6,111.9,284.6,111.9,284.6c0.3,0,0.6-0.3,0.6-0.6l0-2.3c0-0.3-0.3-0.6-0.6-0.6c0,0,0,0,0,0c-0.2,0-0.3,0.1-0.4,0.2
				c-0.1,0.1-0.2,0.3-0.2,0.4l0,2.3C111.2,284.4,111.5,284.6,111.9,284.6L111.9,284.6z"/>
		</g>
	</g>
</g>
<g>
	<path class="st0" d="M188.4,201.2c0,0.7,0.6,1.4,1.4,1.4c4.4,0,8.8-0.7,12.2-1.9v-2.2c0-0.3,0.1-0.5,0.2-0.8
		c-2.5,1.1-6.8,2.1-12.4,2.1C189,199.9,188.4,200.5,188.4,201.2z"/>
	<path class="st0" d="M189.8,170.1c-0.7,0-1.4-0.6-1.4-1.4c0-0.7,0.6-1.4,1.4-1.4c9.3,0,14.9-2.8,14.9-4.1c0-0.7,0.6-1.4,1.4-1.4
		c0.7,0,1.4,0.6,1.4,1.4C207.4,167.5,198.4,170.1,189.8,170.1z"/>
	<g>
		<path class="st0" d="M180.3,206.8v2.5c0,0.1,0,0.2,0,0.3c2.9,0.7,6.2,1.1,9.5,1.1c4.4,0,8.8-0.7,12.2-1.8v-2.9
			c-2.5,1.1-6.7,2-12.2,2C185.9,208,182.7,207.5,180.3,206.8z"/>
		<path class="st0" d="M207.4,163.3c0-4.2-9-6.8-17.6-6.8c-8.6,0-17.6,2.5-17.6,6.8v8.1c0,0.5,0.1,0.9,0.3,1.4
			c-0.2,0.4-0.3,0.9-0.3,1.4v5.4c0,0,0,0.1,0,0.1c1.1,0.1,2.1,0.3,3.1,0.5c0-0.1-0.1-0.1-0.1-0.2c-0.2-0.2-0.3-0.4-0.3-0.5v-5.4
			c0,0,0.1-0.2,0.3-0.5c0.4-0.5,0.4-1.3,0-1.8c-0.3-0.3-0.3-0.5-0.3-0.5v-8.1c0-1.2,5.6-4.1,14.9-4.1c9.3,0,14.9,2.8,14.9,4.1v8.1
			c0,0-0.1,0.2-0.3,0.5c-0.4,0.5-0.4,1.3,0,1.8c0.2,0.3,0.3,0.4,0.3,0.5v5.4c0,0-0.1,0.2-0.3,0.5c-0.4,0.5-0.4,1.3,0,1.8
			c0.2,0.3,0.3,0.4,0.3,0.5v5.4c0,0-0.1,0.2-0.3,0.5c-0.4,0.5-0.4,1.3,0,1.8c0.2,0.3,0.3,0.4,0.3,0.5v5.4c0,0,0,0,0,0
			c0.8-0.3,1.7-0.6,2.7-0.8v-4.6c0-0.5-0.1-0.9-0.3-1.4c0.2-0.4,0.3-0.9,0.3-1.4v-5.4c0-0.5-0.1-0.9-0.3-1.4
			c0.2-0.4,0.3-0.9,0.3-1.4v-5.4c0-0.5-0.1-0.9-0.3-1.4c0.2-0.4,0.3-0.9,0.3-1.4V163.3z"/>
	</g>
	<path class="st0" d="M212.8,216.1c-6.1,0-12.2-1.9-12.2-5.4v-12.2c0-3.6,6.1-5.4,12.2-5.4c6,0,12.2,1.9,12.2,5.4v12.2
		C225,214.2,218.8,216.1,212.8,216.1z M212.8,195.8c-6.2,0-9.5,1.9-9.5,2.7v12.2c0,0.8,3.3,2.7,9.5,2.7c6.2,0,9.5-1.9,9.5-2.7v-12.2
		C222.3,197.7,218.9,195.8,212.8,195.8z"/>
	<path class="st0" d="M212.8,203.9c-0.7,0-1.4-0.6-1.4-1.4s0.6-1.4,1.4-1.4c6.2,0,9.5-1.9,9.5-2.7c0-0.7,0.6-1.4,1.4-1.4
		c0.7,0,1.4,0.6,1.4,1.4C225,202.1,218.8,203.9,212.8,203.9z"/>
	<path class="st0" d="M212.8,210.7c-0.7,0-1.4-0.6-1.4-1.4s0.6-1.4,1.4-1.4c6.2,0,9.5-1.9,9.5-2.7c0-0.7,0.6-1.4,1.4-1.4
		c0.7,0,1.4,0.6,1.4,1.4C225,208.8,218.8,210.7,212.8,210.7z"/>
	<g>
		<path class="st0" d="M169.5,214.7c-6.1,0-12.2-1.9-12.2-5.4v-25.7c0-3.6,6.1-5.4,12.2-5.4c6.1,0,12.2,1.9,12.2,5.4v25.7
			C181.7,212.9,175.5,214.7,169.5,214.7z M169.5,180.9c-6.2,0-9.5,1.9-9.5,2.7v25.7c0,0.8,3.3,2.7,9.5,2.7s9.5-1.9,9.5-2.7v-25.7
			C178.9,182.8,175.6,180.9,169.5,180.9z"/>
		<path class="st0" d="M169.5,189c-0.7,0-1.4-0.6-1.4-1.4s0.6-1.4,1.4-1.4c6.2,0,9.5-1.9,9.5-2.7c0-0.7,0.6-1.4,1.4-1.4
			c0.7,0,1.4,0.6,1.4,1.4C181.7,187.2,175.5,189,169.5,189z"/>
		<path class="st0" d="M169.5,209.3c-0.7,0-1.4-0.6-1.4-1.4s0.6-1.4,1.4-1.4c6.2,0,9.5-1.9,9.5-2.7c0-0.7,0.6-1.4,1.4-1.4
			c0.7,0,1.4,0.6,1.4,1.4C181.7,207.5,175.5,209.3,169.5,209.3z"/>
		<path class="st0" d="M169.5,202.6c-0.7,0-1.4-0.6-1.4-1.4s0.6-1.4,1.4-1.4c6.2,0,9.5-1.9,9.5-2.7c0-0.7,0.6-1.4,1.4-1.4
			c0.7,0,1.4,0.6,1.4,1.4C181.7,200.7,175.5,202.6,169.5,202.6z"/>
		<path class="st0" d="M169.5,195.8c-0.7,0-1.4-0.6-1.4-1.4s0.6-1.4,1.4-1.4c6.2,0,9.5-1.9,9.5-2.7c0-0.7,0.6-1.4,1.4-1.4
			c0.7,0,1.4,0.6,1.4,1.4C181.7,193.9,175.5,195.8,169.5,195.8z"/>
	</g>
	<g>
		<path class="st0" d="M189.8,194.4c-0.7,0-1.4-0.6-1.4-1.4s0.6-1.4,1.4-1.4c9.3,0,14.9-2.8,14.9-4.1c0-0.7,0.6-1.4,1.4-1.4
			c0.7,0,1.4,0.6,1.4,1.4C207.4,191.9,198.4,194.4,189.8,194.4z"/>
		<path class="st0" d="M189.8,186.3c-0.7,0-1.4-0.6-1.4-1.4s0.6-1.4,1.4-1.4c9.3,0,14.9-2.8,14.9-4.1c0-0.7,0.6-1.4,1.4-1.4
			c0.7,0,1.4,0.6,1.4,1.4C207.4,183.8,198.4,186.3,189.8,186.3z"/>
		<path class="st0" d="M189.8,178.2c-0.7,0-1.4-0.6-1.4-1.4s0.6-1.4,1.4-1.4c9.3,0,14.9-2.8,14.9-4.1c0-0.7,0.6-1.4,1.4-1.4
			c0.7,0,1.4,0.6,1.4,1.4C207.4,175.7,198.4,178.2,189.8,178.2z"/>
	</g>
</g>
<g>
	<g transform="matrix( 1, 0, 0, 1, 0,0) ">
		<g>
			<g id="Layer0_0_FILL_5_">
				<path class="st0" d="M312.1,160.1c-3.9-3.9-5.9-5.9-6.1-5.9h-41.1v74.5h53v-62.5C317.9,166.1,315.9,164,312.1,160.1
					 M312.2,164.9h-5.1v-5L312.2,164.9 M303.9,157.5v10.7h10.7v57.2h-46.4v-67.9H303.9z"/>
			</g>
		</g>
	</g>
	<g>
		<g>
			<path class="st0" d="M289,174.5h-1.9l-1.5-5.8h0l-1.4,5.8h-1.9l-2.3-8.6h1.9l1.4,5.8h0l1.5-5.8h1.8l1.5,5.9h0l1.4-5.9h1.8
				L289,174.5z"/>
			<path class="st0" d="M292.1,165.9h1.9v8.6h-1.9V165.9z"/>
			<path class="st0" d="M295.7,165.9h3.9c2.1,0,3,1.4,3,2.7s-0.8,2.7-3,2.7h-2v3.1h-1.9V165.9z M297.6,170h1.5
				c0.9,0,1.7-0.2,1.7-1.3s-0.8-1.3-1.7-1.3h-1.5V170z"/>
			<path class="st0" d="M280.4,177.4h2.3c0.8,0,1.3,0.5,1.3,1.2c0,0.5-0.2,0.9-0.7,1.1v0c0.5,0.1,0.6,0.6,0.6,1c0,0.3,0,0.8,0.2,1
				h-0.9c-0.1-0.3-0.1-0.7-0.1-1c-0.1-0.4-0.2-0.6-0.7-0.6h-0.9v1.7h-0.9V177.4z M281.3,179.4h1c0.4,0,0.6-0.2,0.6-0.6
				c0-0.4-0.2-0.6-0.6-0.6h-1V179.4z"/>
			<path class="st0" d="M285.3,180.4c0,0.5,0.3,0.8,0.8,0.8c0.3,0,0.6-0.2,0.7-0.4h0.7c-0.2,0.7-0.7,1-1.5,1c-1,0-1.6-0.7-1.6-1.6
				c0-0.9,0.6-1.6,1.6-1.6c1.1,0,1.6,0.9,1.5,1.8H285.3z M286.7,179.8c-0.1-0.4-0.3-0.7-0.7-0.7c-0.5,0-0.7,0.4-0.7,0.7H286.7z"/>
			<path class="st0" d="M288.1,178.6h0.8v0.4h0c0.2-0.3,0.5-0.5,0.9-0.5c1,0,1.4,0.8,1.4,1.7c0,0.8-0.5,1.6-1.4,1.6
				c-0.4,0-0.7-0.2-0.9-0.5h0v1.5h-0.9V178.6z M290.4,180.2c0-0.5-0.2-1-0.7-1c-0.6,0-0.7,0.5-0.7,1c0,0.5,0.2,1,0.7,1
				C290.2,181.1,290.4,180.7,290.4,180.2z"/>
			<path class="st0" d="M293.2,178.5c1,0,1.6,0.6,1.6,1.6c0,1-0.6,1.6-1.6,1.6c-1,0-1.6-0.6-1.6-1.6
				C291.6,179.2,292.3,178.5,293.2,178.5z M293.2,181.1c0.6,0,0.8-0.5,0.8-1c0-0.5-0.2-1-0.8-1c-0.6,0-0.7,0.5-0.7,1
				C292.5,180.6,292.7,181.1,293.2,181.1z"/>
			<path class="st0" d="M295.4,178.6h0.8v0.6h0c0.2-0.4,0.6-0.7,1-0.7c0.1,0,0.1,0,0.2,0v0.8c-0.1,0-0.2,0-0.3,0
				c-0.6,0-0.8,0.4-0.8,1v1.4h-0.9V178.6z"/>
			<path class="st0" d="M298.8,178.6h0.6v0.6h-0.6v1.5c0,0.3,0.1,0.4,0.4,0.4c0.1,0,0.2,0,0.3,0v0.7c-0.1,0-0.3,0-0.5,0
				c-0.5,0-1-0.1-1-0.7v-1.8h-0.5v-0.6h0.5v-0.9h0.9V178.6z"/>
		</g>
	</g>
	<g>
		<g>
			<polygon class="st0" points="298.4,210.3 296.1,208 301.4,202.8 296.1,197.5 298.4,195.2 305.9,202.8 			"/>
		</g>
	</g>
	<g>
		<g>
			<polygon class="st0" points="285,195.4 287.3,197.7 282,203 287.3,208.3 285,210.5 277.5,203 			"/>
		</g>
	</g>
</g>
<g>
	<path class="st0" d="M477.8,310.3c-35,0-68.8-5.8-95.3-16.4c-26.4-10.5-43.8-25.1-49.2-41l1.9-0.6c5.2,15.3,22.2,29.5,48,39.8
		c26.2,10.5,59.8,16.2,94.6,16.2c79.6,0,144.3-29.6,144.3-66h2c0,18.3-15.3,35.5-43.1,48.3C553.4,303.3,516.8,310.3,477.8,310.3z"/>
	<g>
		<polygon class="st0" points="322.8,256.4 346.7,252 332.5,242.2 		"/>
	</g>
</g>
<g>
	<path class="st0" d="M333.5,143h-2c0-18.3,15.3-35.5,43.1-48.3C402.2,82,438.9,75,477.8,75c35,0,68.8,5.8,95.3,16.4
		c26.4,10.5,43.8,25.1,49.2,41l-1.9,0.6c-5.2-15.3-22.2-29.5-48-39.8C546.1,82.7,512.6,77,477.8,77C398.3,77,333.5,106.6,333.5,143z
		"/>
	<g>
		<polygon class="st0" points="632.8,128.8 608.9,133.3 623.1,143 		"/>
	</g>
</g>
<g>
	<path class="st0" d="M51.2,310.8c-0.1-1.2-0.9-1.8-2.1-1.8c-1,0-1.9,0.3-1.9,1.5c0,1.1,1.4,1.2,2.7,1.5c1.4,0.3,2.7,0.8,2.7,2.5
		c0,1.8-1.8,2.6-3.3,2.6c-1.9,0-3.5-0.9-3.5-3h1.1c0,1.4,1.2,2.1,2.5,2.1c1,0,2.2-0.3,2.2-1.6c0-1.2-1.4-1.4-2.7-1.7
		s-2.7-0.7-2.7-2.3c0-1.7,1.5-2.5,3.1-2.5c1.8,0,3.1,0.8,3.2,2.7H51.2z"/>
	<path class="st0" d="M59.1,314.9c-0.3,1.4-1.3,2.1-2.7,2.1c-2,0-2.9-1.4-3-3.3c0-1.9,1.2-3.2,2.9-3.2c2.2,0,2.9,2.1,2.8,3.5h-4.6
		c0,1.1,0.6,2,1.9,2c0.8,0,1.4-0.4,1.6-1.2H59.1z M58.1,313.1c0-1-0.8-1.8-1.8-1.8c-1.1,0-1.7,0.8-1.8,1.8H58.1z"/>
	<path class="st0" d="M60.3,310.6h1v1h0c0.4-0.8,1.1-1.1,2-1.1c1.6,0,2.1,0.9,2.1,2.3v4.1h-1v-4.2c0-0.8-0.5-1.2-1.3-1.2
		c-1.2,0-1.8,0.8-1.8,1.9v3.5h-1V310.6z"/>
	<path class="st0" d="M72.5,316.8h-1V316h0c-0.3,0.7-1.1,1-2,1c-1.9,0-2.9-1.5-2.9-3.3s0.9-3.2,2.8-3.2c0.6,0,1.5,0.2,2,1h0v-3.2h1
		V316.8z M69.6,316.1c1.4,0,1.9-1.2,1.9-2.3c0-1.2-0.6-2.4-2-2.4c-1.4,0-1.9,1.2-1.9,2.4C67.7,315,68.3,316.1,69.6,316.1z"/>
	<path class="st0" d="M78.8,310.6H80v0.9h-1.2v3.9c0,0.5,0.1,0.6,0.8,0.6H80v0.9h-0.8c-1.1,0-1.5-0.2-1.5-1.4v-3.9h-1.1v-0.9h1.1
		v-1.9h1V310.6z"/>
	<path class="st0" d="M81.2,308.3h1v3.3h0c0.3-0.7,1.2-1.1,2-1.1c1.6,0,2.1,0.9,2.1,2.3v4.1h-1v-4.2c0-0.8-0.5-1.2-1.3-1.2
		c-1.2,0-1.8,0.8-1.8,1.9v3.5h-1V308.3z"/>
	<path class="st0" d="M93.1,314.9c-0.3,1.4-1.3,2.1-2.7,2.1c-2,0-2.9-1.4-3-3.3c0-1.9,1.2-3.2,2.9-3.2c2.2,0,2.9,2.1,2.8,3.5h-4.6
		c0,1.1,0.6,2,1.9,2c0.8,0,1.4-0.4,1.6-1.2H93.1z M92.2,313.1c0-1-0.8-1.8-1.8-1.8c-1.1,0-1.7,0.8-1.8,1.8H92.2z"/>
	<path class="st0" d="M98,311.5h-1v-0.9h1v-0.9c0-1,0.6-1.5,1.7-1.5c0.2,0,0.5,0,0.7,0.1v0.9c-0.2-0.1-0.4-0.1-0.6-0.1
		c-0.5,0-0.8,0.2-0.8,0.7v0.9h1.2v0.9h-1.2v5.3h-1V311.5z M101.2,309.5v-1.2h1v1.2H101.2z M101.2,316.8v-6.2h1v6.2H101.2z"/>
	<path class="st0" d="M103.8,310.6h1v1h0c0.4-0.8,1.1-1.1,2-1.1c1.6,0,2.1,0.9,2.1,2.3v4.1h-1v-4.2c0-0.8-0.5-1.2-1.3-1.2
		c-1.2,0-1.8,0.8-1.8,1.9v3.5h-1V310.6z"/>
	<path class="st0" d="M116,316.8c-0.2,0.1-0.4,0.2-0.7,0.2c-0.5,0-0.9-0.3-0.9-1c-0.6,0.7-1.3,1-2.2,1c-1.1,0-2.1-0.5-2.1-1.7
		c0-1.4,1-1.7,2.1-1.9c1.1-0.2,2.1-0.1,2.1-0.9c0-0.9-0.7-1-1.4-1c-0.9,0-1.5,0.3-1.5,1.2h-1c0.1-1.5,1.2-2.1,2.6-2.1
		c1.1,0,2.3,0.3,2.3,1.7v3.2c0,0.5,0,0.7,0.3,0.7c0.1,0,0.2,0,0.3-0.1V316.8z M114.4,313.6c-0.4,0.3-1.2,0.3-1.8,0.4
		c-0.7,0.1-1.2,0.4-1.2,1.1c0,0.7,0.6,0.9,1.2,0.9c1.3,0,1.9-0.8,1.9-1.4V313.6z"/>
	<path class="st0" d="M117,308.3h1v8.6h-1V308.3z"/>
	<path class="st0" d="M65,323.9h-1v-1.2h1V323.9z M64,325h1v6.2h-1V325z"/>
	<path class="st0" d="M66.6,325h1v1h0c0.4-0.8,1.1-1.1,2-1.1c1.6,0,2.1,0.9,2.1,2.3v4.1h-1V327c0-0.8-0.5-1.2-1.3-1.2
		c-1.2,0-1.8,0.8-1.8,1.9v3.5h-1V325z"/>
	<path class="st0" d="M76.1,331.2H75l-2.3-6.2h1.1l1.7,5.2h0l1.7-5.2h1.1L76.1,331.2z"/>
	<path class="st0" d="M82,324.9c2,0,3,1.4,3,3.3c0,1.8-1,3.2-3,3.2c-2,0-3-1.4-3-3.2C79,326.3,80,324.9,82,324.9z M82,330.5
		c1.1,0,1.9-0.8,1.9-2.3c0-1.5-0.9-2.4-1.9-2.4c-1.1,0-1.9,0.8-1.9,2.4C80,329.6,80.9,330.5,82,330.5z"/>
	<path class="st0" d="M87.3,323.9h-1v-1.2h1V323.9z M86.2,325h1v6.2h-1V325z"/>
	<path class="st0" d="M93,327c-0.2-0.8-0.7-1.2-1.5-1.2c-1.5,0-1.9,1.2-1.9,2.4c0,1.1,0.5,2.3,1.8,2.3c1,0,1.6-0.6,1.7-1.5h1
		c-0.2,1.5-1.2,2.4-2.7,2.4c-1.9,0-2.9-1.3-2.9-3.2c0-1.9,1-3.3,2.9-3.3c1.4,0,2.5,0.7,2.7,2.1H93z"/>
	<path class="st0" d="M100.6,329.3c-0.3,1.4-1.3,2.1-2.7,2.1c-2,0-2.9-1.4-3-3.3c0-1.9,1.2-3.2,2.9-3.2c2.2,0,2.9,2.1,2.8,3.6H96
		c0,1.1,0.6,2,1.9,2c0.8,0,1.4-0.4,1.6-1.2H100.6z M99.6,327.5c0-1-0.8-1.8-1.8-1.8c-1.1,0-1.7,0.8-1.8,1.8H99.6z"/>
</g>
<g>
	<path class="st0" d="M156.7,229.1h4c1.6,0,2.6,0.9,2.6,2.2c0,1-0.5,1.9-1.5,2.2v0c1,0.2,1.2,0.9,1.3,1.8c0.1,0.8,0,1.8,0.5,2.4
		h-1.3c-0.3-0.3-0.1-1.3-0.3-2.1c-0.1-0.8-0.3-1.5-1.4-1.5h-2.8v3.7h-1.1V229.1z M160.2,233c1.1,0,2-0.3,2-1.5
		c0-0.8-0.5-1.5-1.5-1.5h-2.8v3H160.2z"/>
	<path class="st0" d="M170.1,235.7c-0.3,1.4-1.3,2.1-2.7,2.1c-2,0-2.9-1.4-3-3.3c0-1.9,1.2-3.2,2.9-3.2c2.2,0,2.9,2.1,2.8,3.5h-4.6
		c0,1.1,0.6,2,1.9,2c0.8,0,1.4-0.4,1.6-1.2H170.1z M169.1,233.9c0-1-0.8-1.8-1.8-1.8c-1.1,0-1.7,0.8-1.8,1.8H169.1z"/>
	<path class="st0" d="M175.4,233.4c-0.2-0.8-0.7-1.2-1.5-1.2c-1.5,0-1.9,1.2-1.9,2.4c0,1.1,0.5,2.3,1.8,2.3c1,0,1.6-0.6,1.7-1.5h1
		c-0.2,1.5-1.2,2.4-2.7,2.4c-1.9,0-2.9-1.3-2.9-3.2c0-1.9,1-3.3,2.9-3.3c1.4,0,2.5,0.7,2.7,2.1H175.4z"/>
	<path class="st0" d="M182.9,235.7c-0.3,1.4-1.3,2.1-2.7,2.1c-2,0-2.9-1.4-3-3.3c0-1.9,1.2-3.2,2.9-3.2c2.2,0,2.9,2.1,2.8,3.5h-4.6
		c0,1.1,0.6,2,1.9,2c0.8,0,1.4-0.4,1.6-1.2H182.9z M182,233.9c0-1-0.8-1.8-1.8-1.8c-1.1,0-1.7,0.8-1.8,1.8H182z"/>
	<path class="st0" d="M185.2,230.3h-1v-1.2h1V230.3z M184.2,231.4h1v6.2h-1V231.4z"/>
	<path class="st0" d="M189.6,237.6h-1.1l-2.3-6.2h1.1l1.7,5.2h0l1.7-5.2h1.1L189.6,237.6z"/>
	<path class="st0" d="M198,235.7c-0.3,1.4-1.3,2.1-2.7,2.1c-2,0-2.9-1.4-3-3.3c0-1.9,1.2-3.2,2.9-3.2c2.2,0,2.9,2.1,2.8,3.5h-4.6
		c0,1.1,0.6,2,1.9,2c0.8,0,1.4-0.4,1.6-1.2H198z M197.1,233.9c0-1-0.8-1.8-1.8-1.8c-1.1,0-1.7,0.8-1.8,1.8H197.1z"/>
	<path class="st0" d="M203,232.3h-1v-0.9h1v-0.9c0-1,0.6-1.5,1.7-1.5c0.2,0,0.5,0,0.7,0.1v0.9c-0.2-0.1-0.4-0.1-0.6-0.1
		c-0.5,0-0.8,0.2-0.8,0.7v0.9h1.2v0.9H204v5.3h-1V232.3z M206.2,230.3v-1.2h1v1.2H206.2z M206.2,237.6v-6.2h1v6.2H206.2z"/>
	<path class="st0" d="M208.8,231.4h1v1h0c0.4-0.8,1.1-1.1,2-1.1c1.6,0,2.1,0.9,2.1,2.3v4.1h-1v-4.2c0-0.8-0.5-1.2-1.3-1.2
		c-1.2,0-1.8,0.8-1.8,1.9v3.5h-1V231.4z"/>
	<path class="st0" d="M220.9,237.6c-0.2,0.1-0.4,0.2-0.7,0.2c-0.5,0-0.9-0.3-0.9-1c-0.6,0.7-1.3,1-2.2,1c-1.1,0-2.1-0.5-2.1-1.7
		c0-1.4,1-1.7,2.1-1.9c1.1-0.2,2.1-0.1,2.1-0.9c0-0.9-0.7-1-1.4-1c-0.9,0-1.5,0.3-1.5,1.2h-1c0.1-1.5,1.2-2.1,2.6-2.1
		c1.1,0,2.3,0.3,2.3,1.7v3.2c0,0.5,0,0.7,0.3,0.7c0.1,0,0.2,0,0.3-0.1V237.6z M219.3,234.4c-0.4,0.3-1.2,0.3-1.8,0.4
		c-0.7,0.1-1.2,0.4-1.2,1.1c0,0.7,0.6,0.9,1.2,0.9c1.3,0,1.9-0.8,1.9-1.4V234.4z"/>
	<path class="st0" d="M221.9,229.1h1v8.6h-1V229.1z"/>
	<path class="st0" d="M167.2,245.8h1v0.8h0c0.3-0.7,1.1-1,2-1c1.9,0,2.9,1.5,2.9,3.3s-0.9,3.2-2.8,3.2c-0.6,0-1.5-0.2-2-1h0v3.2h-1
		V245.8z M170.1,246.6c-1.4,0-1.9,1.2-1.9,2.3c0,1.2,0.6,2.4,2,2.4c1.4,0,1.9-1.2,1.9-2.4C172,247.7,171.4,246.6,170.1,246.6z"/>
	<path class="st0" d="M179.8,252c-0.2,0.1-0.4,0.2-0.7,0.2c-0.5,0-0.9-0.3-0.9-1c-0.6,0.7-1.3,1-2.2,1c-1.1,0-2.1-0.5-2.1-1.7
		c0-1.4,1-1.7,2.1-1.9c1.1-0.2,2.1-0.1,2.1-0.9c0-0.9-0.7-1-1.4-1c-0.9,0-1.5,0.3-1.5,1.2h-1c0.1-1.5,1.2-2.1,2.6-2.1
		c1.1,0,2.3,0.3,2.3,1.7v3.2c0,0.5,0,0.7,0.3,0.7c0.1,0,0.2,0,0.3-0.1V252z M178.1,248.8c-0.4,0.3-1.2,0.3-1.8,0.4
		c-0.7,0.1-1.2,0.4-1.2,1.1c0,0.7,0.6,0.9,1.2,0.9c1.3,0,1.9-0.8,1.9-1.4V248.8z"/>
	<path class="st0" d="M183.2,252.8c-0.5,1.2-0.9,1.7-1.8,1.7c-0.2,0-0.5,0-0.7-0.1v-0.9c0.2,0.1,0.4,0.1,0.6,0.1
		c0.4,0,0.6-0.2,0.8-0.6l0.4-1.1l-2.5-6.2h1.2l1.8,5.1h0l1.7-5.1h1.1L183.2,252.8z"/>
	<path class="st0" d="M186.8,245.8h1v0.9h0c0.5-0.7,1.2-1.1,2-1.1c0.8,0,1.5,0.3,1.7,1.1c0.4-0.7,1.2-1.1,1.9-1.1
		c1.2,0,2.1,0.5,2.1,1.8v4.5h-1V248c0-0.8-0.2-1.4-1.2-1.4c-1,0-1.6,0.6-1.6,1.6v3.9h-1V248c0-0.8-0.3-1.4-1.2-1.4
		c-1.2,0-1.7,1.1-1.7,1.6v3.9h-1V245.8z"/>
	<path class="st0" d="M202.3,250.1c-0.3,1.4-1.3,2.1-2.7,2.1c-2,0-2.9-1.4-3-3.3c0-1.9,1.2-3.2,2.9-3.2c2.2,0,2.9,2.1,2.8,3.6h-4.6
		c0,1.1,0.6,2,1.9,2c0.8,0,1.4-0.4,1.6-1.2H202.3z M201.3,248.3c0-1-0.8-1.8-1.8-1.8c-1.1,0-1.7,0.8-1.8,1.8H201.3z"/>
	<path class="st0" d="M203.4,245.8h1v1h0c0.4-0.8,1.1-1.1,2-1.1c1.6,0,2.1,0.9,2.1,2.3v4.1h-1v-4.2c0-0.8-0.5-1.2-1.3-1.2
		c-1.2,0-1.8,0.8-1.8,1.9v3.5h-1V245.8z"/>
	<path class="st0" d="M211.5,245.8h1.2v0.9h-1.2v3.8c0,0.5,0.1,0.6,0.8,0.6h0.5v0.9H212c-1.1,0-1.5-0.2-1.5-1.4v-3.9h-1.1v-0.9h1.1
		V244h1V245.8z"/>
</g>
<path class="st0" d="M266.7,236.7c-0.2-1.2-1.2-1.8-2.4-1.8c-2,0-2.9,1.7-2.9,3.5c0,2,0.9,3.6,2.9,3.6c1.5,0,2.4-1.1,2.5-2.5h1.1
	c-0.2,2.1-1.5,3.4-3.7,3.4c-2.7,0-4-2-4-4.5c0-2.5,1.4-4.5,4.1-4.5c1.8,0,3.3,1,3.5,2.8H266.7z"/>
<path class="st0" d="M269.2,234.2h1v3.3h0c0.3-0.7,1.2-1.1,2-1.1c1.6,0,2.1,0.9,2.1,2.3v4.1h-1v-4.2c0-0.8-0.5-1.2-1.3-1.2
	c-1.2,0-1.8,0.8-1.8,1.9v3.5h-1V234.2z"/>
<path class="st0" d="M281.2,240.8c-0.3,1.4-1.3,2.1-2.7,2.1c-2,0-2.9-1.4-3-3.3c0-1.9,1.2-3.2,2.9-3.2c2.2,0,2.9,2.1,2.8,3.5h-4.6
	c0,1.1,0.6,2,1.9,2c0.8,0,1.4-0.4,1.6-1.2H281.2z M280.2,239c0-1-0.8-1.8-1.8-1.8c-1.1,0-1.7,0.8-1.8,1.8H280.2z"/>
<path class="st0" d="M286.5,238.5c-0.2-0.8-0.7-1.2-1.5-1.2c-1.5,0-1.9,1.2-1.9,2.4c0,1.1,0.5,2.3,1.8,2.3c1,0,1.6-0.6,1.7-1.5h1
	c-0.2,1.5-1.2,2.4-2.7,2.4c-1.9,0-2.9-1.3-2.9-3.2c0-1.9,1-3.3,2.9-3.3c1.4,0,2.5,0.7,2.7,2.1H286.5z"/>
<path class="st0" d="M288.8,234.2h1v5.1l2.8-2.7h1.4l-2.5,2.3l2.6,3.9h-1.3l-2.1-3.2l-1,0.9v2.4h-1V234.2z"/>
<path class="st0" d="M306.2,242.7H305l-2-7.2h0l-2,7.2h-1.2l-2.2-8.6h1.2l1.7,7.1h0l1.9-7.1h1.2l1.9,7.1h0l1.7-7.1h1.1L306.2,242.7z
	"/>
<path class="st0" d="M309.6,234.2h1.1v8.6h-1.1V234.2z"/>
<path class="st0" d="M312.7,234.2h3.8c1.7,0,2.6,0.9,2.6,2.5s-0.9,2.5-2.6,2.5h-2.6v3.5h-1.1V234.2z M313.8,238.3h2.2
	c1.3,0,1.9-0.6,1.9-1.6s-0.6-1.6-1.9-1.6h-2.2V238.3z"/>
<path class="st0" d="M282.5,257.1c-0.2,0.1-0.4,0.2-0.7,0.2c-0.5,0-0.9-0.3-0.9-1c-0.6,0.7-1.3,1-2.2,1c-1.1,0-2.1-0.5-2.1-1.7
	c0-1.4,1-1.7,2.1-1.9c1.1-0.2,2.1-0.1,2.1-0.9c0-0.9-0.7-1-1.4-1c-0.9,0-1.5,0.3-1.5,1.2h-1c0.1-1.5,1.2-2.1,2.6-2.1
	c1.1,0,2.3,0.3,2.3,1.7v3.2c0,0.5,0,0.7,0.3,0.7c0.1,0,0.2,0,0.3-0.1V257.1z M280.8,253.9c-0.4,0.3-1.2,0.3-1.8,0.4
	c-0.7,0.1-1.2,0.4-1.2,1.1c0,0.7,0.6,0.9,1.2,0.9c1.3,0,1.9-0.8,1.9-1.4V253.9z"/>
<path class="st0" d="M283.5,248.7h1v8.6h-1V248.7z"/>
<path class="st0" d="M291.6,257.1c-0.2,0.1-0.4,0.2-0.7,0.2c-0.5,0-0.9-0.3-0.9-1c-0.6,0.7-1.3,1-2.2,1c-1.1,0-2.1-0.5-2.1-1.7
	c0-1.4,1-1.7,2.1-1.9c1.1-0.2,2.1-0.1,2.1-0.9c0-0.9-0.7-1-1.4-1c-0.9,0-1.5,0.3-1.5,1.2h-1c0.1-1.5,1.2-2.1,2.6-2.1
	c1.1,0,2.3,0.3,2.3,1.7v3.2c0,0.5,0,0.7,0.3,0.7c0.1,0,0.2,0,0.3-0.1V257.1z M289.9,253.9c-0.4,0.3-1.2,0.3-1.8,0.4
	c-0.7,0.1-1.2,0.4-1.2,1.1c0,0.7,0.6,0.9,1.2,0.9c1.3,0,1.9-0.8,1.9-1.4V253.9z"/>
<path class="st0" d="M292.5,251.1h1v1h0c0.4-0.8,1.1-1.1,2-1.1c1.6,0,2.1,0.9,2.1,2.3v4.1h-1v-4.2c0-0.8-0.5-1.2-1.3-1.2
	c-1.2,0-1.8,0.8-1.8,1.9v3.5h-1V251.1z"/>
<path class="st0" d="M303.4,252.9c-0.2-0.8-0.7-1.2-1.5-1.2c-1.5,0-1.9,1.2-1.9,2.4c0,1.1,0.5,2.3,1.8,2.3c1,0,1.6-0.6,1.7-1.5h1
	c-0.2,1.5-1.2,2.4-2.7,2.4c-1.9,0-2.9-1.3-2.9-3.2c0-1.9,1-3.3,2.9-3.3c1.4,0,2.5,0.7,2.7,2.1H303.4z"/>
<path class="st0" d="M310.9,255.2c-0.3,1.4-1.3,2.1-2.7,2.1c-2,0-2.9-1.4-3-3.3c0-1.9,1.2-3.2,2.9-3.2c2.2,0,2.9,2.1,2.8,3.6h-4.6
	c0,1.1,0.6,2,1.9,2c0.8,0,1.4-0.4,1.6-1.2H310.9z M309.9,253.4c0-1-0.8-1.8-1.8-1.8c-1.1,0-1.7,0.8-1.8,1.8H309.9z"/>
<g>
	<path class="st0" d="M49.5,370c0,1.3,1,1.8,2.2,1.8c1.3,0,1.8-0.6,1.8-1.3c0-0.7-0.4-0.9-0.7-1.1c-0.6-0.2-1.4-0.4-2.6-0.7
		c-1.5-0.4-1.9-1.3-1.9-2.2c0-1.7,1.6-2.5,3.1-2.5c1.8,0,3.3,0.9,3.3,2.7h-1.5c-0.1-1.1-0.8-1.5-1.8-1.5c-0.7,0-1.6,0.3-1.6,1.1
		c0,0.6,0.4,0.9,1,1.1c0.1,0,2,0.5,2.5,0.7c1.1,0.3,1.7,1.3,1.7,2.2c0,1.9-1.7,2.7-3.4,2.7c-2,0-3.5-0.9-3.6-3.1H49.5z"/>
	<path class="st0" d="M55.9,369.8c0-1.9,1.1-3.3,3.1-3.3s3.1,1.4,3.1,3.3c0,1.9-1.1,3.3-3.1,3.3S55.9,371.7,55.9,369.8z M60.7,369.8
		c0-1.1-0.5-2.2-1.8-2.2s-1.8,1.1-1.8,2.2c0,1.1,0.5,2.2,1.8,2.2S60.7,370.9,60.7,369.8z"/>
	<path class="st0" d="M62.6,366.7h1v-0.5c0-1.6,0.8-1.8,1.7-1.8c0.4,0,0.7,0,1,0.1v1.1c-0.2,0-0.4-0.1-0.6-0.1
		c-0.4,0-0.7,0.1-0.7,0.6v0.6h1.2v1H65v5.2h-1.4v-5.2h-1V366.7z"/>
	<path class="st0" d="M66.4,366.7h1v-1.9h1.4v1.9H70v1h-1.2v3.3c0,0.6,0,0.9,0.7,0.9c0.2,0,0.4,0,0.6,0v1.1c-0.3,0-0.6,0.1-0.9,0.1
		c-1.4,0-1.7-0.6-1.7-1.6v-3.7h-1V366.7z"/>
	<path class="st0" d="M78.6,368.8c-0.1-0.8-0.7-1.2-1.4-1.2c-0.7,0-1.7,0.4-1.7,2.3c0,1,0.5,2.1,1.6,2.1c0.8,0,1.3-0.5,1.5-1.4h1.4
		c-0.3,1.6-1.2,2.5-2.8,2.5c-1.9,0-3-1.4-3-3.2c0-1.9,1-3.3,3.1-3.3c1.4,0,2.7,0.7,2.8,2.2H78.6z"/>
	<path class="st0" d="M81.1,364.3h1.4v8.6h-1.4V364.3z"/>
	<path class="st0" d="M83.6,369.8c0-1.9,1.1-3.3,3.1-3.3s3.1,1.4,3.1,3.3c0,1.9-1.1,3.3-3.1,3.3S83.6,371.7,83.6,369.8z M88.5,369.8
		c0-1.1-0.5-2.2-1.8-2.2s-1.8,1.1-1.8,2.2c0,1.1,0.5,2.2,1.8,2.2S88.5,370.9,88.5,369.8z"/>
	<path class="st0" d="M92.1,370.9c0.1,0.8,0.7,1.1,1.4,1.1c0.5,0,1.4-0.1,1.4-0.8c0-0.7-1-0.8-2-1c-1-0.2-2-0.6-2-1.8
		c0-1.4,1.5-1.8,2.6-1.8c1.3,0,2.4,0.5,2.6,1.9h-1.4c-0.1-0.6-0.7-0.8-1.3-0.8c-0.4,0-1.1,0.1-1.1,0.6c0,0.7,1,0.8,2,1
		c1,0.2,2,0.6,2,1.8c0,1.5-1.5,2-2.8,2c-1.6,0-2.7-0.7-2.7-2.2H92.1z"/>
	<path class="st0" d="M98.3,370.1c0,1,0.5,1.8,1.7,1.8c0.8,0,1.3-0.3,1.5-1h1.3c-0.3,1.4-1.5,2.1-2.8,2.1c-1.9,0-3-1.4-3-3.3
		c0-1.8,1.2-3.3,3-3.3c2,0,3.2,1.8,2.9,3.6H98.3z M101.5,369.2c0-0.9-0.6-1.6-1.6-1.6c-0.9,0-1.6,0.7-1.6,1.6H101.5z"/>
	<path class="st0" d="M108.3,370.9c0.1,0.8,0.7,1.1,1.4,1.1c0.5,0,1.4-0.1,1.4-0.8c0-0.7-1-0.8-2-1c-1-0.2-2-0.6-2-1.8
		c0-1.4,1.5-1.8,2.6-1.8c1.3,0,2.4,0.5,2.6,1.9h-1.4c-0.1-0.6-0.7-0.8-1.3-0.8c-0.4,0-1.1,0.1-1.1,0.6c0,0.7,1,0.8,2,1
		c1,0.2,2,0.6,2,1.8c0,1.5-1.5,2-2.8,2c-1.6,0-2.7-0.7-2.7-2.2H108.3z"/>
	<path class="st0" d="M112.9,366.7h1v-1.9h1.4v1.9h1.2v1h-1.2v3.3c0,0.6,0,0.9,0.7,0.9c0.2,0,0.4,0,0.6,0v1.1
		c-0.3,0-0.6,0.1-0.9,0.1c-1.4,0-1.7-0.6-1.7-1.6v-3.7h-1V366.7z"/>
	<path class="st0" d="M122.7,371.5c0,0.3,0.1,0.5,0.3,0.5c0.1,0,0.2,0,0.3,0v0.9c-0.2,0.1-0.6,0.2-0.9,0.2c-0.6,0-0.9-0.2-1.1-0.8
		c-0.5,0.5-1.4,0.8-2.1,0.8c-1.1,0-2.1-0.6-2.1-1.8c0-1.5,1.2-1.8,2.4-1.9c1-0.2,1.9-0.1,1.9-0.9c0-0.7-0.7-0.8-1.3-0.8
		c-0.8,0-1.3,0.3-1.4,1h-1.4c0.1-1.6,1.5-2.1,2.8-2.1c1.2,0,2.5,0.5,2.5,1.8V371.5z M121.3,369.8c-0.4,0.3-1.1,0.3-1.7,0.4
		c-0.6,0.1-1.1,0.3-1.1,1c0,0.6,0.8,0.8,1.3,0.8c0.6,0,1.5-0.3,1.5-1.2V369.8z"/>
	<path class="st0" d="M123.6,366.7h1v-1.9h1.4v1.9h1.2v1H126v3.3c0,0.6,0,0.9,0.7,0.9c0.2,0,0.4,0,0.6,0v1.1c-0.3,0-0.6,0.1-0.9,0.1
		c-1.4,0-1.7-0.6-1.7-1.6v-3.7h-1V366.7z"/>
	<path class="st0" d="M133.6,372.9h-1.3V372h0c-0.3,0.6-1.1,1-1.8,1c-1.6,0-2.3-0.8-2.3-2.4v-3.9h1.4v3.8c0,1.1,0.4,1.5,1.2,1.5
		c1.1,0,1.5-0.7,1.5-1.7v-3.6h1.4V372.9z"/>
	<path class="st0" d="M136.1,370.9c0.1,0.8,0.7,1.1,1.4,1.1c0.5,0,1.4-0.1,1.4-0.8c0-0.7-1-0.8-2-1c-1-0.2-2-0.6-2-1.8
		c0-1.4,1.5-1.8,2.6-1.8c1.3,0,2.4,0.5,2.6,1.9h-1.4c-0.1-0.6-0.7-0.8-1.3-0.8c-0.4,0-1.1,0.1-1.1,0.6c0,0.7,1,0.8,2,1
		c1,0.2,2,0.6,2,1.8c0,1.5-1.5,2-2.8,2c-1.6,0-2.7-0.7-2.7-2.2H136.1z"/>
</g>
<g>
	<g>
		<rect x="149.5" y="369" class="st0" width="601.2" height="2"/>
		<g>
			<polygon class="st0" points="747.7,380 765,370 747.7,360 			"/>
		</g>
	</g>
</g>
<g>
	<path class="st0" d="M781.8,353.7h1.5v3.4h3.9v-3.4h1.5v8.6h-1.5v-3.9h-3.9v3.9h-1.5V353.7z"/>
	<path class="st0" d="M795.5,360.8c0,0.3,0.1,0.5,0.3,0.5c0.1,0,0.2,0,0.3,0v0.9c-0.2,0.1-0.6,0.2-0.9,0.2c-0.6,0-0.9-0.2-1.1-0.8
		c-0.5,0.5-1.4,0.8-2.1,0.8c-1.1,0-2.1-0.6-2.1-1.8c0-1.5,1.2-1.8,2.4-1.9c1-0.2,1.9-0.1,1.9-0.9c0-0.7-0.7-0.8-1.3-0.8
		c-0.8,0-1.3,0.3-1.4,1h-1.4c0.1-1.6,1.5-2.1,2.8-2.1c1.2,0,2.5,0.5,2.5,1.8V360.8z M794.2,359.1c-0.4,0.3-1.1,0.3-1.7,0.4
		c-0.6,0.1-1.1,0.3-1.1,1c0,0.6,0.8,0.8,1.3,0.8c0.6,0,1.5-0.3,1.5-1.2V359.1z"/>
	<path class="st0" d="M797,356h1.3v1.2h0c0.2-0.7,1-1.4,1.8-1.4c0.3,0,0.4,0,0.5,0v1.3c-0.2,0-0.4-0.1-0.6-0.1
		c-0.9,0-1.7,0.8-1.7,2.1v3H797V356z"/>
	<path class="st0" d="M806.9,362.2h-1.3v-0.8h0c-0.4,0.7-1.1,1-1.9,1c-2,0-2.9-1.5-2.9-3.3c0-2.2,1.3-3.2,2.7-3.2
		c0.8,0,1.6,0.3,2.1,1h0v-3.2h1.4V362.2z M803.8,361.3c1.2,0,1.7-1.1,1.7-2.2c0-1.4-0.7-2.2-1.7-2.2c-1.3,0-1.7,1.1-1.7,2.3
		C802.1,360.3,802.6,361.3,803.8,361.3z"/>
	<path class="st0" d="M815.9,358.1c-0.1-0.8-0.7-1.2-1.4-1.2c-0.7,0-1.7,0.4-1.7,2.3c0,1,0.5,2.1,1.6,2.1c0.8,0,1.3-0.5,1.5-1.4h1.4
		c-0.3,1.6-1.2,2.5-2.8,2.5c-1.9,0-3-1.4-3-3.2c0-1.9,1-3.3,3.1-3.3c1.4,0,2.7,0.7,2.8,2.2H815.9z"/>
	<path class="st0" d="M818.4,353.7h1.4v8.6h-1.4V353.7z"/>
	<path class="st0" d="M821,359.1c0-1.9,1.1-3.3,3.1-3.3c2,0,3.1,1.4,3.1,3.3c0,1.9-1.1,3.3-3.1,3.3C822.1,362.4,821,361,821,359.1z
		 M825.9,359.1c0-1.1-0.5-2.2-1.8-2.2c-1.2,0-1.8,1.1-1.8,2.2c0,1.1,0.5,2.2,1.8,2.2C825.3,361.3,825.9,360.2,825.9,359.1z"/>
	<path class="st0" d="M829.4,360.2c0.1,0.8,0.7,1.1,1.4,1.1c0.5,0,1.4-0.1,1.4-0.8c0-0.7-1-0.8-2-1c-1-0.2-2-0.6-2-1.8
		c0-1.4,1.5-1.8,2.6-1.8c1.3,0,2.4,0.5,2.6,1.9h-1.4c-0.1-0.6-0.7-0.8-1.3-0.8c-0.4,0-1.1,0.1-1.1,0.6c0,0.7,1,0.8,2,1
		c1,0.2,2,0.6,2,1.8c0,1.5-1.5,2-2.8,2c-1.6,0-2.7-0.7-2.7-2.2H829.4z"/>
	<path class="st0" d="M835.7,359.5c0,1,0.5,1.8,1.7,1.8c0.8,0,1.3-0.3,1.5-1h1.3c-0.3,1.4-1.5,2.1-2.8,2.1c-1.9,0-3-1.4-3-3.3
		c0-1.8,1.2-3.3,3-3.3c2,0,3.2,1.8,2.9,3.6H835.7z M838.9,358.6c0-0.9-0.6-1.6-1.6-1.6c-0.9,0-1.6,0.7-1.6,1.6H838.9z"/>
	<path class="st0" d="M845.6,360.2c0.1,0.8,0.7,1.1,1.4,1.1c0.5,0,1.4-0.1,1.4-0.8c0-0.7-1-0.8-2-1c-1-0.2-2-0.6-2-1.8
		c0-1.4,1.5-1.8,2.6-1.8c1.3,0,2.4,0.5,2.6,1.9h-1.4c-0.1-0.6-0.7-0.8-1.3-0.8c-0.4,0-1.1,0.1-1.1,0.6c0,0.7,1,0.8,2,1
		c1,0.2,2,0.6,2,1.8c0,1.5-1.5,2-2.8,2c-1.6,0-2.7-0.7-2.7-2.2H845.6z"/>
	<path class="st0" d="M850.2,356h1v-1.9h1.4v1.9h1.2v1h-1.2v3.3c0,0.6,0,0.9,0.7,0.9c0.2,0,0.4,0,0.6,0v1.1c-0.3,0-0.6,0.1-0.9,0.1
		c-1.4,0-1.7-0.6-1.7-1.6V357h-1V356z"/>
	<path class="st0" d="M860,360.8c0,0.3,0.1,0.5,0.3,0.5c0.1,0,0.2,0,0.3,0v0.9c-0.2,0.1-0.6,0.2-0.9,0.2c-0.6,0-0.9-0.2-1.1-0.8
		c-0.5,0.5-1.4,0.8-2.1,0.8c-1.1,0-2.1-0.6-2.1-1.8c0-1.5,1.2-1.8,2.4-1.9c1-0.2,1.9-0.1,1.9-0.9c0-0.7-0.7-0.8-1.3-0.8
		c-0.8,0-1.3,0.3-1.4,1h-1.4c0.1-1.6,1.5-2.1,2.8-2.1c1.2,0,2.5,0.5,2.5,1.8V360.8z M858.7,359.1c-0.4,0.3-1.1,0.3-1.7,0.4
		c-0.6,0.1-1.1,0.3-1.1,1c0,0.6,0.8,0.8,1.3,0.8c0.6,0,1.5-0.3,1.5-1.2V359.1z"/>
	<path class="st0" d="M860.9,356h1v-1.9h1.4v1.9h1.2v1h-1.2v3.3c0,0.6,0,0.9,0.7,0.9c0.2,0,0.4,0,0.6,0v1.1c-0.3,0-0.6,0.1-0.9,0.1
		c-1.4,0-1.7-0.6-1.7-1.6V357h-1V356z"/>
	<path class="st0" d="M871,362.2h-1.3v-0.9h0c-0.3,0.6-1.1,1-1.8,1c-1.6,0-2.3-0.8-2.3-2.4V356h1.4v3.8c0,1.1,0.4,1.5,1.2,1.5
		c1.1,0,1.5-0.7,1.5-1.7V356h1.4V362.2z"/>
	<path class="st0" d="M873.4,360.2c0.1,0.8,0.7,1.1,1.4,1.1c0.5,0,1.4-0.1,1.4-0.8c0-0.7-1-0.8-2-1c-1-0.2-2-0.6-2-1.8
		c0-1.4,1.5-1.8,2.6-1.8c1.3,0,2.4,0.5,2.6,1.9h-1.4c-0.1-0.6-0.7-0.8-1.3-0.8c-0.4,0-1.1,0.1-1.1,0.6c0,0.7,1,0.8,2,1
		c1,0.2,2,0.6,2,1.8c0,1.5-1.5,2-2.8,2c-1.6,0-2.7-0.7-2.7-2.2H873.4z"/>
	<path class="st0" d="M881.8,358.3h3.5v1.3h-3.5V358.3z"/>
	<path class="st0" d="M783.5,372.5c-0.1-0.8-0.7-1.2-1.4-1.2c-0.7,0-1.7,0.4-1.7,2.3c0,1,0.5,2.1,1.6,2.1c0.8,0,1.3-0.5,1.5-1.4h1.4
		c-0.3,1.6-1.2,2.5-2.8,2.5c-1.9,0-3-1.4-3-3.2c0-1.9,1-3.3,3.1-3.3c1.4,0,2.7,0.7,2.8,2.2H783.5z"/>
	<path class="st0" d="M786,368.1h1.4v3.2h0c0.3-0.6,1-1,1.9-1c1.3,0,2.2,0.7,2.2,2.1v4.3h-1.4v-3.9c0-1-0.4-1.4-1.2-1.4
		c-0.9,0-1.5,0.7-1.5,1.6v3.7H786V368.1z"/>
	<path class="st0" d="M798.1,375.2c0,0.3,0.1,0.5,0.3,0.5c0.1,0,0.2,0,0.3,0v0.9c-0.2,0.1-0.6,0.2-0.9,0.2c-0.6,0-0.9-0.2-1.1-0.8
		c-0.5,0.5-1.4,0.8-2.1,0.8c-1.1,0-2.1-0.6-2.1-1.8c0-1.5,1.2-1.8,2.4-1.9c1-0.2,1.9-0.1,1.9-0.9c0-0.7-0.7-0.8-1.3-0.8
		c-0.8,0-1.3,0.3-1.4,1h-1.4c0.1-1.6,1.5-2.1,2.8-2.1c1.2,0,2.5,0.5,2.5,1.8V375.2z M796.7,373.5c-0.4,0.3-1.1,0.3-1.7,0.4
		c-0.6,0.1-1.1,0.3-1.1,1c0,0.6,0.8,0.8,1.3,0.8c0.6,0,1.5-0.3,1.5-1.2V373.5z"/>
	<path class="st0" d="M799.6,370.4h1.3v1.2h0c0.2-0.7,1-1.4,1.8-1.4c0.3,0,0.4,0,0.5,0v1.3c-0.2,0-0.4-0.1-0.6-0.1
		c-0.9,0-1.7,0.8-1.7,2.1v3h-1.4V370.4z"/>
	<path class="st0" d="M809.5,376.3c0,1.9-1.1,2.8-3,2.8c-1.2,0-2.7-0.5-2.8-1.9h1.4c0.2,0.8,0.8,0.9,1.5,0.9c1.1,0,1.6-0.6,1.6-1.6
		v-0.9h0c-0.4,0.7-1.1,1.1-1.9,1.1c-2,0-2.8-1.5-2.8-3.3c0-1.7,1-3.1,2.8-3.1c0.8,0,1.5,0.3,1.8,1h0v-0.9h1.4V376.3z M808.2,373.4
		c0-1.1-0.5-2.1-1.7-2.1c-1.2,0-1.6,1.1-1.6,2.2c0,1,0.5,2.1,1.6,2.1C807.7,375.5,808.2,374.4,808.2,373.4z"/>
	<path class="st0" d="M812,373.9c0,1,0.5,1.8,1.7,1.8c0.8,0,1.3-0.3,1.5-1h1.3c-0.3,1.4-1.5,2.1-2.8,2.1c-1.9,0-3-1.4-3-3.3
		c0-1.8,1.2-3.3,3-3.3c2,0,3.2,1.8,2.9,3.6H812z M815.2,373c0-0.9-0.6-1.6-1.6-1.6c-0.9,0-1.6,0.7-1.6,1.6H815.2z"/>
	<path class="st0" d="M825.1,372.5c-0.1-0.8-0.7-1.2-1.4-1.2c-0.7,0-1.7,0.4-1.7,2.3c0,1,0.5,2.1,1.6,2.1c0.8,0,1.3-0.5,1.5-1.4h1.4
		c-0.3,1.6-1.2,2.5-2.8,2.5c-1.9,0-3-1.4-3-3.2c0-1.9,1-3.3,3.1-3.3c1.4,0,2.7,0.7,2.8,2.2H825.1z"/>
	<path class="st0" d="M827.3,373.5c0-1.9,1.1-3.3,3.1-3.3c2,0,3.1,1.4,3.1,3.3c0,1.9-1.1,3.3-3.1,3.3
		C828.5,376.8,827.3,375.4,827.3,373.5z M832.2,373.5c0-1.1-0.5-2.2-1.8-2.2c-1.2,0-1.8,1.1-1.8,2.2c0,1.1,0.5,2.2,1.8,2.2
		C831.7,375.7,832.2,374.6,832.2,373.5z"/>
	<path class="st0" d="M840.6,376.6h-1.3v-0.8h0c-0.4,0.7-1.1,1-1.9,1c-2,0-2.9-1.5-2.9-3.3c0-2.2,1.3-3.2,2.7-3.2
		c0.8,0,1.6,0.3,2.1,1h0v-3.2h1.4V376.6z M837.5,375.7c1.2,0,1.7-1.1,1.7-2.2c0-1.4-0.7-2.2-1.7-2.2c-1.3,0-1.7,1.1-1.7,2.3
		C835.8,374.7,836.3,375.7,837.5,375.7z"/>
	<path class="st0" d="M843.1,373.9c0,1,0.5,1.8,1.7,1.8c0.8,0,1.3-0.3,1.5-1h1.3c-0.3,1.4-1.5,2.1-2.8,2.1c-1.9,0-3-1.4-3-3.3
		c0-1.8,1.2-3.3,3-3.3c2,0,3.2,1.8,2.9,3.6H843.1z M846.3,373c0-0.9-0.6-1.6-1.6-1.6c-0.9,0-1.6,0.7-1.6,1.6H846.3z"/>
	<path class="st0" d="M856.2,372.5c-0.1-0.8-0.7-1.2-1.4-1.2c-0.7,0-1.7,0.4-1.7,2.3c0,1,0.5,2.1,1.6,2.1c0.8,0,1.3-0.5,1.5-1.4h1.4
		c-0.3,1.6-1.2,2.5-2.8,2.5c-1.9,0-3-1.4-3-3.2c0-1.9,1-3.3,3.1-3.3c1.4,0,2.7,0.7,2.8,2.2H856.2z"/>
	<path class="st0" d="M858.8,368.1h1.4v8.6h-1.4V368.1z"/>
	<path class="st0" d="M861.3,373.5c0-1.9,1.1-3.3,3.1-3.3c2,0,3.1,1.4,3.1,3.3c0,1.9-1.1,3.3-3.1,3.3
		C862.5,376.8,861.3,375.4,861.3,373.5z M866.2,373.5c0-1.1-0.5-2.2-1.8-2.2c-1.2,0-1.8,1.1-1.8,2.2c0,1.1,0.5,2.2,1.8,2.2
		C865.7,375.7,866.2,374.6,866.2,373.5z"/>
	<path class="st0" d="M869.8,374.6c0.1,0.8,0.7,1.1,1.4,1.1c0.5,0,1.4-0.1,1.4-0.8c0-0.7-1-0.8-2-1c-1-0.2-2-0.6-2-1.8
		c0-1.4,1.5-1.8,2.6-1.8c1.3,0,2.4,0.5,2.6,1.9h-1.4c-0.1-0.6-0.7-0.8-1.3-0.8c-0.4,0-1.1,0.1-1.1,0.6c0,0.7,1,0.8,2,1
		c1,0.2,2,0.6,2,1.8c0,1.5-1.5,2-2.8,2c-1.6,0-2.7-0.7-2.7-2.2H869.8z"/>
	<path class="st0" d="M876,373.9c0,1,0.5,1.8,1.7,1.8c0.8,0,1.3-0.3,1.5-1h1.3c-0.3,1.4-1.5,2.1-2.8,2.1c-1.9,0-3-1.4-3-3.3
		c0-1.8,1.2-3.3,3-3.3c2,0,3.2,1.8,2.9,3.6H876z M879.2,373c0-0.9-0.6-1.6-1.6-1.6c-0.9,0-1.6,0.7-1.6,1.6H879.2z"/>
	<path class="st0" d="M887.5,376.6h-1.3v-0.8h0c-0.4,0.7-1.1,1-1.9,1c-2,0-2.9-1.5-2.9-3.3c0-2.2,1.3-3.2,2.7-3.2
		c0.8,0,1.6,0.3,2.1,1h0v-3.2h1.4V376.6z M884.4,375.7c1.2,0,1.7-1.1,1.7-2.2c0-1.4-0.7-2.2-1.7-2.2c-1.3,0-1.7,1.1-1.7,2.3
		C882.7,374.7,883.2,375.7,884.4,375.7z"/>
</g>
<g>
	<path class="st0" d="M488,212.5h1.6l2.7,7.2l2.7-7.2h1.6v8.6h-1.1V214h0l-2.7,7.1h-1l-2.7-7.1h0v7.1H488V212.5z"/>
	<path class="st0" d="M503.8,221.1c-0.2,0.1-0.4,0.2-0.7,0.2c-0.5,0-0.9-0.3-0.9-1c-0.6,0.7-1.3,1-2.2,1c-1.1,0-2.1-0.5-2.1-1.7
		c0-1.4,1-1.7,2.1-1.9c1.1-0.2,2.1-0.1,2.1-0.9c0-0.9-0.7-1-1.4-1c-0.9,0-1.5,0.3-1.5,1.2h-1c0.1-1.5,1.2-2.1,2.6-2.1
		c1.1,0,2.3,0.3,2.3,1.7v3.2c0,0.5,0,0.7,0.3,0.7c0.1,0,0.2,0,0.3-0.1V221.1z M502.1,217.9c-0.4,0.3-1.2,0.3-1.8,0.4
		c-0.7,0.1-1.2,0.4-1.2,1.1c0,0.7,0.6,0.9,1.2,0.9c1.3,0,1.9-0.8,1.9-1.4V217.9z"/>
	<path class="st0" d="M504.8,212.5h1v5.1l2.8-2.7h1.4l-2.5,2.3l2.6,3.9h-1.3l-2.1-3.2l-1,0.9v2.4h-1V212.5z"/>
	<path class="st0" d="M516.3,219.1c-0.3,1.4-1.3,2.1-2.7,2.1c-2,0-2.9-1.4-3-3.3c0-1.9,1.2-3.2,2.9-3.2c2.2,0,2.9,2.1,2.8,3.5h-4.6
		c0,1.1,0.6,2,1.9,2c0.8,0,1.4-0.4,1.6-1.2H516.3z M515.3,217.4c0-1-0.8-1.8-1.8-1.8c-1.1,0-1.7,0.8-1.8,1.8H515.3z"/>
	<path class="st0" d="M526.2,221.1c-0.2,0.1-0.4,0.2-0.7,0.2c-0.5,0-0.9-0.3-0.9-1c-0.6,0.7-1.3,1-2.2,1c-1.1,0-2.1-0.5-2.1-1.7
		c0-1.4,1-1.7,2.1-1.9c1.1-0.2,2.1-0.1,2.1-0.9c0-0.9-0.7-1-1.4-1c-0.9,0-1.5,0.3-1.5,1.2h-1c0.1-1.5,1.2-2.1,2.6-2.1
		c1.1,0,2.3,0.3,2.3,1.7v3.2c0,0.5,0,0.7,0.3,0.7c0.1,0,0.2,0,0.3-0.1V221.1z M524.6,217.9c-0.4,0.3-1.2,0.3-1.8,0.4
		c-0.7,0.1-1.2,0.4-1.2,1.1c0,0.7,0.6,0.9,1.2,0.9c1.3,0,1.9-0.8,1.9-1.4V217.9z"/>
	<path class="st0" d="M532.7,221.1h-1v-0.8h0c-0.3,0.7-1.1,1-2,1c-1.9,0-2.9-1.5-2.9-3.3s0.9-3.2,2.8-3.2c0.6,0,1.5,0.2,2,1h0v-3.2
		h1V221.1z M529.9,220.3c1.4,0,1.9-1.2,1.9-2.3c0-1.2-0.6-2.4-2-2.4c-1.4,0-1.9,1.2-1.9,2.4C527.9,219.2,528.5,220.3,529.9,220.3z"
		/>
	<path class="st0" d="M535.4,221.9c0,1.1-0.6,1.6-1.5,1.6c-0.2,0-0.3,0-0.5,0v-0.9c0.1,0,0.3,0,0.4,0c0.4,0,0.6-0.2,0.6-0.9v-6.8h1
		V221.9z M535.4,213.8h-1v-1.2h1V213.8z"/>
	<path class="st0" d="M542.1,221.1h-1v-1h0c-0.4,0.8-1.1,1.1-2,1.1c-1.6,0-2.1-0.9-2.1-2.3v-4.1h1v4.2c0,0.8,0.5,1.2,1.3,1.2
		c1.2,0,1.8-0.8,1.8-1.9v-3.5h1V221.1z"/>
	<path class="st0" d="M544.3,219.1c0,0.9,0.8,1.2,1.7,1.2c0.6,0,1.5-0.1,1.5-0.9c0-0.8-1-0.9-2-1.2c-1-0.2-2-0.6-2-1.8
		c0-1.2,1.2-1.8,2.3-1.8c1.4,0,2.5,0.4,2.5,1.9h-1c-0.1-0.8-0.8-1-1.4-1c-0.6,0-1.3,0.2-1.3,0.8c0,0.7,1.1,0.9,2,1.1
		c1,0.2,2,0.6,2,1.8c0,1.5-1.4,2-2.6,2c-1.4,0-2.6-0.6-2.6-2.1H544.3z"/>
	<path class="st0" d="M551.1,214.9h1.2v0.9h-1.2v3.9c0,0.5,0.1,0.6,0.8,0.6h0.5v0.9h-0.8c-1.1,0-1.5-0.2-1.5-1.4v-3.9H549v-0.9h1.1
		V213h1V214.9z"/>
	<path class="st0" d="M553.4,214.9h1v0.9h0c0.5-0.7,1.2-1.1,2-1.1c0.8,0,1.5,0.3,1.7,1.1c0.4-0.7,1.2-1.1,1.9-1.1
		c1.2,0,2.1,0.5,2.1,1.8v4.5h-1V217c0-0.8-0.2-1.4-1.2-1.4c-1,0-1.6,0.6-1.6,1.6v3.9h-1V217c0-0.8-0.3-1.4-1.2-1.4
		c-1.2,0-1.7,1.1-1.7,1.6v3.9h-1V214.9z"/>
	<path class="st0" d="M569,219.1c-0.3,1.4-1.3,2.1-2.7,2.1c-2,0-2.9-1.4-3-3.3c0-1.9,1.2-3.2,2.9-3.2c2.2,0,2.9,2.1,2.8,3.5h-4.6
		c0,1.1,0.6,2,1.9,2c0.8,0,1.4-0.4,1.6-1.2H569z M568,217.4c0-1-0.8-1.8-1.8-1.8c-1.1,0-1.7,0.8-1.8,1.8H568z"/>
	<path class="st0" d="M570.1,214.9h1v1h0c0.4-0.8,1.1-1.1,2-1.1c1.6,0,2.1,0.9,2.1,2.3v4.1h-1v-4.2c0-0.8-0.5-1.2-1.3-1.2
		c-1.2,0-1.8,0.8-1.8,1.9v3.5h-1V214.9z"/>
	<path class="st0" d="M578.2,214.9h1.2v0.9h-1.2v3.9c0,0.5,0.1,0.6,0.8,0.6h0.5v0.9h-0.8c-1.1,0-1.5-0.2-1.5-1.4v-3.9h-1.1v-0.9h1.1
		V213h1V214.9z"/>
	<path class="st0" d="M581.2,219.1c0,0.9,0.8,1.2,1.7,1.2c0.6,0,1.5-0.1,1.5-0.9c0-0.8-1-0.9-2-1.2c-1-0.2-2-0.6-2-1.8
		c0-1.2,1.2-1.8,2.3-1.8c1.4,0,2.5,0.4,2.5,1.9h-1c-0.1-0.8-0.8-1-1.4-1c-0.6,0-1.3,0.2-1.3,0.8c0,0.7,1.1,0.9,2,1.1
		c1,0.2,2,0.6,2,1.8c0,1.5-1.4,2-2.6,2c-1.4,0-2.6-0.6-2.6-2.1H581.2z"/>
	<path class="st0" d="M494.8,229.3h1.2v0.9h-1.2v3.8c0,0.5,0.1,0.6,0.8,0.6h0.5v0.9h-0.8c-1.1,0-1.5-0.2-1.5-1.4v-3.9h-1.1v-0.9h1.1
		v-1.9h1V229.3z"/>
	<path class="st0" d="M499.8,229.2c2,0,3,1.4,3,3.3c0,1.8-1,3.2-3,3.2s-3-1.4-3-3.2C496.8,230.6,497.9,229.2,499.8,229.2z
		 M499.8,234.7c1.1,0,1.9-0.8,1.9-2.3c0-1.5-0.9-2.4-1.9-2.4s-1.9,0.8-1.9,2.4C497.9,233.9,498.8,234.7,499.8,234.7z"/>
	<path class="st0" d="M507.3,229.3h1v1.3h0c0.5-1,1.2-1.5,2.3-1.5v1.1c-1.6,0-2.2,0.9-2.2,2.5v2.8h-1V229.3z"/>
	<path class="st0" d="M516.4,233.5c-0.3,1.4-1.3,2.1-2.7,2.1c-2,0-2.9-1.4-3-3.3c0-1.9,1.2-3.2,2.9-3.2c2.2,0,2.9,2.1,2.8,3.6h-4.6
		c0,1.1,0.6,2,1.9,2c0.8,0,1.4-0.4,1.6-1.2H516.4z M515.5,231.8c0-1-0.8-1.8-1.8-1.8c-1.1,0-1.7,0.8-1.8,1.8H515.5z"/>
	<path class="st0" d="M523.1,235.5c-0.2,0.1-0.4,0.2-0.7,0.2c-0.5,0-0.9-0.3-0.9-1c-0.6,0.7-1.3,1-2.2,1c-1.1,0-2.1-0.5-2.1-1.7
		c0-1.4,1-1.7,2.1-1.9c1.1-0.2,2.1-0.1,2.1-0.9c0-0.9-0.7-1-1.4-1c-0.9,0-1.5,0.3-1.5,1.2h-1c0.1-1.5,1.2-2.1,2.6-2.1
		c1.1,0,2.3,0.3,2.3,1.7v3.2c0,0.5,0,0.7,0.3,0.7c0.1,0,0.2,0,0.3-0.1V235.5z M521.4,232.3c-0.4,0.3-1.2,0.3-1.8,0.4
		c-0.7,0.1-1.2,0.4-1.2,1.1c0,0.7,0.6,0.9,1.2,0.9c1.3,0,1.9-0.8,1.9-1.4V232.3z"/>
	<path class="st0" d="M528.2,231.3c-0.2-0.8-0.7-1.2-1.5-1.2c-1.5,0-1.9,1.2-1.9,2.4c0,1.1,0.5,2.3,1.8,2.3c1,0,1.6-0.6,1.7-1.5h1
		c-0.2,1.5-1.2,2.4-2.7,2.4c-1.9,0-2.9-1.3-2.9-3.2c0-1.9,1-3.3,2.9-3.3c1.4,0,2.5,0.7,2.7,2.1H528.2z"/>
	<path class="st0" d="M530.5,226.9h1v3.3h0c0.3-0.7,1.2-1.1,2-1.1c1.6,0,2.1,0.9,2.1,2.3v4.1h-1v-4.2c0-0.8-0.5-1.2-1.3-1.2
		c-1.2,0-1.8,0.8-1.8,1.9v3.5h-1V226.9z"/>
	<path class="st0" d="M546.4,230.2l-5.1,2.3l5.1,2.3v0.8l-6.1-2.8v-0.7l6.1-2.8V230.2z"/>
	<path class="st0" d="M550.8,230c-0.1-1.7,0.9-3,2.7-3c1.5,0,2.7,0.9,2.7,2.4c0,1.5-1,2.3-2.1,2.9c-1.1,0.6-2.2,1.2-2.4,2.2h4.4v0.9
		h-5.6c0.2-2,1.2-2.7,2.4-3.5c1.4-0.9,2.2-1.4,2.2-2.6c0-0.9-0.7-1.5-1.6-1.5c-1.2,0-1.7,1.1-1.7,2.1H550.8z"/>
	<path class="st0" d="M557.9,234.2h1.3v1.2c0,0.9-0.4,1.6-1.3,1.9v-0.6c0.5-0.2,0.7-0.8,0.7-1.2h-0.7V234.2z"/>
	<path class="st0" d="M565.9,228h-3.4l-0.5,2.4l0,0c0.4-0.4,1-0.6,1.6-0.6c1.5,0,2.7,1,2.7,2.9c0,1.4-1,2.8-3,2.8
		c-1.5,0-2.7-0.9-2.7-2.4h1c0.1,0.9,0.8,1.5,1.8,1.5c1,0,1.8-0.7,1.8-2c0-1.1-0.8-1.9-1.9-1.9c-0.6,0-1.2,0.3-1.6,0.8l-0.9,0
		l0.8-4.4h4.2V228z"/>
	<path class="st0" d="M570.3,227c2.7,0,2.8,2.4,2.8,4.3c0,1.9-0.2,4.3-2.8,4.3c-2.7,0-2.8-2.4-2.8-4.3
		C567.4,229.4,567.6,227,570.3,227z M570.3,234.7c1.7,0,1.8-2.2,1.8-3.4c0-1.3,0-3.4-1.8-3.4c-1.7,0-1.8,2.2-1.8,3.4
		C568.5,232.6,568.5,234.7,570.3,234.7z"/>
	<path class="st0" d="M576.9,227c2.7,0,2.8,2.4,2.8,4.3c0,1.9-0.2,4.3-2.8,4.3c-2.7,0-2.8-2.4-2.8-4.3
		C574.1,229.4,574.3,227,576.9,227z M576.9,234.7c1.7,0,1.8-2.2,1.8-3.4c0-1.3,0-3.4-1.8-3.4c-1.7,0-1.8,2.2-1.8,3.4
		C575.2,232.6,575.2,234.7,576.9,234.7z"/>
</g>
<g>
	<path class="st0" d="M329,193c-1.5-2.4-2.5-4.7-2.5-7.5c0-2.5,0.9-5.2,2.5-7.4h1c-1.5,2.4-2.1,4.8-2.1,7.4c0,2.7,0.6,5.1,2.1,7.5
		H329z"/>
	<path class="st0" d="M336.4,193c1.5-2.4,2.1-4.8,2.1-7.4c0-2.7-0.6-5.1-2.1-7.5h1c1.5,2.4,2.5,4.7,2.5,7.5c0,2.5-0.9,5.2-2.5,7.4
		H336.4z"/>
</g>
<path class="st0" d="M350.6,186h-6v-0.8h6V186z M344.6,187.6h6v0.8h-6V187.6z"/>
<path class="st0" d="M358.9,189.9h-1.3l-3-8.6h1.2l2.4,7.4h0l2.5-7.4h1.2L358.9,189.9z"/>
<path class="st0" d="M367.5,189.8c-0.2,0.1-0.4,0.2-0.7,0.2c-0.5,0-0.9-0.3-0.9-1c-0.6,0.7-1.3,1-2.2,1c-1.1,0-2.1-0.5-2.1-1.7
	c0-1.4,1-1.7,2.1-1.9c1.1-0.2,2.1-0.1,2.1-0.9c0-0.9-0.7-1-1.4-1c-0.9,0-1.5,0.3-1.5,1.2h-1c0.1-1.5,1.2-2.1,2.6-2.1
	c1.1,0,2.3,0.3,2.3,1.7v3.2c0,0.5,0,0.7,0.3,0.7c0.1,0,0.2,0,0.3-0.1V189.8z M365.8,186.7c-0.4,0.3-1.2,0.3-1.8,0.4
	c-0.7,0.1-1.2,0.4-1.2,1.1c0,0.7,0.6,0.9,1.2,0.9c1.3,0,1.9-0.8,1.9-1.4V186.7z"/>
<path class="st0" d="M368.5,181.3h1v8.6h-1V181.3z"/>
<path class="st0" d="M376.2,189.9h-1v-1h0c-0.4,0.8-1.1,1.1-2,1.1c-1.6,0-2.1-0.9-2.1-2.3v-4.1h1v4.2c0,0.8,0.5,1.2,1.3,1.2
	c1.2,0,1.8-0.8,1.8-1.9v-3.5h1V189.9z"/>
<path class="st0" d="M383.1,187.9c-0.3,1.4-1.3,2.1-2.7,2.1c-2,0-2.9-1.4-3-3.3c0-1.9,1.2-3.2,2.9-3.2c2.2,0,2.9,2.1,2.8,3.6h-4.6
	c0,1.1,0.6,2,1.9,2c0.8,0,1.4-0.4,1.6-1.2H383.1z M382.1,186.2c0-1-0.8-1.8-1.8-1.8c-1.1,0-1.7,0.8-1.8,1.8H382.1z"/>
<path class="st0" d="M396.9,182.5h-1v-1.2h1V182.5z M395.8,183.7h1v6.2h-1V183.7z"/>
<path class="st0" d="M398.5,181.3h1v8.6h-1V181.3z"/>
<path class="st0" d="M401.2,181.3h1v8.6h-1V181.3z"/>
<path class="st0" d="M333.2,196.8c3.6,0,3.8,3.3,3.8,5.8c0,2.5-0.2,5.8-3.8,5.8c-3.6,0-3.8-3.3-3.8-5.8
	C329.4,200.1,329.6,196.8,333.2,196.8z M333.2,207.2c2.3,0,2.4-2.9,2.4-4.6c0-1.7,0-4.6-2.4-4.6c-2.3,0-2.3,2.9-2.3,4.6
	C330.9,204.3,330.9,207.2,333.2,207.2z"/>
<path class="st0" d="M334,217.5h5.1v1.6H334v5.2h-1.6v-5.2h-5.1v-1.6h5.1v-5.2h1.6V217.5z"/>
<path class="st0" d="M351.6,218.8h-6V218h6V218.8z M345.6,220.4h6v0.8h-6V220.4z"/>
<path class="st0" d="M360.1,213.9c2.7,0,4.1,2.2,4.1,4.5c0,2.3-1.4,4.5-4.1,4.5c-2.7,0-4.1-2.2-4.1-4.5
	C356,216.1,357.4,213.9,360.1,213.9z M360.1,221.9c2.1,0,3-1.8,3-3.5c0-1.7-0.9-3.5-3-3.5s-3,1.8-3,3.5
	C357.1,220.1,358,221.9,360.1,221.9z"/>
<path class="st0" d="M368.2,222.7h-1.1l-2.3-6.2h1.1l1.7,5.2h0l1.7-5.2h1.1L368.2,222.7z"/>
<path class="st0" d="M376.7,220.7c-0.3,1.4-1.3,2.1-2.7,2.1c-2,0-2.9-1.4-3-3.3c0-1.9,1.2-3.2,2.9-3.2c2.2,0,2.9,2.1,2.8,3.5h-4.6
	c0,1.1,0.6,2,1.9,2c0.8,0,1.4-0.4,1.6-1.2H376.7z M375.7,219c0-1-0.8-1.8-1.8-1.8c-1.1,0-1.7,0.8-1.8,1.8H375.7z"/>
<path class="st0" d="M377.8,216.5h1v1.3h0c0.5-1,1.2-1.5,2.3-1.5v1.1c-1.6,0-2.2,0.9-2.2,2.5v2.8h-1V216.5z"/>
<path class="st0" d="M381.8,216.5h1v1.3h0c0.5-1,1.2-1.5,2.3-1.5v1.1c-1.6,0-2.2,0.9-2.2,2.5v2.8h-1V216.5z"/>
<path class="st0" d="M391,222.7h-1v-1h0c-0.4,0.8-1.1,1.1-2,1.1c-1.6,0-2.1-0.9-2.1-2.3v-4.1h1v4.2c0,0.8,0.5,1.2,1.3,1.2
	c1.2,0,1.8-0.8,1.8-1.9v-3.5h1V222.7z"/>
<path class="st0" d="M392.5,216.5h1v1h0c0.4-0.8,1.1-1.1,2-1.1c1.6,0,2.1,0.9,2.1,2.3v4.1h-1v-4.2c0-0.8-0.5-1.2-1.3-1.2
	c-1.2,0-1.8,0.8-1.8,1.9v3.5h-1V216.5z"/>
<path class="st0" d="M795,189.9h-1.2l-2-7.2h0l-2,7.2h-1.2l-2.2-8.6h1.2l1.7,7.1h0l1.9-7.1h1.2l1.9,7.1h0l1.7-7.1h1.1L795,189.9z"/>
<path class="st0" d="M798,183.7h1v1.3h0c0.5-1,1.2-1.5,2.3-1.5v1.1c-1.6,0-2.2,0.9-2.2,2.5v2.8h-1V183.7z"/>
<path class="st0" d="M803.1,182.5h-1v-1.2h1V182.5z M802.1,183.7h1v6.2h-1V183.7z"/>
<path class="st0" d="M806.1,183.7h1.2v0.9h-1.2v3.9c0,0.5,0.1,0.6,0.8,0.6h0.5v0.9h-0.8c-1.1,0-1.5-0.2-1.5-1.4v-3.9H804v-0.9h1.1
	v-1.9h1V183.7z"/>
<path class="st0" d="M813.8,187.9c-0.3,1.4-1.3,2.1-2.7,2.1c-2,0-2.9-1.4-3-3.3c0-1.9,1.2-3.2,2.9-3.2c2.2,0,2.9,2.1,2.8,3.6h-4.6
	c0,1.1,0.6,2,1.9,2c0.8,0,1.4-0.4,1.6-1.2H813.8z M812.8,186.2c0-1-0.8-1.8-1.8-1.8c-1.1,0-1.7,0.8-1.8,1.8H812.8z"/>
<path class="st0" d="M814.7,186h3.5v1h-3.5V186z"/>
<path class="st0" d="M824.7,189.9h-1v-1h0c-0.4,0.8-1.1,1.1-2,1.1c-1.6,0-2.1-0.9-2.1-2.3v-4.1h1v4.2c0,0.8,0.5,1.2,1.3,1.2
	c1.2,0,1.8-0.8,1.8-1.9v-3.5h1V189.9z"/>
<path class="st0" d="M826.3,183.7h1v0.8h0c0.3-0.7,1.1-1,2-1c1.9,0,2.9,1.5,2.9,3.3c0,1.8-0.9,3.2-2.8,3.2c-0.6,0-1.5-0.2-2-1h0v3.2
	h-1V183.7z M829.2,184.4c-1.4,0-1.9,1.2-1.9,2.3c0,1.2,0.6,2.4,2,2.4c1.4,0,1.9-1.2,1.9-2.4C831.1,185.5,830.5,184.4,829.2,184.4z"
	/>
<path class="st0" d="M839.4,183.5c2,0,3,1.4,3,3.3c0,1.8-1,3.2-3,3.2s-3-1.4-3-3.2C836.4,184.9,837.4,183.5,839.4,183.5z
	 M839.4,189.1c1.1,0,1.9-0.8,1.9-2.3c0-1.5-0.9-2.4-1.9-2.4s-1.9,0.8-1.9,2.4C837.4,188.3,838.3,189.1,839.4,189.1z"/>
<path class="st0" d="M843.5,183.7h1v1.3h0c0.5-1,1.2-1.5,2.3-1.5v1.1c-1.6,0-2.2,0.9-2.2,2.5v2.8h-1V183.7z"/>
<path class="st0" d="M851,183.7h1v0.8h0c0.3-0.7,1.1-1,2-1c1.9,0,2.9,1.5,2.9,3.3c0,1.8-0.9,3.2-2.8,3.2c-0.6,0-1.5-0.2-2-1h0v3.2
	h-1V183.7z M853.8,184.4c-1.4,0-1.9,1.2-1.9,2.3c0,1.2,0.6,2.4,2,2.4c1.4,0,1.9-1.2,1.9-2.4C855.8,185.5,855.2,184.4,853.8,184.4z"
	/>
<path class="st0" d="M858,183.7h1v1.3h0c0.5-1,1.2-1.5,2.3-1.5v1.1c-1.6,0-2.2,0.9-2.2,2.5v2.8h-1V183.7z"/>
<path class="st0" d="M864.5,183.5c2,0,3,1.4,3,3.3c0,1.8-1,3.2-3,3.2c-2,0-3-1.4-3-3.2C861.5,184.9,862.5,183.5,864.5,183.5z
	 M864.5,189.1c1.1,0,1.9-0.8,1.9-2.3c0-1.5-0.9-2.4-1.9-2.4c-1.1,0-1.9,0.8-1.9,2.4C862.6,188.3,863.4,189.1,864.5,189.1z"/>
<path class="st0" d="M869.1,184.6h-1v-0.9h1v-0.9c0-1,0.6-1.5,1.7-1.5c0.2,0,0.5,0,0.7,0.1v0.9c-0.2-0.1-0.4-0.1-0.6-0.1
	c-0.5,0-0.8,0.2-0.8,0.7v0.9h1.2v0.9h-1.2v5.3h-1V184.6z M872.3,182.5v-1.2h1v1.2H872.3z M872.3,189.9v-6.2h1v6.2H872.3z"/>
<path class="st0" d="M876.3,183.7h1.2v0.9h-1.2v3.9c0,0.5,0.1,0.6,0.8,0.6h0.5v0.9h-0.8c-1.1,0-1.5-0.2-1.5-1.4v-3.9h-1.1v-0.9h1.1
	v-1.9h1V183.7z"/>
<path class="st0" d="M796,218.7h-1.2l-2-7.2h0l-2,7.2h-1.2l-2.2-8.6h1.2l1.7,7.1h0l1.9-7.1h1.2l1.9,7.1h0l1.7-7.1h1.1L796,218.7z"/>
<path class="st0" d="M799,212.5h1v1.3h0c0.5-1,1.2-1.5,2.3-1.5v1.1c-1.6,0-2.2,0.9-2.2,2.5v2.8h-1V212.5z"/>
<path class="st0" d="M804.1,211.3h-1v-1.2h1V211.3z M803.1,212.5h1v6.2h-1V212.5z"/>
<path class="st0" d="M807.1,212.5h1.2v0.9h-1.2v3.8c0,0.5,0.1,0.6,0.8,0.6h0.5v0.9h-0.8c-1.1,0-1.5-0.2-1.5-1.4v-3.9H805v-0.9h1.1
	v-1.9h1V212.5z"/>
<path class="st0" d="M814.7,216.7c-0.3,1.4-1.3,2.1-2.7,2.1c-2,0-2.9-1.4-3-3.3c0-1.9,1.2-3.2,2.9-3.2c2.2,0,2.9,2.1,2.8,3.5h-4.6
	c0,1.1,0.6,2,1.9,2c0.8,0,1.4-0.4,1.6-1.2H814.7z M813.8,215c0-1-0.8-1.8-1.8-1.8c-1.1,0-1.7,0.8-1.8,1.8H813.8z"/>
<path class="st0" d="M815.7,214.8h3.5v1h-3.5V214.8z"/>
<path class="st0" d="M823.2,212.3c2,0,3,1.4,3,3.3c0,1.8-1,3.2-3,3.2c-2,0-3-1.4-3-3.2C820.2,213.7,821.3,212.3,823.2,212.3z
	 M823.2,217.9c1.1,0,1.9-0.8,1.9-2.3c0-1.5-0.9-2.3-1.9-2.3c-1.1,0-1.9,0.8-1.9,2.3C821.3,217.1,822.2,217.9,823.2,217.9z"/>
<path class="st0" d="M827.9,213.4h-1v-0.9h1v-0.9c0-1,0.6-1.5,1.7-1.5c0.2,0,0.5,0,0.7,0.1v0.9c-0.2-0.1-0.4-0.1-0.6-0.1
	c-0.5,0-0.8,0.2-0.8,0.7v0.9h1.2v0.9h-1.2v5.3h-1V213.4z"/>
<path class="st0" d="M831.2,213.4h-1v-0.9h1v-0.9c0-1,0.6-1.5,1.7-1.5c0.2,0,0.5,0,0.7,0.1v0.9c-0.2-0.1-0.4-0.1-0.6-0.1
	c-0.5,0-0.8,0.2-0.8,0.7v0.9h1.2v0.9h-1.2v5.3h-1V213.4z"/>
<path class="st0" d="M840.3,212.3c2,0,3,1.4,3,3.3c0,1.8-1,3.2-3,3.2c-2,0-3-1.4-3-3.2C837.3,213.7,838.4,212.3,840.3,212.3z
	 M840.3,217.9c1.1,0,1.9-0.8,1.9-2.3c0-1.5-0.9-2.3-1.9-2.3c-1.1,0-1.9,0.8-1.9,2.3C838.4,217.1,839.3,217.9,840.3,217.9z"/>
<path class="st0" d="M844.5,212.5h1v1.3h0c0.5-1,1.2-1.5,2.3-1.5v1.1c-1.6,0-2.2,0.9-2.2,2.5v2.8h-1V212.5z"/>
<path class="st0" d="M851.9,210.1h1v8.6h-1V210.1z"/>
<path class="st0" d="M857.2,212.3c2,0,3,1.4,3,3.3c0,1.8-1,3.2-3,3.2c-2,0-3-1.4-3-3.2C854.2,213.7,855.3,212.3,857.2,212.3z
	 M857.2,217.9c1.1,0,1.9-0.8,1.9-2.3c0-1.5-0.9-2.3-1.9-2.3c-1.1,0-1.9,0.8-1.9,2.3C855.3,217.1,856.2,217.9,857.2,217.9z"/>
<path class="st0" d="M862.1,216.7c0,0.9,0.8,1.2,1.7,1.2c0.6,0,1.5-0.1,1.5-0.9c0-0.8-1-0.9-2-1.2c-1-0.2-2-0.6-2-1.8
	c0-1.2,1.2-1.8,2.3-1.8c1.4,0,2.5,0.4,2.5,1.9h-1c-0.1-0.8-0.8-1-1.4-1c-0.6,0-1.3,0.2-1.3,0.8c0,0.7,1.1,0.9,2,1.1
	c1,0.2,2,0.6,2,1.8c0,1.5-1.4,2-2.6,2c-1.4,0-2.6-0.6-2.6-2.1H862.1z"/>
<path class="st0" d="M868.1,216.7c0,0.9,0.8,1.2,1.7,1.2c0.6,0,1.5-0.1,1.5-0.9c0-0.8-1-0.9-2-1.2c-1-0.2-2-0.6-2-1.8
	c0-1.2,1.2-1.8,2.3-1.8c1.4,0,2.5,0.4,2.5,1.9h-1c-0.1-0.8-0.8-1-1.4-1c-0.6,0-1.3,0.2-1.3,0.8c0,0.7,1.1,0.9,2,1.1
	c1,0.2,2,0.6,2,1.8c0,1.5-1.4,2-2.6,2c-1.4,0-2.6-0.6-2.6-2.1H868.1z"/>
<path class="st0" d="M604,196H469l-1-0.7v-38l1-0.7h135l1,0.7v38L604,196z M470,194.6h133V158H470V194.6z"/>
<path class="st0" d="M604,242.7H469l-1-1v-35.8l1-1h135l1,1v35.8L604,242.7z M470,240.7h133v-33.8H470V240.7z"/>
<rect x="137.9" y="144.7" transform="matrix(0.5582 -0.8297 0.8297 0.5582 -69.2628 184.8091)" class="st0" width="2" height="25.5"/>
<rect x="126.2" y="240.7" transform="matrix(0.8299 -0.558 0.558 0.8299 -111.2387 118.6237)" class="st0" width="25.5" height="2"/>
<g>
	<path d="M392.4,36.3c-0.2-1.2-1.2-1.8-2.4-1.8c-2,0-2.9,1.7-2.9,3.5c0,2,0.9,3.6,2.9,3.6c1.5,0,2.4-1.1,2.5-2.5h1.1
		c-0.2,2.1-1.5,3.4-3.7,3.4c-2.7,0-4-2-4-4.5c0-2.5,1.4-4.5,4.1-4.5c1.8,0,3.3,1,3.5,2.8H392.4z"/>
	<path d="M397.6,35.9c2,0,3,1.4,3,3.3c0,1.8-1,3.2-3,3.2c-2,0-3-1.4-3-3.2C394.6,37.4,395.6,35.9,397.6,35.9z M397.6,41.5
		c1.1,0,1.9-0.8,1.9-2.3c0-1.5-0.9-2.4-1.9-2.4c-1.1,0-1.9,0.8-1.9,2.4C395.6,40.7,396.5,41.5,397.6,41.5z"/>
	<path d="M401.8,36.1h1v1h0c0.4-0.8,1.1-1.1,2-1.1c1.6,0,2.1,0.9,2.1,2.3v4.1h-1v-4.2c0-0.8-0.5-1.2-1.3-1.2c-1.2,0-1.8,0.8-1.8,1.9
		v3.5h-1V36.1z"/>
	<path d="M409.9,36.1h1.2V37h-1.2v3.9c0,0.5,0.1,0.6,0.8,0.6h0.5v0.9h-0.8c-1.1,0-1.5-0.2-1.5-1.4V37h-1.1v-0.9h1.1v-1.9h1V36.1z"/>
	<path d="M413.3,35h-1v-1.2h1V35z M412.3,36.1h1v6.2h-1V36.1z"/>
	<path d="M414.9,36.1h1v1h0c0.4-0.8,1.1-1.1,2-1.1c1.6,0,2.1,0.9,2.1,2.3v4.1h-1v-4.2c0-0.8-0.5-1.2-1.3-1.2c-1.2,0-1.8,0.8-1.8,1.9
		v3.5h-1V36.1z"/>
	<path d="M426.7,42.3h-1v-1h0c-0.4,0.8-1.1,1.1-2,1.1c-1.6,0-2.1-0.9-2.1-2.3v-4.1h1v4.2c0,0.8,0.5,1.2,1.3,1.2
		c1.2,0,1.8-0.8,1.8-1.9v-3.5h1V42.3z"/>
	<path d="M433.5,40.3c-0.3,1.4-1.3,2.1-2.7,2.1c-2,0-2.9-1.4-3-3.3c0-1.9,1.2-3.2,2.9-3.2c2.2,0,2.9,2.1,2.8,3.6H429
		c0,1.1,0.6,2,1.9,2c0.8,0,1.4-0.4,1.6-1.2H433.5z M432.5,38.6c0-1-0.8-1.8-1.8-1.8c-1.1,0-1.7,0.8-1.8,1.8H432.5z"/>
	<path d="M439.4,36.1h1.2V37h-1.2v3.9c0,0.5,0.1,0.6,0.8,0.6h0.5v0.9h-0.8c-1.1,0-1.5-0.2-1.5-1.4V37h-1.1v-0.9h1.1v-1.9h1V36.1z"/>
	<path d="M444.5,35.9c2,0,3,1.4,3,3.3c0,1.8-1,3.2-3,3.2c-2,0-3-1.4-3-3.2C441.5,37.4,442.5,35.9,444.5,35.9z M444.5,41.5
		c1.1,0,1.9-0.8,1.9-2.3c0-1.5-0.9-2.4-1.9-2.4c-1.1,0-1.9,0.8-1.9,2.4C442.5,40.7,443.4,41.5,444.5,41.5z"/>
	<path d="M452,36.1h1V37h0c0.5-0.7,1.2-1.1,2-1.1c0.8,0,1.5,0.3,1.7,1.1c0.4-0.7,1.2-1.1,1.9-1.1c1.2,0,2.1,0.5,2.1,1.8v4.5h-1v-4.1
		c0-0.8-0.2-1.4-1.2-1.4c-1,0-1.6,0.6-1.6,1.6v3.9h-1v-4.1c0-0.8-0.3-1.4-1.2-1.4c-1.2,0-1.7,1.1-1.7,1.6v3.9h-1V36.1z"/>
	<path d="M464.9,35.9c2,0,3,1.4,3,3.3c0,1.8-1,3.2-3,3.2c-2,0-3-1.4-3-3.2C461.9,37.4,463,35.9,464.9,35.9z M464.9,41.5
		c1.1,0,1.9-0.8,1.9-2.3c0-1.5-0.9-2.4-1.9-2.4s-1.9,0.8-1.9,2.4C463,40.7,463.9,41.5,464.9,41.5z"/>
	<path d="M469.2,36.1h1v1h0c0.4-0.8,1.1-1.1,2-1.1c1.6,0,2.1,0.9,2.1,2.3v4.1h-1v-4.2c0-0.8-0.5-1.2-1.3-1.2c-1.2,0-1.8,0.8-1.8,1.9
		v3.5h-1V36.1z"/>
	<path d="M476.9,35h-1v-1.2h1V35z M475.9,36.1h1v6.2h-1V36.1z"/>
	<path d="M479.9,36.1h1.2V37h-1.2v3.9c0,0.5,0.1,0.6,0.8,0.6h0.5v0.9h-0.8c-1.1,0-1.5-0.2-1.5-1.4V37h-1.1v-0.9h1.1v-1.9h1V36.1z"/>
	<path d="M484.9,35.9c2,0,3,1.4,3,3.3c0,1.8-1,3.2-3,3.2c-2,0-3-1.4-3-3.2C481.9,37.4,483,35.9,484.9,35.9z M484.9,41.5
		c1.1,0,1.9-0.8,1.9-2.3c0-1.5-0.9-2.4-1.9-2.4s-1.9,0.8-1.9,2.4C483,40.7,483.9,41.5,484.9,41.5z"/>
	<path d="M489.1,36.1h1v1.3h0c0.5-1,1.2-1.5,2.3-1.5V37c-1.6,0-2.2,0.9-2.2,2.5v2.8h-1V36.1z"/>
	<path d="M502,42.2c-0.2,0.1-0.4,0.2-0.7,0.2c-0.5,0-0.9-0.3-0.9-1c-0.6,0.7-1.3,1-2.2,1c-1.1,0-2.1-0.5-2.1-1.7
		c0-1.4,1-1.7,2.1-1.9c1.1-0.2,2.1-0.1,2.1-0.9c0-0.9-0.7-1-1.4-1c-0.9,0-1.5,0.3-1.5,1.2h-1c0.1-1.5,1.2-2.1,2.6-2.1
		c1.1,0,2.3,0.3,2.3,1.7v3.2c0,0.5,0,0.7,0.3,0.7c0.1,0,0.2,0,0.3-0.1V42.2z M500.3,39.1c-0.4,0.3-1.2,0.3-1.8,0.4
		c-0.7,0.1-1.2,0.4-1.2,1.1c0,0.7,0.6,0.9,1.2,0.9c1.3,0,1.9-0.8,1.9-1.4V39.1z"/>
	<path d="M502.9,36.1h1v1h0c0.4-0.8,1.1-1.1,2-1.1c1.6,0,2.1,0.9,2.1,2.3v4.1h-1v-4.2c0-0.8-0.5-1.2-1.3-1.2c-1.2,0-1.8,0.8-1.8,1.9
		v3.5h-1V36.1z"/>
	<path d="M515.1,42.3h-1v-0.8h0c-0.3,0.7-1.1,1-2,1c-1.9,0-2.9-1.5-2.9-3.3s0.9-3.2,2.8-3.2c0.6,0,1.5,0.2,2,1h0v-3.2h1V42.3z
		 M512.3,41.5c1.4,0,1.9-1.2,1.9-2.3c0-1.2-0.6-2.4-2-2.4c-1.4,0-1.9,1.2-1.9,2.4C510.3,40.4,510.9,41.5,512.3,41.5z"/>
	<path d="M520.1,36.1h1V37h0c0.5-0.7,1.2-1.1,2-1.1c0.8,0,1.5,0.3,1.7,1.1c0.4-0.7,1.2-1.1,1.9-1.1c1.2,0,2.1,0.5,2.1,1.8v4.5h-1
		v-4.1c0-0.8-0.2-1.4-1.2-1.4c-1,0-1.6,0.6-1.6,1.6v3.9h-1v-4.1c0-0.8-0.3-1.4-1.2-1.4c-1.2,0-1.7,1.1-1.7,1.6v3.9h-1V36.1z"/>
	<path d="M535.8,42.2c-0.2,0.1-0.4,0.2-0.7,0.2c-0.5,0-0.9-0.3-0.9-1c-0.6,0.7-1.3,1-2.2,1c-1.1,0-2.1-0.5-2.1-1.7
		c0-1.4,1-1.7,2.1-1.9c1.1-0.2,2.1-0.1,2.1-0.9c0-0.9-0.7-1-1.4-1c-0.9,0-1.5,0.3-1.5,1.2h-1c0.1-1.5,1.2-2.1,2.6-2.1
		c1.1,0,2.3,0.3,2.3,1.7v3.2c0,0.5,0,0.7,0.3,0.7c0.1,0,0.2,0,0.3-0.1V42.2z M534.1,39.1c-0.4,0.3-1.2,0.3-1.8,0.4
		c-0.7,0.1-1.2,0.4-1.2,1.1c0,0.7,0.6,0.9,1.2,0.9c1.3,0,1.9-0.8,1.9-1.4V39.1z"/>
	<path d="M536.7,36.1h1v1h0c0.4-0.8,1.1-1.1,2-1.1c1.6,0,2.1,0.9,2.1,2.3v4.1h-1v-4.2c0-0.8-0.5-1.2-1.3-1.2c-1.2,0-1.8,0.8-1.8,1.9
		v3.5h-1V36.1z"/>
	<path d="M548.9,42.2c-0.2,0.1-0.4,0.2-0.7,0.2c-0.5,0-0.9-0.3-0.9-1c-0.6,0.7-1.3,1-2.2,1c-1.1,0-2.1-0.5-2.1-1.7
		c0-1.4,1-1.7,2.1-1.9c1.1-0.2,2.1-0.1,2.1-0.9c0-0.9-0.7-1-1.4-1c-0.9,0-1.5,0.3-1.5,1.2h-1c0.1-1.5,1.2-2.1,2.6-2.1
		c1.1,0,2.3,0.3,2.3,1.7v3.2c0,0.5,0,0.7,0.3,0.7c0.1,0,0.2,0,0.3-0.1V42.2z M547.2,39.1c-0.4,0.3-1.2,0.3-1.8,0.4
		c-0.7,0.1-1.2,0.4-1.2,1.1c0,0.7,0.6,0.9,1.2,0.9c1.3,0,1.9-0.8,1.9-1.4V39.1z"/>
	<path d="M555.2,41.7c0,2-0.9,3-2.9,3c-1.2,0-2.5-0.5-2.6-1.8h1c0,0.7,0.9,1,1.6,1c1.3,0,1.9-1,1.9-2.4v-0.4h0
		c-0.3,0.8-1.2,1.1-1.9,1.1c-1.8,0-2.8-1.5-2.8-3.1c0-1.5,0.7-3.3,2.9-3.3c0.8,0,1.5,0.3,1.8,1h0v-0.9h1V41.7z M554.2,39
		c0-1.1-0.5-2.2-1.8-2.2c-1.3,0-1.8,1.1-1.8,2.3c0,1.1,0.4,2.4,1.8,2.4C553.7,41.4,554.2,40.2,554.2,39z"/>
	<path d="M562,40.3c-0.3,1.4-1.3,2.1-2.7,2.1c-2,0-2.9-1.4-3-3.3c0-1.9,1.2-3.2,2.9-3.2c2.2,0,2.9,2.1,2.8,3.6h-4.6
		c0,1.1,0.6,2,1.9,2c0.8,0,1.4-0.4,1.6-1.2H562z M561,38.6c0-1-0.8-1.8-1.8-1.8c-1.1,0-1.7,0.8-1.8,1.8H561z"/>
	<path d="M567.9,36.1h1.2V37h-1.2v3.9c0,0.5,0.1,0.6,0.8,0.6h0.5v0.9h-0.8c-1.1,0-1.5-0.2-1.5-1.4V37h-1.1v-0.9h1.1v-1.9h1V36.1z"/>
	<path d="M570.3,33.7h1V37h0c0.3-0.7,1.2-1.1,2-1.1c1.6,0,2.1,0.9,2.1,2.3v4.1h-1v-4.2c0-0.8-0.5-1.2-1.3-1.2
		c-1.2,0-1.8,0.8-1.8,1.9v3.5h-1V33.7z"/>
	<path d="M582.3,40.3c-0.3,1.4-1.3,2.1-2.7,2.1c-2,0-2.9-1.4-3-3.3c0-1.9,1.2-3.2,2.9-3.2c2.2,0,2.9,2.1,2.8,3.6h-4.6
		c0,1.1,0.6,2,1.9,2c0.8,0,1.4-0.4,1.6-1.2H582.3z M581.3,38.6c0-1-0.8-1.8-1.8-1.8c-1.1,0-1.7,0.8-1.8,1.8H581.3z"/>
	<path d="M405,56.7h-1.2l-2-7.2h0l-2,7.2h-1.2l-2.2-8.6h1.2l1.7,7.1h0l1.9-7.1h1.2l1.9,7.1h0l1.7-7.1h1.1L405,56.7z"/>
	<path d="M408.4,48.1h1.1v8.6h-1.1V48.1z"/>
	<path d="M411.5,48.1h3.8c1.7,0,2.6,0.9,2.6,2.5s-0.9,2.5-2.6,2.5h-2.6v3.5h-1.1V48.1z M412.6,52.2h2.2c1.3,0,1.9-0.6,1.9-1.6
		s-0.6-1.6-1.9-1.6h-2.2V52.2z"/>
	<path d="M427.6,56.7h-1v-1h0c-0.4,0.8-1.1,1.1-2,1.1c-1.6,0-2.1-0.9-2.1-2.3v-4.1h1v4.2c0,0.8,0.5,1.2,1.3,1.2
		c1.2,0,1.8-0.8,1.8-1.9v-3.5h1V56.7z"/>
	<path d="M429.1,50.5h1v1h0c0.4-0.8,1.1-1.1,2-1.1c1.6,0,2.1,0.9,2.1,2.3v4.1h-1v-4.2c0-0.8-0.5-1.2-1.3-1.2c-1.2,0-1.8,0.8-1.8,1.9
		v3.5h-1V50.5z"/>
	<path d="M437.2,50.5h1.2v0.9h-1.2v3.9c0,0.5,0.1,0.6,0.8,0.6h0.5v0.9h-0.8c-1.1,0-1.5-0.2-1.5-1.4v-3.9h-1.1v-0.9h1.1v-1.9h1V50.5z
		"/>
	<path d="M440.6,49.4h-1v-1.2h1V49.4z M439.6,50.5h1v6.2h-1V50.5z"/>
	<path d="M442.3,48.1h1v8.6h-1V48.1z"/>
	<path d="M448.2,48.1h1v3.2h0c0.3-0.7,1.1-1,2-1c1.9,0,2.9,1.5,2.9,3.3c0,1.8-0.9,3.2-2.8,3.2c-0.6,0-1.5-0.2-2-1h0v0.8h-1V48.1z
		 M451.1,51.2c-1.4,0-1.9,1.2-1.9,2.3c0,1.2,0.6,2.4,2,2.4c1.4,0,1.9-1.2,1.9-2.4C453,52.4,452.4,51.2,451.1,51.2z"/>
	<path d="M460.8,56.6c-0.2,0.1-0.4,0.2-0.7,0.2c-0.5,0-0.9-0.3-0.9-1c-0.6,0.7-1.3,1-2.2,1c-1.1,0-2.1-0.5-2.1-1.7
		c0-1.4,1-1.7,2.1-1.9c1.1-0.2,2.1-0.1,2.1-0.9c0-0.9-0.7-1-1.4-1c-0.9,0-1.5,0.3-1.5,1.2h-1c0.1-1.5,1.2-2.1,2.6-2.1
		c1.1,0,2.3,0.3,2.3,1.7v3.2c0,0.5,0,0.7,0.3,0.7c0.1,0,0.2,0,0.3-0.1V56.6z M459.2,53.5c-0.4,0.3-1.2,0.3-1.8,0.4
		c-0.7,0.1-1.2,0.4-1.2,1.1c0,0.7,0.6,0.9,1.2,0.9c1.3,0,1.9-0.8,1.9-1.4V53.5z"/>
	<path d="M461.8,48.1h1v8.6h-1V48.1z"/>
	<path d="M469.9,56.6c-0.2,0.1-0.4,0.2-0.7,0.2c-0.5,0-0.9-0.3-0.9-1c-0.6,0.7-1.3,1-2.2,1c-1.1,0-2.1-0.5-2.1-1.7
		c0-1.4,1-1.7,2.1-1.9c1.1-0.2,2.1-0.1,2.1-0.9c0-0.9-0.7-1-1.4-1c-0.9,0-1.5,0.3-1.5,1.2h-1c0.1-1.5,1.2-2.1,2.6-2.1
		c1.1,0,2.3,0.3,2.3,1.7v3.2c0,0.5,0,0.7,0.3,0.7c0.1,0,0.2,0,0.3-0.1V56.6z M468.3,53.5c-0.4,0.3-1.2,0.3-1.8,0.4
		c-0.7,0.1-1.2,0.4-1.2,1.1c0,0.7,0.6,0.9,1.2,0.9c1.3,0,1.9-0.8,1.9-1.4V53.5z"/>
	<path d="M470.9,50.5h1v1h0c0.4-0.8,1.1-1.1,2-1.1c1.6,0,2.1,0.9,2.1,2.3v4.1h-1v-4.2c0-0.8-0.5-1.2-1.3-1.2c-1.2,0-1.8,0.8-1.8,1.9
		v3.5h-1V50.5z"/>
	<path d="M481.8,52.5c-0.2-0.8-0.7-1.2-1.5-1.2c-1.5,0-1.9,1.2-1.9,2.4c0,1.1,0.5,2.3,1.8,2.3c1,0,1.6-0.6,1.7-1.5h1
		c-0.2,1.5-1.2,2.4-2.7,2.4c-1.9,0-2.9-1.3-2.9-3.2c0-1.9,1-3.3,2.9-3.3c1.4,0,2.5,0.7,2.7,2.1H481.8z"/>
	<path d="M489.3,54.7c-0.3,1.4-1.3,2.1-2.7,2.1c-2,0-2.9-1.4-3-3.3c0-1.9,1.2-3.2,2.9-3.2c2.2,0,2.9,2.1,2.8,3.6h-4.6
		c0,1.1,0.6,2,1.9,2c0.8,0,1.4-0.4,1.6-1.2H489.3z M488.3,53c0-1-0.8-1.8-1.8-1.8c-1.1,0-1.7,0.8-1.8,1.8H488.3z"/>
	<path d="M494.9,49.4h-1v-1.2h1V49.4z M493.8,50.5h1v6.2h-1V50.5z"/>
	<path d="M497.1,54.7c0,0.9,0.8,1.2,1.7,1.2c0.6,0,1.5-0.1,1.5-0.9c0-0.8-1-0.9-2-1.2c-1-0.2-2-0.6-2-1.8c0-1.2,1.2-1.8,2.3-1.8
		c1.4,0,2.5,0.4,2.5,1.9h-1c-0.1-0.8-0.8-1-1.4-1c-0.6,0-1.3,0.2-1.3,0.8c0,0.7,1.1,0.9,2,1.1c1,0.2,2,0.6,2,1.8c0,1.5-1.4,2-2.6,2
		c-1.4,0-2.6-0.6-2.6-2.1H497.1z"/>
	<path d="M509,53.2h2.6V54H509v2.6h-0.8V54h-2.6v-0.8h2.6v-2.6h0.8V53.2z"/>
	<path d="M512.8,52.9h3.5v1h-3.5V52.9z"/>
	<path d="M524.6,53.6c0,2.2-1.2,3.3-3.4,3.3c-2.2,0-3.5-1-3.5-3.3v-5.5h1.1v5.5c0,1.5,0.9,2.3,2.4,2.3c1.4,0,2.2-0.8,2.2-2.3v-5.5
		h1.1V53.6z"/>
	<path d="M531.4,50.6c-0.1-1.2-0.9-1.8-2.1-1.8c-1,0-1.9,0.3-1.9,1.5c0,1.1,1.4,1.2,2.7,1.5c1.4,0.3,2.7,0.8,2.7,2.5
		c0,1.8-1.8,2.6-3.3,2.6c-1.9,0-3.5-0.9-3.5-3h1.1c0,1.4,1.2,2.1,2.5,2.1c1,0,2.2-0.3,2.2-1.6c0-1.2-1.4-1.4-2.7-1.7
		s-2.7-0.7-2.7-2.3c0-1.7,1.5-2.5,3.1-2.5c1.8,0,3.1,0.8,3.2,2.7H531.4z"/>
	<path d="M534.2,48.1h2.9c2.6,0,4.1,1.3,4.1,4.1c0,2.9-1.3,4.5-4.1,4.5h-2.9V48.1z M535.4,55.7h1.9c0.8,0,2.9-0.2,2.9-3.4
		c0-2-0.8-3.3-2.9-3.3h-1.9V55.7z"/>
	<path d="M542.3,51.2c-0.1-1.7,0.9-3,2.7-3c1.5,0,2.7,0.9,2.7,2.4c0,1.5-1,2.3-2.1,2.9c-1.1,0.6-2.2,1.2-2.4,2.2h4.4v0.9H542
		c0.2-2,1.2-2.7,2.4-3.5c1.4-0.9,2.2-1.4,2.2-2.6c0-0.9-0.7-1.5-1.6-1.5c-1.2,0-1.7,1.1-1.7,2.1H542.3z"/>
	<path d="M549.4,55.3h1.3v1.2c0,0.9-0.4,1.6-1.3,1.9v-0.6c0.5-0.2,0.7-0.8,0.7-1.2h-0.7V55.3z"/>
	<path d="M557.4,49.2H554l-0.5,2.4l0,0c0.4-0.4,1-0.6,1.6-0.6c1.5,0,2.7,1,2.7,2.9c0,1.4-1,2.8-3,2.8c-1.5,0-2.7-0.9-2.7-2.4h1
		c0.1,0.9,0.8,1.5,1.8,1.5c1,0,1.8-0.7,1.8-2c0-1.1-0.8-1.9-1.9-1.9c-0.6,0-1.2,0.3-1.6,0.8l-0.9,0l0.8-4.4h4.2V49.2z"/>
	<path d="M561.8,48.2c2.7,0,2.8,2.4,2.8,4.3c0,1.9-0.2,4.3-2.8,4.3c-2.7,0-2.8-2.4-2.8-4.3C558.9,50.6,559.1,48.2,561.8,48.2z
		 M561.8,55.9c1.7,0,1.8-2.2,1.8-3.4c0-1.3,0-3.4-1.8-3.4c-1.7,0-1.8,2.2-1.8,3.4C560,53.8,560,55.9,561.8,55.9z"/>
	<path d="M568.4,48.2c2.7,0,2.8,2.4,2.8,4.3c0,1.9-0.2,4.3-2.8,4.3c-2.7,0-2.8-2.4-2.8-4.3C565.6,50.6,565.8,48.2,568.4,48.2z
		 M568.4,55.9c1.7,0,1.8-2.2,1.8-3.4c0-1.3,0-3.4-1.8-3.4c-1.7,0-1.8,2.2-1.8,3.4C566.7,53.8,566.7,55.9,568.4,55.9z"/>
</g>
<g>
	<path d="M36.7,153.3h4c1.6,0,2.6,0.9,2.6,2.2c0,1-0.5,1.9-1.5,2.2v0c1,0.2,1.2,0.9,1.3,1.8c0.1,0.8,0,1.8,0.5,2.4h-1.3
		c-0.3-0.3-0.1-1.3-0.3-2.1c-0.1-0.8-0.3-1.5-1.4-1.5h-2.8v3.7h-1.1V153.3z M40.2,157.3c1.1,0,2-0.3,2-1.5c0-0.8-0.5-1.5-1.5-1.5
		h-2.8v3H40.2z"/>
	<path d="M47.4,155.5c2,0,3,1.4,3,3.3c0,1.8-1,3.2-3,3.2c-2,0-3-1.4-3-3.2C44.4,157,45.4,155.5,47.4,155.5z M47.4,161.1
		c1.1,0,1.9-0.8,1.9-2.3c0-1.5-0.9-2.4-1.9-2.4c-1.1,0-1.9,0.8-1.9,2.4C45.4,160.3,46.3,161.1,47.4,161.1z"/>
	<path d="M51.7,153.3h1v8.6h-1V153.3z"/>
	<path d="M54.3,153.3h1v8.6h-1V153.3z"/>
	<path d="M61.7,155.7h1.2v0.9h-1.2v3.9c0,0.5,0.1,0.6,0.8,0.6h0.5v0.9h-0.8c-1.1,0-1.5-0.2-1.5-1.4v-3.9h-1.1v-0.9h1.1v-1.9h1V155.7
		z"/>
	<path d="M69.3,159.9c-0.3,1.4-1.3,2.1-2.7,2.1c-2,0-2.9-1.4-3-3.3c0-1.9,1.2-3.2,2.9-3.2c2.2,0,2.9,2.1,2.8,3.5h-4.6
		c0,1.1,0.6,2,1.9,2c0.8,0,1.4-0.4,1.6-1.2H69.3z M68.3,158.2c0-1-0.8-1.8-1.8-1.8c-1.1,0-1.7,0.8-1.8,1.8H68.3z"/>
	<path d="M76,161.9c-0.2,0.1-0.4,0.2-0.7,0.2c-0.5,0-0.9-0.3-0.9-1c-0.6,0.7-1.3,1-2.2,1c-1.1,0-2.1-0.5-2.1-1.7
		c0-1.4,1-1.7,2.1-1.9c1.1-0.2,2.1-0.1,2.1-0.9c0-0.9-0.7-1-1.4-1c-0.9,0-1.5,0.3-1.5,1.2h-1c0.1-1.5,1.2-2.1,2.6-2.1
		c1.1,0,2.3,0.3,2.3,1.7v3.2c0,0.5,0,0.7,0.3,0.7c0.1,0,0.2,0,0.3-0.1V161.9z M74.3,158.7c-0.4,0.3-1.2,0.3-1.8,0.4
		c-0.7,0.1-1.2,0.4-1.2,1.1c0,0.7,0.6,0.9,1.2,0.9c1.3,0,1.9-0.8,1.9-1.4V158.7z"/>
	<path d="M76.9,155.7h1v0.9h0c0.5-0.7,1.2-1.1,2-1.1c0.8,0,1.5,0.3,1.7,1.1c0.4-0.7,1.2-1.1,1.9-1.1c1.2,0,2.1,0.5,2.1,1.8v4.5h-1
		v-4.1c0-0.8-0.2-1.4-1.2-1.4c-1,0-1.6,0.6-1.6,1.6v3.9h-1v-4.1c0-0.8-0.3-1.4-1.2-1.4c-1.2,0-1.7,1.1-1.7,1.6v3.9h-1V155.7z"/>
	<path d="M93.2,155.5c2,0,3,1.4,3,3.3c0,1.8-1,3.2-3,3.2c-2,0-3-1.4-3-3.2C90.2,157,91.2,155.5,93.2,155.5z M93.2,161.1
		c1.1,0,1.9-0.8,1.9-2.3c0-1.5-0.9-2.4-1.9-2.4c-1.1,0-1.9,0.8-1.9,2.4C91.2,160.3,92.1,161.1,93.2,161.1z"/>
	<path d="M97.8,156.6h-1v-0.9h1v-0.9c0-1,0.6-1.5,1.7-1.5c0.2,0,0.5,0,0.7,0.1v0.9c-0.2-0.1-0.4-0.1-0.6-0.1c-0.5,0-0.8,0.2-0.8,0.7
		v0.9h1.2v0.9h-1.2v5.3h-1V156.6z"/>
	<path d="M101.1,156.6h-1v-0.9h1v-0.9c0-1,0.6-1.5,1.7-1.5c0.2,0,0.5,0,0.7,0.1v0.9c-0.2-0.1-0.4-0.1-0.6-0.1
		c-0.5,0-0.8,0.2-0.8,0.7v0.9h1.2v0.9h-1.2v5.3h-1V156.6z"/>
	<path d="M109,155.7h1.2v0.9H109v3.9c0,0.5,0.1,0.6,0.8,0.6h0.5v0.9h-0.8c-1.1,0-1.5-0.2-1.5-1.4v-3.9h-1.1v-0.9h1.1v-1.9h1V155.7z"
		/>
	<path d="M111.4,153.3h1v3.3h0c0.3-0.7,1.2-1.1,2-1.1c1.6,0,2.1,0.9,2.1,2.3v4.1h-1v-4.2c0-0.8-0.5-1.2-1.3-1.2
		c-1.2,0-1.8,0.8-1.8,1.9v3.5h-1V153.3z"/>
	<path d="M123.3,159.9c-0.3,1.4-1.3,2.1-2.7,2.1c-2,0-2.9-1.4-3-3.3c0-1.9,1.2-3.2,2.9-3.2c2.2,0,2.9,2.1,2.8,3.5h-4.6
		c0,1.1,0.6,2,1.9,2c0.8,0,1.4-0.4,1.6-1.2H123.3z M122.4,158.2c0-1-0.8-1.8-1.8-1.8c-1.1,0-1.7,0.8-1.8,1.8H122.4z"/>
	<path d="M52.3,174.3c-0.3,1.4-1.3,2.1-2.7,2.1c-2,0-2.9-1.4-3-3.3c0-1.9,1.2-3.2,2.9-3.2c2.2,0,2.9,2.1,2.8,3.6h-4.6
		c0,1.1,0.6,2,1.9,2c0.8,0,1.4-0.4,1.6-1.2H52.3z M51.3,172.6c0-1-0.8-1.8-1.8-1.8c-1.1,0-1.7,0.8-1.8,1.8H51.3z"/>
	<path d="M53.5,170.1h1v1h0c0.4-0.8,1.1-1.1,2-1.1c1.6,0,2.1,0.9,2.1,2.3v4.1h-1v-4.2c0-0.8-0.5-1.2-1.3-1.2c-1.2,0-1.8,0.8-1.8,1.9
		v3.5h-1V170.1z"/>
	<path d="M65.5,175.8c0,2-0.9,3-2.9,3c-1.2,0-2.5-0.5-2.6-1.8h1c0,0.7,0.9,1,1.6,1c1.3,0,1.9-1,1.9-2.4v-0.4h0
		c-0.3,0.8-1.2,1.1-1.9,1.1c-1.8,0-2.8-1.5-2.8-3.1c0-1.5,0.7-3.3,2.9-3.3c0.8,0,1.5,0.3,1.8,1h0v-0.9h1V175.8z M64.5,173.1
		c0-1.1-0.5-2.2-1.8-2.2c-1.3,0-1.8,1.1-1.8,2.3c0,1.1,0.4,2.4,1.8,2.4S64.5,174.2,64.5,173.1z"/>
	<path d="M72.5,176.3c-0.2,0.1-0.4,0.2-0.7,0.2c-0.5,0-0.9-0.3-0.9-1c-0.6,0.7-1.3,1-2.2,1c-1.1,0-2.1-0.5-2.1-1.7
		c0-1.4,1-1.7,2.1-1.9c1.1-0.2,2.1-0.1,2.1-0.9c0-0.9-0.7-1-1.4-1c-0.9,0-1.5,0.3-1.5,1.2h-1c0.1-1.5,1.2-2.1,2.6-2.1
		c1.1,0,2.3,0.3,2.3,1.7v3.2c0,0.5,0,0.7,0.3,0.7c0.1,0,0.2,0,0.3-0.1V176.3z M70.9,173.1c-0.4,0.3-1.2,0.3-1.8,0.4
		c-0.7,0.1-1.2,0.4-1.2,1.1c0,0.7,0.6,0.9,1.2,0.9c1.3,0,1.9-0.8,1.9-1.4V173.1z"/>
	<path d="M78.8,175.8c0,2-0.9,3-2.9,3c-1.2,0-2.5-0.5-2.6-1.8h1c0,0.7,0.9,1,1.6,1c1.3,0,1.9-1,1.9-2.4v-0.4h0
		c-0.3,0.8-1.2,1.1-1.9,1.1c-1.8,0-2.8-1.5-2.8-3.1c0-1.5,0.7-3.3,2.9-3.3c0.8,0,1.5,0.3,1.8,1h0v-0.9h1V175.8z M77.8,173.1
		c0-1.1-0.5-2.2-1.8-2.2c-1.3,0-1.8,1.1-1.8,2.3c0,1.1,0.4,2.4,1.8,2.4S77.8,174.2,77.8,173.1z"/>
	<path d="M85.7,174.3c-0.3,1.4-1.3,2.1-2.7,2.1c-2,0-2.9-1.4-3-3.3c0-1.9,1.2-3.2,2.9-3.2c2.2,0,2.9,2.1,2.8,3.6h-4.6
		c0,1.1,0.6,2,1.9,2c0.8,0,1.4-0.4,1.6-1.2H85.7z M84.7,172.6c0-1-0.8-1.8-1.8-1.8c-1.1,0-1.7,0.8-1.8,1.8H84.7z"/>
	<path d="M86.8,170.1h1v0.9h0c0.5-0.7,1.2-1.1,2-1.1c0.8,0,1.5,0.3,1.7,1.1c0.4-0.7,1.2-1.1,1.9-1.1c1.2,0,2.1,0.5,2.1,1.8v4.5h-1
		v-4.1c0-0.8-0.2-1.4-1.2-1.4c-1,0-1.6,0.6-1.6,1.6v3.9h-1v-4.1c0-0.8-0.3-1.4-1.2-1.4c-1.2,0-1.7,1.1-1.7,1.6v3.9h-1V170.1z"/>
	<path d="M102.3,174.3c-0.3,1.4-1.3,2.1-2.7,2.1c-2,0-2.9-1.4-3-3.3c0-1.9,1.2-3.2,2.9-3.2c2.2,0,2.9,2.1,2.8,3.6h-4.6
		c0,1.1,0.6,2,1.9,2c0.8,0,1.4-0.4,1.6-1.2H102.3z M101.4,172.6c0-1-0.8-1.8-1.8-1.8c-1.1,0-1.7,0.8-1.8,1.8H101.4z"/>
	<path d="M103.5,170.1h1v1h0c0.4-0.8,1.1-1.1,2-1.1c1.6,0,2.1,0.9,2.1,2.3v4.1h-1v-4.2c0-0.8-0.5-1.2-1.3-1.2
		c-1.2,0-1.8,0.8-1.8,1.9v3.5h-1V170.1z"/>
	<path d="M111.6,170.1h1.2v0.9h-1.2v3.8c0,0.5,0.1,0.6,0.8,0.6h0.5v0.9H112c-1.1,0-1.5-0.2-1.5-1.4V171h-1.1v-0.9h1.1v-1.9h1V170.1z
		"/>
</g>
<g>
	<path d="M675.3,185.2h1.2l4.5,6.9h0v-6.9h1.1v8.6h-1.2l-4.5-6.9h0v6.9h-1.1V185.2z"/>
	<path d="M689.1,191.8c-0.3,1.4-1.3,2.1-2.7,2.1c-2,0-2.9-1.4-3-3.3c0-1.9,1.2-3.2,2.9-3.2c2.2,0,2.9,2.1,2.8,3.6h-4.6
		c0,1.1,0.6,2,1.9,2c0.8,0,1.4-0.4,1.6-1.2H689.1z M688.1,190.1c0-1-0.8-1.8-1.8-1.8c-1.1,0-1.7,0.8-1.8,1.8H688.1z"/>
	<path d="M691.7,187.5h1.2v0.9h-1.2v3.9c0,0.5,0.1,0.6,0.8,0.6h0.5v0.9h-0.8c-1.1,0-1.5-0.2-1.5-1.4v-3.9h-1.1v-0.9h1.1v-1.9h1
		V187.5z"/>
	<path d="M700.9,193.7h-1.3l-3-8.6h1.2l2.4,7.4h0l2.5-7.4h1.2L700.9,193.7z"/>
	<path d="M709.6,193.7c-0.2,0.1-0.4,0.2-0.7,0.2c-0.5,0-0.9-0.3-0.9-1c-0.6,0.7-1.3,1-2.2,1c-1.1,0-2.1-0.5-2.1-1.7
		c0-1.4,1-1.7,2.1-1.9c1.1-0.2,2.1-0.1,2.1-0.9c0-0.9-0.7-1-1.4-1c-0.9,0-1.5,0.3-1.5,1.2h-1c0.1-1.5,1.2-2.1,2.6-2.1
		c1.1,0,2.3,0.3,2.3,1.7v3.2c0,0.5,0,0.7,0.3,0.7c0.1,0,0.2,0,0.3-0.1V193.7z M707.9,190.5c-0.4,0.3-1.2,0.3-1.8,0.4
		c-0.7,0.1-1.2,0.4-1.2,1.1c0,0.7,0.6,0.9,1.2,0.9c1.3,0,1.9-0.8,1.9-1.4V190.5z"/>
	<path d="M710.6,185.2h1v8.6h-1V185.2z"/>
	<path d="M718.3,193.7h-1v-1h0c-0.4,0.8-1.1,1.1-2,1.1c-1.6,0-2.1-0.9-2.1-2.3v-4.1h1v4.2c0,0.8,0.5,1.2,1.3,1.2
		c1.2,0,1.8-0.8,1.8-1.9v-3.5h1V193.7z"/>
	<path d="M725.1,191.8c-0.3,1.4-1.3,2.1-2.7,2.1c-2,0-2.9-1.4-3-3.3c0-1.9,1.2-3.2,2.9-3.2c2.2,0,2.9,2.1,2.8,3.6h-4.6
		c0,1.1,0.6,2,1.9,2c0.8,0,1.4-0.4,1.6-1.2H725.1z M724.2,190.1c0-1-0.8-1.8-1.8-1.8c-1.1,0-1.7,0.8-1.8,1.8H724.2z"/>
	<path d="M657.7,199.6h1.3l3.3,8.6h-1.3l-0.9-2.6h-3.6l-1,2.6h-1.2L657.7,199.6z M656.9,204.6h2.9l-1.4-4h0L656.9,204.6z"/>
	<path d="M668.5,208.1h-1v-0.8h0c-0.3,0.7-1.1,1-2,1c-1.9,0-2.9-1.5-2.9-3.3s0.9-3.2,2.8-3.2c0.6,0,1.5,0.2,2,1h0v-3.2h1V208.1z
		 M665.7,207.4c1.4,0,1.9-1.2,1.9-2.3c0-1.2-0.6-2.4-2-2.4c-1.4,0-1.9,1.2-1.9,2.4C663.7,206.3,664.3,207.4,665.7,207.4z"/>
	<path d="M671.2,208.9c0,1.1-0.6,1.6-1.5,1.6c-0.2,0-0.3,0-0.5,0v-0.9c0.1,0,0.3,0,0.4,0c0.4,0,0.6-0.2,0.6-0.9v-6.8h1V208.9z
		 M671.2,200.8h-1v-1.2h1V200.8z"/>
	<path d="M677.9,208.1h-1v-1h0c-0.4,0.8-1.1,1.1-2,1.1c-1.6,0-2.1-0.9-2.1-2.3v-4.1h1v4.2c0,0.8,0.5,1.2,1.3,1.2
		c1.2,0,1.8-0.8,1.8-1.9v-3.5h1V208.1z"/>
	<path d="M680.1,206.2c0,0.9,0.8,1.2,1.7,1.2c0.6,0,1.5-0.1,1.5-0.9c0-0.8-1-0.9-2-1.2c-1-0.2-2-0.6-2-1.8c0-1.2,1.2-1.8,2.3-1.8
		c1.4,0,2.5,0.4,2.5,1.9h-1c-0.1-0.8-0.8-1-1.4-1c-0.6,0-1.3,0.2-1.3,0.8c0,0.7,1.1,0.9,2,1.1c1,0.2,2,0.6,2,1.8c0,1.5-1.4,2-2.6,2
		c-1.4,0-2.6-0.6-2.6-2.1H680.1z"/>
	<path d="M686.9,201.9h1.2v0.9h-1.2v3.8c0,0.5,0.1,0.6,0.8,0.6h0.5v0.9h-0.8c-1.1,0-1.5-0.2-1.5-1.4v-3.9h-1.1v-0.9h1.1v-1.9h1
		V201.9z"/>
	<path d="M689.2,201.9h1v0.9h0c0.5-0.7,1.2-1.1,2-1.1c0.8,0,1.5,0.3,1.7,1.1c0.4-0.7,1.2-1.1,1.9-1.1c1.2,0,2.1,0.5,2.1,1.8v4.5h-1
		v-4.1c0-0.8-0.2-1.4-1.2-1.4c-1,0-1.6,0.6-1.6,1.6v3.9h-1v-4.1c0-0.8-0.3-1.4-1.2-1.4c-1.2,0-1.7,1.1-1.7,1.6v3.9h-1V201.9z"/>
	<path d="M704.7,206.2c-0.3,1.4-1.3,2.1-2.7,2.1c-2,0-2.9-1.4-3-3.3c0-1.9,1.2-3.2,2.9-3.2c2.2,0,2.9,2.1,2.8,3.6h-4.6
		c0,1.1,0.6,2,1.9,2c0.8,0,1.4-0.4,1.6-1.2H704.7z M703.8,204.5c0-1-0.8-1.8-1.8-1.8c-1.1,0-1.7,0.8-1.8,1.8H703.8z"/>
	<path d="M705.9,201.9h1v1h0c0.4-0.8,1.1-1.1,2-1.1c1.6,0,2.1,0.9,2.1,2.3v4.1h-1v-4.2c0-0.8-0.5-1.2-1.3-1.2
		c-1.2,0-1.8,0.8-1.8,1.9v3.5h-1V201.9z"/>
	<path d="M714,201.9h1.2v0.9H714v3.8c0,0.5,0.1,0.6,0.8,0.6h0.5v0.9h-0.8c-1.1,0-1.5-0.2-1.5-1.4v-3.9h-1.1v-0.9h1.1v-1.9h1V201.9z"
		/>
	<path d="M716.6,206.8h1.3v1.2c0,0.9-0.4,1.6-1.3,1.9v-0.6c0.5-0.2,0.7-0.8,0.7-1.2h-0.7V206.8z"/>
	<path d="M723.2,199.6h1.2l4.5,6.9h0v-6.9h1.1v8.6h-1.2l-4.5-6.9h0v6.9h-1.1V199.6z"/>
	<path d="M735.2,208.1h-1.3l-3-8.6h1.2l2.4,7.4h0l2.5-7.4h1.2L735.2,208.1z"/>
	<path d="M741,199.6h1.3l3.3,8.6h-1.3l-0.9-2.6h-3.6l-1,2.6h-1.2L741,199.6z M740.1,204.6h2.9l-1.4-4h0L740.1,204.6z"/>
</g>
<g>
	<path class="st0" d="M623.4,189c-1.5-2.4-2.5-4.7-2.5-7.5c0-2.5,0.9-5.2,2.5-7.4h1c-1.5,2.4-2.1,4.8-2.1,7.4c0,2.7,0.6,5.1,2.1,7.5
		H623.4z"/>
	<path class="st0" d="M630.8,189c1.5-2.4,2.1-4.8,2.1-7.4c0-2.7-0.6-5.1-2.1-7.5h1c1.5,2.4,2.5,4.7,2.5,7.5c0,2.5-0.9,5.2-2.5,7.4
		H630.8z"/>
</g>
<path class="st0" d="M627.6,192.7c3.6,0,3.8,3.3,3.8,5.8c0,2.5-0.2,5.8-3.8,5.8s-3.8-3.3-3.8-5.8C623.8,196,624.1,192.7,627.6,192.7
	z M627.6,203.1c2.3,0,2.4-2.9,2.4-4.6c0-1.7,0-4.6-2.4-4.6c-2.3,0-2.3,2.9-2.3,4.6C625.3,200.2,625.3,203.1,627.6,203.1z"/>
<path class="st0" d="M628.4,213.5h5.1v1.6h-5.1v5.2h-1.6v-5.2h-5.1v-1.6h5.1v-5.2h1.6V213.5z"/>
<g>
	<path class="st0" d="M771,195c-1.5-2.4-2.5-4.7-2.5-7.5c0-2.5,0.9-5.2,2.5-7.4h1c-1.5,2.4-2.1,4.8-2.1,7.4c0,2.7,0.6,5.1,2.1,7.5
		H771z"/>
	<path class="st0" d="M778.5,195c1.5-2.4,2.1-4.8,2.1-7.4c0-2.7-0.6-5.1-2.1-7.5h1c1.5,2.4,2.5,4.7,2.5,7.5c0,2.5-0.9,5.2-2.5,7.4
		H778.5z"/>
</g>
<path class="st0" d="M776.1,214.5h5.1v1.6h-5.1v5.2h-1.6v-5.2h-5.1v-1.6h5.1v-5.2h1.6V214.5z"/>
<polygon class="st6" points="765.5,196.1 720.7,154 720.7,177.5 642.8,177.5 642.8,217 720.7,217 720.7,238.3 "/>
<g>
	<path class="st0" d="M269.4,248h1.1v3.4h0c0.4-0.7,1.2-1,2.1-1c2,0,3,1.6,3,3.5s-1,3.4-3,3.4c-0.7,0-1.6-0.3-2.1-1h0v0.9h-1.1V248z
		 M272.4,251.3c-1.5,0-2,1.3-2,2.5c0,1.3,0.6,2.5,2.1,2.5c1.5,0,2-1.3,2-2.6C274.5,252.5,273.8,251.3,272.4,251.3z"/>
</g>
<g>
	<path class="st0" d="M388.4,181h1.1v3.4h0c0.4-0.7,1.2-1,2.1-1c2,0,3,1.6,3,3.5s-1,3.4-3,3.4c-0.7,0-1.6-0.3-2.1-1h0v0.9h-1.1V181z
		 M391.5,184.4c-1.5,0-2,1.3-2,2.5c0,1.3,0.6,2.5,2.1,2.5c1.5,0,2-1.3,2-2.6C393.5,185.6,392.9,184.4,391.5,184.4z"/>
</g>
<g>
	<path d="M493.1,171.7c0,2.2-1.2,3.3-3.4,3.3c-2.2,0-3.5-1-3.5-3.3v-5.5h1.1v5.5c0,1.5,0.9,2.3,2.4,2.3c1.4,0,2.2-0.8,2.2-2.3v-5.5
		h1.1V171.7z"/>
	<path d="M496.2,168.5h1.2v0.9h-1.2v3.9c0,0.5,0.1,0.6,0.8,0.6h0.5v0.9h-0.8c-1.1,0-1.5-0.2-1.5-1.4v-3.9h-1.1v-0.9h1.1v-1.9h1
		V168.5z"/>
	<path d="M499.6,167.4h-1v-1.2h1V167.4z M498.6,168.5h1v6.2h-1V168.5z"/>
	<path d="M501.3,166.2h1v8.6h-1V166.2z"/>
	<path d="M505,167.4h-1v-1.2h1V167.4z M503.9,168.5h1v6.2h-1V168.5z"/>
	<path d="M506,174l3.7-4.5h-3.5v-0.9h4.8v0.7l-3.8,4.6h4v0.9H506V174z"/>
	<path d="M517.6,172.8c-0.3,1.4-1.3,2.1-2.7,2.1c-2,0-2.9-1.4-3-3.3c0-1.9,1.2-3.2,2.9-3.2c2.2,0,2.9,2.1,2.8,3.6H513
		c0,1.1,0.6,2,1.9,2c0.8,0,1.4-0.4,1.6-1.2H517.6z M516.6,171.1c0-1-0.8-1.8-1.8-1.8c-1.1,0-1.7,0.8-1.8,1.8H516.6z"/>
	<path d="M523.5,168.5h1.2v0.9h-1.2v3.9c0,0.5,0.1,0.6,0.8,0.6h0.5v0.9H524c-1.1,0-1.5-0.2-1.5-1.4v-3.9h-1.1v-0.9h1.1v-1.9h1V168.5
		z"/>
	<path d="M525.9,166.2h1v3.3h0c0.3-0.7,1.2-1.1,2-1.1c1.6,0,2.1,0.9,2.1,2.3v4.1h-1v-4.2c0-0.8-0.5-1.2-1.3-1.2
		c-1.2,0-1.8,0.8-1.8,1.9v3.5h-1V166.2z"/>
	<path d="M537.8,172.8c-0.3,1.4-1.3,2.1-2.7,2.1c-2,0-2.9-1.4-3-3.3c0-1.9,1.2-3.2,2.9-3.2c2.2,0,2.9,2.1,2.8,3.6h-4.6
		c0,1.1,0.6,2,1.9,2c0.8,0,1.4-0.4,1.6-1.2H537.8z M536.8,171.1c0-1-0.8-1.8-1.8-1.8c-1.1,0-1.7,0.8-1.8,1.8H536.8z"/>
	<path d="M545.1,174.7H544l-2.3-6.2h1.1l1.7,5.2h0l1.7-5.2h1.1L545.1,174.7z"/>
	<path d="M553.8,174.7c-0.2,0.1-0.4,0.2-0.7,0.2c-0.5,0-0.9-0.3-0.9-1c-0.6,0.7-1.3,1-2.2,1c-1.1,0-2.1-0.5-2.1-1.7
		c0-1.4,1-1.7,2.1-1.9c1.1-0.2,2.1-0.1,2.1-0.9c0-0.9-0.7-1-1.4-1c-0.9,0-1.5,0.3-1.5,1.2h-1c0.1-1.5,1.2-2.1,2.6-2.1
		c1.1,0,2.3,0.3,2.3,1.7v3.2c0,0.5,0,0.7,0.3,0.7c0.1,0,0.2,0,0.3-0.1V174.7z M552.1,171.5c-0.4,0.3-1.2,0.3-1.8,0.4
		c-0.7,0.1-1.2,0.4-1.2,1.1c0,0.7,0.6,0.9,1.2,0.9c1.3,0,1.9-0.8,1.9-1.4V171.5z"/>
	<path d="M554.8,166.2h1v8.6h-1V166.2z"/>
	<path d="M562.6,174.7h-1v-1h0c-0.4,0.8-1.1,1.1-2,1.1c-1.6,0-2.1-0.9-2.1-2.3v-4.1h1v4.2c0,0.8,0.5,1.2,1.3,1.2
		c1.2,0,1.8-0.8,1.8-1.9v-3.5h1V174.7z"/>
	<path d="M569.4,172.8c-0.3,1.4-1.3,2.1-2.7,2.1c-2,0-2.9-1.4-3-3.3c0-1.9,1.2-3.2,2.9-3.2c2.2,0,2.9,2.1,2.8,3.6h-4.6
		c0,1.1,0.6,2,1.9,2c0.8,0,1.4-0.4,1.6-1.2H569.4z M568.4,171.1c0-1-0.8-1.8-1.8-1.8c-1.1,0-1.7,0.8-1.8,1.8H568.4z"/>
	<path d="M573.9,166.2h1v3.2h0c0.3-0.7,1.1-1,2-1c1.9,0,2.9,1.5,2.9,3.3c0,1.8-0.9,3.2-2.8,3.2c-0.6,0-1.5-0.2-2-1h0v0.8h-1V166.2z
		 M576.8,169.3c-1.4,0-1.9,1.2-1.9,2.3c0,1.2,0.6,2.4,2,2.4c1.4,0,1.9-1.2,1.9-2.4C578.7,170.4,578.1,169.3,576.8,169.3z"/>
	<path d="M582.1,167.4h-1v-1.2h1V167.4z M581,168.5h1v6.2h-1V168.5z"/>
	<path d="M583.7,166.2h1v8.6h-1V166.2z"/>
	<path d="M586.4,166.2h1v8.6h-1V166.2z"/>
	<path d="M480.6,189.1h-1.1l-1.3-4.9h0l-1.2,4.9h-1.1l-2-6.2h1.1l1.4,5.1h0l1.2-5.1h1.1l1.3,5.1h0l1.4-5.1h1.1L480.6,189.1z"/>
	<path d="M484.6,181.8h-1v-1.2h1V181.8z M483.6,182.9h1v6.2h-1V182.9z"/>
	<path d="M487.6,182.9h1.2v0.9h-1.2v3.9c0,0.5,0.1,0.6,0.8,0.6h0.5v0.9h-0.8c-1.1,0-1.5-0.2-1.5-1.4v-3.9h-1.1v-0.9h1.1v-1.9h1
		V182.9z"/>
	<path d="M490,180.6h1v3.3h0c0.3-0.7,1.2-1.1,2-1.1c1.6,0,2.1,0.9,2.1,2.3v4.1h-1V185c0-0.8-0.5-1.2-1.3-1.2c-1.2,0-1.8,0.8-1.8,1.9
		v3.5h-1V180.6z"/>
	<path d="M497.7,181.8h-1v-1.2h1V181.8z M496.7,182.9h1v6.2h-1V182.9z"/>
	<path d="M499.3,182.9h1v1h0c0.4-0.8,1.1-1.1,2-1.1c1.6,0,2.1,0.9,2.1,2.3v4.1h-1V185c0-0.8-0.5-1.2-1.3-1.2c-1.2,0-1.8,0.8-1.8,1.9
		v3.5h-1V182.9z"/>
	<path d="M515.5,183.2c-0.2-1.2-1.2-1.8-2.4-1.8c-2,0-2.9,1.7-2.9,3.5c0,2,0.9,3.6,2.9,3.6c1.5,0,2.4-1.1,2.5-2.5h1.1
		c-0.2,2.1-1.5,3.4-3.7,3.4c-2.7,0-4-2-4-4.5c0-2.5,1.4-4.5,4.1-4.5c1.8,0,3.3,1,3.5,2.8H515.5z"/>
	<path d="M523.1,183.1c-0.1-1.2-0.9-1.8-2.1-1.8c-1,0-1.9,0.3-1.9,1.5c0,1.1,1.4,1.2,2.7,1.5c1.4,0.3,2.7,0.8,2.7,2.5
		c0,1.8-1.8,2.6-3.3,2.6c-1.9,0-3.5-0.9-3.5-3h1.1c0,1.4,1.2,2.1,2.5,2.1c1,0,2.2-0.3,2.2-1.6c0-1.2-1.4-1.4-2.7-1.7
		s-2.7-0.7-2.7-2.3c0-1.7,1.5-2.5,3.1-2.5c1.8,0,3.1,0.8,3.2,2.7H523.1z"/>
	<path d="M527.9,181.5H525v-1h6.8v1H529v7.6h-1.1V181.5z"/>
	<path d="M537.1,181.8h-1v-1.2h1V181.8z M536,182.9h1v6.2h-1V182.9z"/>
	<path d="M538.7,182.9h1v1h0c0.4-0.8,1.1-1.1,2-1.1c1.6,0,2.1,0.9,2.1,2.3v4.1h-1V185c0-0.8-0.5-1.2-1.3-1.2c-1.2,0-1.8,0.8-1.8,1.9
		v3.5h-1V182.9z"/>
	<path d="M550.1,182.9h1.2v0.9h-1.2v3.9c0,0.5,0.1,0.6,0.8,0.6h0.5v0.9h-0.8c-1.1,0-1.5-0.2-1.5-1.4v-3.9H548v-0.9h1.1v-1.9h1V182.9
		z"/>
	<path d="M558.6,189.1h-1.1l-1.3-4.9h0l-1.2,4.9h-1.1l-2-6.2h1.1l1.4,5.1h0l1.2-5.1h1.1l1.3,5.1h0l1.4-5.1h1.1L558.6,189.1z"/>
	<path d="M564.2,182.8c2,0,3,1.4,3,3.3c0,1.8-1,3.2-3,3.2s-3-1.4-3-3.2C561.2,184.2,562.2,182.8,564.2,182.8z M564.2,188.4
		c1.1,0,1.9-0.8,1.9-2.3c0-1.5-0.9-2.4-1.9-2.4s-1.9,0.8-1.9,2.4C562.3,187.6,563.1,188.4,564.2,188.4z"/>
	<path d="M574.2,190c-0.5,1.2-0.9,1.7-1.8,1.7c-0.2,0-0.5,0-0.7-0.1v-0.9c0.2,0.1,0.4,0.1,0.6,0.1c0.4,0,0.6-0.2,0.8-0.6l0.4-1.1
		l-2.5-6.2h1.2l1.8,5.1h0l1.7-5.1h1.1L574.2,190z"/>
	<path d="M583,187.2c-0.3,1.4-1.3,2.1-2.7,2.1c-2,0-2.9-1.4-3-3.3c0-1.9,1.2-3.2,2.9-3.2c2.2,0,2.9,2.1,2.8,3.6h-4.6
		c0,1.1,0.6,2,1.9,2c0.8,0,1.4-0.4,1.6-1.2H583z M582.1,185.5c0-1-0.8-1.8-1.8-1.8c-1.1,0-1.7,0.8-1.8,1.8H582.1z"/>
	<path d="M589.7,189.1c-0.2,0.1-0.4,0.2-0.7,0.2c-0.5,0-0.9-0.3-0.9-1c-0.6,0.7-1.3,1-2.2,1c-1.1,0-2.1-0.5-2.1-1.7
		c0-1.4,1-1.7,2.1-1.9c1.1-0.2,2.1-0.1,2.1-0.9c0-0.9-0.7-1-1.4-1c-0.9,0-1.5,0.3-1.5,1.2h-1c0.1-1.5,1.2-2.1,2.6-2.1
		c1.1,0,2.3,0.3,2.3,1.7v3.2c0,0.5,0,0.7,0.3,0.7c0.1,0,0.2,0,0.3-0.1V189.1z M588,185.9c-0.4,0.3-1.2,0.3-1.8,0.4
		c-0.7,0.1-1.2,0.4-1.2,1.1c0,0.7,0.6,0.9,1.2,0.9c1.3,0,1.9-0.8,1.9-1.4V185.9z"/>
	<path d="M590.6,182.9h1v1.3h0c0.5-1,1.2-1.5,2.3-1.5v1.1c-1.6,0-2.2,0.9-2.2,2.5v2.8h-1V182.9z"/>
	<path d="M595.3,187.2c0,0.9,0.8,1.2,1.7,1.2c0.6,0,1.5-0.1,1.5-0.9c0-0.8-1-0.9-2-1.2c-1-0.2-2-0.6-2-1.8c0-1.2,1.2-1.8,2.3-1.8
		c1.4,0,2.5,0.4,2.5,1.9h-1c-0.1-0.8-0.8-1-1.4-1c-0.6,0-1.3,0.2-1.3,0.8c0,0.7,1.1,0.9,2,1.1c1,0.2,2,0.6,2,1.8c0,1.5-1.4,2-2.6,2
		c-1.4,0-2.6-0.6-2.6-2.1H595.3z"/>
</g>
</svg>
