<svg id="Layer_1" data-name="Layer 1" xmlns="http://www.w3.org/2000/svg" viewBox="0 0 540 415.3"><defs><style>.cls-1,.cls-4{fill:#5fc8d7}.cls-2{fill:#192530}.cls-10,.cls-3,.cls-5,.cls-6{fill:none}.cls-3,.cls-4,.cls-5{stroke:#424242}.cls-10,.cls-13,.cls-3,.cls-6,.cls-7{stroke-miterlimit:10}.cls-3,.cls-4,.cls-5,.cls-6,.cls-7{stroke-width:2.5px}.cls-4,.cls-5{stroke-linejoin:round}.cls-10,.cls-6,.cls-7{stroke:#333}.cls-13,.cls-7,.cls-9{fill:#2dabe2}.cls-8{fill:#1d2e5e}.cls-10,.cls-13{stroke-width:2px}.cls-11{fill:#4057a7}.cls-12{fill:#343434}.cls-13{stroke:#414042}</style></defs><title>Artboard 11</title><g id="_Group_" data-name="&lt;Group&gt;"><path class="cls-1" d="M480.6 240.1v2.6h-9.5v-14.2h9.5v11.6zM471.1 219.4h9.5v5.13h-9.5zM471.1 210.3h9.5v5.13h-9.5zM457 237.6h9.5v5.13H457zM457 228.5h9.5v5.12H457zM457 219.4h9.5v5.13H457zM457 210.3h9.5v5.13H457zM442.8 237.6h9.5v5.13h-9.5zM442.8 228.5h9.5v5.12h-9.5zM442.8 219.4h9.5v5.13h-9.5zM442.8 210.3h9.5v5.13h-9.5z"/><path class="cls-2" d="M483.1 250h-42.8a4.7 4.7 0 0 1-4.7-4.7v-62.5a4.7 4.7 0 0 1 4.7-4.7h42.9a4.7 4.7 0 0 1 4.7 4.7v62.4a4.7 4.7 0 0 1-4.8 4.8zm-42.9-69.9a2.7 2.7 0 0 0-2.7 2.7v62.4a2.7 2.7 0 0 0 2.7 2.7h42.9a2.7 2.7 0 0 0 2.7-2.7v-62.4a2.7 2.7 0 0 0-2.7-2.7z"/><path class="cls-2" d="M480.6 197.8h-37.8a1 1 0 0 1-1-1v-11.4a1 1 0 0 1 1-1h37.8a1 1 0 0 1 1 1v11.4a1 1 0 0 1-1 1zm-36.8-2h35.8v-9.5h-35.8zM452.3 216.4h-9.5a1 1 0 0 1-1-1v-5.1a1 1 0 0 1 1-1h9.5a1 1 0 0 1 1 1v5.1a1 1 0 0 1-1 1zm-8.5-2h7.5v-3.1h-7.5zM466.4 216.4H457a1 1 0 0 1-1-1v-5.1a1 1 0 0 1 1-1h9.5a1 1 0 0 1 1 1v5.1a1 1 0 0 1-1.1 1zm-8.5-2h7.5v-3.1H458zM480.6 216.4h-9.5a1 1 0 0 1-1-1v-5.1a1 1 0 0 1 1-1h9.5a1 1 0 0 1 1 1v5.1a1 1 0 0 1-1 1zm-8.5-2h7.5v-3.1h-7.5zM452.3 225.5h-9.5a1 1 0 0 1-1-1v-5.1a1 1 0 0 1 1-1h9.5a1 1 0 0 1 1 1v5.1a1 1 0 0 1-1 1zm-8.5-2h7.5v-3.1h-7.5zM466.4 225.5H457a1 1 0 0 1-1-1v-5.1a1 1 0 0 1 1-1h9.5a1 1 0 0 1 1 1v5.1a1 1 0 0 1-1.1 1zm-8.5-2h7.5v-3.1H458zM480.6 225.5h-9.5a1 1 0 0 1-1-1v-5.1a1 1 0 0 1 1-1h9.5a1 1 0 0 1 1 1v5.1a1 1 0 0 1-1 1zm-8.5-2h7.5v-3.1h-7.5zM452.3 234.6h-9.5a1 1 0 0 1-1-1v-5.1a1 1 0 0 1 1-1h9.5a1 1 0 0 1 1 1v5.1a1 1 0 0 1-1 1zm-8.5-2h7.5v-3.1h-7.5zM466.4 234.6H457a1 1 0 0 1-1-1v-5.1a1 1 0 0 1 1-1h9.5a1 1 0 0 1 1 1v5.1a1 1 0 0 1-1.1 1zm-8.5-2h7.5v-3.1H458zM452.3 243.7h-9.5a1 1 0 0 1-1-1v-5.1a1 1 0 0 1 1-1h9.5a1 1 0 0 1 1 1v5.1a1 1 0 0 1-1 1zm-8.5-2h7.5v-3.1h-7.5zM466.4 243.7H457a1 1 0 0 1-1-1v-5.1a1 1 0 0 1 1-1h9.5a1 1 0 0 1 1 1v5.1a1 1 0 0 1-1.1 1zm-8.5-2h7.5v-3.1H458zM480.6 243.7h-9.5a1 1 0 0 1-1-1v-14.2a1 1 0 0 1 1-1h9.5a1 1 0 0 1 1 1v14.2a1 1 0 0 1-1 1zm-8.5-2h7.5v-12.2h-7.5zM453.9 201.1h15.6v1.99h-15.6z"/></g><path class="cls-3" d="M461.7 272.3a33.1 33.1 0 1 0 33.1 33.1 33.2 33.2 0 0 0-33.1-33.1z"/><path class="cls-3" d="M461.3 283.3a22.2 22.2 0 1 0 22.2 22.2 22.2 22.2 0 0 0-22.2-22.2zM461.3 284.5v4.5M461.3 322.5v4.5M482.9 305.4h-4.5M444.9 305.4h-4.5"/><circle class="cls-4" cx="461.3" cy="305.4" r="4.2" transform="rotate(-45 461.224 305.455)"/><path class="cls-5" d="M456.8 304.8l-8.4 12.5 13.3-7.6M465 306.2l7.3-11.4-12.2 6.4"/><path class="cls-6" d="M87.2 307.4l-9.1 25.1-5.8-9.3-11 3.2 8.7-23.8M88.8 306.9l9.3 25.6 5.8-9.3 10.9 3.2-8.2-22.7"/><path class="cls-7" d="M114.4 292.5l-2.4-7 4-6.2-5.4-5.1.7-7.3-7.1-2-2.8-6.8-7.2 1.5-5.7-4.7-5.6 4.7-7.2-1.5-2.8 6.8-7.1 2 .7 7.3-5.4 5.1 4 6.2-2.4 7 6.4 3.6 1.1 7.3 7.4.2 4.4 6 6.6-3.3 6.6 3.3 4.4-6 7.4-.2 1.1-7.3zm-42.7-9.4a16.8 16.8 0 1 1 16.8 16.8 16.8 16.8 0 0 1-16.8-16.8z"/><g id="_Group_2" data-name="&lt;Group&gt;"><path class="cls-8" d="M122.2 107.3v22.2H95.8v2.1H82.9v-2.1H56.6v-8.7l17.4-8.7 8.1 4.4 15.5-6.3 7.6 4.5 17-7.4z"/><path class="cls-2" d="M123.3 129.5h-2.2V88.1H57.7v41.4h-2.2V87a1.1 1.1 0 0 1 1.1-1.1h65.6a1.1 1.1 0 0 1 1.1 1.1z"/><path class="cls-2" d="M129.3 129.5h-2.2V84.4a2.3 2.3 0 0 0-2.3-2.3H54a2.3 2.3 0 0 0-2.3 2.3v45.1h-2.3V84.4a4.6 4.6 0 0 1 4.6-4.6h70.8a4.6 4.6 0 0 1 4.5 4.5z"/><path class="cls-2" d="M136.6 137.5H42.1a1.1 1.1 0 0 1-.9-.5 14.7 14.7 0 0 1-1.9-3.2 17.7 17.7 0 0 1 0-4.4 1.1 1.1 0 0 1 1.1-1h42.5a1.1 1.1 0 0 1 1.1 1.1v1h10.7v-1a1.1 1.1 0 0 1 1.1-1.1h42.5a1.1 1.1 0 0 1 1.1 1 17.6 17.6 0 0 1 0 4.4 14.7 14.7 0 0 1-1.9 3.2 1.1 1.1 0 0 1-.9.5zm-93.9-2.2H136a11.7 11.7 0 0 0 1.2-2 12.3 12.3 0 0 0 0-2.6H96.9v1a1.1 1.1 0 0 1-1.1 1.1H82.9a1.1 1.1 0 0 1-1.1-1.1v-1H41.5a12.4 12.4 0 0 0 0 2.6 11.6 11.6 0 0 0 1.2 2zM57.1 121.8l-1-2 17.5-8.7a1.1 1.1 0 0 1 1 0l7.6 4.1 15.1-6a1.1 1.1 0 0 1 1 .1l7.1 4.2 16.5-7.2 1 2h-.1l-17 7.4a1.1 1.1 0 0 1-1-.1l-7.1-4.2-15.1 6a1.1 1.1 0 0 1-.9-.1l-7.7-4zM64.5 93.4h18.9v2.23H64.5zM64.5 98.2h10.8v2.23H64.5z"/></g><path class="cls-9" d="M492.9 138.1L480.6 150v-11.9h12.3zM444.6 114.9h19.2v8.78h-19.2zM467 114.9h19v8.92h-19z"/><path class="cls-10" d="M480.1 149.7v-10.9a1 1 0 0 1 1-1H492M486 86.9h-17.3M486 93.1h-17.3M486 99.2h-17.3M486 105.4h-17.3M486 111.5h-41.9M486 130h-41.9M463.8 135.2h-19.7M462.9 124.2h-17.6a1 1 0 0 1-1-1v-7.5a1 1 0 0 1 1-1H463a1 1 0 0 1 1 1v7.5a1 1 0 0 1-1.1 1zM485.3 124.2h-17.6a1 1 0 0 1-1-1v-7.5a1 1 0 0 1 1-1h17.7a1 1 0 0 1 1 1v7.5a1 1 0 0 1-1.1 1z"/><path class="cls-10" d="M480.6 150H439a1 1 0 0 1-1-1V76.4a1 1 0 0 1 1-1h52.5a1 1 0 0 1 1 1V138a1 1 0 0 1-.3.7l-10.9 10.9a1 1 0 0 1-.7.4z"/><path class="cls-10" d="M464.3 82.6v12.5a9.6 9.6 0 0 1-19.3 0V76.4a7.8 7.8 0 0 1 15.5 0v16.4a5.5 5.5 0 0 1-11.1 0v-10"/><g id="_Group_3" data-name="&lt;Group&gt;"><path class="cls-11" d="M79.1 197.1h.1a13.1 13.1 0 0 1-26.3 0zM99.6 197.1h26.2a13.1 13.1 0 0 1-26.3 0z"/><path class="cls-2" d="M66 211.3a14.2 14.2 0 0 1-14.1-14.1h2a12.2 12.2 0 0 0 24.3 0h.9v-1h.1a1 1 0 0 1 1 1A14.2 14.2 0 0 1 66 211.3zM66.1 166.4h23.3v1.99H66.1z"/><path class="cls-2" d="M79.1 198.1H52.9a1 1 0 0 1-.9-1.4L65.1 167a1 1 0 0 1 1.8 0L80 196.7a1 1 0 0 1-.9 1.4zm-24.7-2h23.2L66 169.8zM112.7 211.3a14.2 14.2 0 0 1-14.1-14.1 1 1 0 0 1 1-1h.1v1h.9a12.2 12.2 0 0 0 24.3 0h2a14.2 14.2 0 0 1-14.2 14.1zM89.4 166.4h23.3v1.99H89.4z"/><path class="cls-2" d="M125.9 198.1H99.6a1 1 0 0 1-.9-1.4l13.1-29.7a1 1 0 0 1 1.8 0l13.1 29.8a1 1 0 0 1-.9 1.4zm-24.7-2h23.2l-11.6-26.3zM107.8 226.1H71.4a3.5 3.5 0 0 1-3.5-3.5 3.5 3.5 0 0 1 3.5-3.5h15.7v2H71.4a1.5 1.5 0 0 0-1.5 1.5 1.5 1.5 0 0 0 1.5 1.5h36.5a1.5 1.5 0 0 0 0-3H92.1v-2h15.7a3.5 3.5 0 0 1 0 7z"/><path class="cls-2" d="M92.1 221h-5a1 1 0 0 1-1-1v-56.6a3.5 3.5 0 0 1 7 0V220a1 1 0 0 1-1 1zm-4-2h3v-55.6a1.5 1.5 0 0 0-3 0z"/><path class="cls-2" d="M87.1 170.5h5v1.99h-5z"/></g><path class="cls-12" d="M180.9 207.8v-1.5h56.3a1 1 0 0 0 1-1v-45.1h-58.3v45.1a1 1 0 0 0 1 1v1.5a2.5 2.5 0 0 1-2.5-2.5v-45.9a.8.8 0 0 1 .2-.5l.5-.2h59.7l.5.2a.8.8 0 0 1 .2.5v45.9a2.5 2.5 0 0 1-2.5 2.5zM221 149.7v-6.8a4.2 4.2 0 1 1 8.3 0v6.8a4.2 4.2 0 1 1-8.3 0zm1.5-6.8v6.8a2.7 2.7 0 1 0 5.3 0v-6.8a2.7 2.7 0 1 0-5.3 0zM188.7 149.7v-6.8a4.2 4.2 0 1 1 8.3 0v6.8a4.2 4.2 0 1 1-8.3 0zm1.5 0a2.7 2.7 0 1 0 5.3 0v-6.8a2.7 2.7 0 1 0-5.3 0z"/><path class="cls-12" d="M200 175.4a1.8 1.8 0 0 1-1.8-1.8V168a1.8 1.8 0 0 1 1.8-1.8h5.6a1.8 1.8 0 0 1 1.8 1.8v5.6a1.8 1.8 0 0 1-1.8 1.8zm-.2-7.3v5.6a.2.2 0 0 0 .2.2h5.6a.2.2 0 0 0 .2-.2v-5.6a.2.2 0 0 0-.2-.2H200a.2.2 0 0 0-.3.2zM212.5 175.4a1.8 1.8 0 0 1-1.8-1.8V168a1.8 1.8 0 0 1 1.8-1.8h5.6a1.8 1.8 0 0 1 1.8 1.8v5.6a1.8 1.8 0 0 1-1.8 1.8zm-.2-7.3v5.6a.2.2 0 0 0 .2.2h5.6a.2.2 0 0 0 .2-.2v-5.6a.2.2 0 0 0-.2-.2h-5.6a.2.2 0 0 0-.2.2zM225 175.4a1.8 1.8 0 0 1-1.8-1.8V168a1.8 1.8 0 0 1 1.8-1.8h5.6a1.8 1.8 0 0 1 1.8 1.8v5.6a1.8 1.8 0 0 1-1.8 1.8zm-.2-7.3v5.6a.2.2 0 0 0 .2.2h5.6a.2.2 0 0 0 .2-.2v-5.6a.2.2 0 0 0-.2-.2H225a.2.2 0 0 0-.2.2zM200 187.5a1.8 1.8 0 0 1-1.8-1.8v-5.6a1.8 1.8 0 0 1 1.8-1.8h5.6a1.8 1.8 0 0 1 1.8 1.8v5.6a1.8 1.8 0 0 1-1.8 1.8zm-.2-7.3v5.6a.2.2 0 0 0 .2.2h5.6a.2.2 0 0 0 .2-.2v-5.6a.2.2 0 0 0-.2-.2H200a.2.2 0 0 0-.3.1zM225 187.5a1.8 1.8 0 0 1-1.8-1.8v-5.6a1.8 1.8 0 0 1 1.8-1.8h5.6a1.8 1.8 0 0 1 1.8 1.8v5.6a1.8 1.8 0 0 1-1.8 1.8zm-.2-7.3v5.6a.2.2 0 0 0 .2.2h5.6a.2.2 0 0 0 .2-.2v-5.6a.2.2 0 0 0-.2-.2H225a.2.2 0 0 0-.2.1zM212.5 187.5a1.8 1.8 0 0 1-1.8-1.8v-5.6a1.8 1.8 0 0 1 1.8-1.8h5.6a1.8 1.8 0 0 1 1.8 1.8v5.6a1.8 1.8 0 0 1-1.8 1.8zm-.2-7.3v5.6a.2.2 0 0 0 .2.2h5.6a.2.2 0 0 0 .2-.2v-5.6a.2.2 0 0 0-.2-.2h-5.6a.2.2 0 0 0-.2.1zM200 199.5a1.8 1.8 0 0 1-1.8-1.8v-5.6a1.8 1.8 0 0 1 1.8-1.8h5.6a1.8 1.8 0 0 1 1.8 1.8v5.6a1.8 1.8 0 0 1-1.8 1.8zm-.2-7.3v5.6a.2.2 0 0 0 .2.2h5.6a.2.2 0 0 0 .2-.2v-5.6a.2.2 0 0 0-.2-.2H200a.2.2 0 0 0-.3.2zM212.5 199.5a1.8 1.8 0 0 1-1.8-1.8v-5.6a1.8 1.8 0 0 1 1.8-1.8h5.6a1.8 1.8 0 0 1 1.8 1.8v5.6a1.8 1.8 0 0 1-1.8 1.8zm-.2-7.3v5.6a.2.2 0 0 0 .2.2h5.6a.2.2 0 0 0 .2-.2v-5.6a.2.2 0 0 0-.2-.2h-5.6a.2.2 0 0 0-.2.2zM187.4 187.5a1.8 1.8 0 0 1-1.8-1.8v-5.6a1.8 1.8 0 0 1 1.8-1.8h5.6a1.8 1.8 0 0 1 1.8 1.8v5.6a1.8 1.8 0 0 1-1.8 1.8zm-.2-7.3v5.6a.2.2 0 0 0 .2.2h5.6a.2.2 0 0 0 .2-.2v-5.6a.2.2 0 0 0-.2-.2h-5.6a.2.2 0 0 0-.2.1zM187.4 199.5a1.8 1.8 0 0 1-1.8-1.8v-5.6a1.8 1.8 0 0 1 1.8-1.8h5.6a1.8 1.8 0 0 1 1.8 1.8v5.6a1.8 1.8 0 0 1-1.8 1.8zm-.2-7.3v5.6a.2.2 0 0 0 .2.2h5.6a.2.2 0 0 0 .2-.2v-5.6a.2.2 0 0 0-.2-.2h-5.6a.2.2 0 0 0-.2.2zM196.3 147.1a.8.8 0 1 1 0-1.5h25.5a.8.8 0 0 1 0 1.5z"/><path class="cls-12" d="M179.1 160.2l-.5-.2a.8.8 0 0 1-.2-.5V148a2.5 2.5 0 0 1 2.5-2.5h8.6a.8.8 0 0 1 0 1.5h-8.6a1 1 0 0 0-1 1v10.6h58.2V148a1 1 0 0 0-1-1h-8.6a.8.8 0 0 1 0-1.5h8.6a2.5 2.5 0 0 1 2.5 2.5v11.4a.8.8 0 0 1-.2.5l-.5.2zM253.5 207.8v-1.5h56.3a1 1 0 0 0 1-1v-45.1h-58.3v45.1a1 1 0 0 0 1 1v1.5a2.5 2.5 0 0 1-2.5-2.5v-45.9a.8.8 0 0 1 .2-.5l.5-.2h59.7l.5.2a.8.8 0 0 1 .2.5v45.9a2.5 2.5 0 0 1-2.5 2.5zM293.6 149.7v-6.8a4.2 4.2 0 1 1 8.3 0v6.8a4.2 4.2 0 1 1-8.3 0zm1.5-6.8v6.8a2.7 2.7 0 1 0 5.3 0v-6.8a2.7 2.7 0 1 0-5.3 0zM261.3 149.7v-6.8a4.2 4.2 0 1 1 8.3 0v6.8a4.2 4.2 0 1 1-8.3 0zm1.5 0a2.7 2.7 0 1 0 5.3 0v-6.8a2.7 2.7 0 1 0-5.3 0z"/><path class="cls-12" d="M272.6 175.4a1.8 1.8 0 0 1-1.8-1.8V168a1.8 1.8 0 0 1 1.8-1.8h5.6a1.8 1.8 0 0 1 1.8 1.8v5.6a1.8 1.8 0 0 1-1.8 1.8zm-.2-7.3v5.6a.2.2 0 0 0 .2.2h5.6a.2.2 0 0 0 .2-.2v-5.6a.2.2 0 0 0-.2-.2h-5.6a.2.2 0 0 0-.2.2zM285.1 175.4a1.8 1.8 0 0 1-1.8-1.8V168a1.8 1.8 0 0 1 1.8-1.8h5.6a1.8 1.8 0 0 1 1.8 1.8v5.6a1.8 1.8 0 0 1-1.8 1.8zm-.2-7.3v5.6a.2.2 0 0 0 .2.2h5.6a.2.2 0 0 0 .2-.2v-5.6a.2.2 0 0 0-.2-.2h-5.6a.2.2 0 0 0-.2.2zM297.6 175.4a1.8 1.8 0 0 1-1.8-1.8V168a1.8 1.8 0 0 1 1.8-1.8h5.6a1.8 1.8 0 0 1 1.8 1.8v5.6a1.8 1.8 0 0 1-1.8 1.8zm-.2-7.3v5.6a.2.2 0 0 0 .2.2h5.6a.2.2 0 0 0 .2-.2v-5.6a.2.2 0 0 0-.2-.2h-5.6a.2.2 0 0 0-.2.2zM272.6 187.5a1.8 1.8 0 0 1-1.8-1.8v-5.6a1.8 1.8 0 0 1 1.8-1.8h5.6a1.8 1.8 0 0 1 1.8 1.8v5.6a1.8 1.8 0 0 1-1.8 1.8zm-.2-7.3v5.6a.2.2 0 0 0 .2.2h5.6a.2.2 0 0 0 .2-.2v-5.6a.2.2 0 0 0-.2-.2h-5.6a.2.2 0 0 0-.2.1zM297.6 187.5a1.8 1.8 0 0 1-1.8-1.8v-5.6a1.8 1.8 0 0 1 1.8-1.8h5.6a1.8 1.8 0 0 1 1.8 1.8v5.6a1.8 1.8 0 0 1-1.8 1.8zm-.2-7.3v5.6a.2.2 0 0 0 .2.2h5.6a.2.2 0 0 0 .2-.2v-5.6a.2.2 0 0 0-.2-.2h-5.6a.2.2 0 0 0-.2.1zM285.1 187.5a1.8 1.8 0 0 1-1.8-1.8v-5.6a1.8 1.8 0 0 1 1.8-1.8h5.6a1.8 1.8 0 0 1 1.8 1.8v5.6a1.8 1.8 0 0 1-1.8 1.8zm-.2-7.3v5.6a.2.2 0 0 0 .2.2h5.6a.2.2 0 0 0 .2-.2v-5.6a.2.2 0 0 0-.2-.2h-5.6a.2.2 0 0 0-.2.1zM272.6 199.5a1.8 1.8 0 0 1-1.8-1.8v-5.6a1.8 1.8 0 0 1 1.8-1.8h5.6a1.8 1.8 0 0 1 1.8 1.8v5.6a1.8 1.8 0 0 1-1.8 1.8zm-.2-7.3v5.6a.2.2 0 0 0 .2.2h5.6a.2.2 0 0 0 .2-.2v-5.6a.2.2 0 0 0-.2-.2h-5.6a.2.2 0 0 0-.2.2zM285.1 199.5a1.8 1.8 0 0 1-1.8-1.8v-5.6a1.8 1.8 0 0 1 1.8-1.8h5.6a1.8 1.8 0 0 1 1.8 1.8v5.6a1.8 1.8 0 0 1-1.8 1.8zm-.2-7.3v5.6a.2.2 0 0 0 .2.2h5.6a.2.2 0 0 0 .2-.2v-5.6a.2.2 0 0 0-.2-.2h-5.6a.2.2 0 0 0-.2.2zM260.1 187.5a1.8 1.8 0 0 1-1.8-1.8v-5.6a1.8 1.8 0 0 1 1.8-1.8h5.6a1.8 1.8 0 0 1 1.8 1.8v5.6a1.8 1.8 0 0 1-1.8 1.8zm-.2-7.3v5.6a.2.2 0 0 0 .2.2h5.6a.2.2 0 0 0 .2-.2v-5.6a.2.2 0 0 0-.2-.2h-5.6a.2.2 0 0 0-.3.1zM260.1 199.5a1.8 1.8 0 0 1-1.8-1.8v-5.6a1.8 1.8 0 0 1 1.8-1.8h5.6a1.8 1.8 0 0 1 1.8 1.8v5.6a1.8 1.8 0 0 1-1.8 1.8zm-.2-7.3v5.6a.2.2 0 0 0 .2.2h5.6a.2.2 0 0 0 .2-.2v-5.6a.2.2 0 0 0-.2-.2h-5.6a.2.2 0 0 0-.3.2zM268.9 147.1a.8.8 0 1 1 0-1.5h25.5a.8.8 0 0 1 0 1.5z"/><path class="cls-12" d="M251.8 160.2l-.5-.2a.8.8 0 0 1-.2-.5V148a2.5 2.5 0 0 1 2.5-2.5h8.6a.8.8 0 0 1 0 1.5h-8.6a1 1 0 0 0-1 1v10.6h58.2V148a1 1 0 0 0-1-1h-8.6a.8.8 0 0 1 0-1.5h8.6a2.5 2.5 0 0 1 2.5 2.5v11.4a.8.8 0 0 1-.2.5l-.5.2zM326.1 207.8v-1.5h56.3a1 1 0 0 0 1-1v-45.1h-58.3v45.1a1 1 0 0 0 1 1v1.5a2.5 2.5 0 0 1-2.5-2.5v-45.9a.8.8 0 0 1 .2-.5l.5-.2H384l.5.2a.8.8 0 0 1 .2.5v45.9a2.5 2.5 0 0 1-2.5 2.5zM366.2 149.7v-6.8a4.2 4.2 0 1 1 8.3 0v6.8a4.2 4.2 0 1 1-8.3 0zm1.5-6.8v6.8a2.7 2.7 0 1 0 5.3 0v-6.8a2.7 2.7 0 1 0-5.3 0zM333.9 149.7v-6.8a4.2 4.2 0 1 1 8.3 0v6.8a4.2 4.2 0 1 1-8.3 0zm1.5 0a2.7 2.7 0 1 0 5.3 0v-6.8a2.7 2.7 0 1 0-5.3 0z"/><path class="cls-12" d="M345.2 175.4a1.8 1.8 0 0 1-1.8-1.8V168a1.8 1.8 0 0 1 1.8-1.8h5.6a1.8 1.8 0 0 1 1.8 1.8v5.6a1.8 1.8 0 0 1-1.8 1.8zm-.2-7.3v5.6a.2.2 0 0 0 .2.2h5.6a.2.2 0 0 0 .2-.2v-5.6a.2.2 0 0 0-.2-.2h-5.6a.2.2 0 0 0-.2.2zM357.7 175.4a1.8 1.8 0 0 1-1.8-1.8V168a1.8 1.8 0 0 1 1.8-1.8h5.6a1.8 1.8 0 0 1 1.8 1.8v5.6a1.8 1.8 0 0 1-1.8 1.8zm-.2-7.3v5.6a.2.2 0 0 0 .2.2h5.6a.2.2 0 0 0 .2-.2v-5.6a.2.2 0 0 0-.2-.2h-5.6a.2.2 0 0 0-.2.2zM370.2 175.4a1.8 1.8 0 0 1-1.8-1.8V168a1.8 1.8 0 0 1 1.8-1.8h5.6a1.8 1.8 0 0 1 1.8 1.8v5.6a1.8 1.8 0 0 1-1.8 1.8zm-.2-7.3v5.6a.2.2 0 0 0 .2.2h5.6a.2.2 0 0 0 .2-.2v-5.6a.2.2 0 0 0-.2-.2h-5.6a.2.2 0 0 0-.2.2zM345.2 187.5a1.8 1.8 0 0 1-1.8-1.8v-5.6a1.8 1.8 0 0 1 1.8-1.8h5.6a1.8 1.8 0 0 1 1.8 1.8v5.6a1.8 1.8 0 0 1-1.8 1.8zm-.2-7.3v5.6a.2.2 0 0 0 .2.2h5.6a.2.2 0 0 0 .2-.2v-5.6a.2.2 0 0 0-.2-.2h-5.6a.2.2 0 0 0-.2.1zM370.2 187.5a1.8 1.8 0 0 1-1.8-1.8v-5.6a1.8 1.8 0 0 1 1.8-1.8h5.6a1.8 1.8 0 0 1 1.8 1.8v5.6a1.8 1.8 0 0 1-1.8 1.8zm-.2-7.3v5.6a.2.2 0 0 0 .2.2h5.6a.2.2 0 0 0 .2-.2v-5.6a.2.2 0 0 0-.2-.2h-5.6a.2.2 0 0 0-.2.1zM357.7 187.5a1.8 1.8 0 0 1-1.8-1.8v-5.6a1.8 1.8 0 0 1 1.8-1.8h5.6a1.8 1.8 0 0 1 1.8 1.8v5.6a1.8 1.8 0 0 1-1.8 1.8zm-.2-7.3v5.6a.2.2 0 0 0 .2.2h5.6a.2.2 0 0 0 .2-.2v-5.6a.2.2 0 0 0-.2-.2h-5.6a.2.2 0 0 0-.2.1zM345.2 199.5a1.8 1.8 0 0 1-1.8-1.8v-5.6a1.8 1.8 0 0 1 1.8-1.8h5.6a1.8 1.8 0 0 1 1.8 1.8v5.6a1.8 1.8 0 0 1-1.8 1.8zm-.2-7.3v5.6a.2.2 0 0 0 .2.2h5.6a.2.2 0 0 0 .2-.2v-5.6a.2.2 0 0 0-.2-.2h-5.6a.2.2 0 0 0-.2.2zM357.7 199.5a1.8 1.8 0 0 1-1.8-1.8v-5.6a1.8 1.8 0 0 1 1.8-1.8h5.6a1.8 1.8 0 0 1 1.8 1.8v5.6a1.8 1.8 0 0 1-1.8 1.8zm-.2-7.3v5.6a.2.2 0 0 0 .2.2h5.6a.2.2 0 0 0 .2-.2v-5.6a.2.2 0 0 0-.2-.2h-5.6a.2.2 0 0 0-.2.2zM332.7 187.5a1.8 1.8 0 0 1-1.8-1.8v-5.6a1.8 1.8 0 0 1 1.8-1.8h5.6a1.8 1.8 0 0 1 1.8 1.8v5.6a1.8 1.8 0 0 1-1.8 1.8zm-.2-7.3v5.6a.2.2 0 0 0 .2.2h5.6a.2.2 0 0 0 .2-.2v-5.6a.2.2 0 0 0-.2-.2h-5.6a.2.2 0 0 0-.2.1zM332.7 199.5a1.8 1.8 0 0 1-1.8-1.8v-5.6a1.8 1.8 0 0 1 1.8-1.8h5.6a1.8 1.8 0 0 1 1.8 1.8v5.6a1.8 1.8 0 0 1-1.8 1.8zm-.2-7.3v5.6a.2.2 0 0 0 .2.2h5.6a.2.2 0 0 0 .2-.2v-5.6a.2.2 0 0 0-.2-.2h-5.6a.2.2 0 0 0-.2.2zM341.5 147.1a.8.8 0 1 1 0-1.5H367a.8.8 0 0 1 0 1.5z"/><path class="cls-12" d="M324.4 160.2l-.5-.2a.8.8 0 0 1-.2-.5V148a2.5 2.5 0 0 1 2.5-2.5h8.6a.8.8 0 0 1 0 1.5h-8.6a1 1 0 0 0-1 1v10.6h58.2V148a1 1 0 0 0-1-1h-8.6a.8.8 0 0 1 0-1.5h8.6a2.5 2.5 0 0 1 2.5 2.5v11.4a.8.8 0 0 1-.2.5l-.5.2zM180.9 131.5V130h56.3a1 1 0 0 0 1-1V83.9h-58.3V129a1 1 0 0 0 1 1v1.5a2.5 2.5 0 0 1-2.5-2.5V83.1a.8.8 0 0 1 .2-.5l.5-.2h59.7l.5.2a.8.8 0 0 1 .2.5V129a2.5 2.5 0 0 1-2.5 2.5zM221 73.4v-6.8a4.2 4.2 0 1 1 8.3 0v6.8a4.2 4.2 0 1 1-8.3 0zm1.5-6.8v6.8a2.7 2.7 0 1 0 5.3 0v-6.8a2.7 2.7 0 1 0-5.3 0zM188.7 73.4v-6.8a4.2 4.2 0 1 1 8.3 0v6.8a4.2 4.2 0 1 1-8.3 0zm1.5 0a2.7 2.7 0 1 0 5.3 0v-6.8a2.7 2.7 0 1 0-5.3 0z"/><path class="cls-12" d="M200 99.1a1.8 1.8 0 0 1-1.8-1.8v-5.5A1.8 1.8 0 0 1 200 90h5.6a1.8 1.8 0 0 1 1.8 1.8v5.6a1.8 1.8 0 0 1-1.8 1.8zm-.2-7.3v5.6a.2.2 0 0 0 .2.2h5.6a.2.2 0 0 0 .2-.2v-5.6a.2.2 0 0 0-.2-.2H200a.2.2 0 0 0-.3.2zM212.5 99.1a1.8 1.8 0 0 1-1.8-1.8v-5.5a1.8 1.8 0 0 1 1.8-1.8h5.6a1.8 1.8 0 0 1 1.8 1.8v5.6a1.8 1.8 0 0 1-1.8 1.8zm-.2-7.3v5.6a.2.2 0 0 0 .2.2h5.6a.2.2 0 0 0 .2-.2v-5.6a.2.2 0 0 0-.2-.2h-5.6a.2.2 0 0 0-.2.2zM225 99.1a1.8 1.8 0 0 1-1.8-1.8v-5.5A1.8 1.8 0 0 1 225 90h5.6a1.8 1.8 0 0 1 1.8 1.8v5.6a1.8 1.8 0 0 1-1.8 1.8zm-.2-7.3v5.6a.2.2 0 0 0 .2.2h5.6a.2.2 0 0 0 .2-.2v-5.6a.2.2 0 0 0-.2-.2H225a.2.2 0 0 0-.2.2zM200 111.2a1.8 1.8 0 0 1-1.8-1.8v-5.6a1.8 1.8 0 0 1 1.8-1.8h5.6a1.8 1.8 0 0 1 1.8 1.8v5.6a1.8 1.8 0 0 1-1.8 1.8zm-.2-7.3v5.6a.2.2 0 0 0 .2.2h5.6a.2.2 0 0 0 .2-.2v-5.6a.2.2 0 0 0-.2-.2H200a.2.2 0 0 0-.3.1zM225 111.2a1.8 1.8 0 0 1-1.8-1.8v-5.6a1.8 1.8 0 0 1 1.8-1.8h5.6a1.8 1.8 0 0 1 1.8 1.8v5.6a1.8 1.8 0 0 1-1.8 1.8zm-.2-7.3v5.6a.2.2 0 0 0 .2.2h5.6a.2.2 0 0 0 .2-.2v-5.6a.2.2 0 0 0-.2-.2H225a.2.2 0 0 0-.2.1zM212.5 111.2a1.8 1.8 0 0 1-1.8-1.8v-5.6a1.8 1.8 0 0 1 1.8-1.8h5.6a1.8 1.8 0 0 1 1.8 1.8v5.6a1.8 1.8 0 0 1-1.8 1.8zm-.2-7.3v5.6a.2.2 0 0 0 .2.2h5.6a.2.2 0 0 0 .2-.2v-5.6a.2.2 0 0 0-.2-.2h-5.6a.2.2 0 0 0-.2.1zM200 123.2a1.8 1.8 0 0 1-1.8-1.8v-5.6a1.8 1.8 0 0 1 1.8-1.8h5.6a1.8 1.8 0 0 1 1.8 1.8v5.6a1.8 1.8 0 0 1-1.8 1.8zm-.2-7.3v5.6a.2.2 0 0 0 .2.2h5.6a.2.2 0 0 0 .2-.2v-5.6a.2.2 0 0 0-.2-.2H200a.2.2 0 0 0-.3.2zM212.5 123.2a1.8 1.8 0 0 1-1.8-1.8v-5.6a1.8 1.8 0 0 1 1.8-1.8h5.6a1.8 1.8 0 0 1 1.8 1.8v5.6a1.8 1.8 0 0 1-1.8 1.8zm-.2-7.3v5.6a.2.2 0 0 0 .2.2h5.6a.2.2 0 0 0 .2-.2v-5.6a.2.2 0 0 0-.2-.2h-5.6a.2.2 0 0 0-.2.2zM187.4 111.2a1.8 1.8 0 0 1-1.8-1.8v-5.6a1.8 1.8 0 0 1 1.8-1.8h5.6a1.8 1.8 0 0 1 1.8 1.8v5.6a1.8 1.8 0 0 1-1.8 1.8zm-.2-7.3v5.6a.2.2 0 0 0 .2.2h5.6a.2.2 0 0 0 .2-.2v-5.6a.2.2 0 0 0-.2-.2h-5.6a.2.2 0 0 0-.2.1zM187.4 123.2a1.8 1.8 0 0 1-1.8-1.8v-5.6a1.8 1.8 0 0 1 1.8-1.8h5.6a1.8 1.8 0 0 1 1.8 1.8v5.6a1.8 1.8 0 0 1-1.8 1.8zm-.2-7.3v5.6a.2.2 0 0 0 .2.2h5.6a.2.2 0 0 0 .2-.2v-5.6a.2.2 0 0 0-.2-.2h-5.6a.2.2 0 0 0-.2.2zM196.3 70.8a.8.8 0 1 1 0-1.5h25.5a.8.8 0 0 1 0 1.5z"/><path class="cls-12" d="M179.1 83.9l-.5-.2a.8.8 0 0 1-.2-.5V71.7a2.5 2.5 0 0 1 2.5-2.5h8.6a.8.8 0 0 1 0 1.5h-8.6a1 1 0 0 0-1 1v10.6h58.2V71.7a1 1 0 0 0-1-1h-8.6a.8.8 0 0 1 0-1.5h8.6a2.5 2.5 0 0 1 2.5 2.5v11.4a.8.8 0 0 1-.2.5l-.5.2zM253.5 131.5V130h56.3a1 1 0 0 0 1-1V83.9h-58.3V129a1 1 0 0 0 1 1v1.5a2.5 2.5 0 0 1-2.5-2.5V83.1a.8.8 0 0 1 .2-.5l.5-.2h59.7l.5.2a.8.8 0 0 1 .2.5V129a2.5 2.5 0 0 1-2.5 2.5zM293.6 73.4v-6.8a4.2 4.2 0 1 1 8.3 0v6.8a4.2 4.2 0 1 1-8.3 0zm1.5-6.8v6.8a2.7 2.7 0 1 0 5.3 0v-6.8a2.7 2.7 0 1 0-5.3 0zM261.3 73.4v-6.8a4.2 4.2 0 1 1 8.3 0v6.8a4.2 4.2 0 1 1-8.3 0zm1.5 0a2.7 2.7 0 1 0 5.3 0v-6.8a2.7 2.7 0 1 0-5.3 0z"/><path class="cls-12" d="M272.6 99.1a1.8 1.8 0 0 1-1.8-1.8v-5.5a1.8 1.8 0 0 1 1.8-1.8h5.6a1.8 1.8 0 0 1 1.8 1.8v5.6a1.8 1.8 0 0 1-1.8 1.8zm-.2-7.3v5.6a.2.2 0 0 0 .2.2h5.6a.2.2 0 0 0 .2-.2v-5.6a.2.2 0 0 0-.2-.2h-5.6a.2.2 0 0 0-.2.2zM285.1 99.1a1.8 1.8 0 0 1-1.8-1.8v-5.5a1.8 1.8 0 0 1 1.8-1.8h5.6a1.8 1.8 0 0 1 1.8 1.8v5.6a1.8 1.8 0 0 1-1.8 1.8zm-.2-7.3v5.6a.2.2 0 0 0 .2.2h5.6a.2.2 0 0 0 .2-.2v-5.6a.2.2 0 0 0-.2-.2h-5.6a.2.2 0 0 0-.2.2zM297.6 99.1a1.8 1.8 0 0 1-1.8-1.8v-5.5a1.8 1.8 0 0 1 1.8-1.8h5.6a1.8 1.8 0 0 1 1.8 1.8v5.6a1.8 1.8 0 0 1-1.8 1.8zm-.2-7.3v5.6a.2.2 0 0 0 .2.2h5.6a.2.2 0 0 0 .2-.2v-5.6a.2.2 0 0 0-.2-.2h-5.6a.2.2 0 0 0-.2.2zM272.6 111.2a1.8 1.8 0 0 1-1.8-1.8v-5.6a1.8 1.8 0 0 1 1.8-1.8h5.6a1.8 1.8 0 0 1 1.8 1.8v5.6a1.8 1.8 0 0 1-1.8 1.8zm-.2-7.3v5.6a.2.2 0 0 0 .2.2h5.6a.2.2 0 0 0 .2-.2v-5.6a.2.2 0 0 0-.2-.2h-5.6a.2.2 0 0 0-.2.1zM297.6 111.2a1.8 1.8 0 0 1-1.8-1.8v-5.6a1.8 1.8 0 0 1 1.8-1.8h5.6a1.8 1.8 0 0 1 1.8 1.8v5.6a1.8 1.8 0 0 1-1.8 1.8zm-.2-7.3v5.6a.2.2 0 0 0 .2.2h5.6a.2.2 0 0 0 .2-.2v-5.6a.2.2 0 0 0-.2-.2h-5.6a.2.2 0 0 0-.2.1zM285.1 111.2a1.8 1.8 0 0 1-1.8-1.8v-5.6a1.8 1.8 0 0 1 1.8-1.8h5.6a1.8 1.8 0 0 1 1.8 1.8v5.6a1.8 1.8 0 0 1-1.8 1.8zm-.2-7.3v5.6a.2.2 0 0 0 .2.2h5.6a.2.2 0 0 0 .2-.2v-5.6a.2.2 0 0 0-.2-.2h-5.6a.2.2 0 0 0-.2.1zM272.6 123.2a1.8 1.8 0 0 1-1.8-1.8v-5.6a1.8 1.8 0 0 1 1.8-1.8h5.6a1.8 1.8 0 0 1 1.8 1.8v5.6a1.8 1.8 0 0 1-1.8 1.8zm-.2-7.3v5.6a.2.2 0 0 0 .2.2h5.6a.2.2 0 0 0 .2-.2v-5.6a.2.2 0 0 0-.2-.2h-5.6a.2.2 0 0 0-.2.2zM285.1 123.2a1.8 1.8 0 0 1-1.8-1.8v-5.6a1.8 1.8 0 0 1 1.8-1.8h5.6a1.8 1.8 0 0 1 1.8 1.8v5.6a1.8 1.8 0 0 1-1.8 1.8zm-.2-7.3v5.6a.2.2 0 0 0 .2.2h5.6a.2.2 0 0 0 .2-.2v-5.6a.2.2 0 0 0-.2-.2h-5.6a.2.2 0 0 0-.2.2zM260.1 111.2a1.8 1.8 0 0 1-1.8-1.8v-5.6a1.8 1.8 0 0 1 1.8-1.8h5.6a1.8 1.8 0 0 1 1.8 1.8v5.6a1.8 1.8 0 0 1-1.8 1.8zm-.2-7.3v5.6a.2.2 0 0 0 .2.2h5.6a.2.2 0 0 0 .2-.2v-5.6a.2.2 0 0 0-.2-.2h-5.6a.2.2 0 0 0-.3.1zM260.1 123.2a1.8 1.8 0 0 1-1.8-1.8v-5.6a1.8 1.8 0 0 1 1.8-1.8h5.6a1.8 1.8 0 0 1 1.8 1.8v5.6a1.8 1.8 0 0 1-1.8 1.8zm-.2-7.3v5.6a.2.2 0 0 0 .2.2h5.6a.2.2 0 0 0 .2-.2v-5.6a.2.2 0 0 0-.2-.2h-5.6a.2.2 0 0 0-.3.2zM268.9 70.8a.8.8 0 1 1 0-1.5h25.5a.8.8 0 0 1 0 1.5z"/><path class="cls-12" d="M251.8 83.9l-.5-.2a.8.8 0 0 1-.2-.5V71.7a2.5 2.5 0 0 1 2.5-2.5h8.6a.8.8 0 0 1 0 1.5h-8.6a1 1 0 0 0-1 1v10.6h58.2V71.7a1 1 0 0 0-1-1h-8.6a.8.8 0 0 1 0-1.5h8.6a2.5 2.5 0 0 1 2.5 2.5v11.4a.8.8 0 0 1-.2.5l-.5.2zM326.1 131.5V130h56.3a1 1 0 0 0 1-1V83.9h-58.3V129a1 1 0 0 0 1 1v1.5a2.5 2.5 0 0 1-2.5-2.5V83.1a.8.8 0 0 1 .2-.5l.5-.2H384l.5.2a.8.8 0 0 1 .2.5V129a2.5 2.5 0 0 1-2.5 2.5zM366.2 73.4v-6.8a4.2 4.2 0 1 1 8.3 0v6.8a4.2 4.2 0 1 1-8.3 0zm1.5-6.8v6.8a2.7 2.7 0 1 0 5.3 0v-6.8a2.7 2.7 0 1 0-5.3 0zM333.9 73.4v-6.8a4.2 4.2 0 1 1 8.3 0v6.8a4.2 4.2 0 1 1-8.3 0zm1.5 0a2.7 2.7 0 1 0 5.3 0v-6.8a2.7 2.7 0 1 0-5.3 0z"/><path class="cls-12" d="M345.2 99.1a1.8 1.8 0 0 1-1.8-1.8v-5.5a1.8 1.8 0 0 1 1.8-1.8h5.6a1.8 1.8 0 0 1 1.8 1.8v5.6a1.8 1.8 0 0 1-1.8 1.8zm-.2-7.3v5.6a.2.2 0 0 0 .2.2h5.6a.2.2 0 0 0 .2-.2v-5.6a.2.2 0 0 0-.2-.2h-5.6a.2.2 0 0 0-.2.2zM357.7 99.1a1.8 1.8 0 0 1-1.8-1.8v-5.5a1.8 1.8 0 0 1 1.8-1.8h5.6a1.8 1.8 0 0 1 1.8 1.8v5.6a1.8 1.8 0 0 1-1.8 1.8zm-.2-7.3v5.6a.2.2 0 0 0 .2.2h5.6a.2.2 0 0 0 .2-.2v-5.6a.2.2 0 0 0-.2-.2h-5.6a.2.2 0 0 0-.2.2zM370.2 99.1a1.8 1.8 0 0 1-1.8-1.8v-5.5a1.8 1.8 0 0 1 1.8-1.8h5.6a1.8 1.8 0 0 1 1.8 1.8v5.6a1.8 1.8 0 0 1-1.8 1.8zm-.2-7.3v5.6a.2.2 0 0 0 .2.2h5.6a.2.2 0 0 0 .2-.2v-5.6a.2.2 0 0 0-.2-.2h-5.6a.2.2 0 0 0-.2.2zM345.2 111.2a1.8 1.8 0 0 1-1.8-1.8v-5.6a1.8 1.8 0 0 1 1.8-1.8h5.6a1.8 1.8 0 0 1 1.8 1.8v5.6a1.8 1.8 0 0 1-1.8 1.8zm-.2-7.3v5.6a.2.2 0 0 0 .2.2h5.6a.2.2 0 0 0 .2-.2v-5.6a.2.2 0 0 0-.2-.2h-5.6a.2.2 0 0 0-.2.1zM370.2 111.2a1.8 1.8 0 0 1-1.8-1.8v-5.6a1.8 1.8 0 0 1 1.8-1.8h5.6a1.8 1.8 0 0 1 1.8 1.8v5.6a1.8 1.8 0 0 1-1.8 1.8zm-.2-7.3v5.6a.2.2 0 0 0 .2.2h5.6a.2.2 0 0 0 .2-.2v-5.6a.2.2 0 0 0-.2-.2h-5.6a.2.2 0 0 0-.2.1zM357.7 111.2a1.8 1.8 0 0 1-1.8-1.8v-5.6a1.8 1.8 0 0 1 1.8-1.8h5.6a1.8 1.8 0 0 1 1.8 1.8v5.6a1.8 1.8 0 0 1-1.8 1.8zm-.2-7.3v5.6a.2.2 0 0 0 .2.2h5.6a.2.2 0 0 0 .2-.2v-5.6a.2.2 0 0 0-.2-.2h-5.6a.2.2 0 0 0-.2.1zM345.2 123.2a1.8 1.8 0 0 1-1.8-1.8v-5.6a1.8 1.8 0 0 1 1.8-1.8h5.6a1.8 1.8 0 0 1 1.8 1.8v5.6a1.8 1.8 0 0 1-1.8 1.8zm-.2-7.3v5.6a.2.2 0 0 0 .2.2h5.6a.2.2 0 0 0 .2-.2v-5.6a.2.2 0 0 0-.2-.2h-5.6a.2.2 0 0 0-.2.2zM357.7 123.2a1.8 1.8 0 0 1-1.8-1.8v-5.6a1.8 1.8 0 0 1 1.8-1.8h5.6a1.8 1.8 0 0 1 1.8 1.8v5.6a1.8 1.8 0 0 1-1.8 1.8zm-.2-7.3v5.6a.2.2 0 0 0 .2.2h5.6a.2.2 0 0 0 .2-.2v-5.6a.2.2 0 0 0-.2-.2h-5.6a.2.2 0 0 0-.2.2zM332.7 111.2a1.8 1.8 0 0 1-1.8-1.8v-5.6a1.8 1.8 0 0 1 1.8-1.8h5.6a1.8 1.8 0 0 1 1.8 1.8v5.6a1.8 1.8 0 0 1-1.8 1.8zm-.2-7.3v5.6a.2.2 0 0 0 .2.2h5.6a.2.2 0 0 0 .2-.2v-5.6a.2.2 0 0 0-.2-.2h-5.6a.2.2 0 0 0-.2.1zM332.7 123.2a1.8 1.8 0 0 1-1.8-1.8v-5.6a1.8 1.8 0 0 1 1.8-1.8h5.6a1.8 1.8 0 0 1 1.8 1.8v5.6a1.8 1.8 0 0 1-1.8 1.8zm-.2-7.3v5.6a.2.2 0 0 0 .2.2h5.6a.2.2 0 0 0 .2-.2v-5.6a.2.2 0 0 0-.2-.2h-5.6a.2.2 0 0 0-.2.2zM341.5 70.8a.8.8 0 1 1 0-1.5H367a.8.8 0 0 1 0 1.5z"/><path class="cls-12" d="M324.4 83.9l-.5-.2a.8.8 0 0 1-.2-.5V71.7a2.5 2.5 0 0 1 2.5-2.5h8.6a.8.8 0 0 1 0 1.5h-8.6a1 1 0 0 0-1 1v10.6h58.2V71.7a1 1 0 0 0-1-1h-8.6a.8.8 0 0 1 0-1.5h8.6a2.5 2.5 0 0 1 2.5 2.5v11.4a.8.8 0 0 1-.2.5l-.5.2zM180.9 362.5V361h56.3a1 1 0 0 0 1-1v-45.1h-58.3V360a1 1 0 0 0 1 1v1.5a2.5 2.5 0 0 1-2.5-2.5v-45.9a.8.8 0 0 1 .2-.5l.5-.2h59.7l.5.2a.8.8 0 0 1 .2.5V360a2.5 2.5 0 0 1-2.5 2.5zM221 304.4v-6.8a4.2 4.2 0 1 1 8.3 0v6.8a4.2 4.2 0 1 1-8.3 0zm1.5-6.8v6.8a2.7 2.7 0 1 0 5.3 0v-6.8a2.7 2.7 0 1 0-5.3 0zM188.7 304.4v-6.8a4.2 4.2 0 1 1 8.3 0v6.8a4.2 4.2 0 1 1-8.3 0zm1.5 0a2.7 2.7 0 1 0 5.3 0v-6.8a2.7 2.7 0 1 0-5.3 0z"/><path class="cls-12" d="M200 330.1a1.8 1.8 0 0 1-1.8-1.8v-5.6a1.8 1.8 0 0 1 1.8-1.7h5.6a1.8 1.8 0 0 1 1.8 1.8v5.6a1.8 1.8 0 0 1-1.8 1.8zm-.2-7.3v5.6a.2.2 0 0 0 .2.2h5.6a.2.2 0 0 0 .2-.2v-5.6a.2.2 0 0 0-.2-.2H200a.2.2 0 0 0-.3.2zM212.5 330.1a1.8 1.8 0 0 1-1.8-1.8v-5.6a1.8 1.8 0 0 1 1.8-1.8h5.6a1.8 1.8 0 0 1 1.8 1.8v5.6a1.8 1.8 0 0 1-1.8 1.8zm-.2-7.3v5.6a.2.2 0 0 0 .2.2h5.6a.2.2 0 0 0 .2-.2v-5.6a.2.2 0 0 0-.2-.2h-5.6a.2.2 0 0 0-.2.2zM225 330.1a1.8 1.8 0 0 1-1.8-1.8v-5.6a1.8 1.8 0 0 1 1.8-1.7h5.6a1.8 1.8 0 0 1 1.8 1.8v5.6a1.8 1.8 0 0 1-1.8 1.8zm-.2-7.3v5.6a.2.2 0 0 0 .2.2h5.6a.2.2 0 0 0 .2-.2v-5.6a.2.2 0 0 0-.2-.2H225a.2.2 0 0 0-.2.2zM200 342.2a1.8 1.8 0 0 1-1.8-1.8v-5.6a1.8 1.8 0 0 1 1.8-1.8h5.6a1.8 1.8 0 0 1 1.8 1.8v5.6a1.8 1.8 0 0 1-1.8 1.8zm-.2-7.3v5.6a.2.2 0 0 0 .2.2h5.6a.2.2 0 0 0 .2-.2v-5.6a.2.2 0 0 0-.2-.2H200a.2.2 0 0 0-.3.1zM225 342.2a1.8 1.8 0 0 1-1.8-1.8v-5.6a1.8 1.8 0 0 1 1.8-1.8h5.6a1.8 1.8 0 0 1 1.8 1.8v5.6a1.8 1.8 0 0 1-1.8 1.8zm-.2-7.3v5.6a.2.2 0 0 0 .2.2h5.6a.2.2 0 0 0 .2-.2v-5.6a.2.2 0 0 0-.2-.2H225a.2.2 0 0 0-.2.1zM212.5 342.2a1.8 1.8 0 0 1-1.8-1.8v-5.6a1.8 1.8 0 0 1 1.8-1.8h5.6a1.8 1.8 0 0 1 1.8 1.8v5.6a1.8 1.8 0 0 1-1.8 1.8zm-.2-7.3v5.6a.2.2 0 0 0 .2.2h5.6a.2.2 0 0 0 .2-.2v-5.6a.2.2 0 0 0-.2-.2h-5.6a.2.2 0 0 0-.2.1zM200 354.2a1.8 1.8 0 0 1-1.8-1.8v-5.6a1.8 1.8 0 0 1 1.8-1.8h5.6a1.8 1.8 0 0 1 1.8 1.8v5.6a1.8 1.8 0 0 1-1.8 1.8zm-.2-7.3v5.6a.2.2 0 0 0 .2.2h5.6a.2.2 0 0 0 .2-.2v-5.6a.2.2 0 0 0-.2-.2H200a.2.2 0 0 0-.3.2zM212.5 354.2a1.8 1.8 0 0 1-1.8-1.8v-5.6a1.8 1.8 0 0 1 1.8-1.8h5.6a1.8 1.8 0 0 1 1.8 1.8v5.6a1.8 1.8 0 0 1-1.8 1.8zm-.2-7.3v5.6a.2.2 0 0 0 .2.2h5.6a.2.2 0 0 0 .2-.2v-5.6a.2.2 0 0 0-.2-.2h-5.6a.2.2 0 0 0-.2.2zM187.4 342.2a1.8 1.8 0 0 1-1.8-1.8v-5.6a1.8 1.8 0 0 1 1.8-1.8h5.6a1.8 1.8 0 0 1 1.8 1.8v5.6a1.8 1.8 0 0 1-1.8 1.8zm-.2-7.3v5.6a.2.2 0 0 0 .2.2h5.6a.2.2 0 0 0 .2-.2v-5.6a.2.2 0 0 0-.2-.2h-5.6a.2.2 0 0 0-.2.1zM187.4 354.2a1.8 1.8 0 0 1-1.8-1.8v-5.6a1.8 1.8 0 0 1 1.8-1.8h5.6a1.8 1.8 0 0 1 1.8 1.8v5.6a1.8 1.8 0 0 1-1.8 1.8zm-.2-7.3v5.6a.2.2 0 0 0 .2.2h5.6a.2.2 0 0 0 .2-.2v-5.6a.2.2 0 0 0-.2-.2h-5.6a.2.2 0 0 0-.2.2zM196.3 301.8a.8.8 0 1 1 0-1.5h25.5a.8.8 0 0 1 0 1.5z"/><path class="cls-12" d="M179.1 314.9l-.5-.2a.8.8 0 0 1-.2-.5v-11.5a2.5 2.5 0 0 1 2.5-2.5h8.6a.8.8 0 0 1 0 1.5h-8.6a1 1 0 0 0-1 1v10.6h58.2v-10.6a1 1 0 0 0-1-1h-8.6a.8.8 0 0 1 0-1.5h8.6a2.5 2.5 0 0 1 2.5 2.5v11.4a.8.8 0 0 1-.2.5l-.5.2zM253.5 362.5V361h56.3a1 1 0 0 0 1-1v-45.1h-58.3V360a1 1 0 0 0 1 1v1.5a2.5 2.5 0 0 1-2.5-2.5v-45.9a.8.8 0 0 1 .2-.5l.5-.2h59.7l.5.2a.8.8 0 0 1 .2.5V360a2.5 2.5 0 0 1-2.5 2.5zM293.6 304.4v-6.8a4.2 4.2 0 1 1 8.3 0v6.8a4.2 4.2 0 1 1-8.3 0zm1.5-6.8v6.8a2.7 2.7 0 1 0 5.3 0v-6.8a2.7 2.7 0 1 0-5.3 0zM261.3 304.4v-6.8a4.2 4.2 0 1 1 8.3 0v6.8a4.2 4.2 0 1 1-8.3 0zm1.5 0a2.7 2.7 0 1 0 5.3 0v-6.8a2.7 2.7 0 1 0-5.3 0z"/><path class="cls-12" d="M272.6 330.1a1.8 1.8 0 0 1-1.8-1.8v-5.6a1.8 1.8 0 0 1 1.8-1.8h5.6a1.8 1.8 0 0 1 1.8 1.8v5.6a1.8 1.8 0 0 1-1.8 1.8zm-.2-7.3v5.6a.2.2 0 0 0 .2.2h5.6a.2.2 0 0 0 .2-.2v-5.6a.2.2 0 0 0-.2-.2h-5.6a.2.2 0 0 0-.2.2zM285.1 330.1a1.8 1.8 0 0 1-1.8-1.8v-5.6a1.8 1.8 0 0 1 1.8-1.8h5.6a1.8 1.8 0 0 1 1.8 1.8v5.6a1.8 1.8 0 0 1-1.8 1.8zm-.2-7.3v5.6a.2.2 0 0 0 .2.2h5.6a.2.2 0 0 0 .2-.2v-5.6a.2.2 0 0 0-.2-.2h-5.6a.2.2 0 0 0-.2.2zM297.6 330.1a1.8 1.8 0 0 1-1.8-1.8v-5.6a1.8 1.8 0 0 1 1.8-1.8h5.6a1.8 1.8 0 0 1 1.8 1.8v5.6a1.8 1.8 0 0 1-1.8 1.8zm-.2-7.3v5.6a.2.2 0 0 0 .2.2h5.6a.2.2 0 0 0 .2-.2v-5.6a.2.2 0 0 0-.2-.2h-5.6a.2.2 0 0 0-.2.2zM272.6 342.2a1.8 1.8 0 0 1-1.8-1.8v-5.6a1.8 1.8 0 0 1 1.8-1.8h5.6a1.8 1.8 0 0 1 1.8 1.8v5.6a1.8 1.8 0 0 1-1.8 1.8zm-.2-7.3v5.6a.2.2 0 0 0 .2.2h5.6a.2.2 0 0 0 .2-.2v-5.6a.2.2 0 0 0-.2-.2h-5.6a.2.2 0 0 0-.2.1zM297.6 342.2a1.8 1.8 0 0 1-1.8-1.8v-5.6a1.8 1.8 0 0 1 1.8-1.8h5.6a1.8 1.8 0 0 1 1.8 1.8v5.6a1.8 1.8 0 0 1-1.8 1.8zm-.2-7.3v5.6a.2.2 0 0 0 .2.2h5.6a.2.2 0 0 0 .2-.2v-5.6a.2.2 0 0 0-.2-.2h-5.6a.2.2 0 0 0-.2.1zM285.1 342.2a1.8 1.8 0 0 1-1.8-1.8v-5.6a1.8 1.8 0 0 1 1.8-1.8h5.6a1.8 1.8 0 0 1 1.8 1.8v5.6a1.8 1.8 0 0 1-1.8 1.8zm-.2-7.3v5.6a.2.2 0 0 0 .2.2h5.6a.2.2 0 0 0 .2-.2v-5.6a.2.2 0 0 0-.2-.2h-5.6a.2.2 0 0 0-.2.1zM272.6 354.2a1.8 1.8 0 0 1-1.8-1.8v-5.6a1.8 1.8 0 0 1 1.8-1.8h5.6a1.8 1.8 0 0 1 1.8 1.8v5.6a1.8 1.8 0 0 1-1.8 1.8zm-.2-7.3v5.6a.2.2 0 0 0 .2.2h5.6a.2.2 0 0 0 .2-.2v-5.6a.2.2 0 0 0-.2-.2h-5.6a.2.2 0 0 0-.2.2zM285.1 354.2a1.8 1.8 0 0 1-1.8-1.8v-5.6a1.8 1.8 0 0 1 1.8-1.8h5.6a1.8 1.8 0 0 1 1.8 1.8v5.6a1.8 1.8 0 0 1-1.8 1.8zm-.2-7.3v5.6a.2.2 0 0 0 .2.2h5.6a.2.2 0 0 0 .2-.2v-5.6a.2.2 0 0 0-.2-.2h-5.6a.2.2 0 0 0-.2.2zM260.1 342.2a1.8 1.8 0 0 1-1.8-1.8v-5.6a1.8 1.8 0 0 1 1.8-1.8h5.6a1.8 1.8 0 0 1 1.8 1.8v5.6a1.8 1.8 0 0 1-1.8 1.8zm-.2-7.3v5.6a.2.2 0 0 0 .2.2h5.6a.2.2 0 0 0 .2-.2v-5.6a.2.2 0 0 0-.2-.2h-5.6a.2.2 0 0 0-.3.1zM260.1 354.2a1.8 1.8 0 0 1-1.8-1.8v-5.6a1.8 1.8 0 0 1 1.8-1.8h5.6a1.8 1.8 0 0 1 1.8 1.8v5.6a1.8 1.8 0 0 1-1.8 1.8zm-.2-7.3v5.6a.2.2 0 0 0 .2.2h5.6a.2.2 0 0 0 .2-.2v-5.6a.2.2 0 0 0-.2-.2h-5.6a.2.2 0 0 0-.3.2zM268.9 301.8a.8.8 0 1 1 0-1.5h25.5a.8.8 0 0 1 0 1.5z"/><path class="cls-12" d="M251.8 314.9l-.5-.2a.8.8 0 0 1-.2-.5v-11.5a2.5 2.5 0 0 1 2.5-2.5h8.6a.8.8 0 0 1 0 1.5h-8.6a1 1 0 0 0-1 1v10.6h58.2v-10.6a1 1 0 0 0-1-1h-8.6a.8.8 0 0 1 0-1.5h8.6a2.5 2.5 0 0 1 2.5 2.5v11.4a.8.8 0 0 1-.2.5l-.5.2zM326.1 362.5V361h56.3a1 1 0 0 0 1-1v-45.1h-58.3V360a1 1 0 0 0 1 1v1.5a2.5 2.5 0 0 1-2.5-2.5v-45.9a.8.8 0 0 1 .2-.5l.5-.2H384l.5.2a.8.8 0 0 1 .2.5V360a2.5 2.5 0 0 1-2.5 2.5zM366.2 304.4v-6.8a4.2 4.2 0 1 1 8.3 0v6.8a4.2 4.2 0 1 1-8.3 0zm1.5-6.8v6.8a2.7 2.7 0 1 0 5.3 0v-6.8a2.7 2.7 0 1 0-5.3 0zM333.9 304.4v-6.8a4.2 4.2 0 1 1 8.3 0v6.8a4.2 4.2 0 1 1-8.3 0zm1.5 0a2.7 2.7 0 1 0 5.3 0v-6.8a2.7 2.7 0 1 0-5.3 0z"/><path class="cls-12" d="M345.2 330.1a1.8 1.8 0 0 1-1.8-1.8v-5.6a1.8 1.8 0 0 1 1.8-1.8h5.6a1.8 1.8 0 0 1 1.8 1.8v5.6a1.8 1.8 0 0 1-1.8 1.8zm-.2-7.3v5.6a.2.2 0 0 0 .2.2h5.6a.2.2 0 0 0 .2-.2v-5.6a.2.2 0 0 0-.2-.2h-5.6a.2.2 0 0 0-.2.2zM357.7 330.1a1.8 1.8 0 0 1-1.8-1.8v-5.6a1.8 1.8 0 0 1 1.8-1.8h5.6a1.8 1.8 0 0 1 1.8 1.8v5.6a1.8 1.8 0 0 1-1.8 1.8zm-.2-7.3v5.6a.2.2 0 0 0 .2.2h5.6a.2.2 0 0 0 .2-.2v-5.6a.2.2 0 0 0-.2-.2h-5.6a.2.2 0 0 0-.2.2zM370.2 330.1a1.8 1.8 0 0 1-1.8-1.8v-5.6a1.8 1.8 0 0 1 1.8-1.8h5.6a1.8 1.8 0 0 1 1.8 1.8v5.6a1.8 1.8 0 0 1-1.8 1.8zm-.2-7.3v5.6a.2.2 0 0 0 .2.2h5.6a.2.2 0 0 0 .2-.2v-5.6a.2.2 0 0 0-.2-.2h-5.6a.2.2 0 0 0-.2.2zM345.2 342.2a1.8 1.8 0 0 1-1.8-1.8v-5.6a1.8 1.8 0 0 1 1.8-1.8h5.6a1.8 1.8 0 0 1 1.8 1.8v5.6a1.8 1.8 0 0 1-1.8 1.8zm-.2-7.3v5.6a.2.2 0 0 0 .2.2h5.6a.2.2 0 0 0 .2-.2v-5.6a.2.2 0 0 0-.2-.2h-5.6a.2.2 0 0 0-.2.1zM370.2 342.2a1.8 1.8 0 0 1-1.8-1.8v-5.6a1.8 1.8 0 0 1 1.8-1.8h5.6a1.8 1.8 0 0 1 1.8 1.8v5.6a1.8 1.8 0 0 1-1.8 1.8zm-.2-7.3v5.6a.2.2 0 0 0 .2.2h5.6a.2.2 0 0 0 .2-.2v-5.6a.2.2 0 0 0-.2-.2h-5.6a.2.2 0 0 0-.2.1zM357.7 342.2a1.8 1.8 0 0 1-1.8-1.8v-5.6a1.8 1.8 0 0 1 1.8-1.8h5.6a1.8 1.8 0 0 1 1.8 1.8v5.6a1.8 1.8 0 0 1-1.8 1.8zm-.2-7.3v5.6a.2.2 0 0 0 .2.2h5.6a.2.2 0 0 0 .2-.2v-5.6a.2.2 0 0 0-.2-.2h-5.6a.2.2 0 0 0-.2.1zM345.2 354.2a1.8 1.8 0 0 1-1.8-1.8v-5.6a1.8 1.8 0 0 1 1.8-1.8h5.6a1.8 1.8 0 0 1 1.8 1.8v5.6a1.8 1.8 0 0 1-1.8 1.8zm-.2-7.3v5.6a.2.2 0 0 0 .2.2h5.6a.2.2 0 0 0 .2-.2v-5.6a.2.2 0 0 0-.2-.2h-5.6a.2.2 0 0 0-.2.2zM357.7 354.2a1.8 1.8 0 0 1-1.8-1.8v-5.6a1.8 1.8 0 0 1 1.8-1.8h5.6a1.8 1.8 0 0 1 1.8 1.8v5.6a1.8 1.8 0 0 1-1.8 1.8zm-.2-7.3v5.6a.2.2 0 0 0 .2.2h5.6a.2.2 0 0 0 .2-.2v-5.6a.2.2 0 0 0-.2-.2h-5.6a.2.2 0 0 0-.2.2zM332.7 342.2a1.8 1.8 0 0 1-1.8-1.8v-5.6a1.8 1.8 0 0 1 1.8-1.8h5.6a1.8 1.8 0 0 1 1.8 1.8v5.6a1.8 1.8 0 0 1-1.8 1.8zm-.2-7.3v5.6a.2.2 0 0 0 .2.2h5.6a.2.2 0 0 0 .2-.2v-5.6a.2.2 0 0 0-.2-.2h-5.6a.2.2 0 0 0-.2.1zM332.7 354.2a1.8 1.8 0 0 1-1.8-1.8v-5.6a1.8 1.8 0 0 1 1.8-1.8h5.6a1.8 1.8 0 0 1 1.8 1.8v5.6a1.8 1.8 0 0 1-1.8 1.8zm-.2-7.3v5.6a.2.2 0 0 0 .2.2h5.6a.2.2 0 0 0 .2-.2v-5.6a.2.2 0 0 0-.2-.2h-5.6a.2.2 0 0 0-.2.2zM341.5 301.8a.8.8 0 1 1 0-1.5H367a.8.8 0 0 1 0 1.5z"/><path class="cls-12" d="M324.4 314.9l-.5-.2a.8.8 0 0 1-.2-.5v-11.5a2.5 2.5 0 0 1 2.5-2.5h8.6a.8.8 0 0 1 0 1.5h-8.6a1 1 0 0 0-1 1v10.6h58.2v-10.6a1 1 0 0 0-1-1h-8.6a.8.8 0 0 1 0-1.5h8.6a2.5 2.5 0 0 1 2.5 2.5v11.4a.8.8 0 0 1-.2.5l-.5.2zM180.9 286.2v-1.5h56.3a1 1 0 0 0 1-1v-45.1h-58.3v45.1a1 1 0 0 0 1 1v1.5a2.5 2.5 0 0 1-2.5-2.5v-45.9a.8.8 0 0 1 .2-.5l.5-.2h59.7l.5.2a.8.8 0 0 1 .2.5v45.9a2.5 2.5 0 0 1-2.5 2.5zM221 228.1v-6.8a4.2 4.2 0 1 1 8.3 0v6.8a4.2 4.2 0 1 1-8.3 0zm1.5-6.8v6.8a2.7 2.7 0 1 0 5.3 0v-6.8a2.7 2.7 0 1 0-5.3 0zM188.7 228.1v-6.8a4.2 4.2 0 1 1 8.3 0v6.8a4.2 4.2 0 1 1-8.3 0zm1.5 0a2.7 2.7 0 1 0 5.3 0v-6.8a2.7 2.7 0 1 0-5.3 0z"/><path class="cls-12" d="M200 253.8a1.8 1.8 0 0 1-1.8-1.8v-5.6a1.8 1.8 0 0 1 1.8-1.8h5.6a1.8 1.8 0 0 1 1.8 1.8v5.6a1.8 1.8 0 0 1-1.8 1.8zm-.2-7.3v5.6a.2.2 0 0 0 .2.2h5.6a.2.2 0 0 0 .2-.2v-5.6a.2.2 0 0 0-.2-.2H200a.2.2 0 0 0-.3.2zM212.5 253.8a1.8 1.8 0 0 1-1.8-1.8v-5.6a1.8 1.8 0 0 1 1.8-1.8h5.6a1.8 1.8 0 0 1 1.8 1.8v5.6a1.8 1.8 0 0 1-1.8 1.8zm-.2-7.3v5.6a.2.2 0 0 0 .2.2h5.6a.2.2 0 0 0 .2-.2v-5.6a.2.2 0 0 0-.2-.2h-5.6a.2.2 0 0 0-.2.2zM225 253.8a1.8 1.8 0 0 1-1.8-1.8v-5.6a1.8 1.8 0 0 1 1.8-1.8h5.6a1.8 1.8 0 0 1 1.8 1.8v5.6a1.8 1.8 0 0 1-1.8 1.8zm-.2-7.3v5.6a.2.2 0 0 0 .2.2h5.6a.2.2 0 0 0 .2-.2v-5.6a.2.2 0 0 0-.2-.2H225a.2.2 0 0 0-.2.2zM200 265.9a1.8 1.8 0 0 1-1.8-1.8v-5.6a1.8 1.8 0 0 1 1.8-1.8h5.6a1.8 1.8 0 0 1 1.8 1.8v5.6a1.8 1.8 0 0 1-1.8 1.8zm-.2-7.3v5.6a.2.2 0 0 0 .2.2h5.6a.2.2 0 0 0 .2-.2v-5.6a.2.2 0 0 0-.2-.2H200a.2.2 0 0 0-.3.1zM225 265.9a1.8 1.8 0 0 1-1.8-1.8v-5.6a1.8 1.8 0 0 1 1.8-1.8h5.6a1.8 1.8 0 0 1 1.8 1.8v5.6a1.8 1.8 0 0 1-1.8 1.8zm-.2-7.3v5.6a.2.2 0 0 0 .2.2h5.6a.2.2 0 0 0 .2-.2v-5.6a.2.2 0 0 0-.2-.2H225a.2.2 0 0 0-.2.1zM212.5 265.9a1.8 1.8 0 0 1-1.8-1.8v-5.6a1.8 1.8 0 0 1 1.8-1.8h5.6a1.8 1.8 0 0 1 1.8 1.8v5.6a1.8 1.8 0 0 1-1.8 1.8zm-.2-7.3v5.6a.2.2 0 0 0 .2.2h5.6a.2.2 0 0 0 .2-.2v-5.6a.2.2 0 0 0-.2-.2h-5.6a.2.2 0 0 0-.2.1zM200 277.9a1.8 1.8 0 0 1-1.8-1.8v-5.6a1.8 1.8 0 0 1 1.8-1.8h5.6a1.8 1.8 0 0 1 1.8 1.8v5.6a1.8 1.8 0 0 1-1.8 1.8zm-.2-7.3v5.6a.2.2 0 0 0 .2.2h5.6a.2.2 0 0 0 .2-.2v-5.6a.2.2 0 0 0-.2-.2H200a.2.2 0 0 0-.3.2zM212.5 277.9a1.8 1.8 0 0 1-1.8-1.8v-5.6a1.8 1.8 0 0 1 1.8-1.8h5.6a1.8 1.8 0 0 1 1.8 1.8v5.6a1.8 1.8 0 0 1-1.8 1.8zm-.2-7.3v5.6a.2.2 0 0 0 .2.2h5.6a.2.2 0 0 0 .2-.2v-5.6a.2.2 0 0 0-.2-.2h-5.6a.2.2 0 0 0-.2.2zM187.4 265.9a1.8 1.8 0 0 1-1.8-1.8v-5.6a1.8 1.8 0 0 1 1.8-1.8h5.6a1.8 1.8 0 0 1 1.8 1.8v5.6a1.8 1.8 0 0 1-1.8 1.8zm-.2-7.3v5.6a.2.2 0 0 0 .2.2h5.6a.2.2 0 0 0 .2-.2v-5.6a.2.2 0 0 0-.2-.2h-5.6a.2.2 0 0 0-.2.1zM187.4 277.9a1.8 1.8 0 0 1-1.8-1.8v-5.6a1.8 1.8 0 0 1 1.8-1.8h5.6a1.8 1.8 0 0 1 1.8 1.8v5.6a1.8 1.8 0 0 1-1.8 1.8zm-.2-7.3v5.6a.2.2 0 0 0 .2.2h5.6a.2.2 0 0 0 .2-.2v-5.6a.2.2 0 0 0-.2-.2h-5.6a.2.2 0 0 0-.2.2zM196.3 225.5a.8.8 0 1 1 0-1.5h25.5a.8.8 0 0 1 0 1.5z"/><path class="cls-12" d="M179.1 238.6l-.5-.2a.8.8 0 0 1-.2-.5v-11.5a2.5 2.5 0 0 1 2.5-2.5h8.6a.8.8 0 0 1 0 1.5h-8.6a1 1 0 0 0-1 1V237h58.2v-10.6a1 1 0 0 0-1-1h-8.6a.8.8 0 0 1 0-1.5h8.6a2.5 2.5 0 0 1 2.5 2.5v11.4a.8.8 0 0 1-.2.5l-.5.2zM253.5 286.2v-1.5h56.3a1 1 0 0 0 1-1v-45.1h-58.3v45.1a1 1 0 0 0 1 1v1.5a2.5 2.5 0 0 1-2.5-2.5v-45.9a.8.8 0 0 1 .2-.5l.5-.2h59.7l.5.2a.8.8 0 0 1 .2.5v45.9a2.5 2.5 0 0 1-2.5 2.5zM293.6 228.1v-6.8a4.2 4.2 0 1 1 8.3 0v6.8a4.2 4.2 0 1 1-8.3 0zm1.5-6.8v6.8a2.7 2.7 0 1 0 5.3 0v-6.8a2.7 2.7 0 1 0-5.3 0zM261.3 228.1v-6.8a4.2 4.2 0 1 1 8.3 0v6.8a4.2 4.2 0 1 1-8.3 0zm1.5 0a2.7 2.7 0 1 0 5.3 0v-6.8a2.7 2.7 0 1 0-5.3 0z"/><path class="cls-12" d="M272.6 253.8a1.8 1.8 0 0 1-1.8-1.8v-5.6a1.8 1.8 0 0 1 1.8-1.8h5.6a1.8 1.8 0 0 1 1.8 1.8v5.6a1.8 1.8 0 0 1-1.8 1.8zm-.2-7.3v5.6a.2.2 0 0 0 .2.2h5.6a.2.2 0 0 0 .2-.2v-5.6a.2.2 0 0 0-.2-.2h-5.6a.2.2 0 0 0-.2.2zM285.1 253.8a1.8 1.8 0 0 1-1.8-1.8v-5.6a1.8 1.8 0 0 1 1.8-1.8h5.6a1.8 1.8 0 0 1 1.8 1.8v5.6a1.8 1.8 0 0 1-1.8 1.8zm-.2-7.3v5.6a.2.2 0 0 0 .2.2h5.6a.2.2 0 0 0 .2-.2v-5.6a.2.2 0 0 0-.2-.2h-5.6a.2.2 0 0 0-.2.2zM297.6 253.8a1.8 1.8 0 0 1-1.8-1.8v-5.6a1.8 1.8 0 0 1 1.8-1.8h5.6a1.8 1.8 0 0 1 1.8 1.8v5.6a1.8 1.8 0 0 1-1.8 1.8zm-.2-7.3v5.6a.2.2 0 0 0 .2.2h5.6a.2.2 0 0 0 .2-.2v-5.6a.2.2 0 0 0-.2-.2h-5.6a.2.2 0 0 0-.2.2zM272.6 265.9a1.8 1.8 0 0 1-1.8-1.8v-5.6a1.8 1.8 0 0 1 1.8-1.8h5.6a1.8 1.8 0 0 1 1.8 1.8v5.6a1.8 1.8 0 0 1-1.8 1.8zm-.2-7.3v5.6a.2.2 0 0 0 .2.2h5.6a.2.2 0 0 0 .2-.2v-5.6a.2.2 0 0 0-.2-.2h-5.6a.2.2 0 0 0-.2.1zM297.6 265.9a1.8 1.8 0 0 1-1.8-1.8v-5.6a1.8 1.8 0 0 1 1.8-1.8h5.6a1.8 1.8 0 0 1 1.8 1.8v5.6a1.8 1.8 0 0 1-1.8 1.8zm-.2-7.3v5.6a.2.2 0 0 0 .2.2h5.6a.2.2 0 0 0 .2-.2v-5.6a.2.2 0 0 0-.2-.2h-5.6a.2.2 0 0 0-.2.1zM285.1 265.9a1.8 1.8 0 0 1-1.8-1.8v-5.6a1.8 1.8 0 0 1 1.8-1.8h5.6a1.8 1.8 0 0 1 1.8 1.8v5.6a1.8 1.8 0 0 1-1.8 1.8zm-.2-7.3v5.6a.2.2 0 0 0 .2.2h5.6a.2.2 0 0 0 .2-.2v-5.6a.2.2 0 0 0-.2-.2h-5.6a.2.2 0 0 0-.2.1zM272.6 277.9a1.8 1.8 0 0 1-1.8-1.8v-5.6a1.8 1.8 0 0 1 1.8-1.8h5.6a1.8 1.8 0 0 1 1.8 1.8v5.6a1.8 1.8 0 0 1-1.8 1.8zm-.2-7.3v5.6a.2.2 0 0 0 .2.2h5.6a.2.2 0 0 0 .2-.2v-5.6a.2.2 0 0 0-.2-.2h-5.6a.2.2 0 0 0-.2.2zM285.1 277.9a1.8 1.8 0 0 1-1.8-1.8v-5.6a1.8 1.8 0 0 1 1.8-1.8h5.6a1.8 1.8 0 0 1 1.8 1.8v5.6a1.8 1.8 0 0 1-1.8 1.8zm-.2-7.3v5.6a.2.2 0 0 0 .2.2h5.6a.2.2 0 0 0 .2-.2v-5.6a.2.2 0 0 0-.2-.2h-5.6a.2.2 0 0 0-.2.2zM260.1 265.9a1.8 1.8 0 0 1-1.8-1.8v-5.6a1.8 1.8 0 0 1 1.8-1.8h5.6a1.8 1.8 0 0 1 1.8 1.8v5.6a1.8 1.8 0 0 1-1.8 1.8zm-.2-7.3v5.6a.2.2 0 0 0 .2.2h5.6a.2.2 0 0 0 .2-.2v-5.6a.2.2 0 0 0-.2-.2h-5.6a.2.2 0 0 0-.3.1zM260.1 277.9a1.8 1.8 0 0 1-1.8-1.8v-5.6a1.8 1.8 0 0 1 1.8-1.8h5.6a1.8 1.8 0 0 1 1.8 1.8v5.6a1.8 1.8 0 0 1-1.8 1.8zm-.2-7.3v5.6a.2.2 0 0 0 .2.2h5.6a.2.2 0 0 0 .2-.2v-5.6a.2.2 0 0 0-.2-.2h-5.6a.2.2 0 0 0-.3.2zM268.9 225.5a.8.8 0 1 1 0-1.5h25.5a.8.8 0 0 1 0 1.5z"/><path class="cls-12" d="M251.8 238.6l-.5-.2a.8.8 0 0 1-.2-.5v-11.5a2.5 2.5 0 0 1 2.5-2.5h8.6a.8.8 0 0 1 0 1.5h-8.6a1 1 0 0 0-1 1V237h58.2v-10.6a1 1 0 0 0-1-1h-8.6a.8.8 0 0 1 0-1.5h8.6a2.5 2.5 0 0 1 2.5 2.5v11.4a.8.8 0 0 1-.2.5l-.5.2zM326.1 286.2v-1.5h56.3a1 1 0 0 0 1-1v-45.1h-58.3v45.1a1 1 0 0 0 1 1v1.5a2.5 2.5 0 0 1-2.5-2.5v-45.9a.8.8 0 0 1 .2-.5l.5-.2H384l.5.2a.8.8 0 0 1 .2.5v45.9a2.5 2.5 0 0 1-2.5 2.5zM366.2 228.1v-6.8a4.2 4.2 0 1 1 8.3 0v6.8a4.2 4.2 0 1 1-8.3 0zm1.5-6.8v6.8a2.7 2.7 0 1 0 5.3 0v-6.8a2.7 2.7 0 1 0-5.3 0zM333.9 228.1v-6.8a4.2 4.2 0 1 1 8.3 0v6.8a4.2 4.2 0 1 1-8.3 0zm1.5 0a2.7 2.7 0 1 0 5.3 0v-6.8a2.7 2.7 0 1 0-5.3 0z"/><path class="cls-12" d="M345.2 253.8a1.8 1.8 0 0 1-1.8-1.8v-5.6a1.8 1.8 0 0 1 1.8-1.8h5.6a1.8 1.8 0 0 1 1.8 1.8v5.6a1.8 1.8 0 0 1-1.8 1.8zm-.2-7.3v5.6a.2.2 0 0 0 .2.2h5.6a.2.2 0 0 0 .2-.2v-5.6a.2.2 0 0 0-.2-.2h-5.6a.2.2 0 0 0-.2.2zM357.7 253.8a1.8 1.8 0 0 1-1.8-1.8v-5.6a1.8 1.8 0 0 1 1.8-1.8h5.6a1.8 1.8 0 0 1 1.8 1.8v5.6a1.8 1.8 0 0 1-1.8 1.8zm-.2-7.3v5.6a.2.2 0 0 0 .2.2h5.6a.2.2 0 0 0 .2-.2v-5.6a.2.2 0 0 0-.2-.2h-5.6a.2.2 0 0 0-.2.2zM370.2 253.8a1.8 1.8 0 0 1-1.8-1.8v-5.6a1.8 1.8 0 0 1 1.8-1.8h5.6a1.8 1.8 0 0 1 1.8 1.8v5.6a1.8 1.8 0 0 1-1.8 1.8zm-.2-7.3v5.6a.2.2 0 0 0 .2.2h5.6a.2.2 0 0 0 .2-.2v-5.6a.2.2 0 0 0-.2-.2h-5.6a.2.2 0 0 0-.2.2zM345.2 265.9a1.8 1.8 0 0 1-1.8-1.8v-5.6a1.8 1.8 0 0 1 1.8-1.8h5.6a1.8 1.8 0 0 1 1.8 1.8v5.6a1.8 1.8 0 0 1-1.8 1.8zm-.2-7.3v5.6a.2.2 0 0 0 .2.2h5.6a.2.2 0 0 0 .2-.2v-5.6a.2.2 0 0 0-.2-.2h-5.6a.2.2 0 0 0-.2.1zM370.2 265.9a1.8 1.8 0 0 1-1.8-1.8v-5.6a1.8 1.8 0 0 1 1.8-1.8h5.6a1.8 1.8 0 0 1 1.8 1.8v5.6a1.8 1.8 0 0 1-1.8 1.8zm-.2-7.3v5.6a.2.2 0 0 0 .2.2h5.6a.2.2 0 0 0 .2-.2v-5.6a.2.2 0 0 0-.2-.2h-5.6a.2.2 0 0 0-.2.1zM357.7 265.9a1.8 1.8 0 0 1-1.8-1.8v-5.6a1.8 1.8 0 0 1 1.8-1.8h5.6a1.8 1.8 0 0 1 1.8 1.8v5.6a1.8 1.8 0 0 1-1.8 1.8zm-.2-7.3v5.6a.2.2 0 0 0 .2.2h5.6a.2.2 0 0 0 .2-.2v-5.6a.2.2 0 0 0-.2-.2h-5.6a.2.2 0 0 0-.2.1zM345.2 277.9a1.8 1.8 0 0 1-1.8-1.8v-5.6a1.8 1.8 0 0 1 1.8-1.8h5.6a1.8 1.8 0 0 1 1.8 1.8v5.6a1.8 1.8 0 0 1-1.8 1.8zm-.2-7.3v5.6a.2.2 0 0 0 .2.2h5.6a.2.2 0 0 0 .2-.2v-5.6a.2.2 0 0 0-.2-.2h-5.6a.2.2 0 0 0-.2.2zM357.7 277.9a1.8 1.8 0 0 1-1.8-1.8v-5.6a1.8 1.8 0 0 1 1.8-1.8h5.6a1.8 1.8 0 0 1 1.8 1.8v5.6a1.8 1.8 0 0 1-1.8 1.8zm-.2-7.3v5.6a.2.2 0 0 0 .2.2h5.6a.2.2 0 0 0 .2-.2v-5.6a.2.2 0 0 0-.2-.2h-5.6a.2.2 0 0 0-.2.2zM332.7 265.9a1.8 1.8 0 0 1-1.8-1.8v-5.6a1.8 1.8 0 0 1 1.8-1.8h5.6a1.8 1.8 0 0 1 1.8 1.8v5.6a1.8 1.8 0 0 1-1.8 1.8zm-.2-7.3v5.6a.2.2 0 0 0 .2.2h5.6a.2.2 0 0 0 .2-.2v-5.6a.2.2 0 0 0-.2-.2h-5.6a.2.2 0 0 0-.2.1zM332.7 277.9a1.8 1.8 0 0 1-1.8-1.8v-5.6a1.8 1.8 0 0 1 1.8-1.8h5.6a1.8 1.8 0 0 1 1.8 1.8v5.6a1.8 1.8 0 0 1-1.8 1.8zm-.2-7.3v5.6a.2.2 0 0 0 .2.2h5.6a.2.2 0 0 0 .2-.2v-5.6a.2.2 0 0 0-.2-.2h-5.6a.2.2 0 0 0-.2.2zM341.5 225.5a.8.8 0 1 1 0-1.5H367a.8.8 0 0 1 0 1.5z"/><path class="cls-12" d="M324.4 238.6l-.5-.2a.8.8 0 0 1-.2-.5v-11.5a2.5 2.5 0 0 1 2.5-2.5h8.6a.8.8 0 0 1 0 1.5h-8.6a1 1 0 0 0-1 1V237h58.2v-10.6a1 1 0 0 0-1-1h-8.6a.8.8 0 0 1 0-1.5h8.6a2.5 2.5 0 0 1 2.5 2.5v11.4a.8.8 0 0 1-.2.5l-.5.2z"/><path class="cls-13" d="M208.9 95.4l14.2-18.7h7.9l-18.1 23.4 18.9 24.4h-8.2l-14.8-19.7-14.9 19.7H186l18.7-24.3-18-23.5h8.1zM280.6 95.4l14.2-18.7h7.9l-18.1 23.4 18.9 24.4h-8.2l-14.8-19.7-14.9 19.7h-7.9l18.7-24.3-17.9-23.5h8.1zM352.5 95.4l14.2-18.7h7.9l-18.1 23.4 18.9 24.4h-8.2l-14.8-19.7-14.9 19.7h-7.9l18.7-24.3-17.9-23.5h8.1zM208.9 172.9l14.2-18.7h7.9l-18.1 23.4 18.9 24.4h-8.2l-14.8-19.7-14.9 19.7H186l18.7-24.3-17.9-23.5h8.1z"/></svg>