<svg id="Layer_1" data-name="Layer 1" xmlns="http://www.w3.org/2000/svg" viewBox="0 0 540 540"><defs><style>.cls-1{fill:#1e2f5e}</style></defs><title>c-235</title><path class="cls-1" d="M377.9 231.6a6.2 6.2 0 1 1 1.5 8.6 6.2 6.2 0 0 1-1.5-8.6zm-217.4 8.7a6.2 6.2 0 1 0-8.6-1.5 6.2 6.2 0 0 0 8.6 1.6zm230.7 13l-8.6 7.5a3.2 3.2 0 0 1-2.1.8h-.2a3.2 3.2 0 0 1-1.8-.8c-4.7 3.5-7.1 8.2-10.1 14.3-3.7 7.5-8.4 16.8-19.5 26.4a14.3 14.3 0 0 1-20.3 18 14.3 14.3 0 0 1-14.2 12.2l-1.9-.2A14.4 14.4 0 0 1 288 343l-4.2-4.2a14.2 14.2 0 0 1-3.9 7.5l-6.6 6.6a12.2 12.2 0 0 1-2.2 1.8 14 14 0 0 1-8 2.4 14.2 14.2 0 0 1-14.1-11.6l-2.5 2.5a14.4 14.4 0 0 1-24.5-11.5l-1.9.2a13.9 13.9 0 0 1-14.3-16h-1.4a14.3 14.3 0 0 1-13-20.6l-.3-.2-1.1-.9a90.9 90.9 0 0 1-7-6.3 76.6 76.6 0 0 1-14.2-20.3l-2.9-5.9c-1.2-2.6-2.3-4.9-3.5-6.9l-.9 1a3.2 3.2 0 0 1-4.5.3l-8.6-7.5a3.2 3.2 0 0 1 4.2-4.8l6.2 5.4 45.1-51.8v-.2a3.1 3.1 0 0 1 1-1.1L183 181.4a3.2 3.2 0 1 1 4.2-4.8l24.8 21.6a3.2 3.2 0 0 1 1.1 2.2 3.2 3.2 0 0 1-.1.7c4.8.1 11.3-1 19-3.2l1.9-.5c12.5-3.8 26-1.7 36.1 5.6 10-7.3 23.5-9.4 36.1-5.6 8.6 2.6 15.7 3.9 20.8 3.8a3.2 3.2 0 0 1 1-3.1l24.8-21.6a3.2 3.2 0 1 1 4.2 4.8l-22.4 19.5a3.2 3.2 0 0 1 1.3 1.5l45 51.6 6.2-5.4a3.2 3.2 0 0 1 4.2 4.8zM210 312l3-3a8 8 0 0 0-12.3-10.1l-1.8 1.8a8 8 0 0 0 0 11.3 8.2 8.2 0 0 0 10.6.5zm16.2 15.5l6-6 4.8-4.8a8 8 0 0 0-11.3-11.3l-8.1 8.1-1 1.3-1.8 1.8-.7.6a7.9 7.9 0 0 0 .5 10.7 8.2 8.2 0 0 0 11.3 0l.3-.3zm29.9 1.8a8 8 0 0 0-11.3-11.3l-8 8-6 6a8 8 0 0 0 0 11.3 8.2 8.2 0 0 0 11.3 0l10.8-10.8zm20.2 2.3l-.9-1.1-1.1-.9h-.2a8.1 8.1 0 0 0-10 1.1l-3.4 3.4-3.2 3.2-.8 1a8 8 0 0 0 .8 10.3 8.2 8.2 0 0 0 10.1.9l1.2-.9 6.6-6.6a8 8 0 0 0 .9-10.5zm64.9-30.2l-1.7-1.7-59.8-59.8a4.7 4.7 0 0 0-6.7-.1l-17 15.9-3.5 3.3a13.4 13.4 0 0 1-9.5 3.7 13.2 13.2 0 0 1-9.3-4.1l-1.5-1.6a11.1 11.1 0 0 1-1.2-1.5 13.2 13.2 0 0 1 1.6-17.3l32.3-30.9a35.1 35.1 0 0 0-29-3.8l-2.1.6c-10.8 3.1-19.3 4.1-25.2 3l-41.3 47.4a95.1 95.1 0 0 1 4.8 9.2l2.8 5.8a70.5 70.5 0 0 0 13 18.7 84.4 84.4 0 0 0 6.6 6l1 .9.7-.7a14.4 14.4 0 0 1 24.3 7.2l.7-.7a14.3 14.3 0 0 1 24.5 9.2 14.2 14.2 0 0 1 15 3.3 14.3 14.3 0 0 1 4.1 9.2 14.7 14.7 0 0 1 12.9 1.4l.2.2 1.9 1.6.5.3 12.3 12.3a8 8 0 0 0 11.3-11.3l-10.8-10.8-10-10a3.2 3.2 0 0 1 4.5-4.5l20.8 20.8.3.3a8 8 0 0 0 12.1-10.3l-21.5-21.7-.3-.5-.4-.6a3.2 3.2 0 0 1-.1-.5 1.8 1.8 0 0 1 0-1.3 3.1 3.1 0 0 1 .1-.5l.4-.6.3-.5.6-.4.5-.3h2.4l.5.4.5.3 20.9 20.6.8 1 4.5 4.5a8.2 8.2 0 0 0 11.3 0 8 8 0 0 0-.1-11.3zm33-45.2l-42.6-48.9c-6.3 1.2-15.4 0-27.3-3.6s-22-1.5-30.5 4.7a40 40 0 0 0-4.5 3.7L237 242.8a6.8 6.8 0 0 0-.7 9l.6.8 1.4 1.5a6.8 6.8 0 0 0 4.8 2.1 6.6 6.6 0 0 0 4.9-1.9l3.5-3.4 16.9-16.1a11.3 11.3 0 0 1 15.7.2l59.9 59.9 1.2 1.2c9.7-8.6 13.8-16.7 17.4-24s6-11.7 11.6-16.1z"/></svg>