<svg id="Layer_1" data-name="Layer 1" xmlns="http://www.w3.org/2000/svg" viewBox="0 0 540 415.3"><defs><style>.cls-1,.cls-12,.cls-13,.cls-15,.cls-6,.cls-8,.cls-9{fill:none}.cls-1,.cls-11,.cls-2,.cls-6,.cls-8,.cls-9{stroke:#333}.cls-1,.cls-11,.cls-12,.cls-13,.cls-2,.cls-6{stroke-miterlimit:10}.cls-1,.cls-13,.cls-14,.cls-15,.cls-2{stroke-width:2.5px}.cls-2,.cls-5{fill:#2dabe2}.cls-3{fill:#1d2e5e}.cls-4{fill:#192530}.cls-6{stroke-width:5px}.cls-11,.cls-7{fill:#4057a7}.cls-14,.cls-15,.cls-8,.cls-9{stroke-linejoin:round}.cls-8,.cls-9{stroke-width:2px}.cls-9{stroke-linecap:round}.cls-10{fill:#333;stroke:#231f20;stroke-width:.5px}.cls-11{stroke-width:.75px}.cls-12{stroke:#27aae1}.cls-13,.cls-14,.cls-15{stroke:#424242}.cls-14{fill:#5fc8d7}</style></defs><title>c-305</title><path class="cls-1" d="M107.2 311.2l-9.1 25.1-5.8-9.3-11 3.2 8.7-23.7M108.8 310.7l9.3 25.6 5.8-9.3 10.9 3.2-8.2-22.7"/><path class="cls-2" d="M134.4 296.4l-2.4-7 4-6.2-5.4-5.1.7-7.3-7.1-2-2.8-6.8-7.2 1.5-5.7-4.7-5.6 4.7-7.2-1.5-2.8 6.8-7.1 2 .7 7.3-5.4 5.1 4 6.2-2.4 7 6.4 3.6 1.1 7.3 7.4.2 4.4 6 6.6-3.3 6.6 3.3 4.4-6 7.4-.2 1-7.3zM91.7 287a16.8 16.8 0 1 1 16.8 16.8A16.8 16.8 0 0 1 91.7 287z"/><g id="_Group_" data-name="&lt;Group&gt;"><path class="cls-3" d="M142.2 111.1v22.2h-26.4v2.2h-12.9v-2.2H76.6v-8.7l17.4-8.7 8.1 4.4 15.5-6.2 7.6 4.4 17-7.4z"/><path class="cls-4" d="M143.3 133.3h-2.2V91.9H77.7v41.4h-2.2V90.8a1.1 1.1 0 0 1 1.1-1.1h65.6a1.1 1.1 0 0 1 1.1 1.1z"/><path class="cls-4" d="M149.3 133.3h-2.2V88.2a2.3 2.3 0 0 0-2.3-2.3H74a2.3 2.3 0 0 0-2.3 2.3v45.1h-2.3V88.2a4.6 4.6 0 0 1 4.6-4.5h70.8a4.6 4.6 0 0 1 4.5 4.5z"/><path class="cls-4" d="M156.6 141.3H62.1a1.1 1.1 0 0 1-.9-.5 14.7 14.7 0 0 1-1.9-3.2 17.7 17.7 0 0 1 0-4.4 1.1 1.1 0 0 1 1.1-1h42.5a1.1 1.1 0 0 1 1.1 1.1v1h10.6v-1a1.1 1.1 0 0 1 1.1-1.1h42.5a1.1 1.1 0 0 1 1.1 1 17.6 17.6 0 0 1 0 4.4 14.7 14.7 0 0 1-1.9 3.2 1.1 1.1 0 0 1-.8.5zm-93.9-2.2H156a11.7 11.7 0 0 0 1.2-2 12.3 12.3 0 0 0 0-2.6h-40.3v1a1.1 1.1 0 0 1-1.1 1.1h-12.9a1.1 1.1 0 0 1-1.1-1.1v-1H61.5a12.4 12.4 0 0 0 0 2.6 11.6 11.6 0 0 0 1.2 2zM77.1 125.6l-1-2 17.5-8.7a1.1 1.1 0 0 1 1 0l7.6 4.1 15.1-6a1.1 1.1 0 0 1 1 .1l7.1 4.2 16.5-7.2 1 2h-.1l-17 7.4a1.1 1.1 0 0 1-1-.1l-7.1-4.2-15.1 6a1.1 1.1 0 0 1-.9-.1l-7.7-3.9zM84.5 97.2h18.9v2.23H84.5zM84.5 102.1h10.8v2.23H84.5z"/></g><path class="cls-5" d="M383.3 305.7L341 346.6v-40.9h42.3zM217.2 226.1h65.9v30.18h-65.9zM294.3 226.1h65.5v30.67h-65.5z"/><path class="cls-6" d="M339.3 345.6V308a3.4 3.4 0 0 1 3.4-3.4h37.6M359.7 129.9H300M359.7 151H300M359.7 172.2H300M359.7 193.3H300M359.7 214.4H215.5M359.7 277.8H215.5M283.1 295.9h-67.6M280.3 257.8h-60.7a3.4 3.4 0 0 1-3.4-3.4v-25.9a3.4 3.4 0 0 1 3.4-3.4h60.7a3.4 3.4 0 0 1 3.4 3.4v25.9a3.4 3.4 0 0 1-3.4 3.4zM357.3 257.8h-60.7a3.4 3.4 0 0 1-3.4-3.4v-25.9a3.4 3.4 0 0 1 3.4-3.4h60.7a3.4 3.4 0 0 1 3.4 3.4v25.9a3.4 3.4 0 0 1-3.4 3.4z"/><path class="cls-6" d="M341 346.6H198a3.4 3.4 0 0 1-3.4-3.4V93.8a3.4 3.4 0 0 1 3.4-3.4h180.5a3.4 3.4 0 0 1 3.4 3.4v211.9a3.4 3.4 0 0 1-1 2.4l-37.6 37.5a3.4 3.4 0 0 1-2.3 1z"/><path class="cls-6" d="M284.9 115v42.8a33.1 33.1 0 0 1-66.3 0v-64c0-14.8 11.7-26.4 26.7-26.4A26.7 26.7 0 0 1 272 93.8V150a19 19 0 0 1-38.1 0v-34.5"/><g id="_Group_2" data-name="&lt;Group&gt;"><path class="cls-7" d="M99.1 201h.1a13.1 13.1 0 0 1-26.3 0zM119.6 201h26.2a13.1 13.1 0 0 1-26.3 0z"/><path class="cls-4" d="M86 215.1A14.2 14.2 0 0 1 71.9 201h2a12.2 12.2 0 0 0 24.3 0h.9v-1h.1a1 1 0 0 1 1 1A14.2 14.2 0 0 1 86 215.1zM86.1 170.2h23.3v1.99H86.1z"/><path class="cls-4" d="M99.1 202H72.9a1 1 0 0 1-.9-1.4l13.1-29.8a1 1 0 0 1 1.8 0l13.1 29.8a1 1 0 0 1-.9 1.4zm-24.7-2h23.2L86 173.7zM132.7 215.1a14.2 14.2 0 0 1-14.1-14.1 1 1 0 0 1 1-1h.1v1h.9a12.2 12.2 0 0 0 24.3 0h2a14.2 14.2 0 0 1-14.2 14.1zM109.4 170.2h23.3v1.99h-23.3z"/><path class="cls-4" d="M145.9 202h-26.3a1 1 0 0 1-.9-1.4l13.1-29.8a1 1 0 0 1 1.8 0l13.1 29.8a1 1 0 0 1-.9 1.4zm-24.7-2h23.2l-11.6-26.3zM127.8 229.9H91.4a3.5 3.5 0 0 1-3.5-3.5 3.5 3.5 0 0 1 3.5-3.5h15.7v2H91.4a1.5 1.5 0 0 0-1.5 1.5 1.5 1.5 0 0 0 1.5 1.5h36.5a1.5 1.5 0 0 0 0-3h-15.8v-2h15.7a3.5 3.5 0 0 1 0 7z"/><path class="cls-4" d="M112.1 224.9h-5a1 1 0 0 1-1-1v-56.6a3.5 3.5 0 0 1 7 0v56.6a1 1 0 0 1-1 1zm-4-2h3v-55.6a1.5 1.5 0 0 0-3 0z"/><path class="cls-4" d="M107.1 174.3h5v1.99h-5z"/></g><path class="cls-8" d="M460.9 225.7a4.2 4.2 0 0 0 4.3-4.1v-12.1a3.6 3.6 0 0 0-2.6-3.4l-2.8-.9-5.3 5.1-5.3-5.1-2.8.9a3.6 3.6 0 0 0-2.6 3.4v12.1a4.2 4.2 0 0 0 4.3 4.1"/><ellipse class="cls-9" cx="454.5" cy="198" rx="5.3" ry="5.1"/><path class="cls-9" d="M460.9 213.4v30.8h-12.8v-30.8M454.5 225.7v18.5"/><path class="cls-8" d="M465.5 218.1a4.4 4.4 0 0 0 2 .5M480.3 218.6a4.2 4.2 0 0 0 4.3-4.1v-12.1a3.6 3.6 0 0 0-2.6-3.4l-2.8-.9-5.3 5.1-5.3-5.1-2.8.9a3.6 3.6 0 0 0-2.6 3.4v4.3"/><ellipse class="cls-9" cx="473.9" cy="190.9" rx="5.3" ry="5.1"/><path class="cls-9" d="M480.3 206.3v30.8h-12.8v-30.8M473.9 218.6v18.5"/><path class="cls-8" d="M445.9 206.8v-3.7a3.6 3.6 0 0 0-2.6-3.4l-2.8-.9-5.3 5.1-5.3-5.1-2.8.9a3.6 3.6 0 0 0-2.6 3.4v12.1a4.2 4.2 0 0 0 4.3 4.1M441.6 219.3a2.9 2.9 0 0 0 2.3-1.1"/><ellipse class="cls-9" cx="435.2" cy="191.5" rx="5.3" ry="5.1"/><path class="cls-9" d="M441.6 206.9v30.8h-12.8v-30.8M435.2 219.3v18.4"/><path class="cls-10" d="M429.5 328.4v-1.2h50a.8.8 0 0 0 .9-.7v-34.6h-51.7v34.6a.8.8 0 0 0 .9.7v1.2a2.1 2.1 0 0 1-2.2-1.9v-35.2a.6.6 0 0 1 .2-.4l.5-.2h53.1l.5.2a.6.6 0 0 1 .2.4v35.2a2.1 2.1 0 0 1-2.2 1.9zM465.2 282.8v-6.1a3.7 3.7 0 1 1 7.4 0v6.1a3.7 3.7 0 1 1-7.4 0zm1.4-6.1v6.1a2.4 2.4 0 1 0 4.7 0v-6.1a2.4 2.4 0 1 0-4.7 0zM436.5 282.8v-6.1a3.7 3.7 0 1 1 7.4 0v6.1a3.7 3.7 0 1 1-7.4 0zm1.4 0a2.4 2.4 0 1 0 4.7 0v-6.1a2.4 2.4 0 1 0-4.7 0z"/><rect class="cls-11" x="438.5" y="296.6" width="5.1" height="5.07" rx="1" ry="1"/><rect class="cls-11" x="445.5" y="296.6" width="5.1" height="5.07" rx="1" ry="1"/><rect class="cls-11" x="452.5" y="296.6" width="5.1" height="5.07" rx="1" ry="1"/><rect class="cls-11" x="438.5" y="303.3" width="5.1" height="5.07" rx="1" ry="1"/><rect class="cls-11" x="452.5" y="303.3" width="5.1" height="5.07" rx="1" ry="1"/><rect class="cls-11" x="445.5" y="303.3" width="5.1" height="5.07" rx="1" ry="1"/><rect class="cls-11" x="438.5" y="310" width="5.1" height="5.07" rx="1" ry="1"/><rect class="cls-11" x="445.5" y="310" width="5.1" height="5.07" rx="1" ry="1"/><rect class="cls-11" x="431.5" y="303.3" width="5.1" height="5.07" rx="1" ry="1"/><rect class="cls-11" x="431.5" y="310" width="5.1" height="5.07" rx="1" ry="1"/><path class="cls-10" d="M443.2 280.4a.7.7 0 1 1 0-1.4h22.7a.7.7 0 0 1 0 1.4z"/><path class="cls-10" d="M428 292.1l-.5-.2a.7.7 0 0 1-.2-.5v-10.1a2.2 2.2 0 0 1 2.2-2.2h7.6a.7.7 0 0 1 0 1.4h-7.6a.9.9 0 0 0-.9.9v9.4h51.7v-9.4a.9.9 0 0 0-.9-.9h-7.6a.7.7 0 0 1 0-1.4h7.6a2.2 2.2 0 0 1 2.2 2.2v10.1a.7.7 0 0 1-.2.5l-.5.2z"/><rect class="cls-11" x="466.3" y="296.6" width="5.1" height="5.07" rx="1" ry="1"/><rect class="cls-11" x="473.3" y="296.6" width="5.1" height="5.07" rx="1" ry="1"/><rect class="cls-11" x="459.4" y="296.6" width="5.1" height="5.07" rx="1" ry="1"/><rect class="cls-11" x="466.3" y="303.3" width="5.1" height="5.07" rx="1" ry="1"/><rect class="cls-11" x="473.3" y="303.3" width="5.1" height="5.07" rx="1" ry="1"/><rect class="cls-11" x="459.4" y="303.3" width="5.1" height="5.07" rx="1" ry="1"/><rect class="cls-11" x="452.3" y="310" width="5.1" height="5.07" rx="1" ry="1"/><rect class="cls-11" x="466.1" y="310" width="5.1" height="5.07" rx="1" ry="1"/><rect class="cls-11" x="473.1" y="310" width="5.1" height="5.07" rx="1" ry="1"/><rect class="cls-11" x="459.2" y="310" width="5.1" height="5.07" rx="1" ry="1"/><rect class="cls-11" x="438.2" y="316.7" width="5.1" height="5.07" rx="1" ry="1"/><rect class="cls-11" x="445.1" y="316.7" width="5.1" height="5.07" rx="1" ry="1"/><rect class="cls-11" x="431.2" y="316.7" width="5.1" height="5.07" rx="1" ry="1"/><rect class="cls-11" x="451.9" y="316.7" width="5.1" height="5.07" rx="1" ry="1"/><rect class="cls-11" x="465.8" y="316.7" width="5.1" height="5.07" rx="1" ry="1"/><rect class="cls-11" x="458.8" y="316.7" width="5.1" height="5.07" rx="1" ry="1"/><path class="cls-12" d="M430.6 298.8h48.3M430.6 312.5h48.3M430.6 306h48.3"/><path class="cls-13" d="M454.5 90.2a33.1 33.1 0 1 0 33.1 33.1 33.2 33.2 0 0 0-33.1-33.1z"/><path class="cls-13" d="M454.1 101.1a22.2 22.2 0 1 0 22.2 22.2 22.2 22.2 0 0 0-22.2-22.2zM454.1 102.3v4.6M454.1 140.3v4.6M475.7 123.3h-4.5M437.7 123.3h-4.5"/><circle class="cls-14" cx="454.1" cy="123.3" r="4.2" transform="rotate(-45 454.079 123.315)"/><path class="cls-15" d="M449.6 122.7l-8.4 12.5 13.3-7.6M457.8 124l7.3-11.4-12.2 6.5"/></svg>