<svg id="Layer_1" data-name="Layer 1" xmlns="http://www.w3.org/2000/svg" viewBox="0 0 540 540"><defs><style>.cls-1{fill:#fff}.cls-1,.cls-3{stroke:#333;stroke-miterlimit:10;stroke-width:3px}.cls-2{fill:#2dabe2}.cls-3{fill:none}</style></defs><title>c-315</title><g id="_Group_" data-name="&lt;Group&gt;"><path class="cls-1" d="M327 423H160a4 4 0 0 1-4-4V127a4 4 0 0 1 4-4h211a4 4 0 0 1 4 4v248a4 4 0 0 1-1 3l-44 44z"/><path class="cls-2" d="M375 375l-48 48v-48h48zm-192-93h77v35.35h-77zm90 0h77v35.93h-77z"/><path class="cls-3" d="M349 169h-70m70 25h-70m70 25h-70m70 25h-70m70 24H180m146 154v-44a4 4 0 0 1 4-4h44m-25-31H180m80 21h-80m76-45h-71a4 4 0 0 1-4-4v-30a4 4 0 0 1 4-4h71a4 4 0 0 1 4 4v30a4 4 0 0 1-4 4zm91 0h-71a4 4 0 0 1-4-4v-30a4 4 0 0 1 4-4h71a4 4 0 0 1 4 4v30a4 4 0 0 1-4 4zm-85-167v50a39 39 0 0 1-78 0v-75c0-17 14-31 31-31a31 31 0 0 1 31 31v66a22 22 0 0 1-45 0v-41"/></g></svg>