<svg id="Layer_1" xmlns="http://www.w3.org/2000/svg" viewBox="0 0 900 375"><style>.st0{fill:none;stroke:#333;stroke-width:2;stroke-miterlimit:10}.st1{fill:#333}.st2{fill:#fff;stroke:#333;stroke-width:3;stroke-miterlimit:10}.st3{fill:#2dabe2}.st4,.st5{stroke:#333;stroke-miterlimit:10}.st4{stroke-width:3;fill:none}.st5{fill:#333}</style><path class="st0" d="M524.8 218.4h20.5c1 0 1.8-.8 1.8-1.8s-.8-1.8-1.8-1.8v-27.3c0-1-.8-1.8-1.8-1.8h-16.9c-1 0-1.8.8-1.8 1.8v27.3c-1 0-1.8.8-1.8 1.8s.8 1.8 1.8 1.8z"/><path class="st0" d="M536.7 208.7h5v6.1h-5zm-8.3-9.7h4.7v6.1h-4.7zm8.3 0h5v6.1h-5zm0-9.7h5v6.1h-5zm-8.3 0h4.7v6.1h-4.7zm0 19.4h4.7v6.1h-4.7zm16.9 43.1v-18.3h.5c1 0 1.8-.8 1.8-1.8 0-.7-.4-1.4-1.1-1.6l-10.8-5.7c-.5-.3-1.1-.3-1.7 0l-10.9 5.7c-.7.4-1.1 1.2-.9 2 .2.8.9 1.4 1.7 1.4h.9V269c-1 0-1.8.8-1.8 1.8s.8 1.8 1.8 1.8h20.5c1 0 1.8-.8 1.8-1.8s-.8-1.8-1.8-1.8v-17.2z"/><path class="st0" d="M536.7 243.9h5v6.1h-5zm-8.3 0h4.7v6.1h-4.7zm0 9.7h4.7v5.7h-4.7zm8.3 0h5v5.7h-5zm0-20.1h5v6.8h-5zm-8.3 0h4.7v6.8h-4.7zm0 29.4h4.7v6.1h-4.7zm8.3 0h5v6.1h-5zm46.7-11.1v-18.3h.5c1 0 1.8-.8 1.8-1.8 0-.4-.1-.8-.4-1.1-.7-1-4.5-6-12.3-6-8.5 0-12.3 5.9-12.4 6.2-.3.6-.4 1.3 0 1.8.3.6.9.9 1.6.9h.9V269c-1 0-1.8.8-1.8 1.8s.8 1.8 1.8 1.8h20.5c1 0 1.8-.8 1.8-1.8s-.8-1.8-1.8-1.8v-17.2z"/><path class="st0" d="M574.7 243.9h5v6.1h-5zm-8.2 0h4.7v6.1h-4.7zm0 9.7h4.7v5.7h-4.7zm8.2 0h5v5.7h-5zm0-20.1h5v6.8h-5zm-8.2 0h4.7v6.8h-4.7zm0 29.4h4.7v6.1h-4.7zm8.2 0h5v6.1h-5zm48.2-32.9l-10.8-5.7c-.5-.3-1.1-.3-1.7 0l-10.9 5.7c-.7.4-1.1 1.2-.9 2 .2.8.9 1.4 1.7 1.4h.7v35.5c-1 0-1.8.8-1.8 1.8s.8 1.8 1.8 1.8h20.5c1 0 1.8-.8 1.8-1.8s-.8-1.8-1.8-1.8v-35.5h.7c1 0 1.8-.8 1.8-1.8-.1-.7-.5-1.3-1.1-1.6z"/><path class="st0" d="M604.6 233.5h4.7v6.8h-4.7zm0 10.4h4.7v6.1h-4.7zm0 9.7h4.7v5.7h-4.7zm8.2 0h5v5.7h-5zm0-9.7h5v6.1h-5zm-8.2 19h4.7v6.1h-4.7zm8.2 0h5v6.1h-5zm0-29.4h5v6.8h-5zm36.5-9c-8.5 0-12.3 5.9-12.4 6.2-.3.6-.4 1.3 0 1.8.3.6.9.9 1.6.9h.7v35.5c-1 0-1.8.8-1.8 1.8s.8 1.8 1.8 1.8h20.5c1 0 1.8-.8 1.8-1.8s-.8-1.8-1.8-1.8v-35.5h.7c1 0 1.8-.8 1.8-1.8 0-.4-.1-.8-.4-1.1-.9-1-4.7-6-12.5-6z"/><path class="st0" d="M642.6 233.5h4.7v6.8h-4.7zm0 10.4h4.7v6.1h-4.7zm0 9.7h4.7v5.7h-4.7zm8.3 0h5v5.7h-5zm0-9.7h5v6.1h-5zm-8.3 19h4.7v6.1h-4.7zm8.3 0h5v6.1h-5zm0-29.4h5v6.8h-5zm-88-15.1h20.5c1 0 1.8-.8 1.8-1.8s-.8-1.8-1.8-1.8v-27.3c0-1-.8-1.8-1.8-1.8h-16.9c-1 0-1.8.8-1.8 1.8v27.3c-1 0-1.8.8-1.8 1.8s.8 1.8 1.8 1.8z"/><path class="st0" d="M574.7 208.7h5v6.1h-5zm-8.2-9.7h4.7v6.1h-4.7zm8.2 0h5v6.1h-5zm0-9.7h5v6.1h-5zm-8.2 0h4.7v6.1h-4.7zm0 19.4h4.7v6.1h-4.7zm34.5 9.7h20.5c1 0 1.8-.8 1.8-1.8s-.8-1.8-1.8-1.8v-27.3c0-1-.8-1.8-1.8-1.8h-17c-1 0-1.8.8-1.8 1.8v27.3c-1 0-1.8.8-1.8 1.8.1 1 .9 1.8 1.9 1.8z"/><path class="st0" d="M612.8 208.7h5v6.1h-5zm-8.2-9.7h4.7v6.1h-4.7zm8.2 0h5v6.1h-5zm0-9.7h5v6.1h-5zm-8.2 0h4.7v6.1h-4.7zm0 19.4h4.7v6.1h-4.7zm34.4 9.7h20.5c1 0 1.8-.8 1.8-1.8s-.8-1.8-1.8-1.8v-27.3c0-1-.8-1.8-1.8-1.8h-16.9c-1 0-1.8.8-1.8 1.8v27.3c-1 0-1.8.8-1.8 1.8s.8 1.8 1.8 1.8z"/><path class="st0" d="M650.9 208.7h5v6.1h-5zm-8.3-9.7h4.7v6.1h-4.7zm8.3 0h5v6.1h-5zm0-9.7h5v6.1h-5zm-8.3 0h4.7v6.1h-4.7zm0 19.4h4.7v6.1h-4.7zm-319.3 9.7h20.5c1 0 1.8-.8 1.8-1.8s-.8-1.8-1.8-1.8v-27.3c0-1-.8-1.8-1.8-1.8h-16.9c-1 0-1.8.8-1.8 1.8v27.3c-1 0-1.8.8-1.8 1.8s.8 1.8 1.8 1.8z"/><path class="st0" d="M335.6 208.7h4.7v6.1h-4.7zm-8.7-9.7h5v6.1h-5zm8.7 0h4.7v6.1h-4.7zm0-9.7h4.7v6.1h-4.7zm-8.7 0h5v6.1h-5zm0 19.4h5v6.1h-5zm18.6 21.4l-10.9-5.7c-.5-.3-1.1-.3-1.7 0l-10.9 5.7c-.7.4-1.1 1.2-.9 2 .2.8.9 1.4 1.7 1.4h.5V269c-1 0-1.8.8-1.8 1.8s.8 1.8 1.8 1.8h20.5c1 0 1.8-.8 1.8-1.8s-.8-1.8-1.8-1.8v-35.5h.9c.8 0 1.5-.6 1.7-1.4.2-.8-.2-1.6-.9-2z"/><path class="st0" d="M326.9 233.5h5v6.8h-5zm0 10.4h5v6.1h-5zm0 9.7h5v5.7h-5zm8.7 0h4.7v5.7h-4.7zm0-9.7h4.7v6.1h-4.7zm-8.7 19h5v6.1h-5zm8.7 0h4.7v6.1h-4.7zm0-29.4h4.7v6.8h-4.7zm-39.9-9c-8.5 0-12.3 5.9-12.4 6.2-.3.6-.4 1.3 0 1.8.3.6.9.9 1.6.9h.5v35.5c-1 0-1.8.8-1.8 1.8s.8 1.8 1.8 1.8h20.5c1 0 1.8-.8 1.8-1.8s-.8-1.8-1.8-1.8v-35.5h.9c.7 0 1.3-.4 1.6-.9.3-.6.3-1.3 0-1.8-.4-.2-4.2-6.2-12.7-6.2z"/><path class="st0" d="M288.9 233.5h5v6.8h-5zm0 10.4h5v6.1h-5zm0 9.7h5v5.7h-5zm8.6 0h4.7v5.7h-4.7zm0-9.7h4.7v6.1h-4.7zm-8.6 19h5v6.1h-5zm8.6 0h4.7v6.1h-4.7zm0-29.4h4.7v6.8h-4.7zm-28.3-3.4l-10.9-5.7c-.5-.3-1.1-.3-1.7 0l-10.9 5.7c-.7.4-1.1 1.2-.9 2 .2.8.9 1.4 1.7 1.4h.7V269c-1 0-1.8.8-1.8 1.8s.8 1.8 1.8 1.8h20.5c1 0 1.8-.8 1.8-1.8s-.8-1.8-1.8-1.8v-35.5h.7c.8 0 1.5-.6 1.7-1.4.2-.8-.2-1.6-.9-2z"/><path class="st0" d="M250.8 233.5h5v6.8h-5zm0 10.4h5v6.1h-5zm0 9.7h5v5.7h-5zm8.6 0h4.7v5.7h-4.7zm0-9.7h4.7v6.1h-4.7zm-8.6 19h5v6.1h-5zm8.6 0h4.7v6.1h-4.7zm0-29.4h4.7v6.8h-4.7zm-40-9c-8.5 0-12.3 5.9-12.4 6.2-.3.6-.4 1.3 0 1.8.3.6.9.9 1.6.9h.7v35.5c-1 0-1.8.8-1.8 1.8s.8 1.8 1.8 1.8h20.5c1 0 1.8-.8 1.8-1.8s-.8-1.8-1.8-1.8v-35.5h.7c.7 0 1.3-.4 1.6-.9.3-.6.3-1.3 0-1.8-.4-.2-4.2-6.2-12.7-6.2z"/><path class="st0" d="M212.7 233.5h5v6.8h-5zm0 10.4h5v6.1h-5zm0 9.7h5v5.7h-5zm8.6 0h4.7v5.7h-4.7zm0-9.7h4.7v6.1h-4.7zm-8.6 19h5v6.1h-5zm8.6 0h4.7v6.1h-4.7zm0-29.4h4.7v6.8h-4.7zm64-15.1h20.5c1 0 1.8-.8 1.8-1.8s-.8-1.8-1.8-1.8v-27.3c0-1-.8-1.8-1.8-1.8h-16.9c-1 0-1.8.8-1.8 1.8v27.3c-1 0-1.8.8-1.8 1.8s.8 1.8 1.8 1.8z"/><path class="st0" d="M297.5 208.7h4.7v6.1h-4.7zm-8.6-9.7h5v6.1h-5zm8.6 0h4.7v6.1h-4.7zm0-9.7h4.7v6.1h-4.7zm-8.6 0h5v6.1h-5zm0 19.4h5v6.1h-5zm-41.7 9.7h20.5c1 0 1.8-.8 1.8-1.8s-.8-1.8-1.8-1.8v-27.3c0-1-.8-1.8-1.8-1.8H249c-1 0-1.8.8-1.8 1.8v27.3c-1 0-1.8.8-1.8 1.8s.8 1.8 1.8 1.8z"/><path class="st0" d="M259.4 208.7h4.7v6.1h-4.7zm-8.6-9.7h5v6.1h-5zm8.6 0h4.7v6.1h-4.7zm0-9.7h4.7v6.1h-4.7zm-8.6 0h5v6.1h-5zm0 19.4h5v6.1h-5zm-41.7 9.7h20.5c1 0 1.8-.8 1.8-1.8s-.8-1.8-1.8-1.8v-27.3c0-1-.8-1.8-1.8-1.8h-16.9c-1 0-1.8.8-1.8 1.8v27.3c-1 0-1.8.8-1.8 1.8s.8 1.8 1.8 1.8z"/><path class="st0" d="M221.3 208.7h4.7v6.1h-4.7zm-8.6-9.7h5v6.1h-5zm8.6 0h4.7v6.1h-4.7zm0-9.7h4.7v6.1h-4.7zm-8.6 0h5v6.1h-5zm0 19.4h5v6.1h-5z"/><path class="st0" d="M182.6 284.8c-2 0-3.6 1.6-3.6 3.6s1.6 3.6 3.6 3.6h503.2c2 0 3.6-1.6 3.6-3.6s-1.6-3.6-3.6-3.6h-11.5V173.5h5c2 0 3.6-1.6 3.6-3.6s-1.6-3.6-3.6-3.6h-2.9v-11.1c0-2-1.6-3.6-3.6-3.6H554.6v-10.8h1.1c1 0 1.8-.8 1.8-1.8s-.8-1.8-1.8-1.8h-16.9c-1 0-1.8.8-1.8 1.8s.8 1.8 1.8 1.8h1.1v10.8h-13.4c.2-.4.3-.9.3-1.4 0-1.5-1-2.8-2.3-3.4l-9.1-3.9v-16.8c0-1-.8-1.8-1.8-1.8h-10.4c-.9 0-1.6.6-1.8 1.4H476l-39.9-17.3v-28c.9.1 1.9.2 2.8.2 2.8 0 5.4-.5 7.9-1s4.8-1 7.2-1c1.5 0 2.8.2 4.2.5.5.2 1.1 0 1.6-.3.4-.3.7-.9.7-1.4V65.2c0-.8-.5-1.5-1.3-1.7-1.6-.5-3.3-.7-5.1-.7-2.8 0-5.4.5-7.9 1s-4.8 1-7.2 1c-1 0-1.9-.1-2.8-.3v-2.4c0-1-.8-1.8-1.8-1.8s-1.8.8-1.8 1.8v46.2l-39.9 17.3h-25.1c-.2-.8-.9-1.4-1.8-1.4h-10.4c-1 0-1.8.8-1.8 1.8v16.6l-9.6 4.2c-1.6.7-2.4 2.4-2.1 4 .1.2.1.5.2.7h-13.4v-10.8h1.1c1 0 1.8-.8 1.8-1.8s-.8-1.8-1.8-1.8h-16.9c-1 0-1.8.8-1.8 1.8s.8 1.8 1.8 1.8h1.1v10.8H195.8c-2 0-3.6 1.6-3.6 3.6v11.1h-2.9c-2 0-3.6 1.6-3.6 3.6s1.6 3.6 3.6 3.6h5v111.3h-11.7z"/><path class="st0" d="M194.4 173.5h155.7c.6.4 1.3.7 2 .8l.3 6.8-.9 94h-.9c-1.7 0-3.2 1.2-3.5 2.9l-.6 6.8"/><path class="st1" d="M324.1 158.8h2.9v7.5h-2.9zm-6.5 0h2.9v7.5h-2.9zm39.1-5.5h154.8v1.7H356.7z"/><path class="st0" d="M522.2 284.8l-.6-7.6c-.3-1.7-1.8-2.9-3.5-2.9h-.9l-.9-94 .7-6.1c.7-.1 1.4-.4 2-.8h155.2"/><path class="st1" d="M548.2 158.8h2.9v7.5h-2.9zm-6.5 0h2.9v7.5h-2.9zm-30.3 5v1.8h-3.3v-1.8z"/><path class="st0" d="M502.7 169.5c.1-.2.3-.3.5-.3h.2c.4.1.6.4.6.8s-.4.8-.8.8c-.3 0-.5-.1-.6-.3-.1-.1-.2-.3-.2-.5.1-.2.2-.4.3-.5zm14.1 0c.1.1.2.3.2.5s-.1.3-.2.5-.4.3-.6.3c-.4 0-.8-.4-.8-.8s.3-.7.6-.8h.2c.3 0 .5.1.6.3zm-50.9 1.2c-.4 0-.8-.4-.8-.8s.3-.7.6-.8h.2c.2 0 .4.1.5.3.1.1.2.3.2.5s-.1.3-.2.5c0 .2-.2.3-.5.3zm-13.5-1.2c.1-.2.3-.3.5-.3h.2c.4.1.6.4.6.8s-.4.8-.8.8c-.3 0-.5-.1-.6-.3-.1-.1-.2-.3-.2-.5.1-.2.2-.4.3-.5z"/><path class="st1" d="M461.1 165.6h-3.3v-1.8h3.3z"/><path class="st0" d="M415.6 170.7c-.4 0-.8-.4-.8-.8s.3-.7.6-.8h.2c.2 0 .4.1.5.3.1.1.2.3.2.5s-.1.3-.2.5c0 .2-.2.3-.5.3zm-13.5-1.2c.1-.2.3-.3.5-.3h.2c.4.1.6.4.6.8s-.4.8-.8.8c-.3 0-.5-.1-.6-.3-.1-.1-.2-.3-.2-.5.1-.2.2-.4.3-.5z"/><path class="st1" d="M410.8 165.6h-3.3v-1.8h3.3z"/><path class="st0" d="M365.7 170.7c-.4 0-.8-.4-.8-.8s.3-.7.6-.8h.2c.2 0 .4.1.5.3.1.1.2.3.2.5s-.1.3-.2.5c0 .2-.2.3-.5.3zm-12.9-1.5h.1c.4.1.6.4.6.8s-.4.8-.8.8c-.3 0-.5-.1-.6-.3-.1-.1-.2-.3-.2-.5s.1-.4.2-.5c.2-.2.4-.3.7-.3-.1 0 0 0 0 0z"/><path class="st1" d="M360.9 165.6h-3.3v-1.8h3.3z"/><path class="st0" d="M368.2 274.4h-.9l-.9-100.1c2.1-.3 3.7-2.1 3.7-4.3 0-2.2-1.7-4.1-3.8-4.3v-1.8h35.9v1.8c-2.1.3-3.8 2.1-3.8 4.3 0 2.2 1.6 4 3.7 4.3l-.9 100.1h-.9c-2 0-3.6 1.6-3.6 3.6v6.8h-24.8V278c-.1-2-1.7-3.6-3.7-3.6zm58.6-29.4l2.6 2.5h-3.6c.2-.9.6-1.7 1-2.5zm14.6-.1c.5.8.8 1.7 1 2.6h-3.8l2.8-2.6zm-5.6.4v-4.4c1.2.2 2.3.7 3.2 1.3l-3.2 3.1zm-3.6-.2l-2.9-2.8c.9-.6 1.9-1.1 2.9-1.3v4.1z"/><path class="st0" d="M444.4 251.1c1.1 0 1.9-.8 1.9-1.8v-.2c-.1-6.6-5.5-11.9-12.1-11.9-3.5 0-6.7 1.5-8.9 3.9-2 2.2-3.2 5-3.2 8.2 0 1 .8 1.8 1.8 1.8h.1v33.8h-2.2V278c0-2-1.6-3.6-3.6-3.6h-.9l-.9-100.1c2.1-.3 3.7-2.1 3.7-4.3 0-2.2-1.7-4.1-3.8-4.3v-1.8h36.2v1.8c-2.1.3-3.8 2.1-3.8 4.3 0 2.2 1.6 4 3.7 4.3l-.9 100.1h-.9c-2 0-3.6 1.6-3.6 3.6v6.8h-2.5v-33.7zm24 23.3h-.9l-.9-100.1c2.1-.3 3.7-2.1 3.7-4.3 0-2.2-1.7-4.1-3.8-4.3v-1.8h36.2v1.8c-2.1.3-3.8 2.1-3.8 4.3 0 2.2 1.6 4 3.7 4.3l-.9 100.1h-.9c-2 0-3.6 1.6-3.6 3.6v6.8H472V278c0-2-1.6-3.6-3.6-3.6zM657 158.8h12.2v7.5H657z"/><path class="st1" d="M650.5 158.8h2.9v7.5h-2.9zm-3.6 7.5h-2.8v-7.5h2.8zm-9.3-7.5h2.9v7.5h-2.9z"/><path class="st0" d="M622.9 158.8H634v7.5h-11.1z"/><path class="st1" d="M616.4 158.8h2.9v7.5h-2.9zm-6.5 0h2.9v7.5h-2.9zm-6.4 0h2.9v7.5h-2.9z"/><path class="st0" d="M588.8 158.8h11.1v7.5h-11.1z"/><path class="st1" d="M582.3 158.8h2.9v7.5h-2.9zm-6.5 0h2.9v7.5h-2.9zm-6.4 0h2.9v7.5h-2.9z"/><path class="st0" d="M554.6 158.8h11.1v7.5h-11.1z"/><path class="st1" d="M535.2 158.8h2.9v7.5h-2.9z"/><path class="st0" d="M531.6 158.8v7.5h-13c-.5-.4-1.2-.6-1.8-.7v-1.8h2c2 0 3.6-1.6 3.6-3.6 0-.5-.1-1-.3-1.4h9.5zM506 146.5h-8.8v-1.8c0-1-.8-1.8-1.8-1.8s-1.8.8-1.8 1.8v1.8H490v-1.8c0-1-.8-1.8-1.8-1.8s-1.8.8-1.8 1.8v1.8h-3.6v-1.8c0-1-.8-1.8-1.8-1.8s-1.8.8-1.8 1.8v1.8h-3.6v-1.8c0-1-.8-1.8-1.8-1.8s-1.8.8-1.8 1.8v1.8h-3.6v-1.8c0-1-.8-1.8-1.8-1.8s-1.8.8-1.8 1.8v1.8h-3.6v-1.8c0-1-.8-1.8-1.8-1.8s-1.8.8-1.8 1.8v1.8H454v-1.8c0-1-.8-1.8-1.8-1.8s-1.8.8-1.8 1.8v1.8h-3.6v-1.8c0-1-.8-1.8-1.8-1.8s-1.8.8-1.8 1.8v1.8h-3.6v-1.8c0-1-.8-1.8-1.8-1.8s-1.8.8-1.8 1.8v1.8h-3.6v-1.8c0-1-.8-1.8-1.8-1.8s-1.8.8-1.8 1.8v1.8h-3.6v-1.8c0-1-.8-1.8-1.8-1.8s-1.8.8-1.8 1.8v1.8H418v-1.8c0-1-.8-1.8-1.8-1.8s-1.8.8-1.8 1.8v1.8H411v-1.8c0-1-.8-1.8-1.8-1.8s-1.8.8-1.8 1.8v1.8h-3.6v-1.8c0-1-.8-1.8-1.8-1.8s-1.8.8-1.8 1.8v1.8h-3.6v-1.8c0-1-.8-1.8-1.8-1.8s-1.8.8-1.8 1.8v1.8h-3.6v-1.8c0-1-.8-1.8-1.8-1.8s-1.8.8-1.8 1.8v1.8h-3.6v-1.8c0-1-.8-1.8-1.8-1.8s-1.8.8-1.8 1.8v1.8H375v-1.8c0-1-.8-1.8-1.8-1.8s-1.8.8-1.8 1.8v1.8h-8.8l71.6-31.1 71.8 31.1zm-159.7 12.3c-.2.4-.3.9-.3 1.4 0 2 1.6 3.6 3.6 3.6h2.7v1.8c-.7.1-1.3.3-1.8.7H337v-7.5h9.3z"/><path class="st1" d="M330.5 158.8h2.9v7.5h-2.9z"/><path class="st0" d="M302.9 158.8H314v7.5h-11.1z"/><path class="st1" d="M296.4 158.8h2.9v7.5h-2.9zm-6.5 0h2.9v7.5h-2.9zm-6.4 0h2.9v7.5h-2.9z"/><path class="st0" d="M268.8 158.8h11.1v7.5h-11.1z"/><path class="st1" d="M262.3 158.8h2.9v7.5h-2.9zm-6.5 0h2.9v7.5h-2.9zm-6.4 0h2.9v7.5h-2.9z"/><path class="st0" d="M234.6 158.8h11.1v7.5h-11.1z"/><path class="st1" d="M228.2 158.8h2.9v7.5h-2.9zm-3.6 7.5h-2.9v-7.5h2.9zm-9.4-7.5h2.9v7.5h-2.9z"/><path class="st0" d="M199.4 158.8h12.2v7.5h-12.2zm474.8 126H194.4m290.4-57.7c-8.5 0-12.3 5.9-12.4 6.2-.3.6-.4 1.3 0 1.8.3.6.9.9 1.6.9h.7v35.5c-1 0-1.8.8-1.8 1.8s.8 1.8 1.8 1.8h20.5c1 0 1.8-.8 1.8-1.8s-.8-1.8-1.8-1.8V236h.7c1 0 1.8-.8 1.8-1.8 0-.4-.1-.8-.4-1.1-.9-1-4.7-6-12.5-6z"/><path class="st0" d="M478.1 236h4.7v6.8h-4.7zm0 10.4h4.7v6.1h-4.7zm0 9.7h4.7v5.7h-4.7zm8.3 0h5v5.7h-5zm0-9.7h5v6.1h-5zm-8.3 19h4.7v6.1h-4.7zm8.3 0h5v6.1h-5zm0-29.4h5v6.8h-5zm-112.8 0v35.5c-1 0-1.8.8-1.8 1.8s.8 1.8 1.8 1.8h20.5c1 0 1.8-.8 1.8-1.8s-.8-1.8-1.8-1.8V236h.7c1 0 1.8-.8 1.8-1.8 0-.4-.1-.8-.4-1.1-.7-1-4.5-6-12.3-6-8.5 0-12.3 5.9-12.4 6.2-.3.6-.4 1.3 0 1.8.3.6.9.9 1.6.9h.5z"/><path class="st0" d="M377.2 246.4h4.7v6.1h-4.7zm0 9.7h4.7v5.7h-4.7zm8.3 0h5v5.7h-5zm0-9.7h5v6.1h-5zm-8.3-10.4h4.7v6.8h-4.7zm0 29.4h4.7v6.1h-4.7zm8.3 0h5v6.1h-5zm0-29.4h5v6.8h-5zm62.1-14.7v-1.8c0-1-.8-1.8-1.8-1.8h-.4v-31.5c0-1-.8-1.8-1.8-1.8h-18.9c-1 0-1.8.8-1.8 1.8v31.5h-.8c-1 0-1.8.8-1.8 1.8v1.8c0 1 .8 1.8 1.8 1.8s1.8-.8 1.8-1.8H444c0 1 .8 1.8 1.8 1.8 1-.1 1.8-.9 1.8-1.8z"/><path class="st0" d="M426.4 199h5.7v7.5h-5.7zm9.4 0h6.1v7.5h-6.1zm0-11.1h6.1v7.5h-6.1zm-9.4 0h5.7v7.5h-5.7zm0 22.2h5.7v7.5h-5.7zm9.4 0h6.1v7.5h-6.1zm39.1 11.2H495c0 1 .8 1.8 1.8 1.8s1.8-.8 1.8-1.8v-1.8c0-1-.8-1.8-1.8-1.8h-.8v-31.5c0-1-.8-1.8-1.8-1.8h-19c-1 0-1.8.8-1.8 1.8v31.5h-.4c-1 0-1.8.8-1.8 1.8v1.8c0 1 .8 1.8 1.8 1.8 1.1-.1 1.9-.9 1.9-1.8z"/><path class="st0" d="M486.4 210.1h6.1v7.5h-6.1zm-9.3-11.1h5.7v7.5h-5.7zm9.3 0h6.1v7.5h-6.1zm0-11.1h6.1v7.5h-6.1zm-9.3 0h5.7v7.5h-5.7zm0 22.2h5.7v7.5h-5.7zm-103.5 11.2h20.1c0 1 .8 1.8 1.8 1.8s1.8-.8 1.8-1.8v-1.8c0-1-.8-1.8-1.8-1.8h-.4v-31.5c0-1-.8-1.8-1.8-1.8h-19c-1 0-1.8.8-1.8 1.8v31.5h-.8c-1 0-1.8.8-1.8 1.8v1.8c0 1 .8 1.8 1.8 1.8 1.1-.1 1.9-.9 1.9-1.8z"/><path class="st0" d="M385.5 210.1h6.1v7.5h-6.1zm-9.4-11.1h5.7v7.5h-5.7zm9.4 0h6.1v7.5h-6.1zm0-11.1h6.1v7.5h-6.1zm-9.4 0h5.7v7.5h-5.7zm0 22.2h5.7v7.5h-5.7zm47.8 74.7h20.5"/></svg>