<svg id="Layer_1" data-name="Layer 1" xmlns="http://www.w3.org/2000/svg" viewBox="0 0 900 375"><defs><style>.cls-1,.cls-2,.cls-6{fill:none}.cls-1,.cls-6{stroke:#333}.cls-1,.cls-2,.cls-3,.cls-4,.cls-6{stroke-miterlimit:10}.cls-1,.cls-2,.cls-3,.cls-4{stroke-width:5px}.cls-2,.cls-3,.cls-4{stroke:#010101}.cls-3{fill:#2cabe2}.cls-4{fill:#3f57a6}.cls-5{fill:#333}.cls-6{stroke-width:3px}</style></defs><title>Artboard 2</title><path class="cls-1" d="M361.6 91.9l-.2-.7-.5-.9-.5-.6-55.2-55.2-.6-.5-.9-.5-1.6-.3H137.5a4.3 4.3 0 0 0-4.3 4.3v287.6a4.3 4.3 0 0 0 4.3 4.3h219.9a4.3 4.3 0 0 0 4.3-4.3V92.7a8.2 8.2 0 0 0-.1-.8zm-63.7-50.1v50.9a4.3 4.3 0 0 0 4.3 4.3h49.3"/><path class="cls-1" d="M315.7 121.5H238a4.3 4.3 0 0 0-4.3 4.3v26.9a4.3 4.3 0 0 0 4.3 4.3h77.6a4.3 4.3 0 0 0 4.3-4.3v-26.9a4.3 4.3 0 0 0-4.2-4.3z"/><path class="cls-2" d="M315.7 185.9H238a4.3 4.3 0 0 0-4.3 4.3V217a4.3 4.3 0 0 0 4.3 4.3h77.6a4.3 4.3 0 0 0 4.4-4.3v-26.9a4.3 4.3 0 0 0-4.3-4.2z"/><path class="cls-3" d="M315.7 250.2H238a4.3 4.3 0 0 0-4.3 4.3v26.9a4.3 4.3 0 0 0 4.3 4.3h77.6a4.3 4.3 0 0 0 4.3-4.3v-26.9a4.3 4.3 0 0 0-4.2-4.3z"/><path class="cls-2" d="M207.5 185.9h-26.9a4.3 4.3 0 0 0-4.3 4.3V217a4.3 4.3 0 0 0 4.3 4.3h26.9a4.3 4.3 0 0 0 4.3-4.3v-26.9a4.3 4.3 0 0 0-4.3-4.2zM207.5 250.2h-26.9a4.3 4.3 0 0 0-4.3 4.3v26.9a4.3 4.3 0 0 0 4.3 4.3h26.9a4.3 4.3 0 0 0 4.3-4.3v-26.9a4.3 4.3 0 0 0-4.3-4.3z"/><path class="cls-4" d="M207.5 121.1h-26.9a4.3 4.3 0 0 0-4.3 4.3v26.9a4.3 4.3 0 0 0 4.3 4.3h26.9a4.3 4.3 0 0 0 4.3-4.3v-26.9a4.3 4.3 0 0 0-4.3-4.3z"/><path class="cls-1" d="M176.4 91.6h96.3M176.4 69.2h96.3"/><path class="cls-5" d="M748.1 268.4h6.7v-47.8h-8v-3.4h11.3v51.1h6.7v3.4h-16.7zM802.2 217.3v8.5h-3.4v-5.1h-17.3V239l2.8-.9a13.7 13.7 0 0 1 3-.3 18 18 0 0 1 12.5 5 18.1 18.1 0 0 1 3.8 5.5 16.1 16.1 0 0 1 1.4 6.7 16.5 16.5 0 0 1-1.4 6.8 18.5 18.5 0 0 1-3.8 5.6 17.7 17.7 0 0 1-5.6 3.8 17.2 17.2 0 0 1-6.8 1.4 16.6 16.6 0 0 1-6.6-1.3 18.7 18.7 0 0 1-5.5-3.6l2.6-2.3a13.9 13.9 0 0 0 4.3 2.8 13 13 0 0 0 5.2 1 13.8 13.8 0 0 0 5.6-1.1 14.6 14.6 0 0 0 7.6-7.6 13.3 13.3 0 0 0 1.1-5.4 13 13 0 0 0-1.1-5.4 14.4 14.4 0 0 0-13.2-8.5 14.1 14.1 0 0 0-5.4 1 9.6 9.6 0 0 0-3.9 2.8v-27.7z"/><path class="cls-5" d="M723.8 289.4v-2.8h100.9a1.7 1.7 0 0 0 1.7-1.7v-80.8H722.1v80.8a1.7 1.7 0 0 0 1.7 1.7v2.7a4.5 4.5 0 0 1-4.5-4.5v-82.1a1.4 1.4 0 0 1 1.4-1.4h107.1a1.4 1.4 0 0 1 1.4 1.4v82.2a4.5 4.5 0 0 1-4.5 4.5z"/><path class="cls-5" d="M720.7 204.1a1.4 1.4 0 0 1-1.4-1.4v-20.4a4.5 4.5 0 0 1 4.5-4.5 1.4 1.4 0 1 1 0 2.7 1.7 1.7 0 0 0-1.7 1.7v19h104.3v-19a1.7 1.7 0 0 0-1.7-1.7 1.4 1.4 0 1 1 0-2.7 4.5 4.5 0 0 1 4.5 4.5v20.4a1.4 1.4 0 0 1-1.4 1.4z"/><path class="cls-5" d="M749.8 186.3v-3.7a1.4 1.4 0 1 1 2.8 0v3.7a2.8 2.8 0 1 0 5.5 0v-3.7a1.4 1.4 0 1 1 2.7 0v3.7a5.5 5.5 0 1 1-11 0zM758.1 176v-3.8a2.8 2.8 0 1 0-5.5 0v3.8a1.4 1.4 0 0 1-2.7 0v-3.8a5.5 5.5 0 1 1 11 0v3.8a1.4 1.4 0 0 1-2.7 0zM769.1 186.3v-3.7a1.4 1.4 0 1 1 2.8 0v3.7a2.8 2.8 0 1 0 5.5 0v-3.7a1.4 1.4 0 1 1 2.7 0v3.7a5.5 5.5 0 1 1-11 0zM777.3 176v-3.8a2.8 2.8 0 1 0-5.5 0v3.8a1.4 1.4 0 0 1-2.7 0v-3.8a5.5 5.5 0 1 1 11 0v3.8a1.4 1.4 0 0 1-2.8 0zM788.3 186.3v-3.7a1.4 1.4 0 0 1 2.7 0v3.7a2.8 2.8 0 1 0 5.5 0v-3.7a1.4 1.4 0 0 1 2.7 0v3.7a5.5 5.5 0 1 1-11 0zM796.6 176v-3.8a2.8 2.8 0 1 0-5.5 0v3.8a1.4 1.4 0 0 1-2.8 0v-3.8a5.5 5.5 0 1 1 11 0v3.8a1.4 1.4 0 0 1-2.7 0zM807.6 186.3v-3.7a1.4 1.4 0 0 1 2.8 0v3.7a2.8 2.8 0 1 0 5.5 0v-3.7a1.4 1.4 0 0 1 2.7 0v3.7a5.5 5.5 0 1 1-11 0zM815.8 176v-3.8a2.8 2.8 0 1 0-5.5 0v3.8a1.4 1.4 0 0 1-2.8 0v-3.8a5.5 5.5 0 1 1 11 0v3.8a1.4 1.4 0 0 1-2.7 0zM730.6 186.3v-3.7a1.4 1.4 0 1 1 2.8 0v3.7a2.8 2.8 0 1 0 5.5 0v-3.7a1.4 1.4 0 1 1 2.7 0v3.7a5.5 5.5 0 1 1-11 0zM738.8 176v-3.8a2.8 2.8 0 1 0-5.5 0v3.8a1.4 1.4 0 0 1-2.8 0v-3.8a5.5 5.5 0 1 1 11 0v3.8a1.4 1.4 0 0 1-2.7 0zM412.6 289.4v-2.8h100.9a1.7 1.7 0 0 0 1.7-1.7v-84.8H410.9v84.8a1.7 1.7 0 0 0 1.7 1.7v2.7a4.5 4.5 0 0 1-4.5-4.5v-86.1a1.4 1.4 0 0 1 1.4-1.4h107.1a1.4 1.4 0 0 1 1.4 1.4v86.2a4.5 4.5 0 0 1-4.5 4.5z"/><path class="cls-5" d="M456 211.4l-4.2-2.2-3.5-1.2-3.7 2.8a1.4 1.4 0 0 1-1 .3l-4.3-.6-.5-.2-4-2.2h-3.5l-3.9 3a1.4 1.4 0 0 1-1.4.2l-3.7-1.6-3.7 1.8a1.4 1.4 0 0 1-.9.1l-4.3-1.1-4.3-1.1a1.4 1.4 0 0 1 .7-2.7l4.3 1.1 3.8 1 3.8-1.8a1.4 1.4 0 0 1 1.2 0l3.5 1.6 3.6-2.8a1.4 1.4 0 0 1 .9-.3h4.3l.6.2 4.1 2.2 3.5.5 3.8-2.9a1.4 1.4 0 0 1 1.3-.2l4.3 1.5h.2l3.6 1.9 3.6-1.9a1.4 1.4 0 0 1 1.2-.1l3.9 1.6 3.9-.6h.4l4 .7 4-.9h4.4l4-2.2a1.4 1.4 0 0 1 1.2 0l3.7 1.7 3.7-1.7h.7l4.3.5h.2l4 1.1 4-.6h4.5l.6.2 4.3 2.3a1.4 1.4 0 0 1-1.3 2.4l-4-2.2h-3.8l-4.2.6h-.6l-4.2-1.1-3.8-.4-3.9 1.8a1.4 1.4 0 0 1-1.2 0l-3.7-1.7-3.7 2-.7.2H478l-4.1.9h-.5l-4.1-.7-4.1.6h-.7l-3.7-1.5-3.7 2-.6.2zM427.9 185a7.1 7.1 0 1 1 7.1 7.1 7.2 7.2 0 0 1-7.1-7.1zm2.8 0a4.4 4.4 0 1 0 4.4-4.4 4.4 4.4 0 0 0-4.4 4.4z"/><path class="cls-5" d="M409.5 200.1a1.4 1.4 0 0 1-1.4-1.4v-24.4a4.5 4.5 0 0 1 4.5-4.5v2.7a1.7 1.7 0 0 0-1.7 1.7v23h104.3v-23a1.7 1.7 0 0 0-1.7-1.7H412.6v-2.8h100.9a4.5 4.5 0 0 1 4.5 4.5v24.4a1.4 1.4 0 0 1-1.4 1.4z"/><path class="cls-5" d="M483.9 185a7.1 7.1 0 1 1 7.1 7.1 7.1 7.1 0 0 1-7.1-7.1zm2.7 0a4.4 4.4 0 1 0 4.4-4.4 4.4 4.4 0 0 0-4.3 4.4zM447.5 235a3 3 0 0 1-3-3v-8.9a3 3 0 0 1 3-3h8.9a3 3 0 0 1 3 3v8.9a3 3 0 0 1-3 3zm-.2-11.9v8.9a.2.2 0 0 0 .2.2h8.9a.2.2 0 0 0 .2-.2v-8.9a.2.2 0 0 0-.2-.2h-8.9a.2.2 0 0 0-.2.2zM469.7 235a3 3 0 0 1-3-3v-8.9a3 3 0 0 1 3-3h8.9a3 3 0 0 1 3 3v8.9a3 3 0 0 1-3 3zm-.2-11.9v8.9a.2.2 0 0 0 .2.2h8.9a.2.2 0 0 0 .2-.2v-8.9a.2.2 0 0 0-.2-.2h-8.9a.2.2 0 0 0-.2.2zM491.8 235a3 3 0 0 1-3-3v-8.9a3 3 0 0 1 3-3h8.9a3 3 0 0 1 3 3v8.9a3 3 0 0 1-3 3zm-.2-11.9v8.9a.2.2 0 0 0 .2.2h8.9a.2.2 0 0 0 .2-.2v-8.9a.2.2 0 0 0-.2-.2h-8.9a.2.2 0 0 0-.2.2zM447.5 256.3a3 3 0 0 1-3-3v-8.9a3 3 0 0 1 3-3h8.9a3 3 0 0 1 3 3v8.9a3 3 0 0 1-3 3zm-.2-11.9v8.9a.2.2 0 0 0 .2.2h8.9a.2.2 0 0 0 .2-.2v-8.9a.2.2 0 0 0-.2-.2h-8.9a.2.2 0 0 0-.2.2zM491.8 256.3a3 3 0 0 1-3-3v-8.9a3 3 0 0 1 3-3h8.9a3 3 0 0 1 3 3v8.9a3 3 0 0 1-3 3zm-.2-11.9v8.9a.2.2 0 0 0 .2.2h8.9a.2.2 0 0 0 .2-.2v-8.9a.2.2 0 0 0-.2-.2h-8.9a.2.2 0 0 0-.2.2zM469.7 256.3a3 3 0 0 1-3-3v-8.9a3 3 0 0 1 3-3h8.9a3 3 0 0 1 3 3v8.9a3 3 0 0 1-3 3zm-.2-11.9v8.9a.2.2 0 0 0 .2.2h8.9a.2.2 0 0 0 .2-.2v-8.9a.2.2 0 0 0-.2-.2h-8.9a.2.2 0 0 0-.2.2zM447.5 277.6a3 3 0 0 1-3-3v-8.9a3 3 0 0 1 3-3h8.9a3 3 0 0 1 3 3v8.9a3 3 0 0 1-3 3zm-.2-11.9v8.9a.2.2 0 0 0 .2.2h8.9a.2.2 0 0 0 .2-.2v-8.9a.2.2 0 0 0-.2-.2h-8.9a.2.2 0 0 0-.2.2zM469.7 277.6a3 3 0 0 1-3-3v-8.9a3 3 0 0 1 3-3h8.9a3 3 0 0 1 3 3v8.9a3 3 0 0 1-3 3zm-.2-11.9v8.9a.2.2 0 0 0 .2.2h8.9a.2.2 0 0 0 .2-.2v-8.9a.2.2 0 0 0-.2-.2h-8.9a.2.2 0 0 0-.2.2zM425.4 256.3a3 3 0 0 1-3-3v-8.9a3 3 0 0 1 3-3h8.9a3 3 0 0 1 3 3v8.9a3 3 0 0 1-3 3zm-.2-11.9v8.9a.2.2 0 0 0 .2.2h8.9a.2.2 0 0 0 .2-.2v-8.9a.2.2 0 0 0-.2-.2h-8.9a.2.2 0 0 0-.2.2zM425.4 277.6a3 3 0 0 1-3-3v-8.9a3 3 0 0 1 3-3h8.9a3 3 0 0 1 3 3v8.9a3 3 0 0 1-3 3zm-.2-11.9v8.9a.2.2 0 0 0 .2.2h8.9a.2.2 0 0 0 .2-.2v-8.9a.2.2 0 0 0-.2-.2h-8.9a.2.2 0 0 0-.2.2zM568.2 289.4v-2.7h100.9a1.7 1.7 0 0 0 1.7-1.7v-80.9H566.5v80.8a1.7 1.7 0 0 0 1.7 1.7v2.7a4.5 4.5 0 0 1-4.5-4.5v-82.1a1.4 1.4 0 0 1 1.4-1.4h107.1a1.4 1.4 0 0 1 1.4 1.4v82.2a4.5 4.5 0 0 1-4.5 4.5zM583.5 189a7.1 7.1 0 1 1 7.1 7.1 7.1 7.1 0 0 1-7.1-7.1zm2.8 0a4.4 4.4 0 1 0 4.4-4.4 4.4 4.4 0 0 0-4.5 4.4z"/><path class="cls-5" d="M565.1 204.1a1.4 1.4 0 0 1-1.4-1.4v-24.4a4.5 4.5 0 0 1 4.5-4.5h15.3a1.4 1.4 0 0 1 0 2.7h-15.3a1.7 1.7 0 0 0-1.7 1.7v23h104.3v-23a1.7 1.7 0 0 0-1.7-1.7h-15.3a1.4 1.4 0 1 1 0-2.7h15.3a4.5 4.5 0 0 1 4.5 4.5v24.4a1.4 1.4 0 0 1-1.4 1.4z"/><path class="cls-5" d="M597.8 176.6a1.4 1.4 0 0 1 0-2.8h41.7a1.4 1.4 0 1 1 0 2.8zM589.3 183.2v-14.8a1.4 1.4 0 0 1 2.8 0v14.7a1.4 1.4 0 0 1-2.8 0zM639.5 189a7.1 7.1 0 1 1 7.1 7.1 7.2 7.2 0 0 1-7.1-7.1zm2.7 0a4.4 4.4 0 1 0 4.4-4.4 4.4 4.4 0 0 0-4.3 4.4z"/><path class="cls-5" d="M645.3 183.2v-14.8a1.4 1.4 0 1 1 2.8 0v14.7a1.4 1.4 0 1 1-2.8 0zM578.8 269.2v-4.6a14.1 14.1 0 0 0 3.5.5q2.1 0 2.8-1.2t.7-4.7V231h-4.2v-4.1h13.3v4.1h-4.2v28.5a21.4 21.4 0 0 1-.6 5.6 5.9 5.9 0 0 1-2.6 3.3 9 9 0 0 1-5 1.4 12.7 12.7 0 0 1-3.7-.6zM617.8 248H606l-2.5 7.4h4v4.1h-12.8v-4.1h3.9l8.9-24.8h-3.9v-3.7h16.7v3.7h-4.1l9.1 24.8h3.6v4.1h-12.7v-4.1h4.1zm-1.2-3.8l-4.3-13.6h-.4l-4.5 13.6z"/><path class="cls-5" d="M633.5 255.4V231h-4.7v-4.1h11.1l14.3 25.3V231h-4.6v-4.1H663v4.1h-4.8v28.9h-5.1L637.5 232v23.4h4.7v4.1h-13.4v-4.1z"/><path class="cls-6" d="M362 119h412.1v31.6M621.1 119v31.6M466.7 119v31.6"/><path class="cls-5" d="M443.9 312.9h-2.8l-2.2-8.8-2.1 8.8h-2.9l-3.4-12.9h2.8l2 8.8 2.2-8.7h2.6l2.2 8.9 2.1-8.9h2.8zM448.7 300h2.8v12.9h-2.8zM456.8 302.4H453V300h10.5v2.4h-3.9v10.5h-2.8zM465 300h2.8v4.9h5.2V300h2.8v12.9H473v-5.5h-5.2v5.5H465zM478.3 300h2.8v12.9h-2.8zM483.6 300h2.8l5.4 8.6V300h2.6v12.9h-2.8l-5.3-8.6v8.6h-2.6zM430.6 326.9c1.1.1 2.7-.1 2.7-1.6a1.7 1.7 0 0 0-1.8-1.7 2 2 0 0 0-1.9 2.3h-2.4a4.2 4.2 0 0 1 4.4-4.4c2 0 4.2 1.2 4.2 3.5a2.5 2.5 0 0 1-1.8 2.6 2.8 2.8 0 0 1 2.2 2.9c0 2.6-2.2 4.1-4.7 4.1s-4.7-1.7-4.7-4.6h2.4c.1 1.4.7 2.5 2.2 2.5a1.9 1.9 0 0 0 2.1-2c0-1.9-1.7-1.9-2.9-1.9zM441.5 321.6c2.5 0 4.6 1.6 4.6 6.5s-2.1 6.6-4.6 6.6-4.6-1.6-4.6-6.6 2.2-6.5 4.6-6.5zm0 11c2.1 0 2.1-3.1 2.1-4.5s0-4.4-2.1-4.4-2.1 3.1-2.1 4.4.1 4.5 2.1 4.5zM452.8 321.6h5.5c3.3 0 5.8 2.1 5.8 6.4s-1.9 6.5-5.8 6.5h-5.5zm2.8 10.5h2.5c1.6 0 3.2-1 3.2-3.9s-.9-4.2-3.7-4.2h-2zM469.7 321.6h2.9l4.8 12.9h-2.9l-1-2.9h-4.8l-1 2.9h-2.9zm-.3 7.9h3.3l-1.6-4.7zM480.5 329.4l-4.7-7.8h3.2l3 5.1 3-5.1h3.2l-4.8 7.9v4.9h-2.8zM491.1 330.2c0 1.7 1.3 2.4 2.8 2.4s2.5-.3 2.5-1.6-1.9-1.6-3.8-2.1-3.8-1.2-3.8-3.7 2.5-3.9 4.8-3.9 5.1 1.2 5.1 4.1H496c-.1-1.5-1.2-1.9-2.5-1.9s-1.9.4-1.9 1.5.6 1.1 3.8 1.9c.9.2 3.8.8 3.8 3.7s-1.9 4.1-5.3 4.1-5.5-1.4-5.5-4.6zM576.2 320.9h-2.6v-8.2h-3.2v-1.9c1.8 0 3.4-.6 3.7-2.5h2zM582.1 317.8c0 1.1 1 1.6 2 1.6s1.7-.3 1.7-1.2-1.1-1-2.9-1.4-3-.8-3-2.5 2.1-3 4.1-3 3.9.7 4.1 3h-2.4c-.1-1-.8-1.3-1.7-1.3s-1.4.1-1.4.9 1.4 1 2.9 1.4 3 .9 3 2.6-2.1 3.2-4.2 3.2-4.3-.8-4.4-3.3zM593 311.5h1.9v1.7H593v4.6c0 .9.2 1.1 1.1 1.1h.8v2h-1.5c-1.6 0-2.9-.4-2.9-2.2v-5.5H589v-1.7h1.5v-2.8h2.5zM601.4 308h4l3 8.8 2.8-8.8h4v12.9h-2.6v-9.1l-3.2 9.1h-2.2l-3.2-9v9h-2.6zM623.5 307.7c4 0 6.3 3 6.3 6.8s-2.3 6.7-6.3 6.7-6.3-3-6.3-6.7 2.3-6.8 6.3-6.8zm0 11.1c2.5 0 3.5-2.2 3.5-4.3s-1-4.4-3.5-4.4-3.5 2.2-3.5 4.4.9 4.3 3.5 4.3zM631.7 308h2.8l5.4 8.6V308h2.6v12.9h-2.8l-5.3-8.6v8.6h-2.6zM647.9 310.4H644V308h10.5v2.4h-3.9v10.5h-2.8zM656.1 308h2.8v4.9h5.2V308h2.8v12.9h-2.8v-5.5h-5.2v5.5h-2.8zM724.9 308h4l3 8.8 2.8-8.8h4v12.9h-2.6v-9.1l-3.2 9.1h-2.2l-3.2-9v9h-2.6zM741.2 308h2.8v12.9h-2.8zM746.5 308h5.5c3.3 0 5.8 2.1 5.8 6.4s-1.9 6.5-5.8 6.5h-5.5zm2.8 10.5h2.5c1.6 0 3.2-1 3.2-3.9s-.9-4.2-3.7-4.2h-2zM759.5 314.8h5.5v2.2h-5.4zM767.2 308h4l3 8.8 2.8-8.8h4v12.9h-2.6v-9.1l-3.2 9.1H773l-3.2-9v9h-2.6zM789.2 307.7c4 0 6.3 3 6.3 6.8s-2.3 6.7-6.3 6.7-6.3-3-6.3-6.7 2.4-6.8 6.3-6.8zm0 11.1c2.5 0 3.5-2.2 3.5-4.3s-1-4.4-3.5-4.4-3.5 2.2-3.5 4.4 1 4.3 3.5 4.3zM797.5 308h2.8l5.4 8.6V308h2.6v12.9h-2.8l-5.3-8.6v8.6h-2.6zM813.7 310.4h-3.9V308h10.5v2.4h-3.9v10.5h-2.8zM821.8 308h2.8v4.9h5.2V308h2.8v12.9h-2.8v-5.5h-5.2v5.5h-2.8z"/></svg>