<svg id="Layer_1" data-name="Layer 1" xmlns="http://www.w3.org/2000/svg" viewBox="0 0 900 375"><defs><style>.cls-1,.cls-2{fill:none;}.cls-1,.cls-2,.cls-3{stroke:#333;stroke-width:3px;}.cls-2{stroke-miterlimit:10;}.cls-3{fill:#3f57a6;}</style></defs><title>c-520-3</title><g id="World_Map" data-name="World Map"><path class="cls-1" d="M664.6,246.7l-20.7-.2a3.2,3.2,0,0,0-3.3,3.6l1.9,15.3a6.8,6.8,0,0,0,4.6,5.6,2.4,2.4,0,0,1,1.2,3.7L640,286.1a21.3,21.3,0,0,0-2.1,3.4L630,306.2a3.1,3.1,0,0,1-2.3,1.7l-7.9,1.4a3.1,3.1,0,0,1-3.5-1.9L612,297.3a11,11,0,0,1-.9-4l-.4-15.1a1.7,1.7,0,0,0-1.8-1.7l-16.7.9a4.4,4.4,0,0,1-3.7-1.7l-5.3-6.7a4.4,4.4,0,0,1-.7-4.4l6.5-16.2a4.4,4.4,0,0,1,3.5-2.7l17-2.5a2.7,2.7,0,0,1,2,.5l8.4,6.1a2.7,2.7,0,0,0,3,.1l4.8-3a2.7,2.7,0,0,0,1.2-1.5l3.4-11.7a1.7,1.7,0,0,0,0-1l-2.1-5.9a1.7,1.7,0,0,0-2.4-.9l-5,3a1.7,1.7,0,0,1-2.5-.9l-1.7-5.1a1.7,1.7,0,0,0-1.3-1.1l-4.5-.7a2.7,2.7,0,0,0-1.7.3l-7.5,4a2.7,2.7,0,0,0-1.3,1.6l-1.3,4.4a2.7,2.7,0,0,1-2.6,1.9H586.2a2.7,2.7,0,0,1-2.7-3.1l1.4-9.5a2.7,2.7,0,0,1,1.8-2.1l10.1-3.4a2.7,2.7,0,0,0,1.2-4.3l-2.4-2.8a2.7,2.7,0,0,1,1.1-4.3l7.5-3,10.3-7.5a5.9,5.9,0,0,1,5-.9l10.5,2.8a10.8,10.8,0,0,0,3.7.3l13.2-1.1a10.8,10.8,0,0,0,6-2.5l11.6-9.8"/><path class="cls-1" d="M580.8,178.3l1.6,11a2.7,2.7,0,0,1-.2,1.6l-3.5,7.4a2.7,2.7,0,0,1-1.7,1.4,2.6,2.6,0,0,1-2.2-.5l-5.1-3.8a2.6,2.6,0,0,1-1-1.6l-2.8-14.6"/><path class="cls-1" d="M510.4,176.8l20.8,20.3a2.4,2.4,0,0,0,2.4.6l13.4-4.3a2.4,2.4,0,0,1,1.6,0l7.7,2.9a2.4,2.4,0,0,1,1.6,2.3v9.5a2.4,2.4,0,0,1-1.7,2.3l-11.5,3.5a2.4,2.4,0,0,0-1.2.9l-6.9,10.4a2.4,2.4,0,0,0-.5,1.7l1.9,9.5a2.7,2.7,0,0,1-4.5,2.5l-6.9-6.4a2.4,2.4,0,0,0-2-1.2h-4.4a2.4,2.4,0,0,0-2.4,2.4V240a2.4,2.4,0,0,0,.5,1.4l6.3,7.6.6.6,5.8,4.1a2.4,2.4,0,0,0,2,.3l10.5-1.5a2.4,2.4,0,0,1,2.1.4l8.4,7.9.5.3,13.7,5.9a2.4,2.4,0,0,1,1.4,3l-6.1,28.8-.3.5-11.6,15.6a2.4,2.4,0,0,1-4.1-.1l-5.8-12a2.4,2.4,0,0,1-.3-1.1l-1.6-12.9a2.4,2.4,0,0,0-.8-1.7l-15.9-10.6a3,3,0,0,1-1.3-2.2l-1.1-11.4a3,3,0,0,0-1-1.9l-10.6-9.5a5.6,5.6,0,0,1-1.2-1.5l-5.4-10.1"/><path class="cls-1" d="M687.8,314.8v-138A14.8,14.8,0,0,0,673,162a21.4,21.4,0,0,0-7.8,2.3,1.2,1.2,0,0,0-.6,1V300.7a1.2,1.2,0,0,0,1.6,1.1A33.9,33.9,0,0,1,673,300a14.8,14.8,0,0,1,0,29.6H503.7a1.2,1.2,0,0,1-1.2-1.2V177.9a1.2,1.2,0,0,1,1.2-1.2H664.6"/></g><path class="cls-2" d="M400.9,65.4q0-9.5,5.9-15.8a21,21,0,0,1,30,0q5.9,6.3,5.9,16.2V71a22.1,22.1,0,0,1-5.8,15.6A19.4,19.4,0,0,1,422,92.9a20.1,20.1,0,0,1-15-6.2q-6-6.2-6-16.3ZM408,71a16.7,16.7,0,0,0,3.8,11.2A12.7,12.7,0,0,0,422,86.6a12.3,12.3,0,0,0,9.9-4.4q3.7-4.4,3.7-11.5V65.3a16.7,16.7,0,0,0-3.8-11.3,13.4,13.4,0,0,0-19.9,0Q408,58.4,408,65.8Zm16.7,71.7-5.5-3.5,52.1-83.4,5.5,3.5Zm29.9-17.3q0-9.5,5.9-15.7a19.7,19.7,0,0,1,14.9-6.2,19.9,19.9,0,0,1,15,6.2q6,6.2,6,16.3v5.2q0,9.5-5.9,15.7a19.6,19.6,0,0,1-14.9,6.2,19.9,19.9,0,0,1-15-6.2q-6-6.2-6-16.1Zm7,5.7a16.8,16.8,0,0,0,3.8,11.3,12.7,12.7,0,0,0,10.1,4.4,12.3,12.3,0,0,0,10-4.4q3.7-4.4,3.7-11.6v-5.4q0-7-3.8-11.3a13.8,13.8,0,0,0-20,0q-3.8,4.3-3.8,11.6Z"/><path class="cls-1" d="M366.7,162.1A67.8,67.8,0,0,0,314.5,138a75.6,75.6,0,0,0-17.8,2.2c-39.3,9.6-50,43.7-54.6,58.3a41.7,41.7,0,0,1-2,4.8c-1.5,3.3-3,6.6-1.9,10.2a7.3,7.3,0,0,0,4.2,4.3h.3a13.5,13.5,0,0,1-.3,4.6c-.3,1.8-2.3,5.1-4.1,8-3.8,6.4-7.8,13-5.4,18.7s5.5,5.4,7.5,5.4a14.2,14.2,0,0,0,4-.7,14.5,14.5,0,0,1-1.2,2.2,4.6,4.6,0,0,0-.6,4.1,11.3,11.3,0,0,0,2.9,4.5,5.8,5.8,0,0,0,0,5.1,6.7,6.7,0,0,0,3.8,3.2c-.7,8.4,1.7,17.6,10.5,20.3,2.8.8,6.5.3,10-.3a34.9,34.9,0,0,1,5.5-.7c1.9,0,2.3.5,2.3.5,1.2,2.4-.9,13.7-4.4,23.8a4.6,4.6,0,0,0,4.4,6.1h73.6a4.6,4.6,0,0,0,3-8.1c-.1-.1-11.5-10.3-7.1-27.9,2.1-8.6,8.2-18.2,14.6-28.5,8.3-13.3,16.9-27,19.5-41.8A66.6,66.6,0,0,0,366.7,162.1Z"/><path class="cls-1" d="M347.6,194l-5.6-2.3-.2-.4,2.3-5.6a6.8,6.8,0,0,0-.9-7.5l-.2-.2-4.6-4.6-.2-.2a7,7,0,0,0-7.5-.9l-5.6,2.3-.4-.2-2.3-5.6a7,7,0,0,0-5.8-4.8l-3.7-.2-3.7.2a7,7,0,0,0-5.8,4.8l-2.3,5.6-.4.2-5.6-2.3a7,7,0,0,0-7.5.9l-.2.2-4.6,4.6-.2.2a6.8,6.8,0,0,0-.9,7.5l2.3,5.6-.2.4-5.6,2.3a7,7,0,0,0-4.8,5.8c0,.1-.2,1.8-.2,3.7s.2,3.6.2,3.7a7,7,0,0,0,4.8,5.8l5.6,2.3.2.4-2.3,5.6a6.8,6.8,0,0,0,.9,7.5l.2.2,4.6,4.6.2.2a7,7,0,0,0,7.5.9l5.6-2.3.4.2,2.3,5.6a7,7,0,0,0,5.8,4.8l3.7.2,3.7-.2a7,7,0,0,0,5.8-4.8l2.3-5.6.4-.2,5.6,2.3a6.7,6.7,0,0,0,3.1.8h0a6.7,6.7,0,0,0,4.4-1.6l.2-.2,4.6-4.6.2-.2a6.8,6.8,0,0,0,.9-7.5l-2.3-5.6.2-.4,5.6-2.3a7,7,0,0,0,4.8-5.8c0-.1.2-1.8.2-3.7s-.2-3.6-.2-3.7A7,7,0,0,0,347.6,194Z"/><path class="cls-1" d="M312.9,187.7a15.7,15.7,0,1,0,15.7,15.7A15.7,15.7,0,0,0,312.9,187.7Z"/><path class="cls-3" d="M650.1,146.3c0,22.2-40.2,65.7-40.2,65.7,0,2.6-40.2-43.5-40.2-65.7a40.2,40.2,0,0,1,80.3,0Zm-40.2-20.2a18.6,18.6,0,1,0,18.6,18.6A18.6,18.6,0,0,0,609.9,126.1Z"/></svg>