<svg xmlns="http://www.w3.org/2000/svg" viewBox="0 0 520 225"><defs><style>.a{fill:none;stroke:#3f57a6;stroke-linejoin:bevel;stroke-width:4px}</style></defs><title>c-530</title><path class="a" d="M256.35 148.94l-24.45 67.18-15.63-24.82-29.27 8.48 23.15-63.59m50.36 11.34l24.97 68.59 15.63-24.82 29.26 8.48-22.09-60.69"/><path class="a" d="M329.27 109.21l-6.46-18.71L333.54 74l-14.38-13.56L321 40.86l-19-5.33-7.54-18.17-19.27 4.11L260 8.88l-15.13 12.59-19.3-4.1-7.5 18.18-19 5.34 1.84 19.58L186.46 74l10.77 16.48-6.48 18.72 17.25 9.64 2.92 19.58 19.74.49 11.66 16 17.68-8.77 17.71 8.73 11.68-16 19.71-.5 2.95-19.59z"/><circle class="a" cx="259.75" cy="84" r="44.96"/></svg>