<svg id="Layer_1" data-name="Layer 1" xmlns="http://www.w3.org/2000/svg" viewBox="0 0 900 375"><defs><style>.cls-1,.cls-2{fill:#231f20}.cls-2{font-size:61.1px;font-family:AvenirLTStd-Light,Avenir LT Std}.cls-3,.cls-4{fill:none;stroke:#231f20;stroke-miterlimit:10}.cls-3{stroke-width:2px}.cls-4{stroke-width:3px}</style></defs><title>Artboard 1</title><path class="cls-1" d="M615.1 208.6a3.1 3.1 0 0 0-3.2-2.5c-2.9 0-4 2.4-4 5s1.1 4.9 4 4.9 3.1-1.3 3.3-3.3h3.1a6.1 6.1 0 0 1-6.4 5.9c-4.5 0-7.1-3.4-7.1-7.6s2.6-7.7 7.1-7.7 5.9 1.9 6.3 5.2zM620.2 203.7h2.9v14.5h-2.9zM628.4 206.1h-2.9v-2.4h2.9zm-2.9 1.6h2.9v10.5h-2.9zM633 213.7c.1 1.8 1 2.7 2.6 2.7a2.4 2.4 0 0 0 2.3-1.4h2.5a4.7 4.7 0 0 1-4.9 3.5c-3.3 0-5.4-2.3-5.4-5.5a5.3 5.3 0 0 1 5.4-5.6c3.6 0 5.3 3 5.1 6.3zm4.7-1.8c-.3-1.5-.9-2.2-2.3-2.2a2.3 2.3 0 0 0-2.4 2.2zM642.3 207.7h2.8v1.5h.1a3.8 3.8 0 0 1 3.2-1.8c3.1 0 3.8 1.7 3.8 4.3v6.5h-2.9v-5.9c0-1.7-.5-2.6-1.9-2.6s-2.2.9-2.2 3v5.5h-2.9zM658.1 207.7h2.1v1.9h-2.1v5.2c0 1 .2 1.2 1.2 1.2h.9v2.3h-1.7c-1.8 0-3.3-.4-3.3-2.5v-6.2h-1.8v-1.9h1.8v-3.2h2.9zM617.5 230.3a3.1 3.1 0 0 0-3.2-2.5c-2.9 0-4 2.4-4 5s1.1 4.9 4 4.9 3.1-1.3 3.3-3.3h3.1a6.1 6.1 0 0 1-6.4 5.9c-4.5 0-7.1-3.4-7.1-7.6s2.6-7.7 7.1-7.7 5.9 1.9 6.3 5.2zM627.7 229.1a5.6 5.6 0 1 1-5.4 5.6c-.1-3.4 2.1-5.6 5.4-5.6zm0 8.9c2 0 2.6-1.7 2.6-3.4s-.6-3.4-2.6-3.4-2.5 1.7-2.5 3.4.5 3.4 2.5 3.4zM642.5 238.6a3.5 3.5 0 0 1-3.2 1.6c-3.2 0-4.7-2.7-4.7-5.6s1.6-5.5 4.7-5.5a3.6 3.6 0 0 1 3.1 1.6v-5.3h2.9v14.5h-2.7zm-2.5-7.3c-1.9 0-2.5 1.6-2.5 3.4s.8 3.4 2.5 3.4 2.5-1.7 2.5-3.4-.6-3.4-2.5-3.4zM649.8 235.3c.1 1.8 1 2.7 2.6 2.7a2.4 2.4 0 0 0 2.3-1.4h2.5a4.7 4.7 0 0 1-4.9 3.5c-3.3 0-5.4-2.3-5.4-5.5a5.3 5.3 0 0 1 5.4-5.6c3.6 0 5.3 3 5.1 6.3zm4.7-1.8c-.3-1.5-.9-2.2-2.3-2.2a2.3 2.3 0 0 0-2.4 2.2z"/><text class="cls-2" transform="translate(586.7 188)">001</text><path class="cls-3" d="M332.6 191h219.9"/><path class="cls-1" d="M549.6 201l17.2-10-17.2-10v20z"/><path class="cls-4" d="M281.8 178.6v-29.3a6.6 6.6 0 0 0-6.6-6.7h-69.8a6.9 6.9 0 0 0-6.9 6.7v42.8a6.9 6.9 0 0 0 6.9 6.8h6.6M198.4 156.1h83.4M198.4 169.6h83.4"/><path class="cls-4" d="M293.3 239.5a6.6 6.6 0 0 0 6.6-6.8v-42.8a6.6 6.6 0 0 0-6.6-6.7h-69.9a6.9 6.9 0 0 0-6.9 6.7v42.8a6.9 6.9 0 0 0 6.9 6.8zM225.5 226h11.2M243.5 226h11.3M261.5 226h11.3M279.6 226h11.2"/><rect class="cls-4" x="227.7" y="196.7" width="20.3" height="13.53" rx="2" ry="2"/></svg>