<svg id="Layer_1" data-name="Layer 1" xmlns="http://www.w3.org/2000/svg" viewBox="0 0 540 415.3"><defs><style>.cls-1,.cls-10,.cls-11,.cls-13,.cls-6,.cls-7{fill:none}.cls-1,.cls-2,.cls-6,.cls-7,.cls-9{stroke:#333}.cls-1,.cls-10,.cls-11,.cls-2,.cls-9{stroke-miterlimit:10}.cls-1,.cls-11,.cls-12,.cls-13,.cls-2{stroke-width:2.5px}.cls-2{fill:#2dabe2}.cls-3{fill:#1d2e5e}.cls-4{fill:#192530}.cls-5,.cls-9{fill:#4057a7}.cls-12,.cls-13,.cls-6,.cls-7{stroke-linejoin:round}.cls-6,.cls-7{stroke-width:2px}.cls-7{stroke-linecap:round}.cls-8{fill:#333;stroke:#231f20;stroke-width:.5px}.cls-9{stroke-width:.75px}.cls-10{stroke:#27aae1}.cls-11,.cls-12,.cls-13{stroke:#424242}.cls-12,.cls-14{fill:#5fc8d7}</style></defs><title>c-805</title><path class="cls-1" d="M101.9 320.7l-9.1 25.1-5.9-9.3-10.9 3.2 8.7-23.7M103.5 320.2l9.3 25.6 5.8-9.3 10.9 3.2-8.2-22.6"/><path class="cls-2" d="M129.1 305.9l-2.4-7 4-6.2-5.4-5.1.7-7.3-7.1-2-2.8-6.8-7.2 1.5-5.7-4.7-5.6 4.7-7.2-1.5-2.8 6.8-7.1 2 .7 7.3-5.4 5.1 4 6.2-2.4 7 6.4 3.6 1.1 7.3 7.4.2 4.4 6 6.6-3.3 6.6 3.3 4.4-6 7.4-.2 1.1-7.3zm-42.7-9.4a16.8 16.8 0 1 1 16.8 16.8 16.8 16.8 0 0 1-16.8-16.8z"/><g id="_Group_" data-name="&lt;Group&gt;"><path class="cls-3" d="M136.9 120.6v22.3h-26.4v2.1H97.6v-2.1H71.2v-8.7l17.5-8.8 8 4.4 15.6-6.2 7.6 4.4 17-7.4z"/><path class="cls-4" d="M138 142.9h-2.2v-41.5H72.4v41.4h-2.3v-42.5a1.1 1.1 0 0 1 1.1-1.1h65.6a1.1 1.1 0 0 1 1.1 1.1z"/><path class="cls-4" d="M144 142.9h-2.2V97.8a2.3 2.3 0 0 0-2.3-2.3H68.7a2.3 2.3 0 0 0-2.3 2.3v45.1h-2.3V97.8a4.6 4.6 0 0 1 4.5-4.5h70.8a4.6 4.6 0 0 1 4.5 4.5z"/><path class="cls-4" d="M151.3 150.8H56.8a1.1 1.1 0 0 1-.9-.5 14.7 14.7 0 0 1-1.9-3.2 17.7 17.7 0 0 1 0-4.4 1.1 1.1 0 0 1 1.1-1h42.5a1.1 1.1 0 0 1 1.1 1.1v1h10.6v-1a1.1 1.1 0 0 1 1.1-1.1H153a1.1 1.1 0 0 1 1.1 1 17.6 17.6 0 0 1 0 4.4 14.7 14.7 0 0 1-1.9 3.2 1.1 1.1 0 0 1-.9.5zm-93.9-2.2h93.3a11.7 11.7 0 0 0 1.2-2 12.3 12.3 0 0 0 0-2.6h-40.3v1a1.1 1.1 0 0 1-1.1 1.1H97.6a1.1 1.1 0 0 1-1.1-1.1v-1H56.1a12.4 12.4 0 0 0 0 2.6 11.6 11.6 0 0 0 1.3 2zM71.7 135.1l-1-2 17.5-8.7a1.1 1.1 0 0 1 1 0l7.6 4.1 15.1-6a1.1 1.1 0 0 1 1 .1l7.1 4.2 16.5-7.2 1 2h-.1l-17 7.4a1.1 1.1 0 0 1-1-.1l-7.1-4.2-15.1 6a1.1 1.1 0 0 1-.9-.1l-7.5-4.1zM79.2 106.7h18.9v2.23H79.2zM79.2 111.6H90v2.23H79.2z"/></g><g id="_Group_2" data-name="&lt;Group&gt;"><path class="cls-5" d="M93.8 210.5h.1a13.1 13.1 0 0 1-26.3 0zM114.3 210.5h26.2a13.1 13.1 0 0 1-26.3 0z"/><path class="cls-4" d="M80.7 224.6a14.2 14.2 0 0 1-14.1-14.1h2a12.2 12.2 0 0 0 24.3 0h.9v-1h.1a1 1 0 0 1 1 1 14.2 14.2 0 0 1-14.2 14.1zM80.8 179.7h23.3v1.99H80.8z"/><path class="cls-4" d="M93.8 211.5H67.6a1 1 0 0 1-.9-1.4l13.1-29.8a1 1 0 0 1 1.8 0l13.1 29.8a1 1 0 0 1-.9 1.4zm-24.7-2h23.2l-11.6-26.3zM127.4 224.6a14.2 14.2 0 0 1-14.1-14.1 1 1 0 0 1 1-1h.1v1h.9a12.2 12.2 0 0 0 24.3 0h2a14.2 14.2 0 0 1-14.2 14.1zM104.1 179.7h23.3v1.99h-23.3z"/><path class="cls-4" d="M140.5 211.5h-26.2a1 1 0 0 1-.9-1.4l13.1-29.8a1 1 0 0 1 1.8 0l13.1 29.8a1 1 0 0 1-.9 1.4zm-24.7-2H139l-11.6-26.3zM122.5 239.4H86.1a3.5 3.5 0 0 1-3.5-3.5 3.5 3.5 0 0 1 3.5-3.5h15.7v2H86.1a1.5 1.5 0 0 0-1.5 1.5 1.5 1.5 0 0 0 1.5 1.5h36.5a1.5 1.5 0 0 0 0-3h-15.8v-2h15.7a3.5 3.5 0 0 1 0 7z"/><path class="cls-4" d="M106.8 234.4h-5a1 1 0 0 1-1-1v-56.6a3.5 3.5 0 0 1 7 0v56.6a1 1 0 0 1-1 1zm-4-2h3v-55.6a1.5 1.5 0 0 0-3 0z"/><path class="cls-4" d="M101.8 183.8h5v1.99h-5z"/></g><path class="cls-6" d="M455.6 235.2a4.2 4.2 0 0 0 4.3-4.1V219a3.6 3.6 0 0 0-2.6-3.4l-2.8-.9-5.3 5.1-5.3-5.1-2.8.9a3.6 3.6 0 0 0-2.6 3.4v12.1a4.2 4.2 0 0 0 4.3 4.1"/><ellipse class="cls-7" cx="449.2" cy="207.5" rx="5.3" ry="5.1"/><path class="cls-7" d="M455.6 222.9v30.8h-12.8v-30.8M449.2 235.2v18.5"/><path class="cls-6" d="M460.1 227.6a4.4 4.4 0 0 0 2 .5M474.9 228.1a4.2 4.2 0 0 0 4.3-4.1v-12.1a3.6 3.6 0 0 0-2.6-3.4l-2.8-.9-5.3 5.1-5.3-5.1-2.8.9a3.6 3.6 0 0 0-2.6 3.4v4.3"/><ellipse class="cls-7" cx="468.5" cy="200.4" rx="5.3" ry="5.1"/><path class="cls-7" d="M474.9 215.8v30.8h-12.8v-30.8M468.5 228.1v18.5"/><path class="cls-6" d="M440.6 216.3v-3.7a3.6 3.6 0 0 0-2.6-3.4l-2.8-.9-5.3 5.1-5.3-5.1-2.8.9a3.6 3.6 0 0 0-2.6 3.4v12.1a4.2 4.2 0 0 0 4.3 4.1M436.3 228.8a2.9 2.9 0 0 0 2.3-1.1"/><ellipse class="cls-7" cx="429.9" cy="201" rx="5.3" ry="5.1"/><path class="cls-7" d="M436.3 216.4v30.9h-12.8v-30.9M429.9 228.8v18.5"/><path class="cls-8" d="M424.2 337.9v-1.2h50a.8.8 0 0 0 .9-.7v-34.6h-51.8V336a.8.8 0 0 0 .9.7v1.2a2.1 2.1 0 0 1-2.2-1.9v-35.2a.6.6 0 0 1 .2-.4l.5-.2h53.1l.5.2a.6.6 0 0 1 .2.4V336a2.1 2.1 0 0 1-2.2 1.9zM459.9 292.3v-6.1a3.7 3.7 0 1 1 7.4 0v6.1a3.7 3.7 0 1 1-7.4 0zm1.4-6.1v6.1a2.4 2.4 0 1 0 4.7 0v-6.1a2.4 2.4 0 1 0-4.7 0zM431.1 292.3v-6.1a3.7 3.7 0 1 1 7.4 0v6.1a3.7 3.7 0 1 1-7.4 0zm1.4 0a2.4 2.4 0 1 0 4.7 0v-6.1a2.4 2.4 0 1 0-4.7 0z"/><rect class="cls-9" x="433.2" y="306.1" width="5.1" height="5.07" rx="1" ry="1"/><rect class="cls-9" x="440.2" y="306.1" width="5.1" height="5.07" rx="1" ry="1"/><rect class="cls-9" x="447.2" y="306.1" width="5.1" height="5.07" rx="1" ry="1"/><rect class="cls-9" x="433.2" y="312.8" width="5.1" height="5.07" rx="1" ry="1"/><rect class="cls-9" x="447.2" y="312.8" width="5.1" height="5.07" rx="1" ry="1"/><rect class="cls-9" x="440.2" y="312.8" width="5.1" height="5.07" rx="1" ry="1"/><rect class="cls-9" x="433.2" y="319.5" width="5.1" height="5.07" rx="1" ry="1"/><rect class="cls-9" x="440.2" y="319.5" width="5.1" height="5.07" rx="1" ry="1"/><rect class="cls-9" x="426.2" y="312.8" width="5.1" height="5.07" rx="1" ry="1"/><rect class="cls-9" x="426.2" y="319.5" width="5.1" height="5.07" rx="1" ry="1"/><path class="cls-8" d="M437.9 290a.7.7 0 1 1 0-1.4h22.7a.7.7 0 0 1 0 1.4z"/><path class="cls-8" d="M422.7 301.6l-.5-.2a.7.7 0 0 1-.2-.5v-10.1a2.2 2.2 0 0 1 2.2-2.2h7.6a.7.7 0 0 1 0 1.4h-7.6a.9.9 0 0 0-.9.9v9.4H475v-9.4a.9.9 0 0 0-.9-.9h-7.6a.7.7 0 0 1 0-1.4h7.6a2.2 2.2 0 0 1 2.2 2.2v10.1a.7.7 0 0 1-.2.5l-.5.2z"/><rect class="cls-9" x="461" y="306.1" width="5.1" height="5.07" rx="1" ry="1"/><rect class="cls-9" x="468" y="306.1" width="5.1" height="5.07" rx="1" ry="1"/><rect class="cls-9" x="454" y="306.1" width="5.1" height="5.07" rx="1" ry="1"/><rect class="cls-9" x="461" y="312.8" width="5.1" height="5.07" rx="1" ry="1"/><rect class="cls-9" x="468" y="312.8" width="5.1" height="5.07" rx="1" ry="1"/><rect class="cls-9" x="454" y="312.8" width="5.1" height="5.07" rx="1" ry="1"/><rect class="cls-9" x="447" y="319.5" width="5.1" height="5.07" rx="1" ry="1"/><rect class="cls-9" x="460.8" y="319.5" width="5.1" height="5.07" rx="1" ry="1"/><rect class="cls-9" x="467.8" y="319.5" width="5.1" height="5.07" rx="1" ry="1"/><rect class="cls-9" x="453.8" y="319.5" width="5.1" height="5.07" rx="1" ry="1"/><rect class="cls-9" x="432.8" y="326.2" width="5.1" height="5.07" rx="1" ry="1"/><rect class="cls-9" x="439.8" y="326.2" width="5.1" height="5.07" rx="1" ry="1"/><rect class="cls-9" x="425.9" y="326.2" width="5.1" height="5.07" rx="1" ry="1"/><rect class="cls-9" x="446.6" y="326.2" width="5.1" height="5.07" rx="1" ry="1"/><rect class="cls-9" x="460.5" y="326.2" width="5.1" height="5.07" rx="1" ry="1"/><rect class="cls-9" x="453.5" y="326.2" width="5.1" height="5.07" rx="1" ry="1"/><path class="cls-10" d="M425.3 308.4h48.3M425.3 322h48.3M425.3 315.5h48.3"/><path class="cls-11" d="M449.2 99.7a33.1 33.1 0 1 0 33.1 33.1 33.2 33.2 0 0 0-33.1-33.1z"/><path class="cls-11" d="M448.8 110.6a22.2 22.2 0 1 0 22.2 22.2 22.2 22.2 0 0 0-22.2-22.2zM448.8 111.8v4.6M448.8 149.8v4.6M470.4 132.8h-4.5M432.4 132.8h-4.5"/><circle class="cls-12" cx="448.8" cy="132.8" r="4.2" transform="rotate(-45 448.721 132.833)"/><path class="cls-13" d="M444.3 132.2l-8.4 12.5 13.3-7.6M452.5 133.5l7.3-11.4-12.2 6.5"/><g id="_Group_3" data-name="&lt;Group&gt;"><path class="cls-14" d="M349.2 315.7v8.9h-32.7v-49.1h32.7v40.2zM316.5 244.1h32.7v17.7h-32.7zM316.5 212.6h32.7v17.7h-32.7zM267.7 306.9h32.7v17.7h-32.7zM267.7 275.5h32.7v17.68h-32.7zM267.7 244.1h32.7v17.7h-32.7zM267.7 212.6h32.7v17.7h-32.7zM218.8 306.9h32.7v17.7h-32.7zM218.8 275.5h32.7v17.68h-32.7zM218.8 244.1h32.7v17.7h-32.7zM218.8 212.6h32.7v17.7h-32.7z"/><path class="cls-4" d="M358 349.9H210a16.4 16.4 0 0 1-16.3-16.3V118a16.4 16.4 0 0 1 16.3-16.3h148a16.4 16.4 0 0 1 16.4 16.3v215.5a16.4 16.4 0 0 1-16.4 16.4zM210 108.5a9.5 9.5 0 0 0-9.5 9.5v215.5a9.5 9.5 0 0 0 9.5 9.5h148a9.5 9.5 0 0 0 9.5-9.5V118a9.5 9.5 0 0 0-9.5-9.5z"/><path class="cls-4" d="M349.2 169.8H218.8a3.4 3.4 0 0 1-3.4-3.4v-39.5a3.4 3.4 0 0 1 3.4-3.4h130.4a3.4 3.4 0 0 1 3.4 3.4v39.5a3.4 3.4 0 0 1-3.4 3.4zm-126.9-6.9h123.5v-32.6H222.3zM251.6 233.8h-32.8a3.4 3.4 0 0 1-3.4-3.4v-17.8a3.4 3.4 0 0 1 3.4-3.4h32.7a3.4 3.4 0 0 1 3.4 3.4v17.7a3.4 3.4 0 0 1-3.3 3.5zm-29.3-6.9h25.9v-10.8h-25.9zM300.4 233.8h-32.7a3.4 3.4 0 0 1-3.4-3.4v-17.8a3.4 3.4 0 0 1 3.4-3.4h32.7a3.4 3.4 0 0 1 3.4 3.4v17.7a3.4 3.4 0 0 1-3.4 3.5zm-29.3-6.9H297v-10.8h-25.9zM349.2 233.8h-32.7a3.4 3.4 0 0 1-3.4-3.4v-17.8a3.4 3.4 0 0 1 3.4-3.4h32.7a3.4 3.4 0 0 1 3.4 3.4v17.7a3.4 3.4 0 0 1-3.4 3.5zm-29.3-6.9h25.9v-10.8h-25.9zM251.6 265.2h-32.8a3.4 3.4 0 0 1-3.4-3.4v-17.7a3.4 3.4 0 0 1 3.4-3.4h32.7a3.4 3.4 0 0 1 3.4 3.4v17.7a3.4 3.4 0 0 1-3.3 3.4zm-29.3-6.9h25.9v-10.8h-25.9zM300.4 265.2h-32.7a3.4 3.4 0 0 1-3.4-3.4v-17.7a3.4 3.4 0 0 1 3.4-3.4h32.7a3.4 3.4 0 0 1 3.4 3.4v17.7a3.4 3.4 0 0 1-3.4 3.4zm-29.3-6.9H297v-10.8h-25.9zM349.2 265.2h-32.7a3.4 3.4 0 0 1-3.4-3.4v-17.7a3.4 3.4 0 0 1 3.4-3.4h32.7a3.4 3.4 0 0 1 3.4 3.4v17.7a3.4 3.4 0 0 1-3.4 3.4zm-29.3-6.9h25.9v-10.8h-25.9zM251.6 296.6h-32.8a3.4 3.4 0 0 1-3.4-3.4v-17.7a3.4 3.4 0 0 1 3.4-3.4h32.7a3.4 3.4 0 0 1 3.4 3.4v17.7a3.4 3.4 0 0 1-3.3 3.4zm-29.3-6.9h25.9v-10.8h-25.9zM300.4 296.6h-32.7a3.4 3.4 0 0 1-3.4-3.4v-17.7a3.4 3.4 0 0 1 3.4-3.4h32.7a3.4 3.4 0 0 1 3.4 3.4v17.7a3.4 3.4 0 0 1-3.4 3.4zm-29.3-6.9H297v-10.8h-25.9zM251.6 328h-32.8a3.4 3.4 0 0 1-3.4-3.4v-17.7a3.4 3.4 0 0 1 3.4-3.4h32.7a3.4 3.4 0 0 1 3.4 3.4v17.7a3.4 3.4 0 0 1-3.3 3.4zm-29.3-6.9h25.9v-10.8h-25.9zM300.4 328h-32.7a3.4 3.4 0 0 1-3.4-3.4v-17.7a3.4 3.4 0 0 1 3.4-3.4h32.7a3.4 3.4 0 0 1 3.4 3.4v17.7a3.4 3.4 0 0 1-3.4 3.4zm-29.3-6.9H297v-10.8h-25.9zM349.2 328h-32.7a3.4 3.4 0 0 1-3.4-3.4v-49.1a3.4 3.4 0 0 1 3.4-3.4h32.7a3.4 3.4 0 0 1 3.4 3.4v49.1a3.4 3.4 0 0 1-3.4 3.4zm-29.3-6.9h25.9v-42.2h-25.9zM257 181.2h54v6.86h-54z"/></g></svg>