<?xml version="1.0" encoding="utf-8"?>
<!-- Generator: Adobe Illustrator 21.0.2, SVG Export Plug-In . SVG Version: 6.00 Build 0)  -->
<svg version="1.1" id="Layer_1" xmlns="http://www.w3.org/2000/svg" xmlns:xlink="http://www.w3.org/1999/xlink" x="0px" y="0px"
	 viewBox="0 0 900 375" style="enable-background:new 0 0 900 375;" xml:space="preserve">
<style type="text/css">
	.st0{opacity:0.4;}
	.st1{fill:#F3F3F3;}
	.st2{fill:#010101;}
	.st3{fill:none;}
	.st4{opacity:0.58;fill:#F7EC93;enable-background:new    ;}
</style>
<title>Artboard 3</title>
<g class="st0">
	
		<image style="overflow:visible;enable-background:new    ;" width="805" height="1209" xlink:href="2D5974BC.png"  transform="matrix(0.2385 0 0 0.2388 159.3 37.8)">
	</image>
</g>
<path class="st1" d="M314.9,73.8H195.6c0.1,25.3,0.2,50.2,0,51.8s0.7,105.5,0.1,108.7c-0.3,1.6-0.4,29.9-0.5,58.8
	c18.4-0.7,36.8-2.9,55.2-4c21.4-1.3,42.5,0.6,63.7,3.1c0.6-33.5,1.1-70.5,0.9-78.7S314.9,131.4,314.9,73.8z"/>
<path class="st2" d="M214.4,277.4V85.1h-1.5v192.2L214.4,277.4z"/>
<g class="st0">
	
		<image style="overflow:visible;enable-background:new    ;" width="696" height="1234" xlink:href="2D5974BB.png"  transform="matrix(0.2383 0 0 0.2388 296.9 37.8)">
	</image>
</g>
<path class="st1" d="M426.4,73.8h-93.5c0.3,21.8,0.9,57.4,0.9,62.5s0.9,33.6,0.7,46.1s0.4,98.9,0.1,104.2c5.4-1,10.5-4.1,16-3.8
	s12.3,4.4,18.6,7.5s13.5,3.4,20.1,5.3l2.1,0.7c11.8-3.8,23.5-8.1,35.3-11c0-52,0-109.3-0.1-120.6S426.4,113.5,426.4,73.8z"/>
<g class="st0">
	
		<image style="overflow:visible;enable-background:new    ;" width="1405" height="1225" xlink:href="2D5974C4.png"  transform="matrix(0.239 0 0 0.2392 410.9 37.8)">
	</image>
</g>
<path class="st1" d="M709.7,83.7c-0.1-1.5-0.1-5-0.2-9.9h-257c-0.1,7-0.3,12-0.7,13c-1.8,4.2-6.5,86.3-5.6,97.3
	c0.5,6.7,0.3,56.6,0.3,97.2l1,1.1c1.1-0.5,2.2-0.7,3.4-0.8c4.8-0.4,9.6,1.4,13,4.9c18.9-4,38.1-6.6,57.4-7.7
	c29.8-1.7,58.5,1.5,88,5.1c31.1,3.7,62.1,2.2,93.3,2.4h3.4c0.6-1.2,1.6-2.3,2.8-3c-0.3-17.9-0.5-35.5,0-36.7s-1.4-75.1-0.3-77.4
	S710.1,92.6,709.7,83.7z"/>
<path class="st2" d="M483.2,149.5v-8.2h-2.7v-1.7h7.1v1.7H485v8.2H483.2z"/>
<path class="st2" d="M488.2,144.7c0-0.9,0.1-1.7,0.4-2.5c0.2-0.5,0.5-0.9,0.8-1.3c0.3-0.4,0.7-0.7,1.2-0.9c0.6-0.3,1.2-0.4,1.9-0.4
	c1.2-0.1,2.4,0.4,3.2,1.3c1.6,2.2,1.6,5.3,0,7.5c-1.7,1.7-4.5,1.8-6.2,0.1c0,0-0.1-0.1-0.1-0.1C488.6,147.4,488.1,146,488.2,144.7z
	 M490.1,144.6c-0.1,0.9,0.2,1.8,0.7,2.5c0.8,1,2.2,1.2,3.2,0.4c0.1-0.1,0.3-0.2,0.4-0.4c0.5-0.8,0.8-1.7,0.7-2.6
	c0.1-0.9-0.2-1.8-0.7-2.5c-0.9-1-2.4-1.1-3.4-0.2c-0.1,0.1-0.1,0.1-0.2,0.2c-0.6,0.7-0.8,1.7-0.8,2.6L490.1,144.6z"/>
<path class="st2" d="M500.2,149.5v-8.2h-2.7v-1.7h7.1v1.7H502v8.2H500.2z"/>
<path class="st2" d="M513.6,149.5h-2l-0.8-2.2h-3.6l-0.7,2.2h-1.9l3.5-9.8h1.9L513.6,149.5z M510.3,145.6L509,142l-1.2,3.7
	L510.3,145.6z"/>
<path class="st2" d="M513.7,149.5v-9.8h1.8v8.1h4.5v1.7H513.7z"/>
<path class="st2" d="M633,149.5v-8.2h-2.7v-1.7h7.1v1.7h-2.7v8.2H633z"/>
<path class="st2" d="M638,144.7c0-0.9,0.1-1.7,0.4-2.5c0.2-0.5,0.5-0.9,0.8-1.3c0.3-0.4,0.7-0.7,1.2-0.9c0.6-0.3,1.2-0.4,1.9-0.4
	c1.2-0.1,2.4,0.4,3.2,1.3c1.6,2.2,1.6,5.3,0,7.5c-1.7,1.7-4.5,1.8-6.2,0.1c0,0-0.1-0.1-0.1-0.1C638.4,147.4,637.9,146,638,144.7z
	 M639.9,144.6c-0.1,0.9,0.2,1.8,0.7,2.5c0.8,1,2.2,1.2,3.2,0.4c0.1-0.1,0.3-0.2,0.4-0.4c0.5-0.8,0.8-1.7,0.7-2.6
	c0.1-0.9-0.2-1.8-0.7-2.5c-0.9-1-2.4-1.1-3.4-0.2c-0.1,0.1-0.1,0.1-0.2,0.2C640.1,142.8,639.8,143.7,639.9,144.6L639.9,144.6z"/>
<path class="st2" d="M650,149.5v-8.2h-2.7v-1.7h7.1v1.7h-2.7v8.2H650z"/>
<path class="st2" d="M663.4,149.5h-2l-0.8-2.2H657l-0.7,2.2h-1.9l3.5-9.8h1.9L663.4,149.5z M660.1,145.6l-1.2-3.7l-1.2,3.7H660.1z"
	/>
<path class="st2" d="M663.5,149.5v-9.8h1.8v8.1h4.5v1.7H663.5z"/>
<rect x="460.7" y="135.8" class="st3" width="245.8" height="17"/>
<path class="st2" d="M481.1,157.5h3.3l1.7,0.2c0.5,0.2,1,0.5,1.4,0.9c0.4,0.5,0.7,1,0.9,1.6c0.2,0.7,0.3,1.5,0.3,2.3
	c0,0.7-0.1,1.4-0.3,2.1c-0.2,0.6-0.5,1.2-1,1.7c-0.4,0.4-0.8,0.6-1.3,0.8l-1.6,0.2h-3.4V157.5z M482.9,159.2v6.5h2.5l0.7-0.4
	c0.3-0.3,0.4-0.6,0.5-1c0.1-0.6,0.2-1.2,0.2-1.8c0-0.6,0-1.2-0.2-1.8c-0.1-0.4-0.3-0.7-0.5-1c-0.2-0.2-0.5-0.4-0.8-0.5H483H482.9z"
	/>
<path class="st2" d="M498.1,167.3h-2l-0.8-2.2h-3.6l-0.7,2.2h-1.9l3.5-9.8h1.9L498.1,167.3z M494.8,163.4l-1.2-3.7l-1.2,3.7H494.8z"
	/>
<path class="st2" d="M500.5,167.3v-4.1l-3.3-5.7h2.1l2.1,3.9l2.1-3.9h2.1l-3.3,5.7v4.1H500.5z"/>
<path class="st2" d="M505.1,164.1l1.8-0.2c0,0.5,0.3,1,0.6,1.4c0.3,0.3,0.8,0.5,1.3,0.5c0.5,0,0.9-0.1,1.3-0.4
	c0.3-0.3,0.4-0.6,0.4-1c0-0.2-0.1-0.4-0.2-0.6l-0.7-0.4l-1.5-0.4c-0.7-0.2-1.4-0.5-2-1c-0.5-0.5-0.8-1.3-0.8-2c0-0.5,0.1-1,0.4-1.4
	c0.3-0.4,0.6-0.8,1.1-1c0.6-0.2,1.2-0.3,1.8-0.3c0.9-0.1,1.8,0.2,2.5,0.8c0.6,0.6,0.9,1.4,0.9,2.2h-1.8c0-0.4-0.2-0.8-0.5-1.1
	c-0.3-0.2-0.7-0.3-1.1-0.3c-0.4,0-0.9,0.1-1.2,0.4c-0.2,0.1-0.3,0.4-0.3,0.6c0,0.2,0.1,0.5,0.3,0.6c0.5,0.3,1.1,0.6,1.7,0.7l2,0.7
	c0.4,0.2,0.8,0.6,1,1c0.3,0.5,0.4,1,0.4,1.6c0,0.6-0.1,1.1-0.4,1.6c-0.3,0.5-0.7,0.9-1.2,1.1c-0.6,0.3-1.3,0.4-2,0.4
	c-1,0-1.9-0.3-2.6-0.9C505.6,166,505.2,165.1,505.1,164.1z"/>
<path class="st2" d="M543.9,167.3v-9.8h5.1c0.5,0.2,1,0.5,1.3,1c0.4,0.6,0.5,1.2,0.5,1.9c0,0.5-0.1,1-0.3,1.5
	c-0.2,0.4-0.5,0.7-0.8,1l-0.9,0.5h-3.1v3.7L543.9,167.3z M545.7,159.1v2.8h1l1.4-0.2c0.3-0.1,0.5-0.3,0.6-0.5
	c0.1-0.2,0.2-0.5,0.2-0.8c0-0.3-0.1-0.6-0.3-0.9c-0.2-0.2-0.4-0.4-0.7-0.4L545.7,159.1L545.7,159.1z"/>
<path class="st2" d="M552,167.3v-9.8h6.7v1.7h-4.8v2.2h4.5v1.6h-4.5v2.7h5v1.7L552,167.3z"/>
<path class="st2" d="M560.2,167.3v-9.8h3.8c0.7,0,1.4,0.1,2.1,0.3c0.4,0.2,0.8,0.5,1,0.9c0.3,0.5,0.4,1,0.4,1.6
	c0.1,1.4-1,2.6-2.4,2.7l1,0.8l1,1.6l1.1,1.9H566l-1.3-2.1l-1-1.4l-0.5-0.4H562v4.1L560.2,167.3z M562,161.6h3l0.5-0.4
	c0.1-0.2,0.2-0.5,0.2-0.7c0-0.3,0-0.6-0.2-0.8c-0.2-0.2-0.4-0.4-0.7-0.4H562V161.6z"/>
<path class="st2" d="M572.7,157.5h3.3l1.7,0.2c0.5,0.2,1,0.5,1.4,0.9c0.4,0.5,0.7,1,0.9,1.6c0.2,0.7,0.3,1.5,0.3,2.3
	c0,0.7-0.1,1.4-0.3,2.1c-0.2,0.6-0.5,1.2-1,1.7c-0.4,0.4-0.8,0.6-1.3,0.8l-1.6,0.2h-3.4L572.7,157.5z M574.5,159.2v6.5h2.5l0.7-0.4
	c0.3-0.3,0.4-0.6,0.5-1c0.1-0.6,0.2-1.2,0.2-1.8c0-0.6,0-1.2-0.2-1.8c-0.1-0.4-0.3-0.7-0.5-1c-0.2-0.2-0.5-0.4-0.8-0.5h-2.3H574.5z"
	/>
<path class="st2" d="M581.5,167.3v-9.8h1.8v9.8H581.5z"/>
<path class="st2" d="M584.5,167.3v-9.8h6.7v1.7h-4.8v2.2h4.5v1.6h-4.5v2.7h5v1.7L584.5,167.3z"/>
<path class="st2" d="M592.6,167.3v-9.8h2.7l1.6,6.7l1.6-6.7h2.7v9.8h-1.7v-7.7l-1.8,7.7H596l-1.8-7.7v7.7H592.6z"/>
<path class="st2" d="M631,167.3v-9.8h6.2v1.7h-4.3v2.3h3.7v1.7h-3.7v4.2L631,167.3z"/>
<path class="st2" d="M638.4,167.3v-9.8h6.6v1.7h-4.8v2.2h4.5v1.6h-4.5v2.7h5v1.7L638.4,167.3z"/>
<path class="st2" d="M646.5,167.3v-9.8h6.7v1.7h-4.8v2.2h4.5v1.6h-4.5v2.7h5v1.7L646.5,167.3z"/>
<path class="st2" d="M654.2,164.1l1.8-0.2c0,0.5,0.3,1,0.6,1.4c0.3,0.3,0.8,0.5,1.3,0.5c0.5,0,0.9-0.1,1.3-0.4
	c0.3-0.3,0.4-0.6,0.4-1c0-0.2-0.1-0.4-0.2-0.6l-0.7-0.4l-1.5-0.4c-0.7-0.2-1.4-0.5-2-1c-0.5-0.5-0.8-1.3-0.8-2c0-0.5,0.1-1,0.4-1.4
	c0.3-0.4,0.6-0.8,1.1-1c0.6-0.2,1.2-0.3,1.8-0.3c0.9-0.1,1.8,0.2,2.5,0.8c0.6,0.6,0.9,1.4,0.9,2.2h-1.8c0-0.4-0.2-0.8-0.5-1.1
	c-0.3-0.2-0.7-0.3-1.1-0.3c-0.4,0-0.9,0.1-1.2,0.4c-0.2,0.1-0.3,0.4-0.3,0.6c0,0.2,0.1,0.5,0.3,0.6c0.5,0.3,1.1,0.6,1.7,0.7l2,0.7
	c0.4,0.2,0.8,0.6,1,1c0.3,0.5,0.4,1,0.4,1.6c0,0.6-0.1,1.1-0.4,1.6c-0.3,0.5-0.7,0.9-1.2,1.1c-0.6,0.3-1.3,0.4-2,0.4
	c-1,0-1.9-0.3-2.6-0.9C654.7,166,654.3,165.1,654.2,164.1z"/>
<rect x="460.7" y="153.6" class="st3" width="245.8" height="17"/>
<rect x="199.8" y="233.5" class="st4" width="500.5" height="19"/>
<path class="st2" d="M518.6,227.8v-1.9h3.4v1.9H518.6z"/>
<path class="st2" d="M607.1,227.8v-1.9h3.4v1.9H607.1z"/>
<path class="st2" d="M686.9,227.8v-1.9h3.4v1.9H686.9z"/>
<path class="st2" d="M499.2,245.6l1.7-0.2c0,0.4,0.1,0.8,0.4,1.1c0.4,0.4,1.1,0.5,1.6,0.1c0.1,0,0.1-0.1,0.1-0.2
	c0.3-0.3,0.4-0.8,0.4-1.2c0-0.4-0.1-0.8-0.3-1.1c-0.2-0.3-0.6-0.4-0.9-0.4h-0.8l0.2-1.5c0.4,0.1,0.8,0,1.1-0.3
	c0.3-0.2,0.4-0.6,0.4-0.9c0-0.3-0.1-0.6-0.3-0.8c-0.2-0.2-0.4-0.3-0.7-0.3c-0.3,0-0.6,0.1-0.8,0.3c-0.2,0.3-0.4,0.6-0.4,1l-1.6-0.3
	c0.1-0.5,0.2-1,0.5-1.4c0.2-0.3,0.5-0.6,0.9-0.8c0.4-0.2,0.8-0.3,1.3-0.3c0.8,0,1.5,0.3,2,0.9c0.4,0.4,0.6,1,0.6,1.6
	c0,0.9-0.5,1.7-1.3,2.1c0.5,0.1,0.9,0.4,1.2,0.8c0.3,0.4,0.5,1,0.5,1.5c0,0.8-0.3,1.6-0.9,2.2c-0.6,0.6-1.4,0.9-2.2,0.9
	c-0.7,0-1.5-0.3-2-0.8C499.4,247,499.2,246.3,499.2,245.6z"/>
<path class="st2" d="M508.8,238.3c0.8,0,1.5,0.4,2,1c1.2,2.5,1.2,5.5,0,8c-0.5,0.6-1.2,1-2,1c-0.8,0-1.6-0.4-2.1-1.1
	c-1.1-2.5-1-5.4,0.1-7.9C507.3,238.7,508,238.3,508.8,238.3z M508.8,239.9l-0.6,0.2c-0.2,0.2-0.4,0.5-0.4,0.8
	c-0.2,1.6-0.2,3.2,0,4.8c0,0.3,0.2,0.6,0.4,0.9l0.6,0.2l0.6-0.2c0.2-0.2,0.4-0.5,0.4-0.8c0.2-1.6,0.2-3.2,0-4.8
	c0-0.3-0.2-0.6-0.4-0.9L508.8,239.9z"/>
<path class="st2" d="M512.9,248.2v-1.9h1.7v1.9H512.9z"/>
<path class="st2" d="M519.1,238.3c0.8,0,1.5,0.4,2,1c1.2,2.5,1.2,5.5,0,8c-0.5,0.6-1.2,1-2,1c-0.8,0-1.6-0.4-2.1-1.1
	c-1.1-2.5-1-5.4,0.1-7.9C517.6,238.7,518.3,238.3,519.1,238.3z M519.1,239.9l-0.6,0.2c-0.2,0.2-0.4,0.5-0.4,0.8
	c-0.2,1.6-0.2,3.2,0,4.8c0,0.3,0.2,0.6,0.4,0.9l0.6,0.2l0.6-0.2c0.2-0.2,0.4-0.5,0.4-0.8c0.2-1.6,0.2-3.2,0-4.8
	c0-0.3-0.2-0.6-0.4-0.9L519.1,239.9z"/>
<path class="st2" d="M581.1,245.6l1.7-0.2c0,0.4,0.1,0.8,0.4,1.1c0.4,0.4,1.1,0.5,1.6,0.1c0.1,0,0.1-0.1,0.1-0.2
	c0.3-0.3,0.4-0.8,0.4-1.2c0-0.4-0.1-0.8-0.3-1.1c-0.2-0.3-0.6-0.4-0.9-0.4h-0.8l0.2-1.5c0.4,0.1,0.8,0,1.1-0.3
	c0.3-0.2,0.4-0.6,0.4-0.9c0-0.3-0.1-0.6-0.3-0.8c-0.2-0.2-0.4-0.3-0.7-0.3c-0.3,0-0.6,0.1-0.8,0.3c-0.2,0.3-0.4,0.6-0.4,1l-1.6-0.3
	c0.1-0.5,0.2-1,0.5-1.4c0.2-0.3,0.5-0.6,0.9-0.8c0.4-0.2,0.8-0.3,1.3-0.3c0.8,0,1.5,0.3,2,0.9c0.4,0.4,0.6,1,0.6,1.6
	c0,0.9-0.5,1.7-1.3,2.1c0.5,0.1,0.9,0.4,1.2,0.8c0.3,0.4,0.5,1,0.5,1.5c0,0.8-0.3,1.6-0.9,2.2c-0.6,0.6-1.4,0.9-2.2,0.9
	c-0.7,0-1.5-0.3-2-0.8C581.3,247,581.1,246.3,581.1,245.6z"/>
<path class="st2" d="M588.1,246.3h1.7v1.3c0,0.4,0,0.9-0.1,1.3c-0.1,0.3-0.3,0.6-0.5,0.8l-0.9,0.6l-0.3-0.8c0.3-0.1,0.5-0.3,0.7-0.5
	c0.1-0.3,0.2-0.6,0.2-0.9h-0.8L588.1,246.3z"/>
<path class="st2" d="M597.3,240.8l-1.7,0.2c0-0.3-0.1-0.6-0.3-0.8c-0.2-0.2-0.4-0.3-0.7-0.3c-0.4,0-0.7,0.2-0.9,0.5
	c-0.3,0.7-0.5,1.4-0.5,2.2c0.4-0.5,1-0.8,1.6-0.8c0.7,0,1.4,0.4,1.8,0.9c0.5,0.6,0.8,1.5,0.8,2.3c0,0.9-0.2,1.7-0.8,2.4
	c-0.5,0.6-1.3,0.9-2.1,0.9c-0.9,0-1.7-0.5-2.2-1.2c-0.7-1.1-1-2.5-0.9-3.8c-0.1-1.4,0.2-2.7,0.9-3.9c0.6-0.8,1.5-1.2,2.4-1.2
	c0.6,0,1.2,0.2,1.7,0.6C596.9,239.3,597.3,240,597.3,240.8z M593.4,244.9c0,0.5,0.1,1,0.4,1.4c0.2,0.3,0.5,0.5,0.9,0.5
	c0.3,0,0.6-0.1,0.8-0.4c0.2-0.4,0.3-0.8,0.3-1.3c0.1-0.5-0.1-1-0.3-1.4c-0.3-0.5-0.9-0.6-1.4-0.3c-0.1,0.1-0.2,0.2-0.3,0.3
	C593.5,244,593.4,244.5,593.4,244.9L593.4,244.9z"/>
<path class="st2" d="M598.1,240.3v-1.8h5.9v1.4c-0.6,0.7-1.1,1.5-1.5,2.3c-0.5,1-0.9,2-1.1,3.1c-0.3,1-0.4,2-0.4,3h-1.7
	c0-1.4,0.3-2.9,0.8-4.2c0.4-1.4,1.1-2.6,1.9-3.8H598.1z"/>
<path class="st2" d="M604.8,245.7l1.7-0.2c0,0.4,0.2,0.7,0.4,1c0.4,0.4,1.1,0.5,1.6,0.1c0.1,0,0.1-0.1,0.1-0.2
	c0.3-0.4,0.4-0.9,0.4-1.4c0-0.5-0.1-1-0.4-1.4c-0.2-0.3-0.6-0.5-1-0.5c-0.5,0-1,0.3-1.3,0.7l-1.4-0.2l0.9-5.1h4.6v1.8h-3.2l-0.3,1.7
	c0.4-0.2,0.8-0.3,1.2-0.3c0.7,0,1.4,0.3,1.9,0.9c0.6,0.7,0.8,1.5,0.8,2.4c0,0.8-0.2,1.5-0.6,2.2c-0.5,0.8-1.4,1.3-2.4,1.3
	c-0.7,0-1.4-0.2-2-0.7C605.2,247.3,604.8,246.5,604.8,245.7z"/>
<path class="st2" d="M652,248.2h-1.7v-7.1c-0.6,0.6-1.4,1.1-2.2,1.4v-1.7c0.5-0.2,1.1-0.5,1.5-0.9c0.5-0.4,0.9-1,1.1-1.6h1.3V248.2z
	"/>
<path class="st2" d="M658.6,248.2h-1.7v-7.1c-0.6,0.6-1.4,1.1-2.2,1.4v-1.7c0.5-0.2,1.1-0.5,1.5-0.9c0.5-0.4,0.9-1,1.1-1.6h1.4
	L658.6,248.2z"/>
<path class="st2" d="M663.8,238.3c0.8,0,1.5,0.4,2,1c1.2,2.5,1.2,5.5,0,8c-0.5,0.6-1.2,1-2,1c-0.8,0-1.6-0.4-2.1-1.1
	c-1.1-2.5-1-5.4,0.1-7.9C662.3,238.7,663,238.3,663.8,238.3z M663.8,239.9l-0.6,0.2c-0.2,0.2-0.4,0.5-0.4,0.8
	c-0.2,1.6-0.2,3.2,0,4.8c0,0.3,0.2,0.6,0.4,0.9l0.6,0.2l0.6-0.2c0.2-0.2,0.4-0.5,0.4-0.8c0.2-1.6,0.2-3.2,0-4.8
	c0-0.3-0.2-0.6-0.4-0.9L663.8,239.9z"/>
<path class="st2" d="M667.8,246.3h1.7v1.3c0,0.4,0,0.9-0.1,1.3c-0.1,0.3-0.3,0.6-0.5,0.8l-0.9,0.6l-0.3-0.8c0.3-0.1,0.5-0.3,0.7-0.5
	c0.1-0.3,0.2-0.6,0.2-0.9h-0.8L667.8,246.3z"/>
<path class="st2" d="M677,246.5v1.8h-6c0.1-0.7,0.3-1.3,0.6-1.9c0.5-0.9,1.2-1.7,1.9-2.4l1.4-1.6c0.2-0.4,0.4-0.8,0.4-1.2
	c0-0.4-0.1-0.7-0.3-1c-0.5-0.5-1.2-0.5-1.7,0c0,0,0,0,0,0c-0.3,0.3-0.4,0.8-0.4,1.2l-1.7-0.2c0-0.8,0.4-1.6,1-2.2
	c0.6-0.5,1.3-0.7,2-0.7c0.8,0,1.5,0.3,2.1,0.8c0.5,0.5,0.8,1.3,0.8,2c0,0.4-0.1,0.9-0.2,1.3c-0.2,0.5-0.4,0.9-0.7,1.3l-1.1,1.3
	l-1,1.1l-0.4,0.5L677,246.5z"/>
<path class="st2" d="M683.7,240.8L682,241c0-0.3-0.1-0.6-0.3-0.8c-0.2-0.2-0.4-0.3-0.7-0.3c-0.4,0-0.7,0.2-0.9,0.5
	c-0.3,0.7-0.5,1.4-0.5,2.2c0.4-0.5,1-0.8,1.6-0.8c0.7,0,1.4,0.4,1.8,0.9c0.5,0.6,0.8,1.5,0.8,2.3c0,0.9-0.2,1.7-0.8,2.4
	c-0.5,0.6-1.3,0.9-2.1,0.9c-0.9,0-1.7-0.5-2.2-1.2c-0.7-1.1-1-2.5-0.9-3.8c-0.1-1.4,0.2-2.7,0.9-3.9c0.6-0.8,1.5-1.2,2.4-1.2
	c0.6,0,1.2,0.2,1.7,0.6C683.3,239.3,683.7,240,683.7,240.8z M679.8,244.9c0,0.5,0.1,1,0.4,1.4c0.2,0.3,0.5,0.5,0.9,0.5
	c0.3,0,0.6-0.1,0.8-0.4c0.2-0.4,0.3-0.8,0.3-1.3c0.1-0.5-0.1-1-0.3-1.4c-0.3-0.5-0.9-0.6-1.4-0.3c-0.1,0.1-0.2,0.2-0.3,0.3
	C679.9,244,679.8,244.5,679.8,244.9L679.8,244.9z"/>
<path class="st2" d="M687.4,238.3c0.8,0,1.5,0.4,2,1c1.2,2.5,1.2,5.5,0,8c-0.5,0.6-1.2,1-2,1c-0.8,0-1.6-0.4-2.1-1.1
	c-1.1-2.5-1-5.4,0.1-7.9C685.9,238.7,686.6,238.3,687.4,238.3z M687.4,239.9l-0.6,0.2c-0.2,0.2-0.4,0.5-0.4,0.8
	c-0.2,1.6-0.2,3.2,0,4.8c0,0.3,0.2,0.6,0.4,0.9l0.6,0.2l0.6-0.2c0.2-0.2,0.4-0.5,0.4-0.8c0.2-1.6,0.2-3.2,0-4.8
	c0-0.3-0.2-0.6-0.4-0.9L687.4,239.9z"/>
<path class="st2" d="M527.5,110.3l1.8,0.6c-0.2,0.9-0.6,1.8-1.3,2.4c-0.7,0.5-1.5,0.8-2.4,0.8c-1.1,0-2.2-0.5-2.9-1.3
	c-0.8-1-1.3-2.4-1.2-3.7c-0.1-1.4,0.4-2.7,1.2-3.8c0.7-0.9,1.8-1.4,3-1.4c1,0,2,0.4,2.7,1.1c0.4,0.5,0.8,1.1,0.9,1.8l-1.8,0.5
	c-0.1-0.5-0.3-0.9-0.7-1.2c-0.3-0.3-0.8-0.4-1.2-0.4c-0.6,0-1.2,0.3-1.6,0.8c-0.5,0.7-0.7,1.6-0.6,2.5c-0.1,0.9,0.1,1.9,0.6,2.7
	c0.4,0.5,1,0.8,1.6,0.8c0.5,0,0.9-0.2,1.2-0.5C527.2,111.5,527.5,110.9,527.5,110.3z"/>
<path class="st2" d="M530.6,114v-9.8h6.7v1.7h-4.8v2.1h4.5v1.7h-4.5v2.7h5v1.6H530.6z"/>
<path class="st2" d="M538.7,114v-9.8h3.8c0.7,0,1.4,0.1,2.1,0.3c0.4,0.2,0.8,0.5,1,0.9c0.3,0.5,0.4,1,0.4,1.6c0.1,1.4-1,2.6-2.4,2.7
	l1,0.8l1,1.6l1.1,1.9h-2.2l-1.3-2.1l-1-1.4l-0.5-0.4h-1.3v3.9H538.7z M540.5,108.3h3l0.5-0.4c0.1-0.2,0.2-0.5,0.2-0.7
	c0-0.3,0-0.6-0.2-0.8c-0.2-0.2-0.4-0.4-0.7-0.4h-2.7L540.5,108.3z"/>
<path class="st2" d="M554.1,116.8h-1.2c-0.6-1-1.1-2.1-1.4-3.2c-0.3-1-0.5-2.1-0.5-3.2c0-1.3,0.2-2.5,0.6-3.7c0.3-1,0.8-1.9,1.3-2.8
	h1.2c-0.5,1.1-0.9,2.3-1.2,3.5c-0.4,1.7-0.4,3.5-0.1,5.3c0.1,0.7,0.3,1.5,0.5,2.2L554.1,116.8z"/>
<path class="st2" d="M555.8,114v-9.8h1.8v8.1h4.5v1.7H555.8z"/>
<path class="st2" d="M563,114v-9.8h1.8v9.8H563z"/>
<path class="st2" d="M566.1,114v-9.8h6.2v1.7H568v2.3h3.7v1.7H568v4.1H566.1z"/>
<path class="st2" d="M573.4,114v-9.8h6.7v1.7h-4.8v2.1h4.5v1.7h-4.5v2.7h5v1.6H573.4z"/>
<path class="st2" d="M584.9,109.1c0-0.9,0.1-1.7,0.4-2.5c0.2-0.5,0.5-0.9,0.8-1.3c0.3-0.4,0.7-0.7,1.2-0.9c0.6-0.3,1.2-0.4,1.9-0.4
	c1.2-0.1,2.4,0.4,3.2,1.3c1.6,2.2,1.6,5.3,0,7.5c-1.7,1.7-4.5,1.8-6.2,0.1c0,0-0.1-0.1-0.1-0.1C585.3,111.8,584.8,110.4,584.9,109.1
	z M586.8,109c-0.1,0.9,0.2,1.8,0.7,2.5c0.8,1,2.2,1.2,3.2,0.4c0.1-0.1,0.3-0.2,0.4-0.4c0.5-0.8,0.8-1.7,0.7-2.6
	c0.1-0.9-0.2-1.8-0.7-2.5c-0.9-1-2.4-1.1-3.4-0.2c-0.1,0.1-0.1,0.1-0.2,0.2C587,107.2,586.7,108.1,586.8,109L586.8,109z"/>
<path class="st2" d="M594.9,114v-9.8h6.1v1.7h-4.3v2.3h3.7v1.7h-3.7v4.1H594.9z"/>
<path class="st2" d="M605.5,110.8l1.8-0.2c0,0.5,0.3,1,0.6,1.4c0.3,0.3,0.8,0.5,1.3,0.5c0.5,0,0.9-0.1,1.3-0.4
	c0.3-0.3,0.4-0.6,0.4-1c0-0.2-0.1-0.4-0.2-0.6l-0.7-0.4l-1.5-0.4c-0.7-0.2-1.4-0.5-2-1c-0.5-0.5-0.8-1.3-0.8-2c0-0.5,0.1-1,0.4-1.4
	c0.3-0.4,0.6-0.8,1.1-1c0.6-0.2,1.2-0.3,1.8-0.3c0.9-0.1,1.8,0.2,2.5,0.8c0.6,0.6,0.9,1.4,0.9,2.2h-1.8c0-0.4-0.2-0.8-0.5-1.1
	c-0.3-0.2-0.7-0.3-1.1-0.3c-0.4,0-0.9,0.1-1.2,0.4c-0.2,0.1-0.3,0.4-0.3,0.6c0,0.2,0.1,0.5,0.3,0.6c0.5,0.3,1.1,0.6,1.7,0.7l2,0.7
	c0.4,0.2,0.8,0.6,1,1c0.3,0.5,0.4,1,0.4,1.6c0,0.6-0.1,1.1-0.4,1.6c-0.3,0.5-0.7,0.9-1.2,1.1c-0.6,0.3-1.3,0.4-2,0.4
	c-1,0-1.9-0.3-2.6-0.9C606,112.7,605.6,111.8,605.5,110.8z"/>
<path class="st2" d="M616.1,114v-8.2h-2.7v-1.7h7.1v1.7h-2.7v8.2H616.1z"/>
<path class="st2" d="M621.4,104.1h1.8v5.3c0,0.5,0,1.1,0.1,1.6c0.1,0.4,0.3,0.8,0.6,1c0.3,0.3,0.8,0.4,1.2,0.4
	c0.4,0.1,0.9-0.1,1.2-0.3c0.3-0.2,0.4-0.5,0.5-0.8c0.1-0.6,0.1-1.1,0.1-1.7v-5.4h1.8v5.2c0,0.8,0,1.7-0.1,2.5
	c-0.1,0.4-0.2,0.8-0.5,1.2c-0.3,0.4-0.7,0.6-1.1,0.8c-0.5,0.2-1.1,0.3-1.7,0.3c-0.7,0-1.4-0.1-2-0.3c-0.8-0.3-1.4-1.1-1.6-1.9
	c-0.1-0.8-0.2-1.7-0.2-2.5L621.4,104.1z"/>
<path class="st2" d="M630.3,104.1h3.3l1.7,0.2c0.5,0.2,1,0.5,1.4,0.9c0.4,0.5,0.7,1,0.9,1.6c0.2,0.7,0.3,1.5,0.3,2.3
	c0,0.7-0.1,1.4-0.3,2.1c-0.2,0.6-0.5,1.2-1,1.7c-0.4,0.4-0.8,0.6-1.3,0.8l-1.6,0.2h-3.4L630.3,104.1z M632.1,105.8v6.5h2.5l0.7-0.4
	c0.3-0.3,0.4-0.6,0.5-1c0.1-0.6,0.2-1.2,0.2-1.8c0-0.6,0-1.2-0.2-1.8c-0.1-0.4-0.3-0.7-0.5-1c-0.2-0.2-0.5-0.4-0.8-0.5h-2.3
	L632.1,105.8z"/>
<path class="st2" d="M641.5,114v-4.1l-3.3-5.7h2.1l2.1,3.9l2.1-3.9h2.1l-3.3,5.7v4.1H641.5z"/>
<path class="st2" d="M646.1,116.8l0.7-1.8c0.2-0.5,0.3-1,0.4-1.5c0.1-0.5,0.2-1.1,0.3-1.6c0.1-0.5,0.1-1,0.1-1.5c0-1-0.1-2-0.3-3
	c-0.3-1.2-0.7-2.4-1.2-3.5h1.2c0.6,1,1.1,2,1.4,3.1c0.3,1.1,0.5,2.2,0.5,3.3c0,1-0.1,2-0.4,3c-0.3,1.3-0.8,2.5-1.5,3.6L646.1,116.8z
	"/>
<polygon class="st3" points="478,84.8 692.8,84.8 692.8,117.2 478,117.2 478,84.8 "/>
<polyline class="st2" points="478,84 478,84.8 693.5,84.8 693.5,84 478,84 "/>
<polyline class="st2" points="478,117.2 478,118 693.5,118 693.5,117.2 478,117.2 "/>
<polyline class="st2" points="478,170.6 478,171.4 525.3,171.4 525.3,170.6 478,170.6 "/>
<polyline class="st2" points="540,170.6 540,171.4 613.8,171.4 613.8,170.6 540,170.6 "/>
<polyline class="st2" points="627.1,170.6 627.1,171.4 693.5,171.4 693.5,170.6 627.1,170.6 "/>
<polyline class="st2" points="477.3,83.6 477.3,281.5 478,281.5 478,83.6 477.3,83.6 "/>
<polyline class="st2" points="692.8,83.9 692.8,281.5 693.5,281.5 693.5,83.9 692.8,83.9 "/>
<rect x="214.4" y="132.5" class="st3" width="110.2" height="17.1"/>
<path class="st2" d="M217.5,164.2v-9.9h1.8l3.7,6.6v-6.6h1.7v9.9h-1.8l-3.6-6.5v6.5H217.5z"/>
<path class="st2" d="M234.6,164.2h-2l-0.8-2.2h-3.6l-0.7,2.2h-1.9l3.5-9.9h1.9L234.6,164.2z M231.2,160.3l-1.2-3.7l-1.2,3.7H231.2z"
	/>
<path class="st2" d="M234.6,164.2v-9.9h2.7l1.6,6.8l1.6-6.8h2.7v9.9h-1.7v-7.8l-1.8,7.8h-1.8l-1.8-7.8v7.8H234.6z"/>
<path class="st2" d="M244.3,164.2v-9.9h6.7v1.7h-4.9v2.2h4.5v1.7h-4.5v2.7h5v1.7L244.3,164.2z"/>
<rect x="214.4" y="150.4" class="st3" width="110.2" height="17.1"/>
<path class="st2" d="M221.2,229.1v-9.9h5.1c0.5,0.2,1,0.5,1.3,1c0.4,0.6,0.5,1.2,0.5,1.9c0,0.5-0.1,1-0.3,1.5
	c-0.2,0.4-0.5,0.7-0.8,1l-0.9,0.5H223v3.7L221.2,229.1z M223,220.9v2.8h1l1.4-0.2c0.3-0.1,0.5-0.3,0.6-0.5c0.1-0.2,0.2-0.5,0.2-0.8
	c0-0.3-0.1-0.6-0.3-0.9c-0.2-0.2-0.4-0.4-0.7-0.4L223,220.9L223,220.9z"/>
<path class="st2" d="M233.2,226.8l1.7,0.3c-0.2,0.6-0.6,1.2-1.1,1.6c-0.5,0.4-1.2,0.5-1.8,0.5c-1,0.1-1.9-0.4-2.5-1.2
	c-0.4-0.8-0.7-1.6-0.6-2.5c0-1,0.3-2,0.9-2.8c0.5-0.7,1.4-1,2.2-1c0.9,0,1.8,0.4,2.3,1.1c0.6,0.9,0.9,2.1,0.8,3.2h-4.3
	c0,0.5,0.1,0.9,0.4,1.3c0.2,0.3,0.6,0.5,1,0.5l0.7-0.2C233.1,227.4,233.2,227.1,233.2,226.8z M233.3,224.9c0-0.5-0.1-0.9-0.4-1.3
	c-0.4-0.5-1.2-0.5-1.7-0.1c0,0-0.1,0.1-0.1,0.1c-0.3,0.3-0.4,0.8-0.4,1.2L233.3,224.9z"/>
<path class="st2" d="M237.7,229.1H236V222h1.6v1c0.2-0.4,0.4-0.7,0.7-1l0.7-0.2c0.4,0,0.8,0.2,1.1,0.4l-0.5,1.7l-0.8-0.3l-0.6,0.2
	c-0.2,0.2-0.4,0.5-0.4,0.8c-0.1,0.8-0.1,1.6-0.1,2.4V229.1z"/>
<path class="st2" d="M240.6,227.1l1.7-0.3c0.1,0.7,0.7,1.2,1.4,1.1c0.4,0,0.7-0.1,1-0.3c0.1-0.1,0.2-0.3,0.2-0.5
	c0-0.1,0-0.3-0.1-0.4l-0.6-0.2c-0.9-0.2-1.9-0.5-2.7-0.9c-0.5-0.4-0.8-1-0.8-1.6c0-0.6,0.2-1.2,0.7-1.6c0.6-0.5,1.3-0.7,2.1-0.6
	c0.7,0,1.4,0.1,2,0.5c0.5,0.4,0.8,0.8,0.9,1.4l-1.6,0.3c-0.1-0.2-0.2-0.5-0.4-0.6l-0.8-0.2l-1,0.2c-0.1,0.1-0.2,0.2-0.2,0.4
	c0,0.1,0.1,0.2,0.2,0.3l1.6,0.5c0.7,0.1,1.3,0.4,1.9,0.8c0.4,0.4,0.5,0.9,0.5,1.4c0,0.7-0.3,1.3-0.8,1.7c-0.6,0.5-1.4,0.8-2.2,0.7
	c-0.7,0-1.5-0.2-2.1-0.6C241,228.2,240.7,227.7,240.6,227.1z"/>
<path class="st2" d="M247.5,225.4c0-0.6,0.1-1.2,0.4-1.8c0.2-0.6,0.7-1.1,1.2-1.4c0.5-0.3,1.1-0.5,1.7-0.5c0.9,0,1.8,0.4,2.4,1.1
	c0.6,0.7,1,1.7,0.9,2.7c0,1-0.3,2-1,2.7c-0.6,0.7-1.5,1.1-2.4,1.1c-0.6,0-1.2-0.1-1.7-0.4c-0.5-0.3-0.9-0.8-1.2-1.3
	C247.5,226.9,247.4,226.1,247.5,225.4z M249.3,225.5c0,0.6,0.2,1.1,0.5,1.6c0.4,0.6,1.3,0.8,1.9,0.4c0.1-0.1,0.3-0.2,0.4-0.4
	c0.3-0.5,0.5-1,0.5-1.6c0-0.6-0.2-1.1-0.5-1.6c-0.4-0.6-1.3-0.8-1.9-0.4c-0.1,0.1-0.3,0.2-0.4,0.4
	C249.5,224.4,249.3,224.9,249.3,225.5z"/>
<path class="st2" d="M261.3,229.1h-1.7v-3.7c0-0.5,0-1-0.1-1.5c-0.1-0.2-0.2-0.4-0.4-0.5l-0.6-0.2c-0.3,0-0.6,0.1-0.8,0.3
	c-0.2,0.2-0.4,0.4-0.5,0.7c-0.1,0.5-0.1,1.1-0.1,1.6v3.2h-1.7v-7h1.6v1c0.5-0.8,1.3-1.2,2.2-1.2l1,0.2c0.3,0.1,0.5,0.3,0.7,0.6
	c0.2,0.2,0.3,0.5,0.3,0.8c0.1,0.4,0.1,0.9,0.1,1.3L261.3,229.1z"/>
<path class="st2" d="M221.2,247v-9.9h1.8l3.7,6.6v-6.6h1.7v9.9h-1.8l-3.6-6.5v6.5H221.2z"/>
<path class="st2" d="M229.8,242.1c0-0.9,0.1-1.7,0.4-2.5c0.2-0.5,0.5-1,0.8-1.4c0.3-0.4,0.7-0.7,1.2-0.9c0.6-0.3,1.2-0.4,1.9-0.4
	c1.2,0,2.4,0.5,3.2,1.4c1.6,2.2,1.6,5.3,0,7.5c-1.7,1.8-4.5,1.8-6.2,0.2c-0.1-0.1-0.1-0.1-0.2-0.2
	C230.1,244.7,229.7,243.4,229.8,242.1z M231.7,242c-0.1,0.9,0.2,1.8,0.7,2.5c0.8,1,2.2,1.2,3.2,0.4c0.1-0.1,0.3-0.2,0.4-0.4
	c0.5-0.8,0.8-1.7,0.7-2.6c0.1-0.9-0.2-1.8-0.7-2.5c-0.9-1-2.4-1.1-3.4-0.2c-0.1,0.1-0.1,0.1-0.2,0.2c-0.6,0.8-0.9,1.7-0.8,2.7
	L231.7,242z"/>
<path class="st2" d="M243.5,247v-9.9h1.8l3.7,6.6v-6.6h1.7v9.9h-1.8l-3.6-6.5v6.5H243.5z"/>
<path class="st2" d="M260.6,247h-2l-0.8-2.2h-3.6l-0.7,2.2h-1.9l3.5-9.9h1.9L260.6,247z M257.2,243.1l-1.2-3.7l-1.2,3.7H257.2z"/>
<path class="st2" d="M260.6,247v-9.9h2.7l1.6,6.8l1.6-6.8h2.7v9.9h-1.7v-7.8l-1.8,7.8h-1.8l-1.8-7.8v7.8H260.6z"/>
<path class="st2" d="M270.3,247v-9.9h6.7v1.7h-4.9v2.2h4.5v1.7h-4.5v2.7h5v1.6H270.3z"/>
<path class="st2" d="M295.5,167.5h-81.1v0.8h81L295.5,167.5z"/>
<path class="st2" d="M354.2,166.1v-9.9h5.1c0.5,0.2,1,0.5,1.3,1c0.4,0.6,0.5,1.2,0.5,1.9c0,0.5-0.1,1-0.3,1.5
	c-0.2,0.4-0.5,0.7-0.8,1l-0.9,0.5H356v3.7L354.2,166.1z M356,157.9v2.8h1l1.4-0.2c0.3-0.1,0.5-0.3,0.6-0.5c0.1-0.2,0.2-0.5,0.2-0.8
	c0-0.3-0.1-0.6-0.3-0.9c-0.2-0.2-0.4-0.4-0.7-0.4L356,157.9L356,157.9z"/>
<path class="st2" d="M362.1,161.2c0-0.9,0.1-1.7,0.4-2.5c0.2-0.5,0.5-1,0.8-1.4c0.3-0.4,0.7-0.7,1.2-0.9c0.6-0.3,1.2-0.4,1.9-0.4
	c1.2,0,2.4,0.5,3.2,1.4c1.6,2.2,1.6,5.3,0,7.5c-1.7,1.8-4.5,1.8-6.2,0.2c-0.1-0.1-0.1-0.1-0.2-0.2
	C362.4,163.8,362,162.5,362.1,161.2z M364,161.1c-0.1,0.9,0.2,1.8,0.7,2.5c0.8,1,2.2,1.2,3.2,0.4c0.1-0.1,0.3-0.2,0.4-0.4
	c0.5-0.8,0.8-1.7,0.7-2.6c0.1-0.9-0.2-1.8-0.7-2.5c-0.9-1-2.4-1.1-3.4-0.2c-0.1,0.1-0.1,0.1-0.2,0.2c-0.6,0.7-0.8,1.7-0.8,2.6
	L364,161.1z"/>
<path class="st2" d="M371.6,162.9l1.8-0.2c0.1,0.5,0.3,1,0.7,1.4c0.4,0.3,0.8,0.5,1.3,0.5c0.5,0,0.9-0.1,1.3-0.4
	c0.3-0.3,0.4-0.6,0.4-1c0-0.2-0.1-0.4-0.2-0.6l-0.7-0.4l-1.5-0.4c-0.8-0.2-1.5-0.5-2.1-1c-0.5-0.5-0.8-1.3-0.8-2
	c0-0.5,0.1-1,0.4-1.4c0.3-0.4,0.6-0.8,1.1-1c0.6-0.2,1.2-0.3,1.8-0.3c0.9-0.1,1.9,0.2,2.6,0.8c0.6,0.6,0.9,1.4,0.9,2.2h-1.8
	c0-0.4-0.2-0.8-0.5-1.1c-0.3-0.2-0.8-0.4-1.2-0.3c-0.4,0-0.9,0.1-1.2,0.4c-0.2,0.1-0.3,0.4-0.3,0.6c0,0.2,0.1,0.5,0.3,0.6
	c0.5,0.3,1.1,0.6,1.7,0.7l2,0.7c0.4,0.2,0.8,0.6,1,1c0.3,0.5,0.4,1,0.4,1.6c0,0.6-0.1,1.1-0.4,1.6c-0.3,0.5-0.7,0.9-1.2,1.1
	c-0.6,0.3-1.3,0.4-2,0.4c-1,0-1.9-0.3-2.6-0.9C372.1,164.8,371.7,163.9,371.6,162.9z"/>
<path class="st2" d="M380.2,166.1v-9.9h1.8v9.9H380.2z"/>
<path class="st2" d="M385.3,166.1v-8.2h-2.7v-1.7h7.2v1.7h-2.7v8.2H385.3z"/>
<path class="st2" d="M390.6,166.1v-9.9h1.8v9.9H390.6z"/>
<path class="st2" d="M393.3,161.2c0-0.9,0.1-1.7,0.4-2.5c0.2-0.5,0.5-1,0.8-1.4c0.3-0.4,0.7-0.7,1.2-0.9c0.6-0.3,1.2-0.4,1.9-0.4
	c1.2,0,2.4,0.5,3.2,1.4c1.6,2.2,1.6,5.3,0,7.5c-1.7,1.8-4.5,1.8-6.2,0.2c-0.1-0.1-0.1-0.1-0.2-0.2
	C393.6,163.8,393.2,162.5,393.3,161.2z M395.2,161.1c-0.1,0.9,0.2,1.8,0.7,2.5c0.8,1,2.2,1.2,3.2,0.4c0.1-0.1,0.3-0.2,0.4-0.4
	c0.5-0.8,0.8-1.7,0.7-2.6c0.1-0.9-0.2-1.8-0.7-2.5c-0.9-1-2.4-1.1-3.4-0.2c-0.1,0.1-0.1,0.1-0.2,0.2
	C395.4,159.3,395.1,160.2,395.2,161.1L395.2,161.1z"/>
<path class="st2" d="M403.3,166.1v-9.9h1.8l3.7,6.6v-6.6h1.7v9.9h-1.8l-3.6-6.5v6.5H403.3z"/>
<path class="st2" d="M374.5,247.6h-2.1l-0.8-2.3h-3.7l-0.8,2.3h-2l3.6-10.2h2L374.5,247.6z M371,243.5l-1.3-3.8l-1.3,3.8H371z"/>
<path class="st2" d="M374.5,247.6v-10.2h3l2.2,0.2c0.5,0.2,1,0.5,1.3,1c0.4,0.6,0.5,1.3,0.5,2c0,0.5-0.1,1.1-0.3,1.6
	c-0.2,0.4-0.5,0.7-0.8,1l-1,0.5h-3.2v3.9L374.5,247.6z M376.4,239.1v2.9h1l1.5-0.2c0.2-0.1,0.5-0.3,0.6-0.5c0.1-0.2,0.2-0.5,0.2-0.8
	c0-0.3-0.1-0.6-0.3-0.9c-0.2-0.3-0.5-0.4-0.8-0.5H376.4L376.4,239.1z"/>
<polyline class="st2" points="350.7,169 350.7,169.8 411.5,169.8 411.5,169 350.7,169 "/>
<path class="st2" d="M270.1,223.3c-0.5-0.2-0.9-0.5-1.2-1c-0.3-0.4-0.4-0.8-0.4-1.3c0-0.8,0.3-1.6,0.9-2.1c1.5-1.1,3.4-1.1,4.9,0
	c0.6,0.5,0.9,1.3,0.9,2.1c0,0.5-0.1,1-0.4,1.4c-0.3,0.4-0.7,0.7-1.1,0.9c0.6,0.2,1.1,0.6,1.4,1.1c0.3,0.5,0.5,1.1,0.5,1.7
	c0,0.9-0.3,1.8-1,2.5c-0.7,0.7-1.6,1-2.6,1c-0.9,0-1.8-0.3-2.5-0.8c-0.8-0.6-1.2-1.6-1.2-2.6c0-0.6,0.1-1.2,0.4-1.7
	C269,224,269.5,223.5,270.1,223.3z M270.3,225.9c0,0.5,0.1,1,0.4,1.4c0.3,0.3,0.7,0.5,1.1,0.5c0.4,0,0.8-0.2,1.1-0.5
	c0.3-0.4,0.4-0.9,0.4-1.4c0-0.5-0.1-0.9-0.4-1.3c-0.3-0.3-0.7-0.5-1.1-0.5c-0.5-0.1-0.9,0.1-1.2,0.5
	C270.4,225,270.2,225.4,270.3,225.9L270.3,225.9z M270.5,221.1c0,0.4,0.1,0.7,0.4,1c0.3,0.3,0.6,0.4,1,0.4c0.4,0,0.7-0.1,1-0.4
	c0.3-0.3,0.4-0.6,0.4-1c0-0.4-0.1-0.7-0.4-1c-0.2-0.2-0.6-0.4-0.9-0.4c-0.4,0-0.7,0.1-1,0.4C270.7,220.3,270.5,220.7,270.5,221.1
	L270.5,221.1z"/>
<path class="st2" d="M375.6,232h-2.1l-0.8-2.3H369l-0.8,2.3h-2l3.6-10.2h2L375.6,232z M372.1,227.9l-1.3-3.8l-1.3,3.8H372.1z"/>
<path class="st2" d="M375.6,232v-10.3h3l2.2,0.2c0.5,0.2,1,0.5,1.3,1c0.4,0.6,0.5,1.3,0.5,2c0,0.5-0.1,1.1-0.3,1.6
	c-0.2,0.4-0.5,0.7-0.8,1l-1,0.5h-3.2v4H375.6z M377.5,223.5v2.9h1l1.5-0.2c0.2-0.1,0.5-0.3,0.6-0.5c0.1-0.2,0.2-0.5,0.2-0.8
	c0-0.3-0.1-0.6-0.3-0.9c-0.2-0.3-0.5-0.4-0.8-0.5H377.5L377.5,223.5z"/>
</svg>
