<svg id="Layer_1" data-name="Layer 1" xmlns="http://www.w3.org/2000/svg" viewBox="0 0 520 1613"><defs><style>.cls-1{fill:#231f20}</style></defs><title>Artboard 2</title><path class="cls-1" d="M168.7 25.1h4.6v21.1h-4.6zM177 30.9h4V33h.1a5.5 5.5 0 0 1 4.7-2.5c4.5 0 5.6 2.5 5.6 6.3v9.4h-4.2v-8.6c0-2.5-.7-3.8-2.7-3.8s-3.3 1.3-3.3 4.4v8H177zM203 46.2h-4.7l-5.2-15.3h4.4l3.2 10.4h.1l3.2-10.4h4.2zM217.3 30.5c4.8 0 7.9 3.2 7.9 8.1s-3.1 8-7.9 8-7.9-3.2-7.9-8 3.1-8.1 7.9-8.1zm0 12.9c2.9 0 3.7-2.5 3.7-4.9s-.9-4.9-3.7-4.9-3.7 2.5-3.7 4.9.9 5 3.7 5zM232.3 28.6h-4.2v-3.5h4.2zm-4.2 2.4h4.2v15.2h-4.2zM246 36.3a2.9 2.9 0 0 0-3.1-2.6c-2.7 0-3.6 2.7-3.6 5s.9 4.8 3.5 4.8a3.2 3.2 0 0 0 3.3-3.1h4.1c-.5 4.1-3.3 6.3-7.4 6.3s-7.7-3.3-7.7-7.8 2.8-8.3 7.8-8.3 6.9 1.9 7.2 5.8zM256 39.6c.1 2.7 1.4 3.9 3.8 3.9a3.5 3.5 0 0 0 3.3-2h3.7a6.9 6.9 0 0 1-7.2 5.1c-4.8 0-7.8-3.3-7.8-8s3.2-8.1 7.8-8.1 7.7 4.4 7.4 9.1zm6.8-2.7c-.4-2.1-1.3-3.3-3.3-3.3a3.3 3.3 0 0 0-3.5 3.3zM282.9 29h-6.3v-3.9h17.3V29h-6.3v17.2H283z"/><path class="cls-1" d="M293.1 30.9h4v2.8h.1a5.4 5.4 0 0 1 4.9-3.3h.9v3.9h-1.5c-3.1 0-4.1 2.2-4.1 4.9v6.9h-4.2zM308.9 28.6h-4.2v-3.5h4.2zm-4.2 2.4h4.2v15.2h-4.2zM326.9 45.2c0 2.5-.9 6.8-7.9 6.8-3 0-6.5-1.4-6.7-4.9h4.2c.4 1.6 1.7 2.1 3.1 2.1s3.4-1.6 3.4-3.8v-2h-.1a5.2 5.2 0 0 1-4.6 2.4c-4.6 0-6.5-3.5-6.5-7.7s2.3-7.6 6.6-7.6A4.8 4.8 0 0 1 323 33h.1v-2h4zm-4-6.9c0-2.5-.9-4.7-3.6-4.7S316 35.7 316 38s.8 4.6 3.4 4.6 3.6-2 3.6-4.2zM345 45.2c0 2.5-.9 6.8-7.9 6.8-3 0-6.5-1.4-6.7-4.9h4.2c.4 1.6 1.7 2.1 3.1 2.1s3.4-1.6 3.4-3.8v-2h-.1a5.2 5.2 0 0 1-4.6 2.4c-4.6 0-6.5-3.5-6.5-7.7s2.3-7.6 6.6-7.6A4.8 4.8 0 0 1 341 33h.1v-2h4zm-4-6.9c0-2.5-.9-4.7-3.6-4.7S334 35.7 334 38s.8 4.6 3.4 4.6 3.6-2 3.6-4.2zM351.8 39.6c.1 2.7 1.4 3.9 3.8 3.9a3.5 3.5 0 0 0 3.3-2h3.7a6.9 6.9 0 0 1-7.2 5.1c-4.8 0-7.8-3.3-7.8-8s3.2-8.1 7.8-8.1 7.7 4.4 7.4 9.1zm6.8-2.7c-.4-2.1-1.3-3.3-3.3-3.3a3.3 3.3 0 0 0-3.5 3.3zM365.4 30.9h4v2.8h.1a5.4 5.4 0 0 1 4.9-3.3h.9v3.9h-1.5c-3.1 0-4.1 2.2-4.1 4.9v6.9h-4.2zM380.1 41.2c0 1.8 1.6 2.6 3.2 2.6s2.7-.5 2.7-2-1.7-1.7-4.8-2.4-4.8-1.4-4.8-4.1 3.4-4.9 6.7-4.9 6.4 1.1 6.7 4.9h-4c-.1-1.6-1.4-2.1-2.9-2.1s-2.3.2-2.3 1.4 2.4 1.7 4.8 2.3 4.8 1.4 4.8 4.3-3.5 5.3-7 5.3-7-1.3-7.2-5.4zM424.5 139.4h8a3.3 3.3 0 0 0 3.3-3.3v-8a3.3 3.3 0 0 0-3.3-3.3h-8a3.3 3.3 0 0 0-3.3 3.3v8a3.3 3.3 0 0 0 3.3 3.3zm.4-3.7v-7.1h7.1v7.1zM442.5 139.4h8a3.3 3.3 0 0 0 3.3-3.3v-8a3.3 3.3 0 0 0-3.3-3.3h-8a3.3 3.3 0 0 0-3.3 3.3v8a3.3 3.3 0 0 0 3.3 3.3zm.4-3.7v-7.1h7.1v7.1zM468.5 124.8h-8a3.3 3.3 0 0 0-3.3 3.3v8a3.3 3.3 0 0 0 3.3 3.3h8a3.3 3.3 0 0 0 3.3-3.3v-8a3.3 3.3 0 0 0-3.3-3.3zm-.4 3.7v7.1H461v-7.1zM432.5 142.1h-8a3.3 3.3 0 0 0-3.3 3.3v8a3.3 3.3 0 0 0 3.3 3.3h8a3.3 3.3 0 0 0 3.3-3.3v-8a3.3 3.3 0 0 0-3.3-3.3zm-.4 3.7v7.2H425v-7.1zM468.5 142.1h-8a3.3 3.3 0 0 0-3.3 3.3v8a3.3 3.3 0 0 0 3.3 3.3h8a3.3 3.3 0 0 0 3.3-3.3v-8a3.3 3.3 0 0 0-3.3-3.3zm-.4 3.7v7.2H461v-7.1zM450.5 142.1h-8a3.3 3.3 0 0 0-3.3 3.3v8a3.3 3.3 0 0 0 3.3 3.3h8a3.3 3.3 0 0 0 3.3-3.3v-8a3.3 3.3 0 0 0-3.3-3.3zm-.4 3.7v7.2H443v-7.1zM432.5 159.4h-8a3.3 3.3 0 0 0-3.3 3.3v8a3.3 3.3 0 0 0 3.3 3.3h8a3.3 3.3 0 0 0 3.3-3.3v-8a3.3 3.3 0 0 0-3.3-3.3zm-.4 3.7v7.1H425v-7.1zM450.5 159.4h-8a3.3 3.3 0 0 0-3.3 3.3v8a3.3 3.3 0 0 0 3.3 3.3h8a3.3 3.3 0 0 0 3.3-3.3v-8a3.3 3.3 0 0 0-3.3-3.3zm-.4 3.7v7.1H443v-7.1zM414.5 142.1h-8a3.3 3.3 0 0 0-3.3 3.3v8a3.3 3.3 0 0 0 3.3 3.3h8a3.3 3.3 0 0 0 3.3-3.3v-8a3.3 3.3 0 0 0-3.3-3.3zm-.4 3.7v7.2H407v-7.1zM414.5 159.4h-8a3.3 3.3 0 0 0-3.3 3.3v8a3.3 3.3 0 0 0 3.3 3.3h8a3.3 3.3 0 0 0 3.3-3.3v-8a3.3 3.3 0 0 0-3.3-3.3zm-.4 3.7v7.1H407v-7.1z"/><path class="cls-1" d="M482.2 99.3a4.3 4.3 0 0 0-4.3-4.3h-10.4v-3a6.8 6.8 0 1 0-13.5 0v3h-33v-3a6.8 6.8 0 1 0-13.5 0v3h-10.4a4.3 4.3 0 0 0-4.3 4.3v82.2a4.3 4.3 0 0 0 3.6 4.3H478a4.3 4.3 0 0 0 4.3-4.3v-65.9zm-85.8 82.2v-64h82.1v64a.6.6 0 0 1-.6.6h-80.8a.6.6 0 0 1-.7-.6zm20.9-79.8a3.1 3.1 0 1 1-6.1 0v-9.8a3.1 3.1 0 1 1 6.1 0zm-3 7.3a7.1 7.1 0 0 0 6.7-7.3v-3h33v3a6.8 6.8 0 1 0 13.5 0v-3H478a.6.6 0 0 1 .6.6v14.5h-82.2V99.3a.6.6 0 0 1 .6-.6h10.5v3a7.1 7.1 0 0 0 6.8 7.3zm49.5-12.2v4.9a3.1 3.1 0 1 1-6.1 0v-9.8a3.1 3.1 0 1 1 6.1 0zM310.4 100c0-1 0-1.3-8.8-10.1s-9-8.9-10.1-8.9h-2.1c-8.6-8.7-8.9-8.7-9.9-8.7h-58l-2 2v105.3l2 2h10.3v6.9l2 2 74.9-.3 2-2zm-6.8-1.6h-10V87.9zM283.2 81h-1.7v-1.8zm-59.7 96.5V76.3h54V81l-44.1.2-2 2 .4 94.3zm12.4 8.9l-.4-101.3 54-.2v15.4l2 2h14.8l.3 83.9zM233.7 211.6a4.3 4.3 0 0 0-4.6-3.5c-3.9 0-5.6 3.2-5.6 6.6s1.7 6.9 5.6 6.9 4.5-2 4.7-4.7h2.2c-.4 4.1-3 6.6-7.1 6.6s-7.6-3.8-7.6-8.6 2.7-8.6 7.8-8.6c3.4 0 6.3 1.8 6.8 5.3zM243.6 210.9c3.8 0 5.8 2.7 5.8 6.2s-2 6.2-5.8 6.2-5.8-2.7-5.8-6.2 2-6.2 5.8-6.2zm0 10.7c2 0 3.7-1.6 3.7-4.5s-1.7-4.5-3.7-4.5-3.7 1.6-3.7 4.5 1.6 4.5 3.7 4.5zM251.7 211.2h1.8v1.8a4.1 4.1 0 0 1 3.9-2.2c3.1 0 4.1 1.8 4.1 4.3v7.9h-2v-8a2.2 2.2 0 0 0-2.4-2.4c-2.4 0-3.5 1.6-3.5 3.7v6.7h-2zM267.2 211.2h2.4v1.7h-2.4v7.4c0 .9.3 1.1 1.5 1.1h.9v1.6H268c-2 0-2.8-.4-2.8-2.6v-7.6h-2v-1.7h2v-3.6h2zM271.6 211.2h1.8v2.5a4.3 4.3 0 0 1 4.4-2.8v2.1c-3.2 0-4.3 1.8-4.3 4.8v5.2h-2zM289.9 223a2.6 2.6 0 0 1-1.4.3c-1 0-1.7-.6-1.7-1.8a5.3 5.3 0 0 1-4.2 1.8c-2.2 0-3.9-1-3.9-3.3s2-3.3 4-3.7 4-.3 4-1.7-1.4-2-2.6-2-2.9.5-3 2.3h-2c.1-2.9 2.4-4 5-4s4.5.5 4.5 3.3v6.1c0 .9 0 1.3.6 1.3h.6zm-3.2-6.1c-.8.6-2.2.6-3.5.8s-2.4.7-2.4 2.1 1.1 1.7 2.3 1.7 3.6-1.6 3.6-2.7zM299.8 215a2.8 2.8 0 0 0-2.9-2.4c-2.8 0-3.7 2.2-3.7 4.6s1 4.3 3.5 4.3a3.1 3.1 0 0 0 3.3-2.9h2c-.4 2.9-2.3 4.6-5.2 4.6s-5.6-2.5-5.6-6.1 1.8-6.4 5.6-6.4 4.9 1.3 5.1 4.1zM306.8 211.2h2.4v1.7h-2.4v7.4c0 .9.3 1.1 1.5 1.1h.9v1.6h-1.5c-2 0-2.8-.4-2.8-2.6v-7.6h-2v-1.7h2v-3.6h2zM219.7 477.3h2.2v16.4h-2.2zM225.2 481.8h1.8v1.9a4.1 4.1 0 0 1 3.9-2.2c3.1 0 4.1 1.8 4.1 4.3v7.8h-2v-8a2.2 2.2 0 0 0-2.4-2.4c-2.4 0-3.5 1.6-3.5 3.7v6.7h-2zM243.4 493.7h-2.1l-4.4-11.9h2.1l3.3 9.9 3.2-9.9h2zM254.6 481.5c3.8 0 5.8 2.7 5.8 6.2s-2 6.2-5.8 6.2-5.8-2.7-5.8-6.2 2.1-6.2 5.8-6.2zm0 10.7c2 0 3.7-1.6 3.7-4.5s-1.7-4.5-3.7-4.5-3.7 1.6-3.7 4.5 1.7 4.5 3.7 4.5zM264.8 479.6h-2v-2.4h2zm-2 2.1h2v11.9h-2zM275.9 485.6a2.8 2.8 0 0 0-2.9-2.4c-2.8 0-3.7 2.2-3.7 4.6s1 4.3 3.5 4.3a3.1 3.1 0 0 0 3.3-2.9h2c-.4 2.9-2.3 4.6-5.2 4.6s-5.6-2.5-5.6-6.1 1.8-6.4 5.6-6.4 4.9 1.3 5.1 4.1zM290.3 489.9a4.8 4.8 0 0 1-5.1 4c-3.8 0-5.6-2.6-5.7-6.3s2.3-6.2 5.6-6.2 5.5 3.9 5.4 6.8h-8.9a3.5 3.5 0 0 0 3.7 3.9 2.9 2.9 0 0 0 3.1-2.3zm-1.9-3.3a3.4 3.4 0 0 0-3.4-3.4 3.4 3.4 0 0 0-3.4 3.4zM308.7 482.1c-.3-2.3-1.8-3.4-4.1-3.4s-3.7.7-3.7 2.8 2.6 2.3 5.3 2.9 5.2 1.5 5.2 4.7-3.4 4.9-6.4 4.9-6.8-1.8-6.8-5.8h2.1c0 2.8 2.3 4 4.8 4s4.2-.6 4.2-3-2.6-2.6-5.2-3.2-5.3-1.3-5.3-4.3 3-4.8 6-4.8 5.9 1.6 6 5.2zM323.9 489.9a4.8 4.8 0 0 1-5.1 4c-3.8 0-5.6-2.6-5.7-6.3s2.3-6.2 5.6-6.2 5.5 3.9 5.4 6.8h-8.9a3.5 3.5 0 0 0 3.7 3.9 2.9 2.9 0 0 0 3.1-2.3zm-1.9-3.3a3.4 3.4 0 0 0-3.4-3.4 3.4 3.4 0 0 0-3.4 3.4zM326.2 481.8h1.8v1.9a4.1 4.1 0 0 1 3.9-2.2c3.1 0 4.1 1.8 4.1 4.3v7.8h-2v-8a2.2 2.2 0 0 0-2.4-2.4c-2.4 0-3.5 1.6-3.5 3.7v6.7h-2zM341.7 481.8h2.3v1.7h-2.4v7.4c0 .9.3 1.1 1.5 1.1h.9v1.7h-1.5c-2 0-2.8-.4-2.8-2.6v-7.6h-2v-1.7h2v-3.6h2zM189.6 691.4h2.2v16.4h-2.2zM195.2 695.9h1.8v1.9a4.1 4.1 0 0 1 3.9-2.2c3.1 0 4.1 1.8 4.1 4.3v7.8h-2v-8a2.2 2.2 0 0 0-2.4-2.4c-2.4 0-3.5 1.6-3.5 3.7v6.7h-2zM213.3 707.8h-2.1l-4.4-11.9h2.2l3.3 9.9 3.2-9.9h2zM224.6 695.6c3.8 0 5.8 2.7 5.8 6.2s-2 6.2-5.8 6.2-5.8-2.7-5.8-6.2 2-6.2 5.8-6.2zm0 10.7c2 0 3.7-1.6 3.7-4.5s-1.7-4.5-3.7-4.5-3.7 1.6-3.7 4.5 1.6 4.5 3.7 4.5zM234.7 693.8h-2v-2.4h2zm-2 2.1h2v11.9h-2zM245.8 699.7a2.8 2.8 0 0 0-2.9-2.4c-2.8 0-3.7 2.2-3.7 4.6s1 4.3 3.5 4.3a3.1 3.1 0 0 0 3.3-2.9h2c-.4 2.9-2.3 4.6-5.2 4.6s-5.6-2.5-5.6-6.1 1.8-6.4 5.6-6.4 4.9 1.3 5.1 4.1zM260.3 704a4.8 4.8 0 0 1-5.1 4c-3.8 0-5.6-2.6-5.7-6.3s2.3-6.2 5.6-6.2 5.5 3.9 5.4 6.8h-8.9a3.5 3.5 0 0 0 3.7 3.9 2.9 2.9 0 0 0 3.1-2.3zm-1.9-3.3a3.4 3.4 0 0 0-3.4-3.4 3.4 3.4 0 0 0-3.4 3.4zM273.6 691.4h2.4l6.4 16.4H280l-1.8-4.9h-6.9l-1.8 4.9h-2.3zM272 701h5.6l-2.7-7.7zM283.8 695.9h2v1.6a4 4 0 0 1 3.8-1.9c3.7 0 5.5 2.9 5.5 6.3s-1.8 6.2-5.4 6.2a4.6 4.6 0 0 1-3.8-1.9v6.1h-2zm5.5 1.4c-2.6 0-3.6 2.3-3.6 4.5s1.1 4.5 3.7 4.5 3.6-2.3 3.6-4.6-1.1-4.4-3.7-4.4zM297.5 695.9h2v1.6a4 4 0 0 1 3.8-1.9c3.7 0 5.5 2.9 5.5 6.3s-1.8 6.2-5.4 6.2a4.6 4.6 0 0 1-3.8-1.9v6.1h-2zm5.5 1.4c-2.6 0-3.6 2.3-3.6 4.5s1.1 4.5 3.7 4.5 3.6-2.3 3.6-4.6-1.2-4.4-3.7-4.4zM311 695.9h1.8v2.5a4.3 4.3 0 0 1 4.4-2.8v2.1c-3.2 0-4.3 1.8-4.3 4.8v5.3h-2zM323.4 695.6c3.8 0 5.8 2.7 5.8 6.2s-2 6.2-5.8 6.2-5.8-2.7-5.8-6.2 2-6.2 5.8-6.2zm0 10.7c2 0 3.7-1.6 3.7-4.5s-1.7-4.5-3.7-4.5-3.7 1.6-3.7 4.5 1.7 4.5 3.7 4.5zM336.8 707.8h-2.1l-4.4-11.9h2.2l3.3 9.9 3.2-9.9h2zM353.1 704a4.8 4.8 0 0 1-5.1 4c-3.8 0-5.6-2.6-5.7-6.3s2.3-6.2 5.6-6.2 5.5 3.9 5.4 6.8h-8.9a3.5 3.5 0 0 0 3.7 3.9 2.9 2.9 0 0 0 3.1-2.3zm-1.9-3.3a3.4 3.4 0 0 0-3.4-3.4 3.4 3.4 0 0 0-3.4 3.4zM365.9 707.8h-2v-1.6a4 4 0 0 1-3.8 1.9c-3.7 0-5.5-2.9-5.5-6.3s1.8-6.2 5.4-6.2a4.6 4.6 0 0 1 3.8 1.9v-6.1h2zm-5.5-1.4c2.6 0 3.6-2.3 3.6-4.5s-1.1-4.5-3.7-4.5-3.6 2.3-3.6 4.6 1.2 4.3 3.7 4.3zM233.8 719h2v6.1a4 4 0 0 1 3.8-1.9c3.7 0 5.5 2.9 5.5 6.3s-1.8 6.2-5.4 6.2a4.6 4.6 0 0 1-3.8-1.9v1.6h-2zm5.5 6c-2.6 0-3.6 2.3-3.6 4.5s1.1 4.5 3.7 4.5 3.6-2.3 3.6-4.6-1.2-4.5-3.7-4.5zM252 737c-.9 2.3-1.7 3.2-3.4 3.2l-1.4-.2v-1.8l1.1.3a1.7 1.7 0 0 0 1.6-1.1l.8-2-4.7-11.8h2.2l3.5 9.7 3.3-9.7h2.1zM277.1 723.9a4.3 4.3 0 0 0-4.6-3.5c-3.9 0-5.6 3.2-5.6 6.6s1.7 6.9 5.6 6.9 4.5-2 4.7-4.7h2.2c-.4 4.1-3 6.6-7.1 6.6s-7.6-3.8-7.6-8.6 2.7-8.6 7.8-8.6c3.4 0 6.3 1.8 6.8 5.3zM282 719h2v16.4h-2zM289 721.3h-2V719h2zm-2 2.1h2v11.9h-2zM302.2 731.6a4.8 4.8 0 0 1-5.1 4c-3.8 0-5.6-2.6-5.7-6.3s2.3-6.2 5.6-6.2 5.5 3.9 5.4 6.8h-8.9a3.5 3.5 0 0 0 3.7 3.9 2.9 2.9 0 0 0 3.1-2.3zm-1.9-3.3a3.4 3.4 0 0 0-3.4-3.4 3.4 3.4 0 0 0-3.4 3.4zM304.4 723.5h1.8v1.9a4.1 4.1 0 0 1 3.9-2.2c3.1 0 4.1 1.8 4.1 4.3v7.8h-2v-8a2.2 2.2 0 0 0-2.4-2.4c-2.4 0-3.5 1.6-3.5 3.7v6.7h-2zM319.9 723.5h2.4v1.7h-2.4v7.4c0 .9.3 1.1 1.5 1.1h.9v1.7h-1.5c-2 0-2.8-.4-2.8-2.6v-7.6h-2v-1.7h2v-3.6h2zM338.3 775.7l2.8 6.6c1.3 3 .3 5.3-2.5 6.5s-5.2.3-6.4-2.8l-1.9-4.6-6.2 2.6-.8-2zm-6.4 5.1l1.7 3.9c.9 2.3 2.4 2.9 4.2 2.1s2.3-2.2 1.4-4.5l-1.7-3.9zM333 805.2a2.6 2.6 0 0 1-.8-1.2c-.4-.9-.1-1.7 1.1-2.2a5.3 5.3 0 0 1-3.3-3.1c-.8-2-.6-4 1.5-4.9s3.8.6 4.9 2.3 1.8 3.6 3.2 3 1.3-2.1.8-3.2-1.6-2.5-3.2-1.9l-.8-1.8c2.8-1 4.6.7 5.6 3.1s1.3 4.3-1.3 5.4l-5.6 2.4c-.8.4-1.2.5-1 1.1l.3.5zm4.4-5.3c-.8-.5-1.4-1.8-2.1-3s-1.6-1.9-2.9-1.4-1.2 1.7-.7 2.8 2.9 2.7 3.9 2.3zM334 811.8c-2.5.1-3.6-.3-4.3-1.9a3.9 3.9 0 0 1-.3-1.3l1.7-.7a4 4 0 0 0 .2 1.2 1.7 1.7 0 0 0 1.6 1.1h2.2l9.1-8.9.9 2-7.6 7 10.3-.7.8 1.9zM349.1 812.8l.7 1.7-1.6.7a4.4 4.4 0 0 1 3.4 2.8 3.2 3.2 0 0 1-.6 3.8 4.4 4.4 0 0 1 3.3 2.6c.9 2.2.6 4-1.6 5l-8 3.4-.8-1.8 7.2-3c1.4-.6 2.3-1.4 1.5-3.1a2.9 2.9 0 0 0-4-1.7l-6.8 2.9-.8-1.8 7.2-3c1.4-.6 2.3-1.5 1.6-3.1a3.2 3.2 0 0 0-4-1.7l-6.8 2.9-.8-1.8zM353.2 843.4a4.8 4.8 0 0 1-5.7-3.1c-1.5-3.5.2-6.2 3.5-7.7s6.6-.2 7.9 2.7-1.5 6.6-4.2 7.6l-3.5-8.2a3.5 3.5 0 0 0-2.2 4.9 2.9 2.9 0 0 0 3.3 1.9zm2.3-3a3.4 3.4 0 0 0 1.8-4.5 3.4 3.4 0 0 0-4.4-1.8zM361.5 842.3l.7 1.7-1.7.7a4.1 4.1 0 0 1 3.5 2.7c1.2 2.9-.1 4.5-2.4 5.5l-7.2 3-.8-1.8 7.4-3.1a2.2 2.2 0 0 0 1.3-3.2c-.9-2.2-2.8-2.6-4.8-1.8l-6.2 2.6-.8-1.8zM367.6 856.6l.9 2.2-1.6.7-.9-2.2-6.8 2.9c-.8.3-.9.6-.4 1.8l.3.8-1.6.7-.6-1.4c-.8-1.9-.7-2.8 1.3-3.6l7-2.9-.8-1.9 1.6-.7.8 1.9 3.3-1.4.8 1.8zM376.1 865.2l3 7.1c1.2 2.8.4 5.3-2 6.3a3.9 3.9 0 0 1-4.9-1c.4 1.9-.7 2.8-2.2 3.6s-3.1 1.4-3.8 2.7l-.9-2.2c.4-.8 2.1-1.2 3.5-2.1s2.5-1.7 1.7-3.7l-2.1-4.9-6.5 2.7-.8-2zm-4.4 9.2c.8 1.9 2 3.3 4.2 2.4a2.6 2.6 0 0 0 1.5-3.8l-2.1-5-5.3 2.2zM374.4 893.7a4.8 4.8 0 0 1-5.7-3.1c-1.5-3.5.2-6.2 3.5-7.7s6.6-.2 7.9 2.7-1.5 6.6-4.2 7.6l-3.5-8.2a3.5 3.5 0 0 0-2.2 4.9 2.9 2.9 0 0 0 3.3 1.9zm2.3-3a3.4 3.4 0 0 0 1.8-4.5 3.4 3.4 0 0 0-4.4-1.8zM382.3 901.5a2.8 2.8 0 0 0 1-3.6c-1.1-2.6-3.5-2.5-5.7-1.6s-3.6 2.6-2.7 4.9a3.1 3.1 0 0 0 4.1 1.8l.8 1.8c-2.8.7-5.1-.3-6.3-3s.2-6.1 3.4-7.5 6.6-.8 8.1 2.7.7 5-1.8 6.3zM384 916.4a4.8 4.8 0 0 1-5.7-3.1c-1.5-3.5.2-6.2 3.5-7.7s6.6-.2 7.9 2.7-1.5 6.6-4.2 7.6l-3.5-8.2a3.5 3.5 0 0 0-2.2 4.9 2.9 2.9 0 0 0 3.3 1.9zm2.3-3a3.4 3.4 0 0 0 1.8-4.5 3.4 3.4 0 0 0-4.4-1.8zM395.1 916.4l-.8-1.8 2.2-.9.8 1.8zm-2.7-1l.8 1.8-11 4.6-.8-1.8zM385.4 929.6l-.8-1.9 9.2-8.7.8 2-7.8 6.9 10.4-.9.8 1.9zM395.2 943.1a4.8 4.8 0 0 1-5.7-3.1c-1.5-3.5.2-6.2 3.5-7.7s6.6-.2 7.9 2.7-1.5 6.6-4.2 7.6l-3.5-8.2a3.5 3.5 0 0 0-2.2 4.9 2.9 2.9 0 0 0 3.3 1.9zm2.3-3a3.4 3.4 0 0 0 1.8-4.5 3.4 3.4 0 0 0-4.4-1.8zM396.8 956.4l-.8-1.8 1.5-.6a4 4 0 0 1-3.2-2.8c-1.4-3.4.5-6.2 3.6-7.5s6.4-.8 7.8 2.6a4.6 4.6 0 0 1-.2 4.3l5.6-2.4.8 1.8zm-.8-5.7c1 2.4 3.5 2.5 5.5 1.6s3.7-2.7 2.7-5.2-3.5-2.4-5.6-1.5-3.6 2.8-2.7 5.1zM147.1 918.7l.9-2.1 15.6-3-12.3-5 .8-1.9 15.2 6.2-.9 2.2-15.5 3 12.2 5-.8 1.9zM159.1 900.5c1.4-3.5 4.7-4.3 8-3s5 4.2 3.6 7.7-4.7 4.3-7.9 3-5.1-4.2-3.7-7.7zm9.9 4.1c.8-1.9-.1-4-2.7-5.1s-4.8-.2-5.6 1.7.1 4 2.8 5.1 4.8.2 5.5-1.7zM160.8 885.2l2.7-6.7c1.2-3 3.6-4 6.4-2.8s3.8 3.5 2.6 6.5l-1.9 4.6 6.2 2.5-.8 2zm8.1 1l1.6-4c1-2.3.4-3.7-1.4-4.5s-3.2-.1-4.1 2.2l-1.6 4zM185.5 868.2a2.6 2.6 0 0 1-.2 1.4 1.6 1.6 0 0 1-2.3.8 5.3 5.3 0 0 1 .1 4.6c-.8 2-2.4 3.3-4.6 2.4s-2.3-3.1-1.9-5.1 1.3-3.8-.1-4.4-2.4.5-2.8 1.7-.6 2.9 1 3.6l-.7 1.8c-2.7-1.2-2.8-3.7-1.8-6.2s2.1-3.9 4.7-2.9l5.7 2.3c.9.3 1.2.5 1.5-.1a1.7 1.7 0 0 0 .1-.6zm-6.8.6c.2.9-.3 2.3-.6 3.6s-.3 2.5 1.1 3 2-.4 2.5-1.5-.1-4-1.1-4.4zM189.4 862.8c1.8 1.7 2.3 2.8 1.6 4.4a3.9 3.9 0 0 1-.7 1.2l-1.7-.7a4 4 0 0 0 .7-1 1.7 1.7 0 0 0-.4-1.9l-1.6-1.5h-12.6l.8-2 10.3.5-7.7-6.8.8-1.9zM179.5 851.4l.7-1.7 1.6.7a4.4 4.4 0 0 1-.4-4.3 3.2 3.2 0 0 1 3.1-2.3 4.4 4.4 0 0 1-.5-4.2c.9-2.2 2.4-3.3 4.7-2.4l8.1 3.3-.7 1.8-7.2-3c-1.4-.6-2.6-.6-3.3 1.1a2.9 2.9 0 0 0 1.6 4l6.9 2.8-.7 1.8-7.2-3c-1.4-.6-2.6-.6-3.3 1.1a3.2 3.2 0 0 0 1.6 4.1l6.9 2.8-.7 1.8zM198.3 826.9a4.8 4.8 0 0 1 1.8 6.2c-1.4 3.5-4.5 4.2-8 2.9s-4.8-4.5-3.6-7.5 5.7-3.6 8.3-2.4l-3.4 8.2a3.5 3.5 0 0 0 5-1.9 2.9 2.9 0 0 0-1-3.7zm-3.8.5a3.4 3.4 0 0 0-4.4 1.9 3.4 3.4 0 0 0 1.8 4.4zM191.6 821.8l.7-1.7 1.7.7a4.1 4.1 0 0 1-.5-4.4c1.2-2.9 3.2-3.1 5.6-2.1l7.2 3-.7 1.8-7.5-3.1a2.2 2.2 0 0 0-3.1 1.3c-.9 2.2.1 3.9 2.1 4.7l6.2 2.5-.7 1.8zM197.5 807.4l.9-2.2 1.6.7-.9 2.2 6.8 2.8c.8.3 1.1.2 1.5-1l.3-.8 1.6.7-.6 1.4c-.8 1.9-1.5 2.5-3.5 1.6l-7-2.9-.8 1.9-1.6-.7.8-1.9-3.3-1.4.7-1.8zM321.6 460h-80.7a4.5 4.5 0 0 1-4.5-4.5V354.4a4.5 4.5 0 0 1 4.5-4.5h64.9l.8.2.5.2 1.2.8 16.1 13.7a4.4 4.4 0 0 1 1.1 1.4l.2.4a4.3 4.3 0 0 1 .3 1.1v87.7a4.5 4.5 0 0 1-4.4 4.6zm-80.7-106.1a.5.5 0 0 0-.5.5v101.1a.5.5 0 0 0 .5.5h80.6a.5.5 0 0 0 .5-.5v-87.7L305.8 354h-64.9zm64.1 0zm.8-3.9z"/><path class="cls-1" d="M298.3 376.6a1.2 1.2 0 1 0-2.5 0v2.5h-9.6v-2.5a1.2 1.2 0 1 0-2.5 0v2.5h-16.4v-2.5a1.2 1.2 0 1 0-2.5 0v2.5h-10.5v-2.5a1.2 1.2 0 1 0-2.5 0v69.8a1.2 1.2 0 1 0 2.5 0v-2.2h10.5v2.2a1.2 1.2 0 0 0 2.5 0v-2.2h16.5v2.2a1.2 1.2 0 1 0 2.5 0v-2.2h9.6v2.2a1.2 1.2 0 1 0 2.5 0v-2.2h9.9v2.2a1.2 1.2 0 1 0 2.5 0v-69.8a1.2 1.2 0 1 0-2.5 0v2.5h-9.9zm-33.5 65.1h-10.5v-6.4h10.5zm0-8.9h-10.5v-6.5h10.5zm0-8.9h-10.5v-6.4h10.5zm0-8.9h-10.5v-6.5h10.5zm0-8.9h-10.5v-6.5h10.5zm0-8.9h-10.5v-6.5h10.5zm0-8.9h-10.5v-6.5h10.5zm18.9 53.6h-16.4v-6.4h16.5zm0-8.9h-16.4v-6.5h16.5zm0-8.9h-16.4v-6.4h16.5zm0-8.9h-16.4v-6.5h16.5zm0-8.9h-16.4v-6.5h16.5zm0-8.9h-16.4v-6.5h16.5zm0-8.9h-16.4V382h16.5zm12.1 53.6h-9.6v-6.4h9.6zm0-8.9h-9.6v-6.5h9.6zm0-8.9h-9.6v-6.4h9.6zm0-8.9h-9.6v-6.5h9.6zm0-8.9h-9.6V400h9.6zm0-8.9h-9.6v-6.5h9.6zm0-8.9h-9.6v-6.5h9.6zm12.3 53.6h-9.9v-6.4h9.9zm0-8.9h-9.9v-6.5h9.9zm0-8.9h-9.9v-6.4h9.9zm0-8.9h-9.9v-6.5h9.9zm0-8.9h-9.9v-6.5h9.9zm0-8.9h-9.9v-6.5h9.9zm0-15.4v6.5h-9.9v-6.5zM254.3 369.4h36.5a2.5 2.5 0 0 0 0-5h-36.5a2.5 2.5 0 0 0 0 5zM152.5 1111.9a44.4 44.4 0 1 1 44.4-44.4 44.5 44.5 0 0 1-44.4 44.4zm0-84.8a40.4 40.4 0 1 0 40.4 40.4 40.4 40.4 0 0 0-40.4-40.4z"/><path class="cls-1" d="M152.5 1080.6h-.6a6.5 6.5 0 0 1-5.9-5.9l-2.4-26.2a8.9 8.9 0 0 1 8.1-9.7 8.9 8.9 0 0 1 9.7 8.1 9.8 9.8 0 0 1 0 1.6l-2.4 26.2a6.5 6.5 0 0 1-6.4 5.9zm-.5-37.8a4.9 4.9 0 0 0-4.5 5.4l2.4 26.2a2.5 2.5 0 0 0 5 0l2.4-26.2a5.9 5.9 0 0 0 0-.9 4.9 4.9 0 0 0-5.4-4.4z"/><path class="cls-1" d="M152.5 1096.5a7.9 7.9 0 1 1 8-8 8 8 0 0 1-8 8zm0-11.9a3.9 3.9 0 1 0 4 3.9 4 4 0 0 0-4-3.9zM104.7 1124.9h7.7c3.1 0 5 1.7 5 4.3a3.9 3.9 0 0 1-2.9 4.2c1.9.4 2.3 1.8 2.5 3.4s0 3.4 1 4.5h-2.4c-.6-.7-.3-2.4-.6-4s-.6-3-2.7-3H107v7h-2.2zm6.7 7.6c2 0 3.8-.5 3.8-2.9a2.6 2.6 0 0 0-2.9-2.8h-5.4v5.7zM130.3 1137.6a4.8 4.8 0 0 1-5.1 4c-3.8 0-5.6-2.6-5.7-6.3s2.3-6.2 5.6-6.2 5.5 3.9 5.4 6.8h-8.9a3.5 3.5 0 0 0 3.7 3.9 2.9 2.9 0 0 0 3.1-2.3zm-1.9-3.3a3.4 3.4 0 0 0-6.8 0zM132.5 1129.4h1.8v1.7a4.4 4.4 0 0 1 3.8-2 3.2 3.2 0 0 1 3.3 2 4.4 4.4 0 0 1 3.7-2c2.4 0 4 1 4 3.4v8.7h-2v-7.8c0-1.5-.4-2.6-2.3-2.6a2.9 2.9 0 0 0-3.1 3v7.4h-2v-7.8c0-1.5-.5-2.6-2.2-2.6a3.2 3.2 0 0 0-3.2 3v7.4h-2zM154.2 1127.3h-2v-2.4h2zm-2 2.1h2v11.9h-2zM157.2 1129.4h1.8v1.9a4.1 4.1 0 0 1 3.9-2.2c3.1 0 4.1 1.8 4.1 4.3v7.8h-2v-8a2.2 2.2 0 0 0-2.4-2.4c-2.4 0-3.5 1.6-3.5 3.7v6.7h-2zM180.6 1141.3h-2v-1.6a4 4 0 0 1-3.8 1.9c-3.7 0-5.5-2.9-5.5-6.3s1.8-6.2 5.4-6.2a4.6 4.6 0 0 1 3.8 1.9v-6.1h2zm-5.5-1.4c2.6 0 3.6-2.3 3.6-4.5s-1.1-4.5-3.7-4.5-3.6 2.3-3.6 4.6 1.2 4.4 3.7 4.4zM193.8 1137.6a4.8 4.8 0 0 1-5.1 4c-3.8 0-5.6-2.6-5.7-6.3s2.3-6.2 5.6-6.2 5.5 3.9 5.4 6.8h-9a3.5 3.5 0 0 0 3.7 3.9 2.9 2.9 0 0 0 3.1-2.3zm-1.9-3.3a3.4 3.4 0 0 0-6.8 0zM195.9 1129.4h1.8v2.5a4.3 4.3 0 0 1 4.4-2.8v2.1c-3.1 0-4.3 1.8-4.3 4.8v5.3h-2zM268.8 650c-4.5 0-8-3.9-8.4-4.3l-15.3-16.1c-2.3-2.1-2.6-4.8-.8-7.1a36.4 36.4 0 0 1 4.1-4.1l.2-.2a19.6 19.6 0 0 1 2.3-1.9 5.1 5.1 0 0 1 6.6.7l.4.5 1.2 1.3c1.5 1.7 4.5 5 8.9 9.3l15.7-24.2c9.1-13.8 21-21.4 27.7-17.5l2.3 1.3-1.8 1.9c-.1.1-7.2 7.4-20.6 31.1-5.6 9.9-12.1 20.3-15.1 25-1.8 2.8-4.1 4.3-6.7 4.5zm-15-30.7l-.7.2-1.8 1.5-.2.2a34 34 0 0 0-3.6 3.6c-.4.5-.6.9.3 1.8h.1l15.4 16.2c.8.9 3.4 3.2 5.7 3s2.5-1 3.6-2.7c3-4.6 9.5-15 15-24.8 9.4-16.6 15.8-25.3 18.9-29.2-4.9.4-12.9 6.3-19.7 16.7L271 630.5a3.7 3.7 0 0 1-2.7 1.9 3.3 3.3 0 0 1-2.7-1c-3.3-3.3-7.6-7.7-9.6-10.1l-1-1.2-.5-.5a.9.9 0 0 0-.7-.3zm13.7 9.2z"/><path class="cls-1" d="M323.9 665.3h-92.6a2 2 0 0 1-2-2v-92.6a2 2 0 0 1 2-2h92.6a2 2 0 0 1 2 2v92.6a2 2 0 0 1-2 2zm-90.6-4h88.6v-88.6h-88.6zM117 1315.4h2.2v16.4H117zM122.5 1320h1.8v1.9a4.1 4.1 0 0 1 3.9-2.2c3.1 0 4.1 1.8 4.1 4.3v7.8h-2v-8a2.2 2.2 0 0 0-2.4-2.4c-2.4 0-3.5 1.6-3.5 3.7v6.7h-2zM138 1320h2.4v1.7H138v7.4c0 .9.3 1.1 1.5 1.1h.9v1.7h-1.5c-2 0-2.8-.4-2.8-2.6v-7.6h-2v-1.7h2v-3.6h2zM152.7 1328.1a4.8 4.8 0 0 1-5.1 4c-3.8 0-5.6-2.6-5.7-6.3s2.3-6.2 5.6-6.2 5.5 3.9 5.4 6.8H144a3.5 3.5 0 0 0 3.7 3.9 2.9 2.9 0 0 0 3.1-2.3zm-1.9-3.3a3.4 3.4 0 0 0-6.8 0zM154.8 1320h1.8v2.5a4.3 4.3 0 0 1 4.4-2.8v2.1c-3.1 0-4.3 1.8-4.3 4.8v5.3h-2zM172.3 1328.1a4.8 4.8 0 0 1-5.1 4c-3.8 0-5.6-2.6-5.7-6.3s2.3-6.2 5.6-6.2 5.5 3.9 5.4 6.8h-8.9a3.5 3.5 0 0 0 3.7 3.9 2.9 2.9 0 0 0 3.1-2.3zm-1.9-3.3a3.4 3.4 0 0 0-6.8 0zM175.7 1328.1c.1 1.7 1.6 2.3 3.2 2.3s2.9-.3 2.9-1.8-1.9-1.8-3.9-2.2-3.9-1.1-3.9-3.4 2.4-3.4 4.4-3.4 4.7.8 4.9 3.7h-2c-.1-1.5-1.5-2-2.8-2s-2.5.3-2.5 1.5 2.1 1.6 3.9 2.1 3.9 1.1 3.9 3.4-2.6 3.7-5.1 3.7-4.9-1.1-5-4zM188.7 1320h2.4v1.7h-2.4v7.4c0 .9.3 1.1 1.5 1.1h.9v1.7h-1.5c-2 0-2.8-.4-2.8-2.6v-7.6h-2v-1.7h2v-3.6h2zM122.8 1348a4.3 4.3 0 0 0-4.6-3.5c-3.9 0-5.6 3.2-5.6 6.6s1.7 6.9 5.6 6.9 4.5-2 4.7-4.7h2.2c-.4 4.1-3 6.6-7.1 6.6s-7.6-3.8-7.6-8.6 2.7-8.6 7.8-8.6c3.4 0 6.3 1.8 6.8 5.3zM127.5 1343h2v6.3a4 4 0 0 1 3.7-2c3.1 0 4.1 1.8 4.1 4.3v7.8h-2v-8a2.2 2.2 0 0 0-2.4-2.4c-2.4 0-3.5 1.6-3.5 3.7v6.7h-2zM150.9 1359.4a2.6 2.6 0 0 1-1.4.3c-1 0-1.7-.6-1.7-1.8a5.3 5.3 0 0 1-4.2 1.8c-2.2 0-3.9-1-3.9-3.3s2-3.3 4-3.7 4-.3 4-1.7-1.4-2-2.6-2-2.9.5-3 2.3h-2c.1-2.9 2.4-4 5-4s4.5.5 4.5 3.3v6.1c0 .9 0 1.3.6 1.3h.6zm-3.2-6.1c-.8.6-2.2.6-3.5.8s-2.4.7-2.4 2.1 1.1 1.7 2.3 1.7 3.6-1.6 3.6-2.7zM152.6 1347.6h1.8v2.5a4.3 4.3 0 0 1 4.4-2.8v2.1c-3.1 0-4.3 1.8-4.3 4.8v5.3h-2zM169.9 1358.4c0 3.9-1.8 5.8-5.5 5.8-2.2 0-4.8-.9-4.9-3.5h2c.1 1.4 1.8 1.9 3.1 1.9s3.6-1.8 3.6-4.5v-.8a4 4 0 0 1-3.7 2.2c-3.5 0-5.3-2.8-5.3-6s1.4-6.3 5.5-6.3a3.9 3.9 0 0 1 3.5 2v-1.7h1.8zm-1.9-5.2c0-2.1-.9-4.3-3.4-4.3s-3.5 2-3.5 4.3.8 4.5 3.4 4.5 3.5-2.2 3.5-4.4zM183 1355.7a4.8 4.8 0 0 1-5.1 4c-3.8 0-5.6-2.6-5.7-6.3s2.3-6.2 5.6-6.2 5.5 3.9 5.4 6.8h-8.9a3.5 3.5 0 0 0 3.7 3.9 2.9 2.9 0 0 0 3.1-2.3zm-1.9-3.3a3.4 3.4 0 0 0-6.8 0zM195.9 1359.5h-2v-1.6a4 4 0 0 1-3.8 1.9c-3.7 0-5.5-2.9-5.5-6.3s1.8-6.2 5.4-6.2a4.6 4.6 0 0 1 3.8 1.9v-6.2h2zm-5.5-1.4c2.6 0 3.6-2.3 3.6-4.5s-1.1-4.5-3.7-4.5-3.6 2.3-3.6 4.6 1.1 4.3 3.6 4.3zM126.9 1265.2a21.5 21.5 0 0 1-8.7-1.8 22.2 22.2 0 0 1-7.1-4.9 23.3 23.3 0 0 1-4.7-7.2 23.2 23.2 0 0 1 0-17.7 23.6 23.6 0 0 1 4.7-7.2 22 22 0 0 1 7.1-4.9 21.9 21.9 0 0 1 17.4 0 22.1 22.1 0 0 1 7 4.9 23.6 23.6 0 0 1 4.7 7.2 23.2 23.2 0 0 1 0 17.7 23.3 23.3 0 0 1-4.7 7.2 22.3 22.3 0 0 1-7 4.9 21.3 21.3 0 0 1-8.7 1.8zm0-41.4a17.5 17.5 0 0 0-7.1 1.5 18 18 0 0 0-5.8 4 19.6 19.6 0 0 0-3.9 6 18.7 18.7 0 0 0-1.4 7.3 18.5 18.5 0 0 0 1.4 7.3 19.4 19.4 0 0 0 3.9 5.9 18.2 18.2 0 0 0 5.8 4 17.5 17.5 0 0 0 7.1 1.5 17.3 17.3 0 0 0 7-1.4 18.3 18.3 0 0 0 5.8-4 19.3 19.3 0 0 0 3.9-5.9 18.4 18.4 0 0 0 1.4-7.3 18.6 18.6 0 0 0-1.4-7.3 19.6 19.6 0 0 0-3.9-6 18.2 18.2 0 0 0-5.8-4 17.3 17.3 0 0 0-7-1.6zM179.9 1300.8a21.3 21.3 0 0 1-8.7-1.8 22.3 22.3 0 0 1-7-4.9 23.2 23.2 0 0 1-4.7-7.2 23.2 23.2 0 0 1 0-17.7 23.3 23.3 0 0 1 4.7-7.2 22.4 22.4 0 0 1 7-4.9 21.9 21.9 0 0 1 17.3 0 22.7 22.7 0 0 1 7 4.9 23 23 0 0 1 4.8 7.2 23.2 23.2 0 0 1 0 17.7 23.1 23.1 0 0 1-4.8 7.2 22.6 22.6 0 0 1-7 4.9 21.3 21.3 0 0 1-8.6 1.8zm0-41.4a17.3 17.3 0 0 0-7.1 1.4 18.4 18.4 0 0 0-5.8 4 19.3 19.3 0 0 0-3.9 6 19.2 19.2 0 0 0 0 14.6 19.2 19.2 0 0 0 3.9 6 18.3 18.3 0 0 0 5.8 4 17.9 17.9 0 0 0 14.1 0 18.6 18.6 0 0 0 5.8-4 19 19 0 0 0 3.9-6 19.2 19.2 0 0 0 0-14.6 19.1 19.1 0 0 0-3.9-6 18.7 18.7 0 0 0-5.8-4 17.3 17.3 0 0 0-7-1.4z"/><path class="cls-1" d="M130.3 1300.8h-16.8l49.9-65.1-13.4-9.6 41.5-11.5-3.1 39-14.1-10.1zm-8.7-4h6.7l45.1-58.8 11.5 8.2 2.1-26.2-27.9 7.7 10 7.2z"/><path class="cls-1" d="M126.9 1256.5a13.3 13.3 0 0 1-5.4-1.1 13.7 13.7 0 0 1-4.4-3 14.4 14.4 0 0 1-2.9-4.4 14.3 14.3 0 0 1 0-10.9 14.5 14.5 0 0 1 2.9-4.4 13.5 13.5 0 0 1 19.5 0 14.5 14.5 0 0 1 2.9 4.4 14.3 14.3 0 0 1 0 10.9 14.4 14.4 0 0 1-2.9 4.4 13.8 13.8 0 0 1-4.3 3 13.2 13.2 0 0 1-5.4 1.1zm0-24a9.3 9.3 0 0 0-3.8.8 9.6 9.6 0 0 0-3.1 2.1 10.5 10.5 0 0 0-2.1 3.2 10 10 0 0 0-.8 3.9 9.9 9.9 0 0 0 .8 3.9 10.4 10.4 0 0 0 2.1 3.2 9.7 9.7 0 0 0 3.1 2.1 9.6 9.6 0 0 0 7.5 0 9.8 9.8 0 0 0 3.1-2.1 10.4 10.4 0 0 0 2.1-3.2 9.9 9.9 0 0 0 .8-3.9 10 10 0 0 0-.8-3.9 10.5 10.5 0 0 0-2.1-3.2 9.7 9.7 0 0 0-3.1-2.1 9.2 9.2 0 0 0-3.7-.8zM180 1292.1a13.3 13.3 0 0 1-5.4-1.1 13.7 13.7 0 0 1-4.4-3 14.4 14.4 0 0 1-2.9-4.4 14.3 14.3 0 0 1 0-10.9 14.5 14.5 0 0 1 2.9-4.4 13.5 13.5 0 0 1 19.5 0 14.5 14.5 0 0 1 2.9 4.4 14.3 14.3 0 0 1 0 10.9 14.4 14.4 0 0 1-2.9 4.4 13.8 13.8 0 0 1-4.3 3 13.2 13.2 0 0 1-5.4 1.1zm0-24a9.3 9.3 0 0 0-3.8.8 9.7 9.7 0 0 0-3.1 2.1 10.5 10.5 0 0 0-2.1 3.2 10 10 0 0 0-.8 3.9 9.8 9.8 0 0 0 .8 3.9 10.4 10.4 0 0 0 2.1 3.2 9.7 9.7 0 0 0 3.1 2.1 9.6 9.6 0 0 0 7.5 0 9.8 9.8 0 0 0 3.1-2.1 10.4 10.4 0 0 0 2.1-3.2 9.9 9.9 0 0 0 .8-3.9 10 10 0 0 0-.8-3.9 10.5 10.5 0 0 0-2.1-3.2 9.7 9.7 0 0 0-3.1-2.1 9.2 9.2 0 0 0-3.7-.8zM140.5 1534.2h2.4l6.4 16.4h-2.4l-1.8-4.9h-6.9l-1.8 4.9h-2.3zm-1.6 9.6h5.6l-2.7-7.7z"/><path class="cls-1" d="M155.6 1533.8h1.7l-6.8 17.2h-1.7zM158.6 1534.2h7.7c3.1 0 5 1.7 5 4.3a3.9 3.9 0 0 1-2.9 4.2c1.9.4 2.3 1.8 2.5 3.4s0 3.4 1 4.5h-2.4c-.6-.7-.3-2.4-.6-4s-.6-3-2.7-3h-5.3v7h-2.2zm6.7 7.6c2 0 3.8-.5 3.8-2.9a2.6 2.6 0 0 0-2.9-2.8h-5.4v5.7zM113.5 1561.8h7.7c3.1 0 5 1.7 5 4.3a3.9 3.9 0 0 1-2.9 4.2c1.9.4 2.3 1.8 2.5 3.4s0 3.4 1 4.5h-2.4c-.6-.7-.3-2.4-.6-4s-.6-3-2.7-3h-5.3v7h-2.2zm6.7 7.6c2 0 3.8-.5 3.8-2.9a2.6 2.6 0 0 0-2.9-2.8h-5.4v5.7zM139.1 1574.5a4.8 4.8 0 0 1-5.1 4c-3.8 0-5.6-2.6-5.7-6.3s2.3-6.2 5.6-6.2 5.5 3.9 5.4 6.8h-8.9a3.5 3.5 0 0 0 3.7 3.9 2.9 2.9 0 0 0 3.1-2.3zm-1.9-3.3a3.4 3.4 0 0 0-6.8 0zM142.5 1574.5c.1 1.7 1.6 2.3 3.2 2.3s2.9-.3 2.9-1.8-1.9-1.8-3.9-2.2-3.9-1.1-3.9-3.4 2.4-3.4 4.4-3.4 4.7.8 4.9 3.7h-2c-.1-1.5-1.5-2-2.8-2s-2.5.3-2.5 1.5 2.1 1.6 3.9 2.1 3.9 1.1 3.9 3.4-2.6 3.7-5.1 3.7-4.9-1.1-5-4zM162.9 1574.5a4.8 4.8 0 0 1-5.1 4c-3.8 0-5.6-2.6-5.7-6.3s2.3-6.2 5.6-6.2 5.5 3.9 5.4 6.8h-8.9a3.5 3.5 0 0 0 3.7 3.9 2.9 2.9 0 0 0 3.1-2.3zm-1.9-3.3a3.4 3.4 0 0 0-6.8 0zM165.1 1566.4h1.8v2.5a4.3 4.3 0 0 1 4.4-2.8v2.1c-3.1 0-4.3 1.8-4.3 4.8v5.3h-2zM178.1 1578.2H176l-4.4-11.9h2.2l3.3 9.9 3.2-9.9h2zM194.4 1574.5a4.8 4.8 0 0 1-5.1 4c-3.8 0-5.6-2.6-5.7-6.3s2.3-6.2 5.6-6.2 5.5 3.9 5.4 6.8h-8.9a3.5 3.5 0 0 0 3.7 3.9 2.9 2.9 0 0 0 3.1-2.3zm-1.9-3.3a3.4 3.4 0 0 0-6.8 0zM360.8 1127.6h7.2c3.3 0 5 1.8 5 4.9s-1.8 4.9-5 4.9h-5v6.7h-2.2zm2.2 7.9h4.3c2.5 0 3.6-1.1 3.6-3s-1.1-3-3.6-3H363zM385.9 1144a2.6 2.6 0 0 1-1.4.3c-1 0-1.7-.6-1.7-1.8a5.3 5.3 0 0 1-4.2 1.8c-2.2 0-3.9-1-3.9-3.3s2-3.3 4-3.7 4-.3 4-1.7-1.4-2-2.6-2-2.9.5-3 2.3h-2c.1-2.9 2.4-4 5-4s4.5.5 4.5 3.3v6.1c0 .9 0 1.3.6 1.3h.6zm-3.2-6.1c-.8.6-2.2.6-3.5.8s-2.4.7-2.4 2.1 1.1 1.7 2.3 1.7 3.6-1.6 3.6-2.7zM392.4 1145.6c-.9 2.3-1.7 3.2-3.5 3.2l-1.4-.2v-1.8l1.2.3a1.7 1.7 0 0 0 1.6-1.1l.8-2-4.7-11.8h2.2l3.5 9.7 3.3-9.7h2.1zM399.2 1132.1h1.8v1.7a4.4 4.4 0 0 1 3.8-2 3.2 3.2 0 0 1 3.3 2 4.4 4.4 0 0 1 3.7-2c2.4 0 4 1 4 3.4v8.7h-2v-7.8c0-1.5-.4-2.6-2.3-2.6a2.9 2.9 0 0 0-3.1 3v7.4h-2v-7.8c0-1.5-.5-2.6-2.2-2.6a3.2 3.2 0 0 0-3.2 3v7.4h-2zM428.9 1140.2a4.8 4.8 0 0 1-5.1 4c-3.8 0-5.6-2.6-5.7-6.3s2.3-6.2 5.6-6.2 5.5 3.9 5.4 6.8h-8.9a3.5 3.5 0 0 0 3.7 3.9 2.9 2.9 0 0 0 3.1-2.3zm-1.9-3.3a3.4 3.4 0 0 0-6.8 0zM431.2 1132.1h1.8v1.9a4.1 4.1 0 0 1 3.9-2.2c3.1 0 4.1 1.8 4.1 4.3v7.8h-2v-8a2.2 2.2 0 0 0-2.4-2.4c-2.4 0-3.5 1.6-3.5 3.7v6.7h-2zM446.7 1132.1h2.3v1.7h-2.4v7.4c0 .9.3 1.1 1.5 1.1h.9v1.7h-1.5c-2 0-2.8-.4-2.8-2.6v-7.6h-2v-1.7h2v-3.6h2zM423.6 1047a2.2 2.2 0 0 0-1.6-.5 2.2 2.2 0 0 0-2 2.5l3.7 31.7c-3.9.9-7.3 3-8.9 5.6h-21c-1.6-2.6-5-4.7-8.9-5.6l3.7-31.7a2.2 2.2 0 0 0-2-2.5 2.2 2.2 0 0 0-1.6.4 2.2 2.2 0 0 0-.8 1.5l-4 33.8a2.2 2.2 0 0 0 2 2.5c4.1.4 7.5 2.6 8 4.4a2.2 2.2 0 0 0 2.1 1.6h23.9a2.2 2.2 0 0 0 2.1-1.6c.5-1.8 3.9-4 8-4.4a2.2 2.2 0 0 0 2-2.5l-4-33.8a2.2 2.2 0 0 0-.7-1.4z"/><path class="cls-1" d="M404.3 1070.9c7.9 0 14.2-4.5 14.2-10.2s-6.2-10.2-14.2-10.2-14.2 4.5-14.2 10.2 6.3 10.2 14.2 10.2zm-9.7-10.2c0-3.1 4.4-5.7 9.7-5.7s9.7 2.6 9.7 5.7-4.4 5.7-9.7 5.7-9.7-2.6-9.7-5.7z"/><path class="cls-1" d="M438.1 1024.7h-67.6a10.2 10.2 0 0 0-10.2 10.2v11.9a10.2 10.2 0 0 0 10.2 10.2h4.5l-6.1 35.2a5.7 5.7 0 0 0 .4 3.4l-.4 2.6a5.7 5.7 0 0 0 .4 3.4l-.4 2.6a5.5 5.5 0 0 0 5.5 6.5h59.7a5.5 5.5 0 0 0 5.5-6.5l-.4-2.6a5.7 5.7 0 0 0 .4-3.4l-.4-2.6a5.7 5.7 0 0 0 .4-3.4l-6.1-35.2h4.5a10.2 10.2 0 0 0 10.2-10.2v-11.9a10.2 10.2 0 0 0-10.1-10.2zm-2.9 80.2a1 1 0 0 1-1.1 1.3h-59.6a1 1 0 0 1-1.1-1.3v-.3h61.8zm0-6a1 1 0 0 1-1.1 1.3h-59.6a1 1 0 0 1-1.1-1.3v-.3h61.8zm-.2-5a1.1 1.1 0 0 1-.9.4h-59.6a1 1 0 0 1-1.1-1.3l8.6-49.8a2.6 2.6 0 0 1 2.4-2.1h39.8a2.6 2.6 0 0 1 2.4 2.1l8.6 49.8a1.1 1.1 0 0 1-.1.9zm-4-51.5a7.1 7.1 0 0 0-6.9-5.8h-39.6a7.1 7.1 0 0 0-6.9 5.8l-1.7 10.1h-5.3a5.7 5.7 0 0 1-5.7-5.7v-11.9a5.7 5.7 0 0 1 5.7-5.7h67.6a5.7 5.7 0 0 1 5.7 5.7v11.9a5.7 5.7 0 0 1-5.7 5.7h-5.3zM40.8 192.2h5.6c5.1 0 7.9 2.5 7.9 7.8s-2.4 8.6-7.9 8.6h-5.6zm2.2 14.6h3.6c1.5 0 5.5-.4 5.5-6.5 0-3.9-1.4-6.3-5.5-6.3H43zM66.8 204.8a4.8 4.8 0 0 1-5.1 4c-3.8 0-5.6-2.6-5.7-6.3s2.3-6.2 5.6-6.2 5.5 3.9 5.4 6.8h-8.9a3.5 3.5 0 0 0 3.7 3.9 2.9 2.9 0 0 0 3.1-2.3zm-1.9-3.3a3.4 3.4 0 0 0-3.4-3.4 3.4 3.4 0 0 0-3.4 3.4zM69.1 192.2h2v16.4h-2zM76.2 194.6h-2v-2.4h2zm-2 2.1h2v11.9h-2zM84.6 208.6h-2.1l-4.4-11.9h2.2l3.3 9.9 3.2-9.9h2zM100.9 204.8a4.8 4.8 0 0 1-5.1 4c-3.8 0-5.6-2.6-5.7-6.3s2.3-6.2 5.6-6.2 5.5 3.9 5.4 6.8h-8.9a3.5 3.5 0 0 0 3.7 3.9 2.9 2.9 0 0 0 3.1-2.3zm-1.9-3.3a3.4 3.4 0 0 0-3.4-3.4 3.4 3.4 0 0 0-3.4 3.4zM103 196.7h1.8v2.5a4.3 4.3 0 0 1 4.4-2.8v2.1c-3.2 0-4.3 1.8-4.3 4.8v5.3h-2zM121.3 208.6a2.6 2.6 0 0 1-1.4.3c-1 0-1.7-.6-1.7-1.8a5.3 5.3 0 0 1-4.2 1.8c-2.2 0-3.9-1-3.9-3.3s2-3.3 4-3.7 4-.3 4-1.7-1.4-2-2.6-2-2.9.5-3 2.3h-2c.1-2.9 2.4-4 5-4s4.5.5 4.5 3.3v6.1c0 .9 0 1.3.6 1.3h.6zm-3.2-6.1c-.8.6-2.2.6-3.5.8s-2.4.7-2.4 2.1 1.1 1.7 2.3 1.7 3.6-1.6 3.6-2.7zM123.2 192.2h2v6.1a4 4 0 0 1 3.8-1.9c3.7 0 5.5 2.9 5.5 6.3s-1.8 6.2-5.4 6.2a4.6 4.6 0 0 1-3.8-1.9v1.6h-2zm5.5 6c-2.6 0-3.6 2.3-3.6 4.5s1.1 4.5 3.7 4.5 3.6-2.3 3.6-4.6-1.2-4.4-3.7-4.4zM136.8 192.2h2v16.4h-2zM152 204.8a4.8 4.8 0 0 1-5.1 4c-3.8 0-5.6-2.6-5.7-6.3s2.3-6.2 5.6-6.2 5.5 3.9 5.4 6.8h-8.9a3.5 3.5 0 0 0 3.7 3.9 2.9 2.9 0 0 0 3.1-2.3zm-1.9-3.3a3.4 3.4 0 0 0-3.4-3.4 3.4 3.4 0 0 0-3.4 3.4zM155.9 103.2H128l-5-10.7a10.4 10.4 0 0 0-13.8-5l-69.4 32.4a10.4 10.4 0 0 0-5 13.8L55 177a10.4 10.4 0 0 0 13.8 5l4.7-2.2h80.8V175H83.6l20.2-9.6h28.9v-4.8H114l20.2-9.6h20.1v-4.8h-12a10.4 10.4 0 0 0 1-10.4l-6.3-13.5h11.8v-4.8h-14l-.4-.8-4.1-8.7H156zM41.5 123.5l69.4-32.4a6.4 6.4 0 0 1 1.9-.5l-15.5 42.2a8.7 8.7 0 0 1-4.6 4.9 9.7 9.7 0 0 1-7.1.4l-44.5-14.4zm17.1 51.9L38.4 132a6.4 6.4 0 0 1-.2-5l39.5 12.8L62 178.6a6.3 6.3 0 0 1-3.4-3.2zM68 178l-.9.4-.9.3L81.5 141l2.9.9a13.7 13.7 0 0 0 10-.6 12.7 12.7 0 0 0 6.7-7.2l.4-1.1 33.6 13.2zm62.3-60.5l.4.9 8.9 19.1a6.3 6.3 0 0 1-.3 5.9l-36.4-14.2 13.9-37.9a6.3 6.3 0 0 1 2.6 2.8z"/><path class="cls-1" transform="rotate(-30.3 171.346 279.284)" d="M169.7 226.4h3v105.64h-3z"/><path class="cls-1" d="M186.6 327.7l19.5 11.1-.2-22.4-19.3 11.3z"/><path class="cls-1" transform="rotate(-67.4 203.695 874.033)" d="M76.6 872.4h254.1v3H76.6z"/><path class="cls-1" d="M145.8 983.9l2.9 22.3 17.8-13.6-20.7-8.7z"/><path class="cls-1" transform="rotate(-22.6 347.252 873.197)" d="M346.3 746.9h3v254.14h-3z"/><path class="cls-1" d="M385 992.6l17.8 13.6 2.9-22.3-20.7 8.7z"/><path class="cls-1" transform="rotate(-59.7 389.763 284.941)" d="M336.9 283.5h105.6v3H336.9z"/><path class="cls-1" d="M355.1 322.1l-.2 22.4 19.5-11.1-19.3-11.3z"/><path class="cls-1" transform="rotate(-30.3 171.346 279.284)" d="M169.7 226.4h3v105.64h-3z"/><path class="cls-1" d="M186.6 327.7l19.5 11.1-.2-22.4-19.3 11.3zM274.5 233.5h3v83.9h-3z"/><path class="cls-1" d="M264.8 314.1l11.2 19.4 11.2-19.4h-22.4zM276.2 510.6h3v23.29h-3z"/><path class="cls-1" d="M266.5 530.6l11.2 19.5 11.2-19.5h-22.4zM151.9 1160.8h3v14.94h-3z"/><path class="cls-1" d="M142.2 1172.5l11.2 19.4 11.2-19.4h-22.4zM151.9 1386.4h3v14.94h-3z"/><path class="cls-1" d="M142.2 1398l11.2 19.4 11.2-19.4h-22.4zM413.1 198.7h5.9c5.2 0 8.2 2.6 8.2 8.1s-2.5 8.9-8.2 8.9h-5.8zm2.3 15.1h3.8c1.5 0 5.7-.4 5.7-6.7 0-4-1.5-6.5-5.7-6.5h-3.8zM440.5 215.7a2.7 2.7 0 0 1-1.5.3c-1 0-1.7-.6-1.7-1.9a5.5 5.5 0 0 1-4.3 1.9c-2.2 0-4.1-1-4.1-3.5s2.1-3.4 4.2-3.8 4.1-.3 4.1-1.8-1.5-2-2.7-2-3 .5-3.1 2.3h-2c.1-3 2.5-4.1 5.2-4.1s4.6.5 4.6 3.4v6.3c0 1 0 1.4.6 1.4h.6zm-3.3-6.3c-.8.6-2.3.6-3.7.8s-2.5.7-2.5 2.2 1.1 1.8 2.4 1.8 3.8-1.7 3.8-2.8zM445.2 203.4h2.5v1.8h-2.5v7.6c0 .9.3 1.1 1.5 1.1h.9v1.8h-1.5c-2.1 0-2.9-.4-2.9-2.7v-7.8H441v-1.8h2.1v-3.7h2zM460.3 211.8a5 5 0 0 1-5.3 4.2c-3.9 0-5.8-2.7-5.9-6.5s2.4-6.4 5.8-6.4 5.7 4.1 5.6 7h-9.2a3.6 3.6 0 0 0 3.8 4 3 3 0 0 0 3.2-2.4zm-2-3.4a3.5 3.5 0 0 0-3.5-3.5 3.5 3.5 0 0 0-3.5 3.5zM195.2 1502.2l-32.2-55.8c-2.6-4.4-6.1-6.9-10.1-6.9s-7.5 2.4-10.1 6.9l-32.2 55.8c-2.6 4.4-2.9 8.8-.9 12.2s5.9 5.3 11 5.3h64.5c5.1 0 9-1.9 11-5.3s1.5-7.7-1-12.2zm-3.5 9.6c-1 1.7-3.4 2.7-6.6 2.7h-64.5c-3.2 0-5.6-1-6.6-2.7s-.7-4.3.9-7l32.2-55.8c1.6-2.7 3.6-4.3 5.6-4.3s4 1.6 5.6 4.3l32.2 55.8c1.8 2.7 2.2 5.3 1.2 7z"/><path class="cls-1" d="M152.9 1496.1a6.8 6.8 0 0 0-4.8 2 6.8 6.8 0 1 0 4.8-2zm1.6 8.5a2.2 2.2 0 0 1-1.6.7 2.2 2.2 0 0 1-1.7-.7 2.3 2.3 0 0 1 0-3.3 2.2 2.2 0 0 1 1.7-.7 2.2 2.2 0 0 1 1.6.7 2.3 2.3 0 0 1 0 3.3zM152.5 1456.7a7.4 7.4 0 0 0-5.8 2.4 9.3 9.3 0 0 0-1.9 6.7l2.3 26.3a2.2 2.2 0 0 0 2.2 2h6.8a2.2 2.2 0 0 0 2.2-2.1l2.2-26.3a9.5 9.5 0 0 0-2.1-6.7 7.6 7.6 0 0 0-5.9-2.3zm3.5 8.7l-2 24.3h-2.6l-2.1-24.4a4.9 4.9 0 0 1 .8-3.3 2.9 2.9 0 0 1 2.4-.8 3.3 3.3 0 0 1 2.5.9 5 5 0 0 1 1 3.3z"/></svg>