<?xml version="1.0" encoding="utf-8"?>
<!-- Generator: Adobe Illustrator 20.1.0, SVG Export Plug-In . SVG Version: 6.00 Build 0)  -->
<svg version="1.1" id="Layer_1" xmlns="http://www.w3.org/2000/svg" xmlns:xlink="http://www.w3.org/1999/xlink" x="0px" y="0px"
	 viewBox="0 0 100 100" style="enable-background:new 0 0 100 100;" xml:space="preserve">
<style type="text/css">
	.st0{fill-rule:evenodd;clip-rule:evenodd;fill:none;stroke:#3F57A6;stroke-width:4;stroke-linejoin:bevel;stroke-miterlimit:10;}
	.st1{fill-rule:evenodd;clip-rule:evenodd;fill:#3F57A6;}
	.st2{fill:none;stroke:#3F57A6;stroke-width:4;stroke-linecap:square;stroke-linejoin:bevel;stroke-miterlimit:10;}
	.st3{fill:none;stroke:#3F57A6;stroke-width:4;stroke-linejoin:bevel;stroke-miterlimit:10;}
	.st4{fill:none;stroke:#3F57A6;stroke-width:4;stroke-linecap:square;stroke-linejoin:bevel;}
	.st5{fill:none;stroke:#000000;stroke-width:4;stroke-miterlimit:10;}
	.st6{fill-rule:evenodd;clip-rule:evenodd;fill:none;stroke:#000000;stroke-width:4;stroke-miterlimit:10;}
	.st7{fill-rule:evenodd;clip-rule:evenodd;}
	.st8{fill:none;stroke:#010101;stroke-width:4;stroke-miterlimit:10;}
	.st9{fill:none;stroke:#010101;stroke-width:4;}
	.st10{fill:none;stroke:#010101;stroke-width:4;stroke-linecap:round;}
	.st11{fill:none;stroke:#010101;stroke-width:4;stroke-linejoin:round;stroke-miterlimit:10;}
	.st12{fill:none;stroke:#000000;stroke-width:4;stroke-linejoin:round;stroke-miterlimit:10;}
	.st13{fill:#3F57A6;}
</style>
<g>
	<path class="st2" d="M81.5,77.8L60.2,56.5c3.7-4.3,5.9-9.8,5.9-15.8c0-13.4-10.9-24.3-24.3-24.3c-13.4,0-24.3,10.9-24.3,24.3
		C17.4,54.1,28.4,65,41.8,65c4.1,0,7.9-1,11.2-2.8l22,22c0.9,0.9,2,1.3,3.2,1.3c1.2,0,2.4-0.5,3.2-1.3c0.9-0.9,1.3-2,1.3-3.2
		C82.8,79.8,82.4,78.7,81.5,77.8z"/>
</g>
<line class="st2" x1="42.3" y1="29.3" x2="42.3" y2="51.5"/>
<line class="st2" x1="31.3" y1="40.4" x2="53.4" y2="40.4"/>
</svg>
