<?xml version="1.0" encoding="utf-8"?>
<!-- Generator: Adobe Illustrator 20.1.0, SVG Export Plug-In . SVG Version: 6.00 Build 0)  -->
<svg version="1.1" id="Layer_1" xmlns="http://www.w3.org/2000/svg" xmlns:xlink="http://www.w3.org/1999/xlink" x="0px" y="0px"
	 viewBox="0 0 100 100" style="enable-background:new 0 0 100 100;" xml:space="preserve">
<style type="text/css">
	.st0{fill-rule:evenodd;clip-rule:evenodd;fill:none;stroke:#3F57A6;stroke-width:4;stroke-linejoin:bevel;stroke-miterlimit:10;}
	.st1{fill-rule:evenodd;clip-rule:evenodd;fill:#3F57A6;}
	.st2{fill:none;stroke:#3F57A6;stroke-width:4;stroke-linecap:square;stroke-linejoin:bevel;stroke-miterlimit:10;}
	.st3{fill:none;stroke:#3F57A6;stroke-width:4;stroke-linejoin:bevel;stroke-miterlimit:10;}
	.st4{fill:none;stroke:#3F57A6;stroke-width:4;stroke-linecap:square;stroke-linejoin:bevel;}
	.st5{fill:none;stroke:#000000;stroke-width:4;stroke-miterlimit:10;}
	.st6{fill-rule:evenodd;clip-rule:evenodd;fill:none;stroke:#000000;stroke-width:4;stroke-miterlimit:10;}
	.st7{fill-rule:evenodd;clip-rule:evenodd;}
	.st8{fill:none;stroke:#010101;stroke-width:4;stroke-miterlimit:10;}
	.st9{fill:none;stroke:#010101;stroke-width:4;}
	.st10{fill:none;stroke:#010101;stroke-width:4;stroke-linecap:round;}
	.st11{fill:none;stroke:#010101;stroke-width:4;stroke-linejoin:round;stroke-miterlimit:10;}
	.st12{fill:none;stroke:#000000;stroke-width:4;stroke-linejoin:round;stroke-miterlimit:10;}
	.st13{fill:#3F57A6;}
</style>
<path class="st3" d="M50,76.7c-22.2,0-39.6-24.9-40.4-25.9l-1-1.4l1-1.4C10.4,46.9,27.8,22,50,22C72.2,22,89.6,46.9,90.4,48l1,1.4
	l-1,1.4C89.6,51.8,72.2,76.7,50,76.7L50,76.7z"/>
<path class="st3" d="M50,67.7c-10.1,0-18.4-8.2-18.4-18.4C31.6,39.2,39.9,31,50,31s18.4,8.2,18.4,18.4C68.4,59.5,60.1,67.7,50,67.7
	L50,67.7z"/>
</svg>
