<svg id="Layer_1" data-name="Layer 1" xmlns="http://www.w3.org/2000/svg" viewBox="0 0 100 100"><defs><style>.cls-1{fill:none;stroke:#3f57a6;stroke-linecap:square;stroke-linejoin:bevel;stroke-width:4px;}</style></defs><title>Artboard 5</title><circle class="cls-1" cx="49.2" cy="62.38" r="5.14"/><path class="cls-1" d="M44.06,45.25c0-4.59,7-9.42,9.78-12.2a5.42,5.42,0,0,0-.76-8.33,5.36,5.36,0,0,0-5.82-.13,5.42,5.42,0,0,0-2.55,4.05c0,2-.17,2.9-2.17,2.9H37.42c-2,0-1.74-.91-1.73-2.9A14.42,14.42,0,1,1,60.23,39.44c-2,1.93-7.6,5.16-7.6,7.53v3.43a1.55,1.55,0,0,1-1.51,1.71H46a1.9,1.9,0,0,1-1.92-1.71Z"/><path class="cls-1" d="M69.75,38.4h5.14a6.85,6.85,0,0,1,6.85,6.85v24a6.85,6.85,0,0,1-6.85,6.85H48.68L33.79,87.26V76.08H25.22a6.85,6.85,0,0,1-6.85-6.85v-24a6.85,6.85,0,0,1,6.85-6.85h5.14"/></svg>