<svg id="Layer_1" data-name="Layer 1" xmlns="http://www.w3.org/2000/svg" viewBox="0 0 100 100"><defs><style>.cls-1{fill:none;stroke:#3f57a6;stroke-linejoin:bevel;stroke-width:4px;}</style></defs><title>Artboard 13</title><polyline class="cls-1" points="48.83 65.82 39.7 90.89 33.87 81.63 22.94 84.8 31.58 61.06"/><polyline class="cls-1" points="50.38 65.29 59.7 90.89 65.54 81.63 76.46 84.8 68.21 62.14"/><path class="cls-1" d="M76.05,51l-2.41-7,4-6.16-5.37-5.07.67-7.31-7.09-2L63,16.69l-7.19,1.53-5.66-4.7-5.64,4.7L37.33,16.7l-2.8,6.79-7.11,2,.69,7.31-5.38,5.07,4,6.15-2.42,7,6.43,3.58,1.09,7.31,7.37.18,4.35,6,6.62-3.26L56.82,68l4.36-6,7.36-.19,1.1-7.31Z"/><circle class="cls-1" cx="50.1" cy="41.57" r="16.78"/></svg>