<svg id="Layer_1" data-name="Layer 1" xmlns="http://www.w3.org/2000/svg" viewBox="0 0 100 100"><defs><style>.cls-1{fill:none;stroke:#3f57a6;stroke-linecap:square;stroke-linejoin:bevel;stroke-width:4px;}</style></defs><title>Artboard 11</title><path class="cls-1" d="M65,53.06c-3.16,5.22-6.15,10.14-6.21,15.45v.58H39.16l0-.57c-.18-5.23-2.78-9.9-5.56-14.86-3-5.35-6.38-11.42-6.38-18.61,0-10.8,7.71-21.73,22.44-21.73,16.56,0,22.44,11.34,22.44,21C72.07,41.38,68.47,47.32,65,53.06Z"/><path class="cls-1" d="M43.4,20.31c-4.13,1.51-7.94,6.33-9.24,11.73a17.1,17.1,0,0,0,4.33,16"/><line class="cls-1" x1="37.98" y1="75.43" x2="61.3" y2="75.43"/><line class="cls-1" x1="37.98" y1="81.05" x2="61.3" y2="81.05"/><line class="cls-1" x1="39.94" y1="86.68" x2="59.33" y2="86.68"/></svg>