<svg id="Layer_1" data-name="Layer 1" xmlns="http://www.w3.org/2000/svg" viewBox="0 0 520 1003"><defs><style>.cls-1{fill:#414042;}.cls-2{fill:#231f20;}.cls-3{fill:none;stroke:#0a0e10;stroke-miterlimit:10;stroke-width:2px;}</style></defs><title>Artboard 2</title><path class="cls-1" d="M346.6,82.9h-3a14.8,14.8,0,0,1-14.8-14.8V50.7a14.8,14.8,0,0,1,14.8-14.8h3a14.8,14.8,0,0,1,14.8,14.8V68.1A14.8,14.8,0,0,1,346.6,82.9Zm-3-44.4a12.3,12.3,0,0,0-12.3,12.3V68.1a12.3,12.3,0,0,0,12.3,12.3h3a12.3,12.3,0,0,0,12.3-12.3V50.7a12.3,12.3,0,0,0-12.3-12.3Z"/><path class="cls-1" d="M378.7,107.9H310.3v-7.2c-.2-6.2,19.8-11.4,27.4-13.1V81.9h2.5v7.6l-1,.2c-12.8,2.9-26.5,7.8-26.4,10.9v4.8h65.9Z"/><path class="cls-1" d="M379.9,106.7h-2.5v-6c.1-3.1-13.6-8.1-26.4-10.9l.5-2.4c6.7,1.5,28.6,6.9,28.4,13.4Z"/><path class="cls-1" d="M325.5,81.6h-2.4A12.1,12.1,0,0,1,311,69.5V55.6a12.1,12.1,0,0,1,12.1-12.1h2.4V46h-2.4a9.6,9.6,0,0,0-9.6,9.6V69.5a9.6,9.6,0,0,0,9.6,9.6h2.4Z"/><path class="cls-1" d="M298.7,106.8h-2.5V95.6c-.2-5,14.6-9,21.9-10.7V80.6h2.5v6.3l-1,.2c-11.2,2.5-21,6.5-20.9,8.5Z"/><path class="cls-1" d="M146.1,74.3a1.1,1.1,0,0,1-1.1-1.1l.2-24.1a4.3,4.3,0,0,1,4.3-4.3l43.3.3a4.3,4.3,0,0,1,4.3,4.3V72.6a1.1,1.1,0,0,1-2.1,0V49.4a2.2,2.2,0,0,0-2.2-2.2l-43.3-.3a2.2,2.2,0,0,0-2.2,2.2l-.2,24.1A1.1,1.1,0,0,1,146.1,74.3Z"/><path class="cls-1" d="M146.1,74.6h0a1.4,1.4,0,0,1-1.4-1.4l.2-24.1a4.7,4.7,0,0,1,4.7-4.6h0l43.3.3a4.7,4.7,0,0,1,4.7,4.7V72.6a1.4,1.4,0,0,1-1.4,1.4h0a1.4,1.4,0,0,1-1.4-1.4V49.4a1.8,1.8,0,0,0-.5-1.3,1.8,1.8,0,0,0-1.3-.5l-43.3-.3h0a1.8,1.8,0,0,0-1.8,1.8l-.2,24.1a1.4,1.4,0,0,1-1.4,1.4Zm3.4-29.4a3.9,3.9,0,0,0-3.9,3.9l-.2,24.1a.7.7,0,0,0,.2.5l.5.2h0l.5-.2a.7.7,0,0,0,.2-.5l.2-24.1a2.6,2.6,0,0,1,2.6-2.5h0l43.3.3a2.6,2.6,0,0,1,1.8.8,2.5,2.5,0,0,1,.7,1.8V72.6a.7.7,0,0,0,.2.5l.5.2.5-.2a.7.7,0,0,0,.2-.5V49.4a3.9,3.9,0,0,0-3.9-4l-43.3-.3Z"/><path class="cls-1" d="M170.9,87.7h-.5L135.2,69a1.1,1.1,0,0,1-.2-1.7l9.9-8.6a1.1,1.1,0,1,1,1.4,1.6l-8.7,7.6,33.3,17.6,34.6-17.9a1.1,1.1,0,1,1,1,1.9L171.4,87.6Z"/><path class="cls-1" d="M170.9,88.1h0l-.7-.2L135,69.4a1.4,1.4,0,0,1-.3-2.3l9.9-8.6a1.4,1.4,0,0,1,1-.4,1.4,1.4,0,0,1,.8,2.5l-8.3,7.3L170.9,85l34.4-17.8a1.4,1.4,0,1,1,1.3,2.5L171.6,87.9Zm0-.7h.3l35.1-18.1a.7.7,0,0,0,.3-.9.7.7,0,0,0-.9-.3L170.9,85.9,136.9,68l9.1-8a.7.7,0,0,0,.1-1l-.5-.2-.5.2-9.9,8.6a.7.7,0,0,0,.1,1.1l35.2,18.6Z"/><path class="cls-1" d="M202.6,110.1l-64.4-.4a4.5,4.5,0,0,1-4.3-4.5l.2-35.9a4.3,4.3,0,0,1,.1-.8,1.1,1.1,0,1,1,2.1.4,2.1,2.1,0,0,0,0,.4l-.2,35.9a2.3,2.3,0,0,0,2.2,2.3l64.4.4a2.3,2.3,0,0,0,2.3-2.3l.2-35.9a2.2,2.2,0,0,0-.1-.7l-9.8-8.5a1.1,1.1,0,0,1,1.4-1.6l10,8.7.3.4a4.2,4.2,0,0,1,.3,1.7l-.2,35.9A4.4,4.4,0,0,1,202.6,110.1Z"/><path class="cls-1" d="M202.7,110.5h0l-64.4-.4a4.7,4.7,0,0,1-3.3-1.4,4.8,4.8,0,0,1-1.4-3.4l.2-35.9a4.6,4.6,0,0,1,.1-.9,1.4,1.4,0,1,1,2.8.6,1.8,1.8,0,0,0,0,.3l-.2,35.9a1.9,1.9,0,0,0,.6,1.4,1.8,1.8,0,0,0,1.3.6l64.4.4h0a1.8,1.8,0,0,0,1.3-.6,2,2,0,0,0,.6-1.4l.2-35.9a1.9,1.9,0,0,0,0-.4L195,60.9a1.4,1.4,0,0,1,.8-2.5,1.5,1.5,0,0,1,1,.3l10,8.7.4.5a4.6,4.6,0,0,1,.4,1.9l-.2,35.9a4.8,4.8,0,0,1-1.4,3.4A4.7,4.7,0,0,1,202.7,110.5Zm0-.7h0a3.9,3.9,0,0,0,2.8-1.2,4.1,4.1,0,0,0,1.2-2.8l.2-35.9a3.8,3.8,0,0,0-.3-1.6l-.2-.2-10-8.7-.5-.2-.5.2a.7.7,0,0,0,.1,1l9.9,8.6h0a2.6,2.6,0,0,1,.1.8l-.2,35.9a2.7,2.7,0,0,1-.8,1.9,2.6,2.6,0,0,1-1.8.8h0l-64.4-.4a2.6,2.6,0,0,1-1.9-.8,2.7,2.7,0,0,1-.8-1.9l.2-35.9a2.5,2.5,0,0,1,.1-.5.7.7,0,0,0-.1-.5l-.4-.3h-.5a.7.7,0,0,0-.3.4,3.9,3.9,0,0,0-.1.8l-.2,35.9a4,4,0,0,0,1.2,2.9,3.9,3.9,0,0,0,2.8,1.2Z"/><path class="cls-1" d="M171.4,78.8h-.3a9.1,9.1,0,0,1-8-5.5,1.1,1.1,0,1,1,2-.8,6.9,6.9,0,0,0,6.1,4.1,4.7,4.7,0,0,0,4.6-2.6,4.1,4.1,0,0,0,.3-3.3c-.9-2.4-3.9-4-5.2-4.6s-5.1-3.4-5.8-6.2a5.5,5.5,0,0,1,1.2-4.9,6.1,6.1,0,0,1,4.7-2.2h0A7.7,7.7,0,0,1,177,56a1.1,1.1,0,0,1-1.6,1.3,5.5,5.5,0,0,0-4.2-2.4h0a4,4,0,0,0-3.1,1.5,3.4,3.4,0,0,0-.8,3.1c.5,2,2.7,3.9,4.6,4.7S176.9,67,178,70a6.2,6.2,0,0,1-.3,4.9A6.7,6.7,0,0,1,171.4,78.8Z"/><path class="cls-1" d="M171.4,79.1h-.3a9.5,9.5,0,0,1-8.4-5.7,1.4,1.4,0,1,1,2.7-1,6.5,6.5,0,0,0,5.8,3.9,4.3,4.3,0,0,0,4.3-2.4,3.8,3.8,0,0,0,.2-3c-.8-2.3-3.8-3.8-5-4.4s-5.3-3.6-6-6.4a5.9,5.9,0,0,1,1.3-5.2,6.5,6.5,0,0,1,5-2.4,8.1,8.1,0,0,1,6.2,3.3,1.4,1.4,0,1,1-2.2,1.8,5.1,5.1,0,0,0-3.9-2.2,3.6,3.6,0,0,0-2.8,1.3,3.1,3.1,0,0,0-.8,2.7c.4,1.9,2.6,3.6,4.4,4.5s5.3,2.8,6.5,6a6.6,6.6,0,0,1-.4,5.2A7.1,7.1,0,0,1,171.4,79.1Zm-7.4-6.9h-.2l-.4.4a.7.7,0,0,0,0,.5,8.7,8.7,0,0,0,7.7,5.2h.3a6.4,6.4,0,0,0,5.9-3.6,5.8,5.8,0,0,0,.3-4.7c-1.1-2.9-4.3-4.7-6.1-5.6s-4.3-2.8-4.8-5a3.8,3.8,0,0,1,.9-3.4,4.4,4.4,0,0,1,3.4-1.6,5.8,5.8,0,0,1,4.5,2.5l.5.2h.5a.7.7,0,0,0,.1-1,7.3,7.3,0,0,0-5.5-3,5.8,5.8,0,0,0-4.5,2.1,5.2,5.2,0,0,0-1.2,4.6c.6,2.6,3.2,4.8,5.6,5.9s4.4,2.2,5.4,4.8a4.5,4.5,0,0,1-.3,3.6,5,5,0,0,1-5,2.8,7.3,7.3,0,0,1-6.5-4.4.7.7,0,0,0-.4-.4Z"/><rect class="cls-1" x="155.6" y="64.5" width="30.9" height="2.11" rx="1.1" ry="1.1" transform="translate(104.5 236.2) rotate(-89.7)"/><path class="cls-1" d="M170.9,81.4h0a1.4,1.4,0,0,1-1.4-1.4l.2-28.7a1.4,1.4,0,0,1,.4-1,1.3,1.3,0,0,1,1-.4,1.4,1.4,0,0,1,1.4,1.4l-.2,28.7A1.4,1.4,0,0,1,170.9,81.4Zm0-.7h0a.7.7,0,0,0,.7-.7l.2-28.7a.7.7,0,0,0-.2-.5l-.5-.2-.5.2a.7.7,0,0,0-.2.5l-.2,28.7a.7.7,0,0,0,.7.7Z"/><path class="cls-1" d="M197.1,106h-2.3a1.1,1.1,0,0,1,0-2.1h1.1c1.4.1,3,.1,3.9-.6s.6-2.6.5-3.7,0-.7,0-1a1.1,1.1,0,1,1,2.1.1c0,.2,0,.6,0,.9s.1,4.3-1.4,5.4A6.5,6.5,0,0,1,197.1,106Z"/><path class="cls-1" d="M197.2,106.3h-2.4a1.4,1.4,0,0,1,0-2.9h1.1c1.3.1,2.9.1,3.7-.5s.4-1.4.4-3.4c0-.4,0-.7,0-1a1.4,1.4,0,0,1,2.9.1c0,.2,0,.5,0,.8,0,2,.1,4.6-1.5,5.8A6.8,6.8,0,0,1,197.2,106.3Zm-.1-.8a6.2,6.2,0,0,0,3.8-.9c1.3-1,1.3-3.4,1.2-5.1s0-.7,0-.9a.7.7,0,0,0-.2-.5l-.5-.2a.7.7,0,0,0-.7.7c0,.3,0,.6,0,1,0,2.1-.1,3.5-.7,4s-2.7.7-4.2.6h-1.1l-.5.2a.7.7,0,0,0,0,1l.5.2h2.3Z"/><path class="cls-1" d="M201.5,96.1a1.1,1.1,0,0,1-1.1-1.1V92.6a1.1,1.1,0,1,1,2.1,0V95A1.1,1.1,0,0,1,201.5,96.1Z"/><path class="cls-1" d="M201.5,96.4h0a1.4,1.4,0,0,1-1.4-1.4V92.6a1.4,1.4,0,0,1,1.4-1.4h0a1.4,1.4,0,0,1,1.4,1.4V95A1.4,1.4,0,0,1,201.5,96.4Zm0-.7h0a.7.7,0,0,0,.7-.7V92.6a.7.7,0,0,0-.7-.7h0a.7.7,0,0,0-.7.7V95a.7.7,0,0,0,.7.7Z"/><path class="cls-1" d="M263.7,227.2a1.4,1.4,0,0,0,1.4,1.4,40,40,0,0,0,12.9-2v-2.3a1.8,1.8,0,0,1,.2-.8,34,34,0,0,1-13.1,2.3A1.4,1.4,0,0,0,263.7,227.2Z"/><path class="cls-1" d="M265.1,194.2a1.4,1.4,0,1,1,0-2.9c9.8,0,15.8-3,15.8-4.3a1.4,1.4,0,1,1,2.9,0C283.8,191.5,274.3,194.2,265.1,194.2Z"/><path class="cls-1" d="M255,233.2v2.6a1.6,1.6,0,0,1,0,.3,44.3,44.3,0,0,0,10.1,1.1,40.2,40.2,0,0,0,12.9-2v-3.1a34.5,34.5,0,0,1-12.9,2.2A39.3,39.3,0,0,1,255,233.2Z"/><path class="cls-1" d="M283.8,187c0-4.5-9.5-7.2-18.7-7.2s-18.7,2.7-18.7,7.2v8.6a3.2,3.2,0,0,0,.4,1.4,3.2,3.2,0,0,0-.4,1.4v5.7h0l3.3.5v-.2a1,1,0,0,1-.3-.5v-5.7a1,1,0,0,1,.3-.5,1.4,1.4,0,0,0,0-1.9c-.3-.3-.3-.5-.3-.5V187c0-1.3,6-4.3,15.8-4.3s15.8,3,15.8,4.3v8.6a1,1,0,0,1-.3.5,1.4,1.4,0,0,0,0,1.9,1.1,1.1,0,0,1,.3.5v5.7a1,1,0,0,1-.3.5,1.4,1.4,0,0,0,0,1.9,1.1,1.1,0,0,1,.3.5v5.7a1,1,0,0,1-.3.5,1.4,1.4,0,0,0,0,1.9,1.1,1.1,0,0,1,.3.5v5.7h0l2.9-.9v-4.9a3.2,3.2,0,0,0-.4-1.4,3.2,3.2,0,0,0,.4-1.4v-5.7a3.2,3.2,0,0,0-.4-1.4,3.2,3.2,0,0,0,.4-1.4v-5.7a3.2,3.2,0,0,0-.4-1.4,3.2,3.2,0,0,0,.4-1.4Z"/><path class="cls-1" d="M289.5,243c-6.4,0-12.9-2-12.9-5.7V224.4c0-3.8,6.5-5.7,12.9-5.7s12.9,2,12.9,5.7v12.9C302.4,241.1,295.9,243,289.5,243Zm0-21.5c-6.5,0-10.1,2-10.1,2.9v12.9c0,.8,3.5,2.9,10.1,2.9s10.1-2,10.1-2.9V224.4C299.6,223.5,296,221.5,289.5,221.5Z"/><path class="cls-1" d="M289.5,230.1a1.4,1.4,0,0,1,0-2.9c6.5,0,10.1-2,10.1-2.9a1.4,1.4,0,0,1,2.9,0C302.4,228.1,295.9,230.1,289.5,230.1Z"/><path class="cls-1" d="M289.5,237.3a1.4,1.4,0,0,1,0-2.9c6.5,0,10.1-2,10.1-2.9a1.4,1.4,0,0,1,2.9,0C302.4,235.3,295.9,237.3,289.5,237.3Z"/><path class="cls-1" d="M243.5,241.6c-6.4,0-12.9-2-12.9-5.7V208.6c0-3.8,6.5-5.7,12.9-5.7s12.9,2,12.9,5.7v27.3C256.5,239.6,250,241.6,243.5,241.6Zm0-35.9c-6.5,0-10.1,2-10.1,2.9v27.3c0,.8,3.5,2.9,10.1,2.9s10.1-2,10.1-2.9V208.6C253.6,207.7,250.1,205.7,243.5,205.7Z"/><path class="cls-1" d="M243.5,214.3a1.4,1.4,0,0,1,0-2.9c6.5,0,10.1-2,10.1-2.9a1.4,1.4,0,1,1,2.9,0C256.5,212.3,250,214.3,243.5,214.3Z"/><path class="cls-1" d="M243.5,235.9a1.4,1.4,0,0,1,0-2.9c6.5,0,10.1-2,10.1-2.9a1.4,1.4,0,1,1,2.9,0C256.5,233.9,250,235.9,243.5,235.9Z"/><path class="cls-1" d="M243.5,228.7a1.4,1.4,0,0,1,0-2.9c6.5,0,10.1-2,10.1-2.9a1.4,1.4,0,1,1,2.9,0C256.5,226.7,250,228.7,243.5,228.7Z"/><path class="cls-1" d="M243.5,221.5a1.4,1.4,0,0,1,0-2.9c6.5,0,10.1-2,10.1-2.9a1.4,1.4,0,1,1,2.9,0C256.5,219.5,250,221.5,243.5,221.5Z"/><path class="cls-1" d="M265.1,220.1a1.4,1.4,0,1,1,0-2.9c9.8,0,15.8-3,15.8-4.3a1.4,1.4,0,1,1,2.9,0C283.8,217.4,274.3,220.1,265.1,220.1Z"/><path class="cls-1" d="M265.1,211.4a1.4,1.4,0,1,1,0-2.9c9.8,0,15.8-3,15.8-4.3a1.4,1.4,0,1,1,2.9,0C283.8,208.8,274.3,211.4,265.1,211.4Z"/><path class="cls-1" d="M265.1,202.8a1.4,1.4,0,1,1,0-2.9c9.8,0,15.8-3,15.8-4.3a1.4,1.4,0,1,1,2.9,0C283.8,200.1,274.3,202.8,265.1,202.8Z"/><g id="Layer0_0_FILL" data-name="Layer0 0 FILL"><path class="cls-1" d="M288.5,316.8q-6.2-6.2-6.5-6.2H238.4v79.1h56.2V323.4q0-.3-6.2-6.6m.2,5.1h-5.4v-5.4l5.4,5.4m-8.9-7.8v11.4h11.3v60.7H241.9V314.1Z"/></g><path class="cls-1" d="M263.9,332.1h-2l-1.5-6.2h0l-1.5,6.2h-2l-2.4-9.1h2l1.4,6.2h0l1.6-6.2h1.9l1.6,6.3h0l1.5-6.3h2Z"/><path class="cls-1" d="M267.3,323h2v9.1h-2Z"/><path class="cls-1" d="M271.1,323h4.1a2.9,2.9,0,1,1,0,5.8h-2.1v3.3h-2Zm2,4.3h1.6c.9,0,1.8-.2,1.8-1.4s-.8-1.4-1.8-1.4h-1.6Z"/><path class="cls-1" d="M254.8,335.2h2.5a1.2,1.2,0,0,1,1.3,1.3,1.1,1.1,0,0,1-.7,1.1h0c.5.1.6.6.7,1.1a2.5,2.5,0,0,0,.2,1.1h-1a5,5,0,0,1-.2-1.1c-.1-.5-.3-.7-.8-.7h-1v1.8h-1Zm1,2.1h1.1c.4,0,.7-.2.7-.6s-.2-.6-.7-.6h-1.1Z"/><path class="cls-1" d="M260.1,338.3c0,.6.3.8.8.8a.7.7,0,0,0,.7-.4h.8a1.5,1.5,0,0,1-1.5,1.1,1.6,1.6,0,0,1-1.7-1.7,1.7,1.7,0,1,1,3.3.2Zm1.5-.6c-.1-.5-.3-.7-.7-.7a.7.7,0,0,0-.8.7Z"/><path class="cls-1" d="M263,336.4h.9v.4h0a1.1,1.1,0,0,1,1-.5c1,0,1.5.8,1.5,1.8a1.5,1.5,0,0,1-1.4,1.7,1.2,1.2,0,0,1-1-.5h0v1.6H263Zm2.4,1.7c0-.5-.2-1.1-.8-1.1s-.8.5-.8,1.1.2,1,.8,1S265.4,338.6,265.4,338.1Z"/><path class="cls-1" d="M268.5,336.3a1.7,1.7,0,1,1-1.7,1.7A1.6,1.6,0,0,1,268.5,336.3Zm0,2.8c.6,0,.8-.5.8-1.1s-.2-1.1-.8-1.1-.8.5-.8,1.1S267.9,339.1,268.5,339.1Z"/><path class="cls-1" d="M270.8,336.4h.9v.6h0a1.2,1.2,0,0,1,1-.7h.2v.8h-.3c-.7,0-.9.5-.9,1.1v1.5h-.9Z"/><path class="cls-1" d="M274.4,336.4h.7v.6h-.7v1.6c0,.3.1.4.4.4h.3v.7h-.5c-.6,0-1-.1-1-.8V337H273v-.6h.5v-1h.9Z"/><polygon class="cls-1" points="273.9 370.1 271.6 367.7 277.2 362.1 271.6 356.4 273.9 354.1 281.9 362.1 273.9 370.1"/><polygon class="cls-1" points="259.8 354.3 262.1 356.7 256.5 362.3 262.1 367.9 259.8 370.3 251.8 362.3 259.8 354.3"/><path class="cls-1" d="M215.5,756.3c-19.4,0-37.6-16.2-51.2-45.7s-20.9-68.1-20.9-109.4c0-37.4,6.2-73.5,17.6-101.6s26.9-46.5,43.9-51.9l.6,1.9c-34.2,10.9-60,76-60,151.6,0,84.5,31.5,153.2,70.1,153.2Z"/><polygon class="cls-1" points="201.4 437.1 205.6 461 215.5 447 201.4 437.1"/><path class="cls-1" d="M331.5,754.6l-.6-1.9c34.2-10.9,60-76,60-151.6,0-84.5-31.5-153.2-70.1-153.2v-2c19.4,0,37.6,16.2,51.2,45.7s20.9,68.1,20.9,109.4c0,37.4-6.2,73.5-17.6,101.6S348.5,749.2,331.5,754.6Z"/><polygon class="cls-1" points="334.8 765.2 330.7 741.3 320.8 755.3 334.8 765.2"/><path class="cls-1" d="M137.1,123.4a2,2,0,0,0-2.3-1.9c-1,0-2,.4-2,1.6s1.5,1.3,2.9,1.6,2.9.8,2.9,2.6-1.9,2.7-3.6,2.7-3.8-1-3.8-3.2h1.1c0,1.5,1.3,2.2,2.7,2.2s2.3-.3,2.3-1.7-1.5-1.5-2.9-1.8-2.9-.7-2.9-2.4,1.6-2.7,3.3-2.7,3.3.9,3.4,2.9Z"/><path class="cls-1" d="M145.5,127.8a2.7,2.7,0,0,1-2.8,2.2c-2.1,0-3.1-1.5-3.2-3.5a3.2,3.2,0,0,1,3.1-3.4c2.3,0,3,2.2,3,3.8h-4.9a1.9,1.9,0,0,0,2.1,2.2,1.6,1.6,0,0,0,1.7-1.3Zm-1-1.8a1.9,1.9,0,0,0-1.9-1.9,1.9,1.9,0,0,0-1.9,1.9Z"/><path class="cls-1" d="M146.8,123.3h1v1h0a2.3,2.3,0,0,1,2.1-1.2c1.7,0,2.3,1,2.3,2.4v4.3h-1.1v-4.5a1.2,1.2,0,0,0-1.3-1.3,1.9,1.9,0,0,0-1.9,2.1v3.7h-1.1Z"/><path class="cls-1" d="M159.7,129.9h-1.1V129h0a2.2,2.2,0,0,1-2.1,1c-2,0-3-1.6-3-3.5s1-3.4,3-3.4a2.5,2.5,0,0,1,2.1,1h0v-3.4h1.1Zm-3.1-.8c1.5,0,2-1.2,2-2.5s-.6-2.5-2.1-2.5-2,1.3-2,2.5S155.3,129.1,156.7,129.1Z"/><path class="cls-1" d="M166.4,123.3h1.3v1h-1.3v4.1c0,.5.1.6.8.6h.5v1h-.8c-1.1,0-1.6-.2-1.6-1.4v-4.2h-1.1v-1h1.1v-2h1.1Z"/><path class="cls-1" d="M168.9,120.8H170v3.5h0a2.2,2.2,0,0,1,2.1-1.1c1.7,0,2.3,1,2.3,2.4v4.3h-1.1v-4.5a1.2,1.2,0,0,0-1.3-1.3,1.9,1.9,0,0,0-1.9,2.1v3.7h-1.1Z"/><path class="cls-1" d="M181.6,127.8a2.7,2.7,0,0,1-2.8,2.2c-2.1,0-3.1-1.5-3.2-3.5a3.2,3.2,0,0,1,3.1-3.4c2.3,0,3,2.2,3,3.8h-4.9a1.9,1.9,0,0,0,2.1,2.2,1.6,1.6,0,0,0,1.7-1.3Zm-1-1.8a1.9,1.9,0,0,0-1.9-1.9,1.9,1.9,0,0,0-1.9,1.9Z"/><path class="cls-1" d="M186.8,124.2h-1.1v-1h1.1v-1c0-1.1.6-1.6,1.8-1.6h.7v.9h-.6c-.5,0-.8.2-.8.7v.9h1.3v1h-1.3v5.6h-1.1Zm3.4-2.1v-1.3h1.1v1.3Zm0,7.8v-6.6h1.1v6.6Z"/><path class="cls-1" d="M193,123.3h1v1h0a2.3,2.3,0,0,1,2.1-1.2c1.7,0,2.3,1,2.3,2.4v4.3h-1.1v-4.5a1.2,1.2,0,0,0-1.3-1.3,1.9,1.9,0,0,0-1.9,2.1v3.7H193Z"/><path class="cls-1" d="M205.9,129.8l-.8.2c-.6,0-.9-.3-.9-1a2.9,2.9,0,0,1-2.3,1c-1.2,0-2.2-.5-2.2-1.8s1.1-1.8,2.2-2,2.2-.2,2.2-1-.8-1.1-1.5-1.1-1.6.3-1.6,1.2H200c.1-1.6,1.3-2.2,2.8-2.2s2.5.3,2.5,1.8v3.4c0,.5,0,.7.3.7h.3Zm-1.8-3.4a5.6,5.6,0,0,1-2,.4c-.7.1-1.3.4-1.3,1.2s.6,1,1.3,1,2-.9,2-1.5Z"/><path class="cls-1" d="M207,120.8h1.1v9.1H207Z"/><path class="cls-1" d="M151.8,137.4h-1.1V136h1.1Zm-1.1,1.2h1.1v6.6h-1.1Z"/><path class="cls-1" d="M153.5,138.5h1v1h0a2.3,2.3,0,0,1,2.1-1.2c1.7,0,2.3,1,2.3,2.4v4.3h-1.1v-4.5a1.2,1.2,0,0,0-1.3-1.3,1.9,1.9,0,0,0-1.9,2.1v3.7h-1.1Z"/><path class="cls-1" d="M163.5,145.1h-1.2l-2.4-6.6h1.2L163,144h0l1.8-5.5h1.1Z"/><path class="cls-1" d="M169.8,138.4c2.1,0,3.2,1.5,3.2,3.5a3.2,3.2,0,1,1-6.4,0C166.6,139.9,167.7,138.4,169.8,138.4Zm0,5.9c1.1,0,2.1-.9,2.1-2.5s-.9-2.5-2.1-2.5-2.1.9-2.1,2.5S168.6,144.3,169.8,144.3Z"/><path class="cls-1" d="M175.4,137.4h-1.1V136h1.1Zm-1.1,1.2h1.1v6.6h-1.1Z"/><path class="cls-1" d="M181.5,140.7a1.5,1.5,0,0,0-1.6-1.3c-1.6,0-2.1,1.2-2.1,2.6s.5,2.4,1.9,2.4a1.7,1.7,0,0,0,1.8-1.6h1.1a2.7,2.7,0,0,1-2.9,2.6c-2,0-3.1-1.4-3.1-3.4s1-3.5,3.1-3.5,2.7.7,2.8,2.3Z"/><path class="cls-1" d="M189.5,143a2.7,2.7,0,0,1-2.8,2.2c-2.1,0-3.1-1.5-3.2-3.5a3.2,3.2,0,0,1,3.1-3.4c2.3,0,3,2.2,3,3.8h-4.9a1.9,1.9,0,0,0,2.1,2.2,1.6,1.6,0,0,0,1.7-1.3Zm-1-1.8a1.9,1.9,0,0,0-1.9-1.9,1.9,1.9,0,0,0-1.9,1.9Z"/><path class="cls-1" d="M230,256.8h4.3c1.7,0,2.8.9,2.8,2.4a2.2,2.2,0,0,1-1.6,2.3h0c1.1.2,1.3,1,1.4,1.9a4.7,4.7,0,0,0,.5,2.5H236c-.3-.4-.2-1.4-.3-2.2s-.3-1.6-1.5-1.6h-3v3.9H230Zm3.7,4.2c1.1,0,2.1-.3,2.1-1.6a1.4,1.4,0,0,0-1.6-1.6h-3V261Z"/><path class="cls-1" d="M244.2,263.8a2.7,2.7,0,0,1-2.8,2.2c-2.1,0-3.1-1.5-3.2-3.5a3.2,3.2,0,0,1,3.1-3.4c2.3,0,3,2.2,3,3.8h-4.9a1.9,1.9,0,0,0,2.1,2.2,1.6,1.6,0,0,0,1.7-1.3Zm-1-1.8a1.9,1.9,0,0,0-1.9-1.9,1.9,1.9,0,0,0-1.9,1.9Z"/><path class="cls-1" d="M249.9,261.4a1.5,1.5,0,0,0-1.6-1.3c-1.6,0-2.1,1.2-2.1,2.6s.5,2.4,1.9,2.4a1.7,1.7,0,0,0,1.8-1.6H251a2.7,2.7,0,0,1-2.9,2.6c-2,0-3.1-1.4-3.1-3.4s1-3.5,3.1-3.5,2.7.7,2.8,2.3Z"/><path class="cls-1" d="M257.9,263.8A2.7,2.7,0,0,1,255,266c-2.1,0-3.1-1.5-3.2-3.5a3.2,3.2,0,0,1,3.1-3.4c2.3,0,3,2.2,3,3.8H253a1.9,1.9,0,0,0,2.1,2.2,1.6,1.6,0,0,0,1.7-1.3Zm-1-1.8a1.9,1.9,0,0,0-1.9-1.9A1.9,1.9,0,0,0,253,262Z"/><path class="cls-1" d="M260.2,258.1h-1.1v-1.3h1.1Zm-1.1,1.2h1.1v6.6h-1.1Z"/><path class="cls-1" d="M264.9,265.9h-1.2l-2.4-6.6h1.2l1.8,5.5h0l1.8-5.5h1.1Z"/><path class="cls-1" d="M273.9,263.8a2.7,2.7,0,0,1-2.8,2.2c-2.1,0-3.1-1.5-3.2-3.5a3.2,3.2,0,0,1,3.1-3.4c2.3,0,3,2.2,3,3.8h-4.9a1.9,1.9,0,0,0,2.1,2.2,1.6,1.6,0,0,0,1.7-1.3Zm-1-1.8a1.9,1.9,0,0,0-1.9-1.9,1.9,1.9,0,0,0-1.9,1.9Z"/><path class="cls-1" d="M279.1,260.3H278v-1h1.1v-1c0-1.1.6-1.6,1.8-1.6h.7v.9H281c-.5,0-.8.2-.8.7v.9h1.3v1h-1.3v5.6h-1.1Zm3.4-2.1v-1.3h1.1v1.3Zm0,7.8v-6.6h1.1v6.6Z"/><path class="cls-1" d="M285.2,259.3h1v1h0a2.3,2.3,0,0,1,2.1-1.2c1.7,0,2.3,1,2.3,2.4v4.3h-1.1v-4.5a1.2,1.2,0,0,0-1.3-1.3,1.9,1.9,0,0,0-1.9,2.1v3.7h-1.1Z"/><path class="cls-1" d="M298.2,265.9l-.8.2c-.6,0-.9-.3-.9-1a2.9,2.9,0,0,1-2.3,1c-1.2,0-2.2-.5-2.2-1.8s1.1-1.8,2.2-2,2.2-.2,2.2-1-.8-1.1-1.5-1.1-1.6.3-1.6,1.2h-1.1c.1-1.6,1.3-2.2,2.8-2.2s2.5.3,2.5,1.8v3.4c0,.5,0,.7.3.7h.3Zm-1.8-3.4a5.6,5.6,0,0,1-2,.4c-.7.1-1.3.4-1.3,1.2s.6,1,1.3,1,2-.9,2-1.5Z"/><path class="cls-1" d="M299.2,256.8h1.1v9.1h-1.1Z"/><path class="cls-1" d="M241.2,274.6h1.1v.9h0a2.2,2.2,0,0,1,2.1-1c2,0,3,1.6,3,3.5s-1,3.4-3,3.4a2.5,2.5,0,0,1-2.1-1h0v3.4h-1.1Zm3.1.8c-1.5,0-2,1.2-2,2.5s.6,2.5,2.1,2.5,2-1.3,2-2.5S245.6,275.4,244.2,275.4Z"/><path class="cls-1" d="M254.5,281.2l-.8.2c-.6,0-.9-.3-.9-1a2.9,2.9,0,0,1-2.3,1c-1.2,0-2.2-.5-2.2-1.8s1.1-1.8,2.2-2,2.2-.2,2.2-1-.8-1.1-1.5-1.1-1.6.3-1.6,1.2h-1.1c.1-1.6,1.3-2.2,2.8-2.2s2.5.3,2.5,1.8v3.4c0,.5,0,.7.3.7h.3Zm-1.8-3.4a5.6,5.6,0,0,1-2,.4c-.7.1-1.3.4-1.3,1.2s.6,1,1.3,1,2-.9,2-1.5Z"/><path class="cls-1" d="M258.1,282.1c-.5,1.3-.9,1.8-1.9,1.8h-.8v-1l.6.2a.9.9,0,0,0,.9-.6l.4-1.1-2.6-6.5H256L258,280h0l1.8-5.4H261Z"/><path class="cls-1" d="M261.9,274.6h1v1h0a2.4,2.4,0,0,1,2.1-1.1,1.7,1.7,0,0,1,1.8,1.1,2.4,2.4,0,0,1,2.1-1.1c1.3,0,2.2.5,2.2,1.9v4.8H270v-4.3c0-.8-.2-1.5-1.3-1.5a1.6,1.6,0,0,0-1.7,1.7v4.1H266v-4.3c0-.9-.3-1.5-1.2-1.5a1.8,1.8,0,0,0-1.8,1.7v4.1h-1.1Z"/><path class="cls-1" d="M278.4,279.1a2.7,2.7,0,0,1-2.8,2.2c-2.1,0-3.1-1.5-3.2-3.5a3.2,3.2,0,0,1,3.1-3.4c2.3,0,3,2.2,3,3.8h-4.9a1.9,1.9,0,0,0,2.1,2.2,1.6,1.6,0,0,0,1.7-1.3Zm-1-1.8a1.9,1.9,0,0,0-1.9-1.9,1.9,1.9,0,0,0-1.9,1.9Z"/><path class="cls-1" d="M279.6,274.6h1v1h0a2.3,2.3,0,0,1,2.1-1.2c1.7,0,2.3,1,2.3,2.4v4.3H284v-4.5a1.2,1.2,0,0,0-1.3-1.3,1.9,1.9,0,0,0-1.9,2.1v3.7h-1.1Z"/><path class="cls-1" d="M288.2,274.6h1.3v1h-1.3v4.1c0,.5.1.6.8.6h.5v1h-.8c-1.1,0-1.6-.2-1.6-1.4v-4.2H286v-1h1.1v-2h1.1Z"/><path class="cls-1" d="M240.3,398.1a2.4,2.4,0,0,0-2.5-1.9c-2.2,0-3.1,1.8-3.1,3.7s.9,3.8,3.1,3.8a2.6,2.6,0,0,0,2.6-2.6h1.2a3.7,3.7,0,0,1-3.9,3.6c-2.8,0-4.2-2.1-4.2-4.7s1.5-4.8,4.3-4.8a3.5,3.5,0,0,1,3.7,3Z"/><path class="cls-1" d="M243,395.4H244v3.5h0a2.2,2.2,0,0,1,2.1-1.1c1.7,0,2.3,1,2.3,2.4v4.3h-1.1V400a1.2,1.2,0,0,0-1.3-1.3,1.9,1.9,0,0,0-1.9,2.1v3.7H243Z"/><path class="cls-1" d="M255.7,402.4a2.7,2.7,0,0,1-2.8,2.2c-2.1,0-3.1-1.5-3.2-3.5a3.2,3.2,0,0,1,3.1-3.4c2.3,0,3,2.2,3,3.8h-4.9a1.9,1.9,0,0,0,2.1,2.2,1.6,1.6,0,0,0,1.7-1.3Zm-1-1.8a1.9,1.9,0,0,0-1.9-1.9,1.9,1.9,0,0,0-1.9,1.9Z"/><path class="cls-1" d="M261.4,400a1.5,1.5,0,0,0-1.6-1.3c-1.6,0-2.1,1.2-2.1,2.6s.5,2.4,1.9,2.4a1.7,1.7,0,0,0,1.8-1.6h1.1a2.7,2.7,0,0,1-2.9,2.6c-2,0-3.1-1.4-3.1-3.4s1-3.5,3.1-3.5,2.7.7,2.8,2.3Z"/><path class="cls-1" d="M263.8,395.4h1.1v5.4l3-2.9h1.5l-2.6,2.4,2.8,4.2h-1.4l-2.3-3.4-1,.9v2.5h-1.1Z"/><path class="cls-1" d="M282.3,404.5H281l-2.1-7.6h0l-2.1,7.6h-1.3l-2.3-9.1h1.2l1.8,7.6h0l2-7.6h1.3l2,7.6h0l1.8-7.6h1.2Z"/><path class="cls-1" d="M285.9,395.4h1.2v9.1h-1.2Z"/><path class="cls-1" d="M289.1,395.4h4a2.7,2.7,0,1,1,0,5.4h-2.8v3.7h-1.2Zm1.2,4.4h2.4c1.4,0,2-.6,2-1.7s-.6-1.7-2-1.7h-2.4Z"/><path class="cls-1" d="M257.1,419.7l-.8.2c-.6,0-.9-.3-.9-1a2.9,2.9,0,0,1-2.3,1c-1.2,0-2.2-.5-2.2-1.8s1.1-1.8,2.2-2,2.2-.2,2.2-1-.8-1.1-1.5-1.1-1.6.3-1.6,1.2h-1.1c.1-1.6,1.3-2.2,2.8-2.2s2.5.3,2.5,1.8v3.4c0,.5,0,.7.3.7h.3Zm-1.8-3.4a5.6,5.6,0,0,1-2,.4c-.7.1-1.3.4-1.3,1.2s.6,1,1.3,1,2-.9,2-1.5Z"/><path class="cls-1" d="M258.1,410.8h1.1v9.1h-1.1Z"/><path class="cls-1" d="M266.7,419.7l-.8.2c-.6,0-.9-.3-.9-1a2.9,2.9,0,0,1-2.3,1c-1.2,0-2.2-.5-2.2-1.8s1.1-1.8,2.2-2,2.2-.2,2.2-1-.8-1.1-1.5-1.1-1.6.3-1.6,1.2h-1.1c.1-1.6,1.3-2.2,2.8-2.2s2.5.3,2.5,1.8v3.4c0,.5,0,.7.3.7h.3Zm-1.8-3.4a5.6,5.6,0,0,1-2,.4c-.7.1-1.3.4-1.3,1.2s.6,1,1.3,1,2-.9,2-1.5Z"/><path class="cls-1" d="M267.7,413.3h1v1h0a2.3,2.3,0,0,1,2.1-1.2c1.7,0,2.3,1,2.3,2.4v4.3h-1.1v-4.5a1.2,1.2,0,0,0-1.3-1.3,1.9,1.9,0,0,0-1.9,2.1v3.7h-1.1Z"/><path class="cls-1" d="M279.3,415.3a1.5,1.5,0,0,0-1.6-1.3c-1.6,0-2.1,1.2-2.1,2.6s.5,2.4,1.9,2.4a1.7,1.7,0,0,0,1.8-1.6h1.1a2.7,2.7,0,0,1-2.9,2.6c-2,0-3.1-1.4-3.1-3.4s1-3.5,3.1-3.5,2.7.7,2.8,2.3Z"/><path class="cls-1" d="M287.3,417.7a2.7,2.7,0,0,1-2.8,2.2c-2.1,0-3.1-1.5-3.2-3.5a3.2,3.2,0,0,1,3.1-3.4c2.3,0,3,2.2,3,3.8h-4.9a1.9,1.9,0,0,0,2.1,2.2,1.6,1.6,0,0,0,1.7-1.3Zm-1-1.8a1.9,1.9,0,0,0-1.9-1.9,1.9,1.9,0,0,0-1.9,1.9Z"/><path class="cls-1" d="M54,153.8c0,1.4,1,1.9,2.3,1.9s1.9-.7,1.9-1.4a1.1,1.1,0,0,0-.8-1.1l-2.7-.8a2.3,2.3,0,0,1-2-2.3c0-1.8,1.7-2.7,3.3-2.7s3.5,1,3.5,2.9H58c-.1-1.2-.9-1.6-2-1.6s-1.7.3-1.7,1.2.4,1,1.1,1.2l2.6.7a2.4,2.4,0,0,1,1.8,2.3c0,2-1.8,2.9-3.6,2.9s-3.8-1-3.8-3.2Z"/><path class="cls-1" d="M60.7,153.5A3.3,3.3,0,1,1,64,157,3.2,3.2,0,0,1,60.7,153.5Zm5.2,0c0-1.1-.6-2.3-1.9-2.3s-1.9,1.2-1.9,2.3.6,2.3,1.9,2.3S65.9,154.7,65.9,153.5Z"/><path class="cls-1" d="M67.9,150.3H69v-.5c0-1.7.9-2,1.8-2h1V149h-.7c-.4,0-.7.1-.7.7v.7h1.2v1.1H70.4v5.5H69v-5.5H67.9Z"/><path class="cls-1" d="M71.9,150.3H73v-2h1.5v2h1.3v1.1H74.4v3.5c0,.6.1.9.7.9h.6v1.1h-.9c-1.5,0-1.8-.6-1.8-1.7v-3.9H71.9Z"/><path class="cls-1" d="M84.8,152.5a1.4,1.4,0,0,0-1.5-1.2c-.8,0-1.8.4-1.8,2.4s.5,2.3,1.7,2.3a1.6,1.6,0,0,0,1.6-1.5h1.5a2.8,2.8,0,0,1-3,2.6,3.1,3.1,0,0,1-3.2-3.4c0-2,1.1-3.5,3.2-3.5a2.7,2.7,0,0,1,3,2.4Z"/><path class="cls-1" d="M87.5,147.7h1.5v9.1H87.5Z"/><path class="cls-1" d="M90.2,153.5a3.3,3.3,0,1,1,3.3,3.5A3.2,3.2,0,0,1,90.2,153.5Zm5.2,0c0-1.1-.6-2.3-1.9-2.3s-1.9,1.2-1.9,2.3.6,2.3,1.9,2.3S95.4,154.7,95.4,153.5Z"/><path class="cls-1" d="M99.1,154.7c.1.8.7,1.1,1.5,1.1s1.5-.1,1.5-.9-1.1-.9-2.2-1.1-2.1-.6-2.1-1.9,1.6-1.9,2.8-1.9,2.6.6,2.8,2h-1.5c-.1-.7-.7-.9-1.3-.9s-1.2.1-1.2.7,1.1.8,2.1,1.1,2.1.6,2.1,1.9-1.6,2.1-2.9,2.1-2.9-.7-2.9-2.3Z"/><path class="cls-1" d="M105.8,153.9a1.8,1.8,0,0,0,1.8,1.9,1.5,1.5,0,0,0,1.6-1.1h1.4a2.9,2.9,0,0,1-3,2.2c-2.1,0-3.2-1.4-3.2-3.5a3.2,3.2,0,1,1,6.3.4Zm3.4-1a1.7,1.7,0,1,0-3.4,0Z"/><path class="cls-1" d="M65.3,170c.1.8.7,1.1,1.5,1.1s1.5-.1,1.5-.9-1.1-.9-2.2-1.1-2.1-.6-2.1-1.9,1.6-1.9,2.8-1.9,2.6.6,2.8,2H68c-.1-.7-.7-.9-1.3-.9s-1.2.1-1.2.7,1.1.8,2.1,1.1,2.1.6,2.1,1.9-1.6,2.1-2.9,2.1-2.9-.7-2.9-2.3Z"/><path class="cls-1" d="M70.1,165.5h1.1v-2h1.5v2H74v1.1H72.7v3.5c0,.6.1.9.7.9H74v1.1h-.9c-1.5,0-1.8-.6-1.8-1.7v-3.9H70.1Z"/><path class="cls-1" d="M80.6,170.7c0,.4.1.5.3.5h.4v1l-.9.2c-.6,0-1-.2-1.1-.8a3.4,3.4,0,0,1-2.3.8,2,2,0,0,1-2.3-1.9c0-1.6,1.3-1.9,2.5-2.1s2-.1,2-.9-.8-.9-1.4-.9-1.4.3-1.5,1H74.9c.1-1.7,1.5-2.2,3-2.2s2.6.5,2.6,1.9Zm-1.5-1.8a5.2,5.2,0,0,1-1.8.4c-.6.1-1.2.3-1.2,1.1s.8.8,1.3.8,1.6-.3,1.6-1.2Z"/><path class="cls-1" d="M81.5,165.5h1.1v-2H84v2h1.3v1.1H84v3.5c0,.6.1.9.7.9h.6v1.1h-.9c-1.5,0-1.8-.6-1.8-1.7v-3.9H81.5Z"/><path class="cls-1" d="M92.1,172.1H90.7v-.9h0a2.2,2.2,0,0,1-1.9,1.1c-1.7,0-2.5-.9-2.5-2.6v-4.2h1.5v4c0,1.2.5,1.6,1.3,1.6s1.6-.8,1.6-1.8v-3.8h1.5Z"/><path class="cls-1" d="M94.8,170c.1.8.7,1.1,1.5,1.1s1.5-.1,1.5-.9-1.1-.9-2.2-1.1-2.1-.6-2.1-1.9,1.6-1.9,2.8-1.9,2.6.6,2.8,2H97.4c-.1-.7-.7-.9-1.3-.9s-1.2.1-1.2.7,1.1.8,2.1,1.1,2.1.6,2.1,1.9-1.6,2.1-2.9,2.1-2.9-.7-2.9-2.3Z"/><rect class="cls-1" x="80.5" y="178.4" width="2" height="638.93"/><polygon class="cls-1" points="71.5 814.4 81.5 831.6 91.4 814.4 71.5 814.4"/><path class="cls-1" d="M26.7,845h1.6v3.6h4.1V845H34v9.1H32.5V850H28.3v4.1H26.7Z"/><path class="cls-1" d="M41.3,852.6c0,.4.1.5.3.5H42v1l-.9.2c-.6,0-1-.2-1.1-.8a3.4,3.4,0,0,1-2.3.8,2,2,0,0,1-2.3-1.9c0-1.6,1.3-1.9,2.5-2.1s2-.1,2-.9-.8-.9-1.4-.9-1.4.3-1.5,1H35.6c.1-1.7,1.5-2.2,3-2.2s2.6.5,2.6,1.9Zm-1.5-1.8a5.2,5.2,0,0,1-1.8.4c-.6.1-1.2.3-1.2,1.1s.8.8,1.3.8,1.6-.3,1.6-1.2Z"/><path class="cls-1" d="M42.8,847.5h1.4v1.3h0a2.1,2.1,0,0,1,1.9-1.5h.5v1.4h-.6c-1,0-1.8.8-1.8,2.3v3.1H42.8Z"/><path class="cls-1" d="M53.3,854.1H51.9v-.9h0a2.2,2.2,0,0,1-2,1.1c-2.1,0-3.1-1.5-3.1-3.5s1.4-3.4,2.9-3.4a2.5,2.5,0,0,1,2.2,1h0V845h1.5Zm-3.2-1c1.3,0,1.8-1.2,1.8-2.3s-.7-2.3-1.8-2.3-1.8,1.2-1.8,2.4S48.8,853.1,50,853.1Z"/><path class="cls-1" d="M62.8,849.7a1.4,1.4,0,0,0-1.5-1.2c-.8,0-1.8.4-1.8,2.4s.5,2.3,1.7,2.3a1.6,1.6,0,0,0,1.6-1.5h1.5a2.8,2.8,0,0,1-3,2.7,3.1,3.1,0,0,1-3.2-3.4c0-2,1.1-3.5,3.2-3.5a2.7,2.7,0,0,1,3,2.4Z"/><path class="cls-1" d="M65.5,845H67v9.1H65.5Z"/><path class="cls-1" d="M68.2,850.8a3.3,3.3,0,1,1,3.3,3.5A3.2,3.2,0,0,1,68.2,850.8Zm5.2,0c0-1.1-.6-2.3-1.9-2.3s-1.9,1.2-1.9,2.3.6,2.3,1.9,2.3S73.4,851.9,73.4,850.8Z"/><path class="cls-1" d="M77.2,852c.1.8.7,1.1,1.5,1.1s1.5-.1,1.5-.9-1.1-.9-2.2-1.1-2.1-.6-2.1-1.9,1.6-1.9,2.8-1.9,2.6.6,2.8,2H79.9c-.1-.7-.7-.9-1.3-.9s-1.2.1-1.2.7,1.1.8,2.1,1.1,2.1.6,2.1,1.9-1.6,2.1-2.9,2.1-2.9-.7-2.9-2.3Z"/><path class="cls-1" d="M83.8,851.2a1.8,1.8,0,0,0,1.8,1.9,1.5,1.5,0,0,0,1.6-1.1h1.4a2.9,2.9,0,0,1-3,2.2c-2.1,0-3.2-1.4-3.2-3.5a3.2,3.2,0,1,1,6.3.4Zm3.4-1a1.7,1.7,0,1,0-3.4,0Z"/><path class="cls-1" d="M94.4,852c.1.8.7,1.1,1.5,1.1s1.5-.1,1.5-.9-1.1-.9-2.2-1.1-2.1-.6-2.1-1.9,1.6-1.9,2.8-1.9,2.6.6,2.8,2H97.1c-.1-.7-.7-.9-1.3-.9s-1.2.1-1.2.7,1.1.8,2.1,1.1,2.1.6,2.1,1.9-1.6,2.1-2.9,2.1S93,853.5,93,852Z"/><path class="cls-1" d="M99.3,847.5h1.1v-2h1.5v2h1.3v1.1h-1.3v3.5c0,.6.1.9.7.9h.6v1.1h-.9c-1.5,0-1.8-.6-1.8-1.7v-3.9H99.3Z"/><path class="cls-1" d="M109.7,852.6c0,.4.1.5.3.5h.4v1l-.9.2c-.6,0-1-.2-1.1-.8a3.4,3.4,0,0,1-2.3.8,2,2,0,0,1-2.3-1.9c0-1.6,1.3-1.9,2.5-2.1s2-.1,2-.9-.8-.9-1.4-.9-1.4.3-1.5,1h-1.5c.1-1.7,1.5-2.2,3-2.2s2.6.5,2.6,1.9Zm-1.5-1.8a5.2,5.2,0,0,1-1.8.4c-.6.1-1.2.3-1.2,1.1s.8.8,1.3.8,1.6-.3,1.6-1.2Z"/><path class="cls-1" d="M110.6,847.5h1.1v-2h1.5v2h1.3v1.1h-1.3v3.5c0,.6.1.9.7.9h.6v1.1h-.9c-1.5,0-1.8-.6-1.8-1.7v-3.9h-1.1Z"/><path class="cls-1" d="M121.3,854.1h-1.4v-.9h0a2.2,2.2,0,0,1-1.9,1.1c-1.7,0-2.5-.9-2.5-2.6v-4.2H117v4c0,1.2.5,1.6,1.3,1.6s1.6-.8,1.6-1.8v-3.8h1.5Z"/><path class="cls-1" d="M123.9,852c.1.8.7,1.1,1.5,1.1s1.5-.1,1.5-.9-1.1-.9-2.2-1.1-2.1-.6-2.1-1.9,1.6-1.9,2.8-1.9,2.6.6,2.8,2h-1.5c-.1-.7-.7-.9-1.3-.9s-1.2.1-1.2.7,1.1.8,2.1,1.1,2.1.6,2.1,1.9-1.6,2.1-2.9,2.1-2.9-.7-2.9-2.3Z"/><path class="cls-1" d="M132.8,849.9h3.7v1.4h-3.7Z"/><path class="cls-1" d="M28.5,865a1.4,1.4,0,0,0-1.5-1.2c-.8,0-1.8.4-1.8,2.4s.5,2.3,1.7,2.3a1.6,1.6,0,0,0,1.6-1.5H30a2.8,2.8,0,0,1-3,2.7,3.1,3.1,0,0,1-3.2-3.4c0-2,1.1-3.5,3.2-3.5a2.7,2.7,0,0,1,3,2.4Z"/><path class="cls-1" d="M31.1,860.3h1.5v3.4h0a2.3,2.3,0,0,1,2-1,2.1,2.1,0,0,1,2.3,2.2v4.5H35.5v-4.1c0-1-.4-1.5-1.3-1.5a1.6,1.6,0,0,0-1.6,1.7v3.9H31.1Z"/><path class="cls-1" d="M44,867.9c0,.4.1.5.3.5h.4v1l-.9.2c-.6,0-1-.2-1.1-.8a3.4,3.4,0,0,1-2.3.8,2,2,0,0,1-2.3-1.9c0-1.6,1.3-1.9,2.5-2.1s2-.1,2-.9-.8-.9-1.4-.9-1.4.3-1.5,1H38.3c.1-1.7,1.5-2.2,3-2.2s2.6.5,2.6,1.9Zm-1.5-1.8a5.2,5.2,0,0,1-1.8.4c-.6.1-1.2.3-1.2,1.1s.8.8,1.3.8,1.6-.3,1.6-1.2Z"/><path class="cls-1" d="M45.5,862.8h1.4v1.3h0a2.1,2.1,0,0,1,1.9-1.5h.5V864h-.6c-1,0-1.8.8-1.8,2.3v3.1H45.5Z"/><path class="cls-1" d="M56.1,869c0,2-1.2,3-3.2,3s-2.8-.5-2.9-2.1h1.5c.2.8.8,1,1.6,1a1.5,1.5,0,0,0,1.7-1.7v-1h0a2.3,2.3,0,0,1-2,1.2c-2.1,0-3-1.6-3-3.5a3,3,0,0,1,3-3.3,2.1,2.1,0,0,1,1.9,1.1h0v-.9h1.5Zm-1.5-3.1c0-1.1-.5-2.2-1.8-2.2s-1.7,1.2-1.7,2.3.5,2.2,1.7,2.2S54.7,867.1,54.7,865.9Z"/><path class="cls-1" d="M58.7,866.5a1.8,1.8,0,0,0,1.8,1.9,1.5,1.5,0,0,0,1.6-1.1h1.4a2.9,2.9,0,0,1-3,2.2c-2.1,0-3.2-1.4-3.2-3.5a3.2,3.2,0,1,1,6.3.4Zm3.4-1a1.7,1.7,0,1,0-3.4,0Z"/><path class="cls-1" d="M72.6,865a1.4,1.4,0,0,0-1.5-1.2c-.8,0-1.8.4-1.8,2.4s.5,2.3,1.7,2.3a1.6,1.6,0,0,0,1.6-1.5h1.5a2.8,2.8,0,0,1-3,2.7,3.1,3.1,0,0,1-3.2-3.4c0-2,1.1-3.5,3.2-3.5a2.7,2.7,0,0,1,3,2.4Z"/><path class="cls-1" d="M75,866.1a3.3,3.3,0,1,1,3.3,3.5A3.2,3.2,0,0,1,75,866.1Zm5.2,0c0-1.1-.6-2.3-1.9-2.3s-1.9,1.2-1.9,2.3.6,2.3,1.9,2.3S80.2,867.2,80.2,866.1Z"/><path class="cls-1" d="M89,869.4H87.7v-.9h0a2.2,2.2,0,0,1-2,1.1c-2.1,0-3.1-1.5-3.1-3.5s1.4-3.4,2.9-3.4a2.5,2.5,0,0,1,2.2,1h0v-3.4H89Zm-3.2-1c1.3,0,1.8-1.2,1.8-2.3s-.7-2.3-1.8-2.3S84,865,84,866.1,84.5,868.4,85.8,868.4Z"/><path class="cls-1" d="M91.7,866.5a1.8,1.8,0,0,0,1.8,1.9,1.5,1.5,0,0,0,1.6-1.1h1.4a2.9,2.9,0,0,1-3,2.2c-2.1,0-3.2-1.4-3.2-3.5a3.2,3.2,0,1,1,6.3.4Zm3.4-1a1.7,1.7,0,1,0-3.4,0Z"/><path class="cls-1" d="M105.7,865a1.4,1.4,0,0,0-1.5-1.2c-.8,0-1.8.4-1.8,2.4s.5,2.3,1.7,2.3a1.6,1.6,0,0,0,1.6-1.5h1.5a2.8,2.8,0,0,1-3,2.7,3.1,3.1,0,0,1-3.2-3.4c0-2,1.1-3.5,3.2-3.5a2.7,2.7,0,0,1,3,2.4Z"/><path class="cls-1" d="M108.4,860.3h1.5v9.1h-1.5Z"/><path class="cls-1" d="M111.1,866.1a3.3,3.3,0,1,1,3.3,3.5A3.2,3.2,0,0,1,111.1,866.1Zm5.2,0c0-1.1-.6-2.3-1.9-2.3s-1.9,1.2-1.9,2.3.6,2.3,1.9,2.3S116.3,867.2,116.3,866.1Z"/><path class="cls-1" d="M120,867.3c.1.8.7,1.1,1.5,1.1s1.5-.1,1.5-.9-1.1-.9-2.2-1.1-2.1-.6-2.1-1.9,1.6-1.9,2.8-1.9,2.6.6,2.8,2h-1.5c-.1-.7-.7-.9-1.3-.9s-1.2.1-1.2.7,1.1.8,2.1,1.1,2.1.6,2.1,1.9-1.6,2.1-2.9,2.1-2.9-.7-2.9-2.3Z"/><path class="cls-1" d="M126.7,866.5a1.8,1.8,0,0,0,1.8,1.9,1.5,1.5,0,0,0,1.6-1.1h1.4a2.9,2.9,0,0,1-3,2.2c-2.1,0-3.2-1.4-3.2-3.5a3.2,3.2,0,1,1,6.3.4Zm3.4-1a1.7,1.7,0,1,0-3.4,0Z"/><path class="cls-1" d="M138.8,869.4h-1.4v-.9h0a2.2,2.2,0,0,1-2,1.1c-2.1,0-3.1-1.5-3.1-3.5s1.4-3.4,2.9-3.4a2.5,2.5,0,0,1,2.2,1h0v-3.4h1.5Zm-3.2-1c1.3,0,1.8-1.2,1.8-2.3s-.7-2.3-1.8-2.3-1.8,1.2-1.8,2.4S134.3,868.4,135.6,868.4Z"/><path class="cls-1" d="M216.9,620.4h1.7l2.9,7.6,2.9-7.6H226v9.1h-1.1v-7.6h0l-2.8,7.6h-1l-2.8-7.6h0v7.6h-1.1Z"/><path class="cls-1" d="M233.6,629.4l-.8.2c-.6,0-.9-.3-.9-1a2.9,2.9,0,0,1-2.3,1c-1.2,0-2.2-.5-2.2-1.8s1.1-1.8,2.2-2,2.2-.2,2.2-1-.8-1.1-1.5-1.1-1.6.3-1.6,1.2h-1.1c.1-1.6,1.3-2.2,2.8-2.2s2.5.3,2.5,1.8v3.4c0,.5,0,.7.3.7h.3Zm-1.8-3.4a5.6,5.6,0,0,1-2,.4c-.7.1-1.3.4-1.3,1.2s.6,1,1.3,1,2-.9,2-1.5Z"/><path class="cls-1" d="M234.7,620.4h1.1v5.4l3-2.9h1.5l-2.6,2.4,2.8,4.2h-1.4l-2.3-3.4-1,.9v2.5h-1.1Z"/><path class="cls-1" d="M246.9,627.4a2.7,2.7,0,0,1-2.8,2.2c-2.1,0-3.1-1.5-3.2-3.5a3.2,3.2,0,0,1,3.1-3.4c2.3,0,3,2.2,3,3.8H242a1.9,1.9,0,0,0,2.1,2.2,1.6,1.6,0,0,0,1.7-1.3Zm-1-1.8a1.9,1.9,0,0,0-1.9-1.9,1.9,1.9,0,0,0-1.9,1.9Z"/><path class="cls-1" d="M257.5,629.4l-.8.2c-.6,0-.9-.3-.9-1a2.9,2.9,0,0,1-2.3,1c-1.2,0-2.2-.5-2.2-1.8s1.1-1.8,2.2-2,2.2-.2,2.2-1-.8-1.1-1.5-1.1-1.6.3-1.6,1.2h-1.1c.1-1.6,1.3-2.2,2.8-2.2s2.5.3,2.5,1.8v3.4c0,.5,0,.7.3.7h.3Zm-1.8-3.4a5.6,5.6,0,0,1-2,.4c-.7.1-1.3.4-1.3,1.2s.6,1,1.3,1,2-.9,2-1.5Z"/><path class="cls-1" d="M264.4,629.5h-1.1v-.9h0a2.2,2.2,0,0,1-2.1,1c-2,0-3-1.6-3-3.5s1-3.4,3-3.4a2.5,2.5,0,0,1,2.1,1h0v-3.4h1.1Zm-3.1-.8c1.5,0,2-1.2,2-2.5s-.6-2.5-2.1-2.5-2,1.3-2,2.5S259.9,628.7,261.3,628.7Z"/><path class="cls-1" d="M267.2,630.3a1.5,1.5,0,0,1-1.6,1.7H265V631h.4c.5,0,.6-.2.6-.9v-7.2h1.1Zm0-8.6h-1.1v-1.3h1.1Z"/><path class="cls-1" d="M274.3,629.5h-1v-1h0a2.3,2.3,0,0,1-2.1,1.2c-1.7,0-2.3-1-2.3-2.4v-4.3h1.1v4.5a1.2,1.2,0,0,0,1.3,1.3,1.9,1.9,0,0,0,1.9-2.1v-3.7h1.1Z"/><path class="cls-1" d="M276.6,627.4c0,1,.9,1.3,1.8,1.3s1.6-.2,1.6-1-1.1-1-2.2-1.2-2.2-.6-2.2-1.9,1.3-1.9,2.5-1.9,2.6.5,2.7,2.1h-1.1c-.1-.8-.8-1.1-1.5-1.1s-1.4.2-1.4.8,1.1.9,2.2,1.1,2.2.6,2.2,1.9-1.5,2.1-2.8,2.1-2.7-.6-2.8-2.2Z"/><path class="cls-1" d="M283.8,622.9h1.3v1h-1.3v4.1c0,.5.1.6.8.6h.5v1h-.8c-1.1,0-1.6-.2-1.6-1.4v-4.2h-1.1v-1h1.1v-2h1.1Z"/><path class="cls-1" d="M286.3,622.9h1v1h0a2.4,2.4,0,0,1,2.1-1.1,1.7,1.7,0,0,1,1.8,1.1,2.4,2.4,0,0,1,2.1-1.1c1.3,0,2.2.5,2.2,1.9v4.8h-1.1v-4.3c0-.8-.2-1.5-1.3-1.5a1.6,1.6,0,0,0-1.7,1.7v4.1h-1.1v-4.3c0-.9-.3-1.5-1.2-1.5a1.8,1.8,0,0,0-1.8,1.7v4.1h-1.1Z"/><path class="cls-1" d="M302.8,627.4a2.7,2.7,0,0,1-2.8,2.2c-2.1,0-3.1-1.5-3.2-3.5a3.2,3.2,0,0,1,3.1-3.4c2.3,0,3,2.2,3,3.8H298a1.9,1.9,0,0,0,2.1,2.2,1.6,1.6,0,0,0,1.7-1.3Zm-1-1.8a1.9,1.9,0,0,0-1.9-1.9,1.9,1.9,0,0,0-1.9,1.9Z"/><path class="cls-1" d="M304,622.9h1v1h0a2.3,2.3,0,0,1,2.1-1.2c1.7,0,2.3,1,2.3,2.4v4.3h-1.1V625a1.2,1.2,0,0,0-1.3-1.3,1.9,1.9,0,0,0-1.9,2.1v3.7H304Z"/><path class="cls-1" d="M312.6,622.9h1.3v1h-1.3v4.1c0,.5.1.6.8.6h.5v1h-.8c-1.1,0-1.6-.2-1.6-1.4v-4.2h-1.1v-1h1.1v-2h1.1Z"/><path class="cls-1" d="M315.8,627.4c0,1,.9,1.3,1.8,1.3s1.6-.2,1.6-1-1.1-1-2.2-1.2-2.2-.6-2.2-1.9,1.3-1.9,2.5-1.9,2.6.5,2.7,2.1h-1.1c-.1-.8-.8-1.1-1.5-1.1s-1.4.2-1.4.8,1.1.9,2.2,1.1,2.2.6,2.2,1.9-1.5,2.1-2.8,2.1-2.7-.6-2.8-2.2Z"/><path class="cls-1" d="M224.1,638.2h1.3v1h-1.3v4.1c0,.5.1.6.8.6h.5v1h-.8c-1.1,0-1.6-.2-1.6-1.4v-4.2h-1.1v-1H223v-2h1.1Z"/><path class="cls-1" d="M229.4,638c2.1,0,3.2,1.5,3.2,3.5a3.2,3.2,0,1,1-6.4,0C226.2,639.5,227.3,638,229.4,638Zm0,5.9c1.1,0,2.1-.9,2.1-2.5s-.9-2.5-2.1-2.5-2.1.9-2.1,2.5S228.3,643.9,229.4,643.9Z"/><path class="cls-1" d="M237.4,638.2h1v1.4h0a2.4,2.4,0,0,1,2.4-1.5v1.1c-1.7,0-2.4,1-2.4,2.7v2.9h-1.1Z"/><path class="cls-1" d="M247.1,642.7a2.7,2.7,0,0,1-2.8,2.2c-2.1,0-3.1-1.5-3.2-3.5a3.2,3.2,0,0,1,3.1-3.4c2.3,0,3,2.2,3,3.8h-4.9a1.9,1.9,0,0,0,2.1,2.2,1.6,1.6,0,0,0,1.7-1.3Zm-1-1.8a1.9,1.9,0,0,0-1.9-1.9,1.9,1.9,0,0,0-1.9,1.9Z"/><path class="cls-1" d="M254.1,644.7l-.8.2c-.6,0-.9-.3-.9-1a2.9,2.9,0,0,1-2.3,1c-1.2,0-2.2-.5-2.2-1.8s1.1-1.8,2.2-2,2.2-.2,2.2-1-.8-1.1-1.5-1.1-1.6.3-1.6,1.2h-1.1c.1-1.6,1.3-2.2,2.8-2.2s2.5.3,2.5,1.8v3.4c0,.5,0,.7.3.7h.3Zm-1.8-3.4a5.6,5.6,0,0,1-2,.4c-.7.1-1.3.4-1.3,1.2s.6,1,1.3,1,2-.9,2-1.5Z"/><path class="cls-1" d="M259.6,640.3A1.5,1.5,0,0,0,258,639c-1.6,0-2.1,1.2-2.1,2.6s.5,2.4,1.9,2.4a1.7,1.7,0,0,0,1.8-1.6h1.1a2.7,2.7,0,0,1-2.9,2.6c-2,0-3.1-1.4-3.1-3.4s1-3.5,3.1-3.5,2.7.7,2.8,2.3Z"/><path class="cls-1" d="M262,635.7H263v3.5h0a2.2,2.2,0,0,1,2.1-1.1c1.7,0,2.3,1,2.3,2.4v4.3h-1.1v-4.5A1.2,1.2,0,0,0,265,639,1.9,1.9,0,0,0,263,641v3.7H262Z"/><path class="cls-1" d="M278.8,639.1l-5.4,2.5,5.4,2.5v.9l-6.5-2.9v-.8l6.5-2.9Z"/><path class="cls-1" d="M283.5,638.9a2.8,2.8,0,0,1,2.9-3.2,2.6,2.6,0,0,1,2.8,2.6c0,1.6-1.1,2.4-2.2,3.1s-2.3,1.3-2.5,2.4h4.6v1h-5.9a4.3,4.3,0,0,1,2.5-3.7c1.5-.9,2.3-1.5,2.3-2.8a1.6,1.6,0,0,0-1.7-1.6c-1.3,0-1.8,1.2-1.8,2.2Z"/><path class="cls-1" d="M291.1,643.3h1.4v1.3a1.9,1.9,0,0,1-1.4,2V646a1.2,1.2,0,0,0,.7-1.2h-.8Z"/><path class="cls-1" d="M299.5,636.8h-3.6l-.5,2.6h0a2.3,2.3,0,0,1,1.7-.6,2.8,2.8,0,0,1,2.9,3.1,2.9,2.9,0,0,1-3.2,3,2.7,2.7,0,0,1-2.9-2.6h1.1a1.8,1.8,0,0,0,1.9,1.6,1.9,1.9,0,0,0,1.9-2.1,2,2,0,0,0-2-2.1,2.2,2.2,0,0,0-1.7.9h-.9l.8-4.7h4.5Z"/><path class="cls-1" d="M304.2,635.7c2.8,0,3,2.6,3,4.6s-.2,4.6-3,4.6-3-2.6-3-4.6S301.4,635.7,304.2,635.7Zm0,8.2c1.8,0,1.9-2.3,1.9-3.6s0-3.6-1.9-3.6-1.9,2.3-1.9,3.6S302.3,643.9,304.2,643.9Z"/><path class="cls-1" d="M311.3,635.7c2.8,0,3,2.6,3,4.6s-.2,4.6-3,4.6-3-2.6-3-4.6S308.4,635.7,311.3,635.7Zm0,8.2c1.8,0,1.9-2.3,1.9-3.6s0-3.6-1.9-3.6-1.9,2.3-1.9,3.6S309.4,643.9,311.3,643.9Z"/><path class="cls-1" d="M254.1,462.9h-6.4v-.9h6.4Zm-6.4,1.7h6.4v.9h-6.4Z"/><path class="cls-1" d="M262.8,467h-1.4l-3.2-9.1h1.3l2.6,7.9h0l2.6-7.9h1.3Z"/><path class="cls-1" d="M272,467l-.8.2c-.6,0-.9-.3-.9-1a2.9,2.9,0,0,1-2.3,1c-1.2,0-2.2-.5-2.2-1.8s1.1-1.8,2.2-2,2.2-.2,2.2-1-.8-1.1-1.5-1.1-1.6.3-1.6,1.2H266c.1-1.6,1.3-2.2,2.8-2.2s2.5.3,2.5,1.8v3.4c0,.5,0,.7.3.7h.3Zm-1.8-3.4a5.6,5.6,0,0,1-2,.4c-.7.1-1.3.4-1.3,1.2s.6,1,1.3,1,2-.9,2-1.5Z"/><path class="cls-1" d="M273,457.9h1.1V467H273Z"/><path class="cls-1" d="M281.3,467h-1v-1h0a2.3,2.3,0,0,1-2.1,1.2c-1.7,0-2.3-1-2.3-2.4v-4.3h1.1v4.5a1.2,1.2,0,0,0,1.3,1.3,1.9,1.9,0,0,0,1.9-2.1v-3.7h1.1Z"/><path class="cls-1" d="M288.5,464.9a2.7,2.7,0,0,1-2.8,2.2c-2.1,0-3.1-1.5-3.2-3.5a3.2,3.2,0,0,1,3.1-3.4c2.3,0,3,2.2,3,3.8h-4.9a1.9,1.9,0,0,0,2.1,2.2,1.6,1.6,0,0,0,1.7-1.3Zm-1-1.8a1.9,1.9,0,0,0-1.9-1.9,1.9,1.9,0,0,0-1.9,1.9Z"/><path class="cls-1" d="M303.1,459.2h-1.1v-1.3h1.1Zm-1.1,1.2h1.1V467h-1.1Z"/><path class="cls-1" d="M304.9,457.9H306V467h-1.1Z"/><path class="cls-1" d="M307.7,457.9h1.1V467h-1.1Z"/><path class="cls-1" d="M255.1,496.5h-6.4v-.9h6.4Zm-6.4,1.7h6.4v.9h-6.4Z"/><path class="cls-1" d="M264.1,491.3c2.9,0,4.4,2.3,4.4,4.8s-1.5,4.8-4.4,4.8-4.4-2.3-4.4-4.8S261.2,491.3,264.1,491.3Zm0,8.5c2.2,0,3.1-1.9,3.1-3.7s-.9-3.7-3.1-3.7-3.1,1.9-3.1,3.7S261.9,499.8,264.1,499.8Z"/><path class="cls-1" d="M272.8,500.6h-1.2l-2.4-6.6h1.2l1.8,5.5h0L274,494h1.1Z"/><path class="cls-1" d="M281.8,498.5a2.7,2.7,0,0,1-2.8,2.2c-2.1,0-3.1-1.5-3.2-3.5a3.2,3.2,0,0,1,3.1-3.4c2.3,0,3,2.2,3,3.8h-4.9a1.9,1.9,0,0,0,2.1,2.2,1.6,1.6,0,0,0,1.7-1.3Zm-1-1.8a1.9,1.9,0,0,0-1.9-1.9,1.9,1.9,0,0,0-1.9,1.9Z"/><path class="cls-1" d="M283,494h1v1.4h0a2.4,2.4,0,0,1,2.4-1.5V495c-1.7,0-2.4,1-2.4,2.7v2.9H283Z"/><path class="cls-1" d="M287.2,494h1v1.4h0a2.4,2.4,0,0,1,2.4-1.5V495c-1.7,0-2.4,1-2.4,2.7v2.9h-1.1Z"/><path class="cls-1" d="M296.9,500.6h-1v-1h0a2.3,2.3,0,0,1-2.1,1.2c-1.7,0-2.3-1-2.3-2.4V494h1.1v4.5a1.2,1.2,0,0,0,1.3,1.3,1.9,1.9,0,0,0,1.9-2.1V494h1.1Z"/><path class="cls-1" d="M298.6,494h1v1h0a2.3,2.3,0,0,1,2.1-1.2c1.7,0,2.3,1,2.3,2.4v4.3h-1.1v-4.5a1.2,1.2,0,0,0-1.3-1.3,1.9,1.9,0,0,0-1.9,2.1v3.7h-1.1Z"/><path class="cls-1" d="M232.8,943.8h-1.3l-2.1-7.6h0l-2.1,7.6H226l-2.3-9.1H225l1.8,7.6h0l2-7.6h1.3l2,7.6h0l1.8-7.6h1.2Z"/><path class="cls-1" d="M235.9,937.2h1v1.4h0a2.4,2.4,0,0,1,2.4-1.5v1.1c-1.7,0-2.4,1-2.4,2.7v2.9h-1.1Z"/><path class="cls-1" d="M241.3,936h-1.1v-1.3h1.1Zm-1.1,1.2h1.1v6.6h-1.1Z"/><path class="cls-1" d="M244.5,937.2h1.3v1h-1.3v4.1c0,.5.1.6.8.6h.5v1H245c-1.1,0-1.6-.2-1.6-1.4v-4.2h-1.1v-1h1.1v-2h1.1Z"/><path class="cls-1" d="M252.6,941.7a2.7,2.7,0,0,1-2.8,2.2c-2.1,0-3.1-1.5-3.2-3.5a3.2,3.2,0,0,1,3.1-3.4c2.3,0,3,2.2,3,3.8h-4.9a1.9,1.9,0,0,0,2.1,2.2,1.6,1.6,0,0,0,1.7-1.3Zm-1-1.8a1.9,1.9,0,0,0-1.9-1.9,1.9,1.9,0,0,0-1.9,1.9Z"/><path class="cls-1" d="M253.7,939.7h3.7v1h-3.7Z"/><path class="cls-1" d="M264.3,943.8h-1v-1h0a2.3,2.3,0,0,1-2.1,1.2c-1.7,0-2.3-1-2.3-2.4v-4.3h1.1v4.5a1.2,1.2,0,0,0,1.3,1.3,1.9,1.9,0,0,0,1.9-2.1v-3.7h1.1Z"/><path class="cls-1" d="M265.9,937.2H267v.9h0a2.2,2.2,0,0,1,2.1-1c2,0,3,1.6,3,3.5s-1,3.4-3,3.4a2.5,2.5,0,0,1-2.1-1h0v3.4h-1.1Zm3.1.8c-1.5,0-2,1.2-2,2.5s.6,2.5,2.1,2.5,2-1.3,2-2.5S270.4,938,269,938Z"/><path class="cls-1" d="M279.8,937c2.1,0,3.2,1.5,3.2,3.5a3.2,3.2,0,1,1-6.4,0C276.6,938.5,277.7,937,279.8,937Zm0,5.9c1.1,0,2.1-.9,2.1-2.5s-.9-2.5-2.1-2.5-2.1.9-2.1,2.5S278.7,943,279.8,943Z"/><path class="cls-1" d="M284.3,937.2h1v1.4h0a2.4,2.4,0,0,1,2.4-1.5v1.1c-1.7,0-2.4,1-2.4,2.7v2.9h-1.1Z"/><path class="cls-1" d="M292.1,937.2h1.1v.9h0a2.2,2.2,0,0,1,2.1-1c2,0,3,1.6,3,3.5s-1,3.4-3,3.4a2.5,2.5,0,0,1-2.1-1h0v3.4h-1.1Zm3.1.8c-1.5,0-2,1.2-2,2.5s.6,2.5,2.1,2.5,2-1.3,2-2.5S296.6,938,295.2,938Z"/><path class="cls-1" d="M299.6,937.2h1v1.4h0a2.4,2.4,0,0,1,2.4-1.5v1.1c-1.7,0-2.4,1-2.4,2.7v2.9h-1.1Z"/><path class="cls-1" d="M306.5,937c2.1,0,3.2,1.5,3.2,3.5a3.2,3.2,0,1,1-6.4,0C303.3,938.5,304.4,937,306.5,937Zm0,5.9c1.1,0,2.1-.9,2.1-2.5s-.9-2.5-2.1-2.5-2.1.9-2.1,2.5S305.4,943,306.5,943Z"/><path class="cls-1" d="M311.4,938.1h-1.1v-1h1.1v-1c0-1.1.6-1.6,1.8-1.6h.7v.9h-.6c-.5,0-.8.2-.8.7v.9h1.3v1h-1.3v5.6h-1.1Zm3.4-2.1v-1.3h1.1V936Zm0,7.8v-6.6h1.1v6.6Z"/><path class="cls-1" d="M319.1,937.2h1.3v1h-1.3v4.1c0,.5.1.6.8.6h.5v1h-.8c-1.1,0-1.6-.2-1.6-1.4v-4.2h-1.1v-1H318v-2h1.1Z"/><path class="cls-1" d="M233.8,974.3h-1.3l-2.1-7.6h0l-2.1,7.6h-1.3l-2.3-9.1H226l1.8,7.6h0l2-7.6h1.3l2,7.6h0l1.8-7.6h1.2Z"/><path class="cls-1" d="M236.9,967.7h1v1.4h0a2.4,2.4,0,0,1,2.4-1.5v1.1c-1.7,0-2.4,1-2.4,2.7v2.9h-1.1Z"/><path class="cls-1" d="M242.4,966.6h-1.1v-1.3h1.1Zm-1.1,1.2h1.1v6.6h-1.1Z"/><path class="cls-1" d="M245.6,967.7h1.3v1h-1.3v4.1c0,.5.1.6.8.6h.5v1H246c-1.1,0-1.6-.2-1.6-1.4v-4.2h-1.1v-1h1.1v-2h1.1Z"/><path class="cls-1" d="M253.7,972.2a2.7,2.7,0,0,1-2.8,2.2c-2.1,0-3.1-1.5-3.2-3.5a3.2,3.2,0,0,1,3.1-3.4c2.3,0,3,2.2,3,3.8h-4.9a1.9,1.9,0,0,0,2.1,2.2,1.6,1.6,0,0,0,1.7-1.3Zm-1-1.8a1.9,1.9,0,0,0-1.9-1.9,1.9,1.9,0,0,0-1.9,1.9Z"/><path class="cls-1" d="M254.7,970.3h3.7v1h-3.7Z"/><path class="cls-1" d="M262.7,967.6c2.1,0,3.2,1.5,3.2,3.5a3.2,3.2,0,1,1-6.4,0C259.5,969.1,260.6,967.6,262.7,967.6Zm0,5.9c1.1,0,2.1-.9,2.1-2.5s-.9-2.5-2.1-2.5-2.1.9-2.1,2.5S261.6,973.5,262.7,973.5Z"/><path class="cls-1" d="M267.6,968.7h-1.1v-1h1.1v-1c0-1.1.6-1.6,1.8-1.6h.7v.9h-.6c-.5,0-.8.2-.8.7v.9H270v1h-1.3v5.6h-1.1Z"/><path class="cls-1" d="M271.2,968.7H270v-1h1.1v-1c0-1.1.6-1.6,1.8-1.6h.7v.9h-.6c-.5,0-.8.2-.8.7v.9h1.3v1h-1.3v5.6h-1.1Z"/><path class="cls-1" d="M280.9,967.6c2.1,0,3.2,1.5,3.2,3.5a3.2,3.2,0,1,1-6.4,0C277.7,969.1,278.8,967.6,280.9,967.6Zm0,5.9c1.1,0,2.1-.9,2.1-2.5s-.9-2.5-2.1-2.5-2.1.9-2.1,2.5S279.7,973.5,280.9,973.5Z"/><path class="cls-1" d="M285.3,967.7h1v1.4h0a2.4,2.4,0,0,1,2.4-1.5v1.1c-1.7,0-2.4,1-2.4,2.7v2.9h-1.1Z"/><path class="cls-1" d="M293.2,965.2h1.1v9.1h-1.1Z"/><path class="cls-1" d="M298.8,967.6c2.1,0,3.2,1.5,3.2,3.5a3.2,3.2,0,1,1-6.4,0C295.6,969.1,296.7,967.6,298.8,967.6Zm0,5.9c1.1,0,2.1-.9,2.1-2.5s-.9-2.5-2.1-2.5-2.1.9-2.1,2.5S297.6,973.5,298.8,973.5Z"/><path class="cls-1" d="M303.9,972.3c0,1,.9,1.3,1.8,1.3s1.6-.2,1.6-1-1.1-1-2.2-1.2-2.2-.6-2.2-1.9,1.3-1.9,2.5-1.9,2.6.5,2.7,2.1H307c-.1-.8-.8-1.1-1.5-1.1s-1.4.2-1.4.8,1.1.9,2.2,1.1,2.2.6,2.2,1.9-1.5,2.1-2.8,2.1-2.7-.6-2.8-2.2Z"/><path class="cls-1" d="M310.3,972.3c0,1,.9,1.3,1.8,1.3s1.6-.2,1.6-1-1.1-1-2.2-1.2-2.2-.6-2.2-1.9,1.3-1.9,2.5-1.9,2.6.5,2.7,2.1h-1.1c-.1-.8-.8-1.1-1.5-1.1s-1.4.2-1.4.8,1.1.9,2.2,1.1,2.2.6,2.2,1.9-1.5,2.1-2.8,2.1-2.7-.6-2.8-2.2Z"/><path class="cls-1" d="M335.9,652.3H200.6l-1-1v-38l1-1H335.9l1,1v38Zm-134.3-2H334.9v-36H201.6Z"/><rect class="cls-1" x="291.9" y="166.2" width="27" height="2" transform="translate(-3.7 327.4) rotate(-56.1)"/><rect class="cls-1" x="215" y="153.6" width="2" height="27.02" transform="translate(-56.5 149) rotate(-33.9)"/><path class="cls-2" d="M296.7,115.1h4c1.6,0,2.6.9,2.6,2.2a2.1,2.1,0,0,1-1.5,2.2h0c1,.2,1.2.9,1.3,1.8a4.4,4.4,0,0,0,.5,2.4h-1.3c-.3-.3-.1-1.3-.3-2.1s-.3-1.5-1.4-1.5h-2.8v3.7h-1.1Zm3.5,3.9c1.1,0,2-.3,2-1.5a1.4,1.4,0,0,0-1.5-1.5h-2.8v3Z"/><path class="cls-2" d="M307.4,117.3a3.3,3.3,0,1,1-3,3.3A2.9,2.9,0,0,1,307.4,117.3Zm0,5.6c1.1,0,1.9-.8,1.9-2.3s-.9-2.4-1.9-2.4-1.9.8-1.9,2.4S306.4,122.9,307.4,122.9Z"/><path class="cls-2" d="M311.7,115.1h1v8.6h-1Z"/><path class="cls-2" d="M314.4,115.1h1v8.6h-1Z"/><path class="cls-2" d="M321.7,117.4H323v.9h-1.2v3.9c0,.5.1.6.8.6h.5v.9h-.8c-1.1,0-1.5-.2-1.5-1.4v-3.9h-1.1v-.9h1.1v-1.9h1Z"/><path class="cls-2" d="M329.4,121.7a2.5,2.5,0,0,1-2.7,2.1c-2,0-2.9-1.4-3-3.3a3,3,0,0,1,2.9-3.2c2.2,0,2.9,2.1,2.8,3.5h-4.6a1.8,1.8,0,0,0,1.9,2,1.5,1.5,0,0,0,1.6-1.2Zm-1-1.7a1.8,1.8,0,0,0-1.8-1.8,1.8,1.8,0,0,0-1.8,1.8Z"/><path class="cls-2" d="M336,123.6l-.7.2c-.5,0-.9-.3-.9-1a2.8,2.8,0,0,1-2.2,1c-1.1,0-2.1-.5-2.1-1.7s1-1.7,2.1-1.9,2.1-.1,2.1-.9-.7-1-1.4-1-1.5.3-1.5,1.2h-1c.1-1.5,1.2-2.1,2.6-2.1s2.3.3,2.3,1.7v3.2c0,.5,0,.7.3.7h.3Zm-1.7-3.2a5.3,5.3,0,0,1-1.8.4c-.7.1-1.2.4-1.2,1.1s.6.9,1.2.9,1.9-.8,1.9-1.4Z"/><path class="cls-2" d="M337,117.4h1v.9h0a2.3,2.3,0,0,1,2-1.1,1.6,1.6,0,0,1,1.7,1.1,2.3,2.3,0,0,1,1.9-1.1c1.2,0,2.1.5,2.1,1.8v4.5h-1v-4.1c0-.8-.2-1.4-1.2-1.4a1.5,1.5,0,0,0-1.6,1.6v3.9h-1v-4.1c0-.8-.3-1.4-1.2-1.4a1.7,1.7,0,0,0-1.7,1.6v3.9h-1Z"/><path class="cls-2" d="M353.2,117.3a3.3,3.3,0,1,1-3,3.3A2.9,2.9,0,0,1,353.2,117.3Zm0,5.6c1.1,0,1.9-.8,1.9-2.3s-.9-2.4-1.9-2.4-1.9.8-1.9,2.4S352.2,122.9,353.2,122.9Z"/><path class="cls-2" d="M357.9,118.3h-1v-.9h1v-.9c0-1,.6-1.5,1.7-1.5h.7v.9h-.6c-.5,0-.8.2-.8.7v.9h1.2v.9h-1.2v5.3h-1Z"/><path class="cls-2" d="M361.2,118.3h-1v-.9h1v-.9c0-1,.6-1.5,1.7-1.5h.7v.9H363c-.5,0-.8.2-.8.7v.9h1.2v.9h-1.2v5.3h-1Z"/><path class="cls-2" d="M369.1,117.4h1.2v.9h-1.2v3.9c0,.5.1.6.8.6h.5v.9h-.8c-1.1,0-1.5-.2-1.5-1.4v-3.9H367v-.9h1.1v-1.9h1Z"/><path class="cls-2" d="M371.5,115.1h1v3.3h0a2.1,2.1,0,0,1,2-1.1c1.6,0,2.1.9,2.1,2.3v4.1h-1v-4.2a1.2,1.2,0,0,0-1.3-1.2,1.7,1.7,0,0,0-1.8,1.9v3.5h-1Z"/><path class="cls-2" d="M383.4,121.7a2.5,2.5,0,0,1-2.7,2.1c-2,0-2.9-1.4-3-3.3a3,3,0,0,1,2.9-3.2c2.2,0,2.9,2.1,2.8,3.5h-4.6a1.8,1.8,0,0,0,1.9,2,1.5,1.5,0,0,0,1.6-1.2Zm-1-1.7a1.8,1.8,0,0,0-1.8-1.8,1.8,1.8,0,0,0-1.8,1.8Z"/><path class="cls-2" d="M312.4,136.1a2.5,2.5,0,0,1-2.7,2.1c-2,0-2.9-1.4-3-3.3a3,3,0,0,1,2.9-3.2c2.2,0,2.9,2.1,2.8,3.6h-4.6a1.8,1.8,0,0,0,1.9,2,1.5,1.5,0,0,0,1.6-1.2Zm-1-1.7a1.8,1.8,0,0,0-1.8-1.8,1.8,1.8,0,0,0-1.8,1.8Z"/><path class="cls-2" d="M313.5,131.8h1v1h0a2.2,2.2,0,0,1,2-1.1c1.6,0,2.1.9,2.1,2.3V138h-1v-4.2a1.2,1.2,0,0,0-1.3-1.2,1.7,1.7,0,0,0-1.8,1.9V138h-1Z"/><path class="cls-2" d="M325.6,137.5c0,2-.9,3-2.9,3s-2.5-.5-2.6-1.8h1c0,.7.9,1,1.6,1s1.9-1,1.9-2.4V137h0a2.1,2.1,0,0,1-1.9,1.1c-1.8,0-2.8-1.5-2.8-3.1s.7-3.3,2.9-3.3a2,2,0,0,1,1.8,1h0v-.9h1Zm-1-2.7c0-1.1-.5-2.2-1.8-2.2s-1.8,1.1-1.8,2.3.4,2.4,1.8,2.4S324.6,136,324.6,134.8Z"/><path class="cls-2" d="M332.6,138l-.7.2c-.5,0-.9-.3-.9-1a2.8,2.8,0,0,1-2.2,1c-1.1,0-2.1-.5-2.1-1.7s1-1.7,2.1-1.9,2.1-.1,2.1-.9-.7-1-1.4-1-1.5.3-1.5,1.2h-1c.1-1.5,1.2-2.1,2.6-2.1s2.3.3,2.3,1.7v3.2c0,.5,0,.7.3.7h.3Zm-1.7-3.2a5.3,5.3,0,0,1-1.8.4c-.7.1-1.2.4-1.2,1.1s.6.9,1.2.9,1.9-.8,1.9-1.4Z"/><path class="cls-2" d="M338.9,137.5c0,2-.9,3-2.9,3s-2.5-.5-2.6-1.8h1c0,.7.9,1,1.6,1s1.9-1,1.9-2.4V137h0a2.1,2.1,0,0,1-1.9,1.1c-1.8,0-2.8-1.5-2.8-3.1s.7-3.3,2.9-3.3a2,2,0,0,1,1.8,1h0v-.9h1Zm-1-2.7c0-1.1-.5-2.2-1.8-2.2s-1.8,1.1-1.8,2.3.4,2.4,1.8,2.4S337.9,136,337.9,134.8Z"/><path class="cls-2" d="M345.7,136.1a2.5,2.5,0,0,1-2.7,2.1c-2,0-2.9-1.4-3-3.3a3,3,0,0,1,2.9-3.2c2.2,0,2.9,2.1,2.8,3.6h-4.6a1.8,1.8,0,0,0,1.9,2,1.5,1.5,0,0,0,1.6-1.2Zm-1-1.7a1.8,1.8,0,0,0-1.8-1.8,1.8,1.8,0,0,0-1.8,1.8Z"/><path class="cls-2" d="M346.9,131.8h1v.9h0a2.3,2.3,0,0,1,2-1.1,1.6,1.6,0,0,1,1.7,1.1,2.3,2.3,0,0,1,1.9-1.1c1.2,0,2.1.5,2.1,1.8V138h-1V134c0-.8-.2-1.4-1.2-1.4a1.5,1.5,0,0,0-1.6,1.6V138h-1V134c0-.8-.3-1.4-1.2-1.4a1.7,1.7,0,0,0-1.7,1.6V138h-1Z"/><path class="cls-2" d="M362.4,136.1a2.5,2.5,0,0,1-2.7,2.1c-2,0-2.9-1.4-3-3.3a3,3,0,0,1,2.9-3.2c2.2,0,2.9,2.1,2.8,3.6h-4.6a1.8,1.8,0,0,0,1.9,2,1.5,1.5,0,0,0,1.6-1.2Zm-1-1.7a1.8,1.8,0,0,0-1.8-1.8,1.8,1.8,0,0,0-1.8,1.8Z"/><path class="cls-2" d="M363.6,131.8h1v1h0a2.2,2.2,0,0,1,2-1.1c1.6,0,2.1.9,2.1,2.3V138h-1v-4.2a1.2,1.2,0,0,0-1.3-1.2,1.7,1.7,0,0,0-1.8,1.9V138h-1Z"/><path class="cls-2" d="M371.6,131.8h1.2v.9h-1.2v3.8c0,.5.1.6.8.6h.5v.9h-.8c-1.1,0-1.5-.2-1.5-1.4v-3.9h-1.1v-.9h1.1V130h1Z"/><path class="cls-2" d="M237.5,860.4h1.3l4.8,7.4h0v-7.4h1.1v9.1h-1.3l-4.8-7.3h0v7.3h-1.1Z"/><path class="cls-2" d="M252.1,867.4a2.7,2.7,0,0,1-2.8,2.2c-2.1,0-3.1-1.5-3.2-3.5a3.2,3.2,0,0,1,3.1-3.4c2.3,0,3,2.2,3,3.8h-4.9a1.9,1.9,0,0,0,2.1,2.2,1.6,1.6,0,0,0,1.7-1.3Zm-1-1.8a1.9,1.9,0,0,0-1.9-1.9,1.9,1.9,0,0,0-1.9,1.9Z"/><path class="cls-2" d="M254.9,863h1.3v1h-1.3V868c0,.5.1.6.8.6h.5v1h-.8c-1.1,0-1.6-.2-1.6-1.4v-4.2h-1.1v-1h1.1v-2h1.1Z"/><path class="cls-2" d="M264.7,869.5h-1.4l-3.2-9.1h1.3l2.6,7.9h0l2.6-7.9h1.3Z"/><path class="cls-2" d="M273.8,869.5l-.8.2c-.6,0-.9-.3-.9-1a2.9,2.9,0,0,1-2.3,1c-1.2,0-2.2-.5-2.2-1.8s1.1-1.8,2.2-2,2.2-.2,2.2-1-.8-1.1-1.5-1.1-1.6.3-1.6,1.2h-1.1c.1-1.6,1.3-2.2,2.8-2.2s2.5.3,2.5,1.8V868c0,.5,0,.7.3.7h.3Zm-1.8-3.4a5.6,5.6,0,0,1-2,.4c-.7.1-1.3.4-1.3,1.2s.6,1,1.3,1,2-.9,2-1.5Z"/><path class="cls-2" d="M274.9,860.4H276v9.1h-1.1Z"/><path class="cls-2" d="M283.1,869.5h-1v-1h0a2.3,2.3,0,0,1-2.1,1.2c-1.7,0-2.3-1-2.3-2.4V863h1.1v4.5a1.2,1.2,0,0,0,1.3,1.3,1.9,1.9,0,0,0,1.9-2.1V863h1.1Z"/><path class="cls-2" d="M290.4,867.4a2.7,2.7,0,0,1-2.8,2.2c-2.1,0-3.1-1.5-3.2-3.5a3.2,3.2,0,0,1,3.1-3.4c2.3,0,3,2.2,3,3.8h-4.9a1.9,1.9,0,0,0,2.1,2.2,1.6,1.6,0,0,0,1.7-1.3Zm-1-1.8a1.9,1.9,0,0,0-1.9-1.9,1.9,1.9,0,0,0-1.9,1.9Z"/><path class="cls-2" d="M232.9,875.7h1.3l3.6,9.1h-1.3l-1-2.7h-3.8l-1,2.7h-1.2Zm-.9,5.3h3.1l-1.5-4.2h0Z"/><path class="cls-2" d="M244.4,884.8h-1.1v-.9h0a2.2,2.2,0,0,1-2.1,1c-2,0-3-1.6-3-3.5s1-3.4,3-3.4a2.5,2.5,0,0,1,2.1,1h0v-3.4h1.1Zm-3.1-.8c1.5,0,2-1.2,2-2.5s-.6-2.5-2.1-2.5-2,1.3-2,2.5S239.9,884,241.3,884Z"/><path class="cls-2" d="M247.2,885.7a1.5,1.5,0,0,1-1.6,1.7h-.6v-.9h.4c.5,0,.6-.2.6-.9v-7.2h1.1Zm0-8.6h-1.1v-1.3h1.1Z"/><path class="cls-2" d="M254.3,884.8h-1v-1h0a2.3,2.3,0,0,1-2.1,1.2c-1.7,0-2.3-1-2.3-2.4v-4.3H250v4.5a1.2,1.2,0,0,0,1.3,1.3,1.9,1.9,0,0,0,1.9-2.1v-3.7h1.1Z"/><path class="cls-2" d="M256.6,882.7c0,1,.9,1.3,1.8,1.3s1.6-.2,1.6-1-1.1-1-2.2-1.2-2.2-.6-2.2-1.9,1.3-1.9,2.5-1.9,2.6.5,2.7,2.1h-1.1c-.1-.8-.8-1.1-1.5-1.1s-1.4.2-1.4.8,1.1.9,2.2,1.1,2.2.6,2.2,1.9-1.5,2.1-2.8,2.1-2.7-.6-2.8-2.2Z"/><path class="cls-2" d="M263.8,878.2h1.3v1h-1.3v4.1c0,.5.1.6.8.6h.5v1h-.8c-1.1,0-1.6-.2-1.6-1.4v-4.2h-1.1v-1h1.1v-2h1.1Z"/><path class="cls-2" d="M266.3,878.2h1v1h0a2.4,2.4,0,0,1,2.1-1.1,1.7,1.7,0,0,1,1.8,1.1,2.4,2.4,0,0,1,2.1-1.1c1.3,0,2.2.5,2.2,1.9v4.8h-1.1v-4.3c0-.8-.2-1.5-1.3-1.5a1.6,1.6,0,0,0-1.7,1.7v4.1h-1.1v-4.3c0-.9-.3-1.5-1.2-1.5a1.8,1.8,0,0,0-1.8,1.7v4.1h-1.1Z"/><path class="cls-2" d="M282.8,882.7A2.7,2.7,0,0,1,280,885c-2.1,0-3.1-1.5-3.2-3.5a3.2,3.2,0,0,1,3.1-3.4c2.3,0,3,2.2,3,3.8H278A1.9,1.9,0,0,0,280,884a1.6,1.6,0,0,0,1.7-1.3Zm-1-1.8a1.9,1.9,0,0,0-1.9-1.9,1.9,1.9,0,0,0-1.9,1.9Z"/><path class="cls-2" d="M284,878.2h1v1h0a2.3,2.3,0,0,1,2.1-1.2c1.7,0,2.3,1,2.3,2.4v4.3h-1.1v-4.5a1.2,1.2,0,0,0-1.3-1.3,1.9,1.9,0,0,0-1.9,2.1v3.7H284Z"/><path class="cls-2" d="M292.6,878.2h1.3v1h-1.3v4.1c0,.5.1.6.8.6h.5v1h-.8c-1.1,0-1.6-.2-1.6-1.4v-4.2h-1.1v-1h1.1v-2h1.1Z"/><path class="cls-2" d="M295.4,883.4h1.4v1.3a1.9,1.9,0,0,1-1.4,2v-.6a1.2,1.2,0,0,0,.7-1.2h-.8Z"/><path class="cls-2" d="M252.3,891h1.3l4.8,7.4h0V891h1.1v9.1h-1.3l-4.8-7.3h0v7.3h-1.1Z"/><path class="cls-2" d="M265.1,900.1h-1.4l-3.2-9.1h1.3l2.6,7.9h0l2.6-7.9h1.3Z"/><path class="cls-2" d="M271.2,891h1.3l3.6,9.1h-1.3l-1-2.7h-3.8l-1,2.7h-1.2Zm-.9,5.3h3.1l-1.5-4.2h0Z"/><path class="cls-1" d="M231.6,471.9a13.5,13.5,0,0,1-2.5-7.5,12.7,12.7,0,0,1,2.5-7.4h1a13.3,13.3,0,0,0-2.1,7.4,13.6,13.6,0,0,0,2.1,7.5Z"/><path class="cls-1" d="M239,471.9a13.3,13.3,0,0,0,2.1-7.4,13.6,13.6,0,0,0-2.1-7.5h1a13.5,13.5,0,0,1,2.5,7.5,12.7,12.7,0,0,1-2.5,7.4Z"/><path class="cls-1" d="M235.8,475.6c3.6,0,3.8,3.3,3.8,5.8s-.2,5.8-3.8,5.8-3.8-3.3-3.8-5.8S232.3,475.6,235.8,475.6Zm0,10.4c2.3,0,2.4-2.9,2.4-4.6s0-4.6-2.4-4.6-2.3,2.9-2.3,4.6S233.5,486,235.8,486Z"/><path class="cls-1" d="M236.6,496.4h5.1V498h-5.1v5.2H235V498h-5.1v-1.6H235v-5.2h1.6Z"/><path class="cls-1" d="M258.9,740.5a13.5,13.5,0,0,1-2.5-7.5,12.7,12.7,0,0,1,2.5-7.4h1a13.3,13.3,0,0,0-2.1,7.4,13.6,13.6,0,0,0,2.1,7.5Z"/><path class="cls-1" d="M266.3,740.5a13.3,13.3,0,0,0,2.1-7.4,13.6,13.6,0,0,0-2.1-7.5h1a13.5,13.5,0,0,1,2.5,7.5,12.7,12.7,0,0,1-2.5,7.4Z"/><path class="cls-1" d="M263.1,744.2c3.6,0,3.8,3.3,3.8,5.8s-.2,5.8-3.8,5.8-3.8-3.3-3.8-5.8S259.5,744.2,263.1,744.2Zm0,10.4c2.3,0,2.4-2.9,2.4-4.6s0-4.6-2.4-4.6-2.3,2.9-2.3,4.6S260.8,754.6,263.1,754.6Z"/><path class="cls-1" d="M263.9,765H269v1.6h-5.1v5.2h-1.6v-5.2h-5.1V765h5.1v-5.2h1.6Z"/><path class="cls-1" d="M207.8,947.2a13.5,13.5,0,0,1-2.5-7.5,12.7,12.7,0,0,1,2.5-7.4h1a13.3,13.3,0,0,0-2.1,7.4,13.6,13.6,0,0,0,2.1,7.5Z"/><path class="cls-1" d="M215.3,947.2a13.3,13.3,0,0,0,2.1-7.4,13.6,13.6,0,0,0-2.1-7.5h1a13.5,13.5,0,0,1,2.5,7.5,12.7,12.7,0,0,1-2.5,7.4Z"/><path class="cls-1" d="M212.9,969.7H218v1.6h-5.1v5.2h-1.6v-5.2h-5.1v-1.6h5.1v-5.2h1.6Z"/><path class="cls-2" d="M428.2,569.7a2.3,2.3,0,0,0-2.4-1.8c-2,0-2.9,1.7-2.9,3.5s.9,3.6,2.9,3.6a2.4,2.4,0,0,0,2.5-2.5h1.1a3.5,3.5,0,0,1-3.7,3.4c-2.7,0-4-2-4-4.5s1.4-4.5,4.1-4.5a3.3,3.3,0,0,1,3.5,2.8Z"/><path class="cls-2" d="M433.3,569.4a3.3,3.3,0,1,1-3,3.3A2.9,2.9,0,0,1,433.3,569.4Zm0,5.6c1.1,0,1.9-.8,1.9-2.3s-.9-2.4-1.9-2.4-1.9.8-1.9,2.4S432.3,575,433.3,575Z"/><path class="cls-2" d="M437.6,569.5h1v1h0a2.2,2.2,0,0,1,2-1.1c1.6,0,2.1.9,2.1,2.3v4.1h-1v-4.2a1.2,1.2,0,0,0-1.3-1.2,1.7,1.7,0,0,0-1.8,1.9v3.5h-1Z"/><path class="cls-2" d="M445.6,569.5h1.2v.9h-1.2v3.8c0,.5.1.6.8.6h.5v.9h-.8c-1.1,0-1.5-.2-1.5-1.4v-3.9h-1.1v-.9h1.1v-1.9h1Z"/><path class="cls-2" d="M449.1,568.4h-1v-1.2h1Zm-1,1.1h1v6.2h-1Z"/><path class="cls-2" d="M450.7,569.5h1v1h0a2.2,2.2,0,0,1,2-1.1c1.6,0,2.1.9,2.1,2.3v4.1h-1v-4.2a1.2,1.2,0,0,0-1.3-1.2,1.7,1.7,0,0,0-1.8,1.9v3.5h-1Z"/><path class="cls-2" d="M462.5,575.7h-1v-1h0a2.2,2.2,0,0,1-2,1.1c-1.6,0-2.1-.9-2.1-2.3v-4.1h1v4.2a1.2,1.2,0,0,0,1.3,1.2,1.7,1.7,0,0,0,1.8-1.9v-3.5h1Z"/><path class="cls-2" d="M469.3,573.7a2.5,2.5,0,0,1-2.7,2.1c-2,0-2.9-1.4-3-3.3a3,3,0,0,1,2.9-3.2c2.2,0,2.9,2.1,2.8,3.6h-4.6a1.8,1.8,0,0,0,1.9,2,1.5,1.5,0,0,0,1.6-1.2Zm-1-1.7a1.8,1.8,0,0,0-1.8-1.8,1.8,1.8,0,0,0-1.8,1.8Z"/><path class="cls-2" d="M475.2,569.5h1.2v.9h-1.2v3.8c0,.5.1.6.8.6h.5v.9h-.8c-1.1,0-1.5-.2-1.5-1.4v-3.9h-1.1v-.9h1.1v-1.9h1Z"/><path class="cls-2" d="M480.2,569.4a3.3,3.3,0,1,1-3,3.3A2.9,2.9,0,0,1,480.2,569.4Zm0,5.6c1.1,0,1.9-.8,1.9-2.3s-.9-2.4-1.9-2.4-1.9.8-1.9,2.4S479.2,575,480.2,575Z"/><path class="cls-2" d="M420.9,583.9h1v.9h0a2.3,2.3,0,0,1,2-1.1,1.6,1.6,0,0,1,1.7,1.1,2.3,2.3,0,0,1,1.9-1.1c1.2,0,2.1.5,2.1,1.8v4.5h-1V586c0-.8-.2-1.4-1.2-1.4a1.5,1.5,0,0,0-1.6,1.6v3.9h-1V586c0-.8-.3-1.4-1.2-1.4a1.7,1.7,0,0,0-1.7,1.6v3.9h-1Z"/><path class="cls-2" d="M433.8,583.8a3.3,3.3,0,1,1-3,3.3A2.9,2.9,0,0,1,433.8,583.8Zm0,5.6c1.1,0,1.9-.8,1.9-2.3s-.9-2.4-1.9-2.4-1.9.8-1.9,2.4S432.7,589.4,433.8,589.4Z"/><path class="cls-2" d="M438,583.9h1v1h0a2.2,2.2,0,0,1,2-1.1c1.6,0,2.1.9,2.1,2.3v4.1h-1v-4.2a1.2,1.2,0,0,0-1.3-1.2,1.7,1.7,0,0,0-1.8,1.9v3.5h-1Z"/><path class="cls-2" d="M445.8,582.8h-1v-1.2h1Zm-1,1.1h1v6.2h-1Z"/><path class="cls-2" d="M448.8,583.9H450v.9h-1.2v3.9c0,.5.1.6.8.6h.5v.9h-.8c-1.1,0-1.5-.2-1.5-1.4v-3.9h-1.1v-.9h1.1v-1.9h1Z"/><path class="cls-2" d="M453.8,583.8a3.3,3.3,0,1,1-3,3.3A2.9,2.9,0,0,1,453.8,583.8Zm0,5.6c1.1,0,1.9-.8,1.9-2.3s-.9-2.4-1.9-2.4-1.9.8-1.9,2.4S452.7,589.4,453.8,589.4Z"/><path class="cls-2" d="M458,583.9h1v1.3h0a2.3,2.3,0,0,1,2.3-1.5v1.1c-1.6,0-2.2.9-2.2,2.5v2.8h-1Z"/><path class="cls-2" d="M470.8,590.1l-.7.2c-.5,0-.9-.3-.9-1a2.8,2.8,0,0,1-2.2,1c-1.1,0-2.1-.5-2.1-1.7s1-1.7,2.1-1.9,2.1-.1,2.1-.9-.7-1-1.4-1-1.5.3-1.5,1.2h-1c.1-1.5,1.2-2.1,2.6-2.1s2.3.3,2.3,1.7v3.2c0,.5,0,.7.3.7h.3Zm-1.7-3.2a5.3,5.3,0,0,1-1.8.4c-.7.1-1.2.4-1.2,1.1s.6.9,1.2.9,1.9-.8,1.9-1.4Z"/><path class="cls-2" d="M471.8,583.9h1v1h0a2.2,2.2,0,0,1,2-1.1c1.6,0,2.1.9,2.1,2.3v4.1h-1v-4.2a1.2,1.2,0,0,0-1.3-1.2,1.7,1.7,0,0,0-1.8,1.9v3.5h-1Z"/><path class="cls-2" d="M484,590.1h-1v-.8h0a2.1,2.1,0,0,1-2,1c-1.9,0-2.9-1.5-2.9-3.3s.9-3.2,2.8-3.2a2.4,2.4,0,0,1,2,1h0v-3.2h1Zm-2.9-.8c1.4,0,1.9-1.2,1.9-2.3s-.6-2.4-2-2.4-1.9,1.2-1.9,2.4S479.8,589.4,481.1,589.4Z"/><path class="cls-2" d="M408.9,598.3h1v.9h0a2.3,2.3,0,0,1,2-1.1,1.6,1.6,0,0,1,1.7,1.1,2.3,2.3,0,0,1,1.9-1.1c1.2,0,2.1.5,2.1,1.8v4.5h-1v-4.1c0-.8-.2-1.4-1.2-1.4a1.5,1.5,0,0,0-1.6,1.6v3.9h-1v-4.1c0-.8-.3-1.4-1.2-1.4a1.7,1.7,0,0,0-1.7,1.6v3.9h-1Z"/><path class="cls-2" d="M424.6,604.5l-.7.2c-.5,0-.9-.3-.9-1a2.8,2.8,0,0,1-2.2,1c-1.1,0-2.1-.5-2.1-1.7s1-1.7,2.1-1.9,2.1-.1,2.1-.9-.7-1-1.4-1-1.5.3-1.5,1.2h-1c.1-1.5,1.2-2.1,2.6-2.1s2.3.3,2.3,1.7v3.2c0,.5,0,.7.3.7h.3Zm-1.7-3.2a5.2,5.2,0,0,1-1.8.4c-.7.1-1.2.4-1.2,1.1s.6.9,1.2.9,1.9-.8,1.9-1.4Z"/><path class="cls-2" d="M425.6,598.3h1v1h0a2.2,2.2,0,0,1,2-1.1c1.6,0,2.1.9,2.1,2.3v4.1h-1v-4.2a1.2,1.2,0,0,0-1.3-1.2,1.7,1.7,0,0,0-1.8,1.9v3.5h-1Z"/><path class="cls-2" d="M437.7,604.5l-.7.2c-.5,0-.9-.3-.9-1a2.8,2.8,0,0,1-2.2,1c-1.1,0-2.1-.5-2.1-1.7s1-1.7,2.1-1.9,2.1-.1,2.1-.9-.7-1-1.4-1-1.5.3-1.5,1.2h-1c.1-1.5,1.2-2.1,2.6-2.1s2.3.3,2.3,1.7v3.2c0,.5,0,.7.3.7h.3Zm-1.7-3.2a5.3,5.3,0,0,1-1.8.4c-.7.1-1.2.4-1.2,1.1s.6.9,1.2.9,1.9-.8,1.9-1.4Z"/><path class="cls-2" d="M444,604c0,2-.9,3-2.9,3s-2.5-.5-2.6-1.8h1c0,.7.9,1,1.6,1s1.9-1,1.9-2.4v-.4h0a2.1,2.1,0,0,1-1.9,1.1c-1.8,0-2.8-1.5-2.8-3.1s.7-3.3,2.9-3.3a2,2,0,0,1,1.8,1h0v-.9h1Zm-1-2.7c0-1.1-.5-2.2-1.8-2.2s-1.8,1.1-1.8,2.3.4,2.4,1.8,2.4S443,602.5,443,601.3Z"/><path class="cls-2" d="M450.9,602.5a2.5,2.5,0,0,1-2.7,2.1c-2,0-2.9-1.4-3-3.3a3,3,0,0,1,2.9-3.2c2.2,0,2.9,2.1,2.8,3.5h-4.6a1.8,1.8,0,0,0,1.9,2,1.5,1.5,0,0,0,1.6-1.2Zm-1-1.7a1.8,1.8,0,0,0-1.8-1.8,1.8,1.8,0,0,0-1.8,1.8Z"/><path class="cls-2" d="M456.8,598.3H458v.9h-1.2v3.9c0,.5.1.6.8.6h.5v.9h-.8c-1.1,0-1.5-.2-1.5-1.4v-3.9h-1.1v-.9h1.1v-1.9h1Z"/><path class="cls-2" d="M459.1,596h1v3.3h0a2.1,2.1,0,0,1,2-1.1c1.6,0,2.1.9,2.1,2.3v4.1h-1v-4.2a1.2,1.2,0,0,0-1.3-1.2,1.7,1.7,0,0,0-1.8,1.9v3.5h-1Z"/><path class="cls-2" d="M471.1,602.5a2.5,2.5,0,0,1-2.7,2.1c-2,0-2.9-1.4-3-3.3a3,3,0,0,1,2.9-3.2c2.2,0,2.9,2.1,2.8,3.5h-4.6a1.8,1.8,0,0,0,1.9,2,1.5,1.5,0,0,0,1.6-1.2Zm-1-1.7a1.8,1.8,0,0,0-1.8-1.8,1.8,1.8,0,0,0-1.8,1.8Z"/><path class="cls-2" d="M483.5,604.5h-1.2l-2-7.2h0l-2,7.2h-1.2L475,596h1.2l1.7,7.1h0l1.9-7.1H481l1.9,7.1h0l1.7-7.1h1.1Z"/><path class="cls-2" d="M486.9,596H488v8.6h-1.1Z"/><path class="cls-2" d="M490,596h3.8a2.5,2.5,0,1,1,0,5.1h-2.6v3.5H490Zm1.1,4.1h2.2c1.3,0,1.9-.6,1.9-1.6s-.6-1.6-1.9-1.6h-2.2Z"/><path class="cls-2" d="M418.4,618.9h-1v-1h0a2.2,2.2,0,0,1-2,1.1c-1.6,0-2.1-.9-2.1-2.3v-4.1h1v4.2a1.2,1.2,0,0,0,1.3,1.2,1.7,1.7,0,0,0,1.8-1.9v-3.5h1Z"/><path class="cls-2" d="M419.9,612.7h1v1h0a2.2,2.2,0,0,1,2-1.1c1.6,0,2.1.9,2.1,2.3v4.1h-1v-4.2a1.2,1.2,0,0,0-1.3-1.2,1.7,1.7,0,0,0-1.8,1.9v3.5h-1Z"/><path class="cls-2" d="M428,612.7h1.2v.9H428v3.8c0,.5.1.6.8.6h.5v.9h-.8c-1.1,0-1.5-.2-1.5-1.4v-3.9h-1.1v-.9H427v-1.9h1Z"/><path class="cls-2" d="M431.4,611.6h-1v-1.2h1Zm-1,1.1h1v6.2h-1Z"/><path class="cls-2" d="M433.1,610.3h1v8.6h-1Z"/><path class="cls-2" d="M439,610.3h1v3.2h0a2.1,2.1,0,0,1,2-1c1.9,0,2.9,1.5,2.9,3.3s-.9,3.2-2.8,3.2a2.4,2.4,0,0,1-2-1h0v.8h-1Zm2.9,3.1c-1.4,0-1.9,1.2-1.9,2.3s.6,2.4,2,2.4,1.9-1.2,1.9-2.4S443.2,613.5,441.9,613.5Z"/><path class="cls-2" d="M451.6,618.9l-.7.2c-.5,0-.9-.3-.9-1a2.8,2.8,0,0,1-2.2,1c-1.1,0-2.1-.5-2.1-1.7s1-1.7,2.1-1.9,2.1-.1,2.1-.9-.7-1-1.4-1-1.5.3-1.5,1.2h-1c.1-1.5,1.2-2.1,2.6-2.1s2.3.3,2.3,1.7v3.2c0,.5,0,.7.3.7h.3Zm-1.7-3.2a5.3,5.3,0,0,1-1.8.4c-.7.1-1.2.4-1.2,1.1s.6.9,1.2.9,1.9-.8,1.9-1.4Z"/><path class="cls-2" d="M452.6,610.3h1v8.6h-1Z"/><path class="cls-2" d="M460.7,618.9l-.7.2c-.5,0-.9-.3-.9-1a2.8,2.8,0,0,1-2.2,1c-1.1,0-2.1-.5-2.1-1.7s1-1.7,2.1-1.9,2.1-.1,2.1-.9-.7-1-1.4-1-1.5.3-1.5,1.2h-1c.1-1.5,1.2-2.1,2.6-2.1s2.3.3,2.3,1.7v3.2c0,.5,0,.7.3.7h.3Zm-1.7-3.2a5.2,5.2,0,0,1-1.8.4c-.7.1-1.2.4-1.2,1.1s.6.9,1.2.9,1.9-.8,1.9-1.4Z"/><path class="cls-2" d="M461.7,612.7h1v1h0a2.2,2.2,0,0,1,2-1.1c1.6,0,2.1.9,2.1,2.3v4.1h-1v-4.2a1.2,1.2,0,0,0-1.3-1.2,1.7,1.7,0,0,0-1.8,1.9v3.5h-1Z"/><path class="cls-2" d="M472.6,614.7a1.4,1.4,0,0,0-1.5-1.2c-1.5,0-1.9,1.2-1.9,2.4s.5,2.3,1.8,2.3a1.6,1.6,0,0,0,1.7-1.5h1a2.6,2.6,0,0,1-2.7,2.4c-1.9,0-2.9-1.3-2.9-3.2s1-3.3,2.9-3.3a2.4,2.4,0,0,1,2.7,2.1Z"/><path class="cls-2" d="M480.1,616.9a2.5,2.5,0,0,1-2.7,2.1c-2,0-2.9-1.4-3-3.3a3,3,0,0,1,2.9-3.2c2.2,0,2.9,2.1,2.8,3.5h-4.6a1.8,1.8,0,0,0,1.9,2,1.5,1.5,0,0,0,1.6-1.2Zm-1-1.7a1.8,1.8,0,0,0-1.8-1.8,1.8,1.8,0,0,0-1.8,1.8Z"/><path class="cls-2" d="M485.7,611.6h-1v-1.2h1Zm-1,1.1h1v6.2h-1Z"/><path class="cls-2" d="M487.9,617c0,.9.8,1.2,1.7,1.2s1.5-.1,1.5-.9-1-.9-2-1.2-2-.6-2-1.8,1.2-1.8,2.3-1.8,2.5.4,2.5,1.9h-1c-.1-.8-.8-1-1.4-1s-1.3.2-1.3.8,1.1.9,2,1.1,2,.6,2,1.8-1.4,2-2.6,2-2.6-.6-2.6-2.1Z"/><path class="cls-2" d="M423.1,629.9h2.6v.8h-2.6v2.6h-.8v-2.6h-2.6v-.8h2.6v-2.6h.8Z"/><path class="cls-2" d="M426.9,629.5h3.5v1h-3.5Z"/><path class="cls-2" d="M438.7,630.2c0,2.2-1.2,3.3-3.4,3.3s-3.5-1-3.5-3.3v-5.5H433v5.5a2.1,2.1,0,0,0,2.4,2.3,2.1,2.1,0,0,0,2.2-2.3v-5.5h1.1Z"/><path class="cls-2" d="M445.5,627.3a1.9,1.9,0,0,0-2.1-1.8c-1,0-1.9.3-1.9,1.5s1.4,1.2,2.7,1.5,2.7.8,2.7,2.5-1.8,2.6-3.3,2.6-3.5-.9-3.5-3h1.1c0,1.4,1.2,2.1,2.5,2.1s2.2-.3,2.2-1.6-1.4-1.4-2.7-1.7-2.7-.7-2.7-2.3,1.5-2.5,3.1-2.5,3.1.8,3.2,2.7Z"/><path class="cls-2" d="M448.3,624.8h2.9c2.6,0,4.1,1.3,4.1,4.1s-1.3,4.5-4.1,4.5h-2.9Zm1.1,7.6h1.9c.8,0,2.9-.2,2.9-3.4s-.8-3.3-2.9-3.3h-1.9Z"/><path class="cls-2" d="M456.4,627.8a2.6,2.6,0,0,1,2.7-3,2.4,2.4,0,0,1,2.7,2.4c0,1.5-1,2.3-2.1,2.9s-2.2,1.2-2.4,2.2h4.4v.9h-5.6a4.1,4.1,0,0,1,2.4-3.5c1.4-.9,2.2-1.4,2.2-2.6a1.5,1.5,0,0,0-1.6-1.5c-1.2,0-1.7,1.1-1.7,2.1Z"/><path class="cls-2" d="M463.5,632h1.3v1.2a1.8,1.8,0,0,1-1.3,1.9v-.6a1.1,1.1,0,0,0,.7-1.2h-.7Z"/><path class="cls-2" d="M471.5,625.9H468l-.5,2.4h0a2.1,2.1,0,0,1,1.6-.6,2.6,2.6,0,0,1,2.7,2.9,2.8,2.8,0,0,1-3,2.8,2.5,2.5,0,0,1-2.7-2.4h1a1.7,1.7,0,0,0,1.8,1.5,1.8,1.8,0,0,0,1.8-2,1.8,1.8,0,0,0-1.9-1.9,2,2,0,0,0-1.6.8h-.9l.8-4.4h4.2Z"/><path class="cls-2" d="M475.8,624.8c2.7,0,2.8,2.4,2.8,4.3s-.2,4.3-2.8,4.3-2.8-2.4-2.8-4.3S473.2,624.8,475.8,624.8Zm0,7.7c1.7,0,1.8-2.2,1.8-3.4s0-3.4-1.8-3.4-1.8,2.2-1.8,3.4S474.1,632.6,475.8,632.6Z"/><path class="cls-2" d="M482.5,624.8c2.7,0,2.8,2.4,2.8,4.3s-.2,4.3-2.8,4.3-2.8-2.4-2.8-4.3S479.9,624.8,482.5,624.8Zm0,7.7c1.7,0,1.8-2.2,1.8-3.4s0-3.4-1.8-3.4-1.8,2.2-1.8,3.4S480.8,632.6,482.5,632.6Z"/><polygon class="cls-3" points="263.8 924.9 326.2 858.5 291.4 858.5 291.4 793 232.8 793 232.8 858.5 201.3 858.5 263.8 924.9"/><path class="cls-1" d="M243.1,410.3h1.1v3.5h0a2.3,2.3,0,0,1,2.2-1.1c2.1,0,3.2,1.7,3.2,3.6s-1,3.6-3.1,3.6a2.6,2.6,0,0,1-2.2-1.1h0v.9h-1.1Zm3.2,3.4c-1.5,0-2.1,1.3-2.1,2.6s.6,2.6,2.2,2.6,2.1-1.3,2.1-2.6S247.8,413.7,246.3,413.7Z"/><path class="cls-1" d="M294.1,457.3h1.1v3.5h0a2.3,2.3,0,0,1,2.2-1.1c2.1,0,3.2,1.7,3.2,3.6s-1,3.6-3.1,3.6a2.6,2.6,0,0,1-2.2-1.1h0v.9h-1.1Zm3.2,3.4c-1.5,0-2.1,1.3-2.1,2.6s.6,2.6,2.2,2.6,2.1-1.3,2.1-2.6S298.8,460.7,297.3,460.7Z"/><path class="cls-1" d="M336.7,701.5h-135l-1-.7v-38l1-.7h135l1,.7v38Zm-134-1.4h133V663.5h-133Z"/><path class="cls-1" d="M224.2,676.2c0,2.2-1.2,3.3-3.4,3.3s-3.5-1-3.5-3.3v-5.5h1.1v5.5a2.1,2.1,0,0,0,2.4,2.3,2.1,2.1,0,0,0,2.2-2.3v-5.5h1.1Z"/><path class="cls-1" d="M227.3,673.1h1.2v.9h-1.2v3.9c0,.5.1.6.8.6h.5v.9h-.8c-1.1,0-1.5-.2-1.5-1.4V674h-1.1v-.9h1.1v-1.9h1Z"/><path class="cls-1" d="M230.7,672h-1v-1.2h1Zm-1,1.1h1v6.2h-1Z"/><path class="cls-1" d="M232.4,670.7h1v8.6h-1Z"/><path class="cls-1" d="M236.1,672h-1v-1.2h1Zm-1,1.1h1v6.2h-1Z"/><path class="cls-1" d="M237.1,678.5l3.7-4.5h-3.5v-.9h4.8v.7l-3.8,4.6h4v.9h-5.2Z"/><path class="cls-1" d="M248.7,677.3a2.5,2.5,0,0,1-2.7,2.1c-2,0-2.9-1.4-3-3.3a3,3,0,0,1,2.9-3.2c2.2,0,2.9,2.1,2.8,3.6h-4.6a1.8,1.8,0,0,0,1.9,2,1.5,1.5,0,0,0,1.6-1.2Zm-1-1.7a1.8,1.8,0,0,0-1.8-1.8,1.8,1.8,0,0,0-1.8,1.8Z"/><path class="cls-1" d="M254.6,673.1h1.2v.9h-1.2v3.9c0,.5.1.6.8.6h.5v.9H255c-1.1,0-1.5-.2-1.5-1.4V674h-1.1v-.9h1.1v-1.9h1Z"/><path class="cls-1" d="M257,670.7h1V674h0a2.1,2.1,0,0,1,2-1.1c1.6,0,2.1.9,2.1,2.3v4.1h-1v-4.2a1.2,1.2,0,0,0-1.3-1.2,1.7,1.7,0,0,0-1.8,1.9v3.5h-1Z"/><path class="cls-1" d="M268.9,677.3a2.5,2.5,0,0,1-2.7,2.1c-2,0-2.9-1.4-3-3.3a3,3,0,0,1,2.9-3.2c2.2,0,2.9,2.1,2.8,3.6h-4.6a1.8,1.8,0,0,0,1.9,2,1.5,1.5,0,0,0,1.6-1.2Zm-1-1.7a1.8,1.8,0,0,0-1.8-1.8,1.8,1.8,0,0,0-1.8,1.8Z"/><path class="cls-1" d="M276.9,679.3h-1.3l-3-8.6h1.2l2.4,7.4h0l2.5-7.4H280Z"/><path class="cls-1" d="M285.6,679.3l-.7.2c-.5,0-.9-.3-.9-1a2.8,2.8,0,0,1-2.2,1c-1.1,0-2.1-.5-2.1-1.7s1-1.7,2.1-1.9,2.1-.1,2.1-.9-.7-1-1.4-1-1.5.3-1.5,1.2h-1c.1-1.5,1.2-2.1,2.6-2.1s2.3.3,2.3,1.7v3.2c0,.5,0,.7.3.7h.3Zm-1.7-3.2a5.2,5.2,0,0,1-1.8.4c-.7.1-1.2.4-1.2,1.1s.6.9,1.2.9,1.9-.8,1.9-1.4Z"/><path class="cls-1" d="M286.6,670.7h1v8.6h-1Z"/><path class="cls-1" d="M294.3,679.3h-1v-1h0a2.2,2.2,0,0,1-2,1.1c-1.6,0-2.1-.9-2.1-2.3v-4.1h1v4.2a1.2,1.2,0,0,0,1.3,1.2,1.7,1.7,0,0,0,1.8-1.9v-3.5h1Z"/><path class="cls-1" d="M301.2,677.3a2.5,2.5,0,0,1-2.7,2.1c-2,0-2.9-1.4-3-3.3a3,3,0,0,1,2.9-3.2c2.2,0,2.9,2.1,2.8,3.6h-4.6a1.8,1.8,0,0,0,1.9,2,1.5,1.5,0,0,0,1.6-1.2Zm-1-1.7a1.8,1.8,0,0,0-1.8-1.8,1.8,1.8,0,0,0-1.8,1.8Z"/><path class="cls-1" d="M305.8,670.7h3.1a5.1,5.1,0,0,1,2.3.3,2,2,0,0,1,1,1.8,2,2,0,0,1-1.3,1.9h0a2,2,0,0,1,1.6,2.1,2.4,2.4,0,0,1-2.6,2.5h-4.1Zm1.1,3.7h2.3c1.3,0,1.8-.5,1.8-1.4s-.8-1.4-1.8-1.4h-2.3Zm0,3.9h2.9a1.5,1.5,0,0,0,1.6-1.5c0-1.1-.9-1.4-1.9-1.4h-2.6Z"/><path class="cls-1" d="M314.9,672h-1v-1.2h1Zm-1,1.1h1v6.2h-1Z"/><path class="cls-1" d="M316.6,670.7h1v8.6h-1Z"/><path class="cls-1" d="M319.3,670.7h1v8.6h-1Z"/><path class="cls-1" d="M212.6,693.7h-1.1l-1.3-4.9h0l-1.2,4.9h-1.1l-2-6.2H207l1.4,5.1h0l1.2-5.1h1.1l1.3,5.1h0l1.4-5.1h1.1Z"/><path class="cls-1" d="M216.6,686.4h-1v-1.2h1Zm-1,1.1h1v6.2h-1Z"/><path class="cls-1" d="M219.6,687.5h1.2v.9h-1.2v3.9c0,.5.1.6.8.6h.5v.9h-.8c-1.1,0-1.5-.2-1.5-1.4v-3.9h-1.1v-.9h1.1v-1.9h1Z"/><path class="cls-1" d="M222,685.1h1v3.3h0a2.1,2.1,0,0,1,2-1.1c1.6,0,2.1.9,2.1,2.3v4.1h-1v-4.2a1.2,1.2,0,0,0-1.3-1.2,1.7,1.7,0,0,0-1.8,1.9v3.5h-1Z"/><path class="cls-1" d="M229.7,686.4h-1v-1.2h1Zm-1,1.1h1v6.2h-1Z"/><path class="cls-1" d="M231.3,687.5h1v1h0a2.2,2.2,0,0,1,2-1.1c1.6,0,2.1.9,2.1,2.3v4.1h-1v-4.2a1.2,1.2,0,0,0-1.3-1.2,1.7,1.7,0,0,0-1.8,1.9v3.5h-1Z"/><path class="cls-1" d="M247.5,687.7a2.3,2.3,0,0,0-2.4-1.8c-2,0-2.9,1.7-2.9,3.5s.9,3.6,2.9,3.6a2.4,2.4,0,0,0,2.5-2.5h1.1a3.5,3.5,0,0,1-3.7,3.4c-2.7,0-4-2-4-4.5s1.4-4.5,4.1-4.5a3.3,3.3,0,0,1,3.5,2.8Z"/><path class="cls-1" d="M255.1,687.6a1.9,1.9,0,0,0-2.1-1.8c-1,0-1.9.3-1.9,1.5s1.4,1.2,2.7,1.5,2.7.8,2.7,2.5-1.8,2.6-3.3,2.6-3.5-.9-3.5-3h1.1c0,1.4,1.2,2.1,2.5,2.1s2.2-.3,2.2-1.6-1.4-1.4-2.7-1.7-2.7-.7-2.7-2.3,1.5-2.5,3.1-2.5,3.1.8,3.2,2.7Z"/><path class="cls-1" d="M259.9,686.1H257v-1h6.8v1H261v7.6h-1.1Z"/><path class="cls-1" d="M269.1,686.4h-1v-1.2h1Zm-1,1.1h1v6.2h-1Z"/><path class="cls-1" d="M270.6,687.5h1v1h0a2.2,2.2,0,0,1,2-1.1c1.6,0,2.1.9,2.1,2.3v4.1h-1v-4.2a1.2,1.2,0,0,0-1.3-1.2,1.7,1.7,0,0,0-1.8,1.9v3.5h-1Z"/><path class="cls-1" d="M282.1,687.5h1.2v.9h-1.2v3.9c0,.5.1.6.8.6h.5v.9h-.8c-1.1,0-1.5-.2-1.5-1.4v-3.9H280v-.9H281v-1.9h1Z"/><path class="cls-1" d="M290.6,693.7h-1.1l-1.3-4.9h0l-1.2,4.9h-1.1l-2-6.2H285l1.4,5.1h0l1.2-5.1h1.1l1.3,5.1h0l1.4-5.1h1.1Z"/><path class="cls-1" d="M296.2,687.3a3.3,3.3,0,1,1-3,3.3A2.9,2.9,0,0,1,296.2,687.3Zm0,5.6c1.1,0,1.9-.8,1.9-2.3s-.9-2.4-1.9-2.4-1.9.8-1.9,2.4S295.1,692.9,296.2,692.9Z"/><path class="cls-1" d="M306.2,694.5c-.5,1.2-.9,1.7-1.8,1.7h-.7v-.9h.6a.9.9,0,0,0,.8-.6l.4-1.1-2.5-6.2h1.2l1.8,5.1h0l1.7-5.1h1.1Z"/><path class="cls-1" d="M315,691.7a2.5,2.5,0,0,1-2.7,2.1c-2,0-2.9-1.4-3-3.3a3,3,0,0,1,2.9-3.2c2.2,0,2.9,2.1,2.8,3.6h-4.6a1.8,1.8,0,0,0,1.9,2,1.5,1.5,0,0,0,1.6-1.2Zm-1-1.7a1.8,1.8,0,0,0-1.8-1.8,1.8,1.8,0,0,0-1.8,1.8Z"/><path class="cls-1" d="M321.7,693.7l-.7.2c-.5,0-.9-.3-.9-1a2.8,2.8,0,0,1-2.2,1c-1.1,0-2.1-.5-2.1-1.7s1-1.7,2.1-1.9,2.1-.1,2.1-.9-.7-1-1.4-1-1.5.3-1.5,1.2h-1c.1-1.5,1.2-2.1,2.6-2.1s2.3.3,2.3,1.7v3.2c0,.5,0,.7.3.7h.3Zm-1.7-3.2a5.3,5.3,0,0,1-1.8.4c-.7.1-1.2.4-1.2,1.1s.6.9,1.2.9,1.9-.8,1.9-1.4Z"/><path class="cls-1" d="M322.6,687.5h1v1.3h0a2.3,2.3,0,0,1,2.3-1.5v1.1c-1.6,0-2.2.9-2.2,2.5v2.8h-1Z"/><path class="cls-1" d="M327.3,691.7c0,.9.8,1.2,1.7,1.2s1.5-.1,1.5-.9-1-.9-2-1.2-2-.6-2-1.8,1.2-1.8,2.3-1.8,2.5.4,2.5,1.9h-1c-.1-.8-.8-1-1.4-1s-1.3.2-1.3.8,1.1.9,2,1.1,2,.6,2,1.8-1.4,2-2.6,2-2.6-.6-2.6-2.1Z"/></svg>