<svg id="Layer_1" data-name="Layer 1" xmlns="http://www.w3.org/2000/svg" viewBox="0 0 540 415.3"><defs><style>.cls-1{fill:#4057a7}.cls-2{fill:#192530}.cls-11,.cls-3{fill:#5fc8d7}.cls-4{fill:#1d2e5e}.cls-10,.cls-12,.cls-13,.cls-14,.cls-5,.cls-9{fill:none}.cls-13,.cls-14,.cls-5,.cls-6,.cls-9{stroke:#333}.cls-10,.cls-5,.cls-6,.cls-9{stroke-miterlimit:10}.cls-10,.cls-11,.cls-12,.cls-5,.cls-6{stroke-width:2.5px}.cls-6,.cls-8{fill:#2dabe2}.cls-7{fill:#333}.cls-13,.cls-14,.cls-9{stroke-width:2px}.cls-10,.cls-11,.cls-12{stroke:#424242}.cls-11,.cls-12,.cls-13,.cls-14{stroke-linejoin:round}.cls-14{stroke-linecap:round}</style></defs><title>c-105</title><g id="_Group_" data-name="&lt;Group&gt;"><path class="cls-1" d="M415 119.7h.1a13.1 13.1 0 0 1-26.3 0zM435.6 119.7h26.2a13.1 13.1 0 0 1-26.3 0z"/><path class="cls-2" d="M402 133.8a14.2 14.2 0 0 1-14.1-14.1h2a12.2 12.2 0 0 0 24.3 0h.9v-1h.1a1 1 0 0 1 1 1 14.2 14.2 0 0 1-14.2 14.1zM402 88.9h23.3v1.99H402z"/><path class="cls-2" d="M415 120.7h-26.2a1 1 0 0 1-.9-1.4L401 89.5a1 1 0 0 1 1.8 0l13.2 29.8a1 1 0 0 1-.9 1.4zm-24.7-2h23.2l-11.6-26.3zM448.6 133.8a14.2 14.2 0 0 1-14.1-14.1 1 1 0 0 1 1-1h.1v1h.9a12.2 12.2 0 0 0 24.3 0h2a14.2 14.2 0 0 1-14.2 14.1zM425.3 88.9h23.3v1.99h-23.3z"/><path class="cls-2" d="M461.8 120.7h-26.2a1 1 0 0 1-.9-1.4l13.1-29.8a1 1 0 0 1 1.8 0l13.1 29.8a1 1 0 0 1-.9 1.4zm-24.7-2h23.2l-11.6-26.3zM443.8 148.6h-36.5a3.5 3.5 0 0 1-3.5-3.5 3.5 3.5 0 0 1 3.5-3.5H423v2h-15.7a1.5 1.5 0 0 0-1.5 1.5 1.5 1.5 0 0 0 1.5 1.5h36.5a1.5 1.5 0 0 0 0-3H428v-2h15.7a3.5 3.5 0 0 1 0 7z"/><path class="cls-2" d="M428 143.6h-5a1 1 0 0 1-1-1V86a3.5 3.5 0 0 1 7 0v56.6a1 1 0 0 1-1 1zm-4-2h3V86a1.5 1.5 0 0 0-3 0z"/><path class="cls-2" d="M423 93h5v1.99h-5z"/></g><g id="_Group_2" data-name="&lt;Group&gt;"><path class="cls-3" d="M444.2 233v2.5h-9.5v-14.2h9.5V233zM434.7 212.2h9.5v5.13h-9.5zM434.7 203.1h9.5v5.13h-9.5zM420.6 230.4h9.5v5.13h-9.5zM420.6 221.3h9.5v5.12h-9.5zM420.6 212.2h9.5v5.13h-9.5zM420.6 203.1h9.5v5.13h-9.5zM406.4 230.4h9.5v5.13h-9.5zM406.4 221.3h9.5v5.12h-9.5zM406.4 212.2h9.5v5.13h-9.5zM406.4 203.1h9.5v5.13h-9.5z"/><path class="cls-2" d="M446.8 242.9h-42.9a4.7 4.7 0 0 1-4.7-4.7v-62.5a4.7 4.7 0 0 1 4.7-4.7h42.9a4.7 4.7 0 0 1 4.7 4.7v62.4a4.7 4.7 0 0 1-4.7 4.8zM403.9 173a2.7 2.7 0 0 0-2.7 2.7v62.4a2.7 2.7 0 0 0 2.7 2.7h42.9a2.7 2.7 0 0 0 2.7-2.7v-62.4a2.7 2.7 0 0 0-2.7-2.7z"/><path class="cls-2" d="M444.2 190.7h-37.8a1 1 0 0 1-1-1v-11.5a1 1 0 0 1 1-1h37.8a1 1 0 0 1 1 1v11.4a1 1 0 0 1-1 1.1zm-36.8-2h35.8v-9.5h-35.8zM415.9 209.2h-9.5a1 1 0 0 1-1-1v-5.1a1 1 0 0 1 1-1h9.5a1 1 0 0 1 1 1v5.1a1 1 0 0 1-1 1zm-8.5-2h7.5v-3.1h-7.5zM430.1 209.2h-9.5a1 1 0 0 1-1-1v-5.1a1 1 0 0 1 1-1h9.5a1 1 0 0 1 1 1v5.1a1 1 0 0 1-1 1zm-8.5-2h7.5v-3.1h-7.5zM444.2 209.2h-9.5a1 1 0 0 1-1-1v-5.1a1 1 0 0 1 1-1h9.5a1 1 0 0 1 1 1v5.1a1 1 0 0 1-1 1zm-8.5-2h7.5v-3.1h-7.5zM415.9 218.3h-9.5a1 1 0 0 1-1-1v-5.1a1 1 0 0 1 1-1h9.5a1 1 0 0 1 1 1v5.1a1 1 0 0 1-1 1zm-8.5-2h7.5v-3.1h-7.5zM430.1 218.3h-9.5a1 1 0 0 1-1-1v-5.1a1 1 0 0 1 1-1h9.5a1 1 0 0 1 1 1v5.1a1 1 0 0 1-1 1zm-8.5-2h7.5v-3.1h-7.5zM444.2 218.3h-9.5a1 1 0 0 1-1-1v-5.1a1 1 0 0 1 1-1h9.5a1 1 0 0 1 1 1v5.1a1 1 0 0 1-1 1zm-8.5-2h7.5v-3.1h-7.5zM415.9 227.4h-9.5a1 1 0 0 1-1-1v-5.1a1 1 0 0 1 1-1h9.5a1 1 0 0 1 1 1v5.1a1 1 0 0 1-1 1zm-8.5-2h7.5v-3.1h-7.5zM430.1 227.4h-9.5a1 1 0 0 1-1-1v-5.1a1 1 0 0 1 1-1h9.5a1 1 0 0 1 1 1v5.1a1 1 0 0 1-1 1zm-8.5-2h7.5v-3.1h-7.5zM415.9 236.5h-9.5a1 1 0 0 1-1-1v-5.1a1 1 0 0 1 1-1h9.5a1 1 0 0 1 1 1v5.1a1 1 0 0 1-1 1zm-8.5-2h7.5v-3.1h-7.5zM430.1 236.5h-9.5a1 1 0 0 1-1-1v-5.1a1 1 0 0 1 1-1h9.5a1 1 0 0 1 1 1v5.1a1 1 0 0 1-1 1zm-8.5-2h7.5v-3.1h-7.5zM444.2 236.5h-9.5a1 1 0 0 1-1-1v-14.2a1 1 0 0 1 1-1h9.5a1 1 0 0 1 1 1v14.2a1 1 0 0 1-1 1zm-8.5-2h7.5v-12.2h-7.5zM417.5 194h15.6v1.99h-15.6z"/></g><g id="_Group_3" data-name="&lt;Group&gt;"><path class="cls-4" d="M344.9 206v50h-59.4v4.8h-28.9V256h-59.3v-19.6l39.2-19.5 18.1 9.8 35-14 17.1 10 38.2-16.7z"/><path class="cls-2" d="M347.4 256h-5v-93.1H199.8V256h-5v-95.6a2.5 2.5 0 0 1 2.5-2.5h147.6a2.5 2.5 0 0 1 2.5 2.5z"/><path class="cls-2" d="M360.9 256h-5V154.6a5.2 5.2 0 0 0-5.2-5.2H191.5a5.2 5.2 0 0 0-5.2 5.2V256h-5V154.6a10.2 10.2 0 0 1 10.2-10.2h159.2a10.2 10.2 0 0 1 10.2 10.2z"/><path class="cls-2" d="M377.3 274H164.8a2.5 2.5 0 0 1-2-1c-.8-1.2-3.7-5.1-4.2-7.2s-.2-8.2-.1-10a2.5 2.5 0 0 1 2.5-2.3h95.6a2.5 2.5 0 0 1 2.5 2.5v2.3h24V256a2.5 2.5 0 0 1 2.5-2.5h95.6a2.5 2.5 0 0 1 2.5 2.3c.2 1.7.6 7.5-.1 10s-3.4 6-4.2 7.2a2.5 2.5 0 0 1-2.1 1zm-211.2-5H376a26.2 26.2 0 0 0 2.7-4.5 27.8 27.8 0 0 0 .1-5.9H288v2.3a2.5 2.5 0 0 1-2.5 2.5h-29a2.5 2.5 0 0 1-2.5-2.5v-2.3h-90.7a27.9 27.9 0 0 0 .1 5.9 26.1 26.1 0 0 0 2.7 4.5zM198.4 238.7l-2.3-4.5 39.3-19.6a2.5 2.5 0 0 1 2.3 0l17 9.3 34-13.6a2.5 2.5 0 0 1 2.2.2l15.9 9.4 37-16.2 2.2 4.5h-.2L307.7 225a2.5 2.5 0 0 1-2.3-.1l-15.9-9.4-34 13.5a2.5 2.5 0 0 1-2.1-.1l-16.9-9.2zM215.1 174.8h42.6v5.01h-42.6zM215.1 185.6h24.2v5.01h-24.2z"/></g><path class="cls-5" d="M111 230l-9.1 25.1-5.8-9.3-10.9 3.2 8.6-23.7M112.6 229.5l9.3 25.6 5.8-9.3 11 3.2-8.3-22.6"/><path class="cls-6" d="M138.3 215.2l-2.4-7 4-6.2-5.4-5.1.7-7.3-7.1-2-2.8-6.8-7.2 1.5-5.7-4.7-5.6 4.7-7.2-1.5-2.8 6.8-7.1 2 .7 7.3-5.4 5.2 4 6.2-2.4 7 6.4 3.6 1.1 7.3 7.4.2 4.4 6 6.6-3.3 6.6 3.3 4.4-6 7.4-.2 1.1-7.3zm-42.7-9.4a16.8 16.8 0 1 1 16.8 16.8 16.8 16.8 0 0 1-16.9-16.8z"/><path class="cls-7" d="M100 144.1h31.9v1.7H100z"/><path class="cls-1" d="M103 98.2a2.2 2.2 0 0 0-2.2-1.8c-2 0-2.7 1.7-2.7 3.4s.7 3.4 2.7 3.4a2.3 2.3 0 0 0 2.3-2.2h2.1a4.2 4.2 0 0 1-4.4 4.1c-3.1 0-4.9-2.3-4.9-5.2s1.8-5.3 4.9-5.3a4.1 4.1 0 0 1 4.3 3.6zM106.7 94.8h7.5v1.9h-5.3v2.1h4.9v1.7h-4.9v2.5h5.4v1.9h-7.6zM115.8 94.8h5.4a2.8 2.8 0 0 1 2.9 2.8 2.5 2.5 0 0 1-1.6 2.5c1.1.3 1.4 1.3 1.5 2.3a5.5 5.5 0 0 0 .4 2.4h-2.2a11.1 11.1 0 0 1-.4-2.4c-.2-1.1-.6-1.5-1.7-1.5H118v3.9h-2.2zm2.2 4.5h2.4c1 0 1.5-.4 1.5-1.4s-.5-1.4-1.5-1.4H118zM97.5 119.1a2.3 2.3 0 0 0-.9-.8l-1.6-.5v-1.3h.2a1.2 1.2 0 0 1 .4.7h2.1a2.2 2.2 0 0 0-.9-1.6 3.4 3.4 0 0 0-1.7-.5V114h-1v1l-1.3.3a2.2 2.2 0 0 0-1 .8 1.9 1.9 0 0 0-.3 1.1 1.8 1.8 0 0 0 .6 1.4 4.8 4.8 0 0 0 2 .9v1.8l-.5-.4a1.7 1.7 0 0 1-.3-.8H91a2.9 2.9 0 0 0 .8 1.8 3.2 3.2 0 0 0 2.1.7v1.1h1v-1.1l1.4-.3a2.5 2.5 0 0 0 1.1-.9 2.3 2.3 0 0 0 .4-1.3 2.1 2.1 0 0 0-.3-1zm-3.9-1.8a.5.5 0 0 1-.2-.4.6.6 0 0 1 .2-.5l.3-.2v1.2zm1.8 3.8l-.5.2v-1.6l.5.2a.8.8 0 0 1 .3.6.8.8 0 0 1-.4.6zM97.5 132.4a2.3 2.3 0 0 0-.9-.8l-1.6-.5v-1.3h.2a1.2 1.2 0 0 1 .4.7h2.1a2.2 2.2 0 0 0-.9-1.6 3.4 3.4 0 0 0-1.7-.5v-1.1h-1v1.1l-1.3.3a2.2 2.2 0 0 0-1 .8 1.9 1.9 0 0 0-.3 1.1 1.8 1.8 0 0 0 .6 1.4 4.8 4.8 0 0 0 2 .9v1.8l-.5-.4a1.7 1.7 0 0 1-.3-.8H91a2.9 2.9 0 0 0 .8 1.8 3.2 3.2 0 0 0 2.1.7v1.1h1V136l1.4-.3a2.5 2.5 0 0 0 1.1-.9 2.3 2.3 0 0 0 .4-1.3 2.1 2.1 0 0 0-.3-1.1zm-3.9-1.8a.5.5 0 0 1-.2-.4.6.6 0 0 1 .2-.5l.3-.2v1.2zm1.8 3.8l-.5.2V133l.5.2a.8.8 0 0 1 .3.6.8.8 0 0 1-.4.6zM97.5 145.7a2.3 2.3 0 0 0-.9-.8l-1.6-.5V143h.2a1.2 1.2 0 0 1 .4.7h2.1a2.2 2.2 0 0 0-.9-1.6 3.4 3.4 0 0 0-1.7-.5v-1.1h-1v1.1l-1.3.3a2.2 2.2 0 0 0-1 .8 1.9 1.9 0 0 0-.3 1.1 1.8 1.8 0 0 0 .6 1.4 4.8 4.8 0 0 0 2 .9v1.8l-.5-.4a1.7 1.7 0 0 1-.3-.8H91a2.9 2.9 0 0 0 .8 1.8 3.2 3.2 0 0 0 2.1.7v1.1h1v-1.1l1.4-.3a2.5 2.5 0 0 0 1.1-.9 2.3 2.3 0 0 0 .4-1.3 2.1 2.1 0 0 0-.3-1zm-3.9-1.8a.5.5 0 0 1-.2-.4.6.6 0 0 1 .2-.5l.3-.2v1.2zm1.8 3.8l-.5.2v-1.6l.5.2a.8.8 0 0 1 .3.6.8.8 0 0 1-.4.6z"/><path class="cls-7" d="M100 117.7h31.9v1.7H100zM100 130.9h31.9v1.7H100z"/><path class="cls-8" d="M141.8 93.5l-13.2-12.8v12.8h13.2z"/><path class="cls-9" d="M128.1 81v11.7a1.1 1.1 0 0 0 1.1 1.1h11.7"/><path class="cls-5" d="M129.4 81l11.7 11.7a1.1 1.1 0 0 1 .3.8v66.1a1.1 1.1 0 0 1-1.1 1.1H84a1.1 1.1 0 0 1-1.1-1.1V81.8a1.1 1.1 0 0 1 1.1-1.1h44.6a1.1 1.1 0 0 1 .8.3z"/><path class="cls-10" d="M425.3 265.1a33.1 33.1 0 1 0 33.1 33.1 33.2 33.2 0 0 0-33.1-33.1z"/><path class="cls-10" d="M424.9 276.1a22.2 22.2 0 1 0 22.2 22.2 22.2 22.2 0 0 0-22.2-22.2zM424.9 277.3v4.5M424.9 315.3v4.5M446.5 298.3H442M408.5 298.3H404"/><circle class="cls-11" cx="424.9" cy="298.3" r="4.2" transform="rotate(-45 424.866 298.315)"/><path class="cls-12" d="M420.4 297.6l-8.4 12.5 13.3-7.5M428.6 299l7.3-11.4-12.2 6.4"/><path class="cls-13" d="M118.8 317.6a4.2 4.2 0 0 0 4.3-4.1v-12.1a3.6 3.6 0 0 0-2.6-3.4l-2.8-.9-5.3 5.1-5.3-5.1-2.8.9a3.6 3.6 0 0 0-2.6 3.4v12.1a4.2 4.2 0 0 0 4.3 4.1"/><ellipse class="cls-14" cx="112.4" cy="289.9" rx="5.3" ry="5.1"/><path class="cls-14" d="M118.8 305.3v30.8H106v-30.8M112.4 317.6v18.5"/><path class="cls-13" d="M123.3 310.1a4.4 4.4 0 0 0 2 .5M138.1 310.5a4.2 4.2 0 0 0 4.3-4.1v-12.1a3.6 3.6 0 0 0-2.6-3.4l-2.8-.9-5.3 5.1-5.3-5.1-2.8.9a3.6 3.6 0 0 0-2.6 3.4v4.3"/><ellipse class="cls-14" cx="131.7" cy="282.8" rx="5.3" ry="5.1"/><path class="cls-14" d="M138.1 298.2V329h-12.8v-30.8M131.7 310.5V329"/><path class="cls-13" d="M103.8 298.7V295a3.6 3.6 0 0 0-2.6-3.4l-2.8-.9-5.3 5.1-5.3-5.1-2.8.9a3.6 3.6 0 0 0-2.6 3.4v12.1a4.2 4.2 0 0 0 4.3 4.1M99.5 311.2a2.9 2.9 0 0 0 2.3-1.1"/><ellipse class="cls-14" cx="93.1" cy="283.4" rx="5.3" ry="5.1"/><path class="cls-14" d="M99.5 298.8v30.9H86.7v-30.9M93.1 311.2v18.5"/></svg>