<svg xmlns="http://www.w3.org/2000/svg" viewBox="0 0 900 350"><path d="M545.158 106.861H184.611c-6.6 0-12-5.4-12-12V65.628c0-6.6 5.4-12 12-12h360.547c6.6 0 12 5.4 12 12v29.233c0 6.6-5.4 12-12 12zm51.171 79.605H235.783c-6.6 0-12-5.4-12-12v-29.233c0-6.6 5.4-12 12-12H596.33c6.6 0 12 5.4 12 12v29.233c-.001 6.6-5.401 12-12.001 12zM680 295.372H286.954c-6.6 0-12-5.4-12-12v-58.536c0-6.6 5.4-12 12-12H680c6.6 0 12 5.4 12 12v58.536c0 6.6-5.4 12-12 12z" fill="#2cabe2"/><path d="M190.597 62.081h2.395l4.952 12.856h-2.413l-1.206-3.403h-5.132l-1.206 3.403h-2.323l4.933-12.856zm-.792 7.743h3.925l-1.927-5.528h-.054l-1.944 5.528zm17.84 5.113H205.7v-1.26h-.036c-.54 1.062-1.71 1.512-2.881 1.512-2.935 0-4.357-2.179-4.357-4.969 0-3.367 1.999-4.844 4.033-4.844 1.17 0 2.466.432 3.097 1.458h.036v-4.753h2.053v12.856zm-4.592-1.368c1.836 0 2.61-1.675 2.61-3.295 0-2.052-.99-3.277-2.575-3.277-1.926 0-2.611 1.71-2.611 3.385.001 1.602.794 3.187 2.576 3.187zm6.821-11.488h2.053v4.771h.036c.504-.846 1.566-1.477 2.791-1.477 2.017 0 3.295 1.081 3.295 3.169v6.392h-2.053v-5.852c-.036-1.458-.612-2.089-1.818-2.089-1.369 0-2.251 1.081-2.251 2.449v5.492h-2.053V62.081zm11.934 8.733c0 1.458.792 2.755 2.503 2.755 1.188 0 1.909-.522 2.269-1.549h1.945c-.45 2.035-2.179 3.169-4.213 3.169-2.917 0-4.555-2.035-4.555-4.897 0-2.646 1.729-4.916 4.501-4.916 2.935 0 4.736 2.647 4.394 5.438h-6.844zm4.79-1.351c-.072-1.296-.954-2.467-2.341-2.467-1.422 0-2.395 1.081-2.449 2.467h4.79zm3.615-3.835h1.927v1.8h.036c.234-.99 1.458-2.053 2.719-2.053.468 0 .594.036.774.054v1.98c-.288-.036-.594-.09-.882-.09-1.405 0-2.521 1.134-2.521 3.187v4.429h-2.053v-9.307zm7.615 5.186c0 1.458.792 2.755 2.503 2.755 1.188 0 1.909-.522 2.269-1.549h1.945c-.45 2.035-2.179 3.169-4.213 3.169-2.917 0-4.555-2.035-4.555-4.897 0-2.646 1.729-4.916 4.501-4.916 2.935 0 4.735 2.647 4.394 5.438h-6.844zm4.79-1.351c-.072-1.296-.954-2.467-2.341-2.467-1.422 0-2.395 1.081-2.449 2.467h4.79zm7.683-3.835h1.548v-2.791h2.053v2.791h1.854v1.53h-1.854v4.97c0 .846.072 1.278.99 1.278.288 0 .576 0 .864-.072v1.584c-.45.036-.882.108-1.333.108-2.143 0-2.539-.828-2.575-2.376v-5.492H250.3v-1.53zm6.498 4.645c0-2.845 1.71-4.897 4.699-4.897s4.699 2.053 4.699 4.897c0 2.863-1.71 4.916-4.699 4.916s-4.699-2.053-4.699-4.916zm7.346 0c0-1.602-.81-3.277-2.646-3.277s-2.647 1.675-2.647 3.277c0 1.621.811 3.295 2.647 3.295s2.646-1.674 2.646-3.295zm7.828-4.645h1.548v-2.791h2.053v2.791h1.854v1.53h-1.854v4.97c0 .846.072 1.278.99 1.278.288 0 .576 0 .864-.072v1.584c-.45.036-.882.108-1.333.108-2.143 0-2.539-.828-2.575-2.376v-5.492h-1.548v-1.53zm6.93-3.547h2.052v4.771h.036c.504-.846 1.566-1.477 2.791-1.477 2.017 0 3.295 1.081 3.295 3.169v6.392h-2.053v-5.852c-.036-1.458-.612-2.089-1.818-2.089-1.369 0-2.251 1.081-2.251 2.449v5.492h-2.052V62.081zm11.934 8.733c0 1.458.792 2.755 2.503 2.755 1.188 0 1.909-.522 2.269-1.549h1.945c-.45 2.035-2.179 3.169-4.213 3.169-2.917 0-4.555-2.035-4.555-4.897 0-2.646 1.729-4.916 4.501-4.916 2.935 0 4.735 2.647 4.394 5.438h-6.844zm4.789-1.351c-.072-1.296-.954-2.467-2.341-2.467-1.422 0-2.395 1.081-2.449 2.467h4.79zm8.621-7.382h2.052v4.771h.036c.504-.846 1.566-1.477 2.791-1.477 2.017 0 3.295 1.081 3.295 3.169v6.392h-2.053v-5.852c-.036-1.458-.612-2.089-1.818-2.089-1.369 0-2.251 1.081-2.251 2.449v5.492h-2.052V62.081zm10.385 0h2.053v1.945h-2.053v-1.945zm0 3.547h2.053v9.309h-2.053v-9.309zm12.891 8.823c0 2.791-1.639 4.177-4.573 4.177-1.873 0-3.979-.72-4.16-2.899h2.053c.252 1.17 1.188 1.369 2.233 1.369 1.656 0 2.395-.846 2.395-2.376v-1.423h-.036a3.188 3.188 0 0 1-2.791 1.639c-2.953 0-4.177-2.232-4.177-4.897 0-2.503 1.566-4.664 4.213-4.664 1.17 0 2.233.486 2.755 1.531h.036V65.63h2.053v8.821zm-2.053-4.375c0-1.603-.72-3.079-2.503-3.079-1.818 0-2.449 1.692-2.449 3.241 0 1.53.738 3.079 2.449 3.079 1.819-.001 2.503-1.657 2.503-3.241zm4.12-7.995h2.052v4.771h.036c.504-.846 1.566-1.477 2.791-1.477 2.017 0 3.295 1.081 3.295 3.169v6.392h-2.053v-5.852c-.036-1.458-.612-2.089-1.818-2.089-1.369 0-2.251 1.081-2.251 2.449v5.492h-2.052V62.081zm11.934 8.733c0 1.458.792 2.755 2.503 2.755 1.188 0 1.909-.522 2.269-1.549h1.945c-.45 2.035-2.179 3.169-4.213 3.169-2.917 0-4.555-2.035-4.555-4.897 0-2.646 1.729-4.916 4.501-4.916 2.935 0 4.735 2.647 4.394 5.438h-6.844zm4.79-1.351c-.072-1.296-.954-2.467-2.341-2.467-1.422 0-2.395 1.081-2.449 2.467h4.79zm5.165 2.485c.108 1.188 1.008 1.621 2.106 1.621.774 0 2.125-.162 2.071-1.225-.054-1.08-1.549-1.207-3.043-1.548-1.513-.324-2.989-.864-2.989-2.755 0-2.035 2.196-2.665 3.889-2.665 1.908 0 3.637.792 3.889 2.863h-2.143c-.18-.972-.99-1.242-1.89-1.242-.594 0-1.693.144-1.693.954 0 1.009 1.513 1.152 3.025 1.495 1.495.342 3.007.882 3.007 2.719 0 2.215-2.233 3.025-4.16 3.025-2.34 0-4.087-1.044-4.123-3.241h2.054zm6.856-6.32h1.548v-2.791h2.053v2.791h1.854v1.53h-1.854v4.97c0 .846.072 1.278.99 1.278.288 0 .576 0 .864-.072v1.584c-.45.036-.882.108-1.333.108-2.143 0-2.539-.828-2.575-2.376v-5.492h-1.548v-1.53zm-171.411 21.6h1.945v1.26h.036c.576-1.063 1.693-1.513 2.881-1.513 2.935 0 4.357 2.233 4.357 4.952 0 2.503-1.26 4.861-4.015 4.861-1.188 0-2.467-.432-3.115-1.458h-.036v4.646h-2.053V87.228zm4.591 1.368c-1.729 0-2.611 1.314-2.611 3.295 0 1.873.955 3.277 2.611 3.277 1.873 0 2.575-1.657 2.575-3.277 0-1.692-.882-3.295-2.575-3.295zm6.353-1.368h1.927v1.8h.036c.234-.99 1.458-2.053 2.719-2.053.468 0 .594.036.774.054v1.98c-.288-.036-.594-.09-.882-.09-1.405 0-2.521 1.134-2.521 3.187v4.429h-2.053v-9.307zm5.58 4.645c0-2.845 1.711-4.897 4.7-4.897s4.699 2.053 4.699 4.897c0 2.863-1.71 4.916-4.699 4.916s-4.7-2.053-4.7-4.916zm7.346 0c0-1.602-.811-3.277-2.647-3.277s-2.647 1.675-2.647 3.277c0 1.621.811 3.295 2.647 3.295s2.647-1.674 2.647-3.295zm2.842-4.645h1.53v-.774c0-2.377 1.243-2.773 2.575-2.773.648 0 1.117.036 1.44.126v1.603a3.48 3.48 0 0 0-.954-.108c-.558 0-1.008.198-1.008.972v.955h1.747v1.53h-1.747v7.778h-2.053v-7.778h-1.53v-1.531zm8.19 5.186c0 1.458.792 2.755 2.503 2.755 1.188 0 1.909-.522 2.269-1.549h1.945c-.45 2.035-2.179 3.169-4.213 3.169-2.917 0-4.555-2.035-4.555-4.897 0-2.646 1.729-4.916 4.501-4.916 2.935 0 4.735 2.647 4.394 5.438h-6.844zm4.79-1.351c-.072-1.296-.954-2.467-2.341-2.467-1.422 0-2.395 1.081-2.449 2.467h4.79zm5.164 2.485c.108 1.188 1.008 1.621 2.106 1.621.774 0 2.125-.162 2.071-1.225-.054-1.08-1.549-1.207-3.043-1.548-1.513-.324-2.989-.864-2.989-2.755 0-2.035 2.196-2.665 3.889-2.665 1.908 0 3.637.792 3.889 2.863h-2.143c-.18-.972-.99-1.242-1.89-1.242-.594 0-1.693.144-1.693.954 0 1.009 1.513 1.152 3.025 1.495 1.495.342 3.007.882 3.007 2.719 0 2.215-2.233 3.025-4.16 3.025-2.34 0-4.087-1.044-4.123-3.241h2.054zm9.342 0c.108 1.188 1.008 1.621 2.106 1.621.774 0 2.125-.162 2.071-1.225-.054-1.08-1.549-1.207-3.043-1.548-1.513-.324-2.989-.864-2.989-2.755 0-2.035 2.196-2.665 3.889-2.665 1.908 0 3.637.792 3.889 2.863h-2.143c-.18-.972-.99-1.242-1.89-1.242-.594 0-1.693.144-1.693.954 0 1.009 1.513 1.152 3.025 1.495 1.495.342 3.007.882 3.007 2.719 0 2.215-2.233 3.025-4.16 3.025-2.34 0-4.087-1.044-4.123-3.241h2.054zm7.847-9.867h2.053v1.945h-2.053v-1.945zm0 3.547h2.053v9.309h-2.053v-9.309zm3.852 4.645c0-2.845 1.711-4.897 4.7-4.897s4.699 2.053 4.699 4.897c0 2.863-1.71 4.916-4.699 4.916s-4.7-2.053-4.7-4.916zm7.346 0c0-1.602-.811-3.277-2.647-3.277s-2.647 1.675-2.647 3.277c0 1.621.811 3.295 2.647 3.295s2.647-1.674 2.647-3.295zm3.76-4.645h1.944v1.368l.036.036a3.334 3.334 0 0 1 2.899-1.657c2.017 0 3.295 1.081 3.295 3.169v6.392h-2.053v-5.852c-.036-1.458-.612-2.089-1.818-2.089-1.369 0-2.251 1.081-2.251 2.449v5.492h-2.052v-9.308zm18.128 7.238c0 .504.108.703.486.703.126 0 .288 0 .504-.036v1.422c-.306.108-.954.234-1.296.234-.829 0-1.423-.288-1.585-1.134-.81.792-2.125 1.134-3.223 1.134-1.675 0-3.187-.9-3.187-2.719 0-2.323 1.854-2.701 3.583-2.899 1.477-.27 2.791-.108 2.791-1.314 0-1.062-1.099-1.26-1.927-1.26-1.152 0-1.962.468-2.053 1.477h-2.052c.144-2.395 2.179-3.097 4.231-3.097 1.819 0 3.727.738 3.727 2.701v4.788zm-2.052-2.593c-.63.415-1.621.396-2.521.558-.882.145-1.674.468-1.674 1.549 0 .918 1.17 1.188 1.891 1.188.9 0 2.305-.468 2.305-1.765v-1.53zm4.318-8.192h2.053v12.856h-2.053V83.681zm10.836 9.867c.108 1.188 1.008 1.621 2.106 1.621.774 0 2.125-.162 2.071-1.225-.054-1.08-1.549-1.207-3.043-1.548-1.513-.324-2.989-.864-2.989-2.755 0-2.035 2.196-2.665 3.889-2.665 1.908 0 3.637.792 3.889 2.863h-2.143c-.18-.972-.99-1.242-1.89-1.242-.594 0-1.693.144-1.693.954 0 1.009 1.513 1.152 3.025 1.495 1.495.342 3.007.882 3.007 2.719 0 2.215-2.233 3.025-4.16 3.025-2.34 0-4.087-1.044-4.123-3.241h2.054zm6.857-6.32h1.548v-2.791h2.053v2.791h1.854v1.53h-1.854v4.97c0 .846.072 1.278.99 1.278.288 0 .576 0 .864-.072v1.584c-.45.036-.882.108-1.333.108-2.143 0-2.539-.828-2.575-2.376v-5.492h-1.548v-1.53zm14.726 7.238c0 .504.108.703.486.703.126 0 .288 0 .504-.036v1.422c-.306.108-.955.234-1.297.234-.828 0-1.422-.288-1.584-1.134-.811.792-2.125 1.134-3.223 1.134-1.674 0-3.187-.9-3.187-2.719 0-2.323 1.854-2.701 3.583-2.899 1.477-.27 2.791-.108 2.791-1.314 0-1.062-1.099-1.26-1.927-1.26-1.152 0-1.962.468-2.053 1.477h-2.052c.144-2.395 2.178-3.097 4.231-3.097 1.819 0 3.727.738 3.727 2.701v4.788zm-2.052-2.593c-.63.415-1.621.396-2.521.558-.882.145-1.674.468-1.674 1.549 0 .918 1.17 1.188 1.891 1.188.9 0 2.305-.468 2.305-1.765v-1.53zm4.264-4.645h1.945v1.368l.036.036a3.334 3.334 0 0 1 2.899-1.657c2.017 0 3.295 1.081 3.295 3.169v6.392h-2.053v-5.852c-.036-1.458-.612-2.089-1.818-2.089-1.369 0-2.251 1.081-2.251 2.449v5.492h-2.053v-9.308zm19.101 9.309h-1.945v-1.26h-.036c-.54 1.062-1.71 1.512-2.881 1.512-2.935 0-4.357-2.179-4.357-4.969 0-3.367 1.999-4.844 4.033-4.844 1.17 0 2.466.432 3.097 1.458H336v-4.753h2.053v12.856zm-4.592-1.369c1.836 0 2.61-1.675 2.61-3.295 0-2.052-.99-3.277-2.575-3.277-1.926 0-2.611 1.71-2.611 3.385.001 1.602.794 3.187 2.576 3.187zm14.617-.702c0 .504.108.703.486.703.126 0 .288 0 .504-.036v1.422c-.306.108-.955.234-1.297.234-.828 0-1.422-.288-1.584-1.134-.811.792-2.125 1.134-3.223 1.134-1.674 0-3.187-.9-3.187-2.719 0-2.323 1.854-2.701 3.583-2.899 1.477-.27 2.791-.108 2.791-1.314 0-1.062-1.099-1.26-1.927-1.26-1.152 0-1.962.468-2.053 1.477h-2.052c.144-2.395 2.178-3.097 4.231-3.097 1.819 0 3.727.738 3.727 2.701v4.788zm-2.052-2.593c-.63.415-1.621.396-2.521.558-.882.145-1.674.468-1.674 1.549 0 .918 1.17 1.188 1.891 1.188.9 0 2.305-.468 2.305-1.765v-1.53zm4.264-4.645h1.927v1.8h.036c.234-.99 1.458-2.053 2.719-2.053.468 0 .594.036.774.054v1.98c-.288-.036-.594-.09-.882-.09-1.405 0-2.521 1.134-2.521 3.187v4.429h-2.053v-9.307zm14.781 9.309h-1.945v-1.26h-.036c-.54 1.062-1.71 1.512-2.881 1.512-2.935 0-4.357-2.179-4.357-4.969 0-3.367 1.999-4.844 4.033-4.844 1.17 0 2.467.432 3.097 1.458h.036v-4.753h2.053v12.856zm-4.592-1.369c1.837 0 2.611-1.675 2.611-3.295 0-2.052-.99-3.277-2.575-3.277-1.926 0-2.611 1.71-2.611 3.385 0 1.602.793 3.187 2.575 3.187zm8.37-1.62c.108 1.188 1.008 1.621 2.106 1.621.774 0 2.125-.162 2.071-1.225-.054-1.08-1.549-1.207-3.043-1.548-1.513-.324-2.989-.864-2.989-2.755 0-2.035 2.196-2.665 3.889-2.665 1.908 0 3.637.792 3.889 2.863h-2.143c-.18-.972-.99-1.242-1.89-1.242-.594 0-1.693.144-1.693.954 0 1.009 1.513 1.152 3.025 1.495 1.495.342 3.007.882 3.007 2.719 0 2.215-2.233 3.025-4.16 3.025-2.34 0-4.087-1.044-4.123-3.241h2.054zm7.955.558h2.503v2.431h-2.503v-2.431zm5.004 0h2.503v2.431h-2.503v-2.431zm5.004 0h2.503v2.431h-2.503v-2.431z" fill="#fff"/><g fill="#fff"><path d="M241.65 141.607h6.248c2.305 0 3.817 1.044 3.817 3.187 0 1.296-.667 2.233-1.837 2.737v.036c1.567.342 2.413 1.566 2.413 3.313 0 2.017-1.405 3.583-4.736 3.583h-5.905v-12.856zm2.25 5.384h3.673c1.081 0 1.891-.63 1.891-1.783 0-1.296-.666-1.765-1.891-1.765H243.9v3.548zm0 5.636h3.979c1.369 0 2.161-.738 2.161-2.035 0-1.26-.792-1.98-2.161-1.98H243.9v4.015zm9.107-7.472h2.25l2.431 6.95h.036l2.359-6.95h2.143l-3.619 9.813c-.667 1.675-1.152 3.187-3.295 3.187-.486 0-.955-.036-1.423-.108v-1.729c.324.054.648.126.973.126.954 0 1.188-.504 1.44-1.296l.234-.72-3.529-9.273zm15.372 0h1.944v1.296h.054c.612-.918 1.386-1.549 2.863-1.549 1.134 0 2.196.486 2.611 1.549.684-.955 1.566-1.549 2.917-1.549 1.963 0 3.115.864 3.115 3.133v6.428h-2.053v-5.438c0-1.477-.09-2.503-1.692-2.503-1.387 0-1.98.918-1.98 2.485v5.456h-2.053v-5.978c0-1.279-.396-1.963-1.639-1.963-1.063 0-2.035.864-2.035 2.413v5.528h-2.052v-9.308zm23.456 7.238c0 .504.108.703.486.703.126 0 .288 0 .504-.036v1.422c-.306.108-.955.234-1.297.234-.828 0-1.422-.288-1.584-1.134-.811.792-2.125 1.134-3.223 1.134-1.674 0-3.187-.9-3.187-2.719 0-2.323 1.854-2.701 3.583-2.899 1.477-.27 2.791-.108 2.791-1.314 0-1.062-1.099-1.26-1.927-1.26-1.152 0-1.962.468-2.053 1.477h-2.052c.144-2.395 2.178-3.097 4.231-3.097 1.819 0 3.727.738 3.727 2.701v4.788zm-2.052-2.593c-.63.415-1.621.396-2.521.558-.882.145-1.674.468-1.674 1.549 0 .918 1.17 1.188 1.891 1.188.9 0 2.305-.468 2.305-1.765v-1.53zm4.263-4.645h1.945v1.368l.036.036a3.334 3.334 0 0 1 2.899-1.657c2.017 0 3.295 1.081 3.295 3.169v6.392h-2.053v-5.852c-.036-1.458-.612-2.089-1.818-2.089-1.369 0-2.251 1.081-2.251 2.449v5.492h-2.053v-9.308zm18.129 7.238c0 .504.108.703.486.703.126 0 .288 0 .504-.036v1.422c-.306.108-.955.234-1.297.234-.828 0-1.422-.288-1.584-1.134-.811.792-2.125 1.134-3.223 1.134-1.674 0-3.187-.9-3.187-2.719 0-2.323 1.854-2.701 3.583-2.899 1.477-.27 2.791-.108 2.791-1.314 0-1.062-1.099-1.26-1.927-1.26-1.152 0-1.962.468-2.053 1.477h-2.052c.144-2.395 2.178-3.097 4.231-3.097 1.819 0 3.727.738 3.727 2.701v4.788zm-2.052-2.593c-.63.415-1.621.396-2.521.558-.882.145-1.674.468-1.674 1.549 0 .918 1.17 1.188 1.891 1.188.9 0 2.305-.468 2.305-1.765v-1.53zm12.87 4.177c0 2.791-1.639 4.177-4.574 4.177-1.872 0-3.979-.72-4.159-2.899h2.053c.252 1.17 1.188 1.369 2.233 1.369 1.656 0 2.395-.846 2.395-2.376v-1.423h-.036a3.188 3.188 0 0 1-2.791 1.639c-2.953 0-4.177-2.232-4.177-4.897 0-2.503 1.566-4.664 4.213-4.664 1.17 0 2.233.486 2.755 1.531h.036v-1.278h2.053v8.821zm-2.053-4.375c0-1.603-.72-3.079-2.503-3.079-1.818 0-2.449 1.692-2.449 3.241 0 1.53.738 3.079 2.449 3.079 1.819 0 2.503-1.656 2.503-3.241zm4.174-7.995h2.053v1.945h-2.053v-1.945zm0 3.548h2.053v9.309h-2.053v-9.309zm4.284 0h1.945v1.368l.036.036a3.334 3.334 0 0 1 2.899-1.657c2.017 0 3.295 1.081 3.295 3.169v6.392h-2.053v-5.852c-.036-1.458-.612-2.089-1.818-2.089-1.369 0-2.251 1.081-2.251 2.449v5.492h-2.053v-9.308zm18.939 8.822c0 2.791-1.639 4.177-4.574 4.177-1.872 0-3.979-.72-4.159-2.899h2.053c.252 1.17 1.188 1.369 2.233 1.369 1.656 0 2.395-.846 2.395-2.376v-1.423h-.036a3.188 3.188 0 0 1-2.791 1.639c-2.953 0-4.177-2.232-4.177-4.897 0-2.503 1.566-4.664 4.213-4.664 1.17 0 2.233.486 2.755 1.531h.036v-1.278h2.053v8.821zm-2.053-4.375c0-1.603-.72-3.079-2.503-3.079-1.818 0-2.449 1.692-2.449 3.241 0 1.53.738 3.079 2.449 3.079 1.819 0 2.503-1.656 2.503-3.241zm15.408-1.332c-.162-1.134-.99-1.747-2.125-1.747-1.063 0-2.557.558-2.557 3.385 0 1.548.685 3.187 2.467 3.187 1.188 0 2.017-.792 2.215-2.125h2.053c-.378 2.413-1.873 3.745-4.268 3.745-2.917 0-4.519-2.07-4.519-4.807 0-2.809 1.53-5.006 4.591-5.006 2.161 0 3.997 1.081 4.195 3.367h-2.052zm3.778-6.663h2.053v12.856h-2.053v-12.856zm4.338 0h2.053v1.945h-2.053v-1.945zm0 3.548h2.053v9.309h-2.053v-9.309zm5.886 5.185c0 1.458.792 2.755 2.503 2.755 1.188 0 1.909-.522 2.269-1.549h1.945c-.45 2.035-2.179 3.169-4.213 3.169-2.917 0-4.555-2.035-4.555-4.897 0-2.646 1.729-4.916 4.501-4.916 2.935 0 4.736 2.647 4.394 5.438h-6.844zm4.789-1.35c-.072-1.296-.954-2.467-2.341-2.467-1.422 0-2.395 1.081-2.449 2.467h4.79zm3.616-3.835h1.945v1.368l.036.036a3.334 3.334 0 0 1 2.899-1.657c2.017 0 3.295 1.081 3.295 3.169v6.392h-2.053v-5.852c-.036-1.458-.612-2.089-1.818-2.089-1.369 0-2.251 1.081-2.251 2.449v5.492h-2.053v-9.308zm9.396 0h1.548v-2.791h2.053v2.791h1.854v1.53h-1.854v4.97c0 .846.072 1.278.99 1.278.288 0 .576 0 .864-.072v1.584c-.45.036-.882.108-1.333.108-2.143 0-2.539-.828-2.575-2.376v-5.492h-1.548v-1.53zm19.73 7.238c0 .504.108.703.486.703.126 0 .288 0 .504-.036v1.422c-.306.108-.954.234-1.296.234-.829 0-1.423-.288-1.585-1.134-.81.792-2.125 1.134-3.223 1.134-1.675 0-3.187-.9-3.187-2.719 0-2.323 1.854-2.701 3.583-2.899 1.477-.27 2.791-.108 2.791-1.314 0-1.062-1.099-1.26-1.927-1.26-1.152 0-1.962.468-2.053 1.477h-2.052c.144-2.395 2.179-3.097 4.231-3.097 1.819 0 3.727.738 3.727 2.701v4.788zm-2.052-2.593c-.63.415-1.621.396-2.521.558-.882.145-1.674.468-1.674 1.549 0 .918 1.17 1.188 1.891 1.188.9 0 2.305-.468 2.305-1.765v-1.53zm4.264-4.645h1.944v1.368l.036.036a3.334 3.334 0 0 1 2.899-1.657c2.017 0 3.295 1.081 3.295 3.169v6.392h-2.053v-5.852c-.036-1.458-.612-2.089-1.818-2.089-1.369 0-2.251 1.081-2.251 2.449v5.492h-2.052v-9.308zm19.101 9.308h-1.945v-1.26h-.036c-.54 1.062-1.71 1.512-2.881 1.512-2.935 0-4.357-2.179-4.357-4.969 0-3.367 1.999-4.844 4.033-4.844 1.17 0 2.467.432 3.097 1.458h.036v-4.753h2.053v12.856zm-4.592-1.368c1.837 0 2.611-1.675 2.611-3.295 0-2.052-.99-3.277-2.575-3.277-1.926 0-2.611 1.71-2.611 3.385 0 1.602.793 3.187 2.575 3.187zm12.113-11.488h8.876v1.945h-6.626v3.367h5.816v1.837h-5.816v5.708h-2.25v-12.857zm10.44 0h2.053v1.945h-2.053v-1.945zm0 3.548h2.053v9.309h-2.053v-9.309zm4.284 0h1.926v1.8h.036c.234-.99 1.459-2.053 2.719-2.053.469 0 .595.036.774.054v1.98c-.288-.036-.594-.09-.882-.09-1.404 0-2.521 1.134-2.521 3.187v4.429h-2.052v-9.307zm6.336 0h1.944v1.296h.054c.612-.918 1.387-1.549 2.863-1.549 1.134 0 2.196.486 2.61 1.549.685-.955 1.566-1.549 2.917-1.549 1.963 0 3.115.864 3.115 3.133v6.428h-2.053v-5.438c0-1.477-.09-2.503-1.692-2.503-1.387 0-1.98.918-1.98 2.485v5.456h-2.053v-5.978c0-1.279-.396-1.963-1.639-1.963-1.063 0-2.035.864-2.035 2.413v5.528h-2.052v-9.308zm-221.757 21.599h1.926v1.8h.036c.234-.99 1.458-2.053 2.719-2.053.468 0 .594.036.774.054v1.98c-.288-.036-.594-.09-.882-.09-1.404 0-2.521 1.134-2.521 3.187v4.429h-2.052v-9.307zm7.614 5.186c0 1.458.792 2.755 2.503 2.755 1.188 0 1.909-.522 2.269-1.549h1.945c-.45 2.035-2.179 3.168-4.213 3.168-2.917 0-4.555-2.034-4.555-4.897 0-2.646 1.729-4.916 4.501-4.916 2.935 0 4.736 2.647 4.394 5.438h-6.844zm4.79-1.351c-.072-1.296-.954-2.467-2.341-2.467-1.422 0-2.395 1.081-2.449 2.467h4.79zm5.164 2.485c.108 1.188 1.008 1.621 2.106 1.621.774 0 2.125-.162 2.071-1.225-.054-1.08-1.548-1.207-3.043-1.548-1.513-.324-2.989-.864-2.989-2.755 0-2.035 2.196-2.665 3.889-2.665 1.908 0 3.637.792 3.889 2.863h-2.143c-.18-.972-.991-1.242-1.891-1.242-.594 0-1.693.144-1.693.954 0 1.009 1.513 1.152 3.025 1.495 1.495.342 3.007.882 3.007 2.719 0 2.215-2.232 3.024-4.159 3.024-2.34 0-4.087-1.043-4.123-3.24h2.054zm7.362-1.675c0-2.845 1.71-4.897 4.699-4.897s4.699 2.053 4.699 4.897c0 2.863-1.71 4.915-4.699 4.915s-4.699-2.052-4.699-4.915zm7.345 0c0-1.602-.81-3.277-2.646-3.277s-2.647 1.675-2.647 3.277c0 1.621.811 3.295 2.647 3.295s2.646-1.674 2.646-3.295zm11.935 4.664h-2.017v-1.296h-.036c-.504.936-1.621 1.548-2.647 1.548-2.431 0-3.475-1.224-3.475-3.654v-5.906h2.053v5.708c0 1.639.667 2.233 1.783 2.233 1.71 0 2.287-1.099 2.287-2.539v-5.401h2.053v9.307zm2.157-9.309h1.927v1.8h.036c.234-.99 1.458-2.053 2.719-2.053.468 0 .594.036.774.054v1.98c-.288-.036-.594-.09-.882-.09-1.405 0-2.521 1.134-2.521 3.187v4.429h-2.053v-9.307zm12.296 3.115c-.162-1.134-.99-1.747-2.125-1.747-1.063 0-2.557.558-2.557 3.385 0 1.548.685 3.187 2.467 3.187 1.188 0 2.017-.792 2.215-2.125h2.053c-.378 2.413-1.873 3.745-4.268 3.745-2.917 0-4.519-2.07-4.519-4.807 0-2.809 1.53-5.006 4.591-5.006 2.161 0 3.997 1.081 4.195 3.367h-2.052zm5.327 2.071c0 1.458.792 2.755 2.503 2.755 1.188 0 1.909-.522 2.269-1.549h1.945c-.45 2.035-2.179 3.168-4.213 3.168-2.917 0-4.555-2.034-4.555-4.897 0-2.646 1.729-4.916 4.501-4.916 2.935 0 4.735 2.647 4.394 5.438h-6.844zm4.789-1.351c-.072-1.296-.954-2.467-2.341-2.467-1.422 0-2.395 1.081-2.449 2.467h4.79zm5.165 2.485c.108 1.188 1.008 1.621 2.106 1.621.774 0 2.125-.162 2.071-1.225-.054-1.08-1.549-1.207-3.043-1.548-1.513-.324-2.989-.864-2.989-2.755 0-2.035 2.196-2.665 3.889-2.665 1.908 0 3.637.792 3.889 2.863h-2.143c-.18-.972-.99-1.242-1.89-1.242-.594 0-1.693.144-1.693.954 0 1.009 1.513 1.152 3.025 1.495 1.495.342 3.007.882 3.007 2.719 0 2.215-2.233 3.024-4.16 3.024-2.34 0-4.087-1.043-4.123-3.24h2.054zm19.081-3.205c-.162-1.134-.99-1.747-2.125-1.747-1.063 0-2.557.558-2.557 3.385 0 1.548.685 3.187 2.467 3.187 1.188 0 2.017-.792 2.215-2.125h2.053c-.378 2.413-1.873 3.745-4.268 3.745-2.917 0-4.519-2.07-4.519-4.807 0-2.809 1.53-5.006 4.591-5.006 2.161 0 3.997 1.081 4.195 3.367h-2.052zm3.291 1.53c0-2.845 1.711-4.897 4.7-4.897s4.699 2.053 4.699 4.897c0 2.863-1.71 4.915-4.699 4.915s-4.7-2.052-4.7-4.915zm7.347 0c0-1.602-.811-3.277-2.647-3.277s-2.647 1.675-2.647 3.277c0 1.621.811 3.295 2.647 3.295s2.647-1.674 2.647-3.295zm5.308 1.675c.108 1.188 1.008 1.621 2.106 1.621.774 0 2.125-.162 2.071-1.225-.054-1.08-1.549-1.207-3.043-1.548-1.513-.324-2.989-.864-2.989-2.755 0-2.035 2.196-2.665 3.889-2.665 1.908 0 3.637.792 3.889 2.863h-2.143c-.18-.972-.99-1.242-1.89-1.242-.594 0-1.693.144-1.693.954 0 1.009 1.513 1.152 3.025 1.495 1.495.342 3.007.882 3.007 2.719 0 2.215-2.233 3.024-4.16 3.024-2.34 0-4.087-1.043-4.123-3.24h2.054zm6.857-6.32h1.548v-2.791h2.053v2.791h1.854v1.53h-1.854v4.97c0 .846.072 1.278.99 1.278.288 0 .576 0 .864-.072v1.584c-.45.036-.882.107-1.333.107-2.143 0-2.539-.828-2.575-2.376v-5.492h-1.548v-1.529zm6.732 3.439h5.24v1.944h-5.24v-1.944zm8.802 1.747c0 1.458.792 2.755 2.503 2.755 1.188 0 1.909-.522 2.269-1.549h1.945c-.45 2.035-2.179 3.168-4.213 3.168-2.917 0-4.555-2.034-4.555-4.897 0-2.646 1.729-4.916 4.501-4.916 2.935 0 4.736 2.647 4.394 5.438h-6.844zm4.79-1.351c-.072-1.296-.954-2.467-2.341-2.467-1.422 0-2.395 1.081-2.449 2.467h4.79zm2.697-3.835h1.53v-.774c0-2.377 1.243-2.773 2.575-2.773.648 0 1.117.036 1.44.126v1.603a3.48 3.48 0 0 0-.954-.108c-.558 0-1.008.198-1.008.972v.955h1.747v1.53h-1.747v7.778h-2.053v-7.778h-1.53v-1.531z"/><path d="M385.557 166.754h1.53v-.774c0-2.377 1.243-2.773 2.575-2.773.648 0 1.117.036 1.44.126v1.603a3.48 3.48 0 0 0-.954-.108c-.558 0-1.008.198-1.008.972v.955h1.747v1.53h-1.747v7.778h-2.053v-7.778h-1.53v-1.531zm8.191 5.186c0 1.458.792 2.755 2.503 2.755 1.188 0 1.909-.522 2.269-1.549h1.945c-.45 2.035-2.179 3.168-4.213 3.168-2.917 0-4.555-2.034-4.555-4.897 0-2.646 1.729-4.916 4.501-4.916 2.935 0 4.736 2.647 4.394 5.438h-6.844zm4.789-1.351c-.072-1.296-.954-2.467-2.341-2.467-1.422 0-2.395 1.081-2.449 2.467h4.79zm9.9-.72c-.162-1.134-.99-1.747-2.125-1.747-1.063 0-2.557.558-2.557 3.385 0 1.548.685 3.187 2.467 3.187 1.188 0 2.017-.792 2.215-2.125h2.053c-.378 2.413-1.873 3.745-4.268 3.745-2.917 0-4.519-2.07-4.519-4.807 0-2.809 1.53-5.006 4.591-5.006 2.161 0 3.997 1.081 4.195 3.367h-2.052zm2.788-3.115h1.548v-2.791h2.053v2.791h1.854v1.53h-1.854v4.97c0 .846.072 1.278.99 1.278.288 0 .576 0 .864-.072v1.584c-.45.036-.882.107-1.333.107-2.143 0-2.539-.828-2.575-2.376v-5.492h-1.548v-1.529zm6.983-3.547h2.053v1.945h-2.053v-1.945zm0 3.547h2.053v9.308h-2.053v-9.308zm3.366 0h2.232l2.359 7.148h.036l2.269-7.148h2.125l-3.331 9.308h-2.305l-3.385-9.308zm11.863 5.186c0 1.458.792 2.755 2.503 2.755 1.188 0 1.909-.522 2.269-1.549h1.945c-.45 2.035-2.179 3.168-4.213 3.168-2.917 0-4.555-2.034-4.555-4.897 0-2.646 1.729-4.916 4.501-4.916 2.935 0 4.735 2.647 4.394 5.438h-6.844zm4.789-1.351c-.072-1.296-.954-2.467-2.341-2.467-1.422 0-2.395 1.081-2.449 2.467h4.79zm3.67-7.382h2.053v12.855h-2.053v-12.855zm3.258 3.547h2.25l2.431 6.95h.036l2.359-6.95h2.143l-3.62 9.812c-.667 1.675-1.152 3.188-3.295 3.188-.486 0-.955-.036-1.423-.108v-1.729c.324.055.648.126.973.126.954 0 1.188-.504 1.44-1.296l.234-.721-3.528-9.272zm8.874 6.878h2.503v2.43h-2.503v-2.43z"/></g><g fill="#fff"><path d="M287.183 226.135h2.287l2.323 9.83h.036l2.593-9.83h2.305l2.521 9.83h.036l2.395-9.83h2.287l-3.547 12.855h-2.287l-2.575-9.831h-.036l-2.628 9.831h-2.323l-3.387-12.855zm17.964 0h2.052v4.771h.036c.504-.847 1.566-1.477 2.791-1.477 2.017 0 3.295 1.08 3.295 3.169v6.392h-2.053v-5.852c-.036-1.459-.612-2.089-1.818-2.089-1.369 0-2.251 1.08-2.251 2.449v5.491h-2.052v-12.854zm9.899 8.192c0-2.845 1.711-4.897 4.7-4.897s4.699 2.053 4.699 4.897c0 2.862-1.71 4.915-4.699 4.915s-4.7-2.053-4.7-4.915zm7.347 0c0-1.603-.811-3.277-2.647-3.277s-2.647 1.675-2.647 3.277c0 1.62.811 3.295 2.647 3.295s2.647-1.675 2.647-3.295zm8.817-8.192h2.053v1.944h-2.053v-1.944zm0 3.547h2.053v9.309h-2.053v-9.309zm5.833 6.319c.108 1.188 1.008 1.621 2.106 1.621.774 0 2.125-.162 2.071-1.225-.054-1.08-1.549-1.206-3.043-1.549-1.513-.323-2.989-.864-2.989-2.755 0-2.034 2.196-2.664 3.889-2.664 1.908 0 3.637.792 3.889 2.862h-2.143c-.18-.972-.99-1.242-1.89-1.242-.594 0-1.693.145-1.693.954 0 1.009 1.513 1.152 3.025 1.495 1.495.342 3.007.882 3.007 2.719 0 2.214-2.233 3.024-4.16 3.024-2.34 0-4.087-1.044-4.123-3.241h2.054zm20.593.919c0 .504.108.702.486.702.126 0 .288 0 .504-.036v1.422c-.306.108-.954.234-1.296.234-.829 0-1.423-.288-1.585-1.134-.81.792-2.125 1.134-3.223 1.134-1.675 0-3.187-.9-3.187-2.719 0-2.322 1.854-2.701 3.583-2.898 1.477-.271 2.791-.108 2.791-1.314 0-1.063-1.099-1.261-1.927-1.261-1.152 0-1.962.468-2.053 1.477h-2.052c.144-2.395 2.179-3.097 4.231-3.097 1.819 0 3.727.738 3.727 2.7v4.79zm-2.052-2.593c-.63.414-1.621.396-2.521.558-.882.145-1.674.469-1.674 1.549 0 .918 1.17 1.188 1.891 1.188.9 0 2.305-.469 2.305-1.765v-1.53zm10.548-1.53c-.162-1.135-.99-1.747-2.125-1.747-1.063 0-2.557.559-2.557 3.385 0 1.549.685 3.188 2.467 3.188 1.188 0 2.017-.792 2.215-2.125h2.053c-.378 2.413-1.873 3.745-4.268 3.745-2.917 0-4.519-2.07-4.519-4.808 0-2.809 1.53-5.005 4.591-5.005 2.161 0 3.997 1.08 4.195 3.367h-2.052zm10.008 0c-.162-1.135-.99-1.747-2.125-1.747-1.063 0-2.557.559-2.557 3.385 0 1.549.685 3.188 2.467 3.188 1.188 0 2.017-.792 2.215-2.125h2.053c-.378 2.413-1.873 3.745-4.268 3.745-2.917 0-4.519-2.07-4.519-4.808 0-2.809 1.53-5.005 4.591-5.005 2.161 0 3.997 1.08 4.195 3.367h-2.052zm3.291 1.53c0-2.845 1.711-4.897 4.7-4.897s4.699 2.053 4.699 4.897c0 2.862-1.71 4.915-4.699 4.915s-4.7-2.053-4.7-4.915zm7.347 0c0-1.603-.811-3.277-2.647-3.277s-2.647 1.675-2.647 3.277c0 1.62.811 3.295 2.647 3.295s2.647-1.675 2.647-3.295zm11.934 4.663h-2.017v-1.297h-.036c-.504.937-1.621 1.549-2.647 1.549-2.431 0-3.475-1.225-3.475-3.655v-5.905h2.052v5.707c0 1.639.667 2.233 1.783 2.233 1.71 0 2.287-1.099 2.287-2.539v-5.401h2.053v9.308zm2.158-9.308h1.944v1.368l.036.036a3.333 3.333 0 0 1 2.899-1.656c2.017 0 3.295 1.08 3.295 3.169v6.392h-2.053v-5.852c-.036-1.459-.612-2.089-1.818-2.089-1.369 0-2.251 1.08-2.251 2.449v5.491h-2.052v-9.308zm9.395 0h1.548v-2.791h2.053v2.791h1.854v1.53h-1.854v4.97c0 .846.072 1.278.99 1.278.288 0 .576 0 .864-.072v1.585c-.45.035-.882.107-1.333.107-2.143 0-2.539-.828-2.575-2.377v-5.491h-1.548v-1.53zm14.726 7.238c0 .504.108.702.486.702.126 0 .288 0 .504-.036v1.422c-.306.108-.955.234-1.297.234-.828 0-1.422-.288-1.584-1.134-.811.792-2.125 1.134-3.223 1.134-1.674 0-3.187-.9-3.187-2.719 0-2.322 1.854-2.701 3.583-2.898 1.477-.271 2.791-.108 2.791-1.314 0-1.063-1.099-1.261-1.927-1.261-1.152 0-1.962.468-2.053 1.477h-2.052c.144-2.395 2.178-3.097 4.231-3.097 1.819 0 3.727.738 3.727 2.7v4.79zm-2.052-2.593c-.63.414-1.621.396-2.521.558-.882.145-1.674.469-1.674 1.549 0 .918 1.17 1.188 1.891 1.188.9 0 2.305-.469 2.305-1.765v-1.53zm4.318-8.192h2.053v4.753h.036c.558-.9 1.729-1.458 2.772-1.458 2.935 0 4.357 2.232 4.357 4.951 0 2.503-1.26 4.861-4.015 4.861-1.26 0-2.611-.306-3.223-1.53h-.036v1.278h-1.945v-12.855zm4.591 4.915c-1.729 0-2.611 1.314-2.611 3.295 0 1.873.955 3.277 2.611 3.277 1.873 0 2.575-1.657 2.575-3.277 0-1.693-.882-3.295-2.575-3.295zm6.407-4.915h2.053v12.855h-2.053v-12.855zm5.886 8.732c0 1.458.792 2.755 2.503 2.755 1.188 0 1.909-.522 2.269-1.549h1.945c-.45 2.035-2.179 3.169-4.213 3.169-2.917 0-4.555-2.034-4.555-4.897 0-2.646 1.729-4.915 4.501-4.915 2.935 0 4.736 2.646 4.394 5.438h-6.844zm4.79-1.35c-.072-1.296-.954-2.467-2.341-2.467-1.422 0-2.395 1.08-2.449 2.467h4.79zm3.418-3.295c-.018-2.646 1.675-4.394 4.321-4.394 2.197 0 3.926 1.314 3.926 3.638 0 1.692-.793 2.322-1.585 2.988-.918.774-1.584 1.314-1.584 3.043h-1.945c0-2.106.45-2.827 1.404-3.655.774-.666 1.459-1.098 1.459-2.305 0-1.458-1.116-1.998-1.765-1.998-1.477 0-2.179 1.063-2.179 2.683h-2.052zm2.863 6.517h2.412v2.251h-2.412v-2.251zm-166.769 10.996h5.672c3.673 0 4.375 2.376 4.375 3.979 0 1.585-.702 3.962-4.375 3.943h-3.421v4.934h-2.251v-12.856zm2.251 6.085h3.295c1.008 0 2.25-.504 2.25-2.124 0-1.692-1.026-2.125-2.214-2.125h-3.331v4.249zm17.263 4.701c0 .504.108.702.486.702.126 0 .288 0 .504-.036v1.422c-.306.108-.955.234-1.297.234-.828 0-1.422-.288-1.584-1.134-.811.792-2.125 1.134-3.223 1.134-1.674 0-3.187-.9-3.187-2.719 0-2.322 1.854-2.701 3.583-2.898 1.477-.271 2.791-.108 2.791-1.314 0-1.063-1.099-1.261-1.927-1.261-1.152 0-1.962.468-2.053 1.477h-2.052c.144-2.395 2.178-3.097 4.231-3.097 1.819 0 3.727.738 3.727 2.7v4.79zm-2.052-2.593c-.63.414-1.621.396-2.521.558-.882.145-1.674.469-1.674 1.549 0 .918 1.17 1.188 1.891 1.188.9 0 2.305-.469 2.305-1.765v-1.53zm4.263-4.646h1.927v1.801h.036c.234-.991 1.458-2.053 2.719-2.053.468 0 .594.036.774.054v1.98c-.288-.036-.594-.09-.882-.09-1.405 0-2.521 1.135-2.521 3.187v4.43h-2.053v-9.309z"/><path d="M315.568 251.282h1.548v-2.791h2.053v2.791h1.854v1.53h-1.854v4.97c0 .846.072 1.278.99 1.278.288 0 .576 0 .864-.072v1.585c-.45.035-.882.107-1.333.107-2.143 0-2.539-.828-2.575-2.377v-5.491h-1.548v-1.53zm6.931 0h1.944v1.368l.036.036a3.333 3.333 0 0 1 2.899-1.656c2.017 0 3.295 1.08 3.295 3.169v6.392h-2.053v-5.852c-.036-1.459-.612-2.089-1.818-2.089-1.369 0-2.251 1.08-2.251 2.449v5.491h-2.052v-9.308zm11.934 5.186c0 1.458.792 2.755 2.503 2.755 1.188 0 1.909-.522 2.269-1.549h1.945c-.45 2.035-2.179 3.169-4.213 3.169-2.917 0-4.555-2.034-4.555-4.897 0-2.646 1.729-4.915 4.501-4.915 2.935 0 4.735 2.646 4.394 5.438h-6.844zm4.789-1.351c-.072-1.297-.954-2.467-2.341-2.467-1.422 0-2.395 1.08-2.449 2.467h4.79zm3.616-3.835h1.926v1.801h.036c.234-.991 1.458-2.053 2.719-2.053.468 0 .594.036.774.054v1.98c-.288-.036-.594-.09-.882-.09-1.404 0-2.521 1.135-2.521 3.187v4.43h-2.052v-9.309zm7.885 6.32c.108 1.188 1.008 1.621 2.106 1.621.774 0 2.125-.162 2.071-1.225-.054-1.08-1.549-1.206-3.043-1.549-1.513-.324-2.989-.864-2.989-2.755 0-2.034 2.196-2.664 3.889-2.664 1.908 0 3.637.792 3.889 2.862h-2.143c-.18-.972-.99-1.242-1.89-1.242-.594 0-1.693.145-1.693.954 0 1.009 1.513 1.152 3.025 1.495 1.495.342 3.007.882 3.007 2.719 0 2.214-2.233 3.024-4.16 3.024-2.34 0-4.087-1.044-4.123-3.241h2.054zm20.593.919c0 .504.108.702.486.702.126 0 .288 0 .504-.036v1.422c-.306.108-.954.234-1.296.234-.829 0-1.423-.288-1.585-1.134-.81.792-2.125 1.134-3.223 1.134-1.675 0-3.187-.9-3.187-2.719 0-2.322 1.854-2.701 3.583-2.898 1.477-.271 2.791-.108 2.791-1.314 0-1.063-1.099-1.261-1.927-1.261-1.152 0-1.962.468-2.053 1.477h-2.052c.144-2.395 2.179-3.097 4.231-3.097 1.819 0 3.727.738 3.727 2.7v4.79zm-2.052-2.593c-.63.414-1.621.396-2.521.558-.882.145-1.674.469-1.674 1.549 0 .918 1.17 1.188 1.891 1.188.9 0 2.305-.469 2.305-1.765v-1.53zm4.264-4.646h1.926v1.801h.036c.234-.991 1.458-2.053 2.719-2.053.468 0 .594.036.774.054v1.98c-.288-.036-.594-.09-.882-.09-1.404 0-2.521 1.135-2.521 3.187v4.43h-2.052v-9.309zm7.614 5.186c0 1.458.792 2.755 2.503 2.755 1.188 0 1.909-.522 2.269-1.549h1.945c-.45 2.035-2.179 3.169-4.213 3.169-2.917 0-4.555-2.034-4.555-4.897 0-2.646 1.729-4.915 4.501-4.915 2.935 0 4.736 2.646 4.394 5.438h-6.844zm4.79-1.351c-.072-1.297-.954-2.467-2.341-2.467-1.422 0-2.395 1.08-2.449 2.467h4.79zm10.168 2.485c.108 1.188 1.008 1.621 2.106 1.621.774 0 2.125-.162 2.071-1.225-.054-1.08-1.548-1.206-3.043-1.549-1.513-.324-2.989-.864-2.989-2.755 0-2.034 2.196-2.664 3.889-2.664 1.908 0 3.637.792 3.889 2.862h-2.143c-.18-.972-.991-1.242-1.891-1.242-.594 0-1.693.145-1.693.954 0 1.009 1.513 1.152 3.025 1.495 1.495.342 3.007.882 3.007 2.719 0 2.214-2.232 3.024-4.159 3.024-2.34 0-4.087-1.044-4.123-3.241h2.054zm6.857-6.32h1.548v-2.791h2.053v2.791h1.854v1.53h-1.854v4.97c0 .846.072 1.278.99 1.278.288 0 .576 0 .864-.072v1.585c-.45.035-.882.107-1.333.107-2.143 0-2.539-.828-2.575-2.377v-5.491h-1.548v-1.53zm8.532 5.186c0 1.458.792 2.755 2.503 2.755 1.188 0 1.909-.522 2.269-1.549h1.945c-.45 2.035-2.179 3.169-4.213 3.169-2.917 0-4.555-2.034-4.555-4.897 0-2.646 1.729-4.915 4.501-4.915 2.935 0 4.735 2.646 4.394 5.438h-6.844zm4.79-1.351c-.072-1.297-.954-2.467-2.341-2.467-1.422 0-2.395 1.08-2.449 2.467h4.79zm2.769-3.835h2.179l1.819 6.95h.036l1.747-6.95h2.071l1.674 6.95h.036l1.891-6.95h2.088l-2.917 9.309h-2.107l-1.729-6.914h-.036l-1.71 6.914h-2.161l-2.881-9.309zm22.647 7.239c0 .504.108.702.486.702.126 0 .288 0 .504-.036v1.422c-.306.108-.954.234-1.296.234-.829 0-1.423-.288-1.585-1.134-.81.792-2.125 1.134-3.223 1.134-1.675 0-3.187-.9-3.187-2.719 0-2.322 1.854-2.701 3.583-2.898 1.477-.271 2.791-.108 2.791-1.314 0-1.063-1.099-1.261-1.927-1.261-1.152 0-1.962.468-2.053 1.477h-2.052c.144-2.395 2.179-3.097 4.231-3.097 1.819 0 3.727.738 3.727 2.7v4.79zm-2.052-2.593c-.63.414-1.621.396-2.521.558-.882.145-1.674.469-1.674 1.549 0 .918 1.17 1.188 1.891 1.188.9 0 2.305-.469 2.305-1.765v-1.53zm4.264-4.646h1.926v1.801h.036c.234-.991 1.458-2.053 2.719-2.053.468 0 .594.036.774.054v1.98c-.288-.036-.594-.09-.882-.09-1.404 0-2.521 1.135-2.521 3.187v4.43h-2.052v-9.309zm14.781 9.309h-1.944v-1.261h-.036c-.54 1.063-1.711 1.513-2.881 1.513-2.935 0-4.357-2.179-4.357-4.97 0-3.366 1.999-4.843 4.033-4.843 1.171 0 2.467.432 3.097 1.458h.036v-4.753h2.053v12.856zm-4.591-1.368c1.836 0 2.61-1.675 2.61-3.295 0-2.053-.99-3.277-2.575-3.277-1.926 0-2.61 1.711-2.61 3.385-.001 1.602.791 3.187 2.575 3.187zm8.369-1.621c.107 1.188 1.008 1.621 2.106 1.621.774 0 2.124-.162 2.07-1.225-.054-1.08-1.548-1.206-3.043-1.549-1.513-.324-2.988-.864-2.988-2.755 0-2.034 2.196-2.664 3.889-2.664 1.908 0 3.637.792 3.89 2.862h-2.143c-.181-.972-.991-1.242-1.891-1.242-.595 0-1.693.145-1.693.954 0 1.009 1.513 1.152 3.025 1.495 1.494.342 3.007.882 3.007 2.719 0 2.214-2.232 3.024-4.159 3.024-2.341 0-4.087-1.044-4.123-3.241h2.053zm12.365-1.674c0-2.845 1.71-4.897 4.699-4.897 2.988 0 4.699 2.053 4.699 4.897 0 2.862-1.711 4.915-4.699 4.915-2.989 0-4.699-2.053-4.699-4.915zm7.346 0c0-1.603-.811-3.277-2.646-3.277-1.837 0-2.647 1.675-2.647 3.277 0 1.62.811 3.295 2.647 3.295 1.835 0 2.646-1.675 2.646-3.295zm2.842-4.646h1.53v-.774c0-2.377 1.242-2.772 2.574-2.772.648 0 1.117.036 1.44.126v1.603a3.48 3.48 0 0 0-.954-.108c-.558 0-1.008.198-1.008.973v.954h1.746v1.53h-1.746v7.778h-2.053v-7.778h-1.53v-1.532zm10.655 0h1.549v-2.791h2.053v2.791h1.854v1.53h-1.854v4.97c0 .846.072 1.278.99 1.278.288 0 .576 0 .864-.072v1.585c-.45.035-.883.107-1.333.107-2.143 0-2.538-.828-2.574-2.377v-5.491h-1.549v-1.53zm6.93-3.547h2.052v4.771h.036c.505-.847 1.566-1.477 2.791-1.477 2.017 0 3.295 1.08 3.295 3.169v6.392h-2.053v-5.852c-.036-1.459-.612-2.089-1.818-2.089-1.368 0-2.251 1.08-2.251 2.449v5.491h-2.052v-12.854zm11.934 8.733c0 1.458.793 2.755 2.503 2.755 1.188 0 1.909-.522 2.269-1.549h1.945c-.45 2.035-2.179 3.169-4.214 3.169-2.917 0-4.555-2.034-4.555-4.897 0-2.646 1.729-4.915 4.501-4.915 2.935 0 4.735 2.646 4.394 5.438h-6.843zm4.79-1.351c-.072-1.297-.954-2.467-2.341-2.467-1.423 0-2.395 1.08-2.449 2.467h4.79zm8.674-3.835h1.944v1.26h.036c.576-1.062 1.692-1.512 2.881-1.512 2.935 0 4.357 2.232 4.357 4.951 0 2.503-1.261 4.861-4.016 4.861-1.188 0-2.467-.432-3.114-1.458h-.036v4.646h-2.053v-12.748zm4.591 1.368c-1.729 0-2.61 1.314-2.61 3.295 0 1.873.954 3.277 2.61 3.277 1.873 0 2.575-1.656 2.575-3.277 0-1.692-.882-3.295-2.575-3.295zm6.353-1.368h1.926v1.801h.036c.234-.991 1.459-2.053 2.719-2.053.469 0 .595.036.774.054v1.98c-.288-.036-.594-.09-.882-.09-1.404 0-2.521 1.135-2.521 3.187v4.43h-2.052v-9.309zm5.579 4.646c0-2.845 1.711-4.897 4.699-4.897 2.989 0 4.699 2.053 4.699 4.897 0 2.862-1.71 4.915-4.699 4.915-2.988 0-4.699-2.053-4.699-4.915zm7.347 0c0-1.603-.811-3.277-2.647-3.277-1.836 0-2.646 1.675-2.646 3.277 0 1.62.811 3.295 2.646 3.295 1.837 0 2.647-1.675 2.647-3.295zm10.043-1.532c-.162-1.134-.99-1.746-2.124-1.746-1.063 0-2.558.559-2.558 3.385 0 1.549.685 3.188 2.467 3.188 1.188 0 2.017-.793 2.215-2.125h2.053c-.378 2.413-1.872 3.745-4.268 3.745-2.916 0-4.519-2.07-4.519-4.808 0-2.809 1.53-5.005 4.591-5.005 2.161 0 3.997 1.08 4.195 3.366h-2.052zm5.326 2.072c0 1.458.793 2.755 2.503 2.755 1.188 0 1.909-.522 2.269-1.549h1.945c-.45 2.035-2.179 3.169-4.214 3.169-2.917 0-4.555-2.034-4.555-4.897 0-2.646 1.729-4.915 4.501-4.915 2.935 0 4.735 2.646 4.394 5.438h-6.843zm4.79-1.351c-.072-1.297-.954-2.467-2.341-2.467-1.423 0-2.395 1.08-2.449 2.467h4.79zm5.164 2.485c.108 1.188 1.009 1.621 2.106 1.621.774 0 2.125-.162 2.071-1.225-.055-1.08-1.549-1.206-3.043-1.549-1.513-.324-2.989-.864-2.989-2.755 0-2.034 2.196-2.664 3.89-2.664 1.908 0 3.637.792 3.889 2.862h-2.143c-.18-.972-.99-1.242-1.891-1.242-.594 0-1.692.145-1.692.954 0 1.009 1.513 1.152 3.024 1.495 1.495.342 3.008.882 3.008 2.719 0 2.214-2.233 3.024-4.16 3.024-2.34 0-4.087-1.044-4.123-3.241h2.053zm9.342 0c.108 1.188 1.009 1.621 2.106 1.621.774 0 2.125-.162 2.071-1.225-.055-1.08-1.549-1.206-3.043-1.549-1.513-.324-2.989-.864-2.989-2.755 0-2.034 2.196-2.664 3.89-2.664 1.908 0 3.637.792 3.889 2.862h-2.143c-.18-.972-.99-1.242-1.891-1.242-.594 0-1.692.145-1.692.954 0 1.009 1.513 1.152 3.024 1.495 1.495.342 3.008.882 3.008 2.719 0 2.214-2.233 3.024-4.16 3.024-2.34 0-4.087-1.044-4.123-3.241h2.053zm7.955-6.122h2.503v2.431h-2.503v-2.431zm0 6.68h2.503v2.431c-.018 1.477-1.008 2.557-2.431 2.845v-1.099c.792-.197 1.188-.972 1.171-1.746h-1.243v-2.431zm9.414-2.232c0-2.845 1.711-4.897 4.699-4.897 2.989 0 4.7 2.053 4.7 4.897 0 2.862-1.711 4.915-4.7 4.915-2.988 0-4.699-2.053-4.699-4.915zm7.347 0c0-1.603-.811-3.277-2.647-3.277-1.836 0-2.646 1.675-2.646 3.277 0 1.62.811 3.295 2.646 3.295 1.836 0 2.647-1.675 2.647-3.295zm2.841-4.646h1.53v-.774c0-2.377 1.242-2.772 2.575-2.772.647 0 1.116.036 1.44.126v1.603a3.485 3.485 0 0 0-.954-.108c-.559 0-1.009.198-1.009.973v.954h1.746v1.53h-1.746v7.778h-2.053v-7.778h-1.53v-1.532z"/><path d="M619.44 251.282h1.53v-.774c0-2.377 1.242-2.772 2.575-2.772.647 0 1.116.036 1.44.126v1.603a3.488 3.488 0 0 0-.955-.108c-.558 0-1.008.198-1.008.973v.954h1.746v1.53h-1.746v7.778h-2.053v-7.778h-1.53v-1.532zm6.644-3.547h2.053v1.944h-2.053v-1.944zm0 3.547h2.053v9.309h-2.053v-9.309zm10.566 3.114c-.162-1.134-.99-1.746-2.125-1.746-1.063 0-2.557.559-2.557 3.385 0 1.549.685 3.188 2.467 3.188 1.188 0 2.017-.793 2.215-2.125h2.053c-.378 2.413-1.873 3.745-4.268 3.745-2.917 0-4.52-2.07-4.52-4.808 0-2.809 1.531-5.005 4.592-5.005 2.16 0 3.997 1.08 4.195 3.366h-2.052zm5.327 2.072c0 1.458.792 2.755 2.503 2.755 1.188 0 1.908-.522 2.269-1.549h1.944c-.45 2.035-2.179 3.169-4.213 3.169-2.917 0-4.556-2.034-4.556-4.897 0-2.646 1.729-4.915 4.502-4.915 2.935 0 4.735 2.646 4.393 5.438h-6.842zm4.79-1.351c-.072-1.297-.955-2.467-2.341-2.467-1.423 0-2.395 1.08-2.449 2.467h4.79zm5.164 2.485c.108 1.188 1.008 1.621 2.106 1.621.774 0 2.125-.162 2.07-1.225-.054-1.08-1.548-1.206-3.043-1.549-1.512-.324-2.988-.864-2.988-2.755 0-2.034 2.196-2.664 3.889-2.664 1.909 0 3.638.792 3.89 2.862h-2.143c-.181-.972-.99-1.242-1.891-1.242-.595 0-1.692.145-1.692.954 0 1.009 1.512 1.152 3.024 1.495 1.495.342 3.007.882 3.007 2.719 0 2.214-2.232 3.024-4.159 3.024-2.341 0-4.087-1.044-4.123-3.241h2.053zm-362.174 20.465c0 1.458.792 2.755 2.503 2.755 1.188 0 1.909-.522 2.269-1.549h1.945c-.45 2.035-2.179 3.169-4.213 3.169-2.917 0-4.555-2.034-4.555-4.897 0-2.646 1.729-4.915 4.501-4.915 2.935 0 4.736 2.646 4.394 5.438h-6.844zm4.79-1.35c-.072-1.297-.954-2.467-2.341-2.467-1.422 0-2.395 1.08-2.449 2.467h4.79zm3.616-3.835h1.945v1.368l.036.036a3.333 3.333 0 0 1 2.899-1.656c2.017 0 3.295 1.08 3.295 3.169v6.392h-2.053v-5.852c-.036-1.459-.612-2.089-1.818-2.089-1.369 0-2.251 1.08-2.251 2.449v5.491h-2.053v-9.308zm11.88 6.319c.108 1.188 1.008 1.621 2.106 1.621.774 0 2.125-.162 2.071-1.225-.054-1.08-1.548-1.206-3.043-1.549-1.513-.324-2.989-.864-2.989-2.755 0-2.034 2.196-2.664 3.889-2.664 1.908 0 3.637.792 3.889 2.862h-2.143c-.18-.972-.991-1.242-1.891-1.242-.594 0-1.693.145-1.693.954 0 1.009 1.513 1.152 3.025 1.495 1.495.342 3.007.882 3.007 2.719 0 2.214-2.232 3.024-4.159 3.024-2.34 0-4.087-1.044-4.123-3.241h2.054zm15.968 2.989h-2.017v-1.296h-.036c-.504.936-1.621 1.548-2.647 1.548-2.431 0-3.475-1.225-3.475-3.655v-5.905h2.053v5.708c0 1.638.667 2.232 1.783 2.232 1.71 0 2.287-1.099 2.287-2.539v-5.401h2.053v9.308zm2.157-9.308h1.927v1.801h.036c.234-.991 1.458-2.053 2.719-2.053.468 0 .594.036.774.054v1.98c-.288-.036-.594-.09-.882-.09-1.405 0-2.521 1.135-2.521 3.187v4.43h-2.053v-9.309zm7.615 5.185c0 1.458.792 2.755 2.503 2.755 1.188 0 1.909-.522 2.269-1.549h1.945c-.45 2.035-2.179 3.169-4.213 3.169-2.917 0-4.555-2.034-4.555-4.897 0-2.646 1.729-4.915 4.501-4.915 2.935 0 4.735 2.646 4.394 5.438h-6.844zm4.79-1.35c-.072-1.297-.954-2.467-2.341-2.467-1.422 0-2.395 1.08-2.449 2.467h4.79zm10.168 2.484c.108 1.188 1.008 1.621 2.106 1.621.774 0 2.125-.162 2.071-1.225-.054-1.08-1.549-1.206-3.043-1.549-1.513-.324-2.989-.864-2.989-2.755 0-2.034 2.196-2.664 3.889-2.664 1.908 0 3.637.792 3.889 2.862h-2.143c-.18-.972-.99-1.242-1.89-1.242-.594 0-1.693.145-1.693.954 0 1.009 1.513 1.152 3.025 1.495 1.495.342 3.007.882 3.007 2.719 0 2.214-2.233 3.024-4.16 3.024-2.34 0-4.087-1.044-4.123-3.241h2.054zm6.857-6.319h1.548v-2.791h2.053v2.791h1.854v1.53h-1.854v4.97c0 .846.072 1.278.99 1.278.288 0 .576 0 .864-.072v1.585c-.45.035-.882.107-1.333.107-2.143 0-2.539-.828-2.575-2.377v-5.491h-1.548v-1.53zm14.726 7.238c0 .504.108.702.486.702.126 0 .288 0 .504-.036v1.422c-.306.108-.955.234-1.297.234-.828 0-1.422-.288-1.584-1.134-.811.792-2.125 1.134-3.223 1.134-1.674 0-3.187-.9-3.187-2.719 0-2.322 1.854-2.701 3.583-2.898 1.477-.271 2.791-.108 2.791-1.314 0-1.063-1.099-1.261-1.927-1.261-1.152 0-1.962.468-2.053 1.477h-2.052c.144-2.395 2.178-3.097 4.231-3.097 1.819 0 3.727.738 3.727 2.7v4.79zm-2.052-2.593c-.63.414-1.621.396-2.521.558-.882.145-1.674.469-1.674 1.549 0 .918 1.17 1.188 1.891 1.188.9 0 2.305-.469 2.305-1.765v-1.53zm4.264-4.645h1.945v1.368l.036.036a3.333 3.333 0 0 1 2.899-1.656c2.017 0 3.295 1.08 3.295 3.169v6.392h-2.053v-5.852c-.036-1.459-.612-2.089-1.818-2.089-1.369 0-2.251 1.08-2.251 2.449v5.491h-2.053v-9.308zm19.101 9.308h-1.945v-1.261h-.036c-.54 1.063-1.71 1.513-2.881 1.513-2.935 0-4.357-2.179-4.357-4.97 0-3.366 1.999-4.843 4.033-4.843 1.17 0 2.466.432 3.097 1.458h.036v-4.753h2.053v12.856zm-4.592-1.368c1.836 0 2.61-1.675 2.61-3.295 0-2.053-.99-3.277-2.575-3.277-1.926 0-2.611 1.711-2.611 3.385.001 1.602.794 3.187 2.576 3.187zm14.617-.702c0 .504.108.702.486.702.126 0 .288 0 .504-.036v1.422c-.306.108-.955.234-1.297.234-.828 0-1.422-.288-1.584-1.134-.811.792-2.125 1.134-3.223 1.134-1.674 0-3.187-.9-3.187-2.719 0-2.322 1.854-2.701 3.583-2.898 1.477-.271 2.791-.108 2.791-1.314 0-1.063-1.099-1.261-1.927-1.261-1.152 0-1.962.468-2.053 1.477h-2.052c.144-2.395 2.178-3.097 4.231-3.097 1.819 0 3.727.738 3.727 2.7v4.79zm-2.052-2.593c-.63.414-1.621.396-2.521.558-.882.145-1.674.469-1.674 1.549 0 .918 1.17 1.188 1.891 1.188.9 0 2.305-.469 2.305-1.765v-1.53zm4.264-4.645h1.927v1.801h.036c.234-.991 1.458-2.053 2.719-2.053.468 0 .594.036.774.054v1.98c-.288-.036-.594-.09-.882-.09-1.405 0-2.521 1.135-2.521 3.187v4.43h-2.053v-9.309zm14.781 9.308h-1.945v-1.261h-.036c-.54 1.063-1.71 1.513-2.881 1.513-2.935 0-4.357-2.179-4.357-4.97 0-3.366 1.999-4.843 4.033-4.843 1.17 0 2.467.432 3.097 1.458h.036v-4.753h2.053v12.856zm-4.592-1.368c1.837 0 2.611-1.675 2.611-3.295 0-2.053-.99-3.277-2.575-3.277-1.926 0-2.611 1.711-2.611 3.385 0 1.602.793 3.187 2.575 3.187zm6.875-11.487h2.053v1.944h-2.053v-1.944zm0 3.547h2.053v9.309h-2.053v-9.309zm3.96 0h7.562v1.44l-5.33 6.248h5.6v1.62h-8.192v-1.44l5.149-6.248h-4.789v-1.62zm17.12 7.238c0 .504.108.702.486.702.126 0 .288 0 .504-.036v1.422c-.306.108-.954.234-1.296.234-.829 0-1.423-.288-1.585-1.134-.81.792-2.125 1.134-3.223 1.134-1.675 0-3.187-.9-3.187-2.719 0-2.322 1.854-2.701 3.583-2.898 1.477-.271 2.791-.108 2.791-1.314 0-1.063-1.099-1.261-1.927-1.261-1.152 0-1.962.468-2.053 1.477h-2.052c.144-2.395 2.179-3.097 4.231-3.097 1.819 0 3.727.738 3.727 2.7v4.79zm-2.052-2.593c-.63.414-1.621.396-2.521.558-.882.145-1.674.469-1.674 1.549 0 .918 1.17 1.188 1.891 1.188.9 0 2.305-.469 2.305-1.765v-1.53zm3.327-4.645h1.548v-2.791h2.053v2.791h1.854v1.53h-1.854v4.97c0 .846.072 1.278.99 1.278.288 0 .576 0 .864-.072v1.585c-.45.035-.882.107-1.333.107-2.143 0-2.539-.828-2.575-2.377v-5.491h-1.548v-1.53zm6.984-3.547h2.053v1.944h-2.053v-1.944zm0 3.547h2.053v9.309h-2.053v-9.309zm3.853 4.645c0-2.845 1.71-4.897 4.699-4.897 2.988 0 4.699 2.053 4.699 4.897 0 2.862-1.711 4.915-4.699 4.915-2.989 0-4.699-2.052-4.699-4.915zm7.346 0c0-1.603-.811-3.277-2.646-3.277-1.837 0-2.647 1.675-2.647 3.277 0 1.62.811 3.295 2.647 3.295 1.835 0 2.646-1.675 2.646-3.295zm3.759-4.645h1.944v1.368l.036.036a3.335 3.335 0 0 1 2.899-1.656c2.017 0 3.295 1.08 3.295 3.169v6.392h-2.053v-5.852c-.036-1.459-.612-2.089-1.818-2.089-1.369 0-2.251 1.08-2.251 2.449v5.491h-2.053v-9.308zm23.132 7.238c0 .504.108.702.486.702.126 0 .288 0 .505-.036v1.422c-.307.108-.955.234-1.297.234-.828 0-1.423-.288-1.584-1.134-.811.792-2.125 1.134-3.224 1.134-1.674 0-3.187-.9-3.187-2.719 0-2.322 1.854-2.701 3.583-2.898 1.477-.271 2.791-.108 2.791-1.314 0-1.063-1.099-1.261-1.927-1.261-1.152 0-1.963.468-2.053 1.477h-2.053c.145-2.395 2.179-3.097 4.231-3.097 1.818 0 3.727.738 3.727 2.7v4.79zm-2.052-2.593c-.631.414-1.621.396-2.521.558-.882.145-1.674.469-1.674 1.549 0 .918 1.17 1.188 1.891 1.188.899 0 2.305-.469 2.305-1.765v-1.53zm4.264-4.645h1.944v1.368l.036.036a3.335 3.335 0 0 1 2.899-1.656c2.017 0 3.295 1.08 3.295 3.169v6.392H498.7v-5.852c-.036-1.459-.612-2.089-1.818-2.089-1.369 0-2.251 1.08-2.251 2.449v5.491h-2.053v-9.308zm19.101 9.308h-1.944v-1.261h-.036c-.54 1.063-1.711 1.513-2.881 1.513-2.935 0-4.357-2.179-4.357-4.97 0-3.366 1.999-4.843 4.033-4.843 1.171 0 2.467.432 3.097 1.458h.036v-4.753h2.053v12.856zm-4.591-1.368c1.836 0 2.61-1.675 2.61-3.295 0-2.053-.99-3.277-2.575-3.277-1.926 0-2.61 1.711-2.61 3.385 0 1.602.792 3.187 2.575 3.187zm13.373-1.621c.107 1.188 1.008 1.621 2.106 1.621.774 0 2.124-.162 2.07-1.225-.054-1.08-1.548-1.206-3.043-1.549-1.513-.324-2.988-.864-2.988-2.755 0-2.034 2.196-2.664 3.889-2.664 1.908 0 3.637.792 3.89 2.862h-2.143c-.181-.972-.991-1.242-1.891-1.242-.595 0-1.693.145-1.693.954 0 1.009 1.513 1.152 3.025 1.495 1.494.342 3.007.882 3.007 2.719 0 2.214-2.232 3.024-4.159 3.024-2.341 0-4.087-1.044-4.123-3.241h2.053zm15.968 2.989h-2.017v-1.296h-.036c-.504.936-1.621 1.548-2.647 1.548-2.431 0-3.475-1.225-3.475-3.655v-5.905h2.053v5.708c0 1.638.666 2.232 1.782 2.232 1.711 0 2.287-1.099 2.287-2.539v-5.401h2.053v9.308zm2.211-9.308h1.945v1.26h.035c.576-1.062 1.693-1.512 2.881-1.512 2.936 0 4.357 2.232 4.357 4.951 0 2.503-1.26 4.861-4.015 4.861-1.188 0-2.467-.432-3.115-1.458h-.036v4.646h-2.053v-12.748zm4.591 1.368c-1.729 0-2.611 1.314-2.611 3.295 0 1.873.955 3.277 2.611 3.277 1.872 0 2.574-1.656 2.574-3.277.001-1.692-.881-3.295-2.574-3.295zm6.407-1.368h1.945v1.26h.035c.576-1.062 1.693-1.512 2.881-1.512 2.936 0 4.357 2.232 4.357 4.951 0 2.503-1.26 4.861-4.015 4.861-1.188 0-2.467-.432-3.115-1.458h-.036v4.646h-2.053v-12.748zm4.591 1.368c-1.729 0-2.611 1.314-2.611 3.295 0 1.873.955 3.277 2.611 3.277 1.872 0 2.574-1.656 2.574-3.277.001-1.692-.881-3.295-2.574-3.295zm5.921 3.277c0-2.845 1.71-4.897 4.699-4.897 2.988 0 4.699 2.053 4.699 4.897 0 2.862-1.711 4.915-4.699 4.915-2.989 0-4.699-2.052-4.699-4.915zm7.346 0c0-1.603-.811-3.277-2.646-3.277-1.837 0-2.647 1.675-2.647 3.277 0 1.62.811 3.295 2.647 3.295 1.836 0 2.646-1.675 2.646-3.295zm3.76-4.645h1.927v1.801h.036c.233-.991 1.458-2.053 2.719-2.053.468 0 .594.036.774.054v1.98c-.288-.036-.595-.09-.883-.09-1.404 0-2.521 1.135-2.521 3.187v4.43h-2.053v-9.309z"/><path d="M576.656 272.882h1.549v-2.791h2.053v2.791h1.854v1.53h-1.854v4.97c0 .846.072 1.278.99 1.278.288 0 .576 0 .864-.072v1.585c-.45.035-.883.107-1.333.107-2.143 0-2.538-.828-2.574-2.377v-5.491h-1.549v-1.53zm7.092 6.878h2.503v2.431h-2.503v-2.431z"/></g><path fill="#3f57a6" d="M540.679 144.582l22.124-25.169h-11.461V95.785h-21.33v23.628h-11.46zm50.828 79.173l22.123-25.169h-11.46v-23.628h-21.33v23.628h-11.461z"/></svg>