<svg xmlns="http://www.w3.org/2000/svg" viewBox="0 0 900 350"><defs><style>.a{fill:#2cabe2}.b{fill:#fff}.c{fill:#3f57a6}</style></defs><title>c-225</title><rect class="a" x="74.93" y="51.96" width="522.45" height="61.33" rx="12" ry="12"/><rect class="a" x="193.75" y="143.66" width="443" height="61.33" rx="12" ry="12"/><rect class="a" x="296.89" y="235.37" width="520.11" height="61.33" rx="12" ry="12"/><path class="b" d="M107.78 80.76a3.07 3.07 0 0 0-3.21-2.56c-2.75 0-3.91 2.43-3.91 4.9s1.15 4.9 3.91 4.9c2 0 3.1-1.49 3.28-3.37H110a5.27 5.27 0 0 1-5.47 5.2c-3.85 0-6.16-3.06-6.16-6.73s2.3-6.73 6.16-6.73c2.9 0 5.19 1.62 5.46 4.39zm4.03-.54h1.93V82a3 3 0 0 1 2.75-2 4.87 4.87 0 0 1 .77.05v2a7.3 7.3 0 0 0-.88-.09c-1.4 0-2.52 1.13-2.52 3.19v4.43h-2.05zm7.61 5.19a2.48 2.48 0 0 0 2.5 2.75 2.16 2.16 0 0 0 2.27-1.55h1.94a4.08 4.08 0 0 1-4.21 3.17c-2.92 0-4.56-2-4.56-4.9 0-2.65 1.73-4.92 4.5-4.92 2.94 0 4.74 2.65 4.39 5.44zm4.79-1.35a2.4 2.4 0 1 0-4.79 0zm11.42 3.4c0 .5.11.7.49.7a2.83 2.83 0 0 0 .5 0v1.42a5.16 5.16 0 0 1-1.3.23c-.83 0-1.42-.29-1.58-1.13a4.77 4.77 0 0 1-3.22 1.13c-1.67 0-3.19-.9-3.19-2.72 0-2.32 1.85-2.7 3.58-2.9 1.48-.27 2.79-.11 2.79-1.31s-1.1-1.26-1.93-1.26c-1.15 0-2 .47-2.05 1.48h-2.05c.14-2.39 2.18-3.1 4.23-3.1 1.82 0 3.73.74 3.73 2.7zm-2.05-2.59a7.31 7.31 0 0 1-2.52.56c-.88.14-1.67.47-1.67 1.55 0 .92 1.17 1.19 1.89 1.19.9 0 2.3-.47 2.3-1.76zm3.32-4.65h1.55v-2.79h2.05v2.79h1.85v1.53h-1.85v5c0 .85.07 1.28 1 1.28a3.49 3.49 0 0 0 .86-.07v1.58c-.45 0-.88.11-1.33.11-2.14 0-2.54-.83-2.57-2.38v-5.52h-1.56zm8.53 5.19a2.48 2.48 0 0 0 2.5 2.75 2.16 2.16 0 0 0 2.27-1.55h1.94a4.08 4.08 0 0 1-4.21 3.17c-2.92 0-4.56-2-4.56-4.9 0-2.65 1.73-4.92 4.5-4.92 2.94 0 4.74 2.65 4.39 5.44zm4.79-1.35a2.4 2.4 0 1 0-4.79 0zm16.42 3.4c0 .5.11.7.49.7a2.82 2.82 0 0 0 .5 0v1.42a5.15 5.15 0 0 1-1.3.23c-.83 0-1.42-.29-1.58-1.13a4.77 4.77 0 0 1-3.22 1.13c-1.67 0-3.19-.9-3.19-2.72 0-2.32 1.85-2.7 3.58-2.9 1.48-.27 2.79-.11 2.79-1.31s-1.1-1.26-1.93-1.26c-1.15 0-2 .47-2.05 1.48h-2.05c.14-2.39 2.18-3.1 4.23-3.1 1.82 0 3.73.74 3.73 2.7zm-2.05-2.59a7.31 7.31 0 0 1-2.52.56c-.88.14-1.67.47-1.67 1.55 0 .92 1.17 1.19 1.89 1.19.9 0 2.3-.47 2.3-1.76zm4.26-4.65h1.94v1.37a3.33 3.33 0 0 1 2.9-1.66c2 0 3.29 1.08 3.29 3.17v6.39H175v-5.81c0-1.46-.61-2.09-1.82-2.09A2.27 2.27 0 0 0 170.9 84v5.49h-2.05zm23.51 9.31h-2v-1.3a3.13 3.13 0 0 1-2.65 1.55c-2.43 0-3.47-1.22-3.47-3.65v-5.91h2.05v5.71c0 1.64.67 2.23 1.78 2.23 1.71 0 2.29-1.1 2.29-2.54v-5.4h2.05zm2.16-9.31h1.94v1.37A3.33 3.33 0 0 1 199.4 80c2 0 3.29 1.08 3.29 3.17v6.39h-2.05v-5.88c0-1.46-.61-2.09-1.82-2.09a2.27 2.27 0 0 0-2.25 2.41v5.49h-2.05zm10.33 0h1.93V82a3 3 0 0 1 2.75-2 4.87 4.87 0 0 1 .77.05v2a7.3 7.3 0 0 0-.88-.09c-1.4 0-2.52 1.13-2.52 3.19v4.43h-2.05zm6.39-3.55h2.05v1.94h-2.05zm0 3.55h2.05v9.31h-2.05zm3.37 0h2.23l2.36 7.15 2.27-7.15h2.12l-3.33 9.31H218zm18.05 7.24c0 .5.11.7.49.7a2.82 2.82 0 0 0 .5 0v1.42a5.15 5.15 0 0 1-1.3.23c-.83 0-1.42-.29-1.58-1.13a4.77 4.77 0 0 1-3.22 1.13c-1.67 0-3.19-.9-3.19-2.72 0-2.32 1.85-2.7 3.58-2.9 1.48-.27 2.79-.11 2.79-1.31s-1.1-1.26-1.93-1.26c-1.15 0-2 .47-2.05 1.48h-2.05c.14-2.39 2.18-3.1 4.23-3.1 1.82 0 3.73.74 3.73 2.7zm-2.05-2.59a7.31 7.31 0 0 1-2.52.56c-.88.14-1.67.47-1.67 1.55 0 .92 1.17 1.19 1.89 1.19.9 0 2.3-.47 2.3-1.76zm4.32-8.2H237v12.86h-2.05zm5.88 8.74a2.48 2.48 0 0 0 2.5 2.75 2.16 2.16 0 0 0 2.27-1.55h1.94a4.08 4.08 0 0 1-4.21 3.17c-2.92 0-4.56-2-4.56-4.9 0-2.65 1.73-4.92 4.5-4.92 2.94 0 4.74 2.65 4.39 5.44zm4.79-1.35a2.4 2.4 0 1 0-4.79 0zm12.4 5.47h-2v-1.26a3.09 3.09 0 0 1-2.88 1.51c-2.93 0-4.36-2.18-4.36-5 0-3.37 2-4.84 4-4.84a3.59 3.59 0 0 1 3.1 1.46v-4.73H258zm-4.59-1.37c1.84 0 2.61-1.67 2.61-3.3 0-2.05-1-3.28-2.57-3.28-1.93 0-2.61 1.71-2.61 3.39s.78 3.19 2.56 3.19zm13.41-2.75a2.48 2.48 0 0 0 2.5 2.75 2.16 2.16 0 0 0 2.27-1.55h1.94a4.08 4.08 0 0 1-4.21 3.17c-2.92 0-4.56-2-4.56-4.9 0-2.65 1.73-4.92 4.5-4.92 2.94 0 4.74 2.65 4.39 5.44zm4.79-1.35a2.4 2.4 0 1 0-4.79 0zm3.62-3.84h1.94v1.37a3.33 3.33 0 0 1 2.9-1.66c2 0 3.29 1.08 3.29 3.17v6.39h-2.05v-5.81c0-1.46-.61-2.09-1.82-2.09a2.27 2.27 0 0 0-2.21 2.41v5.49h-2.05zm9.41 0h2.23l2.36 7.15 2.27-7.15h2.12l-3.33 9.31H288zM295 76.67h2v1.94h-2zm0 3.55h2v9.31h-2zm4.24 0h1.93V82a3 3 0 0 1 2.75-2 4.87 4.87 0 0 1 .77.05v2a7.3 7.3 0 0 0-.88-.09c-1.4 0-2.52 1.13-2.52 3.19v4.43h-2.05zm5.58 4.64c0-2.84 1.71-4.9 4.7-4.9s4.7 2.05 4.7 4.9-1.71 4.92-4.7 4.92-4.7-2.05-4.7-4.92zm7.35 0c0-1.6-.81-3.28-2.65-3.28s-2.65 1.67-2.65 3.28.81 3.3 2.65 3.3 2.65-1.67 2.65-3.3zm3.76-4.64h1.94v1.37a3.33 3.33 0 0 1 2.9-1.66c2 0 3.29 1.08 3.29 3.17v6.39H322v-5.81c0-1.46-.61-2.09-1.82-2.09A2.27 2.27 0 0 0 318 84v5.49h-2.05zm10.33 0h1.94v1.3h.05a3.11 3.11 0 0 1 2.87-1.52 2.64 2.64 0 0 1 2.61 1.55 3.36 3.36 0 0 1 2.92-1.55c2 0 3.12.86 3.12 3.13v6.43h-2.05v-5.47c0-1.48-.09-2.5-1.69-2.5-1.39 0-2 .92-2 2.48v5.46H332v-6c0-1.28-.4-2-1.64-2a2.16 2.16 0 0 0-2 2.41v5.53h-2.05zm17.26 5.19a2.48 2.48 0 0 0 2.5 2.75 2.16 2.16 0 0 0 2.27-1.55h1.94a4.08 4.08 0 0 1-4.23 3.17c-2.92 0-4.56-2-4.56-4.9 0-2.65 1.73-4.92 4.5-4.92 2.94 0 4.74 2.65 4.39 5.44zm4.79-1.35a2.4 2.4 0 1 0-4.79 0zm3.62-3.84h1.94v1.37a3.33 3.33 0 0 1 2.9-1.66c2 0 3.29 1.08 3.29 3.17v6.39H358v-5.81c0-1.46-.61-2.09-1.82-2.09A2.27 2.27 0 0 0 354 84v5.49h-2.05zm9.39 0h1.55v-2.79h2.05v2.79h1.85v1.53h-1.85v5c0 .85.07 1.28 1 1.28a3.49 3.49 0 0 0 .86-.07v1.58c-.45 0-.88.11-1.33.11-2.14 0-2.54-.83-2.57-2.38v-5.52h-1.55zm11.02 0h1.53v-.77c0-2.38 1.24-2.77 2.57-2.77a5.78 5.78 0 0 1 1.44.13v1.6a3.49 3.49 0 0 0-1-.11c-.56 0-1 .2-1 1v1h1.75v1.53h-1.75v7.78h-2.05v-7.86h-1.53zm6.16 4.64c0-2.84 1.71-4.9 4.7-4.9s4.7 2.05 4.7 4.9-1.71 4.92-4.7 4.92-4.7-2.05-4.7-4.92zm7.35 0c0-1.6-.81-3.28-2.65-3.28s-2.65 1.67-2.65 3.28.81 3.3 2.65 3.3 2.64-1.67 2.64-3.3zm3.75-4.64h1.93V82a3 3 0 0 1 2.75-2 4.87 4.87 0 0 1 .77.05v2a7.3 7.3 0 0 0-.88-.09c-1.4 0-2.52 1.13-2.52 3.19v4.43h-2.05zm12.94 5.19a2.48 2.48 0 0 0 2.5 2.75 2.16 2.16 0 0 0 2.27-1.55h1.94a4.08 4.08 0 0 1-4.25 3.17c-2.92 0-4.56-2-4.56-4.9 0-2.65 1.73-4.92 4.5-4.92 2.94 0 4.74 2.65 4.39 5.44zm4.79-1.35a2.4 2.4 0 1 0-4.79 0zm6.12.57l-3.22-4.41h2.48l1.94 2.86 2-2.86h2.38l-3.17 4.3 3.56 5H417l-2.36-3.44-2.29 3.44h-2.41zm13.45-1.3a2 2 0 0 0-2.12-1.75c-1.06 0-2.56.56-2.56 3.39 0 1.55.68 3.19 2.47 3.19A2.21 2.21 0 0 0 426.9 86h2.1a4 4 0 0 1-4.27 3.75c-2.92 0-4.52-2.07-4.52-4.81s1.53-5 4.59-5c2.16 0 4 1.08 4.2 3.37zm5.32 2.08a2.48 2.48 0 0 0 2.5 2.75 2.16 2.16 0 0 0 2.28-1.55h1.94a4.08 4.08 0 0 1-4.21 3.17c-2.92 0-4.56-2-4.56-4.9 0-2.65 1.73-4.92 4.5-4.92 2.94 0 4.74 2.65 4.39 5.44zm4.78-1.36a2.4 2.4 0 1 0-4.79 0zm3.68-3.83h1.94v1.26a3.11 3.11 0 0 1 2.93-1.48c2.94 0 4.36 2.23 4.36 5 0 2.5-1.26 4.86-4 4.86a3.62 3.62 0 0 1-3.11-1.46V93h-2.05zm4.59 1.37c-1.73 0-2.61 1.31-2.61 3.29s1 3.28 2.61 3.28c1.87 0 2.57-1.66 2.57-3.28s-.84-3.29-2.56-3.29zm5.42-1.37h1.55v-2.79h2.05v2.79h1.85v1.53h-1.85v5c0 .85.07 1.28 1 1.28a3.49 3.49 0 0 0 .86-.07v1.58c-.45 0-.88.11-1.33.11-2.14 0-2.54-.83-2.57-2.38v-5.52h-1.55zm6.99-3.55h2.05v1.94h-2.05zm0 3.55h2.05v9.31h-2.05zm3.85 4.64c0-2.84 1.71-4.9 4.7-4.9s4.7 2.05 4.7 4.9-1.71 4.92-4.7 4.92-4.7-2.05-4.7-4.92zm7.35 0c0-1.6-.81-3.28-2.65-3.28s-2.65 1.67-2.65 3.28.81 3.3 2.65 3.3 2.64-1.67 2.64-3.3zm3.75-4.64h1.94v1.37a3.33 3.33 0 0 1 2.9-1.66c2 0 3.29 1.08 3.29 3.17v6.39h-2.05v-5.81c0-1.46-.61-2.09-1.82-2.09a2.27 2.27 0 0 0-2.2 2.41v5.49h-2.05zm18.13 7.24c0 .5.11.7.49.7a2.82 2.82 0 0 0 .5 0v1.42a5.15 5.15 0 0 1-1.3.23c-.83 0-1.42-.29-1.58-1.13a4.77 4.77 0 0 1-3.22 1.13c-1.67 0-3.19-.9-3.19-2.72 0-2.32 1.86-2.7 3.58-2.9 1.48-.27 2.79-.11 2.79-1.31s-1.1-1.26-1.93-1.26c-1.15 0-2 .47-2.05 1.48h-2.05c.15-2.43 2.2-3.1 4.2-3.1 1.82 0 3.73.74 3.73 2.7zm-2.05-2.59a7.3 7.3 0 0 1-2.52.56c-.88.14-1.67.47-1.67 1.55 0 .92 1.17 1.19 1.89 1.19.9 0 2.3-.47 2.3-1.76zm4.29-8.2h2.05v12.86H493zm9.37 3.55h1.94v1.26a3.11 3.11 0 0 1 2.92-1.48c2.93 0 4.36 2.23 4.36 5 0 2.5-1.26 4.86-4 4.86a3.62 3.62 0 0 1-3.12-1.46V93h-2.05zm4.63 1.37c-1.73 0-2.61 1.31-2.61 3.29s1 3.28 2.61 3.28c1.87 0 2.58-1.66 2.58-3.28s-.93-3.29-2.58-3.29zm7.92 3.82a2.48 2.48 0 0 0 2.5 2.75 2.16 2.16 0 0 0 2.27-1.55h1.94a4.08 4.08 0 0 1-4.21 3.17c-2.92 0-4.56-2-4.56-4.9 0-2.65 1.73-4.92 4.5-4.92 2.93 0 4.74 2.65 4.39 5.44zm4.79-1.35a2.4 2.4 0 1 0-4.79 0zm3.18.8c0-2.84 1.71-4.9 4.7-4.9s4.7 2.05 4.7 4.9-1.71 4.92-4.7 4.92-4.7-2.05-4.7-4.92zm7.35 0c0-1.6-.81-3.28-2.65-3.28s-2.65 1.67-2.65 3.28.81 3.3 2.65 3.3 2.65-1.67 2.65-3.3zm3.76-4.64h2v1.26a3.11 3.11 0 0 1 2.91-1.48c2.93 0 4.36 2.23 4.36 5 0 2.5-1.26 4.86-4 4.86a3.62 3.62 0 0 1-3.12-1.46V93H534zm4.59 1.37c-1.73 0-2.61 1.31-2.61 3.29s1 3.28 2.61 3.28c1.87 0 2.58-1.66 2.58-3.28s-.84-3.29-2.53-3.29zm6.41-4.92h2.05v12.86H545zm5.93 8.74a2.48 2.48 0 0 0 2.5 2.75 2.16 2.16 0 0 0 2.27-1.55h1.94a4.08 4.08 0 0 1-4.21 3.17c-2.92 0-4.56-2-4.56-4.9 0-2.65 1.73-4.92 4.5-4.92 2.93 0 4.74 2.65 4.39 5.44zm4.79-1.35a2.4 2.4 0 1 0-4.79 0zm3.78 3.04h2.5v2.43h-2.5zm5 0h2.5v2.43h-2.5zm5.01 0H572v2.43h-2.5zm-355.38 81.19h6.25c2.3 0 3.82 1 3.82 3.19a2.83 2.83 0 0 1-1.84 2.74 3.06 3.06 0 0 1 2.41 3.31c0 2-1.4 3.58-4.74 3.58h-5.91zm2.25 5.38h3.67a1.72 1.72 0 0 0 1.89-1.78c0-1.3-.67-1.76-1.89-1.76h-3.67zm0 5.64h4a1.91 1.91 0 0 0 2.16-2 1.89 1.89 0 0 0-2.16-2h-4zm9.1-7.48h2.25l2.43 7 2.36-7h2.14l-3.62 9.81c-.67 1.67-1.15 3.19-3.29 3.19a9.25 9.25 0 0 1-1.42-.11V183a5.91 5.91 0 0 0 1 .13c1 0 1.19-.5 1.44-1.3l.23-.72zm23.98 8.83c0 2.79-1.64 4.18-4.57 4.18-1.87 0-4-.72-4.16-2.9h2.05c.25 1.17 1.19 1.37 2.23 1.37a2.11 2.11 0 0 0 2.39-2.38v-1.43a3.19 3.19 0 0 1-2.79 1.64c-3 0-4.18-2.23-4.18-4.9 0-2.5 1.57-4.66 4.21-4.66a2.93 2.93 0 0 1 2.75 1.53v-1.28h2.05zm-2.05-4.37c0-1.6-.72-3.08-2.5-3.08s-2.45 1.69-2.45 3.24.74 3.08 2.45 3.08 2.5-1.66 2.5-3.25zm3.69.19c0-2.85 1.71-4.9 4.7-4.9s4.7 2.05 4.7 4.9-1.71 4.92-4.7 4.92-4.7-2.06-4.7-4.92zm7.35 0c0-1.6-.81-3.28-2.65-3.28s-2.65 1.67-2.65 3.28.81 3.29 2.65 3.29 2.64-1.67 2.64-3.29zm2.84-4.65h2.23l2.36 7.15 2.27-7.15h2.12l-3.27 9.31h-2.3zm11.86 5.17a2.48 2.48 0 0 0 2.5 2.75 2.16 2.16 0 0 0 2.27-1.55h1.94a4.08 4.08 0 0 1-4.21 3.17c-2.92 0-4.56-2-4.56-4.9 0-2.65 1.73-4.92 4.5-4.92 2.94 0 4.74 2.65 4.39 5.44zm4.79-1.35a2.4 2.4 0 1 0-4.79 0zm3.61-3.82h1.93v1.8a3 3 0 0 1 2.72-2.05 4.87 4.87 0 0 1 .77.05v2a7.3 7.3 0 0 0-.88-.09c-1.4 0-2.52 1.13-2.52 3.19v4.43h-2.05zm6.66 0h1.94v1.37a3.33 3.33 0 0 1 2.9-1.66c2 0 3.29 1.08 3.29 3.17v6.39h-2.05v-5.85c0-1.46-.61-2.09-1.82-2.09a2.27 2.27 0 0 0-2.25 2.45v5.49h-2.05zm10.39-3.54h2.05v1.94h-2.05zm0 3.55h2.05v9.31h-2.05zm4.28-.01h1.94v1.37a3.33 3.33 0 0 1 2.9-1.66c2 0 3.29 1.08 3.29 3.17v6.39H309v-5.85c0-1.46-.61-2.09-1.82-2.09a2.27 2.27 0 0 0-2.25 2.45v5.49h-2.05zm18.94 8.83c0 2.79-1.64 4.18-4.57 4.18-1.87 0-4-.72-4.16-2.9h2.05c.25 1.17 1.19 1.37 2.23 1.37a2.11 2.11 0 0 0 2.39-2.38v-1.43a3.19 3.19 0 0 1-2.79 1.64c-3 0-4.18-2.23-4.18-4.9 0-2.5 1.57-4.66 4.21-4.66a2.93 2.93 0 0 1 2.75 1.53v-1.28h2.05zm-2.05-4.37c0-1.6-.72-3.08-2.5-3.08s-2.45 1.69-2.45 3.24.74 3.08 2.45 3.08 2.5-1.66 2.5-3.25zm8.69.19c0-2.85 1.71-4.9 4.7-4.9s4.7 2.05 4.7 4.9-1.71 4.92-4.7 4.92-4.7-2.06-4.7-4.92zm7.35 0c0-1.6-.81-3.28-2.65-3.28s-2.65 1.67-2.65 3.28.81 3.29 2.65 3.29 2.65-1.67 2.65-3.29zm11.93 4.66h-2v-1.3a3.13 3.13 0 0 1-2.74 1.56c-2.43 0-3.47-1.22-3.47-3.66v-5.91h2.05v5.71c0 1.64.67 2.23 1.78 2.23 1.71 0 2.29-1.1 2.29-2.54v-5.4h2.05zm2.16-9.31h1.93v1.8a3 3 0 0 1 2.72-2.05 4.87 4.87 0 0 1 .77.05v2a7.3 7.3 0 0 0-.88-.09c-1.4 0-2.52 1.13-2.52 3.19v4.43h-2.02zm7.88 6.32c.11 1.19 1 1.62 2.11 1.62.77 0 2.12-.16 2.07-1.22s-1.55-1.21-3-1.55-3-.86-3-2.75 2.2-2.67 3.89-2.67c1.91 0 3.64.79 3.89 2.86h-2.14c-.18-1-1-1.24-1.89-1.24-.59 0-1.69.14-1.69 1 0 1 1.51 1.15 3 1.49s3 .88 3 2.72c0 2.21-2.23 3-4.16 3-2.34 0-4.09-1-4.12-3.24zm9.4-1.15a2.48 2.48 0 0 0 2.5 2.75 2.16 2.16 0 0 0 2.27-1.55h1.94a4.08 4.08 0 0 1-4.21 3.17c-2.92 0-4.56-2-4.56-4.9 0-2.65 1.73-4.92 4.5-4.92 2.94 0 4.74 2.65 4.39 5.44zm4.79-1.35a2.4 2.4 0 1 0-4.79 0zm3.67-7.36h2.05v12.86h-2.05zm3.36 3.54h2.23l2.37 7.17 2.27-7.15H388l-3.33 9.31h-2.3zm11.87 5.17a2.48 2.48 0 0 0 2.5 2.75 2.16 2.16 0 0 0 2.27-1.55h1.94a4.08 4.08 0 0 1-4.21 3.17c-2.92 0-4.56-2-4.56-4.9 0-2.65 1.73-4.92 4.5-4.92 2.94 0 4.74 2.65 4.39 5.44zm4.79-1.35a2.4 2.4 0 1 0-4.79 0zm5.16 2.5c.11 1.19 1 1.62 2.11 1.62.77 0 2.12-.16 2.07-1.22s-1.55-1.21-3-1.55-3-.86-3-2.75 2.2-2.67 3.89-2.67c1.91 0 3.64.79 3.89 2.86h-2.18c-.18-1-1-1.24-1.89-1.24-.59 0-1.69.14-1.69 1 0 1 1.51 1.15 3 1.49s3 .88 3 2.72c0 2.21-2.23 3-4.16 3-2.34 0-4.09-1-4.12-3.24zm20.59.92c0 .5.11.7.49.7a2.82 2.82 0 0 0 .5 0v1.42a5.17 5.17 0 0 1-1.3.23c-.83 0-1.42-.29-1.58-1.13a4.77 4.77 0 0 1-3.22 1.13c-1.67 0-3.19-.9-3.19-2.72 0-2.32 1.85-2.7 3.58-2.9 1.48-.27 2.79-.11 2.79-1.31s-1.1-1.26-1.93-1.26c-1.15 0-2 .47-2.05 1.48h-2.05c.14-2.39 2.18-3.1 4.23-3.1 1.82 0 3.73.74 3.73 2.7zm-2.05-2.59a7.31 7.31 0 0 1-2.52.56c-.88.14-1.67.47-1.67 1.55 0 .92 1.17 1.19 1.89 1.19.9 0 2.3-.47 2.3-1.76zm5.81 1.67c.11 1.19 1 1.62 2.11 1.62.77 0 2.12-.16 2.07-1.22s-1.55-1.21-3-1.55-3-.86-3-2.75 2.2-2.67 3.89-2.67c1.91 0 3.64.79 3.89 2.86H429c-.18-1-1-1.24-1.89-1.24-.59 0-1.69.14-1.69 1 0 1 1.51 1.15 3 1.49s3 .88 3 2.72c0 2.21-2.23 3-4.16 3-2.34 0-4.09-1-4.12-3.24zm12.37-1.67c0-2.85 1.71-4.9 4.7-4.9s4.7 2.05 4.7 4.9-1.71 4.92-4.7 4.92-4.7-2.06-4.7-4.92zm7.35 0c0-1.6-.81-3.28-2.65-3.28s-2.65 1.67-2.65 3.28.81 3.29 2.65 3.29 2.65-1.67 2.65-3.29zm3.76-4.65h1.94v1.37a3.33 3.33 0 0 1 2.9-1.66c2 0 3.29 1.08 3.29 3.17v6.39h-2.05v-5.85c0-1.46-.61-2.09-1.82-2.09a2.27 2.27 0 0 0-2.25 2.45v5.49h-2.05zm11.93 5.17a2.48 2.48 0 0 0 2.5 2.75 2.16 2.16 0 0 0 2.27-1.55h1.94a4.08 4.08 0 0 1-4.21 3.17c-2.92 0-4.55-2-4.55-4.9 0-2.65 1.73-4.92 4.5-4.92 2.93 0 4.74 2.65 4.39 5.44zm4.79-1.35a2.4 2.4 0 1 0-4.79 0zm8.91-7.36h8.88v1.94h-6.63v3.37h5.82v1.84h-5.82v5.71h-2.25zm10.44 0h2.05v1.94h-2.05zm0 3.55h2.05v9.31h-2.05zm4.28-.01h1.93v1.8a3 3 0 0 1 2.72-2.05 4.89 4.89 0 0 1 .78.05v2a7.33 7.33 0 0 0-.88-.09c-1.4 0-2.52 1.13-2.52 3.19v4.43H489zm6.34 0h1.94v1.3h.05a3.11 3.11 0 0 1 2.86-1.55 2.64 2.64 0 0 1 2.61 1.55 3.36 3.36 0 0 1 2.92-1.55c2 0 3.12.86 3.12 3.13v6.43h-2.05v-5.44c0-1.48-.09-2.5-1.69-2.5-1.39 0-2 .92-2 2.48v5.46h-2.05v-6c0-1.28-.4-2-1.64-2a2.16 2.16 0 0 0-2 2.41v5.53h-2.05zm20.72 0H518v1.26a3.11 3.11 0 0 1 2.88-1.51c2.93 0 4.36 2.23 4.36 5 0 2.5-1.26 4.86-4 4.86a3.62 3.62 0 0 1-3.12-1.46v4.64h-2.05zm4.59 1.37c-1.73 0-2.61 1.31-2.61 3.29s1 3.28 2.61 3.28c1.87 0 2.58-1.66 2.58-3.28s-.89-3.29-2.58-3.29zm14.15 5.87c0 .5.11.7.49.7a2.83 2.83 0 0 0 .5 0v1.42a5.18 5.18 0 0 1-1.3.23c-.83 0-1.42-.29-1.58-1.13a4.78 4.78 0 0 1-3.22 1.13c-1.67 0-3.19-.9-3.19-2.72 0-2.32 1.85-2.7 3.58-2.9 1.48-.27 2.79-.11 2.79-1.31s-1.1-1.26-1.93-1.26c-1.15 0-2 .47-2.05 1.48h-2.05c.14-2.39 2.18-3.1 4.23-3.1 1.82 0 3.73.74 3.73 2.7zm-2.05-2.59a7.31 7.31 0 0 1-2.52.56c-.88.14-1.67.47-1.67 1.55 0 .92 1.17 1.19 1.89 1.19.9 0 2.3-.47 2.3-1.76zm4.25-4.65h1.93v1.8a3 3 0 0 1 2.72-2.05 4.88 4.88 0 0 1 .77.05v2a7.31 7.31 0 0 0-.88-.09c-1.4 0-2.52 1.13-2.52 3.19v4.43H537z"/><path class="b" d="M542.41 171.83H544V169h2v2.79h1.85v1.53H546v5c0 .85.07 1.28 1 1.28a3.49 3.49 0 0 0 .86-.07v1.58c-.45 0-.88.11-1.33.11-2.14 0-2.54-.83-2.58-2.38v-5.49h-1.55zm6.93 0h1.94v1.37a3.33 3.33 0 0 1 2.9-1.66c2 0 3.29 1.08 3.29 3.17v6.39h-2.05v-5.85c0-1.46-.61-2.09-1.82-2.09a2.27 2.27 0 0 0-2.25 2.45v5.49h-2.05zm11.93 5.17a2.48 2.48 0 0 0 2.5 2.75 2.16 2.16 0 0 0 2.27-1.55H568a4.08 4.08 0 0 1-4.21 3.17c-2.92 0-4.56-2-4.56-4.9 0-2.65 1.73-4.92 4.5-4.92 2.93 0 4.74 2.65 4.39 5.44zm4.79-1.35a2.4 2.4 0 1 0-4.79 0zm3.62-3.82h1.93v1.8a3 3 0 0 1 2.72-2.05 4.88 4.88 0 0 1 .77.05v2a7.31 7.31 0 0 0-.88-.09c-1.4 0-2.52 1.13-2.52 3.19v4.43h-2.05zm7.88 6.32c.11 1.19 1 1.62 2.11 1.62.77 0 2.13-.16 2.07-1.22s-1.55-1.21-3-1.55-3-.86-3-2.75 2.2-2.67 3.89-2.67c1.91 0 3.64.79 3.89 2.86h-2.14c-.18-1-1-1.24-1.89-1.24-.59 0-1.69.14-1.69 1 0 1 1.51 1.15 3 1.49s3 .88 3 2.72c0 2.21-2.23 3-4.16 3-2.34 0-4.09-1-4.12-3.24zm7.79-9.86h2.05v4.77a3.26 3.26 0 0 1 2.79-1.48c2 0 3.29 1.08 3.29 3.17v6.39h-2.05v-5.85c0-1.46-.61-2.09-1.82-2.09a2.27 2.27 0 0 0-2.25 2.45v5.49h-2.05zm10.39 0h2.05v1.94h-2.05zm0 3.55h2.05v9.31h-2.05zm4.34-.01H602v1.26a3.11 3.11 0 0 1 2.88-1.51c2.93 0 4.36 2.23 4.36 5 0 2.5-1.26 4.86-4 4.86a3.62 3.62 0 0 1-3.12-1.46v4.64h-2.05zm4.59 1.37c-1.73 0-2.61 1.31-2.61 3.29s1 3.28 2.61 3.28c1.87 0 2.58-1.66 2.58-3.28s-.89-3.29-2.58-3.29zm6.51 5.51h2.5v2.43h-2.5zM312.22 259.1h8.88v1.9h-6.63v3.37h5.82v1.84h-5.82V272h-2.25zm18.18 10.78c0 .5.11.7.49.7a2.82 2.82 0 0 0 .5 0V272a5.13 5.13 0 0 1-1.3.23c-.83 0-1.42-.29-1.58-1.13a4.77 4.77 0 0 1-3.22 1.13c-1.67 0-3.19-.9-3.19-2.72 0-2.32 1.85-2.7 3.58-2.9 1.48-.27 2.79-.11 2.79-1.31s-1.1-1.26-1.93-1.26c-1.15 0-2 .47-2.05 1.48h-2.05c.14-2.39 2.18-3.1 4.23-3.1 1.82 0 3.73.74 3.73 2.7zm-2.05-2.59a7.33 7.33 0 0 1-2.52.56c-.88.14-1.67.47-1.67 1.55 0 .92 1.17 1.19 1.89 1.19.9 0 2.3-.47 2.3-1.76zm4.32-8.19h2.05v1.9h-2.05zm0 3.55h2.05V272h-2.05zm4.33-.01h1.93v1.8a3 3 0 0 1 2.72-2.05 5 5 0 0 1 .77.05v2a7.3 7.3 0 0 0-.88-.09c-1.4 0-2.52 1.13-2.52 3.19V272H337zm6.61 0h1.94V264a3.33 3.33 0 0 1 2.9-1.66c2 0 3.29 1.08 3.29 3.17V272h-2.05v-5.9c0-1.46-.61-2.09-1.82-2.09a2.27 2.27 0 0 0-2.25 2.45V272h-2.05zm11.94 5.19a2.48 2.48 0 0 0 2.5 2.75 2.16 2.16 0 0 0 2.27-1.55h1.94a4.08 4.08 0 0 1-4.26 3.17c-2.92 0-4.56-2-4.56-4.9 0-2.65 1.73-4.92 4.5-4.92 2.94 0 4.74 2.65 4.39 5.44zm4.79-1.35a2.4 2.4 0 1 0-4.79 0zm5.16 2.52c.11 1.19 1 1.62 2.11 1.62.77 0 2.12-.16 2.07-1.22s-1.55-1.21-3-1.55-3-.86-3-2.75 2.2-2.66 3.89-2.66c1.91 0 3.64.79 3.89 2.86h-2.14c-.18-1-1-1.24-1.89-1.24-.59 0-1.69.14-1.69 1 0 1 1.51 1.15 3 1.5s3 .88 3 2.72c0 2.21-2.23 3-4.16 3-2.34 0-4.09-1-4.12-3.24zm9.34 0c.11 1.19 1 1.62 2.11 1.62.77 0 2.12-.16 2.07-1.22s-1.55-1.21-3-1.55-3-.86-3-2.75 2.2-2.66 3.89-2.66c1.91 0 3.64.79 3.89 2.86h-2.14c-.18-1-1-1.24-1.89-1.24-.59 0-1.69.14-1.69 1 0 1 1.51 1.15 3 1.5s3 .88 3 2.72c0 2.21-2.23 3-4.16 3-2.34 0-4.09-1-4.12-3.24zm20.6.88c0 .5.11.7.49.7a2.83 2.83 0 0 0 .5 0V272a5.14 5.14 0 0 1-1.3.23c-.83 0-1.42-.29-1.58-1.13a4.78 4.78 0 0 1-3.22 1.13c-1.67 0-3.19-.9-3.19-2.72 0-2.32 1.85-2.7 3.58-2.9 1.48-.27 2.79-.11 2.79-1.31s-1.1-1.26-1.93-1.26c-1.15 0-2 .47-2.05 1.48h-2.05c.14-2.39 2.18-3.1 4.23-3.1 1.82 0 3.73.74 3.73 2.7zm-2.05-2.59a7.33 7.33 0 0 1-2.52.56c-.88.14-1.67.47-1.67 1.55 0 .92 1.17 1.19 1.89 1.19.9 0 2.3-.47 2.3-1.76zm4.26-4.65h1.94v1.3h.05a3.11 3.11 0 0 1 2.86-1.55 2.64 2.64 0 0 1 2.61 1.55 3.36 3.36 0 0 1 2.92-1.55c2 0 3.12.86 3.12 3.13V272h-2.05v-5.44c0-1.48-.09-2.5-1.69-2.5-1.39 0-2 .92-2 2.48V272h-2.05v-6c0-1.28-.4-2-1.64-2a2.16 2.16 0 0 0-2 2.41V272h-2.05zm15.23 4.65c0-2.84 1.71-4.9 4.7-4.9s4.7 2.05 4.7 4.9-1.71 4.92-4.7 4.92-4.7-2.06-4.7-4.92zm7.35 0c0-1.6-.81-3.28-2.65-3.28s-2.65 1.67-2.65 3.28.81 3.29 2.65 3.29 2.64-1.67 2.64-3.29zm3.77-4.65h1.94V264a3.33 3.33 0 0 1 2.9-1.66c2 0 3.29 1.08 3.29 3.17V272h-2.03v-5.9c0-1.46-.61-2.09-1.82-2.09a2.27 2.27 0 0 0-2.25 2.45V272H424zm18.92 8.83c0 2.79-1.64 4.18-4.57 4.18-1.87 0-4-.72-4.16-2.9h2.05c.25 1.17 1.19 1.37 2.23 1.37a2.11 2.11 0 0 0 2.39-2.38v-1.42A3.19 3.19 0 0 1 438 272c-3 0-4.18-2.23-4.18-4.9 0-2.5 1.57-4.66 4.21-4.66a2.92 2.92 0 0 1 2.75 1.53v-1.28h2.05zm-2.05-4.37c0-1.6-.72-3.08-2.5-3.08s-2.45 1.69-2.45 3.24.74 3.08 2.45 3.08 2.5-1.67 2.5-3.25zm9.13-4.46h2v1.26a3.11 3.11 0 0 1 2.88-1.51c2.94 0 4.36 2.23 4.36 5 0 2.5-1.26 4.86-4 4.86a3.62 3.62 0 0 1-3.11-1.46v4.65H450zm4.59 1.37c-1.73 0-2.61 1.31-2.61 3.29s1 3.28 2.61 3.28c1.87 0 2.57-1.66 2.57-3.28s-.83-3.3-2.52-3.3zm14.2 5.87c0 .5.11.7.49.7a2.82 2.82 0 0 0 .5 0V272a5.13 5.13 0 0 1-1.3.23c-.83 0-1.42-.29-1.58-1.13a4.78 4.78 0 0 1-3.22 1.13c-1.67 0-3.19-.9-3.19-2.72 0-2.32 1.86-2.7 3.58-2.9 1.48-.27 2.79-.11 2.79-1.31s-1.1-1.26-1.93-1.26c-1.15 0-2 .47-2.05 1.48h-2.05c.14-2.39 2.18-3.1 4.23-3.1 1.82 0 3.73.74 3.73 2.7zm-2.05-2.59a7.33 7.33 0 0 1-2.52.56c-.88.14-1.67.47-1.67 1.55 0 .92 1.17 1.19 1.89 1.19.9 0 2.3-.47 2.3-1.76zm4.26-4.65h1.93v1.8a3 3 0 0 1 2.72-2.05 5 5 0 0 1 .78.05v2a7.33 7.33 0 0 0-.88-.09c-1.4 0-2.52 1.13-2.52 3.19V272H471z"/><path class="b" d="M476.4 262.64h1.55v-2.79H480v2.79h1.85v1.53H480v5c0 .85.07 1.28 1 1.28a3.49 3.49 0 0 0 .86-.07v1.58c-.45 0-.88.11-1.33.11-2.14 0-2.54-.83-2.57-2.38v-5.49h-1.56zm6.93 0h1.95V264a3.33 3.33 0 0 1 2.9-1.66c2 0 3.29 1.08 3.29 3.17V272h-2.05v-5.9c0-1.46-.61-2.09-1.82-2.09a2.27 2.27 0 0 0-2.25 2.45V272h-2.05zm11.93 5.19a2.48 2.48 0 0 0 2.5 2.75A2.16 2.16 0 0 0 500 269h2a4.07 4.07 0 0 1-4.21 3.17c-2.92 0-4.55-2-4.55-4.9 0-2.65 1.73-4.92 4.5-4.92 2.94 0 4.74 2.65 4.39 5.44zm4.79-1.35a2.4 2.4 0 1 0-4.79 0zm3.62-3.84h1.93v1.8a3 3 0 0 1 2.72-2.05 5 5 0 0 1 .77.05v2a7.31 7.31 0 0 0-.88-.09c-1.41 0-2.52 1.13-2.52 3.19V272h-2.05zm7.88 6.36c.11 1.19 1 1.62 2.11 1.62.77 0 2.12-.16 2.07-1.22s-1.55-1.21-3-1.55-3-.86-3-2.75 2.2-2.66 3.89-2.66c1.91 0 3.64.79 3.89 2.86h-2.14c-.18-1-1-1.24-1.89-1.24-.59 0-1.69.14-1.69 1 0 1 1.51 1.15 3 1.5s3 .88 3 2.72c0 2.21-2.23 3-4.16 3-2.34 0-4.09-1-4.12-3.24zm20.59.88c0 .5.11.7.49.7a2.84 2.84 0 0 0 .5 0V272a5.15 5.15 0 0 1-1.3.23c-.83 0-1.42-.29-1.58-1.13a4.78 4.78 0 0 1-3.25 1.1c-1.67 0-3.19-.9-3.19-2.72 0-2.32 1.85-2.7 3.58-2.9 1.48-.27 2.79-.11 2.79-1.31s-1.1-1.26-1.93-1.26c-1.15 0-2 .47-2.05 1.48h-2.05c.14-2.39 2.18-3.1 4.23-3.1 1.82 0 3.73.74 3.73 2.7zm-2.05-2.59a7.34 7.34 0 0 1-2.52.56c-.88.14-1.67.47-1.67 1.55 0 .92 1.17 1.19 1.89 1.19.9 0 2.3-.47 2.3-1.76zm4.27-4.65h1.95V264a3.33 3.33 0 0 1 2.9-1.66c2 0 3.29 1.08 3.29 3.17V272h-2.05v-5.9c0-1.46-.61-2.09-1.82-2.09a2.27 2.27 0 0 0-2.25 2.45V272h-2.05zm19.1 9.36h-1.94v-1.26a3.09 3.09 0 0 1-2.88 1.51c-2.93 0-4.36-2.18-4.36-5 0-3.37 2-4.84 4-4.84a3.59 3.59 0 0 1 3.1 1.46v-4.77h2.05zm-4.59-1.37c1.84 0 2.61-1.67 2.61-3.29 0-2.05-1-3.28-2.57-3.28-1.93 0-2.61 1.71-2.61 3.38s.78 3.14 2.57 3.14zm18.13-4.87a2 2 0 0 0-2.12-1.75c-1.06 0-2.56.56-2.56 3.38 0 1.55.68 3.19 2.47 3.19a2.21 2.21 0 0 0 2.21-2.12h2a4 4 0 0 1-4.27 3.75c-2.92 0-4.52-2.07-4.52-4.81s1.53-5 4.59-5c2.16 0 4 1.08 4.2 3.37zm3.75-6.66h2.05V272h-2.05zm4.34 0h2.05v1.9h-2.05zm0 3.55h2.05V272h-2.05zm5.91 5.18a2.48 2.48 0 0 0 2.5 2.75 2.16 2.16 0 0 0 2.27-1.55h1.94a4.08 4.08 0 0 1-4.21 3.17c-2.92 0-4.56-2-4.56-4.9 0-2.65 1.73-4.92 4.5-4.92 2.93 0 4.74 2.65 4.39 5.44zm4.79-1.35a2.4 2.4 0 1 0-4.79 0zm3.59-3.84h1.95V264a3.33 3.33 0 0 1 2.9-1.66c2 0 3.29 1.08 3.29 3.17V272h-2.02v-5.9c0-1.46-.61-2.09-1.82-2.09a2.27 2.27 0 0 0-2.25 2.45V272h-2.05zm9.4 0h1.55v-2.79h2.05v2.79h1.85v1.53h-1.85v5c0 .85.07 1.28 1 1.28a3.49 3.49 0 0 0 .86-.07v1.58c-.45 0-.88.11-1.33.11-2.14 0-2.54-.83-2.58-2.38v-5.49h-1.55zm8.48 6.36c.11 1.19 1 1.62 2.11 1.62.77 0 2.13-.16 2.07-1.22s-1.55-1.21-3-1.55-3-.86-3-2.75 2.2-2.66 3.89-2.66c1.91 0 3.64.79 3.89 2.86H611c-.18-1-1-1.24-1.89-1.24-.59 0-1.69.14-1.69 1 0 1 1.51 1.15 3 1.5s3 .88 3 2.72c0 2.21-2.23 3-4.16 3-2.34 0-4.09-1-4.12-3.24zm14.34 0c.11 1.19 1 1.62 2.11 1.62.77 0 2.13-.16 2.07-1.22s-1.55-1.21-3-1.55-3-.86-3-2.75 2.2-2.66 3.89-2.66c1.91 0 3.64.79 3.89 2.86h-2.14c-.18-1-1-1.24-1.89-1.24-.59 0-1.69.14-1.69 1 0 1 1.51 1.15 3 1.5s3 .88 3 2.72c0 2.21-2.23 3-4.16 3-2.34 0-4.09-1-4.12-3.24zm7.79-9.9h2.05v4.77a3.26 3.26 0 0 1 2.79-1.48c2 0 3.29 1.08 3.29 3.17V272h-2.05v-5.9c0-1.46-.61-2.09-1.82-2.09a2.27 2.27 0 0 0-2.25 2.45V272h-2.05zm9.9 8.19c0-2.84 1.71-4.9 4.7-4.9s4.7 2.05 4.7 4.9-1.69 4.91-4.69 4.91-4.71-2.05-4.71-4.91zm7.35 0c0-1.6-.81-3.28-2.65-3.28s-2.65 1.67-2.65 3.28.81 3.29 2.65 3.29 2.65-1.67 2.65-3.29zm11.94 4.71h-2v-1.3a3.13 3.13 0 0 1-2.65 1.55c-2.43 0-3.48-1.22-3.48-3.66v-5.91h2.05v5.71c0 1.64.67 2.23 1.78 2.23 1.71 0 2.29-1.1 2.29-2.54v-5.4h2.05zm2.21-12.9h2.05V272h-2.05zm13.05 12.9h-1.94v-1.26a3.09 3.09 0 0 1-2.9 1.46c-2.93 0-4.36-2.18-4.36-5 0-3.37 2-4.84 4-4.84a3.59 3.59 0 0 1 3.1 1.46v-4.72h2.05zm-4.59-1.37c1.84 0 2.61-1.67 2.61-3.29 0-2.05-1-3.28-2.57-3.28-1.93 0-2.61 1.71-2.61 3.38s.78 3.14 2.57 3.14zm11.88-11.53h2.05v4.75a3.39 3.39 0 0 1 2.77-1.46c2.93 0 4.36 2.23 4.36 5 0 2.5-1.26 4.86-4 4.86a3.32 3.32 0 0 1-3.22-1.53V272h-1.94zm4.59 4.92c-1.73 0-2.61 1.31-2.61 3.29s1 3.28 2.61 3.28c1.87 0 2.58-1.66 2.58-3.28s-.89-3.31-2.58-3.31zm7.95 3.81a2.48 2.48 0 0 0 2.5 2.75 2.16 2.16 0 0 0 2.27-1.55h1.94a4.08 4.08 0 0 1-4.21 3.17c-2.92 0-4.56-2-4.56-4.9 0-2.65 1.73-4.92 4.5-4.92 2.93 0 4.74 2.65 4.39 5.44zm4.79-1.35a2.4 2.4 0 1 0-4.79 0zm17.23 4.99c0 2.79-1.64 4.18-4.57 4.18-1.87 0-4-.72-4.16-2.9H709c.25 1.17 1.19 1.37 2.23 1.37a2.11 2.11 0 0 0 2.4-2.38v-1.42a3.19 3.19 0 0 1-2.79 1.64c-3 0-4.18-2.23-4.18-4.9 0-2.5 1.57-4.66 4.21-4.66a2.93 2.93 0 0 1 2.75 1.53v-1.28h2.05zm-2.05-4.37c0-1.6-.72-3.08-2.5-3.08s-2.45 1.69-2.45 3.24.74 3.08 2.45 3.08 2.5-1.67 2.5-3.25zm12.29 4.9h-2v-1.3a3.13 3.13 0 0 1-2.65 1.55c-2.43 0-3.48-1.22-3.48-3.66v-5.91h2.05v5.71c0 1.64.67 2.23 1.78 2.23 1.71 0 2.29-1.1 2.29-2.54v-5.4h2.05zm9.95-2.12c0 .5.11.7.49.7a2.83 2.83 0 0 0 .5 0V272a5.14 5.14 0 0 1-1.3.23c-.83 0-1.42-.29-1.58-1.13a4.78 4.78 0 0 1-3.22 1.13c-1.67 0-3.19-.9-3.19-2.72 0-2.32 1.85-2.7 3.58-2.9 1.48-.27 2.79-.11 2.79-1.31s-1.09-1.3-1.95-1.3c-1.15 0-2 .47-2.05 1.48h-2.05c.14-2.39 2.18-3.1 4.23-3.1 1.82 0 3.73.74 3.73 2.7zm-2.05-2.59a7.34 7.34 0 0 1-2.52.56c-.88.14-1.67.47-1.67 1.55 0 .92 1.17 1.19 1.89 1.19.9 0 2.3-.47 2.3-1.76zm4.27-4.65h1.9v1.8a3 3 0 0 1 2.72-2.05 5 5 0 0 1 .77.05v2a7.31 7.31 0 0 0-.88-.09c-1.4 0-2.52 1.13-2.52 3.19V272h-1.99zm14.13 7.24c0 .5.11.7.49.7a2.83 2.83 0 0 0 .5 0V272a5.14 5.14 0 0 1-1.3.23c-.83 0-1.42-.29-1.58-1.13a4.78 4.78 0 0 1-3.22 1.13c-1.67 0-3.19-.9-3.19-2.72 0-2.32 1.85-2.7 3.58-2.9 1.48-.27 2.79-.11 2.79-1.31s-1.1-1.26-1.93-1.26c-1.15 0-2 .47-2.05 1.48h-2.05c.14-2.39 2.18-3.1 4.23-3.1 1.82 0 3.73.74 3.73 2.7zm-2.05-2.59a7.34 7.34 0 0 1-2.52.56c-.88.14-1.67.47-1.67 1.55 0 .92 1.17 1.19 1.89 1.19.9 0 2.3-.47 2.3-1.76zm4.26-4.65h1.95V264a3.33 3.33 0 0 1 2.9-1.66c2 0 3.29 1.08 3.29 3.17V272h-2.05v-5.9c0-1.46-.61-2.09-1.82-2.09a2.27 2.27 0 0 0-2.25 2.45V272h-2.05zm9.4 0h1.55v-2.79h2.05v2.79h1.85v1.53h-1.85v5c0 .85.07 1.28 1 1.28a3.49 3.49 0 0 0 .86-.07v1.58c-.45 0-.88.11-1.33.11-2.14 0-2.54-.83-2.58-2.38v-5.49h-1.55zm8.53 5.19a2.48 2.48 0 0 0 2.5 2.75 2.16 2.16 0 0 0 2.27-1.55h1.94a4.08 4.08 0 0 1-4.21 3.17c-2.92 0-4.56-2-4.56-4.9 0-2.65 1.73-4.92 4.5-4.92 2.93 0 4.74 2.65 4.39 5.44zm4.79-1.35a2.4 2.4 0 1 0-4.79 0zm5.22 1.35a2.48 2.48 0 0 0 2.5 2.75 2.16 2.16 0 0 0 2.27-1.55h1.94a4.08 4.08 0 0 1-4.21 3.17c-2.92 0-4.56-2-4.56-4.9 0-2.65 1.73-4.92 4.5-4.92 2.93 0 4.74 2.65 4.39 5.44zm4.79-1.35a2.4 2.4 0 1 0-4.79 0zm12.38 5.52h-1.94v-1.26a3.09 3.09 0 0 1-2.88 1.51c-2.93 0-4.36-2.18-4.36-5 0-3.37 2-4.84 4-4.84a3.59 3.59 0 0 1 3.1 1.46v-4.77h2.05zm-4.55-1.42c1.84 0 2.61-1.67 2.61-3.29 0-2.05-1-3.28-2.57-3.28-1.93 0-2.61 1.71-2.61 3.38s.75 3.19 2.57 3.19zm6.94-1.06h2.5V272h-2.5z"/><path class="c" d="M559.57 156.74l25.49-29h-13.2v-27.22h-24.58v27.22h-13.2l25.49 29zm57.81 91.21l25.48-29h-13.2v-27.22h-24.57v27.22h-13.21l25.5 29z"/></svg>