<svg id="Layer_1" xmlns="http://www.w3.org/2000/svg" viewBox="0 0 540 540"><style>.st0{fill:#1e2e5e}.st1{fill:none;stroke:#fff;stroke-width:5;stroke-miterlimit:10}.st2{fill:#5dc8d7}.st3{fill:#fff;stroke:#333;stroke-width:5;stroke-miterlimit:10}.st4{fill:#333}.st5{fill:#5dc8d7;stroke:#333;stroke-width:4;stroke-miterlimit:10}.st6{fill:none}.st7{font-family:&apos;HelveticaNeueLTStd-Md&apos;}.st8{font-size:67.3418px}</style><path class="st3" d="M323.8 390.9h-148c-2 0-3.5-1.6-3.5-3.5V129.3c0-2 1.6-3.5 3.5-3.5h186.8c2 0 3.5 1.6 3.5 3.5v219.3c0 .9-.4 1.8-1 2.5L326.2 390c-.5.6-1.4.9-2.4.9z"/><path class="st4" d="M367.7 348.5l-43.9 42.4v-42.4z"/><path class="st5" d="M322.1 389.8V351c0-2 1.6-3.5 3.5-3.5h38.9"/><path class="st3" d="M343.3 299.6H194M343.3 319H194m70 19.4h-70m149.3-77.6H194m149.3 19.4H194"/><path class="st6" d="M185.6 171.3h166.3v76.3H185.6z"/><text transform="translate(194.498 219.402)" class="st4 st7 st8">MSA</text></svg>