<svg id="Layer_1" data-name="Layer 1" xmlns="http://www.w3.org/2000/svg" viewBox="0 0 540 415.3"><defs><style>.cls-1{fill:#4057a7}.cls-2{fill:#192530}.cls-10,.cls-3{fill:#5fc8d7}.cls-11,.cls-12,.cls-13,.cls-14,.cls-4,.cls-8,.cls-9{fill:none}.cls-12,.cls-13,.cls-14,.cls-4,.cls-5,.cls-8{stroke:#333}.cls-14,.cls-4,.cls-5,.cls-8,.cls-9{stroke-miterlimit:10}.cls-10,.cls-11,.cls-4,.cls-5,.cls-9{stroke-width:2.5px}.cls-5,.cls-7{fill:#2dabe2}.cls-6{fill:#333}.cls-8{stroke-width:5px}.cls-10,.cls-11,.cls-9{stroke:#424242}.cls-10,.cls-11,.cls-12,.cls-13{stroke-linejoin:round}.cls-12,.cls-13,.cls-14{stroke-width:2px}.cls-13{stroke-linecap:round}</style></defs><title>c-405</title><g id="_Group_" data-name="&lt;Group&gt;"><path class="cls-1" d="M426.4 125.3h.1a13.1 13.1 0 0 1-26.3 0zM447 125.3h26.2a13.1 13.1 0 0 1-26.3 0z"/><path class="cls-2" d="M413.4 139.4a14.2 14.2 0 0 1-14.1-14.1h2a12.2 12.2 0 0 0 24.3 0h.9v-1h.1a1 1 0 0 1 1 1 14.2 14.2 0 0 1-14.2 14.1zM413.4 94.5h23.3v1.99h-23.3z"/><path class="cls-2" d="M426.4 126.3h-26.2a1 1 0 0 1-.9-1.4l13.1-29.8a1 1 0 0 1 1.8 0l13.1 29.8a1 1 0 0 1-.9 1.4zm-24.7-2h23.2L413.3 98zM460.1 139.4a14.2 14.2 0 0 1-14.1-14.1 1 1 0 0 1 1-1h.1v1h.9a12.2 12.2 0 0 0 24.3 0h2a14.2 14.2 0 0 1-14.2 14.1zM436.7 94.5H460v1.99h-23.3z"/><path class="cls-2" d="M473.2 126.3H447a1 1 0 0 1-.9-1.4l13.1-29.8a1 1 0 0 1 1.8 0l13.1 29.8a1 1 0 0 1-.9 1.4zm-24.7-2h23.2L460.1 98zM455.2 154.2h-36.5a3.5 3.5 0 0 1-3.5-3.5 3.5 3.5 0 0 1 3.5-3.5h15.7v2h-15.7a1.5 1.5 0 0 0-1.5 1.5 1.5 1.5 0 0 0 1.5 1.5h36.5a1.5 1.5 0 0 0 0-3h-15.8v-2h15.7a3.5 3.5 0 0 1 0 7z"/><path class="cls-2" d="M439.4 149.2h-5a1 1 0 0 1-1-1V91.6a3.5 3.5 0 0 1 7 0v56.6a1 1 0 0 1-1 1zm-4-2h3V91.6a1.5 1.5 0 0 0-3 0z"/><path class="cls-2" d="M434.4 98.6h5v1.99h-5z"/></g><g id="_Group_2" data-name="&lt;Group&gt;"><path class="cls-3" d="M455.6 241.6v2.5h-9.5v-14.2h9.5v11.7zM446.1 220.8h9.5v5.13h-9.5zM446.1 211.7h9.5v5.13h-9.5zM432 239h9.5v5.13H432zM432 229.9h9.5v5.12H432zM432 220.8h9.5v5.13H432zM432 211.7h9.5v5.13H432zM417.8 239h9.5v5.13h-9.5zM417.8 229.9h9.5v5.12h-9.5zM417.8 220.8h9.5v5.13h-9.5zM417.8 211.7h9.5v5.13h-9.5z"/><path class="cls-2" d="M458.2 251.5h-42.9a4.7 4.7 0 0 1-4.7-4.7v-62.5a4.7 4.7 0 0 1 4.7-4.7h42.9a4.7 4.7 0 0 1 4.7 4.7v62.4a4.7 4.7 0 0 1-4.7 4.8zm-42.9-69.9a2.7 2.7 0 0 0-2.7 2.7v62.4a2.7 2.7 0 0 0 2.7 2.7h42.9a2.7 2.7 0 0 0 2.7-2.7v-62.4a2.7 2.7 0 0 0-2.7-2.7z"/><path class="cls-2" d="M455.6 199.3h-37.8a1 1 0 0 1-1-1v-11.5a1 1 0 0 1 1-1h37.8a1 1 0 0 1 1 1v11.4a1 1 0 0 1-1 1.1zm-36.8-2h35.8v-9.5h-35.8zM427.3 217.8h-9.5a1 1 0 0 1-1-1v-5.1a1 1 0 0 1 1-1h9.5a1 1 0 0 1 1 1v5.1a1 1 0 0 1-1 1zm-8.5-2h7.5v-3.1h-7.5zM441.5 217.8H432a1 1 0 0 1-1-1v-5.1a1 1 0 0 1 1-1h9.5a1 1 0 0 1 1 1v5.1a1 1 0 0 1-1 1zm-8.5-2h7.5v-3.1H433zM455.6 217.8h-9.5a1 1 0 0 1-1-1v-5.1a1 1 0 0 1 1-1h9.5a1 1 0 0 1 1 1v5.1a1 1 0 0 1-1 1zm-8.5-2h7.5v-3.1h-7.5zM427.3 226.9h-9.5a1 1 0 0 1-1-1v-5.1a1 1 0 0 1 1-1h9.5a1 1 0 0 1 1 1v5.1a1 1 0 0 1-1 1zm-8.5-2h7.5v-3.1h-7.5zM441.5 226.9H432a1 1 0 0 1-1-1v-5.1a1 1 0 0 1 1-1h9.5a1 1 0 0 1 1 1v5.1a1 1 0 0 1-1 1zm-8.5-2h7.5v-3.1H433zM455.6 226.9h-9.5a1 1 0 0 1-1-1v-5.1a1 1 0 0 1 1-1h9.5a1 1 0 0 1 1 1v5.1a1 1 0 0 1-1 1zm-8.5-2h7.5v-3.1h-7.5zM427.3 236h-9.5a1 1 0 0 1-1-1v-5.1a1 1 0 0 1 1-1h9.5a1 1 0 0 1 1 1v5.1a1 1 0 0 1-1 1zm-8.5-2h7.5v-3.1h-7.5zM441.5 236H432a1 1 0 0 1-1-1v-5.1a1 1 0 0 1 1-1h9.5a1 1 0 0 1 1 1v5.1a1 1 0 0 1-1 1zm-8.5-2h7.5v-3.1H433zM427.3 245.1h-9.5a1 1 0 0 1-1-1V239a1 1 0 0 1 1-1h9.5a1 1 0 0 1 1 1v5.1a1 1 0 0 1-1 1zm-8.5-2h7.5V240h-7.5zM441.5 245.1H432a1 1 0 0 1-1-1V239a1 1 0 0 1 1-1h9.5a1 1 0 0 1 1 1v5.1a1 1 0 0 1-1 1zm-8.5-2h7.5V240H433zM455.6 245.1h-9.5a1 1 0 0 1-1-1v-14.2a1 1 0 0 1 1-1h9.5a1 1 0 0 1 1 1v14.2a1 1 0 0 1-1 1zm-8.5-2h7.5v-12.2h-7.5zM428.9 202.6h15.6v1.99h-15.6z"/></g><path class="cls-4" d="M122.4 238.6l-9.1 25.1-5.8-9.2-10.9 3.1 8.6-23.7M124 238.1l9.3 25.6 5.9-9.2 10.9 3.1-8.3-22.6"/><path class="cls-5" d="M149.7 223.8l-2.4-7 4-6.2-5.4-5.1.7-7.3-7.1-2-2.8-6.8-7.2 1.5-5.7-4.7-5.6 4.7-7.2-1.5-2.8 6.8-7.1 2 .7 7.3-5.4 5.1 4 6.2-2.4 7 6.4 3.6 1.1 7.3 7.4.2 4.4 6 6.6-3.3 6.6 3.3 4.4-6 7.4-.2 1.1-7.3zm-42.7-9.4a16.8 16.8 0 1 1 16.8 16.8 16.8 16.8 0 0 1-16.9-16.8z"/><path class="cls-6" d="M244 282.9h95.8v5.11H244z"/><path class="cls-1" d="M252.9 145.1a6.5 6.5 0 0 0-6.6-5.3c-5.9 0-8.2 5.1-8.2 10.3s2.2 10.1 8.2 10.1c4 0 6.3-2.8 6.8-6.7h6.4c-.7 7.5-5.9 12.3-13.2 12.3-9.3 0-14.8-7-14.8-15.7s5.5-15.9 14.8-15.9c6.6 0 12.2 3.9 13 10.8zM264.1 135h22.5v5.6h-15.9v6.4h14.6v5.1h-14.6v7.4h16.2v5.6h-22.8zM291.4 135h16.2c5.4 0 8.8 3.8 8.8 8.3s-1.4 6.2-4.8 7.6c3.2.8 4.2 4 4.4 7s.1 5.4 1.3 7.1h-6.6c-.8-1.9-.7-4.8-1.1-7.2s-1.7-4.6-5-4.6H298V165h-6.6zm6.6 13.6h7.3c3 0 4.6-1.3 4.6-4.3s-1.6-4.2-4.6-4.2H298zM236.3 207.8a6.8 6.8 0 0 0-2.8-2.4 24.3 24.3 0 0 0-4.9-1.6v-4l.5.3a3.7 3.7 0 0 1 1.2 2.2l6.2-.4a6.7 6.7 0 0 0-2.6-4.8 10.1 10.1 0 0 0-5.2-1.5v-3.3h-2.9v3.4a11.8 11.8 0 0 0-3.8.8 6.5 6.5 0 0 0-3 2.4 5.8 5.8 0 0 0-1 3.2 5.4 5.4 0 0 0 1.9 4.2 14.3 14.3 0 0 0 5.9 2.6v5.5a3.7 3.7 0 0 1-1.5-1.1 5.1 5.1 0 0 1-.9-2.4l-6.2.4a8.6 8.6 0 0 0 2.4 5.3c1.2 1.2 3.3 1.9 6.2 2.1v3.3h2.9v-3.3a12.3 12.3 0 0 0 4.2-.9 7.4 7.4 0 0 0 3.1-2.8 7 7 0 0 0 1.2-3.9 6.2 6.2 0 0 0-.9-3.3zm-11.8-5.3a1.5 1.5 0 0 1-.6-1.2 1.8 1.8 0 0 1 .7-1.4 2.4 2.4 0 0 1 1-.5v3.6zm5.4 11.4a3.1 3.1 0 0 1-1.4.6v-4.9a4.4 4.4 0 0 1 1.4.7 2.3 2.3 0 0 1 .9 1.8 2.3 2.3 0 0 1-.9 1.8zM236.3 247.8a6.8 6.8 0 0 0-2.8-2.4 24.3 24.3 0 0 0-4.9-1.6v-4l.5.3a3.7 3.7 0 0 1 1.2 2.2l6.2-.4a6.7 6.7 0 0 0-2.6-4.8 10.1 10.1 0 0 0-5.2-1.5v-3.3h-2.9v3.4a11.8 11.8 0 0 0-3.8.8 6.5 6.5 0 0 0-3 2.4 5.8 5.8 0 0 0-1 3.2 5.4 5.4 0 0 0 1.9 4.2 14.3 14.3 0 0 0 5.9 2.6v5.5a3.7 3.7 0 0 1-1.5-1.1 5.1 5.1 0 0 1-.9-2.4l-6.2.4a8.6 8.6 0 0 0 2.4 5.3c1.2 1.2 3.3 1.9 6.2 2.1v3.4h2.9v-3.3a12.3 12.3 0 0 0 4.2-.9 7.4 7.4 0 0 0 3.1-2.9 7 7 0 0 0 1.2-3.9 6.2 6.2 0 0 0-.9-3.3zm-11.8-5.3a1.5 1.5 0 0 1-.6-1.2 1.8 1.8 0 0 1 .7-1.4 2.4 2.4 0 0 1 1-.5v3.6zm5.4 11.4a3.1 3.1 0 0 1-1.4.6v-4.9a4.4 4.4 0 0 1 1.4.7 2.3 2.3 0 0 1 .9 1.8 2.3 2.3 0 0 1-.9 1.8zM236.3 287.8a6.8 6.8 0 0 0-2.8-2.4 24.3 24.3 0 0 0-4.9-1.6v-4l.5.3a3.7 3.7 0 0 1 1.2 2.2l6.2-.4a6.7 6.7 0 0 0-2.6-4.8 10.1 10.1 0 0 0-5.2-1.5v-3.3h-2.9v3.4a11.8 11.8 0 0 0-3.8.8 6.5 6.5 0 0 0-3 2.4 5.8 5.8 0 0 0-1 3.2 5.4 5.4 0 0 0 1.9 4.2 14.3 14.3 0 0 0 5.9 2.6v5.5a3.7 3.7 0 0 1-1.5-1.1 5.1 5.1 0 0 1-.9-2.4l-6.2.4a8.6 8.6 0 0 0 2.4 5.3c1.2 1.2 3.3 1.9 6.2 2.1v3.4h2.9v-3.3a12.3 12.3 0 0 0 4.2-.9 7.4 7.4 0 0 0 3.1-2.9 7 7 0 0 0 1.2-3.9 6.2 6.2 0 0 0-.9-3.3zm-11.8-5.3a1.5 1.5 0 0 1-.6-1.2 1.8 1.8 0 0 1 .7-1.4 2.4 2.4 0 0 1 1-.5v3.6zm5.4 11.4a3.1 3.1 0 0 1-1.4.6v-4.9a4.4 4.4 0 0 1 1.4.7 2.3 2.3 0 0 1 .9 1.8 2.3 2.3 0 0 1-.9 1.8z"/><path class="cls-6" d="M244 203.8h95.8v5.11H244zM244 243.4h95.8v5.11H244z"/><path class="cls-7" d="M369.5 131l-39.7-38.3V131h39.7z"/><path class="cls-8" d="M328.3 93.7v35.2a3.2 3.2 0 0 0 3.2 3.2h35.2"/><path class="cls-8" d="M332.1 93.6l35.2 35.2a3.2 3.2 0 0 1 .9 2.3v198.3a3.2 3.2 0 0 1-3.2 3.2H195.9a3.2 3.2 0 0 1-3.2-3.2V95.9a3.2 3.2 0 0 1 3.2-3.2h133.9a3.2 3.2 0 0 1 2.3.9z"/><path class="cls-9" d="M436.7 279.8a33.1 33.1 0 1 0 33.1 33.1 33.2 33.2 0 0 0-33.1-33.1z"/><path class="cls-9" d="M436.3 290.7a22.2 22.2 0 1 0 22.2 22.2 22.2 22.2 0 0 0-22.2-22.2zM436.3 291.9v4.6M436.3 329.9v4.6M457.9 312.9h-4.5M419.9 312.9h-4.5"/><circle class="cls-10" cx="436.3" cy="312.9" r="4.2" transform="rotate(-45 436.263 312.794)"/><path class="cls-11" d="M431.8 312.2l-8.4 12.5 13.3-7.5M440 313.6l7.3-11.4-12.2 6.5"/><path class="cls-12" d="M130.2 326.2a4.2 4.2 0 0 0 4.3-4.1V310a3.6 3.6 0 0 0-2.6-3.4l-2.8-.9-5.3 5.1-5.3-5.1-2.8.9a3.6 3.6 0 0 0-2.6 3.4v12.1a4.2 4.2 0 0 0 4.3 4.1"/><ellipse class="cls-13" cx="123.8" cy="298.5" rx="5.3" ry="5.1"/><path class="cls-13" d="M130.2 313.9v30.8h-12.8v-30.8M123.8 326.2v18.5"/><path class="cls-12" d="M134.7 318.7a4.4 4.4 0 0 0 2 .5M149.5 319.1a4.2 4.2 0 0 0 4.3-4.1v-12.1a3.6 3.6 0 0 0-2.6-3.4l-2.8-.9-5.3 5.1-5.3-5.1-2.8.9a3.6 3.6 0 0 0-2.6 3.4v4.3"/><ellipse class="cls-13" cx="143.1" cy="291.4" rx="5.3" ry="5.1"/><path class="cls-13" d="M149.5 306.8v30.8h-12.8v-30.8M143.1 319.1v18.5"/><path class="cls-12" d="M115.2 307.3v-3.7a3.6 3.6 0 0 0-2.6-3.4l-2.8-.9-5.3 5.1-5.3-5.1-2.8.9a3.6 3.6 0 0 0-2.6 3.4v12.1a4.2 4.2 0 0 0 4.3 4.1M110.9 319.8a2.9 2.9 0 0 0 2.3-1.1"/><ellipse class="cls-13" cx="104.5" cy="292.1" rx="5.3" ry="5.1"/><path class="cls-13" d="M110.9 307.5v30.8H98.1v-30.8M104.5 319.8v18.5"/><path class="cls-7" d="M156.6 150.7l-12.3 11.9v-11.9h12.3zM108.3 127.5h19.2v8.78h-19.2zM130.7 127.5h19v8.92h-19z"/><path class="cls-14" d="M143.8 162.3v-10.9a1 1 0 0 1 1-1h10.9M149.7 99.5h-17.3M149.7 105.7h-17.3M149.7 111.8h-17.3M149.7 118h-17.3M149.7 124.1h-41.9M149.7 142.6h-41.9M127.5 147.8h-19.7M126.6 136.8H109a1 1 0 0 1-1-1v-7.5a1 1 0 0 1 1-1h17.7a1 1 0 0 1 1 1v7.5a1 1 0 0 1-1.1 1zM149 136.8h-17.6a1 1 0 0 1-1-1v-7.5a1 1 0 0 1 1-1H149a1 1 0 0 1 1 1v7.5a1 1 0 0 1-1 1z"/><path class="cls-14" d="M144.3 162.6h-41.6a1 1 0 0 1-1-1V89a1 1 0 0 1 1-1h52.5a1 1 0 0 1 1 1v61.6a1 1 0 0 1-.3.7l-10.9 11a1 1 0 0 1-.7.3z"/><path class="cls-14" d="M128 95.2v12.4a9.6 9.6 0 0 1-19.3 0V89a7.8 7.8 0 0 1 15.5 0v16.3a5.5 5.5 0 0 1-11.1 0v-10"/></svg>