<svg id="Layer_1" data-name="Layer 1" xmlns="http://www.w3.org/2000/svg" viewBox="0 0 900 375"><defs><style>.cls-1,.cls-6,.cls-9{fill:none}.cls-1,.cls-3{stroke:#bcbec0;stroke-width:4px}.cls-1,.cls-3,.cls-6,.cls-9{stroke-miterlimit:10}.cls-2{fill:#bcbec0}.cls-3{fill:#848484}.cls-4{fill:#1e2e5e}.cls-5{fill:#2cabe2}.cls-6{stroke:#a7a9ac}.cls-6,.cls-9{stroke-width:2px}.cls-7{fill:#3f57a6}.cls-8{fill:#808285}.cls-9{stroke:#fff}.cls-10{fill:#a7a9ac}.cls-11{fill:#ebe5ed}.cls-12{fill:#939598}.cls-13{fill:#58595b}</style></defs><title>c-410</title><path class="cls-1" d="M487 159.3h61"/><path class="cls-2" d="M545 169.2l17.3-9.9-17.3-10v19.9z"/><path class="cls-3" d="M342.9 159.3h39.7"/><path class="cls-4" d="M155.4 236.9h2.6v14.6h-2.6zm4.3 4h1.8v-3.2h2.3v3.2h2.1v1.7h-2.1v5.6c0 1 .1 1.4 1.1 1.4h1v1.8h-1.5c-2.4 0-2.9-.9-2.9-2.7v-6.2h-1.8zm9.7 5.9c0 1.7.9 3.1 2.8 3.1a2.4 2.4 0 0 0 2.6-1.8h2.2a4.6 4.6 0 0 1-4.8 3.6c-3.3 0-5.2-2.3-5.2-5.6s2-5.6 5.1-5.6 5.4 3 5 6.2zm5.4-1.5a2.7 2.7 0 1 0-5.4 0zm4.1-4.4h2.2v1.5h.1a3.5 3.5 0 0 1 3.2-1.8 3 3 0 0 1 3 1.8 3.8 3.8 0 0 1 3.3-1.8c2.2 0 3.5 1 3.5 3.5v7.3h-2.3v-6.2c0-1.7-.1-2.8-1.9-2.8s-2.2 1-2.2 2.8v6.2h-2.3v-6.8c0-1.4-.4-2.2-1.9-2.2a2.4 2.4 0 0 0-2.3 2.7v6.3H179zm17.8-4h2.3v2.2h-2.3zm0 4h2.3v10.5h-2.3zm4.5 0h8.6v1.6l-6 7.1h6.3v1.8h-9.3v-1.6l5.8-7.1h-5.4zm12.4 5.9c0 1.7.9 3.1 2.8 3.1a2.4 2.4 0 0 0 2.6-1.8h2.2a4.6 4.6 0 0 1-4.8 3.6c-3.3 0-5.2-2.3-5.2-5.6s2-5.6 5.1-5.6 5.4 3 5 6.2zm5.4-1.5a2.7 2.7 0 1 0-5.4 0zm14.1 6.1h-2.2V250a3.5 3.5 0 0 1-3.3 1.7c-3.3 0-4.9-2.5-4.9-5.6s2.3-5.5 4.6-5.5a4.1 4.1 0 0 1 3.5 1.7v-5.4h2.3zm-5.2-1.6c2.1 0 3-1.9 3-3.7s-1.1-3.7-2.9-3.7-3 1.9-3 3.8.9 3.7 2.9 3.7z"/><path class="cls-5" d="M241.5 236.9h6.9c2.8 0 4.6.9 4.6 3.6a3.2 3.2 0 0 1-2 3 3.6 3.6 0 0 1 2.7 3.7c0 3-2.5 4.2-5.1 4.2h-7.1zm3.2 5.9h3.2c1.1 0 2-.5 2-1.7s-1.1-1.7-2.2-1.7h-3zm0 6.2h3.4c1.3 0 2.4-.4 2.4-1.9s-.9-2.1-2.3-2.1h-3.5zm20.7 2.4h-2.8V250h-.1a3.8 3.8 0 0 1-3.2 1.8c-3.1 0-3.9-1.7-3.9-4.3V241h2.9v6c0 1.7.5 2.6 1.9 2.6s2.2-.9 2.2-3v-5.5h2.9zm9.7-1.3a3.5 3.5 0 0 1-3.2 1.6c-3.2 0-4.7-2.7-4.7-5.7s1.6-5.5 4.7-5.5a3.6 3.6 0 0 1 3.1 1.6v-5.3h2.9v14.6h-2.8zm-2.5-7.3c-1.9 0-2.6 1.6-2.6 3.4s.8 3.4 2.6 3.4 2.5-1.7 2.5-3.4-.6-3.4-2.5-3.4zm17.6 8c0 1.7-.6 4.7-5.5 4.7-2.1 0-4.5-1-4.7-3.4h3a2 2 0 0 0 2.2 1.4c1.6 0 2.3-1.1 2.3-2.6v-1.4a3.6 3.6 0 0 1-3.2 1.6c-3.2 0-4.5-2.4-4.5-5.3s1.6-5.2 4.5-5.2a3.3 3.3 0 0 1 3.1 1.7v-1.4h2.8zm-2.8-4.7c0-1.7-.6-3.2-2.5-3.2s-2.3 1.4-2.3 3 .6 3.2 2.3 3.2 2.6-1.6 2.6-3.1zm7.5.8c.1 1.8 1 2.7 2.6 2.7a2.4 2.4 0 0 0 2.3-1.4h2.6a4.7 4.7 0 0 1-4.9 3.5c-3.3 0-5.4-2.3-5.4-5.6a5.3 5.3 0 0 1 5.4-5.6c3.6 0 5.3 3 5.1 6.3zm4.7-1.8c-.3-1.5-.9-2.2-2.3-2.2a2.3 2.3 0 0 0-2.4 2.2zm8.3-4.2h2.1v1.9h-2.1v5.2c0 1 .2 1.2 1.2 1.2h.9v2.3h-1.7c-1.8 0-3.3-.4-3.3-2.5v-6.2h-1.8v-1.9h1.8v-3.2h2.9z"/><path class="cls-6" d="M206.3 190.4h61.8"/><path class="cls-7" d="M274.9 67.6Q261.7 54.3 261 54.3h-93.1v168.9H288V81.7q0-.7-13.1-14.1m.3 10.9h-11.4V67l11.4 11.4m-18.9-16.6V86h24.2v129.7H175.4V61.8z" id="Layer0_0_FILL" data-name="Layer0 0 FILL"/><path class="cls-8" d="M212 93.3a4.2 4.2 0 0 0-4.2-3.4c-3.8 0-5.3 3.3-5.3 6.7s1.4 6.5 5.3 6.5 4.1-1.8 4.4-4.4h4.1c-.4 4.8-3.8 7.9-8.5 7.9s-9.5-4.5-9.5-10.1 3.5-10.3 9.5-10.3c4.3 0 7.9 2.5 8.4 7zm7.2-6.5h14.5v3.6h-10.2v4.2h9.4v3.3h-9.4v4.8H234v3.6h-14.8zm17.7 0h10.5a5.3 5.3 0 0 1 5.7 5.4A4.8 4.8 0 0 1 250 97c2.1.5 2.7 2.6 2.8 4.5s.1 3.5.8 4.6h-4.3c-.5-1.2-.5-3.1-.7-4.7s-1.1-2.9-3.2-2.9h-4.3v7.6h-4.3zm4.3 8.8h4.7c1.9 0 2.9-.8 2.9-2.8s-1-2.7-2.9-2.7h-4.7z"/><path class="cls-9" d="M184 114.8h88.4"/><path class="cls-10" d="M201.3 140.4a4.4 4.4 0 0 0-1.8-1.6 15.6 15.6 0 0 0-3.2-1v-2.6l.3.2a2.4 2.4 0 0 1 .7 1.4l4-.2a4.3 4.3 0 0 0-1.7-3.1 6.5 6.5 0 0 0-3.4-1v-2.2h-1.9v2.2a7.6 7.6 0 0 0-2.5.5 4.2 4.2 0 0 0-1.9 1.5 3.7 3.7 0 0 0-.6 2.1 3.5 3.5 0 0 0 1.2 2.7 9.2 9.2 0 0 0 3.8 1.6v3.6a2.4 2.4 0 0 1-.9-.7 3.3 3.3 0 0 1-.6-1.5l-4 .3a5.5 5.5 0 0 0 1.6 3.4 6.1 6.1 0 0 0 4 1.4v2.2h1.9v-2.2a7.9 7.9 0 0 0 2.7-.6 4.8 4.8 0 0 0 2.1-1.8 4.5 4.5 0 0 0 .8-2.5 4 4 0 0 0-.6-2.1zm-7.6-3.4a1 1 0 0 1-.4-.7 1.2 1.2 0 0 1 .5-.9l.7-.3v2.3zm3.5 7.3l-.9.4v-3.2l.9.5a1.5 1.5 0 0 1 .6 1.1 1.5 1.5 0 0 1-.6 1.2zm4.1 21.8a4.4 4.4 0 0 0-1.8-1.6 15.6 15.6 0 0 0-3.2-1v-2.6l.3.2a2.4 2.4 0 0 1 .7 1.4l4-.2a4.3 4.3 0 0 0-1.7-3.1 6.5 6.5 0 0 0-3.4-1V156h-1.9v2.2a7.6 7.6 0 0 0-2.5.5 4.2 4.2 0 0 0-1.9 1.5 3.7 3.7 0 0 0-.6 2.1 3.5 3.5 0 0 0 1.2 2.7 9.2 9.2 0 0 0 3.8 1.6v3.6a2.4 2.4 0 0 1-.9-.7 3.3 3.3 0 0 1-.6-1.5l-4 .3a5.5 5.5 0 0 0 1.6 3.4 6.1 6.1 0 0 0 4 1.4v2.2h1.9v-2.2a7.9 7.9 0 0 0 2.7-.6 4.8 4.8 0 0 0 2.1-1.8 4.5 4.5 0 0 0 .8-2.5 4 4 0 0 0-.6-2.1zm-7.6-3.4a1 1 0 0 1-.4-.7 1.2 1.2 0 0 1 .5-.9l.7-.3v2.3zm3.5 7.3l-.9.4v-3.2l.9.5a1.5 1.5 0 0 1 .6 1.1 1.5 1.5 0 0 1-.6 1.2zm4.1 21.9a4.4 4.4 0 0 0-1.8-1.6 15.6 15.6 0 0 0-3.2-1v-2.6l.3.2a2.4 2.4 0 0 1 .7 1.4l4-.2a4.3 4.3 0 0 0-1.7-3.1 6.5 6.5 0 0 0-3.4-1v-2.2h-1.9v2.2a7.6 7.6 0 0 0-2.5.5 4.2 4.2 0 0 0-1.9 1.5 3.7 3.7 0 0 0-.6 2.1 3.5 3.5 0 0 0 1.2 2.7 9.2 9.2 0 0 0 3.8 1.6v3.6a2.4 2.4 0 0 1-.9-.7 3.3 3.3 0 0 1-.6-1.5l-4 .3a5.5 5.5 0 0 0 1.6 3.4 6.1 6.1 0 0 0 4 1.4v2.1h1.9v-2.2a7.9 7.9 0 0 0 2.7-.6 4.8 4.8 0 0 0 2.1-1.8 4.5 4.5 0 0 0 .8-2.5 4 4 0 0 0-.6-2zm-7.6-3.4a1 1 0 0 1-.4-.7 1.2 1.2 0 0 1 .5-.9l.7-.3v2.3zm3.5 7.3l-.9.4V193l.9.5a1.5 1.5 0 0 1 .6 1.1 1.5 1.5 0 0 1-.6 1.2z"/><path class="cls-6" d="M206.3 139.4h61.8m-61.8 25.5h61.8"/><path class="cls-11" d="M650 126.1h-3.4v-.8h3.6l-.2.8z"/><path class="cls-5" d="M584 234.3h3.3l5.4 14.6h-3.3l-1.1-3.2h-5.4l-1.1 3.2h-3.2zm-.3 8.9h3.8l-1.8-5.3zm17.1-1.2a2 2 0 0 0-2.1-1.8c-1.9 0-2.5 1.9-2.5 3.4s.6 3.3 2.4 3.3a2.2 2.2 0 0 0 2.3-2.1h2.8a4.7 4.7 0 0 1-5.1 4.3 5.1 5.1 0 0 1-5.3-5.4c0-3.3 2-5.7 5.4-5.7s4.8 1.3 5 4zm8.2-3.7h2.1v1.9H609v5.2c0 1 .2 1.2 1.2 1.2h.9v2.3h-1.7c-1.8 0-3.3-.4-3.3-2.5v-6.2h-1.8v-1.9h1.8v-3.2h2.9zm13.4 10.5h-2.8v-1.5h-.1a3.8 3.8 0 0 1-3.2 1.8c-3.1 0-3.9-1.7-3.9-4.3v-6.5h2.9v6c0 1.7.5 2.6 1.9 2.6s2.2-.9 2.2-3v-5.5h2.9zm2.1-7.3c.2-2.7 2.6-3.5 5-3.5s4.6.5 4.6 3v5.5a5.4 5.4 0 0 0 .4 2.3h-2.9a4.3 4.3 0 0 1-.2-1 4.8 4.8 0 0 1-3.6 1.3c-2 0-3.6-1-3.6-3.2s1.8-3 3.6-3.2 3.4-.2 3.4-1.4-.9-1.4-1.9-1.4-1.8.5-1.9 1.6zm6.7 2.1a5.8 5.8 0 0 1-2.4.6c-.9.2-1.7.5-1.7 1.5s.8 1.3 1.8 1.3a2.2 2.2 0 0 0 2.3-2.4zm5.2-9.3h2.9v14.6h-2.9zm7.5 11.1c0 1.3 1.1 1.8 2.2 1.8s1.9-.3 1.9-1.3-1.2-1.2-3.3-1.6-3.3-1-3.3-2.8 2.3-3.4 4.6-3.4 4.4.8 4.7 3.4h-2.8c-.1-1.1-.9-1.4-2-1.4s-1.6.1-1.6 1 1.6 1.2 3.3 1.6 3.3 1 3.3 3-2.4 3.7-4.8 3.7-4.8-.9-5-3.7z"/><path class="cls-4" d="M665.5 241.8a2.2 2.2 0 0 0-2.4-2c-1.2 0-2.9.6-2.9 3.8s.8 3.6 2.8 3.6a2.5 2.5 0 0 0 2.5-2.4h2.3a4.5 4.5 0 0 1-4.8 4.2c-3.3 0-5.1-2.3-5.1-5.4s1.7-5.7 5.2-5.7 4.5 1.2 4.8 3.8zm3.7 1.8c0-3.2 1.9-5.6 5.3-5.6s5.3 2.3 5.3 5.6-1.9 5.6-5.3 5.6-5.3-2.4-5.3-5.6zm8.3 0c0-1.8-.9-3.7-3-3.7s-3 1.9-3 3.7.9 3.7 3 3.7 3.1-1.9 3.1-3.7zm4.3-5.3h2.2v1.5h.1a3.5 3.5 0 0 1 3.2-1.8 3 3 0 0 1 3 1.8 3.8 3.8 0 0 1 3.3-1.8c2.2 0 3.5 1 3.5 3.5v7.3h-2.3v-6.2c0-1.7-.1-2.8-1.9-2.8s-2.2 1-2.2 2.8v6.2h-2.3V242c0-1.4-.4-2.2-1.9-2.2a2.4 2.4 0 0 0-2.3 2.7v6.3h-2.3zm17.8 0h2.2v1.4a3.5 3.5 0 0 1 3.3-1.7c3.3 0 4.9 2.5 4.9 5.6s-1.4 5.5-4.6 5.5a4.1 4.1 0 0 1-3.5-1.7v5.3h-2.3zm5.2 1.5c-2 0-3 1.5-3 3.7s1.1 3.7 3 3.7 2.9-1.9 2.9-3.7-.9-3.7-2.9-3.7zm16.1 6.7c0 .6.1.8.6.8h.6v1.6l-1.5.3c-.9 0-1.6-.3-1.8-1.3a5.4 5.4 0 0 1-3.7 1.3c-1.9 0-3.6-1-3.6-3.1s2.1-3.1 4.1-3.3 3.2-.1 3.2-1.5-1.2-1.4-2.2-1.4-2.2.5-2.3 1.7H712c.2-2.7 2.5-3.5 4.8-3.5s4.2.8 4.2 3.1zm-2.3-2.9a8.3 8.3 0 0 1-2.9.6c-1 .2-1.9.5-1.9 1.8s1.3 1.3 2.1 1.3 2.6-.5 2.6-2zm4.8-5.3h2.2v2a3.4 3.4 0 0 1 3.1-2.3h.9v2.2h-1c-1.6 0-2.9 1.3-2.9 3.6v5h-2.3zm8.6 5.9c0 1.7.9 3.1 2.8 3.1a2.4 2.4 0 0 0 2.6-1.8h2.2a4.6 4.6 0 0 1-4.8 3.6c-3.3 0-5.2-2.3-5.2-5.6s2-5.6 5.1-5.6 5.4 3 5 6.2zm5.4-1.5a2.7 2.7 0 1 0-5.4 0zm14.1 6.1h-2.2v-1.4a3.5 3.5 0 0 1-3.3 1.7c-3.3 0-4.9-2.5-4.9-5.6s2.3-5.5 4.6-5.5a4.1 4.1 0 0 1 3.5 1.7v-5.4h2.3zm-5.2-1.6c2.1 0 3-1.9 3-3.7s-1.1-3.7-2.9-3.7-3 1.9-3 3.8.9 3.7 2.9 3.7zm-127.9 15.6h1.8v-3.2h2.3v3.2h2.1v1.7h-2.1v5.6c0 1 .1 1.4 1.1 1.4h1v1.8h-1.5c-2.4 0-2.9-.9-2.9-2.7v-6.2h-1.8zm7.4 5.2c0-3.2 1.9-5.6 5.3-5.6s5.3 2.3 5.3 5.6-1.9 5.6-5.3 5.6-5.3-2.3-5.3-5.6zm8.3 0c0-1.8-.9-3.7-3-3.7s-3 1.9-3 3.7.9 3.7 3 3.7 3-1.8 3-3.7z"/><path class="cls-5" d="M644.2 258.8h6.9c2.8 0 4.7.9 4.7 3.6a3.2 3.2 0 0 1-2 3 3.6 3.6 0 0 1 2.7 3.7c0 3-2.5 4.2-5.1 4.2h-7.1zm3.2 5.9h3.2c1.1 0 2-.5 2-1.7s-1.1-1.7-2.2-1.7h-3zm0 6.2h3.4c1.3 0 2.4-.4 2.4-1.9s-.9-2.1-2.3-2.1h-3.5zm20.8 2.4h-2.8v-1.5h-.1a3.8 3.8 0 0 1-3.2 1.8c-3.1 0-3.9-1.7-3.9-4.3v-6.5h2.9v6c0 1.7.5 2.6 1.9 2.6s2.2-.9 2.2-3v-5.5h2.9zm9.7-1.3a3.5 3.5 0 0 1-3.2 1.6c-3.2 0-4.7-2.7-4.7-5.7s1.6-5.5 4.7-5.5a3.6 3.6 0 0 1 3.1 1.6v-5.3h2.9v14.6h-2.8zm-2.5-7.3c-1.9 0-2.6 1.6-2.6 3.4s.8 3.4 2.6 3.4 2.5-1.7 2.5-3.4-.6-3.4-2.5-3.4zm17.6 7.9c0 1.7-.6 4.7-5.5 4.7-2.1 0-4.5-1-4.7-3.4h2.9a2 2 0 0 0 2.2 1.4c1.6 0 2.3-1.1 2.3-2.6v-1.4a3.6 3.6 0 0 1-3.2 1.7c-3.2 0-4.5-2.4-4.5-5.3s1.6-5.2 4.5-5.2a3.3 3.3 0 0 1 3.1 1.7v-1.4h2.9zm-2.8-4.7c0-1.7-.6-3.2-2.5-3.2s-2.3 1.4-2.3 3 .6 3.2 2.3 3.2 2.5-1.5 2.5-3zm7.5.9c.1 1.8 1 2.7 2.6 2.7a2.4 2.4 0 0 0 2.3-1.4h2.6a4.7 4.7 0 0 1-4.9 3.5c-3.3 0-5.4-2.3-5.4-5.6a5.3 5.3 0 0 1 5.4-5.6c3.6 0 5.3 3 5.1 6.3zm4.7-1.8c-.3-1.5-.9-2.2-2.3-2.2a2.3 2.3 0 0 0-2.4 2.2zm8.3-4.2h2.1v1.9h-2.1v5.2c0 1 .2 1.2 1.2 1.2h.9v2.3h-1.7c-1.8 0-3.3-.4-3.3-2.5v-6.2H706v-1.9h1.8v-3.2h2.9z"/><path class="cls-5" d="M707.4 67.6q-13.1-13.3-13.9-13.3h-93.1v168.9h120.1V81.7q0-.7-13.1-14.1m.3 10.9h-11.4V67l11.4 11.4m-18.9-16.6V86H713v129.7H607.8V61.8z" id="Layer0_0_FILL-2" data-name="Layer0 0 FILL"/><path class="cls-8" d="M655 100.2h-4.2L647.5 87h-.1l-3.2 13.2h-4.3l-5.1-19.4h4.2l3.1 13.2h.1l3.4-13.2h4l3.3 13.4h.1l3-13.4h4.2zm7.2-19.4h4.3v19.4h-4.3zm8 0h8.8c4.8 0 6.7 3.1 6.7 6.2s-1.9 6.2-6.7 6.2h-4.5v7h-4.3zm4.3 9.1h3.3c2 0 3.8-.4 3.8-2.9s-1.8-2.9-3.8-2.9h-3.3zm-38.9 16.9h5.2a2.7 2.7 0 0 1 2.8 2.7 2.4 2.4 0 0 1-1.5 2.4c1 .3 1.3 1.3 1.4 2.3a5.3 5.3 0 0 0 .4 2.3h-2.1a10.7 10.7 0 0 1-.3-2.3c-.1-1-.5-1.5-1.6-1.5h-2.1v3.8h-2.1zm2.1 4.4h2.3c1 0 1.5-.4 1.5-1.4s-.5-1.3-1.5-1.3h-2.3zm9.1 2.3c.1 1.2.7 1.8 1.7 1.8a1.6 1.6 0 0 0 1.5-.9h1.7a3.2 3.2 0 0 1-3.3 2.4 3.4 3.4 0 0 1-3.6-3.7 3.5 3.5 0 0 1 3.6-3.7c2.4 0 3.5 2 3.4 4.2zm3.1-1.2c-.2-1-.6-1.5-1.5-1.5a1.5 1.5 0 0 0-1.6 1.5zm3.1-2.8h1.8v.9a2.3 2.3 0 0 1 2.1-1.1c2.2 0 3.2 1.8 3.2 3.8s-1 3.6-3.1 3.6a2.5 2.5 0 0 1-2.1-1.1v3.4H653zm5.2 3.5c0-1.1-.4-2.3-1.7-2.3s-1.7 1.1-1.7 2.3.4 2.2 1.7 2.2 1.7-1 1.7-2.2zm6.5-3.7a3.7 3.7 0 1 1-3.6 3.7 3.5 3.5 0 0 1 3.6-3.7zm0 6c1.3 0 1.7-1.1 1.7-2.2s-.4-2.3-1.7-2.3-1.7 1.1-1.7 2.3.4 2.2 1.7 2.2zm4.9-5.8h1.8v1.3a2.5 2.5 0 0 1 2.2-1.5h.4v1.8h-.7c-1.4 0-1.9 1-1.9 2.3v3.2h-1.9zm7.7 0h1.4v1.3h-1.4v3.5c0 .7.2.8.8.8h.6v1.5h-1.1c-1.2 0-2.2-.3-2.2-1.7v-4.1h-1.2v-1.3h1.2v-2.1h1.9z"/><path class="cls-9" d="M615.8 124.7h88.4"/><path class="cls-12" d="M676.4 181.4l-5.1-5.1 12-12-12-12 5.1-5.1 17.1 17.1-17.1 17.1zm-30.3-33.8l5 5.1-12 12 12 12-5 5.1-17.1-17.1 17.1-17.1z"/><path class="cls-13" d="M418.3 174a2.8 2.8 0 0 0-2.8-2.3c-2.6 0-3.5 2.2-3.5 4.4s1 4.3 3.5 4.3 2.7-1.2 2.9-2.9h2.8a5.5 5.5 0 0 1-5.7 5.3c-4 0-6.4-3-6.4-6.7s2.4-6.8 6.4-6.8 5.2 1.7 5.6 4.7zm4.6-4.4h2.6v13h-2.6zm7.3 2.1h-2.6v-2.1h2.6zm-2.6 1.5h2.6v9.4h-2.6zm6.7 5.3c.1 1.6.9 2.4 2.3 2.4a2.1 2.1 0 0 0 2-1.2h2.3a4.2 4.2 0 0 1-4.4 3.2 4.6 4.6 0 0 1-4.8-4.9 4.7 4.7 0 0 1 4.8-5c3.2 0 4.7 2.7 4.6 5.6zm4.2-1.6c-.2-1.3-.8-2-2.1-2a2 2 0 0 0-2.1 2zm4.1-3.7h2.5v1.3h.1a3.3 3.3 0 0 1 2.9-1.6c2.7 0 3.4 1.5 3.4 3.9v5.8h-2.6v-5.3c0-1.5-.5-2.3-1.7-2.3s-2 .8-2 2.7v4.9h-2.6zm14 0h1.9v1.7h-1.9v4.6c0 .9.2 1.1 1.1 1.1h.8v2H457c-1.6 0-3-.4-3-2.2v-5.5h-1.6v-1.7h1.6v-2.8h2.6zm-33.6 20a2.8 2.8 0 0 0-2.8-2.3c-2.6 0-3.5 2.2-3.5 4.4s1 4.3 3.5 4.3 2.7-1.2 2.9-2.9h2.8a5.5 5.5 0 0 1-5.7 5.3c-4 0-6.4-3-6.4-6.7s2.4-6.8 6.4-6.8 5.2 1.7 5.6 4.7zm9.1-1a4.9 4.9 0 1 1-4.8 5 4.6 4.6 0 0 1 4.8-5zm0 7.9c1.8 0 2.3-1.5 2.3-3s-.5-3-2.3-3-2.3 1.5-2.3 3 .5 3 2.3 3zm13.2.5a3.1 3.1 0 0 1-2.8 1.5c-2.8 0-4.2-2.4-4.2-5s1.4-4.9 4.2-4.9a3.2 3.2 0 0 1 2.8 1.4v-4.7h2.6v13h-2.4zm-2.3-6.5c-1.7 0-2.3 1.5-2.3 3s.7 3 2.3 3 2.2-1.5 2.2-3-.5-3-2.1-3zm8.8 3.7c.1 1.6.9 2.4 2.3 2.4a2.1 2.1 0 0 0 2-1.2h2.3a4.2 4.2 0 0 1-4.4 3.2 4.6 4.6 0 0 1-4.8-4.9 4.7 4.7 0 0 1 4.8-5c3.2 0 4.7 2.7 4.6 5.6zm4.2-1.6c-.2-1.3-.8-2-2.1-2a2 2 0 0 0-2.1 2zm-46.3-79.8c10.8 0 12.7 11.5 12.7 19.9s-1.9 19.9-12.7 19.9-12.7-11.5-12.7-19.9 1.9-19.9 12.7-19.9zm0 36.9c8.2 0 9.1-11 9.1-17s-1-17-9.1-17-9.1 11-9.1 17 .9 17 9.1 17zm28.3-36.9c10.8 0 12.7 11.5 12.7 19.9s-1.9 19.9-12.7 19.9-12.7-11.5-12.7-19.9 1.9-19.9 12.7-19.9zm0 36.9c8.2 0 9.1-11 9.1-17s-1-17-9.1-17-9.1 11-9.1 17 .9 17 9.1 17zm28.3-31.7h-.1l-7 5.7-2-2.5 9.5-7.8h2.8v38.5h-3.3z"/></svg>