<svg id="Layer_1" data-name="Layer 1" xmlns="http://www.w3.org/2000/svg" viewBox="0 0 900 400"><defs><style>.cls-1,.cls-2,.cls-4{fill:none}.cls-1,.cls-2,.cls-3{stroke:#282828}.cls-1,.cls-2,.cls-3,.cls-4{stroke-linejoin:round;stroke-width:2px}.cls-2,.cls-3,.cls-4{stroke-linecap:round}.cls-3{fill:#fff}.cls-4{stroke:#b6d439}.cls-5{fill:#414042}.cls-6{font-size:28.05px;fill:#231f20;font-family:HelveticaNeueLTStd-Md,Helvetica Neue LT Std}</style></defs><title>c-430</title><path class="cls-1" d="M349 114v33.3a8.3 8.3 0 0 0 8.3 8.3h33.3"/><path class="cls-2" d="M232.5 122.3a8.3 8.3 0 0 1 8.3-8.3H349l41.6 41.6v149.7a8.3 8.3 0 0 1-8.3 8.3H240.8a8.3 8.3 0 0 1-8.3-8.3zm58.2 49.9h66.6m-66.6 16.6h50m-50 25h66.6m-66.6 16.6h50m-50 25h66.6M290.7 272h50"/><path class="cls-2" d="M274.1 172.2l-16.6 16.6-8.4-8.3m25 33.3l-16.6 16.6-8.4-8.3m25 33.3L257.5 272l-8.4-8.3"/><path class="cls-3" d="M245 130.6a8.3 8.3 0 0 1 8.3-8.3h108.2l41.6 41.6v149.8a8.3 8.3 0 0 1-8.3 8.3H253.3a8.3 8.3 0 0 1-8.3-8.3z"/><path class="cls-1" d="M361.5 122.3v33.3a8.3 8.3 0 0 0 8.3 8.3h33.3"/><path class="cls-2" d="M303.2 200h66.6m-66.6 16.6h49.9m-49.9 25h66.6m-66.6 16.6h49.9m-49.9 25h66.6m-66.6 16.7h49.9"/><path class="cls-4" d="M286.6 200l-16.7 16.6-8.3-8.3m25 33.3l-16.7 16.6-8.3-8.3m25 33.3l-16.7 16.7-8.3-8.4"/><path class="cls-5" d="M345.2 89H334a7.3 7.3 0 0 1 3.6-6.2c2.1-1.5 4.9-2.8 4.9-5.4a2.6 2.6 0 0 0-2.8-2.9c-2.1 0-2.7 1.8-2.8 4.1h-2.7c0-3.6 2-6.3 5.6-6.3a4.9 4.9 0 0 1 5.3 5c0 2.6-1.8 4.2-3.6 5.5s-3.9 2.3-4.3 3.8h8zm2.5-3.2h3.2V89h-3.2zm27.7 3.2h-1.9l-.4-2a6 6 0 0 1-5 2.4c-5 0-8-4-8-8.7s3-8.7 8-8.7 6.7 1.9 7.2 5.7h-2.9c-.3-2.2-2.2-3.3-4.3-3.3s-5.1 3.2-5.1 6.4 1.5 6.4 5.1 6.4 4.6-1.8 4.7-4.6h-4.4v-2.4h7.1zm13-2.7c0 .7.1.9.6.9h.7V89l-1.7.3c-1.1 0-1.8-.4-2.1-1.5a6.2 6.2 0 0 1-4.2 1.5c-2.2 0-4.1-1.2-4.1-3.5s2.4-3.5 4.7-3.8 3.6-.1 3.6-1.7-1.4-1.6-2.5-1.6-2.5.6-2.7 1.9H378c.2-3.1 2.8-4 5.5-4s4.8 1 4.8 3.5zm-2.7-3.3c-.8.5-2.1.5-3.3.7s-2.2.6-2.2 2 1.5 1.5 2.5 1.5 3-.6 3-2.3zm4.3-6.1h2v-3.6h2.7v3.6h2.4v2h-2.4v6.5c0 1.1.1 1.7 1.3 1.7h1.1V89h-1.7c-2.8 0-3.3-1.1-3.3-3.1v-7h-2zm9-4.6h2.7v6.2a4.2 4.2 0 0 1 3.6-1.9c2.6 0 4.3 1.4 4.3 4.1V89H407v-7.6c0-1.9-.8-2.7-2.4-2.7a2.9 2.9 0 0 0-2.9 3.2V89H399zm15.5 11.4c0 1.9 1 3.6 3.2 3.6a2.8 2.8 0 0 0 2.9-2h2.5a5.3 5.3 0 0 1-5.5 4.1c-3.8 0-5.9-2.6-5.9-6.4s2.2-6.4 5.8-6.4 6.1 3.4 5.7 7.1zm6.2-1.8a3.1 3.1 0 1 0-6.2 0zm4.7-5h2.5v2.3a3.9 3.9 0 0 1 3.5-2.7h1v2.6h-1.1c-1.8 0-3.3 1.5-3.3 4.1V89h-2.7zm14.8-4.6h2.7v2.5h-2.7zm0 4.6h2.7V89h-2.7zm5.6 0h2.5v1.8a4.3 4.3 0 0 1 3.8-2.2c2.6 0 4.3 1.4 4.3 4.1V89h-2.7v-7.6c0-1.9-.8-2.7-2.4-2.7a2.9 2.9 0 0 0-2.9 3.2V89h-2.7zm12.2 0h2v-1c0-3.1 1.6-3.6 3.3-3.6l1.9.2v2.1H464c-.7 0-1.3.3-1.3 1.3v1.2h2.3v2h-2.3V89H460V78.9h-2zm8 6.1c0-3.7 2.2-6.4 6.1-6.4s6.1 2.7 6.1 6.4-2.2 6.4-6.1 6.4-6.1-2.7-6.1-6.4zm9.5 0c0-2.1-1.1-4.3-3.4-4.3s-3.4 2.2-3.4 4.3 1.1 4.3 3.4 4.3 3.5-2.2 3.5-4.3zm4.9-6.1h2.5v2.3a3.9 3.9 0 0 1 3.5-2.7h1v2.6h-1.1c-1.8 0-3.3 1.5-3.3 4.1V89h-2.7zm8.3 0h2.5v1.7h.1a4 4 0 0 1 3.7-2 3.4 3.4 0 0 1 3.4 2 4.4 4.4 0 0 1 3.8-2c2.5 0 4 1.1 4 4.1V89h-2.7v-7.1c0-1.9-.1-3.2-2.2-3.2s-2.6 1.2-2.6 3.2V89H496v-7.8c0-1.7-.5-2.5-2.1-2.5s-2.6 1.1-2.6 3.1V89h-2.7zm30.4 9.4c0 .7.1.9.6.9h.7V89l-1.7.3c-1.1 0-1.8-.4-2.1-1.5a6.2 6.2 0 0 1-4.2 1.5c-2.2 0-4.1-1.2-4.1-3.5s2.4-3.5 4.7-3.8 3.6-.1 3.6-1.7-1.4-1.6-2.5-1.6-2.5.6-2.7 1.9h-2.7c.2-3.1 2.8-4 5.5-4s4.8 1 4.8 3.5zm-2.6-3.3c-.8.5-2.1.5-3.3.7s-2.2.6-2.2 2 1.5 1.5 2.5 1.5 3-.6 3-2.3zm4.3-6.1h2v-3.6h2.7v3.6h2.4v2h-2.4v6.5c0 1.1.1 1.7 1.3 1.7h1.1V89h-1.7c-2.8 0-3.3-1.1-3.3-3.1v-7h-2zm9.1-4.6h2.7v2.5h-2.7zm0 4.6h2.7V89h-2.7zm5 6.1c0-3.7 2.2-6.4 6.1-6.4s6.1 2.7 6.1 6.4-2.2 6.4-6.1 6.4-6.1-2.7-6.1-6.4zm9.5 0c0-2.1-1.1-4.3-3.4-4.3s-3.4 2.2-3.4 4.3 1.1 4.3 3.4 4.3 3.4-2.2 3.4-4.3zm4.9-6.1h2.5v1.8a4.3 4.3 0 0 1 3.8-2.2c2.6 0 4.3 1.4 4.3 4.1V89h-2.7v-7.6c0-1.9-.8-2.7-2.4-2.7a2.9 2.9 0 0 0-2.9 3.2V89h-2.7z"/><path class="cls-2" d="M488.2 204.2v-11.5a7 7 0 0 0-4.8-6.6l-5.1-1.8-9.9 9.9-9.9-9.9-5.1 1.8a7 7 0 0 0-4.8 6.6v11.5"/><circle class="cls-2" cx="468.3" cy="170.4" r="9.9"/><path class="cls-2" d="M456.4 204.2v-8m23.8 0v8M450.4 220h-11.9l-3.9-15.8h67.5l-4 15.8h-11.9m-41.7 31.8h47.7v7.95h-47.7z"/><path class="cls-2" d="M450.4 251.8v-39.7h35.8v39.7m94.3-25.8a7.9 7.9 0 0 0 7.9-7.9v-23.4a7 7 0 0 0-4.8-6.6l-5.1-1.8-9.9 9.9-9.9-9.9-5.1 1.8a7 7 0 0 0-4.8 6.6v23.4a7.9 7.9 0 0 0 7.9 7.9"/><circle class="cls-2" cx="568.6" cy="172.4" r="9.9"/><circle class="cls-2" cx="630.2" cy="180.3" r="9.9"/><circle class="cls-2" cx="630.2" cy="212.1" r="9.9"/><circle class="cls-2" cx="630.2" cy="243.9" r="9.9"/><path class="cls-2" d="M580.5 202.2v59.6h-23.8v-59.6m11.9 23.8v35.8m51.6-49.7h-23.8m23.8 31.8h-9.9a6 6 0 0 1-6-6v-51.6a6 6 0 0 1 6-6h9.9"/><path class="cls-5" d="M446.2 279.6c0 1.5 1.1 2.1 2.5 2.1s2.1-.8 2.1-1.5a1.2 1.2 0 0 0-.8-1.2l-3-.8a2.5 2.5 0 0 1-2.2-2.5c0-2 1.9-2.9 3.7-2.9s3.8 1.1 3.8 3.2h-1.8c-.1-1.3-1-1.8-2.2-1.8s-1.8.3-1.8 1.3.5 1.1 1.2 1.3l2.9.8a2.6 2.6 0 0 1 1.9 2.6c0 2.2-2 3.1-4 3.1s-4.1-1.1-4.2-3.6zm7-3.9h1.2v-2.2h1.6v2.2h1.4v1.2H456v3.9c0 .7.1 1 .8 1h.7v1.2h-1c-1.7 0-2-.6-2-1.9v-4.3h-1.2zm11.5 5.6c0 .4.1.5.4.5h.4v1.1l-1 .2c-.6 0-1.1-.2-1.2-.9a3.7 3.7 0 0 1-2.5.9 2.2 2.2 0 0 1-2.5-2.1c0-1.8 1.4-2.1 2.8-2.3s2.2-.1 2.2-1-.9-1-1.5-1-1.5.4-1.6 1.1h-1.6c.1-1.9 1.7-2.4 3.3-2.4s2.9.6 2.9 2.1zm-1.6-2a5.7 5.7 0 0 1-2 .4c-.7.1-1.3.4-1.3 1.2s.9.9 1.5.9 1.8-.4 1.8-1.4zm2.6-3.6h1.2v-.6c0-1.9 1-2.2 2-2.2h1.1v1.2h-.7c-.4 0-.8.2-.8.8v.7h1.4v1.2h-1.4v6.1h-1.6v-6.1h-1.2z"/><path class="cls-5" d="M469.8 275.7h1.2v-.6c0-1.9 1-2.2 2-2.2h1.1v1.2h-.7c-.4 0-.8.2-.8.8v.7h1.4v1.2h-1.4v6.1H471v-6.1h-1.2zm5.2-2.8h1.6v1.5H475zm0 2.8h1.6v7.3H475zm3.4 0h1.5v1.1a2.6 2.6 0 0 1 2.3-1.3 2.3 2.3 0 0 1 2.6 2.5v5h-1.6v-4.6c0-1.1-.5-1.6-1.4-1.6a1.8 1.8 0 0 0-1.8 1.9v4.3h-1.6zm14.7 6.9c0 2.2-1.3 3.3-3.6 3.3s-3.1-.6-3.2-2.3h1.6c.2.9.9 1.1 1.7 1.1a1.6 1.6 0 0 0 1.9-1.9v-1.1a2.5 2.5 0 0 1-2.2 1.3c-2.3 0-3.3-1.7-3.3-3.8a3.3 3.3 0 0 1 3.3-3.6 2.3 2.3 0 0 1 2.1 1.2v-1h1.6zm-1.6-3.4c0-1.2-.6-2.4-1.9-2.4s-1.9 1.3-1.9 2.5.6 2.4 1.9 2.4 1.9-1.3 1.9-2.6zm64.5-6.3h4.2c3.1 0 4.4 2.2 4.4 5s-1.3 5-4.4 5H556zm1.8 8.6h1.7c2.7 0 3.3-1.6 3.3-3.6s-.6-3.6-3.3-3.6h-1.7zm15.1-5.4a2.4 2.4 0 0 0-2.5-2c-2.1 0-3 1.9-3 3.8s.9 3.8 3 3.8a2.6 2.6 0 0 0 2.6-2.6h1.7a4.1 4.1 0 0 1-4.3 4.1c-3 0-4.8-2.4-4.8-5.2s1.8-5.2 4.8-5.2 4 1.3 4.2 3.4zm4.5 3.5c0 1.5 1.1 2.1 2.5 2.1s2.1-.8 2.1-1.5a1.2 1.2 0 0 0-.8-1.2l-3-.8a2.5 2.5 0 0 1-2.2-2.5c0-2 1.9-2.9 3.7-2.9s3.8 1.1 3.8 3.2h-1.8c-.1-1.3-1-1.8-2.2-1.8s-1.8.3-1.8 1.3.5 1.1 1.2 1.3l2.9.8a2.7 2.7 0 0 1 1.9 2.6c0 2.2-2 3.1-4 3.1s-4.1-1.1-4.2-3.6z"/><text class="cls-6" transform="translate(274.9 171.1)">LOP</text></svg>