<svg id="Layer_1" data-name="Layer 1" xmlns="http://www.w3.org/2000/svg" viewBox="0 0 540 540"><defs><style>.cls-1,.cls-4{fill:none;stroke-miterlimit:10;stroke-width:2px}.cls-1{stroke:#a7a9ac}.cls-2{fill:#3f57a6}.cls-3{fill:#808285}.cls-4{stroke:#fff}.cls-5{fill:#a7a9ac}</style></defs><title>c-460</title><path class="cls-1" d="M237.1 348.9h94"/><path class="cls-2" d="M341.4 162q-20-20.3-21.1-20.3H178.6v257.1h182.8V183.4q0-1.1-20-21.4m.5 16.6h-17.4v-17.4l17.4 17.4m-28.8-25.4v36.9h36.8v197.4H190V153.1z" id="Layer0_0_FILL" data-name="Layer0 0 FILL"/><path class="cls-3" d="M245.8 201.1a6.4 6.4 0 0 0-6.5-5.2c-5.8 0-8 5-8 10.1s2.2 9.9 8 9.9c4 0 6.2-2.7 6.7-6.6h6.3c-.7 7.4-5.8 12.1-13 12.1-9.1 0-14.5-6.8-14.5-15.4s5.4-15.6 14.5-15.6c6.5 0 12 3.8 12.8 10.6zM256.8 191.2h22.1v5.5h-15.6v6.3h14.3v5.1h-14.3v7.2h15.9v5.5h-22.4zM283.6 191.2h15.9c5.3 0 8.7 3.7 8.7 8.2s-1.4 6.1-4.7 7.4c3.2.8 4.1 3.9 4.3 6.9s.1 5.3 1.2 7h-6.5c-.8-1.9-.7-4.7-1-7.1s-1.7-4.5-4.9-4.5h-6.5v11.5h-6.5zm6.5 13.4h7.1c2.9 0 4.5-1.2 4.5-4.2s-1.6-4.1-4.5-4.1h-7.1z"/><path class="cls-4" d="M203.2 233.8h134.5"/><path class="cls-5" d="M229.5 272.7a6.6 6.6 0 0 0-2.8-2.4 23.8 23.8 0 0 0-4.8-1.6v-3.9l.5.3a3.6 3.6 0 0 1 1.1 2.1l6.1-.4a6.6 6.6 0 0 0-2.5-4.7 9.9 9.9 0 0 0-5.1-1.5v-3.3h-3v3.3a11.6 11.6 0 0 0-3.8.8 6.4 6.4 0 0 0-2.9 2.3 5.7 5.7 0 0 0-1 3.1 5.3 5.3 0 0 0 1.9 4.1 14 14 0 0 0 5.7 2.5v5.4a3.6 3.6 0 0 1-1.4-1.1 5 5 0 0 1-.9-2.3l-6.1.4a8.4 8.4 0 0 0 2.4 5.2c1.2 1.2 3.2 1.9 6 2.1v3.3h2.9v-3.3a12 12 0 0 0 4.1-.9 7.2 7.2 0 0 0 3.2-2.7 6.9 6.9 0 0 0 1.2-3.8 6.1 6.1 0 0 0-.8-3zm-11.6-5.2a1.5 1.5 0 0 1-.6-1.1 1.8 1.8 0 0 1 .7-1.4l1-.5v3.6zm5.3 11.2a3 3 0 0 1-1.3.6v-4.9a4.3 4.3 0 0 1 1.4.7 2.3 2.3 0 0 1 .8 1.7 2.3 2.3 0 0 1-.9 1.9zM229.5 312a6.6 6.6 0 0 0-2.8-2.4 23.8 23.8 0 0 0-4.8-1.6v-3.9l.5.3a3.6 3.6 0 0 1 1.1 2.1l6.1-.4a6.6 6.6 0 0 0-2.5-4.7 9.9 9.9 0 0 0-5.1-1.5v-3.3h-3v3.4a11.6 11.6 0 0 0-3.8.8 6.4 6.4 0 0 0-2.9 2.3 5.7 5.7 0 0 0-1 3.1 5.3 5.3 0 0 0 1.9 4.1 14 14 0 0 0 5.7 2.5v5.4a3.6 3.6 0 0 1-1.4-1.1 5 5 0 0 1-.9-2.3l-6.1.4a8.4 8.4 0 0 0 2.4 5.2c1.2 1.2 3.2 1.9 6 2.1v3.3h2.9v-3.3a12 12 0 0 0 4.1-.9 7.2 7.2 0 0 0 3.2-2.7 6.9 6.9 0 0 0 1.2-3.8 6.1 6.1 0 0 0-.8-3.1zm-11.6-5.2a1.5 1.5 0 0 1-.6-1.1 1.8 1.8 0 0 1 .7-1.4l1-.5v3.6zm5.3 11.2a3 3 0 0 1-1.3.6v-4.9a4.3 4.3 0 0 1 1.4.7 2.3 2.3 0 0 1 .8 1.7 2.3 2.3 0 0 1-.9 1.8zM229.5 351.2a6.6 6.6 0 0 0-2.8-2.4 23.8 23.8 0 0 0-4.8-1.6v-3.9l.5.3a3.6 3.6 0 0 1 1.1 2.1l6.1-.4a6.6 6.6 0 0 0-2.5-4.7 9.9 9.9 0 0 0-5.1-1.5v-3.3h-3v3.3a11.6 11.6 0 0 0-3.8.8 6.4 6.4 0 0 0-2.9 2.3 5.7 5.7 0 0 0-1 3.1 5.3 5.3 0 0 0 1.9 4.1 14 14 0 0 0 5.7 2.5v5.4a3.6 3.6 0 0 1-1.4-1.1 5 5 0 0 1-.9-2.3l-6.1.4a8.4 8.4 0 0 0 2.4 5.2c1.2 1.2 3.2 1.9 6 2.1v3.3h2.9v-3.3a12 12 0 0 0 4.1-.9 7.2 7.2 0 0 0 3.2-2.7 6.9 6.9 0 0 0 1.2-3.8 6.1 6.1 0 0 0-.8-3zm-11.6-5.2a1.5 1.5 0 0 1-.6-1.1 1.8 1.8 0 0 1 .7-1.4l1-.5v3.6zm5.3 11.2a3 3 0 0 1-1.3.6v-4.9a4.3 4.3 0 0 1 1.4.7 2.3 2.3 0 0 1 .8 1.7 2.3 2.3 0 0 1-.9 1.8z"/><path class="cls-1" d="M237.1 271.3h94M237.1 310.1h94"/></svg>