<svg id="Layer_1" data-name="Layer 1" xmlns="http://www.w3.org/2000/svg" viewBox="0 0 540 415.3"><defs><style>.cls-1,.cls-8{fill:#5fc8d7}.cls-2,.cls-5{fill:#4057a7}.cls-3{fill:#192530}.cls-4{fill:#333;stroke:#231f20;stroke-width:.5px}.cls-10,.cls-11,.cls-12,.cls-13,.cls-5{stroke:#333}.cls-12,.cls-13,.cls-5,.cls-6,.cls-7{stroke-miterlimit:10}.cls-5{stroke-width:.75px}.cls-10,.cls-11,.cls-12,.cls-6,.cls-7,.cls-9{fill:none}.cls-6{stroke:#27aae1}.cls-7,.cls-8,.cls-9{stroke:#424242}.cls-12,.cls-13,.cls-7,.cls-8,.cls-9{stroke-width:2.5px}.cls-10,.cls-11,.cls-8,.cls-9{stroke-linejoin:round}.cls-10,.cls-11{stroke-width:5px}.cls-11{stroke-linecap:round}.cls-13{fill:#2dabe2}.cls-14{fill:#1d2e5e}</style></defs><title>c-505</title><g id="_Group_" data-name="&lt;Group&gt;"><path class="cls-1" d="M477.3 123.5v2c0 .3 0 .8-.1 1.2v1.6l-.3 1.8-.5 1.7v.4c-.3.8-.6 1.5-.9 2.3l-.5 1.1-.6 1-.6 1-1.4 1.9-.3.3h-.1l-.7.8-.4.4-1.5 1.3-.4.3-.4.4-1.1.8-.5.4-1.1.7-.5.3-1.2.6-.6.3-.6.2-.6.2-.6.2-.6.2h-.7l-2 .5H454a23.5 23.5 0 0 1 0-47h4.4l.9.2h.6l1.7.5 1 .4 1.1.5.7.3.3.2.7.4.7.4.5.3.6.4.8.6.8.6.7.6 2.2 2.2h.1l.8 1 1.5 2.1.6 1.1.8 1.6h.1a23.1 23.1 0 0 1 1.7 6c.1.7.2 1.4.2 2.2zm-6.2 1.1a17.3 17.3 0 1 0-17.3 17.3 17.3 17.3 0 0 0 17.3-17.3z"/><circle class="cls-2" cx="453.8" cy="124.6" r="17.3"/><path class="cls-3" d="M496.3 99.9h-39.9a1 1 0 0 1-1-1v-8.3a1 1 0 0 1 1-1h39.9a1 1 0 0 1 1 1v8.3a1 1 0 0 1-1 1zm-39-1.9h38v-6.4h-38z"/><path class="cls-3" d="M491.8 91.7h-39.9a1 1 0 0 1-1-1v-8.3a1 1 0 0 1 1-1h39.9a1 1 0 0 1 1 1v8.3a1 1 0 0 1-1 1zm-39-1.9h38v-6.4h-38zM476.3 123.4a19.8 19.8 0 0 0-.2-2 22 22 0 0 0-1.6-5.8l-.8-1.6-.6-1.1-1.4-2-.8-1 1.4-1.3.9 1.1 1.5 2.2.7 1.2.8 1.7h.1a23.9 23.9 0 0 1 1.7 6.2 21.5 21.5 0 0 1 .2 2.2zM470.8 109.8l-2-2 1.3-1.4 2.1 2.2zM468.7 107.7l-.6-.5-.8-.6 1.1-1.6.9.7.7.6z"/><path class="cls-3" d="M467.3 106.5l-.8-.6-.5-.4 1-1.6.6.4.9.6zM465.5 105.3l-.7-.4-.7-.4.9-1.7-.4.9.5-.8.8.4.8.4zM464 104.5l-.3-.2-.6-.3.8-1.7.7.3.4.2zM462 103.6l-1-.4.6-1.8 1 .4zM459.4 102.8h-.5l.4-1.9h.6zM458 102.4h-1l.3-1.9h1.1zM456.1 102.2H455v-1.9h1.3zM453.8 149a24.5 24.5 0 0 1 0-48.9v1.9a22.5 22.5 0 0 0 0 45.1zM455.7 149v-2h.5l.2 1.9z"/><path class="cls-3" d="M456.4 148.9l-.2-1.9h.5l.3 1.9zM457.3 148.8l-.3-1.9h1l.3 1.9h-1.1zM460.5 148.1l-.5-1.9h.3l.6 1.8zM461.2 147.9l-.6-1.8.6-.2.6-.2.6-.2.5-.2.6-.3.9 1.7-.6.3-.6.3-.6.2-.6.2zM465.5 146.1l-.9-1.7h.1l.4-.2 1 1.7-.4.2zM467.1 145.1l-1.1-1.6.5-.3 1.1 1.6zM468.7 143.9l-1.1-1.5.4-.3.4-.3 1.3 1.4-.5.4zM471.1 141.8l-1.3-1.4.4-.4 1.4 1.3zM472.7 140l-1.5-1.2 1.3-1.8.6-1 .6-1 .5-1 1.7.8-.5 1.1-.6 1.1-.7 1zM477 132.4l-1.8-.6.1-.4 1.8.6-.1.4zM477.2 131.9l-1.8-.6.4-1.5q.2-.8.3-1.7v-.5l1.9.2v.6c-.1.6-.2 1.3-.4 1.8zM478.1 127.3l-1.9-.3v-.5h1.9zM478.2 125.5h-1.9v-.8h1.9c.1.2.1.5 0 .8zM453.8 142.8a18.2 18.2 0 1 1 18.2-18.2 18.3 18.3 0 0 1-18.2 18.2zm0-34.6a16.3 16.3 0 1 0 16.3 16.3 16.3 16.3 0 0 0-16.3-16.2zM468.7 107.7l-.6-.5-.8-.6-.8-.6-.5-.4-.4-.2h-.1l-.7-.4-.6-.3h-.2l-.3-.2-.6-.3-1.1-.4-1-.4-1.6-.5h-.5l-.9-.2h-4.2a1 1 0 0 1-1-1v-2.9a1 1 0 0 1 1-1h39.9a1 1 0 0 1 1 1v8.2h-1.9v-7.2h-38v.4h3.7l.9.2h.6l1.7.5 1 .4 1.2.5.7.3.3.2.8.4.8.4h.1l.4.3.6.4.9.6.8.7.7.6z"/><path class="cls-3" d="M493.7 108.1h-24.2a1 1 0 0 1-.7-.3h-.1l.7-.9v-.7h24.2z"/><path class="cls-3" d="M493.7 116.3h-18.3v-1.9h17.4V108h-23.4v-2h24.3a1 1 0 0 1 1 1v8.3a1 1 0 0 1-1 1z"/><path class="cls-3" d="M474.5 115.6l-.8-1.6-.6-1.1-1.4-2-.8-.9h-.1l-2.1-2.1 1.3-1.4 2.3 2.3.9 1.1 1.5 2.2.7 1.2.8 1.7z"/><path class="cls-3" d="M491.8 124.4h-14.5a1 1 0 0 1-1-.9c0-.7-.1-1.4-.2-2.1a22.2 22.2 0 0 0-1.6-5.8 1 1 0 0 1 .1-.9 1 1 0 0 1 .8-.5h16.5a1 1 0 0 1 1 1v8.3a1 1 0 0 1-1.1.9zm-13.6-1.9h12.7v-6.4h-14.1a24.2 24.2 0 0 1 1.3 5c0 .5 0 1 .1 1.4z"/><path class="cls-3" d="M493.7 132.6h-17.5v-1l-.9-.3.5-1.6c.1-.6.2-1.1.3-1.7v-1.4c0-.4.1-.7.1-1.1v-.9-1a1 1 0 0 1 1-1h16.5a1 1 0 0 1 1 1v8.3a1 1 0 0 1-1 .7zm-16.3-1.9h15.3v-6.4h-14.4v1.1c0 .3 0 .8-.1 1.2v1.5c-.1.6-.2 1.2-.4 1.8z"/><path class="cls-3" d="M496.3 140.8h-24.7v-1.1l-.6-.5.3-.3 1.3-1.8.6-1 .6-1 .5-1c.3-.7.6-1.5.9-2.2v-.2h.1a1 1 0 0 1 .9-.7h20a1 1 0 0 1 1 1v8.3a1 1 0 0 1-.9.5zm-22.7-1.9h21.7v-6.4h-18.4q-.4 1.1-.9 2.3l-.5 1.1-.6 1.1-.7 1z"/><path class="cls-3" d="M493.7 149h-39.9a1 1 0 0 1 0-1.9h4.3l1.9-.5h.6l.6-.2h.1l.4-.2.6-.2h.1l.4-.2.6-.3 1.1-.6.5-.3 1-.6h.1l.4-.2 1-.7.4-.3.4-.3 1.4-1.3.4-.4.7-.8h.1a1.1 1.1 0 0 1 .8-.4h22a1 1 0 0 1 1 1v8.3a1 1 0 0 1-1 .1zm-30.4-1.9h29.5v-6.4h-20.6l-.6.6-.4.4-1.6 1.4-.4.4-.4.4-1.1.8-.4.3h-.1l-1.1.7-.5.3-1.2.6-.6.3z"/></g><path class="cls-4" d="M69.2 243.5v-1.2h50a.8.8 0 0 0 .9-.7V207H68.4v34.6a.8.8 0 0 0 .9.7v1.2a2.1 2.1 0 0 1-2.2-1.9v-35.2a.6.6 0 0 1 .2-.4l.5-.2h53.1l.5.2a.6.6 0 0 1 .2.4v35.2a2.1 2.1 0 0 1-2.2 1.9zM104.9 197.9v-6.1a3.7 3.7 0 1 1 7.4 0v6.1a3.7 3.7 0 1 1-7.4 0zm1.4-6.1v6.1a2.4 2.4 0 1 0 4.7 0v-6.1a2.4 2.4 0 1 0-4.7 0zM76.2 197.9v-6.1a3.7 3.7 0 1 1 7.4 0v6.1a3.7 3.7 0 1 1-7.4 0zm1.4 0a2.4 2.4 0 1 0 4.7 0v-6.1a2.4 2.4 0 1 0-4.7 0z"/><rect class="cls-5" x="78.2" y="211.6" width="5.1" height="5.07" rx="1" ry="1"/><rect class="cls-5" x="85.2" y="211.6" width="5.1" height="5.07" rx="1" ry="1"/><rect class="cls-5" x="92.2" y="211.6" width="5.1" height="5.07" rx="1" ry="1"/><rect class="cls-5" x="78.2" y="218.4" width="5.1" height="5.07" rx="1" ry="1"/><rect class="cls-5" x="92.2" y="218.4" width="5.1" height="5.07" rx="1" ry="1"/><rect class="cls-5" x="85.2" y="218.4" width="5.1" height="5.07" rx="1" ry="1"/><rect class="cls-5" x="78.2" y="225.1" width="5.1" height="5.07" rx="1" ry="1"/><rect class="cls-5" x="85.2" y="225.1" width="5.1" height="5.07" rx="1" ry="1"/><rect class="cls-5" x="71.3" y="218.4" width="5.1" height="5.07" rx="1" ry="1"/><rect class="cls-5" x="71.3" y="225.1" width="5.1" height="5.07" rx="1" ry="1"/><path class="cls-4" d="M82.9 195.5a.7.7 0 1 1 0-1.4h22.7a.7.7 0 0 1 0 1.4z"/><path class="cls-4" d="M67.7 207.2l-.5-.2a.7.7 0 0 1-.2-.5v-10.1a2.2 2.2 0 0 1 2.2-2.2h7.6a.7.7 0 0 1 0 1.4h-7.6a.9.9 0 0 0-.9.9v9.4H120v-9.4a.9.9 0 0 0-.9-.9h-7.6a.7.7 0 0 1 0-1.4h7.6a2.2 2.2 0 0 1 2.2 2.2v10.1a.7.7 0 0 1-.2.5l-.5.2z"/><rect class="cls-5" x="106.1" y="211.6" width="5.1" height="5.07" rx="1" ry="1"/><rect class="cls-5" x="113" y="211.6" width="5.1" height="5.07" rx="1" ry="1"/><rect class="cls-5" x="99.1" y="211.6" width="5.1" height="5.07" rx="1" ry="1"/><rect class="cls-5" x="106.1" y="218.4" width="5.1" height="5.07" rx="1" ry="1"/><rect class="cls-5" x="113" y="218.4" width="5.1" height="5.07" rx="1" ry="1"/><rect class="cls-5" x="99.1" y="218.4" width="5.1" height="5.07" rx="1" ry="1"/><rect class="cls-5" x="92" y="225.1" width="5.1" height="5.07" rx="1" ry="1"/><rect class="cls-5" x="105.9" y="225.1" width="5.1" height="5.07" rx="1" ry="1"/><rect class="cls-5" x="112.8" y="225.1" width="5.1" height="5.07" rx="1" ry="1"/><rect class="cls-5" x="98.9" y="225.1" width="5.1" height="5.07" rx="1" ry="1"/><rect class="cls-5" x="77.9" y="231.8" width="5.1" height="5.07" rx="1" ry="1"/><rect class="cls-5" x="84.9" y="231.8" width="5.1" height="5.07" rx="1" ry="1"/><rect class="cls-5" x="70.9" y="231.8" width="5.1" height="5.07" rx="1" ry="1"/><rect class="cls-5" x="91.6" y="231.8" width="5.1" height="5.07" rx="1" ry="1"/><rect class="cls-5" x="105.5" y="231.8" width="5.1" height="5.07" rx="1" ry="1"/><rect class="cls-5" x="98.5" y="231.8" width="5.1" height="5.07" rx="1" ry="1"/><path class="cls-6" d="M70.3 213.9h48.3M70.3 227.6h48.3M70.3 221h48.3"/><g id="_Group_2" data-name="&lt;Group&gt;"><path class="cls-1" d="M487.9 233.8v2.6h-9.5v-14.2h9.5v11.6zM478.4 213.1h9.5v5.13h-9.5zM478.4 204h9.5v5.13h-9.5zM464.3 231.3h9.5v5.13h-9.5zM464.3 222.2h9.5v5.12h-9.5zM464.3 213.1h9.5v5.13h-9.5zM464.3 204h9.5v5.13h-9.5zM450.1 231.3h9.5v5.13h-9.5zM450.1 222.2h9.5v5.12h-9.5zM450.1 213.1h9.5v5.13h-9.5zM450.1 204h9.5v5.13h-9.5z"/><path class="cls-3" d="M490.5 243.7h-42.9a4.7 4.7 0 0 1-4.7-4.7v-62.5a4.7 4.7 0 0 1 4.7-4.7h42.9a4.7 4.7 0 0 1 4.7 4.7V239a4.7 4.7 0 0 1-4.7 4.7zm-42.9-69.9a2.7 2.7 0 0 0-2.7 2.7V239a2.7 2.7 0 0 0 2.7 2.7h42.9a2.7 2.7 0 0 0 2.7-2.7v-62.5a2.7 2.7 0 0 0-2.7-2.7z"/><path class="cls-3" d="M487.9 191.5h-37.8a1 1 0 0 1-1-1v-11.4a1 1 0 0 1 1-1h37.8a1 1 0 0 1 1 1v11.4a1 1 0 0 1-1 1zm-36.8-2h35.8V180h-35.8zM459.6 210.1h-9.5a1 1 0 0 1-1-1V204a1 1 0 0 1 1-1h9.5a1 1 0 0 1 1 1v5.1a1 1 0 0 1-1 1zm-8.5-2h7.5V205h-7.5zM473.8 210.1h-9.5a1 1 0 0 1-1-1V204a1 1 0 0 1 1-1h9.5a1 1 0 0 1 1 1v5.1a1 1 0 0 1-1 1zm-8.5-2h7.5V205h-7.5zM487.9 210.1h-9.5a1 1 0 0 1-1-1V204a1 1 0 0 1 1-1h9.5a1 1 0 0 1 1 1v5.1a1 1 0 0 1-1 1zm-8.5-2h7.5V205h-7.5zM459.6 219.2h-9.5a1 1 0 0 1-1-1v-5.1a1 1 0 0 1 1-1h9.5a1 1 0 0 1 1 1v5.1a1 1 0 0 1-1 1zm-8.5-2h7.5v-3.1h-7.5zM473.8 219.2h-9.5a1 1 0 0 1-1-1v-5.1a1 1 0 0 1 1-1h9.5a1 1 0 0 1 1 1v5.1a1 1 0 0 1-1 1zm-8.5-2h7.5v-3.1h-7.5zM487.9 219.2h-9.5a1 1 0 0 1-1-1v-5.1a1 1 0 0 1 1-1h9.5a1 1 0 0 1 1 1v5.1a1 1 0 0 1-1 1zm-8.5-2h7.5v-3.1h-7.5zM459.6 228.3h-9.5a1 1 0 0 1-1-1v-5.1a1 1 0 0 1 1-1h9.5a1 1 0 0 1 1 1v5.1a1 1 0 0 1-1 1zm-8.5-2h7.5v-3.1h-7.5zM473.8 228.3h-9.5a1 1 0 0 1-1-1v-5.1a1 1 0 0 1 1-1h9.5a1 1 0 0 1 1 1v5.1a1 1 0 0 1-1 1zm-8.5-2h7.5v-3.1h-7.5zM459.6 237.4h-9.5a1 1 0 0 1-1-1v-5.1a1 1 0 0 1 1-1h9.5a1 1 0 0 1 1 1v5.1a1 1 0 0 1-1 1zm-8.5-2h7.5v-3.1h-7.5zM473.8 237.4h-9.5a1 1 0 0 1-1-1v-5.1a1 1 0 0 1 1-1h9.5a1 1 0 0 1 1 1v5.1a1 1 0 0 1-1 1zm-8.5-2h7.5v-3.1h-7.5zM487.9 237.4h-9.5a1 1 0 0 1-1-1v-14.2a1 1 0 0 1 1-1h9.5a1 1 0 0 1 1 1v14.2a1 1 0 0 1-1 1zm-8.5-2h7.5v-12.2h-7.5zM461.2 194.9h15.6v1.99h-15.6z"/></g><path class="cls-7" d="M469 266a33.1 33.1 0 1 0 33.1 33.1A33.2 33.2 0 0 0 469 266z"/><path class="cls-7" d="M468.6 277a22.2 22.2 0 1 0 22.2 22.2 22.2 22.2 0 0 0-22.2-22.2zM468.6 278.2v4.5M468.6 316.2v4.5M490.2 299.1h-4.5M452.2 299.1h-4.5"/><circle class="cls-8" cx="468.6" cy="299.1" r="4.2" transform="rotate(-45 468.628 299.188)"/><path class="cls-9" d="M464.1 298.5l-8.4 12.5 13.3-7.6M472.3 299.9l7.3-11.4-12.2 6.4"/><path class="cls-10" d="M310.3 258.8c9.7 0 17.5-7.5 17.5-16.8v-49.5a14.9 14.9 0 0 0-10.5-14.1l-11.3-3.8-21.9 21-21.9-21-11.3 3.8a14.9 14.9 0 0 0-10.5 14.1V242c0 9.3 7.8 16.8 17.5 16.8"/><ellipse class="cls-11" cx="284" cy="145.2" rx="21.9" ry="21"/><path class="cls-11" d="M310.3 208.3v126.3h-52.6V208.3M284 258.8v75.8"/><path class="cls-10" d="M328.8 227.8a18 18 0 0 0 8.2 1.9M389.5 229.8c9.7 0 17.5-7.5 17.5-16.8v-49.6a14.9 14.9 0 0 0-10.5-14.1l-11.3-3.8-21.9 21-21.9-21-11.4 3.8a14.9 14.9 0 0 0-10.5 14.1v17.8"/><ellipse class="cls-11" cx="363.2" cy="116.1" rx="21.9" ry="21"/><path class="cls-11" d="M389.5 179.3v126.3H337V179.3M363.2 229.8v75.8"/><path class="cls-10" d="M248.5 181.2V166a14.9 14.9 0 0 0-10.5-14l-11.3-3.8-21.9 21-21.9-21-11.4 3.8a14.9 14.9 0 0 0-10.5 14v49.5c0 9.3 7.8 16.8 17.5 16.8M231 232.4c4.6 0 6.2-1.7 9.4-4.6"/><ellipse class="cls-11" cx="204.8" cy="118.8" rx="21.9" ry="21"/><path class="cls-11" d="M231 181.9v126.3h-52.5V181.9M204.8 232.4v75.8"/><path class="cls-12" d="M94.5 317.1l-9.1 25.1-5.8-9.3-10.9 3.2 8.6-23.8M96.1 316.6l9.3 25.6 5.9-9.3 10.9 3.2-8.3-22.7"/><path class="cls-13" d="M121.8 302.3l-2.4-7 4-6.2-5.4-5.1.7-7.3-7.1-2-2.8-6.8-7.2 1.5-5.7-4.7-5.6 4.7-7.2-1.4-2.8 6.8-7.1 2 .7 7.3-5.4 5.1 4 6.2-2.4 7 6.4 3.6 1.1 7.3 7.4.2 4.4 6 6.6-3.3 6.6 3.3 4.4-6 7.4-.2 1.1-7.3zM79 292.8a16.8 16.8 0 1 1 16.8 16.8A16.8 16.8 0 0 1 79 292.8z"/><g id="_Group_3" data-name="&lt;Group&gt;"><path class="cls-14" d="M129.5 117v22.2h-26.4v2.1H90.3v-2.1H63.9v-8.7l17.5-8.7 8 4.4 15.6-6.3 7.5 4.5 17-7.4z"/><path class="cls-3" d="M130.6 139.2h-2.2V97.8H65v41.4h-2.2V96.7a1.1 1.1 0 0 1 1.1-1.1h65.6a1.1 1.1 0 0 1 1.1 1.1z"/><path class="cls-3" d="M136.6 139.2h-2.2V94.1a2.3 2.3 0 0 0-2.3-2.3H61.3a2.3 2.3 0 0 0-2.3 2.3v45.1h-2.2V94.1a4.6 4.6 0 0 1 4.5-4.5h70.8a4.6 4.6 0 0 1 4.5 4.5z"/><path class="cls-3" d="M144 147.2H49.5a1.1 1.1 0 0 1-.9-.5 14.7 14.7 0 0 1-1.9-3.2 17.7 17.7 0 0 1 0-4.4 1.1 1.1 0 0 1 1.1-1h42.5a1.1 1.1 0 0 1 1.1 1.1v1H102v-1a1.1 1.1 0 0 1 1.1-1.1h42.5a1.1 1.1 0 0 1 1.1 1 17.6 17.6 0 0 1 0 4.4 14.7 14.7 0 0 1-1.9 3.2 1.1 1.1 0 0 1-.8.5zM50 145h93.3a11.7 11.7 0 0 0 1.2-2 12.3 12.3 0 0 0 0-2.6h-40.2v1a1.1 1.1 0 0 1-1.1 1.1H90.3a1.1 1.1 0 0 1-1.1-1.1v-1H48.8a12.4 12.4 0 0 0 0 2.6 11.6 11.6 0 0 0 1.2 2zM64.4 131.5l-1-2 17.5-8.7a1.1 1.1 0 0 1 1 0l7.6 4.1 15.1-6a1.1 1.1 0 0 1 1 .1l7.1 4.2 16.5-7.2 1 2h-.2l-17 7.4a1.1 1.1 0 0 1-1-.1l-7.1-4.2-15.1 6a1.1 1.1 0 0 1-.9-.1l-7.6-4zM71.8 103.1h18.9v2.23H71.8zM71.8 107.9h10.8v2.23H71.8z"/></g></svg>