<svg id="Layer_1" xmlns="http://www.w3.org/2000/svg" xmlns:xlink="http://www.w3.org/1999/xlink" viewBox="0 0 900 375"><style>.st0{opacity:.4}.st1{fill:#f3f3f3}.st2{opacity:.49;fill:#fff200}.st3{fill:#192530}.st4{fill:#333}.st5{fill:#2cabe2}.st6{fill:#3f57a6}.st7{fill:#1e2e5e}.st8{fill:#424143}.st9{fill:#333;stroke:#000}.st10{fill:none;stroke:#333;stroke-width:4}.st11,.st12{fill:none;stroke:#000;stroke-width:2;stroke-miterlimit:10}.st12{stroke-width:3}</style><image width="3052" height="1103" xlink:href="ED40FE4E.png" transform="matrix(.24 0 0 .24 -755 41.765)" overflow="visible" class="st0"/><path class="st1" d="M-708.7 267.9c8.9-.4 17.7-.8 26.7-.6-.1-.2-.1-.3-.2-.5 1.7-.1 2.6-.1 2.6-.1s83-1.6 88-.3 102.9 4.6 115.9 4c13-.6 160.6.2 178-.5 17.4-.7 146.1-.3 146.1-.3s50-1.5 71.7-2.3v.3c1.8-.1 3.7-.3 5.6-.3-4.2.1 4.7-.2 5.5-.3 2.4-.1 4.8-.3 7.2-.4.5 0 1-.1 1.5-.1 0-1.7.2-67.3 1.2-70.7 1.1-3.4-5.8-34.4-6.6-35.5-.9-1.1-7.8-48.7-6.6-50.9 1.3-2.2 4.3-16.9 2.9-19.5-.1-.2-6.2-10.1-7.5-11.4-11.4-.2-24.3-.5-35.2-.6H-137c-4.3.2-16.9.1-30.7 0h-44c-14.9.6-56.9 2.1-62.1 2.1-5.3 0-28.5 1.9-39.1 1.3-10.6-.6-85.9.8-88.6.1-2.7-.7-89.5 1-92.2.2-2.7-.8-91.3-1.1-101.9-.8-9.9.2-98 .3-113 .9 0 .1.1.3.1.4 0 1.4-2.5 3.3-1.7 3.3-.1 4.6-.1 9 .7 10.5.5.8-2.3 18.5-5 25.9-1.9 5.3-1.7 76.3-1.7 76.3l.7 10.6-1.8 21.5c-1 4.4-1.6 13.6-1.1 13.8l-.9 10.4s.5 7.7.8 13.3l2.7.3h4.1c1.2 0 2.1-.1 3-.1z"/><path class="st2" d="M-368.5 112.6h118.2v26h-118.2z"/><text transform="matrix(.9875 0 0 1 -663.7 132.657)"><tspan x="0" y="0" fill="#010101" font-family="Arial-BoldMT" font-size="22.237">P</tspan><tspan x="14.4" y="0" fill="#010101" font-family="Arial-BoldMT" font-size="22.237">R</tspan><tspan x="30.1" y="0" fill="#010101" font-family="Arial-BoldMT" font-size="22.237">O</tspan><tspan x="47.1" y="0" fill="#010101" font-family="Arial-BoldMT" font-size="22.237">J</tspan><tspan x="58.9" y="0" fill="#010101" font-family="Arial-BoldMT" font-size="22.237">E</tspan><tspan x="73.3" y="0" fill="#010101" font-family="Arial-BoldMT" font-size="22.237">C</tspan><tspan x="89" y="0" fill="#010101" font-family="Arial-BoldMT" font-size="22.237">T</tspan><tspan x="102.1" y="0" fill="#010101" font-family="Arial-BoldMT" font-size="22.237">:</tspan></text><text transform="matrix(.9875 0 0 1 -351.102 132.657)"><tspan x="0" y="0" fill="#010101" font-family="Arial-BoldMT" font-size="22.237" letter-spacing="-1">AAA</tspan><tspan x="43.2" y="0" fill="#010101" font-family="Arial-BoldMT" font-size="22.237">00</tspan><tspan x="66.8" y="0" fill="#010101" font-family="Arial-BoldMT" font-size="22.237">1</tspan></text><text transform="matrix(.9875 0 0 1 -663.7 162.742)"><tspan x="0" y="0" fill="#010101" font-family="Arial-BoldMT" font-size="22.237">C</tspan><tspan x="15.7" y="0" fill="#010101" font-family="Arial-BoldMT" font-size="22.237">L</tspan><tspan x="28.8" y="0" fill="#010101" font-family="Arial-BoldMT" font-size="22.237">I</tspan><tspan x="34" y="0" fill="#010101" font-family="Arial-BoldMT" font-size="22.237">E</tspan><tspan x="48.4" y="0" fill="#010101" font-family="Arial-BoldMT" font-size="22.237">N</tspan><tspan x="64.2" y="0" fill="#010101" font-family="Arial-BoldMT" font-size="22.237">T</tspan><tspan x="77.2" y="0" fill="#010101" font-family="Arial-BoldMT" font-size="22.237">:</tspan></text><text transform="matrix(.9875 0 0 1 -351.102 162.742)"><tspan x="0" y="0" fill="#010101" font-family="Arial-BoldMT" font-size="22.237">C</tspan><tspan x="15.7" y="0" fill="#010101" font-family="Arial-BoldMT" font-size="22.237">li</tspan><tspan x="26.2" y="0" fill="#010101" font-family="Arial-BoldMT" font-size="22.237">e</tspan><tspan x="38" y="0" fill="#010101" font-family="Arial-BoldMT" font-size="22.237">n</tspan><tspan x="51.1" y="0" fill="#010101" font-family="Arial-BoldMT" font-size="22.237">t</tspan><tspan x="58.9" y="0" fill="#010101" font-family="Arial-BoldMT" font-size="22.237"> </tspan><tspan x="65.4" y="0" fill="#010101" font-family="Arial-BoldMT" font-size="22.237" letter-spacing="-1">AA</tspan><tspan x="94.2" y="0" fill="#010101" font-family="Arial-BoldMT" font-size="22.237">A</tspan></text><text transform="matrix(.9875 0 0 1 -663.7 191.535)"><tspan x="0" y="0" fill="#010101" font-family="Arial-BoldMT" font-size="22.237">S</tspan><tspan x="14.4" y="0" fill="#010101" font-family="Arial-BoldMT" font-size="22.237">T</tspan><tspan x="27.5" y="0" fill="#010101" font-family="Arial-BoldMT" font-size="22.237">UD</tspan><tspan x="58.9" y="0" fill="#010101" font-family="Arial-BoldMT" font-size="22.237" letter-spacing="-1">Y</tspan><tspan x="72" y="0" fill="#010101" font-family="Arial-BoldMT" font-size="22.237"> </tspan><tspan x="78.5" y="0" fill="#010101" font-family="Arial-BoldMT" font-size="22.237">N</tspan><tspan x="94.2" y="0" fill="#010101" font-family="Arial-BoldMT" font-size="22.237" letter-spacing="-1">A</tspan><tspan x="108.6" y="0" fill="#010101" font-family="Arial-BoldMT" font-size="22.237" letter-spacing="-1">M</tspan><tspan x="125.6" y="0" fill="#010101" font-family="Arial-BoldMT" font-size="22.237">E</tspan><tspan x="140.1" y="0" fill="#010101" font-family="Arial-BoldMT" font-size="22.237">:</tspan></text><text transform="matrix(.9875 0 0 1 -351.102 191.535)"><tspan x="0" y="0" fill="#010101" font-family="Arial-BoldMT" font-size="22.237">S</tspan><tspan x="14.4" y="0" fill="#010101" font-family="Arial-BoldMT" font-size="22.237">t</tspan><tspan x="22.2" y="0" fill="#010101" font-family="Arial-BoldMT" font-size="22.237">ud</tspan><tspan x="48.4" y="0" fill="#010101" font-family="Arial-BoldMT" font-size="22.237">y</tspan><tspan x="60.2" y="0" fill="#010101" font-family="Arial-BoldMT" font-size="22.237"> </tspan><tspan x="66.7" y="0" fill="#010101" font-family="Arial-BoldMT" font-size="22.237">A</tspan></text><text transform="matrix(.9875 0 0 1 -663.7 220.286)"><tspan x="0" y="0" fill="#010101" font-family="Arial-BoldMT" font-size="22.237">P</tspan><tspan x="14.4" y="0" fill="#010101" font-family="Arial-BoldMT" font-size="22.237">R</tspan><tspan x="30.1" y="0" fill="#010101" font-family="Arial-BoldMT" font-size="22.237">O</tspan><tspan x="47.1" y="0" fill="#010101" font-family="Arial-BoldMT" font-size="22.237">J</tspan><tspan x="58.9" y="0" fill="#010101" font-family="Arial-BoldMT" font-size="22.237">E</tspan><tspan x="73.3" y="0" fill="#010101" font-family="Arial-BoldMT" font-size="22.237">C</tspan><tspan x="89" y="0" fill="#010101" font-family="Arial-BoldMT" font-size="22.237">T</tspan><tspan x="102.1" y="0" fill="#010101" font-family="Arial-BoldMT" font-size="22.237"> </tspan><tspan x="108.6" y="0" fill="#010101" font-family="Arial-BoldMT" font-size="22.237">C</tspan><tspan x="124.4" y="0" fill="#010101" font-family="Arial-BoldMT" font-size="22.237">L</tspan><tspan x="137.4" y="0" fill="#010101" font-family="Arial-BoldMT" font-size="22.237" letter-spacing="-1">A</tspan><tspan x="151.8" y="0" fill="#010101" font-family="Arial-BoldMT" font-size="22.237">SS</tspan><tspan x="180.7" y="0" fill="#010101" font-family="Arial-BoldMT" font-size="22.237">I</tspan><tspan x="185.9" y="0" fill="#010101" font-family="Arial-BoldMT" font-size="22.237">F</tspan><tspan x="199" y="0" fill="#010101" font-family="Arial-BoldMT" font-size="22.237">I</tspan><tspan x="204.2" y="0" fill="#010101" font-family="Arial-BoldMT" font-size="22.237">C</tspan><tspan x="219.9" y="0" fill="#010101" font-family="Arial-BoldMT" font-size="22.237" letter-spacing="-1">A</tspan><tspan x="234.3" y="0" fill="#010101" font-family="Arial-BoldMT" font-size="22.237">T</tspan><tspan x="247.4" y="0" fill="#010101" font-family="Arial-BoldMT" font-size="22.237">I</tspan><tspan x="252.7" y="0" fill="#010101" font-family="Arial-BoldMT" font-size="22.237">O</tspan><tspan x="269.7" y="0" fill="#010101" font-family="Arial-BoldMT" font-size="22.237">N</tspan><tspan x="285.4" y="0" fill="#010101" font-family="Arial-BoldMT" font-size="22.237">:</tspan></text><text transform="matrix(.9875 0 0 1 -351.102 220.286)"><tspan x="0" y="0" fill="#010101" font-family="Arial-BoldMT" font-size="22.237">C</tspan><tspan x="15.7" y="0" fill="#010101" font-family="Arial-BoldMT" font-size="22.237">li</tspan><tspan x="26.2" y="0" fill="#010101" font-family="Arial-BoldMT" font-size="22.237">e</tspan><tspan x="38" y="0" fill="#010101" font-family="Arial-BoldMT" font-size="22.237">n</tspan><tspan x="51.1" y="0" fill="#010101" font-family="Arial-BoldMT" font-size="22.237">t</tspan><tspan x="58.9" y="0" fill="#010101" font-family="Arial-BoldMT" font-size="22.237"> </tspan><tspan x="65.4" y="0" fill="#010101" font-family="Arial-BoldMT" font-size="22.237">I</tspan><tspan x="70.7" y="0" fill="#010101" font-family="Arial-BoldMT" font-size="22.237">n</tspan><tspan x="83.8" y="0" fill="#010101" font-family="Arial-BoldMT" font-size="22.237">ves</tspan><tspan x="119.1" y="0" fill="#010101" font-family="Arial-BoldMT" font-size="22.237">t</tspan><tspan x="127" y="0" fill="#010101" font-family="Arial-BoldMT" font-size="22.237" letter-spacing="-1">m</tspan><tspan x="145.3" y="0" fill="#010101" font-family="Arial-BoldMT" font-size="22.237">e</tspan><tspan x="157.1" y="0" fill="#010101" font-family="Arial-BoldMT" font-size="22.237">n</tspan><tspan x="170.2" y="0" fill="#010101" font-family="Arial-BoldMT" font-size="22.237">t</tspan><tspan x="178" y="0" fill="#010101" font-family="Arial-BoldMT" font-size="22.237"> </tspan><tspan x="184.5" y="0" fill="#010101" font-family="Arial-BoldMT" font-size="22.237">(</tspan><tspan x="192.4" y="0" fill="#010101" font-family="Arial-BoldMT" font-size="22.237">C</tspan><tspan x="208.1" y="0" fill="#010101" font-family="Arial-BoldMT" font-size="22.237">I</tspan><tspan x="213.3" y="0" fill="#010101" font-family="Arial-BoldMT" font-size="22.237">)</tspan><tspan x="221.1" y="0" fill="#010101" font-family="Arial-BoldMT" font-size="22.237"> </tspan><tspan x="227.7" y="0" fill="#010101" font-family="Arial-BoldMT" font-size="22.237">-</tspan><tspan x="235.5" y="0" fill="#010101" font-family="Arial-BoldMT" font-size="22.237"> </tspan><tspan x="242" y="0" fill="#010101" font-family="Arial-BoldMT" font-size="22.237">2</tspan><tspan x="253.8" y="0" fill="#010101" font-family="Arial-BoldMT" font-size="22.237">0</tspan></text><path d="M615.1-620.4c-.2-1.4-1.6-2.5-3.2-2.5-2.9 0-4 2.4-4 5 0 2.4 1.1 4.9 4 4.9 2 0 3.1-1.3 3.3-3.3h3.1c-.3 3.6-2.8 5.9-6.4 5.9-4.5 0-7.1-3.4-7.1-7.6 0-4.3 2.6-7.7 7.1-7.7 3.2 0 5.9 1.9 6.3 5.2h-3.1zM620.2-625.3h2.9v14.5h-2.9v-14.5zM628.4-622.9h-2.9v-2.4h2.9v2.4zm-2.9 1.6h2.9v10.5h-2.9v-10.5zM633-615.3c.1 1.8 1 2.7 2.6 2.7 1.2 0 2.1-.7 2.3-1.4h2.5c-.8 2.5-2.5 3.5-4.9 3.5-3.3 0-5.4-2.3-5.4-5.5s2.2-5.6 5.4-5.6c3.6 0 5.3 3 5.1 6.3H633zm4.7-1.8c-.3-1.5-.9-2.2-2.3-2.2-1.8 0-2.4 1.4-2.4 2.2h4.7zM642.3-621.3h2.8v1.5h.1c.7-1.2 2-1.8 3.2-1.8 3.1 0 3.8 1.7 3.8 4.3v6.5h-2.9v-5.9c0-1.7-.5-2.6-1.9-2.6-1.6 0-2.2.9-2.2 3v5.5h-2.9v-10.5zM658.1-621.3h2.1v1.9h-2.1v5.2c0 1 .2 1.2 1.2 1.2.3 0 .6 0 .9-.1v2.3c-.5.1-1.1.1-1.7.1-1.8 0-3.3-.4-3.3-2.5v-6.2h-1.8v-1.9h1.8v-3.2h2.9v3.2zM617.5-598.7c-.2-1.4-1.6-2.5-3.2-2.5-2.9 0-4 2.4-4 5 0 2.4 1.1 4.9 4 4.9 2 0 3.1-1.3 3.3-3.3h3.1c-.3 3.6-2.8 5.9-6.4 5.9-4.5 0-7.1-3.4-7.1-7.6 0-4.3 2.6-7.7 7.1-7.7 3.2 0 5.9 1.9 6.3 5.2h-3.1zM627.7-599.9c3.3 0 5.5 2.2 5.5 5.6 0 3.3-2.1 5.5-5.5 5.5-3.3 0-5.4-2.2-5.4-5.5-.1-3.4 2.1-5.6 5.4-5.6zm0 8.9c2 0 2.6-1.7 2.6-3.4s-.6-3.4-2.6-3.4-2.5 1.7-2.5 3.4c-.1 1.7.5 3.4 2.5 3.4zM642.5-590.4c-.7 1.1-1.9 1.6-3.2 1.6-3.2 0-4.7-2.7-4.7-5.6 0-2.8 1.6-5.5 4.7-5.5 1.2 0 2.5.5 3.1 1.6v-5.3h2.9v14.5h-2.8v-1.3zm-2.5-7.3c-1.9 0-2.5 1.6-2.5 3.4 0 1.7.8 3.4 2.5 3.4 1.9 0 2.5-1.7 2.5-3.4 0-1.8-.6-3.4-2.5-3.4zM649.8-593.7c.1 1.8 1 2.7 2.6 2.7 1.2 0 2.1-.7 2.3-1.4h2.5c-.8 2.5-2.5 3.5-4.9 3.5-3.3 0-5.4-2.3-5.4-5.5s2.2-5.6 5.4-5.6c3.6 0 5.3 3 5.1 6.3h-7.6zm4.7-1.8c-.3-1.5-.9-2.2-2.3-2.2-1.8 0-2.4 1.4-2.4 2.2h4.7z"/><path fill="none" d="M586.7-687.2h95.4v64.4h-95.4z"/><text transform="translate(586.662 -641.026)" font-family="AvenirLTStd-Light" font-size="61.098">001</text><g id="XMLID_88_"><path class="st3" d="M-374.8-726.7h-62.5c-.8 0-1.5-.7-1.5-1.5v-13c0-.8.7-1.5 1.5-1.5h62.5c.8 0 1.5.7 1.5 1.5v13c0 .8-.6 1.5-1.5 1.5zm-60.9-3h59.5v-10h-59.5v10z"/><path class="st3" d="M-381.8-739.5h-62.5c-.8 0-1.5-.7-1.5-1.5v-13c0-.8.7-1.5 1.5-1.5h62.5c.8 0 1.5.7 1.5 1.5v13c0 .8-.6 1.5-1.5 1.5zm-60.9-3h59.5v-10h-59.5v10zM-406-689.9c0-1.1-.1-2.1-.3-3.1-.4-3.1-1.3-6.2-2.5-9v-.1c-.4-1-.8-1.8-1.2-2.5-.3-.6-.6-1.1-1-1.7-.7-1.1-1.4-2.2-2.2-3.2l-1.2-1.5 2.3-2c.5.6 1 1.1 1.3 1.7.9 1.1 1.7 2.3 2.4 3.5.4.6.7 1.2 1 1.8.4.8.9 1.7 1.3 2.7 0 0 .1.1.1.2 1.3 3.1 2.2 6.4 2.7 9.8.2 1.1.3 2.2.3 3.4h-3zM-414.6-711.1c-.9-1.1-2-2.2-3.1-3.1l2-2.2c1.2 1.1 2.3 2.2 3.4 3.4l-2.3 1.9zM-417.9-714.5c-.3-.3-.6-.6-.9-.8-.4-.4-.8-.7-1.2-1l1.8-2.4c.5.3.9.7 1.4 1.1.4.3.8.6 1.1 1l-2.2 2.1zM-420.1-716.3l-1.2-.9c-.3-.2-.6-.4-.8-.6l1.6-2.5.9.6c.5.3.9.6 1.4 1l-1.9 2.4zM-423-718.2c-.4-.2-.7-.4-1.1-.7-.4-.2-.7-.4-1.1-.6l1.3-2.7-.7 1.3.7-1.3 1.2.6c.4.2.8.5 1.2.7l-1.5 2.7zM-425.2-719.5c-.2-.1-.3-.2-.5-.2-.3-.2-.7-.3-1-.5l1.2-2.7c.4.2.7.3 1.1.5l.6.3-1.4 2.6zM-428.4-720.9l-1.5-.6 1-2.8c.5.2 1.1.4 1.6.6l-1.1 2.8zM-432.4-722.2c-.3-.1-.6-.1-.8-.2l.7-2.9c.3.1.6.1.9.2l-.8 2.9zM-434.6-722.7c-.2-.1-.5-.1-.7-.1-.3-.1-.6-.1-.8-.1l.4-3c.3 0 .6.1.9.1.3 0 .6.1.9.2l-.7 2.9zM-437.6-723.1c-.3 0-.6-.1-.9-.1-.3 0-.6 0-.9-.1l.1-3c.3 0 .7 0 1 .1.3 0 .6 0 .9.1l-.2 3zM-441.2-649.8c-21.1 0-38.3-17.2-38.3-38.3 0-21.1 17.2-38.3 38.3-38.3v3c-19.4 0-35.3 15.8-35.3 35.3 0 19.4 15.8 35.3 35.3 35.3v3zM-438.3-649.9l-.2-3c.2 0 .5 0 .7-.1l.3 3c-.2 0-.5.1-.8.1zM-437.2-650l-.4-3c.3 0 .5-.1.8-.1l.4 3c-.2 0-.5.1-.8.1zM-435.7-650.2l-.4-3c.3 0 .5-.1.8-.1.3 0 .5-.1.7-.1h.1l.5 3h-.1c-.2 0-.5.1-.7.1-.3 0-.6.1-.9.1zM-430.8-651.2l-.8-2.9c.2 0 .3-.1.5-.1l.9 2.8c-.2 0-.4.1-.6.2zM-429.7-651.6l-.9-2.9.9-.3.9-.3.9-.3c.3-.1.6-.2.9-.4.3-.1.6-.3.9-.4l1.3 2.7c-.3.2-.7.3-1 .4-.3.1-.6.3-.9.4-.3.1-.6.3-1 .4-.3.1-.6.2-1 .4-.3.1-.7.2-1 .3zM-423-654.4l-1.5-2.6.2-.1.6-.3 1.5 2.6c-.2.1-.4.3-.7.4h-.1zM-420.4-656l-1.7-2.5c.3-.2.5-.4.8-.5l1.7 2.4c-.2.3-.5.4-.8.6zM-417.9-657.8l-1.8-2.4c.2-.2.4-.3.6-.5.3-.2.4-.4.6-.5l2 2.2c-.2.2-.5.4-.7.6-.2.2-.4.4-.7.6zM-414.1-661.1l-2.1-2.2.6-.6 2.2 2c-.2.3-.5.6-.7.8zM-411.6-663.9l-2.3-1.9c.8-.9 1.5-1.9 2.1-2.9.4-.6.7-1 .9-1.5.3-.5.6-1 .9-1.6.3-.5.5-1.1.8-1.6l2.7 1.3c-.3.6-.6 1.2-.9 1.7-.3.5-.6 1.1-.9 1.7-.3.5-.6 1-1 1.6-.7 1.2-1.5 2.2-2.3 3.2zM-405-675.8l-2.8-.9.2-.7 2.9.9zM-404.7-676.7l-2.9-.9c.3-.8.5-1.6.6-2.4.2-.9.4-1.8.5-2.6v-.1c0-.3.1-.5.1-.8l3 .4c0 .3-.1.6-.1.9v.2c-.1 1-.3 2-.6 2.9-.1.7-.3 1.5-.6 2.4zM-403.2-683.8l-3-.4c0-.3.1-.5.1-.8l3 .2c0 .4-.1.7-.1 1zM-403-686.6l-3-.1v-1.3h3v1.4z"/><path class="st3" d="M-441.2-659.5c-15.7 0-28.5-12.8-28.5-28.5s12.8-28.5 28.5-28.5 28.5 12.8 28.5 28.5-12.8 28.5-28.5 28.5zm0-54.1c-14.1 0-25.5 11.5-25.5 25.5 0 14.1 11.5 25.5 25.5 25.5 14.1 0 25.5-11.5 25.5-25.5s-11.5-25.5-25.5-25.5zM-417.9-714.4c-.3-.3-.6-.6-1-.8-.4-.3-.8-.7-1.2-1l-1.2-.9c-.3-.2-.6-.4-.8-.6-.2-.1-.4-.3-.6-.4l-.1-.1c-.4-.2-.7-.4-1.1-.7-.3-.2-.7-.4-1-.5-.1 0-.1 0-.2-.1-.2-.1-.3-.2-.5-.2-.3-.2-.7-.3-1-.5-.5-.2-1.1-.5-1.7-.7-.5-.2-1-.4-1.5-.5-.9-.3-1.7-.5-2.5-.7-.3-.1-.6-.1-.9-.2-.4-.1-.9-.2-1.3-.3-.3-.1-.5-.1-.8-.1-.3-.1-.6-.1-.8-.1-.5-.1-.9-.1-1.4-.2-.3 0-.6-.1-.9-.1-.3 0-.6 0-.9-.1h-1.8c-.8 0-1.5-.7-1.5-1.5v-3.6c0-.8.7-1.5 1.5-1.5h62.5c.8 0 1.5.7 1.5 1.5v12.8h-3v-11.3h-59.5v.6h.5c.3 0 .7 0 1 .1.3 0 .6 0 .9.1.5.1 1 .1 1.5.2.3 0 .6.1.9.1.3 0 .6.1.9.2.5.1.9.2 1.4.3.3.1.6.1.9.2.9.2 1.8.5 2.7.8.6.2 1.1.4 1.6.6.6.2 1.2.5 1.8.8.4.2.7.3 1.1.5.2.1.3.2.5.3h.1c.4.2.8.4 1.2.7.4.2.8.5 1.2.7l.1.1c.2.1.4.3.7.4l.9.6c.4.3.9.6 1.3 1l.1.1c.5.3.9.7 1.3 1 .4.3.7.6 1.1.9l-2 2.1z"/><path class="st3" d="M-378.8-713.9h-37.9c-.4 0-.8-.2-1.1-.4l-.1-.1 1.2-1.4v-1.1h37.9v3z"/><path class="st3" d="M-378.8-701.1h-28.7v-3h27.2v-10h-36.6v-3h38.1c.8 0 1.5.7 1.5 1.5v13c0 .9-.6 1.5-1.5 1.5z"/><path class="st3" d="M-408.9-702.1c-.3-.8-.7-1.6-1.2-2.5-.3-.6-.6-1.1-1-1.7-.7-1.1-1.4-2.2-2.2-3.2l-1.2-1.5-.2-.2c-1-1.1-2.1-2.2-3.2-3.3l2-2.2c1.3 1.1 2.5 2.3 3.5 3.6 0 0 0 .1.1.1.5.6.9 1.1 1.4 1.7.9 1.1 1.7 2.3 2.4 3.5.4.6.7 1.2 1 1.8.5 1 .9 1.8 1.3 2.7l-2.7 1.2z"/><path class="st3" d="M-381.8-688.3h-22.7c-.8 0-1.5-.6-1.5-1.4 0-1-.1-2.1-.3-3.3-.4-3.1-1.3-6.2-2.5-9v-.1c-.2-.5-.2-1 .1-1.5.3-.4.7-.7 1.2-.7h25.8c.8 0 1.5.7 1.5 1.5v13c-.1.9-.7 1.5-1.6 1.5zm-21.3-3h19.8v-10h-22c.9 2.6 1.6 5.2 2 7.9.1.8.1 1.5.2 2.1z"/><path class="st3" d="M-378.8-675.4h-27.4v-1.5l-1.4-.5c.2-.8.5-1.6.7-2.6.2-.9.4-1.7.5-2.6v-.1c0-.3.1-.5.1-.8 0-.2 0-.4.1-.5v-.1c0-.2 0-.3.1-.5v-.3c0-.6.1-1.1.1-1.7v-1.3-1.6-.2c0-.8.7-1.5 1.5-1.5h25.8c.8 0 1.5.7 1.5 1.5v13c-.1.6-.7 1.3-1.6 1.3zm-25.4-3h23.9v-10H-403v1.9c0 .6-.1 1.3-.1 1.9v.3c0 .2 0 .4-.1.7 0 .2 0 .4-.1.6 0 .3-.1.6-.1.9v.2c-.2 1-.3 1.9-.6 2.9-.1 0-.1.3-.2.6z"/><path class="st3" d="M-374.8-662.6h-38.6v-1.8l-1-.8.5-.5c.7-.9 1.4-1.8 2.1-2.9l.9-1.5c.3-.5.6-1 .9-1.6.3-.5.5-1.1.8-1.6.5-1.1 1-2.3 1.4-3.4l.1-.2c0-.1.1-.2.1-.4 0-.1 0-.1.1-.2v-.1c.2-.6.8-1.1 1.4-1.1h31.4c.8 0 1.5.7 1.5 1.5v13c-.1.9-.7 1.6-1.6 1.6zm-35.5-3h34v-10H-405c-.4 1.2-.9 2.4-1.4 3.5-.3.6-.6 1.2-.9 1.7-.3.6-.6 1.1-.9 1.7-.3.6-.7 1.1-1 1.6-.4.6-.7 1-1.1 1.5z"/><path class="st3" d="M-378.8-649.8h-62.5c-.8 0-1.5-.7-1.5-1.5s.7-1.5 1.5-1.5c.9 0 1.8 0 2.7-.1.2 0 .5 0 .7-.1h.4c.2 0 .5 0 .7-.1.3 0 .5-.1.6-.1.3 0 .6-.1.8-.1.3 0 .5-.1.8-.1 1-.2 1.9-.4 2.9-.7.2-.1.3-.1.5-.1l.5-.1.9-.3.2-.1c.2-.1.5-.2.7-.3l.9-.3.2-.1.6-.3c.3-.1.6-.3.9-.4.6-.3 1.2-.6 1.7-.9l.8-.4c.5-.3 1.1-.6 1.6-1l.2-.1c.2-.1.4-.3.6-.4.5-.4 1-.7 1.6-1.2.2-.2.4-.4.7-.5.2-.2.4-.3.6-.5.8-.6 1.5-1.3 2.2-2.1l.6-.6c.4-.4.8-.8 1.1-1.2l.1-.1c.3-.3.8-.6 1.2-.6h34.4c.8 0 1.5.7 1.5 1.5v13c.1.7-.5 1.4-1.4 1.4zm-47.6-3h46.1v-10h-32.2c-.3.3-.6.7-.9 1-.2.2-.4.4-.6.7-.8.8-1.6 1.6-2.4 2.2-.2.2-.4.4-.7.6-.2.2-.5.4-.7.6-.6.5-1.2.9-1.7 1.3-.2.1-.4.3-.6.4l-.2.1c-.6.4-1.2.7-1.8 1.1l-.8.5c-.6.3-1.3.7-1.9 1-.3.1-.6.3-.9.4-.3-.1-.5 0-.7.1z"/></g><path class="st4" d="M688.3-274.5c-21.5 0-39.1 17.5-39.1 39.1v19.4h.7c-.3-2.2.8-4.6 3.3-5v-14.3c0-19.3 15.7-35 35-35s35 15.7 35 35v13c1.9 1.6 2.1 4.7.7 6.3h3.3v-19.4c.2-21.6-17.4-39.1-38.9-39.1z"/><path class="st4" d="M656.5-205.7h-3.9c-3.4 0-6.3-2.8-6.3-6.3v-6.7c0-3.4 2.8-6.3 6.3-6.3h3.9v19.3zm-4-15.2c-1.2.1-2.1 1.1-2.1 2.2v6.7c0 1.2.9 2.1 2.1 2.2v-11.1zM724.1-205.7h-3.9v-19.2h3.9c3.4 0 6.3 2.8 6.3 6.3v6.7c0 3.4-2.8 6.2-6.3 6.2zm.2-15.2v11.2c1.2-.1 2.1-1.1 2.1-2.2v-6.7c0-1.2-.9-2.2-2.1-2.3zM682.7-143.6l-2.6-6c.6 2 1.4 4 2.6 6zM674.3-167c.5.1.9.3 1.2.5v-8.8c-1.3.5-2.9.4-4-.5v7.2c.8.1 1.5.5 2.3 1.1l.5.5zM702.8-166.6v-10.3c-1.1.8-2.4 1.2-3.9 1.1v9.2c1.2-.5 2.7-.5 3.9 0z"/><path class="st4" d="M688.3-171.4c-19.7 0-35.7-16-35.7-35.7l-.1-22.6.8-.6c.9-.7 2-1.4 3.4-2.2 4.9-3 12.2-7.4 15-15.7l1.1-3.3 2.3 2.5c.1.2 14.3 15.5 47.7 21.9l1.7.3-.3 19.6c-.2 19.8-16.2 35.8-35.9 35.8zm-31.8-56.4v20.6c0 17.5 14.2 31.7 31.7 31.7s31.7-14.2 31.7-31.7l.3-16.3c-26.5-5.4-40.9-16.1-46-20.7-3.8 7.8-11 12.2-15.5 15-.8.6-1.5 1-2.2 1.4z"/><circle class="st4" cx="702.2" cy="-221.3" r="2.7"/><circle class="st4" cx="674.5" cy="-221.3" r="2.7"/><path class="st4" d="M692.6-184.8h-8.1c-1.1 0-2-.9-2-2s.9-2 2-2h8.1c1.1 0 2 .9 2 2s-.9 2-2 2z"/><path transform="rotate(-81.581 657.155 -123.718)" class="st4" d="M651.7-125.7h11v4h-11z"/><path transform="rotate(-8.36 717.227 -123.729)" class="st4" d="M715.2-129.2h4v11h-4z"/><path class="st5" d="M702.3-191.1v-4c0-2.4-2-3.1-4.3-4.3l-9.6-4-9.5 4c-2.2 1.1-4.3 1.9-4.3 4.3v4l9.1-1.3 4.7-3.7 4.8 3.8 9.1 1.2z"/><path class="st4" d="M672.6-188.8v-6.3c0-3.5 2.8-4.9 5.1-5.9l.4-.2 10.3-4.4 11.5 4.9c2 1 4.5 2.3 4.5 5.6v6.3l-11.9-1.7-4-3.1-3.9 3.1-12 1.7zm21.5-5.6l6.2.9v-1.6c0-.7-.3-1-2.3-2.1l-.9-.5-8.7-3.6-9 3.8c-2.2 1-2.8 1.5-2.8 2.3v1.6l6.3-.9 5.5-4.4 5.7 4.5z"/><path class="st6" d="M687.2-151.3l-7 11.3 6.8 6.6 6.8-6.6z"/><path class="st4" d="M695.1-136.8l-9.1-15.8 3.5-2 5.8 10.1 12.7-19.3-7.3-1.7.9-3.9 12.9 3z"/><path class="st4" d="M678.8-136.8l-19.4-29.6 12.9-3 .9 3.9-7.3 1.7 12.7 19.3 5.8-10.1 3.5 2z"/><path class="st4" d="M633.8-117.9l-4-.4 3.9-37c0-2.2 1.7-4.5 4-5.1l36.4-10.3 13.1 13.4 13.1-13.5 35.9 10.3c2.2.6 4 2.8 4.3 5.1l3.6 37-4 .4-3.6-37c-.1-.6-.8-1.5-1.4-1.6l-33.5-9.6-14.3 14.7-14.3-14.7-34.1 9.6c-.6.2-1.1.9-1.1 1.4l-4 37.3z"/><path class="st6" d="M684.9-136.6l-4 18.5 13.7-.2-4.1-18.3z"/><path transform="matrix(.08626 -.9963 .9963 .08626 751.161 561.637)" class="st4" d="M671.2-130.7h21.2v4h-21.2z"/><path transform="rotate(-7.563 693.158 -128.293)" class="st4" d="M691.2-138.3h4v20.1h-4z"/><g><path class="st4" d="M687-130.3l-8.3-9.8 3.1-2.6 5.2 6.2 5.3-6.2 3 2.6z"/></g><g><path class="st4" d="M697.2-129.4h15.6v4h-15.6z"/></g><g><path class="st4" d="M487-221.9c.6-.3 1.2-.5 1.9-.5.8 0 1.6.2 2.2.6-.5-6.7-1.4-11.8-1.6-13 .1-20.8 17-37.6 37.8-37.6 20.8 0 37.8 17 37.8 37.5-.1.5-.8 5-1.2 11.1 1.1 0 2.3.5 3 1.2.4.4.7.8.9 1.3.4-7.4 1.2-13 1.3-13.3 0-23.1-18.8-41.8-41.8-41.8-23.1 0-41.8 18.8-41.8 41.8v.4c0 .2 1 5.4 1.5 12.3zM575.2-186.3c-5.1-4.4-7-13.8-7.5-23.2-.4.3-.7.6-1.1.8-1 .6-1.9.8-2.8.6.6 8.3 2.3 16.7 6.3 22.1l-41.8 11-43.8-10.9c4.5-5.7 6.3-14.4 6.8-22.9-.7.6-1.6.9-2.7 1-.5 0-1-.1-1.4-.2-.5 8.7-2.6 17.2-7.9 21.7l-3 2.5 52 13 49.8-13-2.9-2.5z"/><path class="st4" d="M562.9-205.7H559v-19.2h3.9c3.4 0 6.3 2.8 6.3 6.3v6.7c-.1 3.4-2.9 6.2-6.3 6.2zm.1-15.2v11.2c1.2-.1 2.1-1.1 2.1-2.2v-6.7c0-1.2-.9-2.2-2.1-2.3zM495.3-205.7h-3.9c-3.4 0-6.3-2.8-6.3-6.3v-6.7c0-3.5 2.8-6.3 6.3-6.3h3.9v19.3zm-4-15.2c-1.2.1-2.1 1.1-2.1 2.2v6.7c0 1.2.9 2.1 2.1 2.2v-11.1zM544.1-170.3v-7.4l-.6.6c-.9.9-2.2 1.3-3.4 1.2v8.6l17.4 5.2-28.9 33-34.6-31.4 22.8-6.9v-7c-.4.1-.7.1-1.2.1-1.2 0-2.2-.4-2.9-1.1v4.9l-26.7 8 42.9 38.9 35.8-40.8-20.6-5.9z"/><path class="st4" d="M559-242.5v35.3c0 17.5-14.2 31.7-31.7 31.7s-31.7-14.2-31.7-31.7v-26.4c-1 .4-2.1.7-3.4.7H491.6v25.7c0 19.7 16 35.7 35.7 35.7 19.7 0 35.7-16 35.7-35.7v-36.1c-1.3.3-2.7.6-4 .8z"/><path class="st7" d="M583.8-118.1H473.5l3.9-39.7 25.4-7.2 25.8 30.4 25.5-30.4 25.8 7.2v15.8z"/><path transform="rotate(-8.36 558.398 -123.724)" class="st4" d="M556.4-129.2h4v11h-4z"/><path transform="rotate(-81.628 498.331 -123.725)" class="st4" d="M492.8-125.7h11v4h-11z"/><path class="st4" d="M525.1-217.1h4v8.1h-4zM516.6-216.2c-.5 0-1-.2-1.4-.6-2-2-5.3-1.9-7.3 0-.8.8-2.1.8-2.8 0-.8-.8-.8-2.1 0-2.8 3.4-3.4 9.4-3.5 12.9 0 .8.8.8 2.1 0 2.8-.4.4-.9.6-1.4.6zM547.9-216.2c-.5 0-1-.2-1.4-.6-2-1.9-5.3-1.9-7.3 0-.8.8-2.1.8-2.8 0-.8-.8-.8-2.1 0-2.8 3.5-3.5 9.5-3.5 12.9 0 .8.8.8 2.1 0 2.8-.4.4-.9.6-1.4.6zM581.8-117.9l-3.9-36.9c0-.8-.6-1.5-1.1-1.7l-21.9-6.2-26.2 31.2-26.6-31.2-21.6 6.2c-.6.2-1.3 1-1.4 1.6l-3.6 37-4-.4 3.6-37c.2-2.3 2-4.5 4.3-5.1l24.1-6.9 25.2 29.6 24.8-29.6 24.4 6.9c2.3.7 4 3 4 5.3l3.9 36.7-4 .5zM531.3-242.5v-4c.1 0 9.5-.1 17.7-9.2l3 2.7c-9.4 10.3-20.1 10.5-20.7 10.5zM510.2-240.4l-.5-4c.1 0 9.6-1.3 17.2-7.8l2.6 3c-8.5 7.4-18.8 8.8-19.3 8.8zM526.5-181.7c-13.1 0-13.2-10.2-13.2-10.3v-2h27v2c0 .1-.1 10.3-13.8 10.3zm-8.7-8.3c.8 1.9 3 4.3 8.7 4.3 6.1 0 8.4-2.4 9.3-4.3h-18z"/><path class="st4" d="M527.1-200.8c-2.6 0-5.1-1.4-6.4-3.7-.6-1-.2-2.2.7-2.7 1-.6 2.2-.2 2.7.7 1.2 2.1 4.6 2.1 5.8 0 .3-.5.4-1.1.4-1.7 0-1.1.9-2 2-2s2 .9 2 2c0 1.3-.3 2.6-1 3.7-1.2 2.3-3.6 3.7-6.2 3.7zM518.1-157.7c-2.6 0-4.7-2.1-4.7-4.7s2.1-4.7 4.7-4.7 4.7 2.1 4.7 4.7c-.1 2.6-2.2 4.7-4.7 4.7zm0-5.3c-.4 0-.7.3-.7.7 0 .7 1.3.7 1.3 0 0-.4-.3-.7-.6-.7zM528.6-155c-2.6 0-4.7-2.1-4.7-4.7s2.1-4.7 4.7-4.7 4.7 2.1 4.7 4.7-2.1 4.7-4.7 4.7zm0-5.4c-.4 0-.7.3-.7.7 0 .7 1.3.7 1.3 0 .1-.4-.2-.7-.6-.7zM538.6-158.3c-2.6 0-4.7-2.1-4.7-4.7s2.1-4.7 4.7-4.7 4.7 2.1 4.7 4.7-2.1 4.7-4.7 4.7zm0-5.3c-.4 0-.7.3-.7.7 0 .7 1.3.7 1.3 0 .1-.4-.2-.7-.6-.7z"/><path class="st8" d="M513.8-163.6c-1.1-1.5-1.7-3.2-1.7-4.9h4c0 .9.3 1.7.9 2.5l-3.2 2.4z"/><path class="st4" d="M525.8-157.7c-2.3-.2-4.1-.8-5.8-1.5l1.5-3.7c1.6.6 3 1 4.7 1.2l-.4 4zM532.1-158l-.7-4c1.8-.3 2.9-.6 4.1-1.2l1.7 3.6c-1.7.9-3.2 1.3-5.1 1.6zM542.6-163.6l-3.2-2.4c.6-.8.9-1.7.9-2.5h4c0 1.7-.6 3.4-1.7 4.9z"/><g><path class="st4" d="M512.7-228.2l-.8-.7c-.5-.5-.9-.9-.8-4.1-1 .2-2 .4-3 .5-8.2 1.5-15.3 2.9-18.1-.4l3.1-2.6c1.3 1.5 9.1 0 14.4-.9 1.9-.3 3.8-.7 5.6-1l2.6-.4-.2 2.6c-.1.7-.1 1.6-.2 2.3 2.5-.9 5.4-2.4 8.1-3.9 3.1-1.7 6.4-3.5 9.4-4.4l2.3-.7.3 2.4c.1.6.2 1.3.3 1.8 13.2.4 27.7-11.7 27.8-11.8l2.6 3.1c-.7.6-16.7 14-31.8 12.7-1.2-.1-2-.9-2.5-2.8-2.1.9-4.3 2.1-6.5 3.3-3.9 2.1-7.9 4.3-11.5 4.9l-1.1.1z"/></g></g><g><path class="st4" d="M332.6-201c-3.5 0-6.3-2.8-6.3-6.3v-4.1c0-3.5 2.8-6.3 6.3-6.3s6.3 2.8 6.3 6.3v4.1c0 3.5-2.8 6.3-6.3 6.3zm0-12.7c-1.2 0-2.3 1-2.3 2.3v4.1c0 1.2 1 2.3 2.3 2.3 1.2 0 2.3-1 2.3-2.3v-4.1c0-1.3-1-2.3-2.3-2.3zM404.3-202.6c-3.5 0-6.3-2.8-6.3-6.3v-4.1c0-3.5 2.8-6.3 6.3-6.3s6.3 2.8 6.3 6.3v4.1c0 3.5-2.9 6.3-6.3 6.3zm0-12.7c-1.2 0-2.3 1-2.3 2.3v4.1c0 1.2 1 2.3 2.3 2.3 1.2 0 2.3-1 2.3-2.3v-4.1c-.1-1.3-1.1-2.3-2.3-2.3zM385.5-177.1c-.6.9-1.5 1.6-2.8 1.8l-.4.4v8.3l-12 14.3-12.5-14.3v-7.4c-1.2.7-2.7.8-4 .3v8.6l16.6 19 16-19v-12.2c-.3.1-.6.2-.9.2z"/><path class="st4" d="M368.7-170c-19.3 0-35-15.7-35-35v-36.5h70v36.5c0 19.3-15.7 35-35 35zm-30.9-67.5v32.5c0 17.1 13.9 31 31 31s31-13.9 31-31v-32.5h-62z"/><path class="st6" d="M413.6-261.9v14c0 7.4-6 13.4-13.4 13.4h-53.4c-3.7 0-6.7 3-6.7 6.7v8.8c0 .7-.6 1.3-1.3 1.3H332c-.7 0-1.3-.6-1.3-1.3v-25.5c2.1-6.3 9.4-3.9 9.4-3.9 0-7.4 6-13.4 13.4-13.4h60.1z"/><path class="st4" d="M338.6-215.6H332c-1.8 0-3.3-1.5-3.3-3.4l.1-26.2c1.2-3.7 4.2-5.8 8.2-5.8.4 0 .8 0 1.2.1 1.2-7.4 7.6-13.1 15.3-13.1h62.1v16c0 8.5-6.9 15.4-15.4 15.4h-53.4c-2.6 0-4.7 2.1-4.7 4.7v8.8c-.1 2-1.6 3.5-3.5 3.5zm-6-4.1h5.4v-8.1c0-4.8 3.9-8.7 8.7-8.7h53.4c6.3 0 11.4-5.1 11.4-11.4v-11.9h-58.1c-6.3 0-11.4 5.1-11.4 11.4v2.8l-2.6-.9s-1.1-.3-2.4-.3c-2.8 0-3.9 1.5-4.3 2.7v24.4zM353.1-218.5h4.7v4.7h-4.7zM379.1-218.5h4.7v4.7h-4.7zM368.9-184.4h-.4c-3.5-.1-6.5-1.7-7.6-4.1-.5-1-.1-2.2.9-2.7s2.2-.1 2.7.9 2.2 1.8 4.1 1.8c2.2 0 4.1-.7 4.8-1.9.5-1 1.8-1.3 2.7-.8 1 .5 1.3 1.8.8 2.7-1.3 2.6-4.4 4.1-8 4.1zM373.4-196h-8.2c-1.1 0-2-.9-2-2s.9-2 2-2h4.2v-7.3c0-1.1.9-2 2-2s2 .9 2 2v11.3z"/><path class="st4" d="M361.3-208h-11.6c-2.8 0-5.2-2.3-5.2-5.2v-5.8c0-2.8 2.3-5.2 5.2-5.2h11.6c2.8 0 5.2 2.3 5.2 5.2v5.8c0 2.9-2.4 5.2-5.2 5.2zm-11.6-12c-.6 0-1.1.5-1.1 1.1v5.8c0 .6.5 1.1 1.1 1.1h11.6c.6 0 1.1-.5 1.1-1.1v-5.8c0-.6-.5-1.1-1.1-1.1h-11.6zM387.3-208h-11.6c-2.8 0-5.2-2.3-5.2-5.2v-5.8c0-2.8 2.3-5.2 5.2-5.2h11.6c2.8 0 5.2 2.3 5.2 5.2v5.8c0 2.9-2.3 5.2-5.2 5.2zm-11.6-12c-.6 0-1.1.5-1.1 1.1v5.8c0 .6.5 1.1 1.1 1.1h11.6c.6 0 1.1-.5 1.1-1.1v-5.8c0-.6-.5-1.1-1.1-1.1h-11.6z"/><path class="st4" d="M346.6-214h-.2l-10.8-1.3c-1.1-.1-1.9-1.1-1.8-2.2.1-1.1 1.1-1.9 2.2-1.8l10.8 1.3c1.1.1 1.9 1.1 1.8 2.2-.2 1.1-1 1.8-2 1.8zM391-214c-1 0-1.9-.7-2-1.8-.1-1.1.7-2.1 1.8-2.2l10.8-1.3c1.1-.1 2.1.7 2.2 1.8.1 1.1-.7 2.1-1.8 2.2l-10.8 1.3h-.2zM372.6-214.8h-7.3c-1.4 0-2.5-1.1-2.5-2.5s1.1-2.5 2.5-2.5h7.3c1.4 0 2.5 1.1 2.5 2.5s-1.1 2.5-2.5 2.5z"/><path transform="rotate(-8.378 400.233 -123.772)" class="st4" d="M398.1-129.2h4v10.9h-4z"/><path transform="rotate(-81.628 340.042 -123.73)" class="st4" d="M334.6-125.7h10.9v4h-10.9z"/><path class="st4" d="M369.1-139.5h2.5v2.5h-2.5zM369.1-126.8h2.5v2.5h-2.5zM378.1-137.1l-9-15.8 3.5-2 5.8 10.1 12.6-19.3-7.2-1.7.9-3.9 12.9 3z"/><path class="st4" d="M363-137.1l-19.4-29.6 12.8-3 1 3.9-7.3 1.7 12.7 19.3 5.8-10.1 3.4 2z"/><path class="st4" d="M423.5-117.9l-3.9-37c0-.8-.5-1.5-1.1-1.7l-34.1-9.6-14.3 14.7-14.3-14.7-33.5 9.6c-.6.2-1.3 1-1.4 1.6l-3.6 37-4-.4 3.6-37c.2-2.3 2-4.5 4.3-5.1l35.9-10.3 13.1 13.4 13.1-13.4 36.4 10.3c2.3.7 4 2.9 4 5.3l3.9 36.7-4.1.6z"/></g><g><path class="st4" d="M213.8-120.4c-26.2 0-41.2-11.6-41.2-31.8v-86.7c0-22.7 18.5-41.2 41.2-41.2 22.7 0 41.2 18.5 41.2 41.2v86.7c0 20.2-15 31.8-41.2 31.8zm0-155.7c-20.5 0-37.1 16.7-37.1 37.2v86.7c0 24.2 23.3 27.8 37.1 27.8 13.9 0 37.1-3.6 37.1-27.8v-86.7c.1-20.5-16.6-37.2-37.1-37.2z"/><path class="st4" d="M228.1-169.9v-8.6c-.7 1.7-2.4 2.9-4 3.1v8.5l26.8 7.7c-.8 7.2-5.9 35.9-37.8 33.2-25.2-2.1-35.7-26.5-38.2-33.6l25.9-6.8v-9.3c-1.3.6-2.9.6-4-.2v6.4l-26.9 7.1.5 2c.1.4 10.1 35.8 42.3 38.4 1.5.1 3 .2 4.4.2 35.7 0 37.9-38.4 37.9-38.8l.1-1.6-27-7.7z"/><path class="st4" d="M213.4-171.4c-19.7 0-35.7-16-35.7-35.7v-37.3h16.2l4.5-7.8 4.5 7.8h46.4v37.3c-.2 19.7-16.2 35.7-35.9 35.7zm-31.7-69v33.3c0 17.5 14.2 31.7 31.7 31.7s31.7-14.2 31.7-31.7v-33.3h-44.7l-2.1-3.7-2.1 3.7h-14.5z"/><path class="st5" d="M156.9-118.1h110.3l-3.9-39.6-16.2-4.6s-8.9 38.1-34.8 38.3c-24.7.1-34.6-38.4-34.6-38.4l-16.9 4.8v15.8l-3.9 23.7z"/><path transform="rotate(-81.628 182.292 -123.731)" class="st4" d="M176.8-125.7h11v4h-11z"/><path transform="rotate(-8.389 242.45 -123.742)" class="st4" d="M240.4-129.2h4v11h-4z"/><path class="st4" d="M158.9-117.9l-4-.4 3.9-37c0-2.2 1.7-4.5 4-5.1l16.4-4.6.5 2c.1.4 9.8 36.8 32.7 36.9h.1c23.5 0 32.6-36.4 32.7-36.7l.5-2 15.6 4.5c2.2.6 4 2.8 4.3 5.1l3.6 37-4 .4-3.6-37c-.1-.6-.7-1.5-1.4-1.7l-11.7-3.3c-2.4 8.2-12.6 37.8-36 37.8h-.2c-22.9-.1-33.5-29.8-36-38l-12.5 3.5c-.5.2-1.1.9-1.1 1.4l-3.8 37.2zM223.4-223.5h5.4v5.4h-5.4zM198.7-223.5h5.4v5.4h-5.4zM215.3-203.3h-4.9v-4h4.9l-.2-2.4-1.5.2h-2v-7.5h4v3.5c2 .1 3.6 1.8 3.6 3.8v2.6c-.1 2.1-1.8 3.8-3.9 3.8zM213.7-183c-5.9 0-11.1-5.7-12.2-10.8l-.5-2.4h24.9l-.4 2.3c-.9 5.8-6.4 10.9-11.8 10.9zm-7.4-9.2c1.6 2.9 4.6 5.1 7.3 5.1v2-2c2.7 0 5.7-2.3 7.1-5.1h-14.4zM206.8-224.2c-.5 0-1-.2-1.4-.6-2.1-2.1-5.8-2.1-8 0-.8.8-2.1.8-2.8 0-.8-.8-.8-2.1 0-2.8 3.7-3.7 10-3.6 13.6 0 .8.8.8 2.1 0 2.8-.3.4-.9.6-1.4.6zM231.5-225.3c-.5 0-1-.2-1.4-.6-2.1-2.1-5.8-2.1-8 0-.8.8-2.1.8-2.8 0-.8-.8-.8-2.1 0-2.8 3.6-3.6 10-3.6 13.6 0 .8.8.8 2.1 0 2.8-.4.4-.9.6-1.4.6z"/><path class="st4" d="M210.1-135.2h4v12.5h-4z"/></g><g><path class="st9" d="M414.3-288.4v-1.8h67.6c.6 0 1.1-.5 1.1-1.1v-54.1h-69.9v54.1c0 .6.5 1.1 1.1 1.1v1.8c-1.7 0-3-1.3-3-3v-55.1c0-.2.1-.5.3-.7.2-.2.4-.3.7-.3H484c.2 0 .5.1.7.3.2.2.3.4.3.7v55.1c0 1.7-1.3 3-3 3h-67.7zM462.5-358.1v-8.2c0-2.9 2.2-5.4 5-5.5 2.8 0 5 2.5 5 5.5v8.2c0 2.9-2.2 5.4-5 5.5-2.8 0-5-2.5-5-5.5zm1.9-8.2v8.2c0 2.1 1.5 3.6 3.2 3.6 1.7 0 3.2-1.6 3.2-3.6v-8.2c0-2.1-1.5-3.6-3.2-3.6-1.7 0-3.2 1.6-3.2 3.6zM423.7-358.1v-8.2c0-2.9 2.2-5.4 5-5.5 2.8 0 5 2.5 5 5.5v8.2c0 2.9-2.2 5.4-5 5.5-2.8 0-5-2.5-5-5.5zm1.9 0c0 2.1 1.5 3.6 3.2 3.6 1.7 0 3.2-1.6 3.2-3.6v-8.2c0-2.1-1.5-3.6-3.2-3.6-1.7 0-3.2 1.6-3.2 3.6v8.2z"/><path class="st9" d="M437.3-327.2c-1.2 0-2.1-.9-2.1-2.1v-6.7c0-1.2.9-2.1 2.1-2.1h6.7c1.2 0 2.1.9 2.1 2.1v6.7c0 1.2-.9 2.1-2.1 2.1h-6.7zm-.3-8.8v6.7c0 .1.1.3.3.3h6.7c.1 0 .3-.1.3-.3v-6.7c0-.1-.1-.3-.3-.3h-6.7c-.2 0-.3.1-.3.3zM452.3-327.2c-1.2 0-2.1-.9-2.1-2.1v-6.7c0-1.2.9-2.1 2.1-2.1h6.7c1.2 0 2.1.9 2.1 2.1v6.7c0 1.2-.9 2.1-2.1 2.1h-6.7zm-.3-8.8v6.7c0 .1.1.3.3.3h6.7c.1 0 .3-.1.3-.3v-6.7c0-.1-.1-.3-.3-.3h-6.7c-.1 0-.3.1-.3.3zM467.3-327.2c-1.2 0-2.1-.9-2.1-2.1v-6.7c0-1.2.9-2.1 2.1-2.1h6.7c1.2 0 2.1.9 2.1 2.1v6.7c0 1.2-.9 2.1-2.1 2.1h-6.7zm-.2-8.8v6.7c0 .1.1.3.3.3h6.7c.1 0 .3-.1.3-.3v-6.7c0-.1-.1-.3-.3-.3h-6.7c-.2 0-.3.1-.3.3zM437.3-312.8c-1.2 0-2.1-.9-2.1-2.1v-6.7c0-1.2.9-2.1 2.1-2.1h6.7c1.2 0 2.1.9 2.1 2.1v6.7c0 1.2-.9 2.1-2.1 2.1h-6.7zm-.3-8.8v6.7c0 .1.1.3.3.3h6.7c.1 0 .3-.1.3-.3v-6.7c0-.1-.1-.3-.3-.3h-6.7c-.2.1-.3.2-.3.3zM467.3-312.8c-1.2 0-2.1-.9-2.1-2.1v-6.7c0-1.2.9-2.1 2.1-2.1h6.7c1.2 0 2.1.9 2.1 2.1v6.7c0 1.2-.9 2.1-2.1 2.1h-6.7zm-.2-8.8v6.7c0 .1.1.3.3.3h6.7c.1 0 .3-.1.3-.3v-6.7c0-.1-.1-.3-.3-.3h-6.7c-.2.1-.3.2-.3.3zM452.3-312.8c-1.2 0-2.1-.9-2.1-2.1v-6.7c0-1.2.9-2.1 2.1-2.1h6.7c1.2 0 2.1.9 2.1 2.1v6.7c0 1.2-.9 2.1-2.1 2.1h-6.7zm-.3-8.8v6.7c0 .1.1.3.3.3h6.7c.1 0 .3-.1.3-.3v-6.7c0-.1-.1-.3-.3-.3h-6.7c-.1.1-.3.2-.3.3zM437.3-298.3c-1.2 0-2.1-.9-2.1-2.1v-6.7c0-1.2.9-2.1 2.1-2.1h6.7c1.2 0 2.1.9 2.1 2.1v6.7c0 1.2-.9 2.1-2.1 2.1h-6.7zm-.3-8.8v6.7c0 .1.1.3.3.3h6.7c.1 0 .3-.1.3-.3v-6.7c0-.1-.1-.3-.3-.3h-6.7c-.2 0-.3.2-.3.3zM452.3-298.3c-1.2 0-2.1-.9-2.1-2.1v-6.7c0-1.2.9-2.1 2.1-2.1h6.7c1.2 0 2.1.9 2.1 2.1v6.7c0 1.2-.9 2.1-2.1 2.1h-6.7zm-.3-8.8v6.7c0 .1.1.3.3.3h6.7c.1 0 .3-.1.3-.3v-6.7c0-.1-.1-.3-.3-.3h-6.7c-.1 0-.3.1-.3.3zM422.2-312.8c-1.2 0-2.1-.9-2.1-2.1v-6.7c0-1.2.9-2.1 2.1-2.1h6.7c1.2 0 2.1.9 2.1 2.1v6.7c0 1.2-.9 2.1-2.1 2.1h-6.7zm-.2-8.8v6.7c0 .1.1.3.3.3h6.7c.1 0 .3-.1.3-.3v-6.7c0-.1-.1-.3-.3-.3h-6.7c-.2.1-.3.2-.3.3zM422.2-298.3c-1.2 0-2.1-.9-2.1-2.1v-6.7c0-1.2.9-2.1 2.1-2.1h6.7c1.2 0 2.1.9 2.1 2.1v6.7c0 1.2-.9 2.1-2.1 2.1h-6.7zm-.2-8.8v6.7c0 .1.1.3.3.3h6.7c.1 0 .3-.1.3-.3v-6.7c0-.1-.1-.3-.3-.3h-6.7c-.2 0-.3.2-.3.3z"/><g><path class="st9" d="M432.8-361.3c-.5 0-.9-.4-.9-.9s.4-.9.9-.9h30.6c.5 0 .9.4.9.9s-.4.9-.9.9h-30.6z"/></g><g><path class="st9" d="M412.3-345.5c-.2 0-.5-.1-.7-.3-.2-.2-.3-.4-.3-.7v-13.7c0-1.7 1.3-3 3-3h10.3c.5 0 .9.4.9.9s-.4.9-.9.9h-10.3c-.6 0-1.1.5-1.1 1.1v12.7h69.9v-12.7c0-.6-.5-1.1-1.1-1.1h-10.3c-.5 0-.9-.4-.9-.9s.4-.9.9-.9H482c1.7 0 3 1.3 3 3v13.7c0 .2-.1.5-.3.7-.2.2-.4.3-.7.3h-71.7z"/></g></g><path class="st10" d="M119-118.1h659"/><g><path class="st11" d="M332.6-638h219.9"/><path d="M549.6-628l17.2-10-17.2-10z"/></g><g><path class="st12" d="M281.8-650.4v-29.3c0-3.7-2.9-6.7-6.6-6.7h-69.9c-3.7 0-6.9 3-6.9 6.7v42.8c0 3.7 3.2 6.8 6.9 6.8h6.6M198.4-672.9h83.4M198.4-659.4h83.4"/><path class="st12" d="M293.3-589.5c3.7 0 6.6-3.1 6.6-6.8v-42.8c0-3.7-2.9-6.7-6.6-6.7h-69.9c-3.7 0-6.9 3-6.9 6.7v42.8c0 3.7 3.2 6.8 6.9 6.8h69.9zM225.5-603h11.2M243.5-603h11.3M261.5-603h11.3M279.6-603h11.2"/><path class="st12" d="M246-632.3h-16.3c-1.1 0-2 .9-2 2v9.5c0 1.1.9 2 2 2H246c1.1 0 2-.9 2-2v-9.5c0-1.2-.9-2-2-2z"/></g><g><path class="st12" d="M-35.3 332.5v-29.3c0-3.7-2.9-6.7-6.6-6.7h-69.9c-3.7 0-6.9 3-6.9 6.7V346c0 3.7 3.2 6.8 6.9 6.8h6.6M-118.7 310h83.4M-118.7 323.5h83.4"/><path class="st12" d="M-23.9 393.4c3.7 0 6.6-3.1 6.6-6.8v-42.8c0-3.7-2.9-6.7-6.6-6.7h-69.9c-3.7 0-6.9 3-6.9 6.7v42.8c0 3.7 3.2 6.8 6.9 6.8h69.9zM-91.7 379.9h11.3M-73.6 379.9h11.2M-55.6 379.9h11.3M-37.6 379.9h11.3"/><path class="st12" d="M-71.1 350.6h-16.3c-1.1 0-2 .9-2 2v9.5c0 1.1.9 2 2 2h16.3c1.1 0 2-.9 2-2v-9.5c0-1.1-.9-2-2-2z"/></g><path d="M320.1 145.2c-.4-.4-1-.6-1.5-.6h-82.3c-.6 0-1.1.2-1.5.6-.4.4-.6 1-.6 1.5v59.5c0 .6.2 1.1.6 1.5.4.4 1 .6 1.5.6h82.3c.6 0 1.1-.2 1.5-.6.4-.4.6-1 .6-1.5v-59.5c.1-.6-.2-1.1-.6-1.5zm-42.6 36.9l-35.7-33.3h71.3l-35.6 33.3zm-17.7-10.5l-21.4 27.5v-47.4l21.4 19.9zm3.2 2.9l14.4 13.5 14-13.1L314 204h-74l23-29.5zm31.6-2.5l21.8-20.3V200l-21.8-28z"/><g><path d="M619 194c-.2-1.4-1.6-2.5-3.2-2.5-2.9 0-4 2.4-4 5 0 2.4 1.1 4.9 4 4.9 2 0 3.1-1.3 3.3-3.3h3.1c-.3 3.6-2.8 5.9-6.4 5.9-4.5 0-7.1-3.4-7.1-7.6 0-4.3 2.6-7.7 7.1-7.7 3.2 0 5.9 1.9 6.3 5.2H619zM624.2 189.1h2.9v14.5h-2.9v-14.5zM632.3 191.5h-2.9v-2.4h2.9v2.4zm-2.9 1.6h2.9v10.5h-2.9v-10.5zM637 199.1c.1 1.8 1 2.7 2.6 2.7 1.2 0 2.1-.7 2.3-1.4h2.5c-.8 2.5-2.5 3.5-4.9 3.5-3.3 0-5.4-2.3-5.4-5.5s2.2-5.6 5.4-5.6c3.6 0 5.3 3 5.1 6.3H637zm4.7-1.8c-.3-1.5-.9-2.2-2.3-2.2-1.8 0-2.4 1.4-2.4 2.2h4.7zM646.3 193.1h2.8v1.5h.1c.7-1.2 2-1.8 3.2-1.8 3.1 0 3.8 1.7 3.8 4.3v6.5h-2.9v-5.9c0-1.7-.5-2.6-1.9-2.6-1.6 0-2.2.9-2.2 3v5.5h-2.9v-10.5zM662.1 193.1h2.1v1.9h-2.1v5.2c0 1 .2 1.2 1.2 1.2.3 0 .6 0 .9-.1v2.3c-.5.1-1.1.1-1.7.1-1.8 0-3.3-.4-3.3-2.5V195h-1.8v-1.9h1.8V190h2.9v3.1zM621.5 215.7c-.2-1.4-1.6-2.5-3.2-2.5-2.9 0-4 2.4-4 5 0 2.4 1.1 4.9 4 4.9 2 0 3.1-1.3 3.3-3.3h3.1c-.3 3.6-2.8 5.9-6.4 5.9-4.5 0-7.1-3.4-7.1-7.6 0-4.3 2.6-7.7 7.1-7.7 3.2 0 5.9 1.9 6.3 5.2h-3.1zM631.7 214.5c3.3 0 5.5 2.2 5.5 5.6 0 3.3-2.1 5.5-5.5 5.5-3.3 0-5.4-2.2-5.4-5.5-.1-3.4 2.1-5.6 5.4-5.6zm0 8.9c2 0 2.6-1.7 2.6-3.4s-.6-3.4-2.6-3.4-2.5 1.7-2.5 3.4c-.1 1.7.5 3.4 2.5 3.4zM646.5 224c-.7 1.1-1.9 1.6-3.2 1.6-3.2 0-4.7-2.7-4.7-5.6 0-2.8 1.6-5.5 4.7-5.5 1.2 0 2.5.5 3.1 1.6v-5.3h2.9v14.5h-2.8V224zm-2.5-7.3c-1.9 0-2.5 1.6-2.5 3.4 0 1.7.8 3.4 2.5 3.4 1.9 0 2.5-1.7 2.5-3.4 0-1.8-.6-3.4-2.5-3.4zM653.8 220.7c.1 1.8 1 2.7 2.6 2.7 1.2 0 2.1-.7 2.3-1.4h2.5c-.8 2.5-2.5 3.5-4.9 3.5-3.3 0-5.4-2.3-5.4-5.5s2.2-5.6 5.4-5.6c3.6 0 5.3 3 5.1 6.3h-7.6zm4.7-1.8c-.3-1.5-.9-2.2-2.3-2.2-1.8 0-2.4 1.4-2.4 2.2h4.7z"/><g><path d="M606.5 129.4c12.2 0 14.3 13 14.3 22.4 0 9.4-2.1 22.4-14.3 22.4s-14.3-13-14.3-22.4c0-9.5 2.2-22.4 14.3-22.4zm0 41.4c9.2 0 10.3-12.3 10.3-19.1s-1.1-19.1-10.3-19.1c-9.2 0-10.3 12.3-10.3 19.1s1.2 19.1 10.3 19.1zM638.3 129.4c12.2 0 14.3 13 14.3 22.4 0 9.4-2.1 22.4-14.3 22.4s-14.3-13-14.3-22.4c0-9.5 2.1-22.4 14.3-22.4zm0 41.4c9.2 0 10.3-12.3 10.3-19.1s-1.1-19.1-10.3-19.1c-9.2 0-10.3 12.3-10.3 19.1s1.1 19.1 10.3 19.1zM670.1 135.3l-7.9 6.4-2.3-2.8 10.7-8.7h3.1v43.3H670v-38.2z"/></g></g><g><path class="st11" d="M336.6 176.4h219.8"/><path d="M553.5 186.4l17.3-10-17.3-10z"/></g><g><path class="st12" d="M-177.2 362.6v-29.3c0-3.7-2.9-6.7-6.6-6.7h-69.9c-3.7 0-6.9 3-6.9 6.7v42.8c0 3.7 3.2 6.8 6.9 6.8h6.6M-260.6 340.1h83.4M-260.6 353.6h83.4"/><path class="st12" d="M-165.8 423.5c3.7 0 6.6-3.1 6.6-6.8v-42.8c0-3.7-2.9-6.7-6.6-6.7h-69.9c-3.7 0-6.9 3-6.9 6.7v42.8c0 3.7 3.2 6.8 6.9 6.8h69.9zM-233.6 409.9h11.3M-215.5 409.9h11.2M-197.5 409.9h11.3M-179.5 409.9h11.3"/><path class="st12" d="M-213 380.6h-16.3c-1.1 0-2 .9-2 2v9.5c0 1.1.9 2 2 2h16.3c1.1 0 2-.9 2-2v-9.5c0-1.1-.9-2-2-2z"/></g><g><path d="M285 165.9c.5 0 .9-.4 1.3-1.2.4-.8.6-1.8.6-3 0-2.6-.7-4.7-2.2-6.4-1.5-1.7-3.5-2.5-6-2.5s-4.6.9-6.3 2.7c-1.7 1.8-2.6 3.9-2.6 6.4 0 2.5.8 4.5 2.4 6.2 1.6 1.6 3.6 2.5 5.9 2.5 1.8 0 3.5-.7 4.9-2l1.1 1.9c-.7.6-1.7 1.2-2.8 1.5-1.1.4-2.2.6-3.2.6-3.1 0-5.6-1-7.7-3.1-2.1-2-3.1-4.6-3.1-7.7 0-3.1 1.1-5.7 3.3-7.8 2.2-2.2 4.8-3.3 7.8-3.3 3.1 0 5.6 1 7.7 3.1 2 2.1 3.1 4.7 3.1 7.8 0 2-.4 3.6-1.2 4.8-.8 1.2-1.9 1.8-3.3 1.8-.7 0-1.3-.2-1.9-.6-.6-.4-1-1-1.2-1.6-1 1.3-2.3 1.9-3.8 1.9s-2.9-.6-4-1.8c-1.1-1.2-1.7-2.7-1.7-4.5 0-1.8.5-3.3 1.5-4.6 1-1.2 2.4-1.9 4.1-1.9.6 0 1.1.1 1.6.4s.9.5 1.1.7l.4.4v-1.1h3.4v8.7c-.1 1.3.2 1.7.8 1.7zm-4.3-4.1c0-.9-.2-1.7-.7-2.3-.5-.6-1.1-.9-1.9-.9-.8 0-1.4.3-1.9.9-.5.6-.7 1.3-.7 2.2 0 .9.2 1.7.7 2.3.5.7 1.1 1 1.9 1 .8 0 1.4-.3 1.9-.9.5-.6.7-1.4.7-2.3z"/></g></svg>