<svg id="Layer_1" data-name="Layer 1" xmlns="http://www.w3.org/2000/svg" viewBox="0 0 900 375"><defs><style>.cls-1{fill:#3f56a5}.cls-2{fill:#333}.cls-3{fill:#1e2e5e}.cls-4{fill:none;stroke:#333;stroke-width:4.08px}</style></defs><title>c-520-2</title><path class="cls-1" d="M622.78 242.75l-8.06 12.98 7.78 7.6 7.84-7.6-7.56-12.98z"/><path class="cls-1" d="M620.1 259.65l-4.67 21.28 15.77-.19-4.67-21.09h-6.43z"/><path class="cls-2" d="M642.64 167.84a3 3 0 1 1-3-3 3 3 0 0 1 3 3z"/><circle class="cls-2" cx="609.32" cy="167.84" r="3"/><path class="cls-2" d="M629.1 203.93h-8.9a1.69 1.69 0 0 0-.23 3.38h9.13a1.69 1.69 0 0 0 .23-3.38z"/><path class="cls-2" transform="rotate(-81.63 590.298 274.555)" d="M584.82 272.86h10.97v3.39h-10.97z"/><path class="cls-2" transform="rotate(-8.1 659.376 266.358)" d="M655.79 266.72h3.39v10.98h-3.39z"/><path class="cls-2" d="M629.17 201l12.27 1.77v-6.28c0-3.3-2.47-4.57-4.64-5.7l-12.3-5.19-11.5 4.89c-2.47 1.18-5.26 2.51-5.26 6v6.28l12.41-1.77 4.46-3.54zm-10.43-3.25l-7.6 1.11v-2.35c0-1.26 1-1.84 3.34-3l10-4.28 9.68 4 1 .55c2.09 1.08 2.82 1.51 2.82 2.68v2.35l-7.49-1.09-6-4.65z"/><path class="cls-2" d="M677.53 240.43l3.92 39.93 3.37-.33-3.92-39.92a6.28 6.28 0 0 0-4.3-5.16l-36.88-10.55v-5.67l.3-.13a38.82 38.82 0 0 0 22.82-33.65v-.49h.69a6.34 6.34 0 0 0 6.33-6.33v-7.35a6.28 6.28 0 0 0-3.08-5.43l-.24-.15v-12.77a42.21 42.21 0 0 0-84.42 0v12.91l-.23.15a6.32 6.32 0 0 0-2.83 5.27v7.35a6.35 6.35 0 0 0 6.28 6.33h.48v.48a38.73 38.73 0 0 0 20.4 32.47l.27.14v6.89l-37.26 10.52a5.61 5.61 0 0 0-4 5.09L561 280l3.37.36 4.24-40.15a2.35 2.35 0 0 1 1.57-2l25.33-7.14L614 259.26l1.13-2 1.29 1.57-1.84 21.17 3.37.29 1.57-17.84 3.47 4.09 4.07-4.78 2.45 18.41 3.36-.45-2.87-21.38.78-.89 1.07 1.85 18.59-28.3 25.22 7.22a3 3 0 0 1 1.87 2.21zm-14.26-72.64h.98l.17.24a5.83 5.83 0 0 1 0 5h2.17v5a3 3 0 0 1-2.73 2.94h-.54zm-77.49 13.34h-.54a3 3 0 0 1-2.74-2.94v-7.35a2.86 2.86 0 0 1 .09-.71l.05-.13a4.76 4.76 0 0 1 2.41-2.06h.67l.05.53zm-.17-22.13l-.06-1v-5.57a38.84 38.84 0 0 1 77.67 0v9.9l-1.32-.25c-18.93-3.65-32.12-10-39.85-14.6-8.53-5.12-12.55-9.41-12.55-9.49l-1.95-2.15-.92 2.74c-3.07 9.16-11.19 14.12-16.55 17.4a41.4 41.4 0 0 0-3.62 2.35zm3.59 24.38l-.05-22.83.23-.15c.67-.45 1.46-.93 2.35-1.48 4.8-2.93 12.75-7.78 16.81-16.18l.29-.6.5.44c5.43 4.75 21.12 16.51 50.15 22.45l.41.09-.31 18.25a35.17 35.17 0 0 1-70.34 0zM636.49 220v5l-.14.15-13.16 13.5L609.9 225v-5.91l.68.27a38.51 38.51 0 0 0 25.26.78zm-22.69 32.86l-14.69-22.39 8.89-2.07 12.65 12.51zm9.18 8.51l-6.06-7.16 1.39-2.42 4.6-8 6.09 10.54zm9-8.54l-6.65-11.56 12.55-12.86 8.81 2z"/><path class="cls-2" d="M634.63 268.89h16.02v3.38h-16.02zM622.22 177.05h3.38v7.82h-3.38z"/><path class="cls-3" d="M525.66 280.17H406.4l4.19-43.1 27.47-7.9 27.97 33.08 27.59-33.06 27.82 7.88-.02 17.18 4.24 25.92z"/><path class="cls-2" transform="rotate(-8.62 498.917 272.855)" d="M497.5 267.46h3.39v10.98h-3.39z"/><path class="cls-2" transform="rotate(-81.62 432.162 274.602)" d="M426.68 272.9h10.97v3.39h-10.97z"/><path class="cls-2" d="M461.9 173.02h3.38v7.82h-3.38zM446.56 167.4a9.41 9.41 0 0 0-6.71 2.68 1.69 1.69 0 0 0 1.2 2.89 1.68 1.68 0 0 0 1.19-.49 6.21 6.21 0 0 1 8.63 0 1.73 1.73 0 0 0 2.35 0 1.69 1.69 0 0 0 0-2.39 9.52 9.52 0 0 0-6.66-2.69zM480.83 167.4a9.49 9.49 0 0 0-6.72 2.68 1.69 1.69 0 0 0 0 2.35 1.64 1.64 0 0 0 1.2.5 1.68 1.68 0 0 0 1.2-.49 6.21 6.21 0 0 1 8.63 0 1.73 1.73 0 0 0 2.39 0 1.69 1.69 0 0 0 0-2.39 9.5 9.5 0 0 0-6.7-2.65zM468.67 140.79v3.4c2.35-.13 12.42-1.24 21.44-11l-2.51-2.28c-7.93 8.55-16.75 9.71-18.93 9.88zM445.21 143.1l.42 3.37a43.48 43.48 0 0 0 20-9.11l-2.22-2.56a40.59 40.59 0 0 1-18.2 8.3zM450.83 205.34c2.35 3.53 6.41 5.33 12.14 5.33 6 0 10.28-1.8 12.71-5.34a10.81 10.81 0 0 0 1.89-5.43v-1.69H449v1.69a11.18 11.18 0 0 0 1.83 5.44zm23.08-3.74l-.33.71c-1 2.27-3.73 5-10.62 5-6.49 0-9-2.71-10-5l-.31-.71zM471.13 182.27a1.69 1.69 0 1 0-3.38 0 4.12 4.12 0 0 1-.55 2.07 4 4 0 0 1-3.59 1.94 4.06 4.06 0 0 1-3.6-1.94 1.69 1.69 0 1 0-2.93 1.7 7.53 7.53 0 0 0 14.05-3.77z"/><path class="cls-2" d="M497.86 232.52l20.2 5.7a2.48 2.48 0 0 1 1.57 2.31l4.22 39.85 3.37-.35-4.22-39.72a5.68 5.68 0 0 0-4-5.35l-17.83-5-19.48-5.87v-5.91l36.72-9.56-2.46-2.11c-4.71-4-7.48-12.19-8.25-24.2v-.19l.12-.15a6.28 6.28 0 0 0 1.29-3.83v-7.35a6.28 6.28 0 0 0-1.31-3.79l-.11-.15v-.16c.26-4.41.71-9.07 1.29-13.13v-.18a45.22 45.22 0 0 0-90.44.06v.37c.09.49 1 5.41 1.57 12.19v.23l-.16.16a6.28 6.28 0 0 0-1.79 4.4v7.35a6.28 6.28 0 0 0 2 4.61l.17.16v.24c-.78 11.32-3.75 19.18-8.72 23.35l-2.54 2.13 37.76 9.37.83.38.56.25v5.4l-25.89 7.79-10.78 3.07a6.28 6.28 0 0 0-4.29 5.15L403.34 280l3.37.33 3.92-39.93a2.94 2.94 0 0 1 1.85-2.23l23.91-6.84 28.87 33.95 28.48-33.93 3.84 1.08zm13.28-26.25l.46.6-20.92 5.44-.47-.86a38.33 38.33 0 0 0 12.13-26.53v-.48h.48a6.37 6.37 0 0 0 1.1-.11l.54-.1.05.55c.89 9.58 3.13 16.81 6.63 21.47zm-5.44-28.14a3 3 0 0 1-2.73 2.94h-.54v-13.31h.54a3 3 0 0 1 2.73 2.94zm-1.7-36.75l.2.71a40.86 40.86 0 0 1 1.53 11v.08c-.07.47-.75 4.8-1.19 10.93v.56l-.55-.1a6.34 6.34 0 0 0-1-.1h-.49V144.5l-.86.16-.72.14-.38-.91c1-.7 2-1.4 3-2.08zm-82 11.83a41.87 41.87 0 0 1 80.64-15.56l.15.35-.31.24c-3.81 2.94-17.19 12.51-29.58 12.11h-.39l-.09-.38a18.47 18.47 0 0 1-.32-2l-.22-2.06-2 .63a62.21 62.21 0 0 0-10.2 4.79 64.11 64.11 0 0 1-9 4.36l-.71.24v-.78c0-.78.11-1.73.19-2.53l.21-2.18-2.17.35c-2 .32-4.06.71-6.08 1.08-7.44 1.38-13.75 2.42-15.79 1.17l-2.62 2.23a5.12 5.12 0 0 0 1.19.78l.28.14v8.21h-1.68v-.5c-.53-5.55-1.24-9.6-1.45-10.7zm-.33 17.56a3 3 0 0 1 2.75-2.95h.54v13.34h-.54a3 3 0 0 1-2.75-2.94zm-5.49 36.09l.49-.61c3.79-4.78 6.16-12 7.06-21.36v-.49h1.58v.49a38.36 38.36 0 0 0 11.77 26.17l1.36 1.31zm31.89 7.93a35 35 0 0 1-19.37-31.38v-26.47h.52c3.69.12 8.52-.78 13.63-1.73l3.26-.6.63-.11v.64c-.16 3.29.23 3.66.68 4.07l.67.6.83-.14c3.92-.67 8.24-3 12.44-5.34 2.4-1.31 4.86-2.65 7.2-3.65l.53-.23.15.56c.58 2.2 1.46 2.57 2.25 2.64 9.76.84 20-4.06 26.79-8.33l.78-.48v38.54a35.19 35.19 0 0 1-21.25 32.3l-10.3 2.68a34.37 34.37 0 0 1-3.62.2H463zm28.13 12.3a4.62 4.62 0 0 0-4.61 4.62 1.57 1.57 0 0 0 0 .22v.6l-.39.12a14.29 14.29 0 0 1-1.57.39l-.35.07-.19-.3a4.57 4.57 0 0 0-7.92.24l-.18.33-.36-.08a17.88 17.88 0 0 1-2-.55l-.34-.11v-.36a4.63 4.63 0 0 0-4.61-4.55 4.53 4.53 0 0 0-1.52.28l-.42.15-.2-.39a5.25 5.25 0 0 1-.24-.51l-.2-.51.53-.16V220l.65.2a38.44 38.44 0 0 0 10.13 1.72h.1l2.35.59 3.05-.78a38.68 38.68 0 0 0 9.61-2.35l.68-.27v8.47l-.66-.22a4.52 4.52 0 0 0-1.35-.27zm1.23 4.62a1.24 1.24 0 0 1-2.46 0 1.22 1.22 0 0 1 1.22-1.23 1.23 1.23 0 0 1 1.23 1.23zm-10.89 3.55a1.05 1.05 0 0 1-.55.93 1.43 1.43 0 0 1-1.39 0 1 1 0 0 1-.53-.93 1.23 1.23 0 0 1 2.46 0zM455 232.34a1.23 1.23 0 1 1-1.23-1.23 1.24 1.24 0 0 1 1.23 1.23zM465.28 260l-.38-.46-25.05-29.46 8.09-2.43.16.46a9.12 9.12 0 0 0 1.2 2.35l.15.2-.08.24a4.55 4.55 0 0 0-.24 1.4 4.62 4.62 0 0 0 4.61 4.62 4.55 4.55 0 0 0 2.92-1.07l.22-.18.27.09a21.18 21.18 0 0 0 3.51.94h.27l.11.26a4.6 4.6 0 0 0 8.63-.27l.09-.27.28-.05a18.59 18.59 0 0 0 3.22-.89l.24-.09.21.14a4.6 4.6 0 0 0 7.11-3.88 4.53 4.53 0 0 0-.21-1.3l-.06-.22.12-.19a9 9 0 0 0 .91-1.93l.16-.46 8.63 2.6z"/><path class="cls-1" d="M354.28 123.27v15.1a14.51 14.51 0 0 1-14.48 14.53h-57.61a7.26 7.26 0 0 0-7.24 7.27v9.52a1.45 1.45 0 0 1-1.45 1.45h-7.21a1.45 1.45 0 0 1-1.44-1.45v-27.62c2.28-6.83 10.11-4.27 10.11-4.27a14.51 14.51 0 0 1 14.48-14.53z"/><path class="cls-2" transform="rotate(-8.1 332.487 264.7)" d="M338.58 269.09h3.39v10.96h-3.39z"/><path class="cls-2" transform="rotate(-81.62 274.556 274.594)" d="M269.08 272.9h10.96v3.39h-10.96z"/><path class="cls-2" d="M306.32 271.25h2.76v2.76h-2.76zM289.37 171.5h4.18v4.17h-4.18zM297.79 203.56c1.2 2.47 4.23 4.08 7.91 4.19h.42c3.73 0 6.94-1.57 8.37-4.1a1.69 1.69 0 0 0-.63-2.3 1.69 1.69 0 0 0-2.31.64c-.85 1.48-3.14 2.44-5.74 2.35-2.35-.08-4.34-1-5-2.29a1.7 1.7 0 1 0-3 1.52zM302.05 195h8.49v-11.84a1.69 1.69 0 1 0-3.38 0v8.47h-5.11a1.69 1.69 0 1 0 0 3.39zM317.82 171.5H322v4.17h-4.18zM306.83 257.88h1.75v1.75h-1.75z"/><path class="cls-2" d="M362 240.51l4.23 39.86 3.37-.36-4.22-39.68a5.66 5.66 0 0 0-4-5.35l-24.78-7-.92-.21-11-3.14v-6.17l.25-.15a37.74 37.74 0 0 0 18.63-30.09v-.53l.52.05a6.45 6.45 0 0 0 .65 0 6.36 6.36 0 0 0 6.36-6.36v-4.52a6.36 6.36 0 0 0-6.36-6.36h-1.11v-15.74l.38-.09a16.32 16.32 0 0 0 12.55-15.91v-16.95h-67.39A16.48 16.48 0 0 0 273 135.66l-.07.47h-.47c-.43 0-.86-.06-1.27-.06-4.2 0-7.22 2.09-8.51 5.87l-.11 28.51a3.14 3.14 0 0 0 .78 2l.39.46-.52.31a6.39 6.39 0 0 0-3.14 5.49v4.52a6.34 6.34 0 0 0 7.72 6.21l.55-.12.06.56a38 38 0 0 0 21.36 30l.29.13v4.63l-.37.1L254 234.93a6.28 6.28 0 0 0-4.29 5.16L245.76 280l3.37.33 3.95-39.91a3 3 0 0 1 1.85-2.23l26.16-7.48L299.63 259l6.54-11.38 1.57 1.79 1.78-2.12 6.74 11.71 18.41-28 25.8 7.27a2.43 2.43 0 0 1 1.53 2.24zm-21.72-69.74l-8.92 1.07v-1.31a5.14 5.14 0 0 0-5.13-5.13h-12.66a5.13 5.13 0 0 0-5.05 4.22l-.08.42h-5.49l-.08-.42a5.13 5.13 0 0 0-5.05-4.22h-12.7a5.14 5.14 0 0 0-5.14 5.13v1.25l-3.92-.47.08-.61a2.06 2.06 0 0 0 0-.29v-9.6a5.66 5.66 0 0 1 5.65-5.65h58.47zm-28.39.16l-.1-.13v-.27a1.75 1.75 0 0 1 1.75-1.75h12.69a1.75 1.75 0 0 1 1.75 1.75v6.28a1.75 1.75 0 0 1-1.75 1.75h-12.66a1.75 1.75 0 0 1-1.75-1.75v-3.14l.1-.13a2.2 2.2 0 0 0 0-2.67zm-12.36-.41v6.28a1.76 1.76 0 0 1-1.76 1.75h-12.65a1.75 1.75 0 0 1-1.75-1.75v-6.28a1.75 1.75 0 0 1 1.75-1.75h12.67a1.75 1.75 0 0 1 1.77 1.73zm44.52 3.54a2.89 2.89 0 0 1 .74-.1 3 3 0 0 1 3 3v4.52a3 3 0 0 1-3 3 2.94 2.94 0 0 1-.74-.1l-.38-.09v-10.13zm-75.88 11.55l-.25.15a2.93 2.93 0 0 1-1.5.42 3 3 0 0 1-3-3v-4.52a3 3 0 0 1 3-3 2.91 2.91 0 0 1 1.52.38l.25.15zM266 170.18v-27.46c.85-2.22 2.55-3.3 5.21-3.3a10.29 10.29 0 0 1 2.77.39l2.24.73v-2.35a13 13 0 0 1 13-13h64.07v13.56a13 13 0 0 1-13 13h-58.45a9 9 0 0 0-9 9v9.41zm5.66 16.9v-.16l.09-.14a6.28 6.28 0 0 0 1.11-3.57v-4.52a6.28 6.28 0 0 0-1.14-3.62l-.09-.13v-.73h.56l7.85.94v1.66a5.14 5.14 0 0 0 5.14 5.14h12.66a5.15 5.15 0 0 0 5.14-5.14v-2.35h5.49v2.35a5.14 5.14 0 0 0 5.14 5.14h12.69a5.14 5.14 0 0 0 5.13-5.14v-1.57l7.56-.91-.23.74a6.33 6.33 0 0 0-.27 1.84v4.52a6.33 6.33 0 0 0 1.71 4.32l.14.15v.2a34.36 34.36 0 0 1-68.67 1zm27.82 65.42l-14.69-22.37 5.12-1.19 13.95 15.93zm8-13.82l-13.93-14.29v-3l.66.22a37.61 37.61 0 0 0 26.51-1.08l.7-.3v4.16l-.14.15zm9.06 13.82l-4.61-8 12.87-15.32v-.49l.62.08 5.81 1.35z"/><path class="cls-4" d="M210.7 279.97H745"/></svg>