<svg id="Layer_1" data-name="Layer 1" xmlns="http://www.w3.org/2000/svg" viewBox="0 0 540 415.3"><defs><style>.cls-1,.cls-4{fill:#5fc8d7}.cls-2{fill:#192530}.cls-10,.cls-3,.cls-5,.cls-6{fill:none}.cls-3,.cls-4,.cls-5{stroke:#424242;stroke-width:6px}.cls-10,.cls-3,.cls-6,.cls-7{stroke-miterlimit:10}.cls-4,.cls-5{stroke-linejoin:round}.cls-10,.cls-6,.cls-7{stroke:#333}.cls-6,.cls-7{stroke-width:2.5px}.cls-7,.cls-9{fill:#2dabe2}.cls-8{fill:#1d2e5e}.cls-10{stroke-width:2px}.cls-11{fill:#4057a7}</style></defs><title>c-605</title><g id="_Group_" data-name="&lt;Group&gt;"><path class="cls-1" d="M483.5 240.8v2.5H474v-14.2h9.5v11.7zM474 220h9.5v5.13H474zM474 210.9h9.5v5.13H474zM459.8 238.2h9.5v5.13h-9.5zM459.8 229.1h9.5v5.12h-9.5zM459.8 220h9.5v5.13h-9.5zM459.8 210.9h9.5v5.13h-9.5zM445.7 238.2h9.5v5.13h-9.5zM445.7 229.1h9.5v5.12h-9.5zM445.7 220h9.5v5.13h-9.5zM445.7 210.9h9.5v5.13h-9.5z"/><path class="cls-2" d="M486 250.7h-42.9a4.7 4.7 0 0 1-4.7-4.7v-62.5a4.7 4.7 0 0 1 4.7-4.7H486a4.7 4.7 0 0 1 4.7 4.7v62.4a4.7 4.7 0 0 1-4.7 4.8zm-42.9-69.9a2.7 2.7 0 0 0-2.7 2.7v62.4a2.7 2.7 0 0 0 2.7 2.7H486a2.7 2.7 0 0 0 2.7-2.7v-62.4a2.7 2.7 0 0 0-2.7-2.7z"/><path class="cls-2" d="M483.5 198.5h-37.8a1 1 0 0 1-1-1V186a1 1 0 0 1 1-1h37.8a1 1 0 0 1 1 1v11.4a1 1 0 0 1-1 1.1zm-36.8-2h35.8V187h-35.8zM455.2 217h-9.5a1 1 0 0 1-1-1v-5.1a1 1 0 0 1 1-1h9.5a1 1 0 0 1 1 1v5.1a1 1 0 0 1-1 1zm-8.5-2h7.5v-3.1h-7.5zM469.3 217h-9.5a1 1 0 0 1-1-1v-5.1a1 1 0 0 1 1-1h9.5a1 1 0 0 1 1 1v5.1a1 1 0 0 1-1 1zm-8.5-2h7.5v-3.1h-7.5zM483.5 217H474a1 1 0 0 1-1-1v-5.1a1 1 0 0 1 1-1h9.5a1 1 0 0 1 1 1v5.1a1 1 0 0 1-1 1zm-8.5-2h7.5v-3.1H475zM455.2 226.1h-9.5a1 1 0 0 1-1-1V220a1 1 0 0 1 1-1h9.5a1 1 0 0 1 1 1v5.1a1 1 0 0 1-1 1zm-8.5-2h7.5V221h-7.5zM469.3 226.1h-9.5a1 1 0 0 1-1-1V220a1 1 0 0 1 1-1h9.5a1 1 0 0 1 1 1v5.1a1 1 0 0 1-1 1zm-8.5-2h7.5V221h-7.5zM483.5 226.1H474a1 1 0 0 1-1-1V220a1 1 0 0 1 1-1h9.5a1 1 0 0 1 1 1v5.1a1 1 0 0 1-1 1zm-8.5-2h7.5V221H475zM455.2 235.2h-9.5a1 1 0 0 1-1-1v-5.1a1 1 0 0 1 1-1h9.5a1 1 0 0 1 1 1v5.1a1 1 0 0 1-1 1zm-8.5-2h7.5v-3.1h-7.5zM469.3 235.2h-9.5a1 1 0 0 1-1-1v-5.1a1 1 0 0 1 1-1h9.5a1 1 0 0 1 1 1v5.1a1 1 0 0 1-1 1zm-8.5-2h7.5v-3.1h-7.5zM455.2 244.3h-9.5a1 1 0 0 1-1-1v-5.1a1 1 0 0 1 1-1h9.5a1 1 0 0 1 1 1v5.1a1 1 0 0 1-1 1zm-8.5-2h7.5v-3.1h-7.5zM469.3 244.3h-9.5a1 1 0 0 1-1-1v-5.1a1 1 0 0 1 1-1h9.5a1 1 0 0 1 1 1v5.1a1 1 0 0 1-1 1zm-8.5-2h7.5v-3.1h-7.5zM483.5 244.3H474a1 1 0 0 1-1-1v-14.2a1 1 0 0 1 1-1h9.5a1 1 0 0 1 1 1v14.2a1 1 0 0 1-1 1zm-8.5-2h7.5v-12.2H475zM456.8 201.8h15.6v1.99h-15.6z"/></g><path class="cls-3" d="M285.3 97.4a115.1 115.1 0 1 0 115.1 115.2A115.3 115.3 0 0 0 285.3 97.4z"/><path class="cls-3" d="M283.8 135.5a77.1 77.1 0 1 0 77.1 77.1 77.2 77.2 0 0 0-77.1-77.1zM283.8 139.7v15.8M283.8 271.8v15.8M359 212.6h-15.8M226.8 212.6H211"/><circle class="cls-4" cx="283.8" cy="212.6" r="14.7" transform="rotate(-45 283.748 212.568)"/><path class="cls-5" d="M268.1 210.4L239 253.8l46.3-26.2M296.8 215.1l25.2-39.6-42.4 22.4"/><path class="cls-6" d="M92.2 308l-9.1 25.1-5.8-9.3-11 3.2 8.7-23.7M93.8 307.5l9.3 25.6 5.8-9.3 10.9 3.2-8.2-22.6"/><path class="cls-7" d="M119.4 293.2l-2.4-7 4-6.2-5.4-5.1.7-7.3-7.1-2-2.8-6.8-7.2 1.5-5.7-4.7-5.6 4.7-7.2-1.5-2.8 6.8-7.1 2 .7 7.3-5.4 5.1 4 6.2-2.4 7 6.4 3.6 1.1 7.3 7.4.2 4.4 6 6.6-3.3 6.6 3.3 4.4-6 7.4-.2 1.1-7.3zm-42.7-9.4a16.8 16.8 0 1 1 16.8 16.8 16.8 16.8 0 0 1-16.8-16.8z"/><g id="_Group_2" data-name="&lt;Group&gt;"><path class="cls-8" d="M127.2 107.9v22.3h-26.4v2.1H87.9v-2.1H61.6v-8.7l17.4-8.8 8.1 4.4 15.5-6.2 7.6 4.4 17-7.4z"/><path class="cls-2" d="M128.3 130.1h-2.2V88.7H62.7v41.4h-2.2V87.6a1.1 1.1 0 0 1 1.1-1.1h65.6a1.1 1.1 0 0 1 1.1 1.1z"/><path class="cls-2" d="M134.3 130.1h-2.2v-45a2.3 2.3 0 0 0-2.3-2.3H59a2.3 2.3 0 0 0-2.3 2.3v45.1h-2.3V85.1a4.6 4.6 0 0 1 4.6-4.6h70.8a4.6 4.6 0 0 1 4.5 4.5z"/><path class="cls-2" d="M141.6 138.1H47.1a1.1 1.1 0 0 1-.9-.5 14.7 14.7 0 0 1-1.9-3.2 17.7 17.7 0 0 1 0-4.4 1.1 1.1 0 0 1 1.1-1h42.5a1.1 1.1 0 0 1 1.1 1.1v1h10.7v-1a1.1 1.1 0 0 1 1.1-1.1h42.5a1.1 1.1 0 0 1 1.1 1 17.6 17.6 0 0 1 0 4.4 14.7 14.7 0 0 1-1.9 3.2 1.1 1.1 0 0 1-.9.5zm-93.9-2.2H141a11.7 11.7 0 0 0 1.2-2 12.3 12.3 0 0 0 0-2.6h-40.3v1a1.1 1.1 0 0 1-1.1 1.1H87.9a1.1 1.1 0 0 1-1.1-1.1v-1H46.5a12.4 12.4 0 0 0 0 2.6 11.6 11.6 0 0 0 1.2 2zM62.1 122.4l-1-2 17.5-8.7a1.1 1.1 0 0 1 1 0l7.6 4.1 15.1-6a1.1 1.1 0 0 1 1 .1l7.1 4.2 16.5-7.2 1 2h-.1l-17 7.4a1.1 1.1 0 0 1-1-.1l-7.1-4.2-15.1 6a1.1 1.1 0 0 1-.9-.1L79 114zM69.5 94h18.9v2.23H69.5zM69.5 98.9h10.8v2.23H69.5z"/></g><path class="cls-9" d="M492 138.7l-12.3 11.9v-11.9H492zM443.7 115.6h19.2v8.78h-19.2zM466.1 115.6h19v8.92h-19z"/><path class="cls-10" d="M479.2 150.3v-10.9a1 1 0 0 1 1-1h10.9M485.2 87.6h-17.4M485.2 93.7h-17.4M485.2 99.9h-17.4M485.2 106h-17.4M485.2 112.2h-42M485.2 130.6h-42M462.9 135.9h-19.7M462.1 124.8h-17.7a1 1 0 0 1-1-1v-7.5a1 1 0 0 1 1-1h17.7a1 1 0 0 1 1 1v7.5a1 1 0 0 1-1 1zM484.5 124.8h-17.7a1 1 0 0 1-1-1v-7.5a1 1 0 0 1 1-1h17.7a1 1 0 0 1 1 1v7.5a1 1 0 0 1-1 1z"/><path class="cls-10" d="M479.7 150.6h-41.6a1 1 0 0 1-1-1V77.1a1 1 0 0 1 1-1h52.5a1 1 0 0 1 1 1v61.6a1 1 0 0 1-.3.7l-10.9 10.9a1 1 0 0 1-.7.3z"/><path class="cls-10" d="M463.4 83.3v12.4a9.6 9.6 0 0 1-19.3 0V77.1a7.8 7.8 0 0 1 15.5 0v16.3a5.5 5.5 0 0 1-11.1 0v-10"/><g id="_Group_3" data-name="&lt;Group&gt;"><path class="cls-11" d="M84.1 197.8h.1a13.1 13.1 0 0 1-26.3 0zM104.6 197.8h26.2a13.1 13.1 0 0 1-26.3 0z"/><path class="cls-2" d="M71 211.9a14.2 14.2 0 0 1-14.1-14.1h2a12.2 12.2 0 0 0 24.3 0h.9v-1h.1a1 1 0 0 1 1 1A14.2 14.2 0 0 1 71 211.9zM71.1 167h23.3v1.99H71.1z"/><path class="cls-2" d="M84.1 198.8H57.9a1 1 0 0 1-.9-1.4l13.1-29.8a1 1 0 0 1 1.8 0L85 197.4a1 1 0 0 1-.9 1.4zm-24.7-2h23.2L71 170.5zM117.7 211.9a14.2 14.2 0 0 1-14.1-14.1 1 1 0 0 1 1-1h.1v1h.9a12.2 12.2 0 0 0 24.3 0h2a14.2 14.2 0 0 1-14.2 14.1zM94.4 167h23.3v1.99H94.4z"/><path class="cls-2" d="M130.9 198.8h-26.3a1 1 0 0 1-.9-1.4l13.1-29.8a1 1 0 0 1 1.8 0l13.1 29.8a1 1 0 0 1-.9 1.4zm-24.7-2h23.2l-11.6-26.3zM112.8 226.7H76.4a3.5 3.5 0 0 1-3.5-3.5 3.5 3.5 0 0 1 3.5-3.5h15.7v2H76.4a1.5 1.5 0 0 0-1.5 1.5 1.5 1.5 0 0 0 1.5 1.5h36.5a1.5 1.5 0 0 0 0-3H97.1v-2h15.7a3.5 3.5 0 0 1 0 7z"/><path class="cls-2" d="M97.1 221.7h-5a1 1 0 0 1-1-1v-56.6a3.5 3.5 0 0 1 7 0v56.6a1 1 0 0 1-1 1zm-4-2h3v-55.6a1.5 1.5 0 0 0-3 0z"/><path class="cls-2" d="M92.1 171.1h5v1.99h-5z"/></g><g id="_Group_4" data-name="&lt;Group&gt;"><path class="cls-1" d="M478.6 317.4v2c0 .3 0 .8-.1 1.2v1.6l-.3 1.8-.5 1.7v.4c-.3.8-.6 1.5-.9 2.3l-.5 1.1-.6 1-.6 1-1.4 1.9-.3.3h-.1l-.7.8-.4.4-1.5 1.3-.4.3-.4.4-1.1.8-.5.4-1.1.7-.5.3-1.2.6-.6.3-.6.2-.6.2-.6.2-.6.2h-.7l-2 .5h-4.5a23.5 23.5 0 0 1 0-47h4.4l.9.2h.6l1.7.5 1 .4 1.1.5.7.3.3.2.7.4.7.4.5.3.6.4.8.6.8.6.7.6 2.2 2.2h.1l.8 1 1.5 2.1.6 1.1.8 1.6h.1a23.1 23.1 0 0 1 1.7 6c.1.7.2 1.4.2 2.2zm-6.2 1.1a17.3 17.3 0 1 0-17.3 17.3 17.3 17.3 0 0 0 17.3-17.4z"/><circle class="cls-11" cx="455.1" cy="318.4" r="17.3"/><path class="cls-2" d="M497.6 293.7h-40a1 1 0 0 1-1-1v-8.3a1 1 0 0 1 1-1h39.9a1 1 0 0 1 1 1v8.3a1 1 0 0 1-.9 1zm-39-1.9h38v-6.4h-38z"/><path class="cls-2" d="M493.1 285.5h-39.9a1 1 0 0 1-1-1v-8.3a1 1 0 0 1 1-1h39.9a1 1 0 0 1 1 1v8.3a1 1 0 0 1-1 1zm-39-1.9h38v-6.4h-38zM477.6 317.3a19.8 19.8 0 0 0-.2-2 22 22 0 0 0-1.6-5.8l-.8-1.6-.6-1.1-1.4-2-.8-1 1.4-1.3.9 1.1 1.5 2.2.7 1.2.8 1.7h.1a23.9 23.9 0 0 1 1.7 6.2 21.5 21.5 0 0 1 .2 2.2zM472.1 303.7l-2-2 1.3-1.4 2.1 2.2zM470 301.6l-.6-.5-.8-.6 1.1-1.6.9.7.7.6z"/><path class="cls-2" d="M468.6 300.4l-.8-.6-.5-.4 1-1.6.6.4.9.6zM466.8 299.2l-.7-.4-.7-.4.9-1.7-.4.9.5-.8.8.4.8.4zM465.3 298.4l-.3-.2-.6-.3.8-1.7.7.3.4.2zM463.3 297.4l-1-.4.6-1.8 1 .4zM460.7 296.6h-.5l.4-1.9h.6zM459.3 296.3h-1l.3-1.9h1.1zM457.4 296h-1.1v-2h1.3zM455.1 342.9a24.5 24.5 0 0 1 0-48.9v1.9a22.5 22.5 0 0 0 0 45.1zM457 342.8v-1.9h.5l.2 1.9z"/><path class="cls-2" d="M457.7 342.8l-.2-1.9h.5l.3 1.9zM458.6 342.6l-.3-1.9h1l.3 1.9h-1.1zM461.8 342l-.5-1.9h.3l.6 1.8zM462.5 341.8l-.6-1.8.6-.2.6-.2.6-.2.5-.2.6-.3.9 1.7-.6.3-.6.3-.6.2-.6.2zM466.8 339.9l-.9-1.7h.1l.4-.2 1 1.7-.4.2zM468.4 338.9l-1.1-1.6.5-.3 1.1 1.6zM470 337.8l-1.1-1.5.4-.3.4-.3 1.3 1.4-.5.4zM472.4 335.7l-1.3-1.4.4-.4 1.4 1.3zM474 333.9l-1.5-1.2 1.3-1.8.6-1 .6-1 .5-1 1.7.8-.5 1.1-.6 1.1-.7 1zM478.3 326.3l-1.9-.6.2-.4 1.8.5-.1.5zM478.4 325.7l-1.8-.6.4-1.5q.2-.8.3-1.7v-.5l1.9.2v.6c-.1.6-.2 1.3-.4 1.8zM479.4 321.2l-1.9-.3v-.5h1.9zM479.5 319.4h-1.9v-.8h1.9v.8zM455.1 336.7a18.2 18.2 0 1 1 18.2-18.2 18.3 18.3 0 0 1-18.2 18.2zm0-34.6a16.3 16.3 0 1 0 16.3 16.3 16.3 16.3 0 0 0-16.3-16.3zM470 301.6l-.6-.5-.8-.6-.8-.6-.5-.4-.4-.2h-.1l-.7-.4-.6-.3h-.1l-.3-.2-.6-.3-1.1-.4-1-.4-1.6-.5h-.5l-.9-.2h-4.2a1 1 0 0 1-1-1v-2.3a1 1 0 0 1 1-1H495a1 1 0 0 1 1 1v8.2h-1.9v-7.2H456v.4h3.7l.9.2h.6l1.7.5 1 .4 1.2.5.7.3.3.2.8.4.8.4h.1l.4.3.6.4.9.6.8.7.7.6z"/><path class="cls-2" d="M495 301.9h-24.2a1 1 0 0 1-.7-.3h-.1l.7-.9v-.7H495z"/><path class="cls-2" d="M495 310.1h-18.3v-1.9h17.4v-6.4h-23.4v-1.9H495a1 1 0 0 1 1 1v8.3a1 1 0 0 1-1 .9z"/><path class="cls-2" d="M475.7 309.4l-.8-1.6-.6-1.1-1.4-2-.8-.9h-.1l-2.1-2.1 1.3-1.4 2.3 2.3.9 1.1 1.5 2.2.7 1.2.8 1.7z"/><path class="cls-2" d="M493.1 318.3h-14.5a1 1 0 0 1-1-.9c0-.7-.1-1.4-.2-2.1a22.2 22.2 0 0 0-1.6-5.8 1 1 0 0 1 .1-.9 1 1 0 0 1 .8-.5h16.5a1 1 0 0 1 1 1v8.3a1 1 0 0 1-1.1.9zm-13.6-1.9h12.7V310H478a24.2 24.2 0 0 1 1.3 5c.1.5.1 1 .2 1.4z"/><path class="cls-2" d="M495 326.5h-17.5v-1l-.9-.3.5-1.6c.1-.6.2-1.1.3-1.7v-1.4c0-.4.1-.7.1-1.1v-.9-1a1 1 0 0 1 1-1H495a1 1 0 0 1 1 1v8.3a1 1 0 0 1-1 .7zm-16.3-1.9H494v-6.4h-14.5v1.1c0 .3 0 .8-.1 1.2v1.5c-.1.6-.2 1.2-.4 1.8z"/><path class="cls-2" d="M497.6 334.7h-24.7v-1.1l-.6-.5.3-.3 1.3-1.8.6-1 .6-1 .5-1c.3-.7.6-1.5.9-2.2v-.2h.1a1 1 0 0 1 .9-.7h20a1 1 0 0 1 1 1v8.3a1 1 0 0 1-.9.5zm-22.7-1.9h21.7v-6.4h-18.4q-.4 1.1-.9 2.3l-.5 1.1-.6 1.1-.7 1z"/><path class="cls-2" d="M495 342.9h-39.9a1 1 0 1 1 0-1.9h4.3l1.9-.5h.6l.6-.2h.1l.4-.2.6-.2h.1l.4-.2.6-.3 1.1-.6.5-.3 1-.6h.1l.4-.2 1-.7.4-.3.4-.3 1.4-1.3.4-.4.7-.8h.1a1.1 1.1 0 0 1 .8-.4h22a1 1 0 0 1 1 1v8.3a1 1 0 0 1-1 .1zm-30.4-1.9h29.5v-6.4h-20.7l-.6.6-.4.4-1.6 1.4-.4.4-.4.4-1.1.8-.4.3h-.1l-1.1.7-.5.3-1.2.6-.6.3z"/></g></svg>