<svg id="Layer_1" data-name="Layer 1" xmlns="http://www.w3.org/2000/svg" viewBox="0 0 540 415.3"><defs><style>.cls-1,.cls-4{fill:#5fc8d7}.cls-2{fill:#192530}.cls-10,.cls-11,.cls-12,.cls-3,.cls-5,.cls-6{fill:none}.cls-3,.cls-4,.cls-5{stroke:#424242}.cls-10,.cls-13,.cls-3,.cls-6,.cls-7{stroke-miterlimit:10}.cls-3,.cls-4,.cls-5,.cls-6,.cls-7{stroke-width:2.5px}.cls-11,.cls-12,.cls-4,.cls-5{stroke-linejoin:round}.cls-10,.cls-11,.cls-12,.cls-13,.cls-6,.cls-7{stroke:#333}.cls-13,.cls-7,.cls-9{fill:#2dabe2}.cls-8{fill:#1d2e5e}.cls-10,.cls-11,.cls-12,.cls-13{stroke-width:2px}.cls-12{stroke-linecap:round}</style></defs><title>Artboard 8</title><g id="_Group_" data-name="&lt;Group&gt;"><path class="cls-1" d="M483.6 240.2v2.6h-9.5v-14.2h9.5v11.6zM474.1 219.5h9.5v5.13h-9.5zM474.1 210.4h9.5v5.13h-9.5zM460 237.7h9.5v5.13H460zM460 228.6h9.5v5.12H460zM460 219.5h9.5v5.13H460zM460 210.4h9.5v5.13H460zM445.8 237.7h9.5v5.13h-9.5zM445.8 228.6h9.5v5.12h-9.5zM445.8 219.5h9.5v5.13h-9.5zM445.8 210.4h9.5v5.13h-9.5z"/><path class="cls-2" d="M486.1 250.1h-42.8a4.7 4.7 0 0 1-4.7-4.7v-62.5a4.7 4.7 0 0 1 4.7-4.7h42.9a4.7 4.7 0 0 1 4.7 4.7v62.4a4.7 4.7 0 0 1-4.8 4.8zm-42.9-69.9a2.7 2.7 0 0 0-2.7 2.7v62.4a2.7 2.7 0 0 0 2.7 2.7h42.9a2.7 2.7 0 0 0 2.7-2.7v-62.4a2.7 2.7 0 0 0-2.7-2.7z"/><path class="cls-2" d="M483.6 197.9h-37.8a1 1 0 0 1-1-1v-11.4a1 1 0 0 1 1-1h37.8a1 1 0 0 1 1 1v11.4a1 1 0 0 1-1 1zm-36.8-2h35.8v-9.5h-35.8zM455.3 216.5h-9.5a1 1 0 0 1-1-1v-5.1a1 1 0 0 1 1-1h9.5a1 1 0 0 1 1 1v5.1a1 1 0 0 1-1 1zm-8.5-2h7.5v-3.1h-7.5zM469.4 216.5H460a1 1 0 0 1-1-1v-5.1a1 1 0 0 1 1-1h9.5a1 1 0 0 1 1 1v5.1a1 1 0 0 1-1.1 1zm-8.5-2h7.5v-3.1H461zM483.6 216.5h-9.5a1 1 0 0 1-1-1v-5.1a1 1 0 0 1 1-1h9.5a1 1 0 0 1 1 1v5.1a1 1 0 0 1-1 1zm-8.5-2h7.5v-3.1h-7.5zM455.3 225.6h-9.5a1 1 0 0 1-1-1v-5.1a1 1 0 0 1 1-1h9.5a1 1 0 0 1 1 1v5.1a1 1 0 0 1-1 1zm-8.5-2h7.5v-3.1h-7.5zM469.4 225.6H460a1 1 0 0 1-1-1v-5.1a1 1 0 0 1 1-1h9.5a1 1 0 0 1 1 1v5.1a1 1 0 0 1-1.1 1zm-8.5-2h7.5v-3.1H461zM483.6 225.6h-9.5a1 1 0 0 1-1-1v-5.1a1 1 0 0 1 1-1h9.5a1 1 0 0 1 1 1v5.1a1 1 0 0 1-1 1zm-8.5-2h7.5v-3.1h-7.5zM455.3 234.7h-9.5a1 1 0 0 1-1-1v-5.1a1 1 0 0 1 1-1h9.5a1 1 0 0 1 1 1v5.1a1 1 0 0 1-1 1zm-8.5-2h7.5v-3.1h-7.5zM469.4 234.7H460a1 1 0 0 1-1-1v-5.1a1 1 0 0 1 1-1h9.5a1 1 0 0 1 1 1v5.1a1 1 0 0 1-1.1 1zm-8.5-2h7.5v-3.1H461zM455.3 243.8h-9.5a1 1 0 0 1-1-1v-5.1a1 1 0 0 1 1-1h9.5a1 1 0 0 1 1 1v5.1a1 1 0 0 1-1 1zm-8.5-2h7.5v-3.1h-7.5zM469.4 243.8H460a1 1 0 0 1-1-1v-5.1a1 1 0 0 1 1-1h9.5a1 1 0 0 1 1 1v5.1a1 1 0 0 1-1.1 1zm-8.5-2h7.5v-3.1H461zM483.6 243.8h-9.5a1 1 0 0 1-1-1v-14.2a1 1 0 0 1 1-1h9.5a1 1 0 0 1 1 1v14.2a1 1 0 0 1-1 1zm-8.5-2h7.5v-12.2h-7.5zM456.9 201.2h15.6v1.99h-15.6z"/></g><path class="cls-3" d="M464.7 272.4a33.1 33.1 0 1 0 33.1 33.1 33.2 33.2 0 0 0-33.1-33.1z"/><path class="cls-3" d="M464.3 283.4a22.2 22.2 0 1 0 22.2 22.2 22.2 22.2 0 0 0-22.2-22.2zM464.3 284.6v4.5M464.3 322.6v4.5M485.9 305.5h-4.5M447.9 305.5h-4.5"/><circle class="cls-4" cx="464.3" cy="305.5" r="4.2" transform="rotate(-45 464.28 305.59)"/><path class="cls-5" d="M459.8 304.9l-8.4 12.5 13.3-7.6M468 306.3l7.3-11.4-12.2 6.4"/><path class="cls-6" d="M90.2 307.5l-9.1 25.1-5.8-9.3-11 3.2 8.7-23.8M91.8 307l9.3 25.6 5.8-9.3 10.9 3.2-8.2-22.7"/><path class="cls-7" d="M117.4 292.6l-2.4-7 4-6.2-5.4-5.1.7-7.3-7.1-2-2.8-6.8-7.2 1.5-5.7-4.7-5.6 4.7-7.2-1.5-2.8 6.8-7.1 2 .7 7.3-5.4 5.1 4 6.2-2.4 7 6.4 3.6 1.1 7.3 7.4.2 4.4 6 6.6-3.3 6.6 3.3 4.4-6 7.4-.2 1.1-7.3zm-42.7-9.4A16.8 16.8 0 1 1 91.5 300a16.8 16.8 0 0 1-16.8-16.8z"/><g id="_Group_2" data-name="&lt;Group&gt;"><path class="cls-8" d="M125.2 107.4v22.2H98.8v2.1H85.9v-2.1H59.6v-8.7l17.4-8.7 8.1 4.4 15.5-6.3 7.6 4.5 17-7.4z"/><path class="cls-2" d="M126.3 129.6h-2.2V88.2H60.7v41.4h-2.2V87.1a1.1 1.1 0 0 1 1.1-1.1h65.6a1.1 1.1 0 0 1 1.1 1.1z"/><path class="cls-2" d="M132.3 129.6h-2.2V84.5a2.3 2.3 0 0 0-2.3-2.3H57a2.3 2.3 0 0 0-2.3 2.3v45.1h-2.3V84.5A4.6 4.6 0 0 1 57 80h70.8a4.6 4.6 0 0 1 4.5 4.5z"/><path class="cls-2" d="M139.6 137.6H45.1a1.1 1.1 0 0 1-.9-.5 14.7 14.7 0 0 1-1.9-3.2 17.7 17.7 0 0 1 0-4.4 1.1 1.1 0 0 1 1.1-1h42.5a1.1 1.1 0 0 1 1.1 1.1v1h10.7v-1a1.1 1.1 0 0 1 1.1-1.1h42.5a1.1 1.1 0 0 1 1.1 1 17.6 17.6 0 0 1 0 4.4 14.7 14.7 0 0 1-1.9 3.2 1.1 1.1 0 0 1-.9.5zm-93.9-2.2H139a11.7 11.7 0 0 0 1.2-2 12.3 12.3 0 0 0 0-2.6H99.9v1a1.1 1.1 0 0 1-1.1 1.1H85.9a1.1 1.1 0 0 1-1.1-1.1v-1H44.5a12.4 12.4 0 0 0 0 2.6 11.6 11.6 0 0 0 1.2 2zM60.1 121.9l-1-2 17.5-8.7a1.1 1.1 0 0 1 1 0l7.6 4.1 15.1-6a1.1 1.1 0 0 1 1 .1l7.1 4.2 16.5-7.2 1 2h-.1l-17 7.4a1.1 1.1 0 0 1-1-.1l-7.1-4.2-15.1 6a1.1 1.1 0 0 1-.9-.1l-7.7-4zM67.5 93.5h18.9v2.23H67.5zM67.5 98.3h10.8v2.23H67.5z"/></g><path class="cls-9" d="M495.9 138.2l-12.3 11.9v-11.9h12.3zM447.6 115h19.2v8.78h-19.2zM470 115h19v8.92h-19z"/><path class="cls-10" d="M483.1 149.8v-10.9a1 1 0 0 1 1-1H495M489 87h-17.3M489 93.2h-17.3M489 99.3h-17.3M489 105.5h-17.3M489 111.6h-41.9M489 130.1h-41.9M466.8 135.3h-19.7M465.9 124.3h-17.6a1 1 0 0 1-1-1v-7.5a1 1 0 0 1 1-1H466a1 1 0 0 1 1 1v7.5a1 1 0 0 1-1.1 1zM488.3 124.3h-17.6a1 1 0 0 1-1-1v-7.5a1 1 0 0 1 1-1h17.7a1 1 0 0 1 1 1v7.5a1 1 0 0 1-1.1 1z"/><path class="cls-10" d="M483.6 150.1H442a1 1 0 0 1-1-1V76.5a1 1 0 0 1 1-1h52.5a1 1 0 0 1 1 1v61.6a1 1 0 0 1-.3.7l-10.9 10.9a1 1 0 0 1-.7.4z"/><path class="cls-10" d="M467.3 82.7v12.5a9.6 9.6 0 0 1-19.3 0V76.5a7.8 7.8 0 0 1 15.5 0v16.4a5.5 5.5 0 0 1-11.1 0v-10"/><path class="cls-2" d="M197.3 128.5h78.6v6.71h-78.6z"/><path class="cls-2" d="M241.2 265.1h-88.5a3.2 3.2 0 0 1-2.8-1.9 5.3 5.3 0 0 1-.3-4.1l44.2-128a3.1 3.1 0 0 1 6.1 0l44.2 128a5.3 5.3 0 0 1-.3 4.1 3.2 3.2 0 0 1-2.6 1.9zm-83.3-8.5H236l-39.1-113.2zM275.8 128.5h78.6v6.71h-78.6z"/><path class="cls-2" d="M399 265.1h-88.5a3.2 3.2 0 0 1-2.8-1.9 5.3 5.3 0 0 1-.3-4.1l44.2-128a3.1 3.1 0 0 1 6.1 0l44.2 128a5.3 5.3 0 0 1-.3 4.1 3.2 3.2 0 0 1-2.6 1.9zm-83.3-8.5h78.2l-39.2-113.2zM338.1 330h-123a11.8 11.8 0 0 1-11.8-11.8 11.8 11.8 0 0 1 11.8-11.8h53v6.6h-53a5.1 5.1 0 0 0-5.1 5.1 5.1 5.1 0 0 0 5.1 5.1h123a5.1 5.1 0 0 0 0-10.2H285v-6.7h53a11.8 11.8 0 0 1 0 23.7z"/><path class="cls-2" d="M285 313h-17a3.4 3.4 0 0 1-3.4-3.4v-191a11.8 11.8 0 0 1 23.7 0v191.1a3.4 3.4 0 0 1-3.3 3.3zm-13.6-6.7h10.2V118.6a5.1 5.1 0 0 0-10.2 0z"/><path class="cls-2" d="M268.1 142.4h17v6.71h-17z"/><path class="cls-11" d="M97.9 205.4a4.2 4.2 0 0 0 4.3-4.1v-12.1a3.6 3.6 0 0 0-2.6-3.4l-2.8-.9-5.3 5.1-5.3-5.1-2.8.9a3.6 3.6 0 0 0-2.6 3.4v12.1a4.2 4.2 0 0 0 4.3 4.1"/><ellipse class="cls-12" cx="91.5" cy="177.7" rx="5.3" ry="5.1"/><path class="cls-12" d="M97.9 193.1v30.8H85.1v-30.8M91.5 205.4v18.5"/><path class="cls-11" d="M102.4 197.9a4.4 4.4 0 0 0 2 .5M117.2 198.3a4.2 4.2 0 0 0 4.3-4.1v-12.1a3.6 3.6 0 0 0-2.6-3.4l-2.8-.9-5.3 5.1-5.3-5.1-2.8.9a3.6 3.6 0 0 0-2.6 3.4v4.3"/><ellipse class="cls-12" cx="110.8" cy="170.6" rx="5.3" ry="5.1"/><path class="cls-12" d="M117.2 186v30.8h-12.8V186M110.8 198.3v18.5"/><path class="cls-11" d="M82.8 186.5v-3.7a3.6 3.6 0 0 0-2.6-3.4l-2.8-.9-5.3 5.1-5.3-5.1-2.8.9a3.6 3.6 0 0 0-2.6 3.4v12.1a4.2 4.2 0 0 0 4.3 4.1M78.6 199a2.9 2.9 0 0 0 2.3-1.1"/><ellipse class="cls-12" cx="72.2" cy="171.2" rx="5.3" ry="5.1"/><path class="cls-12" d="M78.6 186.6v30.9H65.8v-30.9M72.2 199v18.5"/><path class="cls-13" d="M371.4 239.7a9.3 9.3 0 0 0-3.9-3.4 33.5 33.5 0 0 0-6.8-2.2v-5.6l.7.5a5.1 5.1 0 0 1 1.6 3l8.5-.5a9.3 9.3 0 0 0-3.6-6.6 14 14 0 0 0-7.2-2.1v-4.6h-4.1v4.6a16.3 16.3 0 0 0-5.3 1.1 9 9 0 0 0-4.1 3.3 8 8 0 0 0-1.4 4.4 7.4 7.4 0 0 0 2.6 5.8c1.6 1.4 4.4 2.6 8.1 3.5v7.6a5.1 5.1 0 0 1-2-1.6 7.1 7.1 0 0 1-1.2-3.3l-8.6.5a11.8 11.8 0 0 0 3.4 7.3c1.7 1.7 4.5 2.6 8.5 2.9v4.6h4.1v-4.6a16.9 16.9 0 0 0 5.8-1.2 10.2 10.2 0 0 0 4.5-3.8 9.7 9.7 0 0 0 1.6-5.4 8.6 8.6 0 0 0-1.2-4.2zm-16.3-7.4a2.1 2.1 0 0 1-.8-1.6 2.5 2.5 0 0 1 1-2 3.3 3.3 0 0 1 1.4-.6v5a4.4 4.4 0 0 1-1.6-.8zm7.5 15.7a4.2 4.2 0 0 1-1.9.9v-6.8a6.1 6.1 0 0 1 1.9 1 3.2 3.2 0 0 1 1.2 2.4 3.2 3.2 0 0 1-1.2 2.5zM195.8 215a20.9 20.9 0 1 0 20.9 20.9 20.9 20.9 0 0 0-20.9-20.9zm0 37.5a16.7 16.7 0 1 1 16.7-16.7 16.7 16.7 0 0 1-16.7 16.8z"/><path class="cls-13" d="M201.8 231.4l-5.3 3.2-.8-.2-.7.2-9.5-6.7a.7.7 0 0 0-.8 1.2l9.5 6.7v.2a1.5 1.5 0 1 0 3 0l5.3-3.2a.7.7 0 1 0-.7-1.2zM194.9 220.4h1.8v4h-1.8zM194.9 247.4h1.8v4h-1.8zM207.3 235h4v1.75h-4zM180.3 235h4v1.75h-4z"/></svg>