<?xml version="1.0" encoding="utf-8"?>
<!-- Generator: Adobe Illustrator 21.0.2, SVG Export Plug-In . SVG Version: 6.00 Build 0)  -->
<svg version="1.1" id="Layer_1" xmlns="http://www.w3.org/2000/svg" xmlns:xlink="http://www.w3.org/1999/xlink" x="0px" y="0px"
	 viewBox="0 0 900 400" style="enable-background:new 0 0 900 400;" xml:space="preserve">
<style type="text/css">
	.st0{fill-rule:evenodd;clip-rule:evenodd;fill:#FFFFFF;stroke:#A7A9AC;stroke-miterlimit:10;}
	.st1{fill-rule:evenodd;clip-rule:evenodd;fill:#E6E7E8;}
	.st2{fill:#808285;}
	.st3{fill:#B0B0B0;}
	.st4{fill:#010101;}
	.st5{fill:none;stroke:#010101;stroke-width:0;stroke-linecap:square;stroke-miterlimit:10;}
	.st6{fill-rule:evenodd;clip-rule:evenodd;fill:none;stroke:#D1D3D4;stroke-miterlimit:10;}
	.st7{fill-rule:evenodd;clip-rule:evenodd;fill:#D1D3D4;}
	.st8{fill:none;stroke:#D1D3D4;stroke-miterlimit:10;}
	.st9{opacity:0.19;}
	.st10{fill:#FFFFFF;stroke:#A7A9AC;stroke-miterlimit:10;}
</style>
<g>
	<rect x="73.4" y="83.1" class="st0" width="360.2" height="232.7"/>
	<polyline class="st1" points="275.9,142.8 275.9,215.8 330.3,215.8 330.3,142.8 275.9,142.8 	"/>
	<polyline class="st1" points="392.9,142.6 392.9,215.7 414.4,215.7 414.4,142.6 392.9,142.6 	"/>
	<polyline class="st1" points="84.9,256.6 84.9,291.5 375.2,291.5 375.2,256.6 84.9,256.6 	"/>
	<g>
		<g>
			<path class="st2" d="M225.3,98l1.6,0.5c-0.2,0.9-0.7,1.6-1.2,2c-0.6,0.4-1.3,0.7-2.2,0.7c-1.1,0-2-0.4-2.7-1.1
				c-0.7-0.8-1.1-1.8-1.1-3.1c0-1.4,0.4-2.5,1.1-3.2c0.7-0.8,1.6-1.2,2.8-1.2c1,0,1.8,0.3,2.5,0.9c0.4,0.4,0.7,0.9,0.8,1.5l-1.6,0.4
				c-0.1-0.4-0.3-0.8-0.6-1c-0.3-0.3-0.7-0.4-1.1-0.4c-0.6,0-1.1,0.2-1.5,0.7c-0.4,0.4-0.6,1.2-0.6,2.2c0,1.1,0.2,1.8,0.6,2.3
				c0.4,0.4,0.9,0.7,1.5,0.7c0.4,0,0.8-0.1,1.1-0.4C224.9,99.1,225.1,98.7,225.3,98z"/>
			<path class="st2" d="M228.1,101.1v-8.3h1.7v6.9h4.1v1.4H228.1z"/>
			<path class="st2" d="M234.9,101.1v-8.3h1.7v8.3H234.9z"/>
			<path class="st2" d="M237.9,101.1v-8.3h6.1v1.4h-4.4V96h4.1v1.4h-4.1v2.3h4.6v1.4H237.9z"/>
			<path class="st2" d="M245.4,101.1v-8.3h1.6l3.4,5.6v-5.6h1.5v8.3h-1.7l-3.3-5.4v5.4H245.4z"/>
			<path class="st2" d="M255.3,101.1v-6.9h-2.4v-1.4h6.5v1.4h-2.4v6.9H255.3z"/>
			<path class="st2" d="M265.5,101.1l-2-8.3h1.7l1.2,5.7l1.5-5.7h2l1.4,5.8l1.3-5.8h1.7l-2,8.3h-1.8l-1.6-6.2l-1.6,6.2H265.5z"/>
			<path class="st2" d="M275.2,101.1v-8.3h1.7v8.3H275.2z"/>
			<path class="st2" d="M278.2,101.1v-8.3h2.7c1,0,1.7,0,2,0.1c0.5,0.1,0.9,0.4,1.2,0.8c0.3,0.4,0.5,1,0.5,1.6
				c0,0.5-0.1,0.9-0.3,1.3c-0.2,0.3-0.4,0.6-0.7,0.8c-0.3,0.2-0.6,0.3-0.9,0.4c-0.4,0.1-1,0.1-1.7,0.1h-1.1v3.1H278.2z M279.8,94.2
				v2.4h0.9c0.7,0,1.1,0,1.3-0.1c0.2-0.1,0.4-0.2,0.5-0.4c0.1-0.2,0.2-0.4,0.2-0.6c0-0.3-0.1-0.6-0.3-0.8c-0.2-0.2-0.4-0.3-0.7-0.4
				c-0.2,0-0.6-0.1-1.2-0.1H279.8z"/>
			<path class="st2" d="M203.7,117.1v-7.9h-2.8v-1.6h7.5v1.6h-2.8v7.9H203.7z"/>
			<path class="st2" d="M209.5,117.1v-9.5h1.9v9.5H209.5z"/>
			<path class="st2" d="M213.2,117.1v-9.5h2.8l1.7,6.5l1.7-6.5h2.9v9.5h-1.8v-7.5l-1.9,7.5h-1.8l-1.9-7.5v7.5H213.2z"/>
			<path class="st2" d="M224.2,117.1v-9.5h7v1.6h-5.1v2.1h4.7v1.6h-4.7v2.6h5.3v1.6H224.2z"/>
			<path class="st2" d="M236.1,114l1.8-0.2c0.1,0.6,0.3,1.1,0.7,1.4c0.3,0.3,0.8,0.4,1.4,0.4c0.6,0,1.1-0.1,1.4-0.4
				c0.3-0.3,0.5-0.6,0.5-0.9c0-0.2-0.1-0.4-0.2-0.6c-0.1-0.2-0.4-0.3-0.7-0.4c-0.2-0.1-0.7-0.2-1.5-0.4c-1-0.3-1.7-0.6-2.1-0.9
				c-0.6-0.5-0.9-1.2-0.9-1.9c0-0.5,0.1-0.9,0.4-1.4c0.3-0.4,0.7-0.7,1.2-1c0.5-0.2,1.1-0.3,1.9-0.3c1.2,0,2.1,0.3,2.7,0.8
				c0.6,0.5,0.9,1.2,0.9,2.1l-1.9,0.1c-0.1-0.5-0.3-0.8-0.5-1.1c-0.3-0.2-0.7-0.3-1.2-0.3c-0.6,0-1,0.1-1.3,0.3
				c-0.2,0.1-0.3,0.3-0.3,0.6c0,0.2,0.1,0.4,0.3,0.6c0.2,0.2,0.8,0.4,1.7,0.6c0.9,0.2,1.6,0.4,2.1,0.7c0.4,0.2,0.8,0.6,1,1
				c0.3,0.4,0.4,0.9,0.4,1.5c0,0.5-0.2,1.1-0.4,1.5c-0.3,0.5-0.7,0.8-1.3,1.1c-0.5,0.2-1.2,0.3-2,0.3c-1.2,0-2.1-0.3-2.7-0.8
				C236.6,115.9,236.2,115.1,236.1,114z"/>
			<path class="st2" d="M245.4,107.6h1.9v5.2c0,0.8,0,1.4,0.1,1.6c0.1,0.4,0.3,0.7,0.6,0.9c0.3,0.2,0.7,0.4,1.3,0.4
				c0.5,0,0.9-0.1,1.2-0.3c0.3-0.2,0.4-0.5,0.5-0.8c0.1-0.3,0.1-0.9,0.1-1.6v-5.3h1.9v5c0,1.1-0.1,2-0.2,2.4
				c-0.1,0.5-0.3,0.9-0.6,1.2c-0.3,0.3-0.6,0.6-1.1,0.8c-0.5,0.2-1.1,0.3-1.8,0.3c-0.9,0-1.6-0.1-2-0.3c-0.5-0.2-0.8-0.5-1.1-0.8
				c-0.3-0.3-0.4-0.7-0.5-1.1c-0.1-0.5-0.2-1.4-0.2-2.4V107.6z"/>
			<path class="st2" d="M254.8,117.1v-9.5h2.8l1.7,6.5l1.7-6.5h2.9v9.5h-1.8v-7.5l-1.9,7.5h-1.8l-1.9-7.5v7.5H254.8z"/>
			<path class="st2" d="M265.8,117.1v-9.5h2.8l1.7,6.5l1.7-6.5h2.9v9.5h-1.8v-7.5l-1.9,7.5h-1.8l-1.9-7.5v7.5H265.8z"/>
			<path class="st2" d="M285.3,117.1h-2.1l-0.8-2.2h-3.8l-0.8,2.2h-2l3.7-9.5h2L285.3,117.1z M281.8,113.3l-1.3-3.5l-1.3,3.5H281.8z
				"/>
			<path class="st2" d="M286.3,117.1v-9.5h4c1,0,1.7,0.1,2.2,0.3c0.5,0.2,0.8,0.5,1.1,0.9c0.3,0.4,0.4,0.9,0.4,1.5
				c0,0.7-0.2,1.3-0.6,1.8c-0.4,0.5-1,0.8-1.9,0.9c0.4,0.2,0.8,0.5,1,0.8c0.3,0.3,0.6,0.8,1.1,1.5l1.1,1.9h-2.3l-1.4-2.1
				c-0.5-0.7-0.8-1.2-1-1.4c-0.2-0.2-0.4-0.3-0.6-0.4s-0.5-0.1-1-0.1h-0.4v4H286.3z M288.2,111.6h1.4c0.9,0,1.5,0,1.7-0.1
				c0.2-0.1,0.4-0.2,0.5-0.4c0.1-0.2,0.2-0.4,0.2-0.7c0-0.3-0.1-0.6-0.3-0.8c-0.2-0.2-0.4-0.3-0.7-0.4c-0.2,0-0.6,0-1.4,0h-1.5
				V111.6z"/>
			<path class="st2" d="M298.2,117.1v-4l-3.4-5.5h2.2l2.2,3.8l2.2-3.8h2.2l-3.5,5.5v4H298.2z"/>
		</g>
	</g>
	<g>
		<g>
			<path class="st3" d="M94.6,134.9l1.6,0.5c-0.2,0.9-0.7,1.6-1.2,2c-0.6,0.4-1.3,0.7-2.2,0.7c-1.1,0-2-0.4-2.7-1.1
				c-0.7-0.8-1.1-1.8-1.1-3.1c0-1.4,0.4-2.5,1.1-3.2c0.7-0.8,1.6-1.2,2.8-1.2c1,0,1.8,0.3,2.5,0.9c0.4,0.4,0.7,0.9,0.8,1.5l-1.6,0.4
				c-0.1-0.4-0.3-0.8-0.6-1c-0.3-0.3-0.7-0.4-1.1-0.4c-0.6,0-1.1,0.2-1.5,0.7c-0.4,0.4-0.6,1.2-0.6,2.2c0,1.1,0.2,1.8,0.6,2.3
				c0.4,0.4,0.9,0.7,1.5,0.7c0.4,0,0.8-0.1,1.1-0.4C94.2,135.9,94.4,135.5,94.6,134.9z"/>
			<path class="st3" d="M97,135.2l1.6-0.2c0.1,0.5,0.3,1,0.6,1.2c0.3,0.3,0.7,0.4,1.2,0.4c0.5,0,0.9-0.1,1.2-0.3
				c0.3-0.2,0.4-0.5,0.4-0.8c0-0.2-0.1-0.4-0.2-0.5c-0.1-0.1-0.3-0.3-0.6-0.4c-0.2-0.1-0.6-0.2-1.3-0.4c-0.9-0.2-1.5-0.5-1.9-0.8
				c-0.5-0.5-0.8-1-0.8-1.7c0-0.4,0.1-0.8,0.4-1.2c0.2-0.4,0.6-0.7,1-0.8s1-0.3,1.6-0.3c1,0,1.8,0.2,2.3,0.7
				c0.5,0.5,0.8,1.1,0.8,1.8l-1.7,0.1c-0.1-0.4-0.2-0.7-0.5-0.9c-0.2-0.2-0.6-0.3-1.1-0.3c-0.5,0-0.9,0.1-1.1,0.3
				c-0.2,0.1-0.3,0.3-0.3,0.5c0,0.2,0.1,0.4,0.2,0.5c0.2,0.2,0.7,0.4,1.5,0.6c0.8,0.2,1.4,0.4,1.8,0.6c0.4,0.2,0.7,0.5,0.9,0.8
				c0.2,0.4,0.3,0.8,0.3,1.3c0,0.5-0.1,0.9-0.4,1.3c-0.3,0.4-0.6,0.7-1.1,0.9c-0.5,0.2-1.1,0.3-1.8,0.3c-1,0-1.8-0.2-2.4-0.7
				C97.4,136.9,97.1,136.2,97,135.2z"/>
			<path class="st3" d="M104.5,135.2l1.6-0.2c0.1,0.5,0.3,1,0.6,1.2c0.3,0.3,0.7,0.4,1.2,0.4c0.5,0,0.9-0.1,1.2-0.3
				c0.3-0.2,0.4-0.5,0.4-0.8c0-0.2-0.1-0.4-0.2-0.5c-0.1-0.1-0.3-0.3-0.6-0.4c-0.2-0.1-0.6-0.2-1.3-0.4c-0.9-0.2-1.5-0.5-1.9-0.8
				c-0.5-0.5-0.8-1-0.8-1.7c0-0.4,0.1-0.8,0.4-1.2c0.2-0.4,0.6-0.7,1-0.8c0.4-0.2,1-0.3,1.6-0.3c1,0,1.8,0.2,2.3,0.7
				c0.5,0.5,0.8,1.1,0.8,1.8l-1.7,0.1c-0.1-0.4-0.2-0.7-0.5-0.9c-0.2-0.2-0.6-0.3-1.1-0.3c-0.5,0-0.9,0.1-1.1,0.3
				c-0.2,0.1-0.3,0.3-0.3,0.5c0,0.2,0.1,0.4,0.2,0.5c0.2,0.2,0.7,0.4,1.5,0.6c0.8,0.2,1.4,0.4,1.8,0.6c0.4,0.2,0.7,0.5,0.9,0.8
				c0.2,0.4,0.3,0.8,0.3,1.3c0,0.5-0.1,0.9-0.4,1.3c-0.3,0.4-0.6,0.7-1.1,0.9c-0.5,0.2-1.1,0.3-1.8,0.3c-1,0-1.8-0.2-2.4-0.7
				C104.9,136.9,104.6,136.2,104.5,135.2z"/>
			<path class="st3" d="M117.6,137.9V131h-2.4v-1.4h6.5v1.4h-2.4v6.9H117.6z"/>
			<path class="st3" d="M122.4,137.9v-8.3h1.7v8.3H122.4z"/>
			<path class="st3" d="M125.2,137.9v-8.3h2.5l1.5,5.7l1.5-5.7h2.5v8.3h-1.5v-6.6l-1.6,6.6h-1.6l-1.6-6.6v6.6H125.2z"/>
			<path class="st3" d="M134,137.9v-8.3h6.1v1.4h-4.4v1.8h4.1v1.4h-4.1v2.3h4.6v1.4H134z"/>
		</g>
	</g>
	<g>
		<path class="st4" d="M270.1,197.9v-0.4h0.9v0.4H270.1z"/>
	</g>
	<polyline class="st1" points="218.6,142.7 218.6,215.7 271.7,215.7 271.7,142.7 218.6,142.7 	"/>
	<g>
		<g>
			<path class="st3" d="M94.6,249l1.6,0.5c-0.2,0.9-0.7,1.6-1.2,2c-0.6,0.4-1.3,0.7-2.2,0.7c-1.1,0-2-0.4-2.7-1.1
				c-0.7-0.8-1.1-1.8-1.1-3.1c0-1.4,0.4-2.5,1.1-3.2c0.7-0.8,1.6-1.2,2.8-1.2c1,0,1.8,0.3,2.5,0.9c0.4,0.4,0.7,0.9,0.8,1.5l-1.6,0.4
				c-0.1-0.4-0.3-0.8-0.6-1c-0.3-0.3-0.7-0.4-1.1-0.4c-0.6,0-1.1,0.2-1.5,0.7c-0.4,0.4-0.6,1.2-0.6,2.2c0,1.1,0.2,1.8,0.6,2.3
				c0.4,0.4,0.9,0.7,1.5,0.7c0.4,0,0.8-0.1,1.1-0.4C94.2,250,94.4,249.6,94.6,249z"/>
			<path class="st3" d="M97,249.3l1.6-0.2c0.1,0.5,0.3,1,0.6,1.2c0.3,0.3,0.7,0.4,1.2,0.4c0.5,0,0.9-0.1,1.2-0.3
				c0.3-0.2,0.4-0.5,0.4-0.8c0-0.2-0.1-0.4-0.2-0.5c-0.1-0.1-0.3-0.3-0.6-0.4c-0.2-0.1-0.6-0.2-1.3-0.4c-0.9-0.2-1.5-0.5-1.9-0.8
				c-0.5-0.5-0.8-1-0.8-1.7c0-0.4,0.1-0.8,0.4-1.2c0.2-0.4,0.6-0.7,1-0.8c0.4-0.2,1-0.3,1.6-0.3c1,0,1.8,0.2,2.3,0.7
				c0.5,0.5,0.8,1.1,0.8,1.8l-1.7,0.1c-0.1-0.4-0.2-0.7-0.5-0.9c-0.2-0.2-0.6-0.3-1.1-0.3c-0.5,0-0.9,0.1-1.1,0.3
				c-0.2,0.1-0.3,0.3-0.3,0.5c0,0.2,0.1,0.4,0.2,0.5c0.2,0.2,0.7,0.4,1.5,0.6c0.8,0.2,1.4,0.4,1.8,0.6c0.4,0.2,0.7,0.5,0.9,0.8
				c0.2,0.4,0.3,0.8,0.3,1.3c0,0.5-0.1,0.9-0.4,1.3c-0.3,0.4-0.6,0.7-1.1,0.9c-0.5,0.2-1.1,0.3-1.8,0.3c-1,0-1.8-0.2-2.4-0.7
				C97.4,251,97.1,250.2,97,249.3z"/>
			<path class="st3" d="M104.5,249.3l1.6-0.2c0.1,0.5,0.3,1,0.6,1.2c0.3,0.3,0.7,0.4,1.2,0.4c0.5,0,0.9-0.1,1.2-0.3
				c0.3-0.2,0.4-0.5,0.4-0.8c0-0.2-0.1-0.4-0.2-0.5c-0.1-0.1-0.3-0.3-0.6-0.4c-0.2-0.1-0.6-0.2-1.3-0.4c-0.9-0.2-1.5-0.5-1.9-0.8
				c-0.5-0.5-0.8-1-0.8-1.7c0-0.4,0.1-0.8,0.4-1.2c0.2-0.4,0.6-0.7,1-0.8c0.4-0.2,1-0.3,1.6-0.3c1,0,1.8,0.2,2.3,0.7
				c0.5,0.5,0.8,1.1,0.8,1.8l-1.7,0.1c-0.1-0.4-0.2-0.7-0.5-0.9c-0.2-0.2-0.6-0.3-1.1-0.3c-0.5,0-0.9,0.1-1.1,0.3
				c-0.2,0.1-0.3,0.3-0.3,0.5c0,0.2,0.1,0.4,0.2,0.5c0.2,0.2,0.7,0.4,1.5,0.6c0.8,0.2,1.4,0.4,1.8,0.6c0.4,0.2,0.7,0.5,0.9,0.8
				c0.2,0.4,0.3,0.8,0.3,1.3c0,0.5-0.1,0.9-0.4,1.3c-0.3,0.4-0.6,0.7-1.1,0.9c-0.5,0.2-1.1,0.3-1.8,0.3c-1,0-1.8-0.2-2.4-0.7
				C104.9,251,104.6,250.2,104.5,249.3z"/>
			<path class="st3" d="M111.9,249.3l1.6-0.2c0.1,0.5,0.3,1,0.6,1.2c0.3,0.3,0.7,0.4,1.2,0.4c0.5,0,0.9-0.1,1.2-0.3
				c0.3-0.2,0.4-0.5,0.4-0.8c0-0.2-0.1-0.4-0.2-0.5c-0.1-0.1-0.3-0.3-0.6-0.4c-0.2-0.1-0.6-0.2-1.3-0.4c-0.9-0.2-1.5-0.5-1.9-0.8
				c-0.5-0.5-0.8-1-0.8-1.7c0-0.4,0.1-0.8,0.4-1.2c0.2-0.4,0.6-0.7,1-0.8c0.4-0.2,1-0.3,1.6-0.3c1,0,1.8,0.2,2.3,0.7
				c0.5,0.5,0.8,1.1,0.8,1.8l-1.7,0.1c-0.1-0.4-0.2-0.7-0.5-0.9c-0.2-0.2-0.6-0.3-1.1-0.3c-0.5,0-0.9,0.1-1.1,0.3
				c-0.2,0.1-0.3,0.3-0.3,0.5c0,0.2,0.1,0.4,0.2,0.5c0.2,0.2,0.7,0.4,1.5,0.6c0.8,0.2,1.4,0.4,1.8,0.6c0.4,0.2,0.7,0.5,0.9,0.8
				c0.2,0.4,0.3,0.8,0.3,1.3c0,0.5-0.1,0.9-0.4,1.3c-0.3,0.4-0.6,0.7-1.1,0.9c-0.5,0.2-1.1,0.3-1.8,0.3c-1,0-1.8-0.2-2.4-0.7
				C112.4,251,112,250.2,111.9,249.3z"/>
			<path class="st3" d="M118.9,252.2l2-8.6h1.2l-2.1,8.6H118.9z"/>
			<path class="st3" d="M128.4,249l1.6,0.5c-0.2,0.9-0.7,1.6-1.2,2c-0.6,0.4-1.3,0.7-2.2,0.7c-1.1,0-2-0.4-2.7-1.1
				c-0.7-0.8-1.1-1.8-1.1-3.1c0-1.4,0.4-2.5,1.1-3.2c0.7-0.8,1.6-1.2,2.8-1.2c1,0,1.8,0.3,2.5,0.9c0.4,0.4,0.7,0.9,0.8,1.5l-1.6,0.4
				c-0.1-0.4-0.3-0.8-0.6-1c-0.3-0.3-0.7-0.4-1.1-0.4c-0.6,0-1.1,0.2-1.5,0.7c-0.4,0.4-0.6,1.2-0.6,2.2c0,1.1,0.2,1.8,0.6,2.3
				c0.4,0.4,0.9,0.7,1.5,0.7c0.4,0,0.8-0.1,1.1-0.4C128.1,250,128.3,249.6,128.4,249z"/>
			<path class="st3" d="M130.9,249.3l1.6-0.2c0.1,0.5,0.3,1,0.6,1.2c0.3,0.3,0.7,0.4,1.2,0.4c0.5,0,0.9-0.1,1.2-0.3
				c0.3-0.2,0.4-0.5,0.4-0.8c0-0.2-0.1-0.4-0.2-0.5c-0.1-0.1-0.3-0.3-0.6-0.4c-0.2-0.1-0.6-0.2-1.3-0.4c-0.9-0.2-1.5-0.5-1.9-0.8
				c-0.5-0.5-0.8-1-0.8-1.7c0-0.4,0.1-0.8,0.4-1.2c0.2-0.4,0.6-0.7,1-0.8c0.4-0.2,1-0.3,1.6-0.3c1,0,1.8,0.2,2.3,0.7
				c0.5,0.5,0.8,1.1,0.8,1.8l-1.7,0.1c-0.1-0.4-0.2-0.7-0.5-0.9c-0.2-0.2-0.6-0.3-1.1-0.3c-0.5,0-0.9,0.1-1.1,0.3
				c-0.2,0.1-0.3,0.3-0.3,0.5c0,0.2,0.1,0.4,0.2,0.5c0.2,0.2,0.7,0.4,1.5,0.6c0.8,0.2,1.4,0.4,1.8,0.6c0.4,0.2,0.7,0.5,0.9,0.8
				c0.2,0.4,0.3,0.8,0.3,1.3c0,0.5-0.1,0.9-0.4,1.3c-0.3,0.4-0.6,0.7-1.1,0.9c-0.5,0.2-1.1,0.3-1.8,0.3c-1,0-1.8-0.2-2.4-0.7
				C131.3,251,131,250.2,130.9,249.3z"/>
			<path class="st3" d="M138.3,249.3l1.6-0.2c0.1,0.5,0.3,1,0.6,1.2c0.3,0.3,0.7,0.4,1.2,0.4c0.5,0,0.9-0.1,1.2-0.3
				c0.3-0.2,0.4-0.5,0.4-0.8c0-0.2-0.1-0.4-0.2-0.5c-0.1-0.1-0.3-0.3-0.6-0.4c-0.2-0.1-0.6-0.2-1.3-0.4c-0.9-0.2-1.5-0.5-1.9-0.8
				c-0.5-0.5-0.8-1-0.8-1.7c0-0.4,0.1-0.8,0.4-1.2c0.2-0.4,0.6-0.7,1-0.8c0.4-0.2,1-0.3,1.6-0.3c1,0,1.8,0.2,2.3,0.7
				c0.5,0.5,0.8,1.1,0.8,1.8l-1.7,0.1c-0.1-0.4-0.2-0.7-0.5-0.9c-0.2-0.2-0.6-0.3-1.1-0.3c-0.5,0-0.9,0.1-1.1,0.3
				c-0.2,0.1-0.3,0.3-0.3,0.5c0,0.2,0.1,0.4,0.2,0.5c0.2,0.2,0.7,0.4,1.5,0.6c0.8,0.2,1.4,0.4,1.8,0.6c0.4,0.2,0.7,0.5,0.9,0.8
				c0.2,0.4,0.3,0.8,0.3,1.3c0,0.5-0.1,0.9-0.4,1.3c-0.3,0.4-0.6,0.7-1.1,0.9c-0.5,0.2-1.1,0.3-1.8,0.3c-1,0-1.8-0.2-2.4-0.7
				C138.8,251,138.4,250.2,138.3,249.3z"/>
			<path class="st3" d="M153.6,252h-1.8l-0.7-1.9h-3.3l-0.7,1.9h-1.8l3.2-8.3h1.8L153.6,252z M150.6,248.7l-1.1-3.1l-1.1,3.1H150.6z
				"/>
			<path class="st3" d="M158.9,252v-6.9h-2.4v-1.4h6.5v1.4h-2.4v6.9H158.9z"/>
			<path class="st3" d="M163.8,252v-8.3h1.7v8.3H163.8z"/>
			<path class="st3" d="M166.5,252v-8.3h2.5l1.5,5.7l1.5-5.7h2.5v8.3h-1.5v-6.6l-1.6,6.6h-1.6l-1.6-6.6v6.6H166.5z"/>
			<path class="st3" d="M175.3,252v-8.3h6.1v1.4H177v1.8h4.1v1.4H177v2.3h4.6v1.4H175.3z"/>
			<path class="st3" d="M183.3,247.5l-0.8-0.7c0.3-0.3,0.6-0.6,0.8-0.9c0.1-0.1,0.2-0.2,0.2-0.2c-0.1,0-0.4-0.1-0.8-0.2
				c-0.3-0.1-0.5-0.1-0.6-0.2l0.3-1c0.5,0.2,0.9,0.4,1.3,0.7c-0.1-0.6-0.1-1.1-0.1-1.5h1c0,0.3-0.1,0.8-0.2,1.5
				c0.1,0,0.2-0.1,0.5-0.2c0.3-0.2,0.6-0.3,0.9-0.4l0.3,1c-0.4,0.1-0.9,0.2-1.4,0.3l0.7,0.8c0.1,0.2,0.2,0.3,0.3,0.4l-0.9,0.6
				l-0.8-1.3C183.9,246.6,183.6,247.1,183.3,247.5z"/>
		</g>
	</g>
	<polyline class="st1" points="333.8,142.7 333.8,215.7 388.2,215.7 388.2,142.7 333.8,142.7 	"/>
	<line class="st5" x1="218.6" y1="129.2" x2="271.8" y2="129.2"/>
	<polyline class="st6" points="218.6,129.2 218.6,129.4 271.8,129.4 271.8,129.2 218.6,129.2 	"/>
	<line class="st5" x1="276.1" y1="129.2" x2="330.5" y2="129.2"/>
	<polyline class="st6" points="276.1,129.2 276.1,129.4 330.5,129.4 330.5,129.2 276.1,129.2 	"/>
	<line class="st5" x1="334" y1="129.2" x2="387.9" y2="129.2"/>
	<polyline class="st6" points="334,129.2 334,129.4 387.9,129.4 387.9,129.2 334,129.2 	"/>
	<line class="st5" x1="218.6" y1="215.9" x2="271.8" y2="215.9"/>
	<polyline class="st6" points="218.6,215.9 218.6,216.1 271.8,216.1 271.8,215.9 218.6,215.9 	"/>
	<line class="st5" x1="276.1" y1="215.9" x2="330.5" y2="215.9"/>
	<polyline class="st6" points="276.1,215.9 276.1,216.1 330.5,216.1 330.5,215.9 276.1,215.9 	"/>
	<line class="st5" x1="334" y1="215.9" x2="387.9" y2="215.9"/>
	<polyline class="st6" points="334,215.9 334,216.1 387.9,216.1 387.9,215.9 334,215.9 	"/>
	<polyline class="st7" points="84.6,124.9 84.6,224.6 85,224.6 85,124.9 84.6,124.9 	"/>
	<polyline class="st7" points="84.6,236.8 84.6,291.4 85,291.4 85,236.8 84.6,236.8 	"/>
	<polyline class="st7" points="420.2,125.3 420.2,224.6 420.5,224.6 420.5,125.3 420.2,125.3 	"/>
	<line class="st5" x1="218.4" y1="129.2" x2="218.4" y2="216.1"/>
	<polyline class="st6" points="218.4,129.2 218.4,216.1 218.6,216.1 218.6,129.2 218.4,129.2 	"/>
	<line class="st5" x1="271.6" y1="129.4" x2="271.6" y2="216.1"/>
	<polyline class="st6" points="271.6,129.4 271.6,216.1 271.8,216.1 271.8,129.4 271.6,129.4 	"/>
	<line class="st5" x1="275.9" y1="129.2" x2="275.9" y2="216.1"/>
	<polyline class="st6" points="275.9,129.2 275.9,216.1 276.1,216.1 276.1,129.2 275.9,129.2 	"/>
	<line class="st5" x1="330.3" y1="129.4" x2="330.3" y2="216.1"/>
	<polyline class="st6" points="330.3,129.4 330.3,216.1 330.5,216.1 330.5,129.4 330.3,129.4 	"/>
	<line class="st5" x1="333.8" y1="129.2" x2="333.8" y2="216.1"/>
	<polyline class="st6" points="333.8,129.2 333.8,216.1 334,216.1 334,129.2 333.8,129.2 	"/>
	<line class="st5" x1="387.7" y1="129.4" x2="387.7" y2="216.1"/>
	<polyline class="st6" points="387.7,129.4 387.7,216.1 387.9,216.1 387.9,129.4 387.7,129.4 	"/>
	<line class="st5" x1="392.8" y1="129.2" x2="392.8" y2="216.1"/>
	<polyline class="st6" points="392.8,129.2 392.8,216.1 392.9,216.1 392.9,129.2 392.8,129.2 	"/>
	<line class="st5" x1="414.4" y1="129.4" x2="414.4" y2="216.1"/>
	<polyline class="st6" points="414.4,129.4 414.4,216.1 414.6,216.1 414.6,129.4 414.4,129.4 	"/>
	<polyline class="st7" points="374.7,237.2 374.7,291.4 375.1,291.4 375.1,237.2 374.7,237.2 	"/>
	<polyline class="st7" points="85,124.9 85,125.3 420.5,125.3 420.5,124.9 85,124.9 	"/>
	<line class="st5" x1="392.9" y1="129.2" x2="414.6" y2="129.2"/>
	<polyline class="st6" points="392.9,129.2 392.9,129.4 414.6,129.4 414.6,129.2 392.9,129.2 	"/>
	<line class="st5" x1="392.9" y1="215.9" x2="414.6" y2="215.9"/>
	<polyline class="st6" points="392.9,215.9 392.9,216.1 414.6,216.1 414.6,215.9 392.9,215.9 	"/>
	<polyline class="st7" points="85,224.2 85,224.6 420.5,224.6 420.5,224.2 85,224.2 	"/>
	<polyline class="st7" points="85,236.8 85,237.2 375.1,237.2 375.1,236.8 85,236.8 	"/>
	<polyline class="st7" points="85,291 85,291.4 375.1,291.4 375.1,291 85,291 	"/>
	<g>
		<line class="st8" x1="85" y1="142.8" x2="211.7" y2="142.8"/>
		<line class="st8" x1="85.1" y1="149" x2="211.9" y2="149"/>
		<line class="st8" x1="85.1" y1="155.2" x2="211.9" y2="155.2"/>
		<line class="st8" x1="85.1" y1="161.4" x2="211.9" y2="161.4"/>
		<line class="st8" x1="85.1" y1="167.5" x2="211.9" y2="167.5"/>
		<line class="st8" x1="85.1" y1="173.7" x2="211.9" y2="173.7"/>
		<line class="st8" x1="85.1" y1="179.9" x2="211.9" y2="179.9"/>
		<line class="st8" x1="85.1" y1="186.1" x2="211.9" y2="186.1"/>
		<line class="st8" x1="85.1" y1="192.3" x2="211.9" y2="192.3"/>
		<line class="st8" x1="85.1" y1="198.4" x2="211.9" y2="198.4"/>
		<line class="st8" x1="85.1" y1="204.6" x2="211.9" y2="204.6"/>
		<line class="st8" x1="85.1" y1="210.8" x2="211.9" y2="210.8"/>
	</g>
	<g>
		<line class="st8" x1="218.6" y1="142.8" x2="271.7" y2="142.8"/>
		<line class="st8" x1="218.7" y1="149" x2="271.8" y2="149"/>
		<line class="st8" x1="218.7" y1="155.2" x2="271.8" y2="155.2"/>
		<line class="st8" x1="218.7" y1="161.4" x2="271.8" y2="161.4"/>
		<line class="st8" x1="218.7" y1="167.5" x2="271.8" y2="167.5"/>
		<line class="st8" x1="218.7" y1="173.7" x2="271.8" y2="173.7"/>
		<line class="st8" x1="218.7" y1="179.9" x2="271.8" y2="179.9"/>
		<line class="st8" x1="218.7" y1="186.1" x2="271.8" y2="186.1"/>
		<line class="st8" x1="218.7" y1="192.3" x2="271.8" y2="192.3"/>
		<line class="st8" x1="218.7" y1="198.4" x2="271.8" y2="198.4"/>
		<line class="st8" x1="218.7" y1="204.6" x2="271.8" y2="204.6"/>
		<line class="st8" x1="218.7" y1="210.8" x2="271.8" y2="210.8"/>
	</g>
	<g>
		<line class="st8" x1="276.7" y1="142.8" x2="329.8" y2="142.8"/>
		<line class="st8" x1="276.8" y1="149" x2="329.8" y2="149"/>
		<line class="st8" x1="276.8" y1="155.2" x2="329.8" y2="155.2"/>
		<line class="st8" x1="276.8" y1="161.4" x2="329.8" y2="161.4"/>
		<line class="st8" x1="276.8" y1="167.5" x2="329.8" y2="167.5"/>
		<line class="st8" x1="276.8" y1="173.7" x2="329.8" y2="173.7"/>
		<line class="st8" x1="276.8" y1="179.9" x2="329.8" y2="179.9"/>
		<line class="st8" x1="276.8" y1="186.1" x2="329.8" y2="186.1"/>
		<line class="st8" x1="276.8" y1="192.3" x2="329.8" y2="192.3"/>
		<line class="st8" x1="276.8" y1="198.4" x2="329.8" y2="198.4"/>
		<line class="st8" x1="276.8" y1="204.6" x2="329.8" y2="204.6"/>
		<line class="st8" x1="276.8" y1="210.8" x2="329.8" y2="210.8"/>
	</g>
	<g>
		<line class="st8" x1="334.7" y1="142.8" x2="387.8" y2="142.8"/>
		<line class="st8" x1="334.8" y1="149" x2="387.9" y2="149"/>
		<line class="st8" x1="334.8" y1="155.2" x2="387.9" y2="155.2"/>
		<line class="st8" x1="334.8" y1="161.4" x2="387.9" y2="161.4"/>
		<line class="st8" x1="334.8" y1="167.5" x2="387.9" y2="167.5"/>
		<line class="st8" x1="334.8" y1="173.7" x2="387.9" y2="173.7"/>
		<line class="st8" x1="334.8" y1="179.9" x2="387.9" y2="179.9"/>
		<line class="st8" x1="334.8" y1="186.1" x2="387.9" y2="186.1"/>
		<line class="st8" x1="334.8" y1="192.3" x2="387.9" y2="192.3"/>
		<line class="st8" x1="334.8" y1="198.4" x2="387.9" y2="198.4"/>
		<line class="st8" x1="334.8" y1="204.6" x2="387.9" y2="204.6"/>
		<line class="st8" x1="334.8" y1="210.8" x2="387.9" y2="210.8"/>
	</g>
	<g>
		<line class="st8" x1="392.8" y1="142.8" x2="414.5" y2="142.8"/>
		<line class="st8" x1="392.9" y1="149" x2="414.6" y2="149"/>
		<line class="st8" x1="392.9" y1="155.2" x2="414.6" y2="155.2"/>
		<line class="st8" x1="392.9" y1="161.4" x2="414.6" y2="161.4"/>
		<line class="st8" x1="392.9" y1="167.5" x2="414.6" y2="167.5"/>
		<line class="st8" x1="392.9" y1="173.7" x2="414.6" y2="173.7"/>
		<line class="st8" x1="392.9" y1="179.9" x2="414.6" y2="179.9"/>
		<line class="st8" x1="392.9" y1="186.1" x2="414.6" y2="186.1"/>
		<line class="st8" x1="392.9" y1="192.3" x2="414.6" y2="192.3"/>
		<line class="st8" x1="392.9" y1="198.4" x2="414.6" y2="198.4"/>
		<line class="st8" x1="392.9" y1="204.6" x2="414.6" y2="204.6"/>
		<line class="st8" x1="392.9" y1="210.8" x2="414.6" y2="210.8"/>
	</g>
	<g>
		<line class="st8" x1="85" y1="264.8" x2="374.4" y2="264.8"/>
		<line class="st8" x1="85.4" y1="271" x2="374.7" y2="271"/>
		<line class="st8" x1="85.4" y1="277.1" x2="374.7" y2="277.1"/>
		<line class="st8" x1="85.4" y1="283.3" x2="374.7" y2="283.3"/>
	</g>
</g>
<g>
	<g class="st9">
		
			<image style="overflow:visible;" width="1851" height="1294" xlink:href="A093CB25.png"  transform="matrix(0.24 0 0 0.24 432.8674 45.0067)">
		</image>
	</g>
	<rect x="469.1" y="79.8" class="st10" width="370.1" height="239.3"/>
	<g>
		<g>
			<path class="st2" d="M628.4,105.6l1.6,0.5c-0.2,0.9-0.7,1.6-1.2,2c-0.6,0.4-1.3,0.7-2.2,0.7c-1.1,0-2-0.4-2.7-1.1
				c-0.7-0.8-1.1-1.8-1.1-3.1c0-1.4,0.4-2.5,1.1-3.2c0.7-0.8,1.6-1.2,2.8-1.2c1,0,1.8,0.3,2.5,0.9c0.4,0.4,0.7,0.9,0.8,1.5l-1.6,0.4
				c-0.1-0.4-0.3-0.8-0.6-1c-0.3-0.3-0.7-0.4-1.1-0.4c-0.6,0-1.1,0.2-1.5,0.7c-0.4,0.4-0.6,1.2-0.6,2.2c0,1.1,0.2,1.8,0.6,2.3
				c0.4,0.4,0.9,0.7,1.5,0.7c0.4,0,0.8-0.1,1.1-0.4C628,106.6,628.3,106.2,628.4,105.6z"/>
			<path class="st2" d="M631.2,108.6v-8.3h1.7v6.9h4.1v1.4H631.2z"/>
			<path class="st2" d="M638.1,108.6v-8.3h1.7v8.3H638.1z"/>
			<path class="st2" d="M641,108.6v-8.3h6.1v1.4h-4.4v1.8h4.1v1.4h-4.1v2.3h4.6v1.4H641z"/>
			<path class="st2" d="M648.5,108.6v-8.3h1.6l3.4,5.6v-5.6h1.5v8.3h-1.7l-3.3-5.4v5.4H648.5z"/>
			<path class="st2" d="M658.4,108.6v-6.9h-2.4v-1.4h6.5v1.4H660v6.9H658.4z"/>
			<path class="st2" d="M668.6,108.6l-2-8.3h1.7l1.2,5.7l1.5-5.7h2l1.4,5.8l1.3-5.8h1.7l-2,8.3h-1.8l-1.6-6.2l-1.6,6.2H668.6z"/>
			<path class="st2" d="M678.3,108.6v-8.3h1.7v8.3H678.3z"/>
			<path class="st2" d="M681.3,108.6v-8.3h2.7c1,0,1.7,0,2,0.1c0.5,0.1,0.9,0.4,1.2,0.8c0.3,0.4,0.5,1,0.5,1.6
				c0,0.5-0.1,0.9-0.3,1.3c-0.2,0.3-0.4,0.6-0.7,0.8c-0.3,0.2-0.6,0.3-0.9,0.4c-0.4,0.1-1,0.1-1.7,0.1h-1.1v3.1H681.3z M682.9,101.7
				v2.4h0.9c0.7,0,1.1,0,1.3-0.1c0.2-0.1,0.4-0.2,0.5-0.4c0.1-0.2,0.2-0.4,0.2-0.6c0-0.3-0.1-0.6-0.3-0.8c-0.2-0.2-0.4-0.3-0.7-0.4
				c-0.2,0-0.6-0.1-1.2-0.1H682.9z"/>
			<path class="st2" d="M589.3,124.6v-9.5h7v1.6h-5.1v2.1h4.7v1.6h-4.7v2.6h5.3v1.6H589.3z"/>
			<path class="st2" d="M597.1,124.6l3.2-5l-2.9-4.6h2.2l1.9,3.1l1.8-3.1h2.2l-2.9,4.6l3.2,4.9h-2.3l-2.1-3.3l-2.1,3.3H597.1z"/>
			<path class="st2" d="M606.8,124.6v-9.5h3c1.2,0,1.9,0,2.3,0.1c0.5,0.1,1,0.5,1.4,0.9c0.4,0.5,0.5,1.1,0.5,1.9
				c0,0.6-0.1,1.1-0.3,1.5c-0.2,0.4-0.5,0.7-0.8,0.9c-0.3,0.2-0.7,0.4-1,0.5c-0.5,0.1-1.1,0.1-2,0.1h-1.2v3.6H606.8z M608.7,116.7
				v2.7h1c0.7,0,1.2,0,1.5-0.1c0.3-0.1,0.5-0.3,0.6-0.5c0.1-0.2,0.2-0.5,0.2-0.7c0-0.3-0.1-0.6-0.3-0.9c-0.2-0.2-0.5-0.4-0.8-0.4
				c-0.2,0-0.7-0.1-1.4-0.1H608.7z"/>
			<path class="st2" d="M615.6,124.6v-9.5h7v1.6h-5.1v2.1h4.7v1.6h-4.7v2.6h5.3v1.6H615.6z"/>
			<path class="st2" d="M624.4,124.6v-9.5h1.8l3.9,6.4v-6.4h1.8v9.5H630l-3.8-6.2v6.2H624.4z"/>
			<path class="st2" d="M633.4,121.5l1.8-0.2c0.1,0.6,0.3,1.1,0.7,1.4c0.3,0.3,0.8,0.4,1.4,0.4c0.6,0,1.1-0.1,1.4-0.4
				c0.3-0.3,0.5-0.6,0.5-0.9c0-0.2-0.1-0.4-0.2-0.6c-0.1-0.2-0.4-0.3-0.7-0.4c-0.2-0.1-0.7-0.2-1.5-0.4c-1-0.3-1.7-0.6-2.1-0.9
				c-0.6-0.5-0.9-1.2-0.9-1.9c0-0.5,0.1-0.9,0.4-1.4c0.3-0.4,0.7-0.7,1.2-1c0.5-0.2,1.1-0.3,1.9-0.3c1.2,0,2.1,0.3,2.7,0.8
				c0.6,0.5,0.9,1.2,0.9,2.1l-1.9,0.1c-0.1-0.5-0.3-0.8-0.5-1.1c-0.3-0.2-0.7-0.3-1.2-0.3c-0.6,0-1,0.1-1.3,0.3
				c-0.2,0.1-0.3,0.3-0.3,0.6c0,0.2,0.1,0.4,0.3,0.6c0.2,0.2,0.8,0.4,1.7,0.6c0.9,0.2,1.6,0.4,2.1,0.7c0.4,0.2,0.8,0.6,1,1
				c0.3,0.4,0.4,0.9,0.4,1.5c0,0.5-0.2,1.1-0.4,1.5c-0.3,0.5-0.7,0.8-1.3,1.1c-0.5,0.2-1.2,0.3-2,0.3c-1.2,0-2.1-0.3-2.7-0.8
				C633.9,123.4,633.5,122.6,633.4,121.5z"/>
			<path class="st2" d="M642.7,124.6v-9.5h7v1.6h-5.1v2.1h4.7v1.6h-4.7v2.6h5.3v1.6H642.7z"/>
			<path class="st2" d="M654.6,121.5l1.8-0.2c0.1,0.6,0.3,1.1,0.7,1.4c0.3,0.3,0.8,0.4,1.4,0.4c0.6,0,1.1-0.1,1.4-0.4
				c0.3-0.3,0.5-0.6,0.5-0.9c0-0.2-0.1-0.4-0.2-0.6c-0.1-0.2-0.4-0.3-0.7-0.4c-0.2-0.1-0.7-0.2-1.5-0.4c-1-0.3-1.7-0.6-2.1-0.9
				c-0.6-0.5-0.9-1.2-0.9-1.9c0-0.5,0.1-0.9,0.4-1.4c0.3-0.4,0.7-0.7,1.2-1c0.5-0.2,1.1-0.3,1.9-0.3c1.2,0,2.1,0.3,2.7,0.8
				c0.6,0.5,0.9,1.2,0.9,2.1l-1.9,0.1c-0.1-0.5-0.3-0.8-0.5-1.1c-0.3-0.2-0.7-0.3-1.2-0.3c-0.6,0-1,0.1-1.3,0.3
				c-0.2,0.1-0.3,0.3-0.3,0.6c0,0.2,0.1,0.4,0.3,0.6c0.2,0.2,0.8,0.4,1.7,0.6c0.9,0.2,1.6,0.4,2.1,0.7c0.4,0.2,0.8,0.6,1,1
				c0.3,0.4,0.4,0.9,0.4,1.5c0,0.5-0.2,1.1-0.4,1.5c-0.3,0.5-0.7,0.8-1.3,1.1c-0.5,0.2-1.2,0.3-2,0.3c-1.2,0-2.1-0.3-2.7-0.8
				C655.1,123.4,654.7,122.6,654.6,121.5z"/>
			<path class="st2" d="M663.8,115.1h1.9v5.2c0,0.8,0,1.4,0.1,1.6c0.1,0.4,0.3,0.7,0.6,0.9c0.3,0.2,0.7,0.4,1.3,0.4
				c0.5,0,0.9-0.1,1.2-0.3c0.3-0.2,0.4-0.5,0.5-0.8c0.1-0.3,0.1-0.9,0.1-1.6v-5.3h1.9v5c0,1.1-0.1,2-0.2,2.4
				c-0.1,0.5-0.3,0.9-0.6,1.2c-0.3,0.3-0.6,0.6-1.1,0.8c-0.5,0.2-1.1,0.3-1.8,0.3c-0.9,0-1.6-0.1-2-0.3c-0.5-0.2-0.8-0.5-1.1-0.8
				c-0.3-0.3-0.4-0.7-0.5-1.1c-0.1-0.5-0.2-1.4-0.2-2.4V115.1z"/>
			<path class="st2" d="M673.3,124.6v-9.5h2.8l1.7,6.5l1.7-6.5h2.9v9.5h-1.8v-7.5l-1.9,7.5h-1.8l-1.9-7.5v7.5H673.3z"/>
			<path class="st2" d="M684.3,124.6v-9.5h2.8l1.7,6.5l1.7-6.5h2.9v9.5h-1.8v-7.5l-1.9,7.5h-1.8l-1.9-7.5v7.5H684.3z"/>
			<path class="st2" d="M703.7,124.6h-2.1l-0.8-2.2h-3.8l-0.8,2.2h-2l3.7-9.5h2L703.7,124.6z M700.2,120.8l-1.3-3.5l-1.3,3.5H700.2z
				"/>
			<path class="st2" d="M704.8,124.6v-9.5h4c1,0,1.7,0.1,2.2,0.3c0.5,0.2,0.8,0.5,1.1,0.9c0.3,0.4,0.4,0.9,0.4,1.5
				c0,0.7-0.2,1.3-0.6,1.8c-0.4,0.5-1,0.8-1.9,0.9c0.4,0.2,0.8,0.5,1,0.8c0.3,0.3,0.6,0.8,1.1,1.5l1.1,1.9h-2.3l-1.4-2.1
				c-0.5-0.7-0.8-1.2-1-1.4c-0.2-0.2-0.4-0.3-0.6-0.4s-0.5-0.1-1-0.1h-0.4v4H704.8z M706.7,119.1h1.4c0.9,0,1.5,0,1.7-0.1
				c0.2-0.1,0.4-0.2,0.5-0.4c0.1-0.2,0.2-0.4,0.2-0.7c0-0.3-0.1-0.6-0.3-0.8c-0.2-0.2-0.4-0.3-0.7-0.4c-0.2,0-0.6,0-1.4,0h-1.5
				V119.1z"/>
			<path class="st2" d="M716.7,124.6v-4l-3.4-5.5h2.2l2.2,3.8l2.2-3.8h2.2l-3.5,5.5v4H716.7z"/>
		</g>
	</g>
	<polyline class="st1" points="483.1,172.1 483.1,191.3 814.1,191.3 814.1,172.1 483.1,172.1 	"/>
	<polyline class="st1" points="483.1,226.2 483.1,309.5 814.1,309.5 814.1,226.2 483.1,226.2 	"/>
	<g>
		<path class="st4" d="M484.1,170.4v-1h0.9v1H484.1z"/>
	</g>
	<g>
		<g>
			<path class="st3" d="M546.3,218.4V210h2.7c1,0,1.7,0,2,0.1c0.5,0.1,0.9,0.4,1.2,0.8c0.3,0.4,0.5,1,0.5,1.6c0,0.5-0.1,0.9-0.3,1.3
				c-0.2,0.3-0.4,0.6-0.7,0.8c-0.3,0.2-0.6,0.3-0.9,0.4c-0.4,0.1-1,0.1-1.7,0.1h-1.1v3.1H546.3z M547.9,211.4v2.4h0.9
				c0.7,0,1.1,0,1.3-0.1c0.2-0.1,0.4-0.2,0.5-0.4c0.1-0.2,0.2-0.4,0.2-0.6c0-0.3-0.1-0.6-0.3-0.8c-0.2-0.2-0.4-0.3-0.7-0.4
				c-0.2,0-0.6-0.1-1.2-0.1H547.9z"/>
			<path class="st3" d="M553.7,218.4V210h3.5c0.9,0,1.5,0.1,1.9,0.2c0.4,0.1,0.7,0.4,1,0.8c0.2,0.4,0.4,0.8,0.4,1.3
				c0,0.6-0.2,1.1-0.5,1.6c-0.4,0.4-0.9,0.7-1.6,0.8c0.4,0.2,0.7,0.4,0.9,0.7c0.2,0.3,0.5,0.7,0.9,1.4l1,1.6h-2l-1.2-1.8
				c-0.4-0.6-0.7-1.1-0.9-1.2c-0.2-0.2-0.3-0.3-0.5-0.3s-0.5-0.1-0.8-0.1h-0.3v3.5H553.7z M555.4,213.6h1.2c0.8,0,1.3,0,1.5-0.1
				c0.2-0.1,0.4-0.2,0.5-0.4c0.1-0.2,0.2-0.4,0.2-0.6c0-0.3-0.1-0.5-0.2-0.7c-0.1-0.2-0.4-0.3-0.6-0.3c-0.1,0-0.5,0-1.2,0h-1.3
				V213.6z"/>
			<path class="st3" d="M561.5,214.3c0-0.8,0.1-1.6,0.4-2.1c0.2-0.4,0.4-0.8,0.8-1.1c0.3-0.3,0.7-0.6,1.1-0.8
				c0.5-0.2,1.1-0.3,1.8-0.3c1.2,0,2.2,0.4,2.9,1.1c0.7,0.8,1.1,1.8,1.1,3.2c0,1.3-0.4,2.4-1.1,3.2c-0.7,0.8-1.7,1.1-2.9,1.1
				c-1.2,0-2.2-0.4-2.9-1.1C561.9,216.6,561.5,215.6,561.5,214.3z M563.2,214.2c0,0.9,0.2,1.7,0.6,2.1c0.4,0.5,1,0.7,1.6,0.7
				c0.7,0,1.2-0.2,1.6-0.7c0.4-0.5,0.6-1.2,0.6-2.2c0-1-0.2-1.7-0.6-2.1c-0.4-0.5-1-0.7-1.6-0.7s-1.2,0.2-1.7,0.7
				C563.4,212.5,563.2,213.2,563.2,214.2z"/>
			<path class="st3" d="M573.6,210h1.7v5.3c0,0.7-0.1,1.2-0.2,1.6c-0.2,0.5-0.5,0.9-0.9,1.2c-0.4,0.3-1,0.4-1.7,0.4
				c-0.8,0-1.4-0.2-1.9-0.7c-0.4-0.5-0.7-1.1-0.7-2l1.6-0.2c0,0.5,0.1,0.8,0.2,1c0.2,0.3,0.5,0.4,0.8,0.4c0.4,0,0.6-0.1,0.8-0.3
				c0.2-0.2,0.2-0.7,0.2-1.3V210z"/>
			<path class="st3" d="M576.8,218.4V210h6.1v1.4h-4.4v1.8h4.1v1.4h-4.1v2.3h4.6v1.4H576.8z"/>
			<path class="st3" d="M589.5,215.3l1.6,0.5c-0.2,0.9-0.7,1.6-1.2,2c-0.6,0.4-1.3,0.7-2.2,0.7c-1.1,0-2-0.4-2.7-1.1
				c-0.7-0.8-1.1-1.8-1.1-3.1c0-1.4,0.4-2.5,1.1-3.2c0.7-0.8,1.6-1.2,2.8-1.2c1,0,1.8,0.3,2.5,0.9c0.4,0.4,0.7,0.9,0.8,1.5l-1.6,0.4
				c-0.1-0.4-0.3-0.8-0.6-1c-0.3-0.3-0.7-0.4-1.1-0.4c-0.6,0-1.1,0.2-1.5,0.7c-0.4,0.4-0.6,1.2-0.6,2.2c0,1.1,0.2,1.8,0.6,2.3
				s0.9,0.7,1.5,0.7c0.4,0,0.8-0.1,1.1-0.4C589.1,216.4,589.3,215.9,589.5,215.3z"/>
			<path class="st3" d="M594.2,218.4v-6.9h-2.4V210h6.5v1.4h-2.4v6.9H594.2z"/>
			<path class="st3" d="M604.4,218.4v-6.9h-2.4V210h6.5v1.4H606v6.9H604.4z"/>
			<path class="st3" d="M608.9,214.3c0-0.8,0.1-1.6,0.4-2.1c0.2-0.4,0.4-0.8,0.8-1.1c0.3-0.3,0.7-0.6,1.1-0.8
				c0.5-0.2,1.1-0.3,1.8-0.3c1.2,0,2.2,0.4,2.9,1.1c0.7,0.8,1.1,1.8,1.1,3.2c0,1.3-0.4,2.4-1.1,3.2c-0.7,0.8-1.7,1.1-2.9,1.1
				c-1.2,0-2.2-0.4-2.9-1.1C609.3,216.6,608.9,215.6,608.9,214.3z M610.6,214.2c0,0.9,0.2,1.7,0.6,2.1c0.4,0.5,1,0.7,1.6,0.7
				c0.7,0,1.2-0.2,1.6-0.7c0.4-0.5,0.6-1.2,0.6-2.2c0-1-0.2-1.7-0.6-2.1c-0.4-0.5-1-0.7-1.6-0.7c-0.7,0-1.2,0.2-1.7,0.7
				C610.9,212.5,610.6,213.2,610.6,214.2z"/>
			<path class="st3" d="M621.4,210h3c0.7,0,1.2,0.1,1.6,0.2c0.5,0.1,0.9,0.4,1.2,0.8c0.3,0.4,0.6,0.8,0.8,1.4c0.2,0.5,0.3,1.2,0.3,2
				c0,0.7-0.1,1.3-0.3,1.8c-0.2,0.6-0.5,1.1-0.9,1.5c-0.3,0.3-0.7,0.5-1.2,0.7c-0.4,0.1-0.9,0.2-1.5,0.2h-3.1V210z M623.1,211.4v5.5
				h1.2c0.5,0,0.8,0,1-0.1c0.3-0.1,0.5-0.2,0.7-0.3c0.2-0.2,0.3-0.4,0.4-0.8c0.1-0.4,0.2-0.9,0.2-1.5s-0.1-1.1-0.2-1.5
				c-0.1-0.3-0.3-0.6-0.5-0.8c-0.2-0.2-0.5-0.3-0.8-0.4c-0.2-0.1-0.7-0.1-1.4-0.1H623.1z"/>
			<path class="st3" d="M637,218.4h-1.8l-0.7-1.9h-3.3l-0.7,1.9h-1.8l3.2-8.3h1.8L637,218.4z M633.9,215.1l-1.1-3.1l-1.1,3.1H633.9z
				"/>
			<path class="st3" d="M638.9,218.4v-6.9h-2.4V210h6.5v1.4h-2.4v6.9H638.9z"/>
			<path class="st3" d="M643.8,218.4V210h6.1v1.4h-4.4v1.8h4.1v1.4h-4.1v2.3h4.6v1.4H643.8z"/>
			<path class="st3" d="M654.6,218.4V210h6.1v1.4h-4.4v1.8h4.1v1.4h-4.1v2.3h4.6v1.4H654.6z"/>
			<path class="st3" d="M661.3,218.4l2.8-4.4l-2.6-4h1.9l1.7,2.7l1.6-2.7h1.9l-2.6,4.1l2.8,4.3h-2l-1.8-2.9l-1.8,2.9H661.3z"/>
			<path class="st3" d="M669.5,218.4V210h2.7c1,0,1.7,0,2,0.1c0.5,0.1,0.9,0.4,1.2,0.8c0.3,0.4,0.5,1,0.5,1.6c0,0.5-0.1,0.9-0.3,1.3
				c-0.2,0.3-0.4,0.6-0.7,0.8c-0.3,0.2-0.6,0.3-0.9,0.4c-0.4,0.1-1,0.1-1.7,0.1h-1.1v3.1H669.5z M671.2,211.4v2.4h0.9
				c0.7,0,1.1,0,1.3-0.1c0.2-0.1,0.4-0.2,0.5-0.4c0.1-0.2,0.2-0.4,0.2-0.6c0-0.3-0.1-0.6-0.3-0.8c-0.2-0.2-0.4-0.3-0.7-0.4
				c-0.2,0-0.6-0.1-1.2-0.1H671.2z"/>
			<path class="st3" d="M677,218.4V210h6.1v1.4h-4.4v1.8h4.1v1.4h-4.1v2.3h4.6v1.4H677z"/>
			<path class="st3" d="M684.5,218.4V210h1.6l3.4,5.6V210h1.5v8.3h-1.7l-3.3-5.4v5.4H684.5z"/>
			<path class="st3" d="M692.2,215.7l1.6-0.2c0.1,0.6,0.3,1,0.6,1.2c0.3,0.3,0.7,0.4,1.2,0.4c0.5,0,0.9-0.1,1.2-0.3
				c0.3-0.2,0.4-0.5,0.4-0.8c0-0.2-0.1-0.4-0.2-0.5s-0.3-0.3-0.6-0.4c-0.2-0.1-0.6-0.2-1.3-0.4c-0.9-0.2-1.5-0.5-1.9-0.8
				c-0.5-0.5-0.8-1-0.8-1.7c0-0.4,0.1-0.8,0.4-1.2c0.2-0.4,0.6-0.7,1-0.8c0.4-0.2,1-0.3,1.6-0.3c1,0,1.8,0.2,2.3,0.7
				c0.5,0.5,0.8,1.1,0.8,1.8l-1.7,0.1c-0.1-0.4-0.2-0.7-0.5-0.9c-0.2-0.2-0.6-0.3-1.1-0.3c-0.5,0-0.9,0.1-1.1,0.3
				c-0.2,0.1-0.3,0.3-0.3,0.5c0,0.2,0.1,0.4,0.2,0.5c0.2,0.2,0.7,0.4,1.5,0.6c0.8,0.2,1.4,0.4,1.8,0.6c0.4,0.2,0.7,0.5,0.9,0.8
				c0.2,0.4,0.3,0.8,0.3,1.3c0,0.5-0.1,0.9-0.4,1.3c-0.3,0.4-0.6,0.7-1.1,0.9s-1.1,0.3-1.8,0.3c-1,0-1.8-0.2-2.4-0.7
				S692.3,216.6,692.2,215.7z"/>
			<path class="st3" d="M700,218.4V210h6.1v1.4h-4.4v1.8h4.1v1.4h-4.1v2.3h4.6v1.4H700z"/>
			<path class="st3" d="M710.5,215.7l1.6-0.2c0.1,0.6,0.3,1,0.6,1.2c0.3,0.3,0.7,0.4,1.2,0.4c0.5,0,0.9-0.1,1.2-0.3
				c0.3-0.2,0.4-0.5,0.4-0.8c0-0.2-0.1-0.4-0.2-0.5s-0.3-0.3-0.6-0.4c-0.2-0.1-0.6-0.2-1.3-0.4c-0.9-0.2-1.5-0.5-1.9-0.8
				c-0.5-0.5-0.8-1-0.8-1.7c0-0.4,0.1-0.8,0.4-1.2s0.6-0.7,1-0.8c0.4-0.2,1-0.3,1.6-0.3c1,0,1.8,0.2,2.3,0.7
				c0.5,0.5,0.8,1.1,0.8,1.8l-1.7,0.1c-0.1-0.4-0.2-0.7-0.5-0.9c-0.2-0.2-0.6-0.3-1.1-0.3c-0.5,0-0.9,0.1-1.1,0.3
				c-0.2,0.1-0.3,0.3-0.3,0.5c0,0.2,0.1,0.4,0.2,0.5c0.2,0.2,0.7,0.4,1.5,0.6c0.8,0.2,1.4,0.4,1.8,0.6c0.4,0.2,0.7,0.5,0.9,0.8
				c0.2,0.4,0.3,0.8,0.3,1.3c0,0.5-0.1,0.9-0.4,1.3c-0.3,0.4-0.6,0.7-1.1,0.9s-1.1,0.3-1.8,0.3c-1,0-1.8-0.2-2.4-0.7
				C710.9,217.3,710.6,216.6,710.5,215.7z"/>
			<path class="st3" d="M718.3,210h1.7v4.5c0,0.7,0,1.2,0.1,1.4c0.1,0.3,0.2,0.6,0.5,0.8s0.6,0.3,1.1,0.3c0.5,0,0.8-0.1,1.1-0.3
				c0.2-0.2,0.4-0.4,0.4-0.7c0-0.3,0.1-0.8,0.1-1.4V210h1.7v4.4c0,1,0,1.7-0.1,2.1c-0.1,0.4-0.3,0.8-0.5,1c-0.2,0.3-0.6,0.5-1,0.7
				c-0.4,0.2-0.9,0.3-1.6,0.3c-0.8,0-1.4-0.1-1.8-0.3c-0.4-0.2-0.7-0.4-1-0.7c-0.2-0.3-0.4-0.6-0.5-0.9c-0.1-0.5-0.2-1.2-0.2-2.1
				V210z"/>
			<path class="st3" d="M726.4,218.4V210h2.5l1.5,5.7l1.5-5.7h2.5v8.3h-1.5v-6.6l-1.6,6.6h-1.6l-1.6-6.6v6.6H726.4z"/>
			<path class="st3" d="M735.2,218.4V210h2.5l1.5,5.7l1.5-5.7h2.5v8.3h-1.5v-6.6l-1.6,6.6h-1.6l-1.6-6.6v6.6H735.2z"/>
			<path class="st3" d="M751.5,218.4h-1.8l-0.7-1.9h-3.3l-0.7,1.9h-1.8l3.2-8.3h1.8L751.5,218.4z M748.4,215.1l-1.1-3.1l-1.1,3.1
				H748.4z"/>
			<path class="st3" d="M751.5,218.4V210h3.5c0.9,0,1.5,0.1,1.9,0.2c0.4,0.1,0.7,0.4,1,0.8c0.2,0.4,0.4,0.8,0.4,1.3
				c0,0.6-0.2,1.1-0.5,1.6c-0.4,0.4-0.9,0.7-1.6,0.8c0.4,0.2,0.7,0.4,0.9,0.7c0.2,0.3,0.5,0.7,0.9,1.4l1,1.6h-2l-1.2-1.8
				c-0.4-0.6-0.7-1.1-0.9-1.2c-0.2-0.2-0.3-0.3-0.5-0.3s-0.5-0.1-0.8-0.1h-0.3v3.5H751.5z M753.2,213.6h1.2c0.8,0,1.3,0,1.5-0.1
				c0.2-0.1,0.4-0.2,0.5-0.4c0.1-0.2,0.2-0.4,0.2-0.6c0-0.3-0.1-0.5-0.2-0.7c-0.1-0.2-0.4-0.3-0.6-0.3c-0.1,0-0.5,0-1.2,0h-1.3
				V213.6z"/>
			<path class="st3" d="M761.8,218.4v-3.5l-3-4.8h1.9l1.9,3.3l1.9-3.3h1.9l-3,4.8v3.5H761.8z"/>
		</g>
	</g>
	<polyline class="st7" points="482.9,143.9 482.9,191.3 483.3,191.3 483.3,143.9 482.9,143.9 	"/>
	<polyline class="st7" points="813.7,143.8 813.7,191.3 814.1,191.3 814.1,143.8 813.7,143.8 	"/>
	<polyline class="st7" points="482.9,202.1 482.9,310 483.3,310 483.3,202.1 482.9,202.1 	"/>
	<polyline class="st7" points="813.7,201.5 813.7,309 814.1,309 814.1,201.5 813.7,201.5 	"/>
	<polyline class="st7" points="483.3,143.6 483.3,143.9 814.1,143.9 814.1,143.6 483.3,143.6 	"/>
	<polyline class="st7" points="483.3,191.4 483.3,192.3 814.1,192.3 814.1,191.4 483.3,191.4 	"/>
	<polyline class="st7" points="483.3,202.1 483.3,202.5 814.1,202.5 814.1,202.1 483.3,202.1 	"/>
	<polyline class="st7" points="483.3,309.5 483.3,310 814.1,310 814.1,309.5 483.3,309.5 	"/>
	<g>
		<line class="st8" x1="482.7" y1="235.6" x2="813.2" y2="235.6"/>
		<line class="st8" x1="483.1" y1="241.8" x2="813.6" y2="241.8"/>
		<line class="st8" x1="483.1" y1="247.9" x2="813.6" y2="247.9"/>
		<line class="st8" x1="483.1" y1="254.1" x2="813.6" y2="254.1"/>
		<line class="st8" x1="483.1" y1="260.3" x2="813.6" y2="260.3"/>
		<line class="st8" x1="483.1" y1="266.5" x2="813.6" y2="266.5"/>
		<line class="st8" x1="483.1" y1="272.7" x2="813.6" y2="272.7"/>
		<line class="st8" x1="483.1" y1="278.8" x2="813.6" y2="278.8"/>
		<line class="st8" x1="483.1" y1="285" x2="813.6" y2="285"/>
		<line class="st8" x1="483.1" y1="291.2" x2="813.6" y2="291.2"/>
		<line class="st8" x1="483.1" y1="297.4" x2="813.6" y2="297.4"/>
		<line class="st8" x1="483.1" y1="303.6" x2="813.6" y2="303.6"/>
	</g>
	<g>
		<line class="st8" x1="483.1" y1="178.4" x2="813.7" y2="178.4"/>
		<line class="st8" x1="483.5" y1="184.6" x2="814.1" y2="184.6"/>
	</g>
	<g>
		<path class="st3" d="M508,154.1l1.6,0.5c-0.2,0.9-0.7,1.6-1.2,2c-0.6,0.4-1.3,0.7-2.2,0.7c-1.1,0-2-0.4-2.7-1.1
			c-0.7-0.8-1.1-1.8-1.1-3.1c0-1.4,0.4-2.5,1.1-3.2c0.7-0.8,1.6-1.2,2.8-1.2c1,0,1.8,0.3,2.5,0.9c0.4,0.4,0.7,0.9,0.8,1.5l-1.6,0.4
			c-0.1-0.4-0.3-0.8-0.6-1c-0.3-0.3-0.7-0.4-1.1-0.4c-0.6,0-1.1,0.2-1.5,0.7c-0.4,0.4-0.6,1.2-0.6,2.2c0,1.1,0.2,1.8,0.6,2.3
			c0.4,0.4,0.9,0.7,1.5,0.7c0.4,0,0.8-0.1,1.1-0.4C507.7,155.2,507.9,154.7,508,154.1z"/>
		<path class="st3" d="M510.9,148.9h1.7v4.5c0,0.7,0,1.2,0.1,1.4c0.1,0.3,0.2,0.6,0.5,0.8c0.3,0.2,0.6,0.3,1.1,0.3
			c0.5,0,0.8-0.1,1.1-0.3c0.2-0.2,0.4-0.4,0.4-0.7c0-0.3,0.1-0.8,0.1-1.4v-4.6h1.7v4.4c0,1,0,1.7-0.1,2.1c-0.1,0.4-0.3,0.8-0.5,1
			c-0.2,0.3-0.6,0.5-1,0.7c-0.4,0.2-0.9,0.3-1.6,0.3c-0.8,0-1.4-0.1-1.8-0.3c-0.4-0.2-0.7-0.4-1-0.7c-0.2-0.3-0.4-0.6-0.5-0.9
			c-0.1-0.5-0.2-1.2-0.2-2.1V148.9z"/>
		<path class="st3" d="M519,157.2v-8.3h3.5c0.9,0,1.5,0.1,1.9,0.2c0.4,0.1,0.7,0.4,1,0.8c0.2,0.4,0.4,0.8,0.4,1.3
			c0,0.6-0.2,1.1-0.5,1.6c-0.4,0.4-0.9,0.7-1.6,0.8c0.4,0.2,0.7,0.4,0.9,0.7c0.2,0.3,0.5,0.7,0.9,1.4l1,1.6h-2l-1.2-1.8
			c-0.4-0.6-0.7-1.1-0.9-1.2c-0.2-0.2-0.3-0.3-0.5-0.3s-0.5-0.1-0.8-0.1h-0.3v3.5H519z M520.7,152.4h1.2c0.8,0,1.3,0,1.5-0.1
			c0.2-0.1,0.4-0.2,0.5-0.4c0.1-0.2,0.2-0.4,0.2-0.6c0-0.3-0.1-0.5-0.2-0.7c-0.1-0.2-0.4-0.3-0.6-0.3c-0.1,0-0.5,0-1.2,0h-1.3V152.4
			z"/>
		<path class="st3" d="M527.1,157.2v-8.3h3.5c0.9,0,1.5,0.1,1.9,0.2c0.4,0.1,0.7,0.4,1,0.8c0.2,0.4,0.4,0.8,0.4,1.3
			c0,0.6-0.2,1.1-0.5,1.6c-0.4,0.4-0.9,0.7-1.6,0.8c0.4,0.2,0.7,0.4,0.9,0.7c0.2,0.3,0.5,0.7,0.9,1.4l1,1.6h-2l-1.2-1.8
			c-0.4-0.6-0.7-1.1-0.9-1.2c-0.2-0.2-0.3-0.3-0.5-0.3s-0.5-0.1-0.8-0.1h-0.3v3.5H527.1z M528.8,152.4h1.2c0.8,0,1.3,0,1.5-0.1
			c0.2-0.1,0.4-0.2,0.5-0.4c0.1-0.2,0.2-0.4,0.2-0.6c0-0.3-0.1-0.5-0.2-0.7c-0.1-0.2-0.4-0.3-0.6-0.3c-0.1,0-0.5,0-1.2,0h-1.3V152.4
			z"/>
		<path class="st3" d="M535.3,157.2v-8.3h6.1v1.4h-4.4v1.8h4.1v1.4h-4.1v2.3h4.6v1.4H535.3z"/>
		<path class="st3" d="M542.7,157.2v-8.3h1.6l3.4,5.6v-5.6h1.5v8.3h-1.7l-3.3-5.4v5.4H542.7z"/>
		<path class="st3" d="M552.7,157.2v-6.9h-2.4v-1.4h6.5v1.4h-2.4v6.9H552.7z"/>
		<path class="st3" d="M561,157.2v-8.3h2.5l1.5,5.7l1.5-5.7h2.5v8.3h-1.5v-6.6l-1.6,6.6h-1.6l-1.6-6.6v6.6H561z"/>
		<path class="st3" d="M569.5,153.1c0-0.8,0.1-1.6,0.4-2.1c0.2-0.4,0.4-0.8,0.8-1.1c0.3-0.3,0.7-0.6,1.1-0.8
			c0.5-0.2,1.1-0.3,1.8-0.3c1.2,0,2.2,0.4,2.9,1.1c0.7,0.8,1.1,1.8,1.1,3.2c0,1.3-0.4,2.4-1.1,3.2c-0.7,0.8-1.7,1.1-2.9,1.1
			c-1.2,0-2.2-0.4-2.9-1.1C569.8,155.4,569.5,154.4,569.5,153.1z M571.2,153c0,0.9,0.2,1.7,0.6,2.1c0.4,0.5,1,0.7,1.6,0.7
			c0.7,0,1.2-0.2,1.6-0.7c0.4-0.5,0.6-1.2,0.6-2.2c0-1-0.2-1.7-0.6-2.1c-0.4-0.5-1-0.7-1.6-0.7s-1.2,0.2-1.7,0.7
			C571.4,151.3,571.2,152.1,571.2,153z"/>
		<path class="st3" d="M578.6,157.2v-8.3h1.6l3.4,5.6v-5.6h1.5v8.3h-1.7l-3.3-5.4v5.4H578.6z"/>
		<path class="st3" d="M588.6,157.2v-6.9h-2.4v-1.4h6.5v1.4h-2.4v6.9H588.6z"/>
		<path class="st3" d="M593.5,157.2v-8.3h1.7v3.3h3.3v-3.3h1.7v8.3h-1.7v-3.6h-3.3v3.6H593.5z"/>
		<path class="st3" d="M605,148.9h3c0.7,0,1.2,0.1,1.6,0.2c0.5,0.1,0.9,0.4,1.2,0.8c0.3,0.4,0.6,0.8,0.8,1.4c0.2,0.5,0.3,1.2,0.3,2
			c0,0.7-0.1,1.3-0.3,1.8c-0.2,0.6-0.5,1.1-0.9,1.5c-0.3,0.3-0.7,0.5-1.2,0.7c-0.4,0.1-0.9,0.2-1.5,0.2H605V148.9z M606.7,150.3v5.5
			h1.2c0.5,0,0.8,0,1-0.1c0.3-0.1,0.5-0.2,0.7-0.3c0.2-0.2,0.3-0.4,0.4-0.8c0.1-0.4,0.2-0.9,0.2-1.5s-0.1-1.1-0.2-1.5
			c-0.1-0.3-0.3-0.6-0.5-0.8c-0.2-0.2-0.5-0.3-0.8-0.4c-0.2-0.1-0.7-0.1-1.4-0.1H606.7z"/>
		<path class="st3" d="M613.1,157.2v-8.3h6.1v1.4h-4.4v1.8h4.1v1.4h-4.1v2.3h4.6v1.4H613.1z"/>
		<path class="st3" d="M622.4,157.2v-6.9H620v-1.4h6.5v1.4h-2.4v6.9H622.4z"/>
		<path class="st3" d="M634.8,157.2H633l-0.7-1.9H629l-0.7,1.9h-1.8l3.2-8.3h1.8L634.8,157.2z M631.7,153.9l-1.1-3.1l-1.1,3.1H631.7
			z"/>
		<path class="st3" d="M634.7,157.2v-8.3h1.7v8.3H634.7z"/>
		<path class="st3" d="M637.6,157.2v-8.3h1.7v6.9h4.1v1.4H637.6z"/>
		<path class="st3" d="M647.7,157.2v-8.3h5.6v1.4h-4v2h3.4v1.4h-3.4v3.5H647.7z"/>
		<path class="st3" d="M654.1,153.1c0-0.8,0.1-1.6,0.4-2.1c0.2-0.4,0.4-0.8,0.8-1.1c0.3-0.3,0.7-0.6,1.1-0.8
			c0.5-0.2,1.1-0.3,1.8-0.3c1.2,0,2.2,0.4,2.9,1.1c0.7,0.8,1.1,1.8,1.1,3.2c0,1.3-0.4,2.4-1.1,3.2s-1.7,1.1-2.9,1.1
			c-1.2,0-2.2-0.4-2.9-1.1C654.5,155.4,654.1,154.4,654.1,153.1z M655.8,153c0,0.9,0.2,1.7,0.6,2.1c0.4,0.5,1,0.7,1.6,0.7
			c0.7,0,1.2-0.2,1.6-0.7c0.4-0.5,0.6-1.2,0.6-2.2c0-1-0.2-1.7-0.6-2.1c-0.4-0.5-1-0.7-1.6-0.7s-1.2,0.2-1.7,0.7
			C656,151.3,655.8,152.1,655.8,153z"/>
		<path class="st3" d="M663.2,157.2v-8.3h3.5c0.9,0,1.5,0.1,1.9,0.2c0.4,0.1,0.7,0.4,1,0.8c0.2,0.4,0.4,0.8,0.4,1.3
			c0,0.6-0.2,1.1-0.5,1.6c-0.4,0.4-0.9,0.7-1.6,0.8c0.4,0.2,0.7,0.4,0.9,0.7c0.2,0.3,0.5,0.7,0.9,1.4l1,1.6h-2l-1.2-1.8
			c-0.4-0.6-0.7-1.1-0.9-1.2c-0.2-0.2-0.3-0.3-0.5-0.3s-0.5-0.1-0.8-0.1h-0.3v3.5H663.2z M664.9,152.4h1.2c0.8,0,1.3,0,1.5-0.1
			c0.2-0.1,0.4-0.2,0.5-0.4c0.1-0.2,0.2-0.4,0.2-0.6c0-0.3-0.1-0.5-0.2-0.7c-0.1-0.2-0.4-0.3-0.6-0.3c-0.1,0-0.5,0-1.2,0h-1.3V152.4
			z"/>
		<path class="st3" d="M674.7,157.2v-8.3h6.1v1.4h-4.4v1.8h4.1v1.4h-4.1v2.3h4.6v1.4H674.7z"/>
		<path class="st3" d="M681.4,157.2l2.8-4.4l-2.6-4h1.9l1.7,2.7l1.6-2.7h1.9l-2.6,4.1l2.8,4.3h-2l-1.8-2.9l-1.8,2.9H681.4z"/>
		<path class="st3" d="M689.7,157.2v-8.3h2.7c1,0,1.7,0,2,0.1c0.5,0.1,0.9,0.4,1.2,0.8c0.3,0.4,0.5,1,0.5,1.6c0,0.5-0.1,0.9-0.3,1.3
			c-0.2,0.3-0.4,0.6-0.7,0.8c-0.3,0.2-0.6,0.3-0.9,0.4c-0.4,0.1-1,0.1-1.7,0.1h-1.1v3.1H689.7z M691.3,150.3v2.4h0.9
			c0.7,0,1.1,0,1.3-0.1c0.2-0.1,0.4-0.2,0.5-0.4c0.1-0.2,0.2-0.4,0.2-0.6c0-0.3-0.1-0.6-0.3-0.8c-0.2-0.2-0.4-0.3-0.7-0.4
			c-0.2,0-0.6-0.1-1.2-0.1H691.3z"/>
		<path class="st3" d="M697.1,157.2v-8.3h6.1v1.4h-4.4v1.8h4.1v1.4h-4.1v2.3h4.6v1.4H697.1z"/>
		<path class="st3" d="M704.6,157.2v-8.3h1.6l3.4,5.6v-5.6h1.5v8.3h-1.7l-3.3-5.4v5.4H704.6z"/>
		<path class="st3" d="M712.3,154.5l1.6-0.2c0.1,0.6,0.3,1,0.6,1.2c0.3,0.3,0.7,0.4,1.2,0.4c0.5,0,0.9-0.1,1.2-0.3
			c0.3-0.2,0.4-0.5,0.4-0.8c0-0.2-0.1-0.4-0.2-0.5c-0.1-0.1-0.3-0.3-0.6-0.4c-0.2-0.1-0.6-0.2-1.3-0.4c-0.9-0.2-1.5-0.5-1.9-0.8
			c-0.5-0.5-0.8-1-0.8-1.7c0-0.4,0.1-0.8,0.4-1.2c0.2-0.4,0.6-0.7,1-0.8c0.4-0.2,1-0.3,1.6-0.3c1,0,1.8,0.2,2.3,0.7
			c0.5,0.5,0.8,1.1,0.8,1.8l-1.7,0.1c-0.1-0.4-0.2-0.7-0.5-0.9c-0.2-0.2-0.6-0.3-1.1-0.3c-0.5,0-0.9,0.1-1.1,0.3
			c-0.2,0.1-0.3,0.3-0.3,0.5c0,0.2,0.1,0.4,0.2,0.5c0.2,0.2,0.7,0.4,1.5,0.6c0.8,0.2,1.4,0.4,1.8,0.6c0.4,0.2,0.7,0.5,0.9,0.8
			c0.2,0.4,0.3,0.8,0.3,1.3c0,0.5-0.1,0.9-0.4,1.3c-0.3,0.4-0.6,0.7-1.1,0.9s-1.1,0.3-1.8,0.3c-1,0-1.8-0.2-2.4-0.7
			S712.4,155.4,712.3,154.5z"/>
		<path class="st3" d="M720.1,157.2v-8.3h6.1v1.4h-4.4v1.8h4.1v1.4h-4.1v2.3h4.6v1.4H720.1z"/>
		<path class="st3" d="M727.2,154.5l1.6-0.2c0.1,0.6,0.3,1,0.6,1.2c0.3,0.3,0.7,0.4,1.2,0.4c0.5,0,0.9-0.1,1.2-0.3
			c0.3-0.2,0.4-0.5,0.4-0.8c0-0.2-0.1-0.4-0.2-0.5s-0.3-0.3-0.6-0.4c-0.2-0.1-0.6-0.2-1.3-0.4c-0.9-0.2-1.5-0.5-1.9-0.8
			c-0.5-0.5-0.8-1-0.8-1.7c0-0.4,0.1-0.8,0.4-1.2c0.2-0.4,0.6-0.7,1-0.8c0.4-0.2,1-0.3,1.6-0.3c1,0,1.8,0.2,2.3,0.7
			c0.5,0.5,0.8,1.1,0.8,1.8l-1.7,0.1c-0.1-0.4-0.2-0.7-0.5-0.9c-0.2-0.2-0.6-0.3-1.1-0.3c-0.5,0-0.9,0.1-1.1,0.3
			c-0.2,0.1-0.3,0.3-0.3,0.5c0,0.2,0.1,0.4,0.2,0.5c0.2,0.2,0.7,0.4,1.5,0.6c0.8,0.2,1.4,0.4,1.8,0.6c0.4,0.2,0.7,0.5,0.9,0.8
			c0.2,0.4,0.3,0.8,0.3,1.3c0,0.5-0.1,0.9-0.4,1.3c-0.3,0.4-0.6,0.7-1.1,0.9c-0.5,0.2-1.1,0.3-1.8,0.3c-1,0-1.8-0.2-2.4-0.7
			C727.6,156.1,727.3,155.4,727.2,154.5z"/>
		<path class="st3" d="M738,156.3v-1.6l3.9-1.6l-3.9-1.6v-1.6l5.7,2.5v1.4L738,156.3z"/>
		<path class="st3" d="M753.2,155.7v1.5h-5.5c0.1-0.6,0.2-1.1,0.5-1.6c0.3-0.5,0.9-1.2,1.8-2c0.7-0.7,1.1-1.1,1.3-1.4
			c0.2-0.3,0.3-0.7,0.3-1c0-0.4-0.1-0.6-0.3-0.8c-0.2-0.2-0.5-0.3-0.8-0.3c-0.3,0-0.6,0.1-0.8,0.3c-0.2,0.2-0.3,0.5-0.3,1l-1.6-0.2
			c0.1-0.9,0.4-1.5,0.9-1.9c0.5-0.4,1.1-0.6,1.9-0.6c0.8,0,1.5,0.2,1.9,0.7c0.5,0.4,0.7,1,0.7,1.7c0,0.4-0.1,0.7-0.2,1.1
			c-0.1,0.3-0.3,0.7-0.6,1.1c-0.2,0.2-0.5,0.6-1,1.1c-0.5,0.5-0.8,0.8-0.9,0.9c-0.1,0.2-0.2,0.3-0.3,0.4H753.2z"/>
		<path class="st3" d="M754.3,155.6h1.6v1.1c0,0.5,0,0.8-0.1,1.1c-0.1,0.3-0.2,0.5-0.4,0.7c-0.2,0.2-0.5,0.4-0.8,0.5l-0.3-0.7
			c0.3-0.1,0.5-0.3,0.7-0.4c0.1-0.2,0.2-0.4,0.2-0.8h-0.8V155.6z"/>
		<path class="st3" d="M757.4,155.1l1.6-0.2c0,0.4,0.2,0.6,0.4,0.9c0.2,0.2,0.5,0.3,0.8,0.3c0.3,0,0.6-0.1,0.8-0.4
			c0.2-0.3,0.3-0.7,0.3-1.2c0-0.5-0.1-0.9-0.3-1.2c-0.2-0.3-0.5-0.4-0.9-0.4c-0.5,0-0.9,0.2-1.2,0.6l-1.3-0.2l0.8-4.3h4.2v1.5h-3
			l-0.2,1.4c0.4-0.2,0.7-0.3,1.1-0.3c0.7,0,1.3,0.3,1.8,0.8c0.5,0.5,0.7,1.2,0.7,2c0,0.7-0.2,1.3-0.6,1.8c-0.5,0.7-1.3,1.1-2.2,1.1
			c-0.8,0-1.4-0.2-1.9-0.6C757.8,156.3,757.5,155.7,757.4,155.1z"/>
		<path class="st3" d="M766.1,148.8c0.8,0,1.4,0.3,1.9,0.9c0.5,0.7,0.8,1.8,0.8,3.4c0,1.6-0.3,2.7-0.8,3.4c-0.4,0.6-1.1,0.9-1.9,0.9
			c-0.8,0-1.4-0.3-1.9-0.9c-0.5-0.6-0.7-1.7-0.7-3.3c0-1.6,0.3-2.7,0.8-3.4C764.7,149.1,765.3,148.8,766.1,148.8z M766.1,150.1
			c-0.2,0-0.4,0.1-0.5,0.2c-0.1,0.1-0.3,0.3-0.3,0.7c-0.1,0.4-0.2,1.1-0.2,2.1c0,1,0,1.7,0.1,2c0.1,0.4,0.2,0.6,0.4,0.7
			s0.3,0.2,0.5,0.2c0.2,0,0.4-0.1,0.5-0.2c0.2-0.1,0.3-0.3,0.3-0.7c0.1-0.4,0.2-1.1,0.2-2.1c0-1,0-1.7-0.1-2
			c-0.1-0.4-0.2-0.6-0.4-0.7C766.5,150.2,766.3,150.1,766.1,150.1z"/>
		<path class="st3" d="M772.2,148.8c0.8,0,1.4,0.3,1.9,0.9c0.5,0.7,0.8,1.8,0.8,3.4c0,1.6-0.3,2.7-0.8,3.4c-0.4,0.6-1.1,0.9-1.9,0.9
			c-0.8,0-1.4-0.3-1.9-0.9c-0.5-0.6-0.7-1.7-0.7-3.3c0-1.6,0.3-2.7,0.8-3.4C770.8,149.1,771.4,148.8,772.2,148.8z M772.2,150.1
			c-0.2,0-0.4,0.1-0.5,0.2c-0.2,0.1-0.3,0.3-0.3,0.7c-0.1,0.4-0.2,1.1-0.2,2.1c0,1,0,1.7,0.1,2c0.1,0.4,0.2,0.6,0.4,0.7
			c0.1,0.1,0.3,0.2,0.5,0.2c0.2,0,0.4-0.1,0.5-0.2c0.1-0.1,0.3-0.3,0.3-0.7c0.1-0.4,0.2-1.1,0.2-2.1c0-1,0-1.7-0.1-2
			c-0.1-0.4-0.2-0.6-0.4-0.7C772.6,150.2,772.4,150.1,772.2,150.1z"/>
		<path class="st3" d="M779.4,148.9h1.7v4.5c0,0.7,0,1.2,0.1,1.4c0.1,0.3,0.2,0.6,0.5,0.8c0.3,0.2,0.6,0.3,1.1,0.3
			c0.5,0,0.8-0.1,1.1-0.3c0.2-0.2,0.4-0.4,0.4-0.7c0-0.3,0.1-0.8,0.1-1.4v-4.6h1.7v4.4c0,1,0,1.7-0.1,2.1c-0.1,0.4-0.3,0.8-0.5,1
			c-0.2,0.3-0.6,0.5-1,0.7c-0.4,0.2-0.9,0.3-1.6,0.3c-0.8,0-1.4-0.1-1.8-0.3c-0.4-0.2-0.7-0.4-1-0.7c-0.2-0.3-0.4-0.6-0.5-0.9
			c-0.1-0.5-0.2-1.2-0.2-2.1V148.9z"/>
		<path class="st3" d="M787.1,154.5l1.6-0.2c0.1,0.6,0.3,1,0.6,1.2c0.3,0.3,0.7,0.4,1.2,0.4c0.5,0,0.9-0.1,1.2-0.3
			c0.3-0.2,0.4-0.5,0.4-0.8c0-0.2-0.1-0.4-0.2-0.5c-0.1-0.1-0.3-0.3-0.6-0.4c-0.2-0.1-0.6-0.2-1.3-0.4c-0.9-0.2-1.5-0.5-1.9-0.8
			c-0.5-0.5-0.8-1-0.8-1.7c0-0.4,0.1-0.8,0.4-1.2c0.2-0.4,0.6-0.7,1-0.8c0.4-0.2,1-0.3,1.6-0.3c1,0,1.8,0.2,2.3,0.7
			c0.5,0.5,0.8,1.1,0.8,1.8l-1.7,0.1c-0.1-0.4-0.2-0.7-0.5-0.9c-0.2-0.2-0.6-0.3-1.1-0.3c-0.5,0-0.9,0.1-1.1,0.3
			c-0.2,0.1-0.3,0.3-0.3,0.5c0,0.2,0.1,0.4,0.2,0.5c0.2,0.2,0.7,0.4,1.5,0.6c0.8,0.2,1.4,0.4,1.8,0.6c0.4,0.2,0.7,0.5,0.9,0.8
			c0.2,0.4,0.3,0.8,0.3,1.3c0,0.5-0.1,0.9-0.4,1.3c-0.3,0.4-0.6,0.7-1.1,0.9s-1.1,0.3-1.8,0.3c-1,0-1.8-0.2-2.4-0.7
			C787.5,156.1,787.2,155.4,787.1,154.5z"/>
		<path class="st3" d="M795,148.9h3c0.7,0,1.2,0.1,1.6,0.2c0.5,0.1,0.9,0.4,1.2,0.8c0.3,0.4,0.6,0.8,0.8,1.4c0.2,0.5,0.3,1.2,0.3,2
			c0,0.7-0.1,1.3-0.3,1.8c-0.2,0.6-0.5,1.1-0.9,1.5c-0.3,0.3-0.7,0.5-1.2,0.7c-0.4,0.1-0.9,0.2-1.5,0.2H795V148.9z M796.6,150.3v5.5
			h1.2c0.5,0,0.8,0,1-0.1c0.3-0.1,0.5-0.2,0.7-0.3c0.2-0.2,0.3-0.4,0.4-0.8c0.1-0.4,0.2-0.9,0.2-1.5s-0.1-1.1-0.2-1.5
			c-0.1-0.3-0.3-0.6-0.5-0.8c-0.2-0.2-0.5-0.3-0.8-0.4c-0.2-0.1-0.7-0.1-1.4-0.1H796.6z"/>
	</g>
	<g>
		<path class="st3" d="M738.1,166.3c-0.3-0.4-0.5-0.8-0.7-1.3s-0.3-1-0.3-1.5c0-0.5,0.1-0.9,0.2-1.3c0.2-0.5,0.4-1,0.8-1.5h0.4
			c-0.2,0.4-0.4,0.7-0.5,0.9c-0.1,0.3-0.2,0.6-0.3,0.8c-0.1,0.4-0.1,0.7-0.1,1.1c0,0.9,0.3,1.9,0.9,2.8H738.1z"/>
		<path class="st3" d="M739.1,165v-4.3h3.1v0.5h-2.5v1.3h2.4v0.5h-2.4v1.5h2.6v0.5H739.1z"/>
		<path class="st3" d="M742.7,165l1.7-2.2l-1.5-2.1h0.7l0.8,1.1c0.2,0.2,0.3,0.4,0.3,0.5c0.1-0.2,0.2-0.3,0.3-0.5l0.9-1.1h0.6
			l-1.5,2l1.6,2.3h-0.7l-1.1-1.5c-0.1-0.1-0.1-0.2-0.2-0.3c-0.1,0.2-0.2,0.3-0.2,0.3l-1.1,1.5H742.7z"/>
		<path class="st3" d="M750.2,163.5l0.6,0.1c-0.1,0.5-0.3,0.8-0.6,1.1c-0.3,0.2-0.7,0.4-1.1,0.4c-0.5,0-0.8-0.1-1.1-0.3
			c-0.3-0.2-0.5-0.5-0.7-0.8s-0.2-0.7-0.2-1.2c0-0.4,0.1-0.8,0.3-1.2s0.4-0.6,0.7-0.8c0.3-0.2,0.7-0.3,1-0.3c0.4,0,0.8,0.1,1.1,0.3
			s0.5,0.5,0.6,0.9l-0.6,0.1c-0.1-0.3-0.2-0.5-0.4-0.7s-0.4-0.2-0.7-0.2c-0.3,0-0.6,0.1-0.8,0.2s-0.4,0.4-0.5,0.6s-0.1,0.5-0.1,0.8
			c0,0.4,0.1,0.7,0.2,1c0.1,0.3,0.3,0.5,0.5,0.6s0.5,0.2,0.7,0.2c0.3,0,0.6-0.1,0.8-0.3S750.1,163.9,750.2,163.5z"/>
		<path class="st3" d="M751.4,165v-4.3h0.6v3.8h2.1v0.5H751.4z"/>
		<path class="st3" d="M757.6,160.7h0.6v2.5c0,0.4,0,0.8-0.1,1s-0.3,0.5-0.5,0.6c-0.3,0.2-0.6,0.2-1,0.2c-0.4,0-0.7-0.1-1-0.2
			s-0.4-0.3-0.5-0.6s-0.2-0.6-0.2-1.1v-2.5h0.6v2.5c0,0.4,0,0.6,0.1,0.8c0.1,0.2,0.2,0.3,0.4,0.4c0.2,0.1,0.4,0.1,0.6,0.1
			c0.4,0,0.7-0.1,0.9-0.3s0.3-0.6,0.3-1.1V160.7z"/>
		<path class="st3" d="M759.1,165v-4.3h1.5c0.3,0,0.6,0,0.8,0.1c0.2,0.1,0.5,0.2,0.6,0.3c0.2,0.2,0.4,0.4,0.5,0.7
			c0.1,0.3,0.2,0.6,0.2,1c0,0.3,0,0.6-0.1,0.9s-0.2,0.5-0.3,0.6s-0.3,0.3-0.4,0.4s-0.3,0.2-0.5,0.2c-0.2,0-0.4,0.1-0.7,0.1H759.1z
			 M759.7,164.5h0.9c0.3,0,0.5,0,0.7-0.1c0.2-0.1,0.3-0.1,0.4-0.2c0.1-0.1,0.2-0.3,0.3-0.5s0.1-0.5,0.1-0.8c0-0.4-0.1-0.8-0.2-1
			c-0.1-0.2-0.3-0.4-0.5-0.5c-0.2-0.1-0.4-0.1-0.7-0.1h-0.9V164.5z"/>
		<path class="st3" d="M763.6,165v-4.3h0.6v4.3H763.6z"/>
		<path class="st3" d="M765.1,165v-4.3h0.6l2.3,3.4v-3.4h0.5v4.3h-0.6l-2.3-3.4v3.4H765.1z"/>
		<path class="st3" d="M771.5,163.3v-0.5l1.8,0v1.6c-0.3,0.2-0.6,0.4-0.9,0.5s-0.6,0.2-0.9,0.2c-0.4,0-0.8-0.1-1.2-0.3
			s-0.6-0.4-0.8-0.8s-0.3-0.7-0.3-1.1c0-0.4,0.1-0.8,0.3-1.2c0.2-0.4,0.4-0.6,0.8-0.8s0.7-0.3,1.1-0.3c0.3,0,0.6,0.1,0.8,0.2
			c0.3,0.1,0.4,0.2,0.6,0.4s0.3,0.4,0.3,0.7l-0.5,0.1c-0.1-0.2-0.1-0.4-0.2-0.5s-0.2-0.2-0.4-0.3s-0.4-0.1-0.6-0.1
			c-0.3,0-0.5,0-0.7,0.1s-0.3,0.2-0.5,0.3s-0.2,0.3-0.3,0.4c-0.1,0.3-0.2,0.6-0.2,0.9c0,0.4,0.1,0.7,0.2,1c0.1,0.3,0.3,0.4,0.6,0.6
			s0.5,0.2,0.8,0.2c0.2,0,0.5,0,0.7-0.1s0.4-0.2,0.5-0.3v-0.8H771.5z"/>
		<path class="st3" d="M775,165l1.6-4.3h0.6l1.8,4.3h-0.6l-0.5-1.3h-1.8l-0.5,1.3H775z M776.2,163.2h1.5l-0.4-1.2
			c-0.1-0.4-0.2-0.7-0.3-0.9c-0.1,0.3-0.1,0.5-0.2,0.8L776.2,163.2z"/>
		<path class="st3" d="M779.6,165v-4.3h0.6v4.3H779.6z"/>
		<path class="st3" d="M781.1,165v-4.3h1.9c0.4,0,0.7,0,0.9,0.1s0.4,0.2,0.5,0.4s0.2,0.4,0.2,0.6c0,0.3-0.1,0.6-0.3,0.8
			s-0.5,0.3-0.9,0.4c0.2,0.1,0.3,0.1,0.3,0.2c0.2,0.2,0.3,0.3,0.5,0.6l0.7,1.2h-0.7l-0.6-0.9c-0.2-0.3-0.3-0.5-0.4-0.6
			s-0.2-0.2-0.3-0.3c-0.1-0.1-0.2-0.1-0.3-0.1c-0.1,0-0.2,0-0.3,0h-0.7v1.9H781.1z M781.7,162.6h1.2c0.3,0,0.5,0,0.6-0.1
			s0.3-0.1,0.3-0.3s0.1-0.2,0.1-0.4c0-0.2-0.1-0.4-0.2-0.5s-0.4-0.2-0.7-0.2h-1.4V162.6z"/>
		<path class="st3" d="M788.1,165v-3.8h-1.4v-0.5h3.4v0.5h-1.4v3.8H788.1z"/>
		<path class="st3" d="M790.7,165v-4.3h1.9c0.4,0,0.7,0,0.9,0.1s0.4,0.2,0.5,0.4s0.2,0.4,0.2,0.6c0,0.3-0.1,0.6-0.3,0.8
			s-0.5,0.3-0.9,0.4c0.2,0.1,0.3,0.1,0.3,0.2c0.2,0.2,0.3,0.3,0.5,0.6l0.7,1.2h-0.7l-0.6-0.9c-0.2-0.3-0.3-0.5-0.4-0.6
			s-0.2-0.2-0.3-0.3c-0.1-0.1-0.2-0.1-0.3-0.1c-0.1,0-0.2,0-0.3,0h-0.7v1.9H790.7z M791.3,162.6h1.2c0.3,0,0.5,0,0.6-0.1
			s0.3-0.1,0.3-0.3s0.1-0.2,0.1-0.4c0-0.2-0.1-0.4-0.2-0.5s-0.4-0.2-0.7-0.2h-1.4V162.6z"/>
		<path class="st3" d="M794.6,165l1.6-4.3h0.6l1.8,4.3h-0.6l-0.5-1.3h-1.8l-0.5,1.3H794.6z M795.8,163.2h1.5l-0.4-1.2
			c-0.1-0.4-0.2-0.7-0.3-0.9c-0.1,0.3-0.1,0.5-0.2,0.8L795.8,163.2z"/>
		<path class="st3" d="M799.8,165l-1.7-4.3h0.6l1.1,3.1c0.1,0.3,0.2,0.5,0.2,0.7c0.1-0.2,0.1-0.5,0.2-0.7l1.2-3.1h0.6l-1.7,4.3
			H799.8z"/>
		<path class="st3" d="M802.6,165v-4.3h3.1v0.5h-2.5v1.3h2.4v0.5h-2.4v1.5h2.6v0.5H802.6z"/>
		<path class="st3" d="M806.6,165v-4.3h0.6v3.8h2.1v0.5H806.6z"/>
		<path class="st3" d="M810.2,166.3h-0.4c0.6-0.9,0.9-1.9,0.9-2.8c0-0.4,0-0.7-0.1-1.1c-0.1-0.3-0.2-0.6-0.3-0.8
			c-0.1-0.2-0.2-0.5-0.5-0.9h0.4c0.4,0.5,0.6,1,0.8,1.5c0.2,0.4,0.2,0.9,0.2,1.3c0,0.5-0.1,1-0.3,1.5
			C810.7,165.5,810.5,165.9,810.2,166.3z"/>
	</g>
</g>
</svg>
