<?xml version="1.0" encoding="utf-8"?>
<!-- Generator: Adobe Illustrator 21.0.2, SVG Export Plug-In . SVG Version: 6.00 Build 0)  -->
<svg version="1.1" id="Layer_1" xmlns="http://www.w3.org/2000/svg" xmlns:xlink="http://www.w3.org/1999/xlink" x="0px" y="0px"
	 viewBox="0 0 900 375" style="enable-background:new 0 0 900 375;" xml:space="preserve">
<style type="text/css">
	.st0{opacity:0.4;}
	.st1{fill:#F3F3F3;}
	.st2{fill:#010101;}
	.st3{fill:none;}
	.st4{opacity:0.58;fill:#F7EC93;enable-background:new    ;}
</style>
<title>Artboard 2</title>
<g class="st0">
	
		<image style="overflow:visible;enable-background:new    ;" width="1405" height="1230" xlink:href="E2592AD9.png"  transform="matrix(0.239 0 0 0.239 416.9 29.8)">
	</image>
</g>
<path class="st1" d="M713.3,59.5L713.3,59.5z"/>
<path class="st1" d="M715.7,76.7c-0.1-1.6-0.1-5.5-0.2-10.9h-257c0,7.5-0.2,12.9-0.7,14c-1.8,4.2-6.5,86.3-5.6,97.3
	c0.5,6.7,0.3,56.6,0.3,97.2l1,1.1c1.1-0.5,2.2-0.7,3.4-0.8c4.8-0.4,9.6,1.4,13,4.9c18.9-4,38.1-6.6,57.4-7.7
	c29.8-1.7,58.5,1.5,88,5.1c31.1,3.7,62.1,2.2,93.3,2.4h3.4c0.6-1.2,1.6-2.3,2.8-3c-0.3-17.9-0.5-35.5,0-36.7s-1.4-75.1-0.3-77.4
	S716.1,85.6,715.7,76.7z"/>
<path class="st2" d="M489.2,142.5v-8.2h-2.7v-1.7h7.1v1.7H491v8.2H489.2z"/>
<path class="st2" d="M494.2,137.7c0-0.9,0.1-1.7,0.4-2.5c0.2-0.5,0.5-0.9,0.8-1.3c0.3-0.4,0.7-0.7,1.2-0.9c0.6-0.3,1.2-0.4,1.9-0.4
	c1.2-0.1,2.4,0.4,3.2,1.3c1.6,2.2,1.6,5.3,0,7.5c-1.7,1.7-4.5,1.8-6.2,0.1c0,0-0.1-0.1-0.1-0.1C494.6,140.4,494.1,139,494.2,137.7z
	 M496.1,137.6c-0.1,0.9,0.2,1.8,0.7,2.5c0.8,1,2.2,1.2,3.2,0.4c0.1-0.1,0.3-0.2,0.4-0.4c0.5-0.8,0.8-1.7,0.7-2.6
	c0.1-0.9-0.2-1.8-0.7-2.5c-0.9-1-2.4-1.1-3.4-0.2c-0.1,0.1-0.1,0.1-0.2,0.2c-0.6,0.7-0.8,1.7-0.8,2.6L496.1,137.6z"/>
<path class="st2" d="M506.2,142.5v-8.2h-2.7v-1.7h7.1v1.7H508v8.2H506.2z"/>
<path class="st2" d="M519.6,142.5h-2l-0.8-2.2h-3.6l-0.7,2.2h-1.9l3.5-9.8h1.9L519.6,142.5z M516.3,138.6l-1.2-3.7l-1.2,3.7H516.3z"
	/>
<path class="st2" d="M519.7,142.5v-9.8h1.8v8.1h4.5v1.7H519.7z"/>
<path class="st2" d="M639,142.5v-8.2h-2.7v-1.7h7.1v1.7h-2.7v8.2H639z"/>
<path class="st2" d="M644,137.7c0-0.9,0.1-1.7,0.4-2.5c0.2-0.5,0.5-0.9,0.8-1.3c0.3-0.4,0.7-0.7,1.2-0.9c0.6-0.3,1.2-0.4,1.9-0.4
	c1.2-0.1,2.4,0.4,3.2,1.3c1.6,2.2,1.6,5.3,0,7.5c-1.7,1.7-4.5,1.8-6.2,0.1c0,0-0.1-0.1-0.1-0.1C644.4,140.4,643.9,139,644,137.7z
	 M645.9,137.6c-0.1,0.9,0.2,1.8,0.7,2.5c0.8,1,2.2,1.2,3.2,0.4c0.1-0.1,0.3-0.2,0.4-0.4c0.5-0.8,0.8-1.7,0.7-2.6
	c0.1-0.9-0.2-1.8-0.7-2.5c-0.9-1-2.4-1.1-3.4-0.2c-0.1,0.1-0.1,0.1-0.2,0.2C646.1,135.8,645.8,136.7,645.9,137.6L645.9,137.6z"/>
<path class="st2" d="M656,142.5v-8.2h-2.7v-1.7h7.1v1.7h-2.7v8.2H656z"/>
<path class="st2" d="M669.5,142.5h-2l-0.8-2.2h-3.6l-0.7,2.2h-1.9l3.5-9.8h1.9L669.5,142.5z M666.2,138.6l-1.2-3.7l-1.2,3.7H666.2z"
	/>
<path class="st2" d="M669.5,142.5v-9.8h1.8v8.1h4.5v1.7H669.5z"/>
<rect x="466.7" y="128.8" class="st3" width="245.8" height="17"/>
<path class="st2" d="M487.2,150.5h3.3l1.7,0.2c0.5,0.2,1,0.5,1.4,0.9c0.4,0.5,0.7,1,0.9,1.6c0.2,0.7,0.3,1.5,0.3,2.3
	c0,0.7-0.1,1.4-0.3,2.1c-0.2,0.6-0.5,1.2-1,1.7c-0.4,0.4-0.8,0.6-1.3,0.8l-1.6,0.2h-3.4V150.5z M489,152.2v6.5h2.5l0.7-0.4
	c0.3-0.3,0.4-0.6,0.5-1c0.1-0.6,0.2-1.2,0.2-1.8c0-0.6,0-1.2-0.2-1.8c-0.1-0.4-0.3-0.7-0.5-1c-0.2-0.2-0.5-0.4-0.8-0.5H489z"/>
<path class="st2" d="M504.1,160.3h-2l-0.8-2.2h-3.6l-0.7,2.2h-1.9l3.5-9.8h1.9L504.1,160.3z M500.8,156.4l-1.2-3.7l-1.2,3.7H500.8z"
	/>
<path class="st2" d="M506.5,160.3v-4.1l-3.3-5.7h2.1l2.1,3.9l2.1-3.9h2.1l-3.3,5.7v4.1H506.5z"/>
<path class="st2" d="M511.1,157.1l1.8-0.2c0,0.5,0.3,1,0.6,1.4c0.3,0.3,0.8,0.5,1.3,0.5c0.5,0,0.9-0.1,1.3-0.4
	c0.3-0.3,0.4-0.6,0.4-1c0-0.2-0.1-0.4-0.2-0.6l-0.7-0.4l-1.5-0.4c-0.7-0.2-1.4-0.5-2-1c-0.5-0.5-0.8-1.3-0.8-2c0-0.5,0.1-1,0.4-1.4
	c0.3-0.4,0.6-0.8,1.1-1c0.6-0.2,1.2-0.3,1.8-0.3c0.9-0.1,1.8,0.2,2.5,0.8c0.6,0.6,0.9,1.4,0.9,2.2h-1.8c0-0.4-0.2-0.8-0.5-1.1
	c-0.3-0.2-0.7-0.3-1.1-0.3c-0.4,0-0.9,0.1-1.2,0.4c-0.2,0.1-0.3,0.4-0.3,0.6c0,0.2,0.1,0.5,0.3,0.6c0.5,0.3,1.1,0.6,1.7,0.7l2,0.7
	c0.4,0.2,0.8,0.6,1,1c0.3,0.5,0.4,1,0.4,1.6c0,0.6-0.1,1.1-0.4,1.6c-0.3,0.5-0.7,0.9-1.2,1.1c-0.6,0.3-1.3,0.4-2,0.4
	c-1,0-1.9-0.3-2.6-0.9C511.6,159,511.2,158.1,511.1,157.1z"/>
<path class="st2" d="M549.9,160.3v-9.8h5.1c0.5,0.2,1,0.5,1.3,1c0.4,0.6,0.5,1.2,0.5,1.9c0,0.5-0.1,1-0.3,1.5
	c-0.2,0.4-0.5,0.7-0.8,1l-0.9,0.5h-3.1v3.7L549.9,160.3z M551.7,152.1v2.8h1l1.4-0.2c0.3-0.1,0.5-0.3,0.6-0.5
	c0.1-0.2,0.2-0.5,0.2-0.8c0-0.3-0.1-0.6-0.3-0.9c-0.2-0.2-0.4-0.4-0.7-0.4L551.7,152.1L551.7,152.1z"/>
<path class="st2" d="M558,160.3v-9.8h6.7v1.7h-4.8v2.2h4.5v1.6h-4.5v2.7h5v1.7L558,160.3z"/>
<path class="st2" d="M566.2,160.3v-9.8h3.8c0.7,0,1.4,0.1,2.1,0.3c0.4,0.2,0.8,0.5,1,0.9c0.3,0.5,0.4,1,0.4,1.6
	c0.1,1.4-1,2.6-2.4,2.7l1,0.8l1,1.6l1.1,1.9H572l-1.3-2.1l-1-1.4l-0.5-0.4H568v4.1L566.2,160.3z M568,154.6h3l0.5-0.4
	c0.1-0.2,0.2-0.5,0.2-0.7c0-0.3,0-0.6-0.2-0.8c-0.2-0.2-0.4-0.4-0.7-0.4H568V154.6z"/>
<path class="st2" d="M578.7,150.5h3.3l1.7,0.2c0.5,0.2,1,0.5,1.4,0.9c0.4,0.5,0.7,1,0.9,1.6c0.2,0.7,0.3,1.5,0.3,2.3
	c0,0.7-0.1,1.4-0.3,2.1c-0.2,0.6-0.5,1.2-1,1.7c-0.4,0.4-0.8,0.6-1.3,0.8l-1.6,0.2h-3.4L578.7,150.5z M580.5,152.2v6.5h2.5l0.7-0.4
	c0.3-0.3,0.4-0.6,0.5-1c0.1-0.6,0.2-1.2,0.2-1.8c0-0.6,0-1.2-0.2-1.8c-0.1-0.4-0.3-0.7-0.5-1c-0.2-0.2-0.5-0.4-0.8-0.5h-2.3H580.5z"
	/>
<path class="st2" d="M587.5,160.3v-9.8h1.8v9.8H587.5z"/>
<path class="st2" d="M590.5,160.3v-9.8h6.7v1.7h-4.8v2.2h4.5v1.6h-4.5v2.7h5v1.7L590.5,160.3z"/>
<path class="st2" d="M598.6,160.3v-9.8h2.7l1.6,6.7l1.6-6.7h2.7v9.8h-1.7v-7.7l-1.8,7.7H602l-1.8-7.7v7.7H598.6z"/>
<path class="st2" d="M637,160.3v-9.8h6.2v1.7h-4.3v2.3h3.7v1.7h-3.7v4.2L637,160.3z"/>
<path class="st2" d="M644.4,160.3v-9.8h6.6v1.7h-4.8v2.2h4.5v1.6h-4.5v2.7h5v1.7L644.4,160.3z"/>
<path class="st2" d="M652.5,160.3v-9.8h6.7v1.7h-4.8v2.2h4.5v1.6h-4.5v2.7h5v1.7L652.5,160.3z"/>
<path class="st2" d="M660.2,157.1l1.8-0.2c0,0.5,0.3,1,0.6,1.4c0.3,0.3,0.8,0.5,1.3,0.5c0.5,0,0.9-0.1,1.3-0.4
	c0.3-0.3,0.4-0.6,0.4-1c0-0.2-0.1-0.4-0.2-0.6l-0.7-0.4l-1.5-0.4c-0.7-0.2-1.4-0.5-2-1c-0.5-0.5-0.8-1.3-0.8-2c0-0.5,0.1-1,0.4-1.4
	c0.3-0.4,0.6-0.8,1.1-1c0.6-0.2,1.2-0.3,1.8-0.3c0.9-0.1,1.8,0.2,2.5,0.8c0.6,0.6,0.9,1.4,0.9,2.2h-1.8c0-0.4-0.2-0.8-0.5-1.1
	c-0.3-0.2-0.7-0.3-1.1-0.3c-0.4,0-0.9,0.1-1.2,0.4c-0.2,0.1-0.3,0.4-0.3,0.6c0,0.2,0.1,0.5,0.3,0.6c0.5,0.3,1.1,0.6,1.7,0.7l2,0.7
	c0.4,0.2,0.8,0.6,1,1c0.3,0.5,0.4,1,0.4,1.6c0,0.6-0.1,1.1-0.4,1.6c-0.3,0.5-0.7,0.9-1.2,1.1c-0.6,0.3-1.3,0.4-2,0.4
	c-1,0-1.9-0.3-2.6-0.9C660.7,159,660.3,158.1,660.2,157.1z"/>
<rect x="466.7" y="146.6" class="st3" width="245.8" height="17"/>
<path class="st2" d="M524.6,220.8v-1.9h3.4v1.9H524.6z"/>
<path class="st2" d="M613.1,220.8v-1.9h3.4v1.9H613.1z"/>
<path class="st2" d="M692.9,220.8v-1.9h3.4v1.9H692.9z"/>
<path class="st2" d="M505.2,238.6l1.7-0.2c0,0.4,0.1,0.8,0.4,1.1c0.4,0.4,1.1,0.5,1.6,0.1c0.1,0,0.1-0.1,0.1-0.2
	c0.3-0.3,0.4-0.8,0.4-1.2c0-0.4-0.1-0.8-0.3-1.1c-0.2-0.3-0.6-0.4-0.9-0.4h-0.8l0.2-1.5c0.4,0.1,0.8,0,1.1-0.3
	c0.3-0.2,0.4-0.6,0.4-0.9c0-0.3-0.1-0.6-0.3-0.8c-0.2-0.2-0.4-0.3-0.7-0.3c-0.3,0-0.6,0.1-0.8,0.3c-0.2,0.3-0.4,0.6-0.4,1l-1.6-0.3
	c0.1-0.5,0.2-1,0.5-1.4c0.2-0.3,0.5-0.6,0.9-0.8c0.4-0.2,0.8-0.3,1.3-0.3c0.8,0,1.5,0.3,2,0.9c0.4,0.4,0.6,1,0.6,1.6
	c0,0.9-0.5,1.7-1.3,2.1c0.5,0.1,0.9,0.4,1.2,0.8c0.3,0.4,0.5,1,0.5,1.5c0,0.8-0.3,1.6-0.9,2.2c-0.6,0.6-1.4,0.9-2.2,0.9
	c-0.7,0-1.5-0.3-2-0.8C505.4,240,505.2,239.3,505.2,238.6z"/>
<path class="st2" d="M514.8,231.3c0.8,0,1.5,0.4,2,1c1.2,2.5,1.2,5.5,0,8c-0.5,0.6-1.2,1-2,1c-0.8,0-1.6-0.4-2.1-1.1
	c-1.1-2.5-1-5.4,0.1-7.9C513.3,231.7,514,231.3,514.8,231.3z M514.8,232.9l-0.6,0.2c-0.2,0.2-0.4,0.5-0.4,0.8
	c-0.2,1.6-0.2,3.2,0,4.8c0,0.3,0.2,0.6,0.4,0.9l0.6,0.2l0.6-0.2c0.2-0.2,0.4-0.5,0.4-0.8c0.2-1.6,0.2-3.2,0-4.8
	c0-0.3-0.2-0.6-0.4-0.9L514.8,232.9z"/>
<path class="st2" d="M518.9,241.2v-1.9h1.7v1.9H518.9z"/>
<path class="st2" d="M525.1,231.3c0.8,0,1.5,0.4,2,1c1.2,2.5,1.2,5.5,0,8c-0.5,0.6-1.2,1-2,1c-0.8,0-1.6-0.4-2.1-1.1
	c-1.1-2.5-1-5.4,0.1-7.9C523.6,231.7,524.3,231.3,525.1,231.3z M525.1,232.9l-0.6,0.2c-0.2,0.2-0.4,0.5-0.4,0.8
	c-0.2,1.6-0.2,3.2,0,4.8c0,0.3,0.2,0.6,0.4,0.9l0.6,0.2l0.6-0.2c0.2-0.2,0.4-0.5,0.4-0.8c0.2-1.6,0.2-3.2,0-4.8
	c0-0.3-0.2-0.6-0.4-0.9L525.1,232.9z"/>
<path class="st2" d="M587.1,238.6l1.7-0.2c0,0.4,0.1,0.8,0.4,1.1c0.4,0.4,1.1,0.5,1.6,0.1c0.1,0,0.1-0.1,0.1-0.2
	c0.3-0.3,0.4-0.8,0.4-1.2c0-0.4-0.1-0.8-0.3-1.1c-0.2-0.3-0.6-0.4-0.9-0.4h-0.8l0.2-1.5c0.4,0.1,0.8,0,1.1-0.3
	c0.3-0.2,0.4-0.6,0.4-0.9c0-0.3-0.1-0.6-0.3-0.8c-0.2-0.2-0.4-0.3-0.7-0.3c-0.3,0-0.6,0.1-0.8,0.3c-0.2,0.3-0.4,0.6-0.4,1l-1.6-0.3
	c0.1-0.5,0.2-1,0.5-1.4c0.2-0.3,0.5-0.6,0.9-0.8c0.4-0.2,0.8-0.3,1.3-0.3c0.8,0,1.5,0.3,2,0.9c0.4,0.4,0.6,1,0.6,1.6
	c0,0.9-0.5,1.7-1.3,2.1c0.5,0.1,0.9,0.4,1.2,0.8c0.3,0.4,0.5,1,0.5,1.5c0,0.8-0.3,1.6-0.9,2.2c-0.6,0.6-1.4,0.9-2.2,0.9
	c-0.7,0-1.5-0.3-2-0.8C587.3,240,587.1,239.3,587.1,238.6z"/>
<path class="st2" d="M594.1,239.3h1.7v1.3c0,0.4,0,0.9-0.1,1.3c-0.1,0.3-0.3,0.6-0.5,0.8l-0.9,0.6l-0.3-0.8c0.3-0.1,0.5-0.3,0.7-0.5
	c0.1-0.3,0.2-0.6,0.2-0.9h-0.8L594.1,239.3z"/>
<path class="st2" d="M603.3,233.8l-1.7,0.2c0-0.3-0.1-0.6-0.3-0.8c-0.2-0.2-0.4-0.3-0.7-0.3c-0.4,0-0.7,0.2-0.9,0.5
	c-0.3,0.7-0.5,1.4-0.5,2.2c0.4-0.5,1-0.8,1.6-0.8c0.7,0,1.4,0.4,1.8,0.9c0.5,0.6,0.8,1.5,0.8,2.3c0,0.9-0.2,1.7-0.8,2.4
	c-0.5,0.6-1.3,0.9-2.1,0.9c-0.9,0-1.7-0.5-2.2-1.2c-0.7-1.1-1-2.5-0.9-3.8c-0.1-1.4,0.2-2.7,0.9-3.9c0.6-0.8,1.5-1.2,2.4-1.2
	c0.6,0,1.2,0.2,1.7,0.6C602.9,232.3,603.3,233,603.3,233.8z M599.4,237.9c0,0.5,0.1,1,0.4,1.4c0.2,0.3,0.5,0.5,0.9,0.5
	c0.3,0,0.6-0.1,0.8-0.4c0.2-0.4,0.3-0.8,0.3-1.3c0.1-0.5-0.1-1-0.3-1.4c-0.3-0.5-0.9-0.6-1.4-0.3c-0.1,0.1-0.2,0.2-0.3,0.3
	C599.5,237,599.4,237.5,599.4,237.9L599.4,237.9z"/>
<path class="st2" d="M604.2,233.3v-1.8h5.8v1.4c-0.6,0.7-1.1,1.5-1.5,2.3c-0.5,1-0.9,2-1.1,3.1c-0.3,1-0.4,2-0.4,3h-1.7
	c0-1.4,0.3-2.9,0.8-4.2c0.4-1.4,1.1-2.6,1.9-3.8H604.2z"/>
<path class="st2" d="M610.8,238.7l1.7-0.2c0,0.4,0.2,0.7,0.4,1c0.4,0.4,1.1,0.5,1.6,0.1c0.1,0,0.1-0.1,0.1-0.2
	c0.3-0.4,0.4-0.9,0.4-1.4c0-0.5-0.1-1-0.4-1.4c-0.2-0.3-0.6-0.5-1-0.5c-0.5,0-1,0.3-1.3,0.7l-1.4-0.2l0.9-5.1h4.6v1.8h-3.2L613,235
	c0.4-0.2,0.8-0.3,1.2-0.3c0.7,0,1.4,0.3,1.9,0.9c0.6,0.7,0.8,1.5,0.8,2.4c0,0.8-0.2,1.5-0.6,2.2c-0.5,0.8-1.4,1.3-2.4,1.3
	c-0.7,0-1.4-0.2-2-0.7C611.3,240.3,610.9,239.5,610.8,238.7z"/>
<path class="st2" d="M658,241.2h-1.7v-7.1c-0.6,0.6-1.4,1.1-2.2,1.4v-1.7c0.5-0.2,1.1-0.5,1.5-0.9c0.5-0.4,0.9-1,1.1-1.6h1.3V241.2z
	"/>
<path class="st2" d="M664.6,241.2h-1.7v-7.1c-0.6,0.6-1.4,1.1-2.2,1.4v-1.7c0.5-0.2,1.1-0.5,1.5-0.9c0.5-0.4,0.9-1,1.1-1.6h1.4
	L664.6,241.2z"/>
<path class="st2" d="M669.8,231.3c0.8,0,1.5,0.4,2,1c1.2,2.5,1.2,5.5,0,8c-0.5,0.6-1.2,1-2,1c-0.8,0-1.6-0.4-2.1-1.1
	c-1.1-2.5-1-5.4,0.1-7.9C668.3,231.7,669,231.3,669.8,231.3z M669.8,232.9l-0.6,0.2c-0.2,0.2-0.4,0.5-0.4,0.8
	c-0.2,1.6-0.2,3.2,0,4.8c0,0.3,0.2,0.6,0.4,0.9l0.6,0.2l0.6-0.2c0.2-0.2,0.4-0.5,0.4-0.8c0.2-1.6,0.2-3.2,0-4.8
	c0-0.3-0.2-0.6-0.4-0.9L669.8,232.9z"/>
<path class="st2" d="M673.9,239.3h1.7v1.3c0,0.4,0,0.9-0.1,1.3c-0.1,0.3-0.3,0.6-0.5,0.8l-0.9,0.6l-0.3-0.8c0.3-0.1,0.5-0.3,0.7-0.5
	c0.1-0.3,0.2-0.6,0.2-0.9h-0.8L673.9,239.3z"/>
<path class="st2" d="M683,239.5v1.8h-6c0.1-0.7,0.3-1.3,0.6-1.9c0.5-0.9,1.2-1.7,1.9-2.4l1.4-1.6c0.2-0.4,0.4-0.8,0.4-1.2
	c0-0.4-0.1-0.7-0.3-1c-0.5-0.5-1.2-0.5-1.7,0c0,0,0,0,0,0c-0.3,0.3-0.4,0.8-0.4,1.2l-1.7-0.2c0-0.8,0.4-1.6,1-2.2
	c0.6-0.5,1.3-0.7,2-0.7c0.8,0,1.5,0.3,2.1,0.8c0.5,0.5,0.8,1.3,0.8,2c0,0.4-0.1,0.9-0.2,1.3c-0.2,0.5-0.4,0.9-0.7,1.3l-1.1,1.3
	l-1,1.1l-0.4,0.5L683,239.5z"/>
<path class="st2" d="M689.7,233.8L688,234c0-0.3-0.1-0.6-0.3-0.8c-0.2-0.2-0.4-0.3-0.7-0.3c-0.4,0-0.7,0.2-0.9,0.5
	c-0.3,0.7-0.5,1.4-0.5,2.2c0.4-0.5,1-0.8,1.6-0.8c0.7,0,1.4,0.4,1.8,0.9c0.5,0.6,0.8,1.5,0.8,2.3c0,0.9-0.2,1.7-0.8,2.4
	c-0.5,0.6-1.3,0.9-2.1,0.9c-0.9,0-1.7-0.5-2.2-1.2c-0.7-1.1-1-2.5-0.9-3.8c-0.1-1.4,0.2-2.7,0.9-3.9c0.6-0.8,1.5-1.2,2.4-1.2
	c0.6,0,1.2,0.2,1.7,0.6C689.3,232.3,689.7,233,689.7,233.8z M685.8,237.9c0,0.5,0.1,1,0.4,1.4c0.2,0.3,0.5,0.5,0.9,0.5
	c0.3,0,0.6-0.1,0.8-0.4c0.2-0.4,0.3-0.8,0.3-1.3c0.1-0.5-0.1-1-0.3-1.4c-0.3-0.5-0.9-0.6-1.4-0.3c-0.1,0.1-0.2,0.2-0.3,0.3
	C685.9,237,685.8,237.5,685.8,237.9L685.8,237.9z"/>
<path class="st2" d="M693.4,231.3c0.8,0,1.5,0.4,2,1c1.2,2.5,1.2,5.5,0,8c-0.5,0.6-1.2,1-2,1c-0.8,0-1.6-0.4-2.1-1.1
	c-1.1-2.5-1-5.4,0.1-7.9C691.9,231.7,692.6,231.3,693.4,231.3z M693.4,232.9l-0.6,0.2c-0.2,0.2-0.4,0.5-0.4,0.8
	c-0.2,1.6-0.2,3.2,0,4.8c0,0.3,0.2,0.6,0.4,0.9l0.6,0.2l0.6-0.2c0.2-0.2,0.4-0.5,0.4-0.8c0.2-1.6,0.2-3.2,0-4.8
	c0-0.3-0.2-0.6-0.4-0.9L693.4,232.9z"/>
<path class="st2" d="M533.5,103.3l1.8,0.6c-0.2,0.9-0.6,1.8-1.3,2.4c-0.7,0.5-1.5,0.8-2.4,0.8c-1.1,0-2.2-0.5-2.9-1.3
	c-0.8-1-1.3-2.4-1.2-3.7c-0.1-1.4,0.4-2.7,1.2-3.8c0.7-0.9,1.8-1.4,3-1.4c1,0,2,0.4,2.7,1.1c0.4,0.5,0.8,1.1,0.9,1.8l-1.8,0.5
	c-0.1-0.5-0.3-0.9-0.7-1.2c-0.3-0.3-0.8-0.4-1.2-0.4c-0.6,0-1.2,0.3-1.6,0.8c-0.5,0.7-0.7,1.6-0.6,2.5c-0.1,0.9,0.1,1.9,0.6,2.7
	c0.4,0.5,1,0.8,1.6,0.8c0.5,0,0.9-0.2,1.2-0.5C533.2,104.5,533.5,103.9,533.5,103.3z"/>
<path class="st2" d="M536.6,107v-9.9h6.7v1.7h-4.8v2.2h4.5v1.7h-4.5v2.7h5v1.6H536.6z"/>
<path class="st2" d="M544.7,107v-9.9h3.8c0.7,0,1.4,0.1,2.1,0.3c0.4,0.2,0.8,0.5,1,0.9c0.3,0.5,0.4,1,0.4,1.6c0.1,1.4-1,2.6-2.4,2.7
	l1,0.8l1,1.6l1.1,1.9h-2.2l-1.3-2.1l-1-1.4l-0.5-0.4h-1.3v4H544.7z M546.5,101.3h3l0.5-0.4c0.1-0.2,0.2-0.5,0.2-0.7
	c0-0.3,0-0.6-0.2-0.8c-0.2-0.2-0.4-0.4-0.7-0.4h-2.7L546.5,101.3z"/>
<path class="st2" d="M560.1,109.9h-1.2c-0.6-1-1.1-2.1-1.4-3.2c-0.3-1-0.5-2.1-0.5-3.2c0-1.3,0.2-2.5,0.6-3.7c0.4-1,0.8-1.9,1.4-2.8
	h1.2c-0.5,1.1-0.9,2.3-1.2,3.5c-0.4,1.7-0.4,3.5-0.1,5.3c0.1,0.7,0.3,1.5,0.5,2.2L560.1,109.9z"/>
<path class="st2" d="M561.8,107v-9.8h1.8v8.1h4.5v1.7H561.8z"/>
<path class="st2" d="M569,107v-9.9h1.8v9.9H569z"/>
<path class="st2" d="M572.1,107v-9.9h6.2v1.7H574v2.3h3.7v1.7H574v4.2H572.1z"/>
<path class="st2" d="M579.4,107v-9.9h6.7v1.7h-4.8v2.2h4.5v1.7h-4.5v2.7h5v1.6H579.4z"/>
<path class="st2" d="M590.9,102.1c0-0.9,0.1-1.7,0.4-2.5c0.2-0.5,0.5-0.9,0.8-1.3c0.3-0.4,0.7-0.7,1.2-0.9c0.6-0.3,1.2-0.4,1.9-0.4
	c1.2-0.1,2.4,0.4,3.2,1.3c1.6,2.2,1.6,5.3,0,7.5c-1.7,1.7-4.5,1.8-6.2,0.1c0,0-0.1-0.1-0.1-0.1C591.3,104.8,590.8,103.4,590.9,102.1
	z M592.8,102c-0.1,0.9,0.2,1.8,0.7,2.5c0.8,1,2.2,1.2,3.2,0.4c0.1-0.1,0.3-0.2,0.4-0.4c0.5-0.8,0.8-1.7,0.7-2.6
	c0.1-0.9-0.2-1.8-0.7-2.5c-0.9-1-2.4-1.1-3.4-0.2c-0.1,0.1-0.1,0.1-0.2,0.2C593,100.2,592.7,101.1,592.8,102L592.8,102z"/>
<path class="st2" d="M600.9,107v-9.9h6.1v1.7h-4.3v2.3h3.7v1.7h-3.7v4.2H600.9z"/>
<path class="st2" d="M611.5,103.8l1.8-0.2c0,0.5,0.3,1,0.6,1.4c0.3,0.3,0.8,0.5,1.3,0.5c0.5,0,0.9-0.1,1.3-0.4
	c0.3-0.3,0.4-0.6,0.4-1c0-0.2-0.1-0.4-0.2-0.6l-0.7-0.4l-1.5-0.4c-0.7-0.2-1.4-0.5-2-1c-0.5-0.5-0.8-1.3-0.8-2c0-0.5,0.1-1,0.4-1.4
	c0.3-0.4,0.6-0.8,1.1-1c0.6-0.2,1.2-0.3,1.8-0.3c0.9-0.1,1.8,0.2,2.5,0.8c0.6,0.6,0.9,1.4,0.9,2.2h-1.8c0-0.4-0.2-0.8-0.5-1.1
	c-0.3-0.2-0.7-0.3-1.1-0.3c-0.4,0-0.9,0.1-1.2,0.4c-0.2,0.1-0.3,0.4-0.3,0.6c0,0.2,0.1,0.5,0.3,0.6c0.5,0.3,1.1,0.6,1.7,0.7l2,0.7
	c0.4,0.2,0.8,0.6,1,1c0.3,0.5,0.4,1,0.4,1.6c0,0.6-0.1,1.1-0.4,1.6c-0.3,0.5-0.7,0.9-1.2,1.1c-0.6,0.3-1.3,0.4-2,0.4
	c-1,0-1.9-0.3-2.6-0.9C612,105.7,611.6,104.8,611.5,103.8z"/>
<path class="st2" d="M622.1,107v-8.2h-2.7v-1.7h7.1v1.7h-2.7v8.2H622.1z"/>
<path class="st2" d="M627.4,97.1h1.8v5.3c0,0.5,0,1.1,0.1,1.6c0.1,0.4,0.3,0.8,0.6,1c0.3,0.3,0.8,0.4,1.2,0.4
	c0.4,0.1,0.9-0.1,1.2-0.3c0.3-0.2,0.4-0.5,0.5-0.8c0.1-0.6,0.1-1.1,0.1-1.7v-5.5h1.8v5.2c0,0.8,0,1.7-0.1,2.5
	c-0.1,0.4-0.2,0.8-0.5,1.2c-0.3,0.4-0.7,0.6-1.1,0.8c-0.5,0.2-1.1,0.3-1.7,0.3c-0.7,0-1.4-0.1-2-0.3c-0.8-0.3-1.4-1.1-1.6-1.9
	c-0.1-0.8-0.2-1.7-0.2-2.5L627.4,97.1z"/>
<path class="st2" d="M636.3,97.1h3.3l1.7,0.2c0.5,0.2,1,0.5,1.4,0.9c0.4,0.5,0.7,1,0.9,1.6c0.2,0.7,0.3,1.5,0.3,2.3
	c0,0.7-0.1,1.4-0.3,2.1c-0.2,0.6-0.5,1.2-1,1.7c-0.4,0.4-0.8,0.6-1.3,0.8l-1.6,0.2h-3.4L636.3,97.1z M638.1,98.8v6.5h2.5l0.7-0.4
	c0.3-0.3,0.4-0.6,0.5-1c0.1-0.6,0.2-1.2,0.2-1.8c0-0.6,0-1.2-0.2-1.8c-0.1-0.4-0.3-0.7-0.5-1c-0.2-0.2-0.5-0.4-0.8-0.5h-2.3
	L638.1,98.8z"/>
<path class="st2" d="M647.5,107v-4.1l-3.3-5.7h2.1l2.1,3.9l2.1-3.9h2.1l-3.3,5.7v4.1H647.5z"/>
<path class="st2" d="M652.1,109.9l0.7-1.8c0.2-0.5,0.3-1,0.4-1.5c0.1-0.5,0.2-1.1,0.3-1.6c0.1-0.5,0.1-1,0.1-1.5c0-1-0.1-2-0.3-3
	c-0.3-1.2-0.8-2.4-1.3-3.5h1.2c0.6,1,1.1,2,1.4,3.1c0.3,1.1,0.5,2.2,0.5,3.3c0,1-0.1,2-0.4,3c-0.3,1.3-0.8,2.5-1.5,3.6L652.1,109.9z
	"/>
<polygon class="st3" points="484,77.8 698.8,77.8 698.8,110.2 484,110.2 484,77.8 "/>
<polyline class="st2" points="484,77 484,77.8 699.5,77.8 699.5,77 484,77 "/>
<polyline class="st2" points="484,110.2 484,111 699.5,111 699.5,110.2 484,110.2 "/>
<g class="st0">
	
		<image style="overflow:visible;enable-background:new    ;" width="805" height="1217" xlink:href="E2592ADB.png"  transform="matrix(0.2385 0 0 0.2388 165.3 29.8)">
	</image>
</g>
<path class="st1" d="M320.9,65.8H201.6c0.1,26.2,0.3,53.3,0,55s0.7,104.8,0.1,107.9c-0.3,1.6-0.4,29.7-0.5,58.3
	c18.4-0.7,36.8-2.8,55.2-3.9c21.4-1.3,42.5,0.6,63.7,3.1c0.6-33.2,1.1-70,0.9-78.1C320.8,198.2,320.9,123.4,320.9,65.8z"/>
<polyline class="st2" points="484,163.6 484,164.4 531.3,164.4 531.3,163.6 484,163.6 "/>
<polyline class="st2" points="546,163.6 546,164.4 619.8,164.4 619.8,163.6 546,163.6 "/>
<polyline class="st2" points="633.1,163.6 633.1,164.4 699.5,164.4 699.5,163.6 633.1,163.6 "/>
<polyline class="st2" points="483.3,76.6 483.3,274.5 484,274.5 484,76.6 483.3,76.6 "/>
<polyline class="st2" points="698.8,77 698.8,274.5 699.5,274.5 699.5,77 698.8,77 "/>
<rect x="220.4" y="64.2" class="st3" width="110.2" height="23.6"/>
<path class="st2" d="M223.5,157.2v-9.9h1.8l3.7,6.6v-6.6h1.7v9.9h-1.8l-3.6-6.5v6.5H223.5z"/>
<path class="st2" d="M240.6,157.2h-2l-0.8-2.2h-3.6l-0.7,2.2h-1.9l3.5-9.9h1.9L240.6,157.2z M237.2,153.3l-1.2-3.7l-1.2,3.7H237.2z"
	/>
<path class="st2" d="M240.6,157.2v-9.9h2.7l1.6,6.8l1.6-6.8h2.7v9.9h-1.7v-7.8l-1.8,7.8h-1.8l-1.8-7.8v7.8H240.6z"/>
<path class="st2" d="M250.3,157.2v-9.9h6.7v1.7h-4.9v2.2h4.5v1.7h-4.5v2.7h5v1.7L250.3,157.2z"/>
<rect x="220.4" y="143.4" class="st3" width="110.2" height="17.1"/>
<path class="st2" d="M227.2,240v-9.9h1.8l3.7,6.6v-6.6h1.7v9.9h-1.8l-3.6-6.5v6.5H227.2z"/>
<path class="st2" d="M235.8,235.2c0-0.9,0.1-1.7,0.4-2.5c0.2-0.5,0.5-1,0.8-1.4c0.3-0.4,0.7-0.7,1.2-0.9c0.6-0.3,1.2-0.4,1.9-0.4
	c1.2,0,2.4,0.5,3.2,1.4c1.6,2.2,1.6,5.3,0,7.5c-1.7,1.8-4.5,1.8-6.2,0.2c-0.1-0.1-0.1-0.1-0.2-0.2
	C236.1,237.8,235.7,236.5,235.8,235.2z M237.7,235.1c-0.1,0.9,0.2,1.8,0.7,2.5c0.8,1,2.2,1.2,3.2,0.4c0.1-0.1,0.3-0.2,0.4-0.4
	c0.5-0.8,0.8-1.7,0.7-2.6c0.1-0.9-0.2-1.8-0.7-2.5c-0.9-1-2.4-1.1-3.4-0.2c-0.1,0.1-0.1,0.1-0.2,0.2
	C237.9,233.3,237.6,234.2,237.7,235.1L237.7,235.1z"/>
<path class="st2" d="M249.5,240v-9.9h1.8l3.7,6.6v-6.6h1.7v9.9h-1.8l-3.6-6.5v6.5H249.5z"/>
<path class="st2" d="M266.6,240h-2l-0.8-2.2h-3.6l-0.7,2.2h-1.9l3.5-9.9h1.9L266.6,240z M263.2,236.1l-1.2-3.7l-1.2,3.7H263.2z"/>
<path class="st2" d="M266.6,240v-9.9h2.7l1.6,6.8l1.6-6.8h2.7v9.9h-1.7v-7.8l-1.8,7.8h-1.8l-1.8-7.8v7.8H266.6z"/>
<path class="st2" d="M276.3,240v-9.9h6.7v1.7h-4.9v2.2h4.5v1.7h-4.5v2.7h5v1.6H276.3z"/>
<path class="st2" d="M301.5,160.5h-81.1v0.8h81L301.5,160.5z"/>
<path class="st2" d="M220.4,270.4V82.6h-1.5v187.7L220.4,270.4z"/>
<g class="st0">
	
		<image style="overflow:visible;enable-background:new    ;" width="696" height="1217" xlink:href="E2592ADE.png"  transform="matrix(0.2383 0 0 0.2392 302.9 29.8)">
	</image>
</g>
<path class="st1" d="M432.4,65.8h-93.5c0.3,21.7,0.8,55.1,0.8,60.1c0,5,0.9,33.4,0.7,45.7s0.4,98.1,0.1,103.4c5.4-1,10.5-4.1,16-3.8
	s12.3,4.4,18.6,7.4s13.5,3.4,20.1,5.3l2.1,0.7c11.8-3.7,23.5-8.1,35.3-10.9c0-51.7,0-108.5-0.1-119.7S432.4,104.6,432.4,65.8z"/>
<rect x="206" y="206.3" class="st4" width="500.5" height="19"/>
<path class="st2" d="M360.3,155.1v-9.9h5.1c0.5,0.2,1,0.5,1.3,1c0.4,0.6,0.5,1.2,0.5,1.9c0,0.5-0.1,1-0.3,1.5
	c-0.2,0.4-0.5,0.7-0.8,1l-0.9,0.5h-3.1v3.7L360.3,155.1z M362.1,146.9v2.8h1l1.4-0.2c0.3-0.1,0.5-0.3,0.6-0.5
	c0.1-0.2,0.2-0.5,0.2-0.8c0-0.3-0.1-0.6-0.3-0.9c-0.2-0.2-0.4-0.4-0.7-0.4L362.1,146.9L362.1,146.9z"/>
<path class="st2" d="M368.1,150.2c0-0.9,0.1-1.7,0.4-2.5c0.2-0.5,0.5-1,0.8-1.4c0.3-0.4,0.7-0.7,1.2-0.9c0.6-0.3,1.2-0.4,1.9-0.4
	c1.2,0,2.4,0.5,3.2,1.4c1.6,2.2,1.6,5.3,0,7.5c-1.7,1.8-4.5,1.8-6.2,0.2c-0.1-0.1-0.1-0.1-0.2-0.2
	C368.4,152.8,368,151.5,368.1,150.2z M370,150.1c-0.1,0.9,0.2,1.8,0.7,2.5c0.8,1,2.2,1.2,3.2,0.4c0.1-0.1,0.3-0.2,0.4-0.4
	c0.5-0.8,0.8-1.7,0.7-2.6c0.1-0.9-0.2-1.8-0.7-2.5c-0.9-1-2.4-1.1-3.4-0.2c-0.1,0.1-0.1,0.1-0.2,0.2c-0.6,0.8-0.9,1.7-0.8,2.7
	L370,150.1z"/>
<path class="st2" d="M377.6,151.9l1.8-0.2c0.1,0.5,0.3,1,0.7,1.4c0.4,0.3,0.8,0.5,1.3,0.5c0.5,0,0.9-0.1,1.3-0.4
	c0.3-0.3,0.4-0.6,0.4-1c0-0.2-0.1-0.4-0.2-0.6l-0.7-0.4l-1.5-0.4c-0.8-0.2-1.5-0.5-2.1-1c-0.5-0.5-0.8-1.3-0.8-2
	c0-0.5,0.1-1,0.4-1.4c0.3-0.4,0.6-0.8,1.1-1c0.6-0.2,1.2-0.3,1.8-0.3c0.9-0.1,1.9,0.2,2.6,0.8c0.6,0.6,0.9,1.4,0.9,2.2h-1.8
	c0-0.4-0.2-0.8-0.5-1.1c-0.3-0.2-0.8-0.4-1.2-0.3c-0.4,0-0.9,0.1-1.2,0.4c-0.2,0.1-0.3,0.4-0.3,0.6c0,0.2,0.1,0.5,0.3,0.6
	c0.5,0.3,1.1,0.6,1.7,0.7l2,0.7c0.4,0.2,0.8,0.6,1,1c0.3,0.5,0.4,1,0.4,1.6c0,0.6-0.1,1.1-0.4,1.6c-0.3,0.5-0.7,0.9-1.2,1.1
	c-0.6,0.3-1.3,0.4-2,0.4c-1,0-1.9-0.3-2.6-0.9C378.1,153.8,377.7,152.9,377.6,151.9z"/>
<path class="st2" d="M386.2,155.1v-9.9h1.8v9.9H386.2z"/>
<path class="st2" d="M391.3,155.1v-8.2h-2.7v-1.7h7.2v1.7h-2.7v8.2H391.3z"/>
<path class="st2" d="M396.6,155.1v-9.9h1.8v9.9H396.6z"/>
<path class="st2" d="M399.3,150.2c0-0.9,0.1-1.7,0.4-2.5c0.2-0.5,0.5-1,0.8-1.4c0.3-0.4,0.7-0.7,1.2-0.9c0.6-0.3,1.2-0.4,1.9-0.4
	c1.2,0,2.4,0.5,3.2,1.4c1.6,2.2,1.6,5.3,0,7.5c-1.7,1.8-4.5,1.8-6.2,0.2c-0.1-0.1-0.1-0.1-0.2-0.2
	C399.6,152.8,399.2,151.5,399.3,150.2z M401.2,150.1c-0.1,0.9,0.2,1.8,0.7,2.5c0.8,1,2.2,1.2,3.2,0.4c0.1-0.1,0.3-0.2,0.4-0.4
	c0.5-0.8,0.8-1.7,0.7-2.6c0.1-0.9-0.2-1.8-0.7-2.5c-0.9-1-2.4-1.1-3.4-0.2c-0.1,0.1-0.1,0.1-0.2,0.2c-0.5,0.8-0.8,1.7-0.7,2.7
	L401.2,150.1z"/>
<path class="st2" d="M409.3,155.1v-9.9h1.8l3.7,6.6v-6.6h1.7v9.9h-1.8l-3.6-6.5v6.5H409.3z"/>
<path class="st2" d="M380.5,236.6h-2.1l-0.8-2.3h-3.7l-0.8,2.3h-2l3.6-10.2h2L380.5,236.6z M377,232.5l-1.3-3.8l-1.3,3.8H377z"/>
<path class="st2" d="M380.5,236.6v-10.2h3l2.2,0.2c0.5,0.2,1,0.5,1.3,1c0.4,0.6,0.5,1.3,0.5,2c0,0.5-0.1,1.1-0.3,1.6
	c-0.2,0.4-0.5,0.7-0.8,1l-1,0.5h-3.2v3.9L380.5,236.6z M382.4,228.1v2.9h1l1.5-0.2c0.2-0.1,0.5-0.3,0.6-0.5c0.1-0.2,0.2-0.5,0.2-0.8
	c0-0.3-0.1-0.6-0.3-0.9c-0.2-0.3-0.5-0.4-0.8-0.5H382.4L382.4,228.1z"/>
<polyline class="st2" points="356.7,158 356.7,158.8 417.5,158.8 417.5,158 356.7,158 "/>
<path class="st2" d="M228.2,222.1v-9.9h5.1c0.5,0.2,1,0.5,1.3,1c0.4,0.6,0.5,1.2,0.5,1.9c0,0.5-0.1,1-0.3,1.5
	c-0.2,0.4-0.5,0.7-0.8,1l-0.9,0.5H230v3.7L228.2,222.1z M230,213.9v2.8h1l1.4-0.2c0.3-0.1,0.5-0.3,0.6-0.5c0.1-0.2,0.2-0.5,0.2-0.8
	c0-0.3-0.1-0.6-0.3-0.9c-0.2-0.2-0.4-0.4-0.7-0.4L230,213.9L230,213.9z"/>
<path class="st2" d="M240.2,219.8l1.7,0.3c-0.2,0.6-0.6,1.2-1.1,1.6c-0.5,0.4-1.2,0.5-1.8,0.5c-1,0.1-1.9-0.4-2.5-1.2
	c-0.4-0.8-0.7-1.6-0.6-2.5c0-1,0.3-2,0.9-2.8c0.5-0.7,1.4-1,2.2-1c0.9,0,1.8,0.4,2.3,1.1c0.6,0.9,0.9,2.1,0.8,3.2h-4.3
	c0,0.5,0.1,0.9,0.4,1.3c0.2,0.3,0.6,0.5,1,0.5l0.7-0.2C240.1,220.4,240.2,220.1,240.2,219.8z M240.3,217.9c0-0.5-0.1-0.9-0.4-1.3
	c-0.4-0.5-1.2-0.5-1.7-0.1c0,0-0.1,0.1-0.1,0.1c-0.3,0.3-0.4,0.8-0.4,1.2L240.3,217.9z"/>
<path class="st2" d="M244.7,222.1H243V215h1.6v1c0.2-0.4,0.4-0.7,0.7-1l0.7-0.2c0.4,0,0.8,0.2,1.1,0.4l-0.5,1.7l-0.8-0.3l-0.6,0.2
	c-0.2,0.2-0.4,0.5-0.4,0.8c-0.1,0.8-0.1,1.6-0.1,2.4V222.1z"/>
<path class="st2" d="M247.7,220.1l1.7-0.3c0.1,0.7,0.7,1.2,1.4,1.1c0.4,0,0.7-0.1,1-0.3c0.1-0.1,0.2-0.3,0.2-0.5
	c0-0.1,0-0.3-0.1-0.4l-0.6-0.2c-0.9-0.2-1.9-0.5-2.7-0.9c-0.5-0.4-0.8-1-0.8-1.6c0-0.6,0.2-1.2,0.7-1.6c0.6-0.5,1.3-0.7,2.1-0.6
	c0.7,0,1.4,0.1,2,0.5c0.5,0.4,0.8,0.8,0.9,1.4l-1.6,0.3c-0.1-0.2-0.2-0.5-0.4-0.6l-0.8-0.2l-1,0.2c-0.1,0.1-0.2,0.2-0.2,0.4
	c0,0.1,0.1,0.2,0.2,0.3l1.6,0.5c0.7,0.1,1.3,0.4,1.9,0.8c0.4,0.4,0.5,0.9,0.5,1.4c0,0.7-0.3,1.3-0.8,1.7c-0.6,0.5-1.4,0.8-2.2,0.7
	c-0.7,0-1.5-0.2-2.1-0.6C248.1,221.2,247.8,220.7,247.7,220.1z"/>
<path class="st2" d="M254.6,218.4c0-0.6,0.1-1.2,0.4-1.8c0.2-0.6,0.7-1.1,1.2-1.4c0.5-0.3,1.1-0.5,1.7-0.5c0.9,0,1.8,0.4,2.4,1.1
	c0.6,0.7,1,1.7,0.9,2.7c0,1-0.3,2-1,2.7c-0.6,0.7-1.5,1.1-2.4,1.1c-0.6,0-1.2-0.1-1.7-0.4c-0.5-0.3-0.9-0.8-1.2-1.3
	C254.6,219.9,254.5,219.1,254.6,218.4z M256.4,218.5c0,0.6,0.2,1.1,0.5,1.6c0.4,0.6,1.3,0.8,1.9,0.4c0.1-0.1,0.3-0.2,0.4-0.4
	c0.3-0.5,0.5-1,0.5-1.6c0-0.6-0.2-1.1-0.5-1.6c-0.4-0.6-1.3-0.8-1.9-0.4c-0.1,0.1-0.3,0.2-0.4,0.4c-0.4,0.4-0.6,1-0.6,1.6H256.4z"/>
<path class="st2" d="M268.3,222.1h-1.7v-3.7c0-0.5,0-1-0.1-1.5c-0.1-0.2-0.2-0.4-0.4-0.5l-0.6-0.2c-0.3,0-0.6,0.1-0.8,0.3
	c-0.2,0.2-0.4,0.4-0.5,0.7c-0.1,0.5-0.1,1.1-0.1,1.6v3.2h-1.7v-7h1.6v1c0.5-0.8,1.3-1.2,2.2-1.2l1,0.2c0.3,0.1,0.5,0.3,0.7,0.6
	c0.2,0.2,0.3,0.5,0.3,0.8c0.1,0.4,0.1,0.9,0.1,1.3L268.3,222.1z"/>
<path class="st2" d="M277.1,216.3c-0.5-0.2-0.9-0.5-1.2-1c-0.3-0.4-0.4-0.8-0.4-1.3c0-0.8,0.3-1.6,0.9-2.1c1.5-1.1,3.4-1.1,4.9,0
	c0.6,0.5,0.9,1.3,0.9,2.1c0,0.5-0.1,1-0.4,1.4c-0.3,0.4-0.7,0.7-1.1,0.9c0.6,0.2,1.1,0.6,1.4,1.1c0.3,0.5,0.5,1.1,0.5,1.7
	c0,0.9-0.3,1.8-1,2.5c-0.7,0.7-1.6,1-2.6,1c-0.9,0-1.8-0.3-2.5-0.8c-0.8-0.6-1.2-1.6-1.2-2.6c0-0.6,0.1-1.2,0.4-1.7
	C276,217,276.5,216.5,277.1,216.3z M277.3,218.9c0,0.5,0.1,1,0.4,1.4c0.3,0.3,0.7,0.5,1.1,0.5c0.4,0,0.8-0.2,1.1-0.5
	c0.3-0.4,0.4-0.9,0.4-1.4c0-0.5-0.1-0.9-0.4-1.3c-0.3-0.3-0.7-0.5-1.1-0.5c-0.5-0.1-0.9,0.1-1.2,0.5
	C277.4,218,277.2,218.4,277.3,218.9L277.3,218.9z M277.5,214.1c0,0.4,0.1,0.7,0.4,1c0.3,0.3,0.6,0.4,1,0.4c0.4,0,0.7-0.1,1-0.4
	c0.3-0.3,0.4-0.6,0.4-1c0-0.4-0.1-0.7-0.4-1c-0.2-0.2-0.6-0.4-0.9-0.4c-0.4,0-0.7,0.1-1,0.4C277.7,213.3,277.5,213.7,277.5,214.1
	L277.5,214.1z"/>
<path class="st2" d="M380.9,221.4h-2.1L378,219h-3.7l-0.8,2.3h-2l3.6-10.2h2L380.9,221.4z M377.4,217.3l-1.3-3.8l-1.3,3.8H377.4z"/>
<path class="st2" d="M380.9,221.4v-10.3h3l2.2,0.2c0.5,0.2,1,0.5,1.3,1c0.4,0.6,0.5,1.3,0.5,2c0,0.5-0.1,1.1-0.3,1.6
	c-0.2,0.4-0.5,0.7-0.8,1l-1,0.5h-3.2v3.9L380.9,221.4z M382.8,212.9v2.9h1l1.5-0.2c0.2-0.1,0.5-0.3,0.6-0.5c0.1-0.2,0.2-0.5,0.2-0.8
	c0-0.3-0.1-0.6-0.3-0.9c-0.2-0.3-0.5-0.4-0.8-0.5H382.8L382.8,212.9z"/>
</svg>
