<?xml version="1.0" encoding="utf-8"?>
<!-- Generator: Adobe Illustrator 21.0.2, SVG Export Plug-In . SVG Version: 6.00 Build 0)  -->
<svg version="1.1" id="Layer_1" xmlns="http://www.w3.org/2000/svg" xmlns:xlink="http://www.w3.org/1999/xlink" x="0px" y="0px"
	 viewBox="0 0 900 375" style="enable-background:new 0 0 900 375;" xml:space="preserve">
<style type="text/css">
	.st0{fill-rule:evenodd;clip-rule:evenodd;fill:#FFFFFF;stroke:#A7A9AC;stroke-miterlimit:10;}
	.st1{fill-rule:evenodd;clip-rule:evenodd;fill:#E6E7E8;}
	.st2{fill:#808285;}
	.st3{fill:#B0B0B0;}
	.st4{fill:#010101;}
	.st5{fill:none;stroke:#010101;stroke-width:0;stroke-linecap:square;stroke-miterlimit:10;}
	.st6{fill-rule:evenodd;clip-rule:evenodd;fill:#D1D3D4;}
	.st7{fill:none;stroke:#D1D3D4;stroke-miterlimit:10;}
	.st8{opacity:0.12;fill:#27AAE1;}
	.st9{opacity:0.4;}
	.st10{fill:#F3F3F3;}
	.st11{fill-rule:evenodd;clip-rule:evenodd;fill:#D9D9D8;}
	.st12{fill-rule:evenodd;clip-rule:evenodd;fill:none;}
	.st13{fill-rule:evenodd;clip-rule:evenodd;fill:#010101;}
	.st14{fill:none;stroke:#0F8140;stroke-width:0;stroke-linecap:square;stroke-miterlimit:10;}
	.st15{fill-rule:evenodd;clip-rule:evenodd;fill:#0F8140;}
	.st16{opacity:0.47;fill:#F9ED32;}
</style>
<g>
	<rect x="229.5" y="32.2" class="st0" width="471.2" height="304.4"/>
	<polyline class="st1" points="494.4,110.3 494.4,205.8 565.6,205.8 565.6,110.3 494.4,110.3 	"/>
	<polyline class="st1" points="647.5,110.1 647.5,205.6 675.6,205.6 675.6,110.1 647.5,110.1 	"/>
	<polyline class="st1" points="244.5,259.1 244.5,304.9 624.3,304.9 624.3,259.1 244.5,259.1 	"/>
	<g>
		<g>
			<path class="st2" d="M428.2,51.8l2.1,0.7c-0.3,1.2-0.9,2.1-1.6,2.7c-0.8,0.6-1.7,0.9-2.9,0.9c-1.4,0-2.6-0.5-3.5-1.5
				c-0.9-1-1.4-2.3-1.4-4.1c0-1.8,0.5-3.2,1.4-4.2c0.9-1,2.1-1.5,3.7-1.5c1.3,0,2.4,0.4,3.2,1.2c0.5,0.5,0.9,1.1,1.1,2l-2.2,0.5
				c-0.1-0.6-0.4-1-0.8-1.3c-0.4-0.3-0.9-0.5-1.5-0.5c-0.8,0-1.4,0.3-1.9,0.9c-0.5,0.6-0.7,1.5-0.7,2.8c0,1.4,0.2,2.4,0.7,2.9
				c0.5,0.6,1.1,0.9,1.9,0.9c0.6,0,1.1-0.2,1.5-0.6C427.7,53.1,428,52.6,428.2,51.8z"/>
			<path class="st2" d="M431.9,55.8V44.9h2.2v9h5.4v1.8H431.9z"/>
			<path class="st2" d="M440.8,55.8V44.9h2.2v10.9H440.8z"/>
			<path class="st2" d="M444.7,55.8V44.9h8v1.8h-5.8v2.4h5.4V51h-5.4v3h6v1.8H444.7z"/>
			<path class="st2" d="M454.5,55.8V44.9h2.1l4.4,7.3v-7.3h2v10.9h-2.2l-4.3-7.1v7.1H454.5z"/>
			<path class="st2" d="M467.4,55.8v-9.1h-3.2v-1.8h8.6v1.8h-3.2v9.1H467.4z"/>
			<path class="st2" d="M480.8,55.8l-2.6-10.9h2.2l1.6,7.5l2-7.5h2.6l1.9,7.6l1.7-7.6h2.2l-2.6,10.9h-2.3l-2.1-8.2l-2.1,8.2H480.8z"
				/>
			<path class="st2" d="M493.5,55.8V44.9h2.2v10.9H493.5z"/>
			<path class="st2" d="M497.4,55.8V44.9h3.5c1.3,0,2.2,0.1,2.6,0.2c0.6,0.2,1.1,0.5,1.5,1.1c0.4,0.5,0.6,1.3,0.6,2.1
				c0,0.7-0.1,1.2-0.4,1.7c-0.2,0.5-0.5,0.8-0.9,1.1c-0.4,0.3-0.7,0.4-1.1,0.5c-0.5,0.1-1.3,0.2-2.3,0.2h-1.4v4.1H497.4z
				 M499.6,46.7v3.1h1.2c0.9,0,1.4-0.1,1.7-0.2c0.3-0.1,0.5-0.3,0.7-0.5s0.2-0.5,0.2-0.8c0-0.4-0.1-0.7-0.3-1
				c-0.2-0.3-0.5-0.4-0.9-0.5c-0.3,0-0.8-0.1-1.6-0.1H499.6z"/>
			<path class="st2" d="M399.9,76.7V66.3h-3.7v-2.1h9.8v2.1h-3.6v10.4H399.9z"/>
			<path class="st2" d="M407.6,76.7V64.2h2.5v12.5H407.6z"/>
			<path class="st2" d="M412.4,76.7V64.2h3.7l2.2,8.5l2.2-8.5h3.7v12.5H422v-9.8l-2.4,9.8h-2.4l-2.4-9.8v9.8H412.4z"/>
			<path class="st2" d="M426.8,76.7V64.2h9.1v2.1h-6.6v2.8h6.2v2.1h-6.2v3.4h6.9v2.1H426.8z"/>
			<path class="st2" d="M442.4,72.6l2.4-0.2c0.1,0.8,0.4,1.4,0.9,1.8c0.4,0.4,1,0.6,1.8,0.6c0.8,0,1.4-0.2,1.8-0.5
				c0.4-0.3,0.6-0.7,0.6-1.2c0-0.3-0.1-0.5-0.3-0.8s-0.5-0.4-0.9-0.5c-0.3-0.1-1-0.3-2-0.5c-1.3-0.3-2.3-0.7-2.8-1.2
				c-0.8-0.7-1.1-1.5-1.1-2.5c0-0.6,0.2-1.2,0.5-1.8s0.9-1,1.5-1.3c0.7-0.3,1.5-0.4,2.4-0.4c1.5,0,2.7,0.3,3.5,1
				c0.8,0.7,1.2,1.6,1.2,2.7l-2.5,0.1c-0.1-0.6-0.3-1.1-0.7-1.4c-0.3-0.3-0.9-0.4-1.6-0.4c-0.7,0-1.3,0.2-1.7,0.5
				c-0.3,0.2-0.4,0.5-0.4,0.8c0,0.3,0.1,0.5,0.4,0.8c0.3,0.3,1.1,0.5,2.3,0.8c1.2,0.3,2.1,0.6,2.7,0.9c0.6,0.3,1,0.7,1.4,1.3
				c0.3,0.5,0.5,1.2,0.5,2c0,0.7-0.2,1.4-0.6,2c-0.4,0.6-0.9,1.1-1.7,1.4c-0.7,0.3-1.6,0.5-2.7,0.5c-1.6,0-2.8-0.4-3.6-1.1
				C443.1,75.1,442.6,74,442.4,72.6z"/>
			<path class="st2" d="M454.5,64.2h2.5V71c0,1.1,0,1.8,0.1,2.1c0.1,0.5,0.4,0.9,0.8,1.2c0.4,0.3,0.9,0.5,1.6,0.5
				c0.7,0,1.2-0.1,1.6-0.4s0.6-0.7,0.6-1.1c0.1-0.4,0.1-1.1,0.1-2.1v-6.9h2.5v6.5c0,1.5-0.1,2.6-0.2,3.2c-0.1,0.6-0.4,1.1-0.7,1.6
				c-0.4,0.4-0.8,0.8-1.4,1c-0.6,0.3-1.4,0.4-2.4,0.4c-1.2,0-2.1-0.1-2.7-0.4c-0.6-0.3-1.1-0.6-1.4-1.1c-0.4-0.4-0.6-0.9-0.7-1.4
				c-0.2-0.7-0.2-1.8-0.2-3.2V64.2z"/>
			<path class="st2" d="M466.9,76.7V64.2h3.7l2.2,8.5l2.2-8.5h3.7v12.5h-2.3v-9.8l-2.4,9.8h-2.4l-2.4-9.8v9.8H466.9z"/>
			<path class="st2" d="M481.2,76.7V64.2h3.7l2.2,8.5l2.2-8.5h3.7v12.5h-2.3v-9.8l-2.4,9.8H486l-2.4-9.8v9.8H481.2z"/>
			<path class="st2" d="M506.7,76.7H504l-1.1-2.8H498l-1,2.8h-2.6l4.8-12.5h2.6L506.7,76.7z M502.1,71.7l-1.7-4.6l-1.7,4.6H502.1z"
				/>
			<path class="st2" d="M508,76.7V64.2h5.2c1.3,0,2.3,0.1,2.9,0.3c0.6,0.2,1.1,0.6,1.4,1.2c0.4,0.6,0.5,1.2,0.5,2
				c0,0.9-0.3,1.7-0.8,2.3c-0.5,0.6-1.4,1-2.4,1.2c0.5,0.3,1,0.7,1.3,1c0.3,0.4,0.8,1.1,1.4,2l1.5,2.4h-3l-1.8-2.7
				c-0.6-1-1.1-1.6-1.3-1.8c-0.2-0.3-0.5-0.4-0.7-0.5c-0.3-0.1-0.7-0.1-1.3-0.1h-0.5v5.2H508z M510.5,69.5h1.8
				c1.2,0,1.9-0.1,2.2-0.2c0.3-0.1,0.5-0.3,0.7-0.5c0.2-0.3,0.3-0.6,0.3-0.9c0-0.4-0.1-0.8-0.3-1c-0.2-0.3-0.5-0.4-0.9-0.5
				c-0.2,0-0.8,0-1.8,0h-1.9V69.5z"/>
			<path class="st2" d="M523.7,76.7v-5.2l-4.5-7.2h2.9l2.9,4.9l2.8-4.9h2.9l-4.5,7.2v5.2H523.7z"/>
		</g>
	</g>
	<g>
		<g>
			<path class="st3" d="M257.2,99.9l2.1,0.7c-0.3,1.2-0.9,2.1-1.6,2.7c-0.8,0.6-1.7,0.9-2.9,0.9c-1.4,0-2.6-0.5-3.5-1.5
				c-0.9-1-1.4-2.3-1.4-4.1c0-1.8,0.5-3.2,1.4-4.2c0.9-1,2.1-1.5,3.7-1.5c1.3,0,2.4,0.4,3.2,1.2c0.5,0.5,0.9,1.1,1.1,2l-2.2,0.5
				c-0.1-0.6-0.4-1-0.8-1.3c-0.4-0.3-0.9-0.5-1.5-0.5c-0.8,0-1.4,0.3-1.9,0.9c-0.5,0.6-0.7,1.5-0.7,2.8c0,1.4,0.2,2.4,0.7,2.9
				c0.5,0.6,1.1,0.9,1.9,0.9c0.6,0,1.1-0.2,1.5-0.6C256.8,101.3,257.1,100.7,257.2,99.9z"/>
			<path class="st3" d="M260.4,100.4l2.1-0.2c0.1,0.7,0.4,1.2,0.8,1.6c0.4,0.3,0.9,0.5,1.6,0.5c0.7,0,1.2-0.1,1.6-0.5
				c0.4-0.3,0.5-0.7,0.5-1.1c0-0.3-0.1-0.5-0.2-0.7c-0.1-0.2-0.4-0.3-0.8-0.5c-0.3-0.1-0.8-0.2-1.7-0.5c-1.2-0.3-2-0.7-2.5-1.1
				c-0.7-0.6-1-1.3-1-2.2c0-0.6,0.2-1.1,0.5-1.6c0.3-0.5,0.8-0.9,1.3-1.1s1.3-0.4,2.1-0.4c1.4,0,2.4,0.3,3.1,0.9
				c0.7,0.6,1,1.4,1.1,2.4l-2.2,0.1c-0.1-0.6-0.3-1-0.6-1.2c-0.3-0.2-0.8-0.4-1.4-0.4c-0.6,0-1.1,0.1-1.5,0.4
				c-0.2,0.2-0.3,0.4-0.3,0.7c0,0.3,0.1,0.5,0.3,0.7c0.3,0.2,0.9,0.5,2,0.7c1.1,0.3,1.8,0.5,2.3,0.8c0.5,0.3,0.9,0.6,1.2,1.1
				s0.4,1,0.4,1.7c0,0.6-0.2,1.2-0.5,1.8s-0.8,1-1.5,1.2c-0.6,0.3-1.4,0.4-2.3,0.4c-1.4,0-2.4-0.3-3.1-1S260.6,101.6,260.4,100.4z"
				/>
			<path class="st3" d="M270.2,100.4l2.1-0.2c0.1,0.7,0.4,1.2,0.8,1.6c0.4,0.3,0.9,0.5,1.6,0.5c0.7,0,1.2-0.1,1.6-0.5
				c0.4-0.3,0.5-0.7,0.5-1.1c0-0.3-0.1-0.5-0.2-0.7c-0.1-0.2-0.4-0.3-0.8-0.5c-0.3-0.1-0.8-0.2-1.7-0.5c-1.2-0.3-2-0.7-2.5-1.1
				c-0.7-0.6-1-1.3-1-2.2c0-0.6,0.2-1.1,0.5-1.6c0.3-0.5,0.8-0.9,1.3-1.1s1.3-0.4,2.1-0.4c1.4,0,2.4,0.3,3.1,0.9
				c0.7,0.6,1,1.4,1.1,2.4l-2.2,0.1c-0.1-0.6-0.3-1-0.6-1.2c-0.3-0.2-0.8-0.4-1.4-0.4c-0.6,0-1.1,0.1-1.5,0.4
				c-0.2,0.2-0.3,0.4-0.3,0.7c0,0.3,0.1,0.5,0.3,0.7c0.3,0.2,0.9,0.5,2,0.7c1.1,0.3,1.8,0.5,2.3,0.8c0.5,0.3,0.9,0.6,1.2,1.1
				s0.4,1,0.4,1.7c0,0.6-0.2,1.2-0.5,1.8s-0.8,1-1.5,1.2c-0.6,0.3-1.4,0.4-2.3,0.4c-1.4,0-2.4-0.3-3.1-1S270.3,101.6,270.2,100.4z"
				/>
			<path class="st3" d="M287.3,103.9v-9.1h-3.2V93h8.6v1.8h-3.2v9.1H287.3z"/>
			<path class="st3" d="M293.7,103.9V93h2.2v10.9H293.7z"/>
			<path class="st3" d="M297.3,103.9V93h3.3l2,7.4l1.9-7.4h3.3v10.9h-2v-8.6l-2.1,8.6h-2.1l-2.1-8.6v8.6H297.3z"/>
			<path class="st3" d="M308.8,103.9V93h8v1.8H311v2.4h5.4v1.8H311v3h6v1.8H308.8z"/>
		</g>
	</g>
	<g>
		<path class="st4" d="M486.8,182.4v-0.6h1.1v0.6H486.8z"/>
	</g>
	<polyline class="st1" points="419.5,110.1 419.5,205.7 489,205.7 489,110.1 419.5,110.1 	"/>
	<g>
		<g>
			<path class="st3" d="M257.2,249.2l2.1,0.7c-0.3,1.2-0.9,2.1-1.6,2.7c-0.8,0.6-1.7,0.9-2.9,0.9c-1.4,0-2.6-0.5-3.5-1.5
				c-0.9-1-1.4-2.3-1.4-4.1c0-1.8,0.5-3.2,1.4-4.2c0.9-1,2.1-1.5,3.7-1.5c1.3,0,2.4,0.4,3.2,1.2c0.5,0.5,0.9,1.1,1.1,2l-2.2,0.5
				c-0.1-0.6-0.4-1-0.8-1.3c-0.4-0.3-0.9-0.5-1.5-0.5c-0.8,0-1.4,0.3-1.9,0.9c-0.5,0.6-0.7,1.5-0.7,2.8c0,1.4,0.2,2.4,0.7,2.9
				c0.5,0.6,1.1,0.9,1.9,0.9c0.6,0,1.1-0.2,1.5-0.6C256.8,250.5,257.1,250,257.2,249.2z"/>
			<path class="st3" d="M260.4,249.6l2.1-0.2c0.1,0.7,0.4,1.2,0.8,1.6c0.4,0.3,0.9,0.5,1.6,0.5c0.7,0,1.2-0.2,1.6-0.5
				c0.4-0.3,0.5-0.7,0.5-1.1c0-0.3-0.1-0.5-0.2-0.7c-0.1-0.2-0.4-0.3-0.8-0.5c-0.3-0.1-0.8-0.2-1.7-0.5c-1.2-0.3-2-0.7-2.5-1.1
				c-0.7-0.6-1-1.3-1-2.2c0-0.6,0.2-1.1,0.5-1.6c0.3-0.5,0.8-0.9,1.3-1.1s1.3-0.4,2.1-0.4c1.4,0,2.4,0.3,3.1,0.9
				c0.7,0.6,1,1.4,1.1,2.4l-2.2,0.1c-0.1-0.6-0.3-1-0.6-1.2c-0.3-0.2-0.8-0.4-1.4-0.4c-0.6,0-1.1,0.1-1.5,0.4
				c-0.2,0.2-0.3,0.4-0.3,0.7c0,0.3,0.1,0.5,0.3,0.7c0.3,0.2,0.9,0.5,2,0.7c1.1,0.3,1.8,0.5,2.3,0.8c0.5,0.3,0.9,0.6,1.2,1.1
				s0.4,1,0.4,1.7c0,0.6-0.2,1.2-0.5,1.8c-0.3,0.5-0.8,1-1.5,1.2c-0.6,0.3-1.4,0.4-2.3,0.4c-1.4,0-2.4-0.3-3.1-1
				S260.6,250.8,260.4,249.6z"/>
			<path class="st3" d="M270.2,249.6l2.1-0.2c0.1,0.7,0.4,1.2,0.8,1.6c0.4,0.3,0.9,0.5,1.6,0.5c0.7,0,1.2-0.2,1.6-0.5
				c0.4-0.3,0.5-0.7,0.5-1.1c0-0.3-0.1-0.5-0.2-0.7c-0.1-0.2-0.4-0.3-0.8-0.5c-0.3-0.1-0.8-0.2-1.7-0.5c-1.2-0.3-2-0.7-2.5-1.1
				c-0.7-0.6-1-1.3-1-2.2c0-0.6,0.2-1.1,0.5-1.6c0.3-0.5,0.8-0.9,1.3-1.1s1.3-0.4,2.1-0.4c1.4,0,2.4,0.3,3.1,0.9
				c0.7,0.6,1,1.4,1.1,2.4l-2.2,0.1c-0.1-0.6-0.3-1-0.6-1.2c-0.3-0.2-0.8-0.4-1.4-0.4c-0.6,0-1.1,0.1-1.5,0.4
				c-0.2,0.2-0.3,0.4-0.3,0.7c0,0.3,0.1,0.5,0.3,0.7c0.3,0.2,0.9,0.5,2,0.7c1.1,0.3,1.8,0.5,2.3,0.8c0.5,0.3,0.9,0.6,1.2,1.1
				s0.4,1,0.4,1.7c0,0.6-0.2,1.2-0.5,1.8c-0.3,0.5-0.8,1-1.5,1.2c-0.6,0.3-1.4,0.4-2.3,0.4c-1.4,0-2.4-0.3-3.1-1
				S270.3,250.8,270.2,249.6z"/>
			<path class="st3" d="M279.9,249.6l2.1-0.2c0.1,0.7,0.4,1.2,0.8,1.6c0.4,0.3,0.9,0.5,1.6,0.5c0.7,0,1.2-0.2,1.6-0.5
				c0.4-0.3,0.5-0.7,0.5-1.1c0-0.3-0.1-0.5-0.2-0.7c-0.1-0.2-0.4-0.3-0.8-0.5c-0.3-0.1-0.8-0.2-1.7-0.5c-1.2-0.3-2-0.7-2.5-1.1
				c-0.7-0.6-1-1.3-1-2.2c0-0.6,0.2-1.1,0.5-1.6c0.3-0.5,0.8-0.9,1.3-1.1s1.3-0.4,2.1-0.4c1.4,0,2.4,0.3,3.1,0.9
				c0.7,0.6,1,1.4,1.1,2.4l-2.2,0.1c-0.1-0.6-0.3-1-0.6-1.2c-0.3-0.2-0.8-0.4-1.4-0.4c-0.6,0-1.1,0.1-1.5,0.4
				c-0.2,0.2-0.3,0.4-0.3,0.7c0,0.3,0.1,0.5,0.3,0.7c0.3,0.2,0.9,0.5,2,0.7c1.1,0.3,1.8,0.5,2.3,0.8c0.5,0.3,0.9,0.6,1.2,1.1
				s0.4,1,0.4,1.7c0,0.6-0.2,1.2-0.5,1.8c-0.3,0.5-0.8,1-1.5,1.2c-0.6,0.3-1.4,0.4-2.3,0.4c-1.4,0-2.4-0.3-3.1-1
				S280.1,250.8,279.9,249.6z"/>
			<path class="st3" d="M289.1,253.4l2.7-11.3h1.6l-2.7,11.3H289.1z"/>
			<path class="st3" d="M301.6,249.2l2.1,0.7c-0.3,1.2-0.9,2.1-1.6,2.7c-0.8,0.6-1.7,0.9-2.9,0.9c-1.4,0-2.6-0.5-3.5-1.5
				c-0.9-1-1.4-2.3-1.4-4.1c0-1.8,0.5-3.2,1.4-4.2c0.9-1,2.1-1.5,3.7-1.5c1.3,0,2.4,0.4,3.2,1.2c0.5,0.5,0.9,1.1,1.1,2l-2.2,0.5
				c-0.1-0.6-0.4-1-0.8-1.3c-0.4-0.3-0.9-0.5-1.5-0.5c-0.8,0-1.4,0.3-1.9,0.9c-0.5,0.6-0.7,1.5-0.7,2.8c0,1.4,0.2,2.4,0.7,2.9
				c0.5,0.6,1.1,0.9,1.9,0.9c0.6,0,1.1-0.2,1.5-0.6C301.1,250.5,301.4,250,301.6,249.2z"/>
			<path class="st3" d="M304.7,249.6l2.1-0.2c0.1,0.7,0.4,1.2,0.8,1.6c0.4,0.3,0.9,0.5,1.6,0.5c0.7,0,1.2-0.2,1.6-0.5
				c0.4-0.3,0.5-0.7,0.5-1.1c0-0.3-0.1-0.5-0.2-0.7c-0.1-0.2-0.4-0.3-0.8-0.5c-0.3-0.1-0.8-0.2-1.7-0.5c-1.2-0.3-2-0.7-2.5-1.1
				c-0.7-0.6-1-1.3-1-2.2c0-0.6,0.2-1.1,0.5-1.6c0.3-0.5,0.8-0.9,1.3-1.1s1.3-0.4,2.1-0.4c1.4,0,2.4,0.3,3.1,0.9
				c0.7,0.6,1,1.4,1.1,2.4l-2.2,0.1c-0.1-0.6-0.3-1-0.6-1.2c-0.3-0.2-0.8-0.4-1.4-0.4c-0.6,0-1.1,0.1-1.5,0.4
				c-0.2,0.2-0.3,0.4-0.3,0.7c0,0.3,0.1,0.5,0.3,0.7c0.3,0.2,0.9,0.5,2,0.7c1.1,0.3,1.8,0.5,2.3,0.8c0.5,0.3,0.9,0.6,1.2,1.1
				s0.4,1,0.4,1.7c0,0.6-0.2,1.2-0.5,1.8c-0.3,0.5-0.8,1-1.5,1.2c-0.6,0.3-1.4,0.4-2.3,0.4c-1.4,0-2.4-0.3-3.1-1
				S304.9,250.8,304.7,249.6z"/>
			<path class="st3" d="M314.5,249.6l2.1-0.2c0.1,0.7,0.4,1.2,0.8,1.6c0.4,0.3,0.9,0.5,1.6,0.5c0.7,0,1.2-0.2,1.6-0.5
				c0.4-0.3,0.5-0.7,0.5-1.1c0-0.3-0.1-0.5-0.2-0.7c-0.1-0.2-0.4-0.3-0.8-0.5c-0.3-0.1-0.8-0.2-1.7-0.5c-1.2-0.3-2-0.7-2.5-1.1
				c-0.7-0.6-1-1.3-1-2.2c0-0.6,0.2-1.1,0.5-1.6c0.3-0.5,0.8-0.9,1.3-1.1s1.3-0.4,2.1-0.4c1.4,0,2.4,0.3,3.1,0.9
				c0.7,0.6,1,1.4,1.1,2.4l-2.2,0.1c-0.1-0.6-0.3-1-0.6-1.2c-0.3-0.2-0.8-0.4-1.4-0.4c-0.6,0-1.1,0.1-1.5,0.4
				c-0.2,0.2-0.3,0.4-0.3,0.7c0,0.3,0.1,0.5,0.3,0.7c0.3,0.2,0.9,0.5,2,0.7c1.1,0.3,1.8,0.5,2.3,0.8c0.5,0.3,0.9,0.6,1.2,1.1
				s0.4,1,0.4,1.7c0,0.6-0.2,1.2-0.5,1.8c-0.3,0.5-0.8,1-1.5,1.2c-0.6,0.3-1.4,0.4-2.3,0.4c-1.4,0-2.4-0.3-3.1-1
				S314.6,250.8,314.5,249.6z"/>
			<path class="st3" d="M334.5,253.2h-2.4l-0.9-2.5h-4.3l-0.9,2.5h-2.3l4.2-10.9h2.3L334.5,253.2z M330.5,248.9l-1.5-4l-1.5,4H330.5
				z"/>
			<path class="st3" d="M341.4,253.2v-9.1h-3.2v-1.8h8.6v1.8h-3.2v9.1H341.4z"/>
			<path class="st3" d="M347.8,253.2v-10.9h2.2v10.9H347.8z"/>
			<path class="st3" d="M351.3,253.2v-10.9h3.3l2,7.4l1.9-7.4h3.3v10.9h-2v-8.6l-2.1,8.6h-2.1l-2.1-8.6v8.6H351.3z"/>
			<path class="st3" d="M362.9,253.2v-10.9h8v1.8h-5.8v2.4h5.4v1.8h-5.4v3h6v1.8H362.9z"/>
			<path class="st3" d="M373.3,247.3l-1.1-0.9c0.4-0.4,0.7-0.8,1.1-1.2c0.2-0.1,0.2-0.2,0.3-0.3c-0.1,0-0.5-0.1-1.1-0.2
				c-0.4-0.1-0.7-0.2-0.8-0.2l0.4-1.3c0.6,0.3,1.2,0.6,1.7,0.9c-0.1-0.8-0.2-1.5-0.2-2h1.3c0,0.4-0.1,1-0.2,2c0.1,0,0.3-0.1,0.6-0.3
				c0.4-0.2,0.8-0.4,1.2-0.5l0.4,1.3c-0.5,0.1-1.2,0.2-1.9,0.4l0.9,1c0.2,0.2,0.3,0.4,0.4,0.5l-1.1,0.8l-1-1.7
				C374.1,246.1,373.7,246.7,373.3,247.3z"/>
		</g>
	</g>
	<polyline class="st1" points="570.1,110.1 570.1,205.7 641.3,205.7 641.3,110.1 570.1,110.1 	"/>
	<polyline class="st6" points="419.5,92.6 419.5,92.8 489,92.8 489,92.6 419.5,92.6 	"/>
	<polyline class="st6" points="494.6,92.6 494.6,92.8 565.8,92.8 565.8,92.6 494.6,92.6 	"/>
	<polyline class="st6" points="570.5,92.6 570.5,92.8 640.9,92.8 640.9,92.6 570.5,92.6 	"/>
	<polyline class="st6" points="419.5,205.9 419.5,206.2 489,206.2 489,205.9 419.5,205.9 	"/>
	<polyline class="st6" points="494.6,205.9 494.6,206.2 565.8,206.2 565.8,205.9 494.6,205.9 	"/>
	<polyline class="st6" points="570.5,205.9 570.5,206.2 640.9,206.2 640.9,205.9 570.5,205.9 	"/>
	<polyline class="st6" points="244.2,86.9 244.2,217.3 244.7,217.3 244.7,86.9 244.2,86.9 	"/>
	<polyline class="st6" points="244.2,233.3 244.2,304.7 244.7,304.7 244.7,233.3 244.2,233.3 	"/>
	<polyline class="st6" points="683.1,87.4 683.1,217.3 683.6,217.3 683.6,87.4 683.1,87.4 	"/>
	<polyline class="st6" points="419.3,92.6 419.3,206.2 419.5,206.2 419.5,92.6 419.3,92.6 	"/>
	<polyline class="st6" points="488.8,92.8 488.8,206.2 489,206.2 489,92.8 488.8,92.8 	"/>
	<polyline class="st6" points="494.4,92.6 494.4,206.2 494.6,206.2 494.6,92.6 494.4,92.6 	"/>
	<polyline class="st6" points="565.6,92.8 565.6,206.2 565.8,206.2 565.8,92.8 565.6,92.8 	"/>
	<polyline class="st6" points="570.2,92.6 570.2,206.2 570.5,206.2 570.5,92.6 570.2,92.6 	"/>
	<polyline class="st6" points="640.7,92.8 640.7,206.2 640.9,206.2 640.9,92.8 640.7,92.8 	"/>
	<polyline class="st6" points="647.3,92.6 647.3,206.2 647.5,206.2 647.5,92.6 647.3,92.6 	"/>
	<polyline class="st6" points="675.6,92.8 675.6,206.2 675.8,206.2 675.8,92.8 675.6,92.8 	"/>
	<polyline class="st6" points="623.7,233.8 623.7,304.7 624.2,304.7 624.2,233.8 623.7,233.8 	"/>
	<polyline class="st6" points="244.7,86.9 244.7,87.4 683.6,87.4 683.6,86.9 244.7,86.9 	"/>
	<polyline class="st6" points="647.5,92.6 647.5,92.8 675.8,92.8 675.8,92.6 647.5,92.6 	"/>
	<polyline class="st6" points="647.5,205.9 647.5,206.2 675.8,206.2 675.8,205.9 647.5,205.9 	"/>
	<polyline class="st6" points="244.7,216.8 244.7,217.3 683.6,217.3 683.6,216.8 244.7,216.8 	"/>
	<polyline class="st6" points="244.7,233.3 244.7,233.8 624.2,233.8 624.2,233.3 244.7,233.3 	"/>
	<polyline class="st6" points="244.7,304.2 244.7,304.7 624.2,304.7 624.2,304.2 244.7,304.2 	"/>
	<g>
		<line class="st7" x1="244.7" y1="110.3" x2="410.5" y2="110.3"/>
		<line class="st7" x1="244.9" y1="118.4" x2="410.7" y2="118.4"/>
		<line class="st7" x1="244.9" y1="126.5" x2="410.7" y2="126.5"/>
		<line class="st7" x1="244.9" y1="134.6" x2="410.7" y2="134.6"/>
		<line class="st7" x1="244.9" y1="142.7" x2="410.7" y2="142.7"/>
		<line class="st7" x1="244.9" y1="150.7" x2="410.7" y2="150.7"/>
		<line class="st7" x1="244.9" y1="158.8" x2="410.7" y2="158.8"/>
		<line class="st7" x1="244.9" y1="166.9" x2="410.7" y2="166.9"/>
		<line class="st7" x1="244.9" y1="175" x2="410.7" y2="175"/>
		<line class="st7" x1="244.9" y1="183.1" x2="410.7" y2="183.1"/>
		<line class="st7" x1="244.9" y1="191.2" x2="410.7" y2="191.2"/>
		<line class="st7" x1="244.9" y1="199.3" x2="410.7" y2="199.3"/>
	</g>
	<g>
		<line class="st7" x1="419.5" y1="110.3" x2="488.9" y2="110.3"/>
		<line class="st7" x1="419.6" y1="118.4" x2="489" y2="118.4"/>
		<line class="st7" x1="419.6" y1="126.5" x2="489" y2="126.5"/>
		<line class="st7" x1="419.6" y1="134.6" x2="489" y2="134.6"/>
		<line class="st7" x1="419.6" y1="142.7" x2="489" y2="142.7"/>
		<line class="st7" x1="419.6" y1="150.7" x2="489" y2="150.7"/>
		<line class="st7" x1="419.6" y1="158.8" x2="489" y2="158.8"/>
		<line class="st7" x1="419.6" y1="166.9" x2="489" y2="166.9"/>
		<line class="st7" x1="419.6" y1="175" x2="489" y2="175"/>
		<line class="st7" x1="419.6" y1="183.1" x2="489" y2="183.1"/>
		<line class="st7" x1="419.6" y1="191.2" x2="489" y2="191.2"/>
		<line class="st7" x1="419.6" y1="199.3" x2="489" y2="199.3"/>
	</g>
	<g>
		<line class="st7" x1="495.5" y1="110.3" x2="564.9" y2="110.3"/>
		<line class="st7" x1="495.6" y1="118.4" x2="565" y2="118.4"/>
		<line class="st7" x1="495.6" y1="126.5" x2="565" y2="126.5"/>
		<line class="st7" x1="495.6" y1="134.6" x2="565" y2="134.6"/>
		<line class="st7" x1="495.6" y1="142.7" x2="565" y2="142.7"/>
		<line class="st7" x1="495.6" y1="150.7" x2="565" y2="150.7"/>
		<line class="st7" x1="495.6" y1="158.8" x2="565" y2="158.8"/>
		<line class="st7" x1="495.6" y1="166.9" x2="565" y2="166.9"/>
		<line class="st7" x1="495.6" y1="175" x2="565" y2="175"/>
		<line class="st7" x1="495.6" y1="183.1" x2="565" y2="183.1"/>
		<line class="st7" x1="495.6" y1="191.2" x2="565" y2="191.2"/>
		<line class="st7" x1="495.6" y1="199.3" x2="565" y2="199.3"/>
	</g>
	<g>
		<line class="st7" x1="571.4" y1="110.3" x2="640.8" y2="110.3"/>
		<line class="st7" x1="571.5" y1="118.4" x2="640.9" y2="118.4"/>
		<line class="st7" x1="571.5" y1="126.5" x2="640.9" y2="126.5"/>
		<line class="st7" x1="571.5" y1="134.6" x2="640.9" y2="134.6"/>
		<line class="st7" x1="571.5" y1="142.7" x2="640.9" y2="142.7"/>
		<line class="st7" x1="571.5" y1="150.7" x2="640.9" y2="150.7"/>
		<line class="st7" x1="571.5" y1="158.8" x2="640.9" y2="158.8"/>
		<line class="st7" x1="571.5" y1="166.9" x2="640.9" y2="166.9"/>
		<line class="st7" x1="571.5" y1="175" x2="640.9" y2="175"/>
		<line class="st7" x1="571.5" y1="183.1" x2="640.9" y2="183.1"/>
		<line class="st7" x1="571.5" y1="191.2" x2="640.9" y2="191.2"/>
		<line class="st7" x1="571.5" y1="199.3" x2="640.9" y2="199.3"/>
	</g>
	<g>
		<line class="st7" x1="647.4" y1="110.3" x2="675.8" y2="110.3"/>
		<line class="st7" x1="647.4" y1="118.4" x2="675.8" y2="118.4"/>
		<line class="st7" x1="647.4" y1="126.5" x2="675.8" y2="126.5"/>
		<line class="st7" x1="647.4" y1="134.6" x2="675.8" y2="134.6"/>
		<line class="st7" x1="647.4" y1="142.7" x2="675.8" y2="142.7"/>
		<line class="st7" x1="647.4" y1="150.7" x2="675.8" y2="150.7"/>
		<line class="st7" x1="647.4" y1="158.8" x2="675.8" y2="158.8"/>
		<line class="st7" x1="647.4" y1="166.9" x2="675.8" y2="166.9"/>
		<line class="st7" x1="647.4" y1="175" x2="675.8" y2="175"/>
		<line class="st7" x1="647.4" y1="183.1" x2="675.8" y2="183.1"/>
		<line class="st7" x1="647.4" y1="191.2" x2="675.8" y2="191.2"/>
		<line class="st7" x1="647.4" y1="199.3" x2="675.8" y2="199.3"/>
	</g>
	<g>
		<line class="st7" x1="244.8" y1="269.9" x2="623.3" y2="269.9"/>
		<line class="st7" x1="245.2" y1="277.9" x2="623.7" y2="277.9"/>
		<line class="st7" x1="245.2" y1="286" x2="623.7" y2="286"/>
		<line class="st7" x1="245.2" y1="294.1" x2="623.7" y2="294.1"/>
	</g>
</g>
<polygon class="st8" points="531.3,353.5 495.6,209.2 495.6,92.8 530.1,30.4 "/>
<polygon class="st8" points="377.6,21.1 418.3,94.4 418.3,210.8 378.8,344.3 "/>
<g>
	<g class="st9">
		
			<image style="overflow:visible;" width="1191" height="1732" xlink:href="4E4296FA.png"  transform="matrix(0.24 0 0 0.24 -261.0451 -112.5936)">
		</image>
	</g>
</g>
<g>
	<g class="st9">
		
			<image style="overflow:visible;" width="1191" height="1732" xlink:href="4E4296FE.png"  transform="matrix(0.24 0 0 0.24 888.7945 -113.1953)">
		</image>
	</g>
</g>
<g>
	<g class="st9">
		
			<image style="overflow:visible;" width="3889" height="871" xlink:href="4E4296F9.png"  transform="matrix(0.24 0 0 0.24 897.9943 365.873)">
		</image>
	</g>
</g>
<g>
	<g class="st9">
		
			<image style="overflow:visible;" width="953" height="1742" xlink:href="4E4296FB.png"  transform="matrix(0.24 0 0 0.24 493.7409 -17.5197)">
		</image>
	</g>
	<path class="st10" d="M686.3,231.1c-0.5-6.9,0.1-85.3-0.4-94.5c-0.6-9.2-0.2-77.6-0.2-77.6s-1.2-26.6-1.9-38.1c0.1,0,0.1,0,0.2,0
		c-0.1-0.8-0.2-1.6-0.2-2.4h0c0,0,0,0,0,0H531.2c-0.3,0.2-0.7,0.5-1,0.7c-0.2,6-0.4,12.9-0.5,18.7v13.3c0.2,2.3,0.1,9,0,16.3v23.4
		c0.5,7.9,1.7,30.2,1.7,33c0,2.8,1.5,15.1,1.1,20.8c-0.5,5.6,0.6,45.6,0.1,47c-0.5,1.4,0.8,47.5,0.2,48.9
		c-0.7,1.4-0.9,48.5-0.7,54.1c0.2,5.2,0.3,52,0.8,60c0.1,0,0.2,0,0.3,0c1.1,0,2,0.8,2.7,2.1c0-0.4,0-0.8,0-1.2
		c3.7,0,7.3,0.1,8.5-0.4c0.6-0.2,1.8-0.6,3.3-0.9c5.9,3.3,11.8,7,17.8,8.4c4.3,1,8.6,1.6,12.9,1.6c2.3,1.8,49.1-5.5,49.1-5.5
		l8.7-0.3l17.5,0.9c3.6,0.5,7.2,1,10.8,1.3c0.1-0.3,0.3-0.5,0.4-0.7l8.5,0.5c0,0,6.3-0.3,10.8-0.4c0.1-0.5,0.2-1,0.2-1.4
		c0,0,0-0.1,0-0.1c0-0.2,0-0.6,0-1.1c0-0.4,0-0.7,0-0.9c0-0.5-0.1-1-0.1-1.5c-0.3-4.7-0.6-9.4-0.5-14.2c-0.1,0-0.3,0.1-0.4,0.1
		c0-0.9-0.1-1.4-0.1-1.4s-1.3-44.1-0.2-46.7C684.1,290,686.9,238,686.3,231.1z"/>
	<g>
		<path class="st4" d="M571.9,76.1v-7.4h2.4c0.9,0,1.5,0,1.8,0.1c0.4,0.1,0.8,0.4,1.1,0.7c0.3,0.4,0.4,0.9,0.4,1.4
			c0,0.5-0.1,0.8-0.2,1.1s-0.4,0.6-0.6,0.7s-0.5,0.3-0.8,0.4c-0.4,0.1-0.9,0.1-1.5,0.1h-1v2.8H571.9z M573.4,70v2.1h0.8
			c0.6,0,1,0,1.2-0.1s0.4-0.2,0.5-0.4s0.2-0.4,0.2-0.6c0-0.3-0.1-0.5-0.2-0.7s-0.4-0.3-0.6-0.3c-0.2,0-0.5-0.1-1.1-0.1H573.4z"/>
		<path class="st4" d="M578.5,76.1v-7.4h5.4V70H580v1.6h3.7v1.2H580v2h4.1v1.2H578.5z"/>
		<path class="st4" d="M585.2,76.1v-7.4h3.1c0.8,0,1.3,0.1,1.7,0.2c0.4,0.1,0.6,0.4,0.9,0.7s0.3,0.7,0.3,1.2c0,0.6-0.2,1-0.5,1.4
			c-0.3,0.4-0.8,0.6-1.4,0.7c0.3,0.2,0.6,0.4,0.8,0.6c0.2,0.2,0.5,0.6,0.8,1.2l0.9,1.4H590l-1.1-1.6c-0.4-0.6-0.6-0.9-0.8-1.1
			s-0.3-0.3-0.4-0.3s-0.4-0.1-0.7-0.1h-0.3v3.1H585.2z M586.6,71.9h1.1c0.7,0,1.2,0,1.3-0.1c0.2-0.1,0.3-0.2,0.4-0.3
			c0.1-0.1,0.2-0.3,0.2-0.6c0-0.2-0.1-0.5-0.2-0.6c-0.1-0.2-0.3-0.3-0.6-0.3c-0.1,0-0.5,0-1.1,0h-1.2V71.9z"/>
		<path class="st4" d="M595.4,68.7h2.7c0.6,0,1.1,0,1.4,0.1c0.4,0.1,0.8,0.4,1.1,0.7c0.3,0.3,0.5,0.7,0.7,1.2
			c0.2,0.5,0.2,1.1,0.2,1.8c0,0.6-0.1,1.1-0.2,1.6c-0.2,0.5-0.4,1-0.8,1.3c-0.3,0.3-0.6,0.4-1,0.6c-0.3,0.1-0.8,0.2-1.3,0.2h-2.8
			V68.7z M596.9,70v4.9h1.1c0.4,0,0.7,0,0.9-0.1c0.2-0.1,0.4-0.2,0.6-0.3c0.2-0.1,0.3-0.4,0.4-0.7c0.1-0.3,0.1-0.8,0.1-1.4
			s0-1-0.1-1.3s-0.2-0.5-0.4-0.7c-0.2-0.2-0.4-0.3-0.7-0.3c-0.2,0-0.6-0.1-1.2-0.1H596.9z"/>
		<path class="st4" d="M602.6,76.1v-7.4h1.5v7.4H602.6z"/>
		<path class="st4" d="M605,76.1v-7.4h5.4V70h-3.9v1.6h3.7v1.2h-3.7v2h4.1v1.2H605z"/>
		<path class="st4" d="M611.6,76.1v-7.4h2.2l1.3,5.1l1.3-5.1h2.2v7.4h-1.4v-5.8l-1.5,5.8h-1.4l-1.4-5.8v5.8H611.6z"/>
	</g>
	<rect x="532.7" y="171.5" class="st16" width="153.4" height="16.1"/>
	<g>
		<path class="st4" d="M600.4,89.5H599v-5.4c-0.5,0.5-1.1,0.8-1.8,1.1V84c0.4-0.1,0.8-0.4,1.2-0.7c0.4-0.3,0.7-0.7,0.9-1.2h1.1V89.5
			z"/>
		<path class="st4" d="M604.6,82.1c0.7,0,1.3,0.3,1.7,0.8c0.5,0.6,0.7,1.6,0.7,3c0,1.4-0.2,2.4-0.7,3c-0.4,0.5-0.9,0.8-1.7,0.8
			c-0.7,0-1.3-0.3-1.7-0.8s-0.7-1.5-0.7-3c0-1.4,0.2-2.4,0.7-3C603.4,82.3,603.9,82.1,604.6,82.1z M604.6,83.3
			c-0.2,0-0.3,0.1-0.5,0.2c-0.1,0.1-0.2,0.3-0.3,0.6c-0.1,0.4-0.1,1-0.1,1.9c0,0.9,0,1.5,0.1,1.8c0.1,0.3,0.2,0.5,0.3,0.6
			c0.1,0.1,0.3,0.2,0.5,0.2s0.3-0.1,0.5-0.2s0.2-0.3,0.3-0.6c0.1-0.4,0.1-1,0.1-1.8c0-0.9,0-1.5-0.1-1.8c-0.1-0.3-0.2-0.5-0.3-0.7
			C605,83.3,604.8,83.3,604.6,83.3z"/>
		<path class="st4" d="M608,88.1h1.4v1c0,0.4,0,0.7-0.1,1c-0.1,0.2-0.2,0.5-0.4,0.6c-0.2,0.2-0.4,0.3-0.7,0.4l-0.3-0.6
			c0.3-0.1,0.5-0.2,0.6-0.4c0.1-0.2,0.2-0.4,0.2-0.7H608V88.1z"/>
		<path class="st4" d="M613.4,89.5V88h-3v-1.2l3.2-4.7h1.2v4.7h0.9V88h-0.9v1.5H613.4z M613.4,86.8v-2.5l-1.7,2.5H613.4z"/>
		<path class="st4" d="M620.9,83.9l-1.4,0.2c0-0.3-0.1-0.5-0.3-0.6c-0.1-0.1-0.3-0.2-0.5-0.2c-0.3,0-0.5,0.1-0.8,0.4
			c-0.2,0.3-0.3,0.8-0.4,1.7c0.3-0.4,0.8-0.6,1.3-0.6c0.6,0,1.1,0.2,1.5,0.7c0.4,0.5,0.6,1,0.6,1.7c0,0.8-0.2,1.4-0.7,1.8
			c-0.4,0.5-1,0.7-1.7,0.7c-0.7,0-1.3-0.3-1.8-0.9c-0.5-0.6-0.7-1.5-0.7-2.9c0-1.4,0.2-2.3,0.7-2.9c0.5-0.6,1.1-0.9,1.9-0.9
			c0.6,0,1,0.2,1.4,0.5C620.5,82.9,620.8,83.3,620.9,83.9z M617.7,87c0,0.5,0.1,0.8,0.3,1.1s0.4,0.4,0.7,0.4c0.3,0,0.5-0.1,0.6-0.3
			s0.3-0.5,0.3-1c0-0.5-0.1-0.8-0.3-1.1c-0.2-0.2-0.4-0.3-0.7-0.3c-0.3,0-0.5,0.1-0.7,0.3S617.7,86.6,617.7,87z"/>
		<path class="st4" d="M622.7,85.5c-0.4-0.2-0.6-0.4-0.8-0.6c-0.2-0.3-0.2-0.6-0.2-0.9c0-0.6,0.2-1,0.6-1.4c0.4-0.4,0.9-0.5,1.6-0.5
			c0.7,0,1.2,0.2,1.6,0.5c0.4,0.4,0.6,0.8,0.6,1.4c0,0.3-0.1,0.6-0.3,0.9c-0.2,0.3-0.4,0.5-0.7,0.6c0.4,0.2,0.7,0.4,0.9,0.7
			c0.2,0.3,0.3,0.7,0.3,1.1c0,0.7-0.2,1.2-0.6,1.7s-1,0.6-1.7,0.6c-0.7,0-1.2-0.2-1.7-0.5c-0.5-0.4-0.8-1-0.8-1.7
			c0-0.4,0.1-0.8,0.3-1.1C622,86,622.3,85.7,622.7,85.5z M622.9,87.3c0,0.4,0.1,0.7,0.3,0.9c0.2,0.2,0.4,0.3,0.7,0.3
			c0.3,0,0.5-0.1,0.7-0.3c0.2-0.2,0.3-0.5,0.3-0.9c0-0.3-0.1-0.6-0.3-0.8c-0.2-0.2-0.4-0.3-0.7-0.3c-0.3,0-0.6,0.1-0.8,0.4
			C623,86.7,622.9,87,622.9,87.3z M623,84.1c0,0.3,0.1,0.5,0.2,0.7c0.2,0.2,0.4,0.2,0.6,0.2c0.3,0,0.5-0.1,0.6-0.2
			c0.2-0.2,0.2-0.4,0.2-0.7c0-0.3-0.1-0.5-0.2-0.6c-0.2-0.2-0.4-0.2-0.6-0.2c-0.3,0-0.5,0.1-0.6,0.2C623.1,83.6,623,83.8,623,84.1z"
			/>
	</g>
	<g>
		<path class="st4" d="M602.3,96.9v-1.3h4.8v1c-0.4,0.4-0.8,1-1.2,1.7s-0.7,1.5-0.9,2.4s-0.3,1.6-0.3,2.2h-1.4c0-1,0.2-2.1,0.6-3.1
			c0.4-1.1,0.9-2,1.6-2.9H602.3z"/>
		<path class="st4" d="M608,101.5h1.4v1c0,0.4,0,0.7-0.1,1c-0.1,0.2-0.2,0.5-0.4,0.6c-0.2,0.2-0.4,0.3-0.7,0.4l-0.3-0.6
			c0.3-0.1,0.5-0.2,0.6-0.4s0.2-0.4,0.2-0.7H608V101.5z"/>
		<path class="st4" d="M614.3,102.9h-1.4v-5.4c-0.5,0.5-1.1,0.8-1.8,1.1v-1.3c0.4-0.1,0.8-0.4,1.2-0.7c0.4-0.3,0.7-0.7,0.9-1.2h1.1
			V102.9z"/>
		<path class="st4" d="M617.3,98.9c-0.4-0.2-0.6-0.4-0.8-0.6c-0.2-0.3-0.2-0.6-0.2-0.9c0-0.6,0.2-1,0.6-1.4c0.4-0.4,0.9-0.5,1.6-0.5
			c0.7,0,1.2,0.2,1.6,0.5c0.4,0.4,0.6,0.8,0.6,1.4c0,0.3-0.1,0.6-0.3,0.9c-0.2,0.3-0.4,0.5-0.7,0.6c0.4,0.2,0.7,0.4,0.9,0.7
			c0.2,0.3,0.3,0.7,0.3,1.1c0,0.7-0.2,1.2-0.6,1.7s-1,0.6-1.7,0.6c-0.7,0-1.2-0.2-1.7-0.5c-0.5-0.4-0.8-1-0.8-1.7
			c0-0.4,0.1-0.8,0.3-1.1C616.6,99.4,616.9,99.1,617.3,98.9z M617.5,100.7c0,0.4,0.1,0.7,0.3,0.9c0.2,0.2,0.4,0.3,0.7,0.3
			c0.3,0,0.5-0.1,0.7-0.3c0.2-0.2,0.3-0.5,0.3-0.9c0-0.3-0.1-0.6-0.3-0.8c-0.2-0.2-0.4-0.3-0.7-0.3c-0.3,0-0.6,0.1-0.8,0.4
			C617.6,100.1,617.5,100.4,617.5,100.7z M617.6,97.5c0,0.3,0.1,0.5,0.2,0.7c0.2,0.2,0.4,0.2,0.6,0.2c0.3,0,0.5-0.1,0.6-0.2
			c0.2-0.2,0.2-0.4,0.2-0.7c0-0.3-0.1-0.5-0.2-0.6c-0.2-0.2-0.4-0.2-0.6-0.2c-0.3,0-0.5,0.1-0.6,0.2C617.7,97,617.6,97.2,617.6,97.5
			z"/>
		<path class="st4" d="M623.9,95.5c0.7,0,1.3,0.3,1.7,0.8c0.5,0.6,0.7,1.6,0.7,3c0,1.4-0.2,2.4-0.7,3c-0.4,0.5-0.9,0.8-1.7,0.8
			c-0.7,0-1.3-0.3-1.7-0.8s-0.7-1.5-0.7-3c0-1.4,0.2-2.4,0.7-3C622.6,95.7,623.2,95.5,623.9,95.5z M623.9,96.6
			c-0.2,0-0.3,0.1-0.5,0.2c-0.1,0.1-0.2,0.3-0.3,0.6c-0.1,0.4-0.1,1-0.1,1.9c0,0.9,0,1.5,0.1,1.8c0.1,0.3,0.2,0.5,0.3,0.6
			c0.1,0.1,0.3,0.2,0.5,0.2s0.3-0.1,0.5-0.2s0.2-0.3,0.3-0.6c0.1-0.4,0.1-1,0.1-1.8c0-0.9,0-1.5-0.1-1.8c-0.1-0.3-0.2-0.5-0.3-0.7
			C624.2,96.7,624.1,96.6,623.9,96.6z"/>
	</g>
	<g>
		<path class="st4" d="M602.3,110.3V109h4.8v1c-0.4,0.4-0.8,1-1.2,1.7s-0.7,1.5-0.9,2.4s-0.3,1.6-0.3,2.2h-1.4c0-1,0.2-2.1,0.6-3.1
			c0.4-1.1,0.9-2,1.6-2.9H602.3z"/>
		<path class="st4" d="M608,114.9h1.4v1c0,0.4,0,0.7-0.1,1c-0.1,0.2-0.2,0.5-0.4,0.6c-0.2,0.2-0.4,0.3-0.7,0.4l-0.3-0.6
			c0.3-0.1,0.5-0.2,0.6-0.4s0.2-0.4,0.2-0.7H608V114.9z"/>
		<path class="st4" d="M614.3,116.3h-1.4V111c-0.5,0.5-1.1,0.8-1.8,1.1v-1.3c0.4-0.1,0.8-0.4,1.2-0.7c0.4-0.3,0.7-0.7,0.9-1.2h1.1
			V116.3z"/>
		<path class="st4" d="M617.3,112.3c-0.4-0.2-0.6-0.4-0.8-0.6c-0.2-0.3-0.2-0.6-0.2-0.9c0-0.6,0.2-1,0.6-1.4
			c0.4-0.4,0.9-0.5,1.6-0.5c0.7,0,1.2,0.2,1.6,0.5c0.4,0.4,0.6,0.8,0.6,1.4c0,0.3-0.1,0.6-0.3,0.9c-0.2,0.3-0.4,0.5-0.7,0.6
			c0.4,0.2,0.7,0.4,0.9,0.7c0.2,0.3,0.3,0.7,0.3,1.1c0,0.7-0.2,1.2-0.6,1.7s-1,0.6-1.7,0.6c-0.7,0-1.2-0.2-1.7-0.5
			c-0.5-0.4-0.8-1-0.8-1.7c0-0.4,0.1-0.8,0.3-1.1C616.6,112.8,616.9,112.5,617.3,112.3z M617.5,114.1c0,0.4,0.1,0.7,0.3,0.9
			c0.2,0.2,0.4,0.3,0.7,0.3c0.3,0,0.5-0.1,0.7-0.3c0.2-0.2,0.3-0.5,0.3-0.9c0-0.3-0.1-0.6-0.3-0.8c-0.2-0.2-0.4-0.3-0.7-0.3
			c-0.3,0-0.6,0.1-0.8,0.4C617.6,113.5,617.5,113.8,617.5,114.1z M617.6,110.9c0,0.3,0.1,0.5,0.2,0.7c0.2,0.2,0.4,0.2,0.6,0.2
			c0.3,0,0.5-0.1,0.6-0.2c0.2-0.2,0.2-0.4,0.2-0.7c0-0.3-0.1-0.5-0.2-0.6c-0.2-0.2-0.4-0.2-0.6-0.2c-0.3,0-0.5,0.1-0.6,0.2
			C617.7,110.4,617.6,110.6,617.6,110.9z"/>
		<path class="st4" d="M623.9,108.9c0.7,0,1.3,0.3,1.7,0.8c0.5,0.6,0.7,1.6,0.7,3c0,1.4-0.2,2.4-0.7,3c-0.4,0.5-0.9,0.8-1.7,0.8
			c-0.7,0-1.3-0.3-1.7-0.8s-0.7-1.5-0.7-3c0-1.4,0.2-2.4,0.7-3C622.6,109.1,623.2,108.9,623.9,108.9z M623.9,110.1
			c-0.2,0-0.3,0.1-0.5,0.2c-0.1,0.1-0.2,0.3-0.3,0.6c-0.1,0.4-0.1,1-0.1,1.9c0,0.9,0,1.5,0.1,1.8c0.1,0.3,0.2,0.5,0.3,0.6
			c0.1,0.1,0.3,0.2,0.5,0.2s0.3-0.1,0.5-0.2s0.2-0.3,0.3-0.6c0.1-0.4,0.1-1,0.1-1.8c0-0.9,0-1.5-0.1-1.8c-0.1-0.3-0.2-0.5-0.3-0.7
			C624.2,110.1,624.1,110.1,623.9,110.1z"/>
	</g>
	<g>
		<path class="st4" d="M602.3,123.7v-1.3h4.8v1c-0.4,0.4-0.8,1-1.2,1.7s-0.7,1.5-0.9,2.4c-0.2,0.8-0.3,1.6-0.3,2.2h-1.4
			c0-1,0.2-2.1,0.6-3.1c0.4-1.1,0.9-2,1.6-2.9H602.3z"/>
		<path class="st4" d="M608,128.3h1.4v1c0,0.4,0,0.7-0.1,1c-0.1,0.2-0.2,0.5-0.4,0.6c-0.2,0.2-0.4,0.3-0.7,0.4l-0.3-0.6
			c0.3-0.1,0.5-0.2,0.6-0.4s0.2-0.4,0.2-0.7H608V128.3z"/>
		<path class="st4" d="M614.3,129.7h-1.4v-5.4c-0.5,0.5-1.1,0.8-1.8,1.1v-1.3c0.4-0.1,0.8-0.4,1.2-0.7c0.4-0.3,0.7-0.7,0.9-1.2h1.1
			V129.7z"/>
		<path class="st4" d="M617.3,125.7c-0.4-0.2-0.6-0.4-0.8-0.6c-0.2-0.3-0.2-0.6-0.2-0.9c0-0.6,0.2-1,0.6-1.4
			c0.4-0.4,0.9-0.5,1.6-0.5c0.7,0,1.2,0.2,1.6,0.5c0.4,0.4,0.6,0.8,0.6,1.4c0,0.3-0.1,0.6-0.3,0.9c-0.2,0.3-0.4,0.5-0.7,0.6
			c0.4,0.2,0.7,0.4,0.9,0.7c0.2,0.3,0.3,0.7,0.3,1.1c0,0.7-0.2,1.2-0.6,1.7s-1,0.6-1.7,0.6c-0.7,0-1.2-0.2-1.7-0.5
			c-0.5-0.4-0.8-1-0.8-1.7c0-0.4,0.1-0.8,0.3-1.1C616.6,126.2,616.9,125.9,617.3,125.7z M617.5,127.5c0,0.4,0.1,0.7,0.3,0.9
			c0.2,0.2,0.4,0.3,0.7,0.3c0.3,0,0.5-0.1,0.7-0.3c0.2-0.2,0.3-0.5,0.3-0.9c0-0.3-0.1-0.6-0.3-0.8c-0.2-0.2-0.4-0.3-0.7-0.3
			c-0.3,0-0.6,0.1-0.8,0.4C617.6,126.9,617.5,127.2,617.5,127.5z M617.6,124.3c0,0.3,0.1,0.5,0.2,0.7c0.2,0.2,0.4,0.2,0.6,0.2
			c0.3,0,0.5-0.1,0.6-0.2c0.2-0.2,0.2-0.4,0.2-0.7c0-0.3-0.1-0.5-0.2-0.6c-0.2-0.2-0.4-0.2-0.6-0.2c-0.3,0-0.5,0.1-0.6,0.2
			C617.7,123.8,617.6,124,617.6,124.3z"/>
		<path class="st4" d="M623.9,122.3c0.7,0,1.3,0.3,1.7,0.8c0.5,0.6,0.7,1.6,0.7,3c0,1.4-0.2,2.4-0.7,3c-0.4,0.5-0.9,0.8-1.7,0.8
			c-0.7,0-1.3-0.3-1.7-0.8s-0.7-1.5-0.7-3c0-1.4,0.2-2.4,0.7-3C622.6,122.5,623.2,122.3,623.9,122.3z M623.9,123.5
			c-0.2,0-0.3,0.1-0.5,0.2c-0.1,0.1-0.2,0.3-0.3,0.6c-0.1,0.4-0.1,1-0.1,1.9c0,0.9,0,1.5,0.1,1.8c0.1,0.3,0.2,0.5,0.3,0.6
			c0.1,0.1,0.3,0.2,0.5,0.2s0.3-0.1,0.5-0.2s0.2-0.3,0.3-0.6c0.1-0.4,0.1-1,0.1-1.8c0-0.9,0-1.5-0.1-1.8c-0.1-0.3-0.2-0.5-0.3-0.7
			C624.2,123.5,624.1,123.5,623.9,123.5z"/>
	</g>
	<g>
		<path class="st4" d="M602.3,137.1v-1.3h4.8v1c-0.4,0.4-0.8,1-1.2,1.7c-0.4,0.7-0.7,1.5-0.9,2.4c-0.2,0.8-0.3,1.6-0.3,2.2h-1.4
			c0-1,0.2-2.1,0.6-3.1s0.9-2,1.6-2.9H602.3z"/>
		<path class="st4" d="M608,141.7h1.4v1c0,0.4,0,0.7-0.1,1c-0.1,0.2-0.2,0.5-0.4,0.6c-0.2,0.2-0.4,0.3-0.7,0.4l-0.3-0.6
			c0.3-0.1,0.5-0.2,0.6-0.4s0.2-0.4,0.2-0.7H608V141.7z"/>
		<path class="st4" d="M614.3,143.1h-1.4v-5.4c-0.5,0.5-1.1,0.8-1.8,1.1v-1.3c0.4-0.1,0.8-0.4,1.2-0.7c0.4-0.3,0.7-0.7,0.9-1.2h1.1
			V143.1z"/>
		<path class="st4" d="M617.3,139.1c-0.4-0.2-0.6-0.4-0.8-0.6c-0.2-0.3-0.2-0.6-0.2-0.9c0-0.6,0.2-1,0.6-1.4s0.9-0.5,1.6-0.5
			c0.7,0,1.2,0.2,1.6,0.5c0.4,0.4,0.6,0.8,0.6,1.4c0,0.3-0.1,0.6-0.3,0.9s-0.4,0.5-0.7,0.6c0.4,0.2,0.7,0.4,0.9,0.7
			c0.2,0.3,0.3,0.7,0.3,1.1c0,0.7-0.2,1.2-0.6,1.7c-0.4,0.4-1,0.6-1.7,0.6c-0.7,0-1.2-0.2-1.7-0.5c-0.5-0.4-0.8-1-0.8-1.7
			c0-0.4,0.1-0.8,0.3-1.1S616.9,139.3,617.3,139.1z M617.5,140.8c0,0.4,0.1,0.7,0.3,0.9c0.2,0.2,0.4,0.3,0.7,0.3
			c0.3,0,0.5-0.1,0.7-0.3c0.2-0.2,0.3-0.5,0.3-0.9c0-0.3-0.1-0.6-0.3-0.8c-0.2-0.2-0.4-0.3-0.7-0.3c-0.3,0-0.6,0.1-0.8,0.4
			S617.5,140.6,617.5,140.8z M617.6,137.7c0,0.3,0.1,0.5,0.2,0.7c0.2,0.2,0.4,0.2,0.6,0.2c0.3,0,0.5-0.1,0.6-0.2
			c0.2-0.2,0.2-0.4,0.2-0.7c0-0.3-0.1-0.5-0.2-0.6s-0.4-0.2-0.6-0.2c-0.3,0-0.5,0.1-0.6,0.2C617.7,137.2,617.6,137.4,617.6,137.7z"
			/>
		<path class="st4" d="M623.9,135.7c0.7,0,1.3,0.3,1.7,0.8c0.5,0.6,0.7,1.6,0.7,3c0,1.4-0.2,2.4-0.7,3c-0.4,0.5-0.9,0.8-1.7,0.8
			c-0.7,0-1.3-0.3-1.7-0.8c-0.4-0.6-0.7-1.5-0.7-3c0-1.4,0.2-2.4,0.7-3C622.6,135.9,623.2,135.7,623.9,135.7z M623.9,136.8
			c-0.2,0-0.3,0.1-0.5,0.2s-0.2,0.3-0.3,0.6c-0.1,0.4-0.1,1-0.1,1.9s0,1.5,0.1,1.8s0.2,0.5,0.3,0.6c0.1,0.1,0.3,0.2,0.5,0.2
			s0.3-0.1,0.5-0.2c0.1-0.1,0.2-0.3,0.3-0.6c0.1-0.4,0.1-1,0.1-1.8s0-1.5-0.1-1.8c-0.1-0.3-0.2-0.5-0.3-0.7
			C624.2,136.9,624.1,136.8,623.9,136.8z"/>
	</g>
	<g>
		<path class="st4" d="M602.3,150.5v-1.3h4.8v1c-0.4,0.4-0.8,1-1.2,1.7c-0.4,0.7-0.7,1.5-0.9,2.4c-0.2,0.8-0.3,1.6-0.3,2.2h-1.4
			c0-1,0.2-2.1,0.6-3.1s0.9-2,1.6-2.9H602.3z"/>
		<path class="st4" d="M608,155.1h1.4v1c0,0.4,0,0.7-0.1,1c-0.1,0.2-0.2,0.5-0.4,0.6c-0.2,0.2-0.4,0.3-0.7,0.4l-0.3-0.6
			c0.3-0.1,0.5-0.2,0.6-0.4s0.2-0.4,0.2-0.7H608V155.1z"/>
		<path class="st4" d="M614.3,156.5h-1.4v-5.4c-0.5,0.5-1.1,0.8-1.8,1.1v-1.3c0.4-0.1,0.8-0.4,1.2-0.7c0.4-0.3,0.7-0.7,0.9-1.2h1.1
			V156.5z"/>
		<path class="st4" d="M617.3,152.5c-0.4-0.2-0.6-0.4-0.8-0.6c-0.2-0.3-0.2-0.6-0.2-0.9c0-0.6,0.2-1,0.6-1.4s0.9-0.5,1.6-0.5
			c0.7,0,1.2,0.2,1.6,0.5c0.4,0.4,0.6,0.8,0.6,1.4c0,0.3-0.1,0.6-0.3,0.9s-0.4,0.5-0.7,0.6c0.4,0.2,0.7,0.4,0.9,0.7
			c0.2,0.3,0.3,0.7,0.3,1.1c0,0.7-0.2,1.2-0.6,1.7c-0.4,0.4-1,0.6-1.7,0.6c-0.7,0-1.2-0.2-1.7-0.5c-0.5-0.4-0.8-1-0.8-1.7
			c0-0.4,0.1-0.8,0.3-1.1S616.9,152.7,617.3,152.5z M617.5,154.2c0,0.4,0.1,0.7,0.3,0.9c0.2,0.2,0.4,0.3,0.7,0.3
			c0.3,0,0.5-0.1,0.7-0.3c0.2-0.2,0.3-0.5,0.3-0.9c0-0.3-0.1-0.6-0.3-0.8c-0.2-0.2-0.4-0.3-0.7-0.3c-0.3,0-0.6,0.1-0.8,0.4
			S617.5,154,617.5,154.2z M617.6,151.1c0,0.3,0.1,0.5,0.2,0.7c0.2,0.2,0.4,0.2,0.6,0.2c0.3,0,0.5-0.1,0.6-0.2
			c0.2-0.2,0.2-0.4,0.2-0.7c0-0.3-0.1-0.5-0.2-0.6s-0.4-0.2-0.6-0.2c-0.3,0-0.5,0.1-0.6,0.2C617.7,150.6,617.6,150.8,617.6,151.1z"
			/>
		<path class="st4" d="M623.9,149.1c0.7,0,1.3,0.3,1.7,0.8c0.5,0.6,0.7,1.6,0.7,3c0,1.4-0.2,2.4-0.7,3c-0.4,0.5-0.9,0.8-1.7,0.8
			c-0.7,0-1.3-0.3-1.7-0.8c-0.4-0.6-0.7-1.5-0.7-3c0-1.4,0.2-2.4,0.7-3C622.6,149.3,623.2,149.1,623.9,149.1z M623.9,150.2
			c-0.2,0-0.3,0.1-0.5,0.2s-0.2,0.3-0.3,0.6c-0.1,0.4-0.1,1-0.1,1.9s0,1.5,0.1,1.8s0.2,0.5,0.3,0.6c0.1,0.1,0.3,0.2,0.5,0.2
			s0.3-0.1,0.5-0.2c0.1-0.1,0.2-0.3,0.3-0.6c0.1-0.4,0.1-1,0.1-1.8s0-1.5-0.1-1.8c-0.1-0.3-0.2-0.5-0.3-0.7
			C624.2,150.3,624.1,150.2,623.9,150.2z"/>
	</g>
	<g>
		<path class="st4" d="M602.3,163.9v-1.3h4.8v1c-0.4,0.4-0.8,1-1.2,1.7c-0.4,0.7-0.7,1.5-0.9,2.4c-0.2,0.8-0.3,1.6-0.3,2.2h-1.4
			c0-1,0.2-2.1,0.6-3.1s0.9-2,1.6-2.9H602.3z"/>
		<path class="st4" d="M608,168.5h1.4v1c0,0.4,0,0.7-0.1,1c-0.1,0.2-0.2,0.5-0.4,0.6c-0.2,0.2-0.4,0.3-0.7,0.4l-0.3-0.6
			c0.3-0.1,0.5-0.2,0.6-0.4s0.2-0.4,0.2-0.7H608V168.5z"/>
		<path class="st4" d="M614.3,169.9h-1.4v-5.4c-0.5,0.5-1.1,0.8-1.8,1.1v-1.3c0.4-0.1,0.8-0.4,1.2-0.7c0.4-0.3,0.7-0.7,0.9-1.2h1.1
			V169.9z"/>
		<path class="st4" d="M617.3,165.9c-0.4-0.2-0.6-0.4-0.8-0.6c-0.2-0.3-0.2-0.6-0.2-0.9c0-0.6,0.2-1,0.6-1.4s0.9-0.5,1.6-0.5
			c0.7,0,1.2,0.2,1.6,0.5c0.4,0.4,0.6,0.8,0.6,1.4c0,0.3-0.1,0.6-0.3,0.9s-0.4,0.5-0.7,0.6c0.4,0.2,0.7,0.4,0.9,0.7
			c0.2,0.3,0.3,0.7,0.3,1.1c0,0.7-0.2,1.2-0.6,1.7c-0.4,0.4-1,0.6-1.7,0.6c-0.7,0-1.2-0.2-1.7-0.5c-0.5-0.4-0.8-1-0.8-1.7
			c0-0.4,0.1-0.8,0.3-1.1S616.9,166.1,617.3,165.9z M617.5,167.6c0,0.4,0.1,0.7,0.3,0.9c0.2,0.2,0.4,0.3,0.7,0.3
			c0.3,0,0.5-0.1,0.7-0.3c0.2-0.2,0.3-0.5,0.3-0.9c0-0.3-0.1-0.6-0.3-0.8c-0.2-0.2-0.4-0.3-0.7-0.3c-0.3,0-0.6,0.1-0.8,0.4
			S617.5,167.3,617.5,167.6z M617.6,164.4c0,0.3,0.1,0.5,0.2,0.7c0.2,0.2,0.4,0.2,0.6,0.2c0.3,0,0.5-0.1,0.6-0.2
			c0.2-0.2,0.2-0.4,0.2-0.7c0-0.3-0.1-0.5-0.2-0.6s-0.4-0.2-0.6-0.2c-0.3,0-0.5,0.1-0.6,0.2C617.7,164,617.6,164.2,617.6,164.4z"/>
		<path class="st4" d="M623.9,162.4c0.7,0,1.3,0.3,1.7,0.8c0.5,0.6,0.7,1.6,0.7,3c0,1.4-0.2,2.4-0.7,3c-0.4,0.5-0.9,0.8-1.7,0.8
			c-0.7,0-1.3-0.3-1.7-0.8c-0.4-0.6-0.7-1.5-0.7-3c0-1.4,0.2-2.4,0.7-3C622.6,162.7,623.2,162.4,623.9,162.4z M623.9,163.6
			c-0.2,0-0.3,0.1-0.5,0.2s-0.2,0.3-0.3,0.6c-0.1,0.4-0.1,1-0.1,1.9s0,1.5,0.1,1.8s0.2,0.5,0.3,0.6c0.1,0.1,0.3,0.2,0.5,0.2
			s0.3-0.1,0.5-0.2c0.1-0.1,0.2-0.3,0.3-0.6c0.1-0.4,0.1-1,0.1-1.8s0-1.5-0.1-1.8c-0.1-0.3-0.2-0.5-0.3-0.7
			C624.2,163.7,624.1,163.6,623.9,163.6z"/>
	</g>
	<g>
		<path class="st4" d="M602.3,181.4l1.4-0.1c0,0.3,0.2,0.6,0.4,0.8c0.2,0.2,0.4,0.3,0.7,0.3c0.3,0,0.5-0.1,0.7-0.4s0.3-0.6,0.3-1.1
			c0-0.5-0.1-0.8-0.3-1s-0.5-0.3-0.8-0.3c-0.4,0-0.8,0.2-1.1,0.5l-1.1-0.2l0.7-3.9h3.7v1.3h-2.6l-0.2,1.3c0.3-0.2,0.6-0.2,1-0.2
			c0.6,0,1.1,0.2,1.6,0.7c0.4,0.5,0.6,1.1,0.6,1.8c0,0.6-0.2,1.2-0.5,1.6c-0.5,0.7-1.1,1-2,1c-0.7,0-1.2-0.2-1.7-0.6
			S602.4,182,602.3,181.4z"/>
		<path class="st4" d="M608,181.9h1.4v1c0,0.4,0,0.7-0.1,1c-0.1,0.2-0.2,0.5-0.4,0.6c-0.2,0.2-0.4,0.3-0.7,0.4l-0.3-0.6
			c0.3-0.1,0.5-0.2,0.6-0.4s0.2-0.4,0.2-0.7H608V181.9z"/>
		<path class="st4" d="M615.4,182v1.3h-4.9c0.1-0.5,0.2-1,0.5-1.4c0.3-0.4,0.8-1,1.6-1.8c0.6-0.6,1-1,1.2-1.2
			c0.2-0.3,0.3-0.6,0.3-0.9c0-0.3-0.1-0.6-0.3-0.7s-0.4-0.3-0.7-0.3c-0.3,0-0.5,0.1-0.7,0.3c-0.2,0.2-0.3,0.5-0.3,0.9l-1.4-0.1
			c0.1-0.8,0.3-1.3,0.8-1.7c0.4-0.3,1-0.5,1.6-0.5c0.7,0,1.3,0.2,1.7,0.6c0.4,0.4,0.6,0.9,0.6,1.5c0,0.3-0.1,0.7-0.2,1
			c-0.1,0.3-0.3,0.6-0.6,0.9c-0.2,0.2-0.5,0.5-0.9,0.9c-0.4,0.4-0.7,0.7-0.8,0.8s-0.2,0.3-0.3,0.4H615.4z"/>
		<path class="st4" d="M617.3,179.3c-0.4-0.2-0.6-0.4-0.8-0.6c-0.2-0.3-0.2-0.6-0.2-0.9c0-0.6,0.2-1,0.6-1.4s0.9-0.5,1.6-0.5
			c0.7,0,1.2,0.2,1.6,0.5c0.4,0.4,0.6,0.8,0.6,1.4c0,0.3-0.1,0.6-0.3,0.9s-0.4,0.5-0.7,0.6c0.4,0.2,0.7,0.4,0.9,0.7
			c0.2,0.3,0.3,0.7,0.3,1.1c0,0.7-0.2,1.2-0.6,1.7c-0.4,0.4-1,0.6-1.7,0.6c-0.7,0-1.2-0.2-1.7-0.5c-0.5-0.4-0.8-1-0.8-1.7
			c0-0.4,0.1-0.8,0.3-1.1S616.9,179.5,617.3,179.3z M617.5,181c0,0.4,0.1,0.7,0.3,0.9c0.2,0.2,0.4,0.3,0.7,0.3
			c0.3,0,0.5-0.1,0.7-0.3c0.2-0.2,0.3-0.5,0.3-0.9c0-0.3-0.1-0.6-0.3-0.8c-0.2-0.2-0.4-0.3-0.7-0.3c-0.3,0-0.6,0.1-0.8,0.4
			S617.5,180.7,617.5,181z M617.6,177.8c0,0.3,0.1,0.5,0.2,0.7c0.2,0.2,0.4,0.2,0.6,0.2c0.3,0,0.5-0.1,0.6-0.2
			c0.2-0.2,0.2-0.4,0.2-0.7c0-0.3-0.1-0.5-0.2-0.6s-0.4-0.2-0.6-0.2c-0.3,0-0.5,0.1-0.6,0.2C617.7,177.4,617.6,177.6,617.6,177.8z"
			/>
		<path class="st4" d="M624.3,183.3v-1.5h-3v-1.2l3.2-4.7h1.2v4.7h0.9v1.2h-0.9v1.5H624.3z M624.3,180.5V178l-1.7,2.5H624.3z"/>
	</g>
	<g>
		<path class="st4" d="M602.3,194.8l1.4-0.1c0,0.3,0.2,0.6,0.4,0.8c0.2,0.2,0.4,0.3,0.7,0.3c0.3,0,0.5-0.1,0.7-0.4s0.3-0.6,0.3-1.1
			c0-0.5-0.1-0.8-0.3-1s-0.5-0.3-0.8-0.3c-0.4,0-0.8,0.2-1.1,0.5l-1.1-0.2l0.7-3.9h3.7v1.3h-2.6l-0.2,1.3c0.3-0.2,0.6-0.2,1-0.2
			c0.6,0,1.1,0.2,1.6,0.7c0.4,0.5,0.6,1.1,0.6,1.8c0,0.6-0.2,1.2-0.5,1.6c-0.5,0.7-1.1,1-2,1c-0.7,0-1.2-0.2-1.7-0.6
			S602.4,195.4,602.3,194.8z"/>
		<path class="st4" d="M608,195.2h1.4v1c0,0.4,0,0.7-0.1,1c-0.1,0.2-0.2,0.5-0.4,0.6c-0.2,0.2-0.4,0.3-0.7,0.4l-0.3-0.6
			c0.3-0.1,0.5-0.2,0.6-0.4s0.2-0.4,0.2-0.7H608V195.2z"/>
		<path class="st4" d="M615.4,195.3v1.3h-4.9c0.1-0.5,0.2-1,0.5-1.4c0.3-0.4,0.8-1,1.6-1.8c0.6-0.6,1-1,1.2-1.2
			c0.2-0.3,0.3-0.6,0.3-0.9c0-0.3-0.1-0.6-0.3-0.7s-0.4-0.3-0.7-0.3c-0.3,0-0.5,0.1-0.7,0.3c-0.2,0.2-0.3,0.5-0.3,0.9l-1.4-0.1
			c0.1-0.8,0.3-1.3,0.8-1.7c0.4-0.3,1-0.5,1.6-0.5c0.7,0,1.3,0.2,1.7,0.6c0.4,0.4,0.6,0.9,0.6,1.5c0,0.3-0.1,0.7-0.2,1
			c-0.1,0.3-0.3,0.6-0.6,0.9c-0.2,0.2-0.5,0.5-0.9,0.9c-0.4,0.4-0.7,0.7-0.8,0.8s-0.2,0.3-0.3,0.4H615.4z"/>
		<path class="st4" d="M617.3,192.7c-0.4-0.2-0.6-0.4-0.8-0.6c-0.2-0.3-0.2-0.6-0.2-0.9c0-0.6,0.2-1,0.6-1.4s0.9-0.5,1.6-0.5
			c0.7,0,1.2,0.2,1.6,0.5c0.4,0.4,0.6,0.8,0.6,1.4c0,0.3-0.1,0.6-0.3,0.9s-0.4,0.5-0.7,0.6c0.4,0.2,0.7,0.4,0.9,0.7
			c0.2,0.3,0.3,0.7,0.3,1.1c0,0.7-0.2,1.2-0.6,1.7c-0.4,0.4-1,0.6-1.7,0.6c-0.7,0-1.2-0.2-1.7-0.5c-0.5-0.4-0.8-1-0.8-1.7
			c0-0.4,0.1-0.8,0.3-1.1S616.9,192.9,617.3,192.7z M617.5,194.4c0,0.4,0.1,0.7,0.3,0.9c0.2,0.2,0.4,0.3,0.7,0.3
			c0.3,0,0.5-0.1,0.7-0.3c0.2-0.2,0.3-0.5,0.3-0.9c0-0.3-0.1-0.6-0.3-0.8c-0.2-0.2-0.4-0.3-0.7-0.3c-0.3,0-0.6,0.1-0.8,0.4
			S617.5,194.1,617.5,194.4z M617.6,191.2c0,0.3,0.1,0.5,0.2,0.7c0.2,0.2,0.4,0.2,0.6,0.2c0.3,0,0.5-0.1,0.6-0.2
			c0.2-0.2,0.2-0.4,0.2-0.7c0-0.3-0.1-0.5-0.2-0.6s-0.4-0.2-0.6-0.2c-0.3,0-0.5,0.1-0.6,0.2C617.7,190.8,617.6,191,617.6,191.2z"/>
		<path class="st4" d="M624.3,196.7v-1.5h-3v-1.2l3.2-4.7h1.2v4.7h0.9v1.2h-0.9v1.5H624.3z M624.3,193.9v-2.5l-1.7,2.5H624.3z"/>
	</g>
	<g>
		<path class="st4" d="M623.4,208.1v-1.4h2.8v1.4H623.4z"/>
	</g>
	<g>
		<path class="st4" d="M623.4,221.5v-1.4h2.8v1.4H623.4z"/>
	</g>
	<g>
		<path class="st4" d="M623.4,234.9v-1.4h2.8v1.4H623.4z"/>
	</g>
	<g>
		<path class="st4" d="M623.4,248.3v-1.4h2.8v1.4H623.4z"/>
	</g>
	<g>
		<path class="st4" d="M623.4,261.7v-1.4h2.8v1.4H623.4z"/>
	</g>
	<g>
		<path class="st4" d="M623.4,275.1v-1.4h2.8v1.4H623.4z"/>
	</g>
	<g>
		<path class="st4" d="M623.4,288.4V287h2.8v1.4H623.4z"/>
	</g>
	<g>
		<path class="st4" d="M602.2,301.8l1.4-0.2c0,0.4,0.2,0.6,0.3,0.8c0.2,0.2,0.4,0.3,0.7,0.3c0.3,0,0.5-0.1,0.7-0.3s0.3-0.5,0.3-0.9
			c0-0.4-0.1-0.6-0.3-0.8s-0.4-0.3-0.7-0.3c-0.2,0-0.4,0-0.6,0.1l0.2-1.2c0.4,0,0.7-0.1,0.9-0.3c0.2-0.2,0.3-0.4,0.3-0.7
			c0-0.3-0.1-0.4-0.2-0.6s-0.3-0.2-0.6-0.2c-0.2,0-0.4,0.1-0.6,0.3c-0.2,0.2-0.3,0.4-0.3,0.7l-1.3-0.2c0.1-0.4,0.2-0.8,0.4-1.1
			c0.2-0.3,0.4-0.5,0.8-0.6s0.7-0.2,1.1-0.2c0.7,0,1.2,0.2,1.7,0.7c0.3,0.4,0.5,0.8,0.5,1.2c0,0.6-0.4,1.2-1.1,1.6
			c0.4,0.1,0.8,0.3,1,0.6c0.3,0.3,0.4,0.7,0.4,1.1c0,0.7-0.2,1.2-0.7,1.7c-0.5,0.5-1.1,0.7-1.8,0.7c-0.7,0-1.2-0.2-1.6-0.6
			C602.5,303,602.3,302.5,602.2,301.8z"/>
		<path class="st4" d="M608,302.4h1.4v1c0,0.4,0,0.7-0.1,1c-0.1,0.2-0.2,0.5-0.4,0.6c-0.2,0.2-0.4,0.3-0.7,0.4l-0.3-0.6
			c0.3-0.1,0.5-0.2,0.6-0.4s0.2-0.4,0.2-0.7H608V302.4z"/>
		<path class="st4" d="M615.4,298.2l-1.4,0.2c0-0.3-0.1-0.5-0.3-0.6c-0.1-0.1-0.3-0.2-0.5-0.2c-0.3,0-0.5,0.1-0.8,0.4
			c-0.2,0.3-0.3,0.8-0.4,1.7c0.3-0.4,0.8-0.6,1.3-0.6c0.6,0,1.1,0.2,1.5,0.7c0.4,0.5,0.6,1,0.6,1.7c0,0.8-0.2,1.4-0.7,1.8
			c-0.4,0.5-1,0.7-1.7,0.7c-0.7,0-1.3-0.3-1.8-0.9s-0.7-1.5-0.7-2.9c0-1.4,0.2-2.3,0.7-2.9c0.5-0.6,1.1-0.9,1.9-0.9
			c0.6,0,1,0.2,1.4,0.5C615.1,297.2,615.3,297.6,615.4,298.2z M612.3,301.3c0,0.5,0.1,0.8,0.3,1.1s0.4,0.4,0.7,0.4
			c0.3,0,0.5-0.1,0.6-0.3s0.3-0.5,0.3-1c0-0.5-0.1-0.8-0.3-1.1c-0.2-0.2-0.4-0.3-0.7-0.3c-0.3,0-0.5,0.1-0.7,0.3
			C612.4,300.6,612.3,300.9,612.3,301.3z"/>
		<path class="st4" d="M616.1,297.8v-1.3h4.8v1c-0.4,0.4-0.8,1-1.2,1.7c-0.4,0.7-0.7,1.5-0.9,2.4c-0.2,0.8-0.3,1.6-0.3,2.2h-1.4
			c0-1,0.2-2.1,0.6-3.1c0.4-1.1,0.9-2,1.6-2.9H616.1z"/>
		<path class="st4" d="M621.6,301.9l1.4-0.1c0,0.3,0.2,0.6,0.4,0.8c0.2,0.2,0.4,0.3,0.7,0.3c0.3,0,0.5-0.1,0.7-0.4s0.3-0.6,0.3-1.1
			c0-0.5-0.1-0.8-0.3-1s-0.5-0.3-0.8-0.3c-0.4,0-0.8,0.2-1.1,0.5l-1.1-0.2l0.7-3.9h3.7v1.3h-2.6l-0.2,1.3c0.3-0.2,0.6-0.2,1-0.2
			c0.6,0,1.1,0.2,1.6,0.7c0.4,0.5,0.6,1.1,0.6,1.8c0,0.6-0.2,1.2-0.5,1.6c-0.5,0.7-1.1,1-2,1c-0.7,0-1.2-0.2-1.7-0.6
			S621.6,302.5,621.6,301.9z"/>
	</g>
	<g>
		<path class="st4" d="M602.2,315.2l1.4-0.2c0,0.4,0.2,0.6,0.3,0.8c0.2,0.2,0.4,0.3,0.7,0.3c0.3,0,0.5-0.1,0.7-0.3s0.3-0.5,0.3-0.9
			c0-0.4-0.1-0.6-0.3-0.8s-0.4-0.3-0.7-0.3c-0.2,0-0.4,0-0.6,0.1l0.2-1.2c0.4,0,0.7-0.1,0.9-0.3c0.2-0.2,0.3-0.4,0.3-0.7
			c0-0.3-0.1-0.4-0.2-0.6s-0.3-0.2-0.6-0.2c-0.2,0-0.4,0.1-0.6,0.3c-0.2,0.2-0.3,0.4-0.3,0.7l-1.3-0.2c0.1-0.4,0.2-0.8,0.4-1.1
			c0.2-0.3,0.4-0.5,0.8-0.6s0.7-0.2,1.1-0.2c0.7,0,1.2,0.2,1.7,0.7c0.3,0.4,0.5,0.8,0.5,1.2c0,0.6-0.4,1.2-1.1,1.6
			c0.4,0.1,0.8,0.3,1,0.6c0.3,0.3,0.4,0.7,0.4,1.1c0,0.7-0.2,1.2-0.7,1.7c-0.5,0.5-1.1,0.7-1.8,0.7c-0.7,0-1.2-0.2-1.6-0.6
			C602.5,316.4,602.3,315.9,602.2,315.2z"/>
		<path class="st4" d="M608,315.8h1.4v1c0,0.4,0,0.7-0.1,1c-0.1,0.2-0.2,0.5-0.4,0.6c-0.2,0.2-0.4,0.3-0.7,0.4l-0.3-0.6
			c0.3-0.1,0.5-0.2,0.6-0.4s0.2-0.4,0.2-0.7H608V315.8z"/>
		<path class="st4" d="M614.3,317.2h-1.4v-5.4c-0.5,0.5-1.1,0.8-1.8,1.1v-1.3c0.4-0.1,0.8-0.4,1.2-0.7c0.4-0.3,0.7-0.7,0.9-1.2h1.1
			V317.2z"/>
		<path class="st4" d="M616.1,311.2v-1.3h4.8v1c-0.4,0.4-0.8,1-1.2,1.7c-0.4,0.7-0.7,1.5-0.9,2.4c-0.2,0.8-0.3,1.6-0.3,2.2h-1.4
			c0-1,0.2-2.1,0.6-3.1c0.4-1.1,0.9-2,1.6-2.9H616.1z"/>
		<path class="st4" d="M623.9,309.8c0.7,0,1.3,0.3,1.7,0.8c0.5,0.6,0.7,1.6,0.7,3c0,1.4-0.2,2.4-0.7,3c-0.4,0.5-0.9,0.8-1.7,0.8
			c-0.7,0-1.3-0.3-1.7-0.8c-0.4-0.6-0.7-1.5-0.7-3c0-1.4,0.2-2.4,0.7-3C622.6,310,623.2,309.8,623.9,309.8z M623.9,310.9
			c-0.2,0-0.3,0.1-0.5,0.2s-0.2,0.3-0.3,0.6c-0.1,0.4-0.1,1-0.1,1.9s0,1.5,0.1,1.8s0.2,0.5,0.3,0.6c0.1,0.1,0.3,0.2,0.5,0.2
			s0.3-0.1,0.5-0.2c0.1-0.1,0.2-0.3,0.3-0.6c0.1-0.4,0.1-1,0.1-1.8s0-1.5-0.1-1.8c-0.1-0.3-0.2-0.5-0.3-0.7
			C624.2,311,624.1,310.9,623.9,310.9z"/>
	</g>
	<g>
		<path class="st4" d="M605.9,330.6h-1.4v-5.4c-0.5,0.5-1.1,0.8-1.8,1.1V325c0.4-0.1,0.8-0.4,1.2-0.7c0.4-0.3,0.7-0.7,0.9-1.2h1.1
			V330.6z"/>
		<path class="st4" d="M608,329.2h1.4v1c0,0.4,0,0.7-0.1,1c-0.1,0.2-0.2,0.5-0.4,0.6c-0.2,0.2-0.4,0.3-0.7,0.4l-0.3-0.6
			c0.3-0.1,0.5-0.2,0.6-0.4s0.2-0.4,0.2-0.7H608V329.2z"/>
		<path class="st4" d="M615.4,329.3v1.3h-4.9c0.1-0.5,0.2-1,0.5-1.4c0.3-0.4,0.8-1,1.6-1.8c0.6-0.6,1-1,1.2-1.2
			c0.2-0.3,0.3-0.6,0.3-0.9c0-0.3-0.1-0.6-0.3-0.7s-0.4-0.3-0.7-0.3c-0.3,0-0.5,0.1-0.7,0.3c-0.2,0.2-0.3,0.5-0.3,0.9l-1.4-0.1
			c0.1-0.8,0.3-1.3,0.8-1.7c0.4-0.3,1-0.5,1.6-0.5c0.7,0,1.3,0.2,1.7,0.6c0.4,0.4,0.6,0.9,0.6,1.5c0,0.3-0.1,0.7-0.2,1
			c-0.1,0.3-0.3,0.6-0.6,0.9c-0.2,0.2-0.5,0.5-0.9,0.9c-0.4,0.4-0.7,0.7-0.8,0.8s-0.2,0.3-0.3,0.4H615.4z"/>
		<path class="st4" d="M618.5,323.2c0.7,0,1.3,0.3,1.7,0.8c0.5,0.6,0.7,1.6,0.7,3c0,1.4-0.2,2.4-0.7,3c-0.4,0.5-0.9,0.8-1.7,0.8
			c-0.7,0-1.3-0.3-1.7-0.8c-0.4-0.6-0.7-1.5-0.7-3c0-1.4,0.2-2.4,0.7-3C617.2,323.4,617.8,323.2,618.5,323.2z M618.5,324.3
			c-0.2,0-0.3,0.1-0.5,0.2c-0.1,0.1-0.2,0.3-0.3,0.6c-0.1,0.4-0.1,1-0.1,1.9s0,1.5,0.1,1.8c0.1,0.3,0.2,0.5,0.3,0.6
			c0.1,0.1,0.3,0.2,0.5,0.2c0.2,0,0.3-0.1,0.5-0.2c0.1-0.1,0.2-0.3,0.3-0.6c0.1-0.4,0.1-1,0.1-1.8s0-1.5-0.1-1.8
			c-0.1-0.3-0.2-0.5-0.3-0.7S618.7,324.3,618.5,324.3z"/>
		<path class="st4" d="M624.3,330.6v-1.5h-3v-1.2l3.2-4.7h1.2v4.7h0.9v1.2h-0.9v1.5H624.3z M624.3,327.9v-2.5l-1.7,2.5H624.3z"/>
	</g>
	<g>
		<path class="st4" d="M613.9,344h-1.4v-5.4c-0.5,0.5-1.1,0.8-1.8,1.1v-1.3c0.4-0.1,0.8-0.4,1.2-0.7c0.4-0.3,0.7-0.7,0.9-1.2h1.1
			V344z"/>
		<path class="st4" d="M618.3,336.6c0.7,0,1.3,0.3,1.7,0.8c0.5,0.6,0.7,1.6,0.7,3c0,1.4-0.2,2.4-0.7,3c-0.4,0.5-0.9,0.8-1.7,0.8
			c-0.7,0-1.3-0.3-1.7-0.8c-0.4-0.6-0.7-1.5-0.7-3c0-1.4,0.2-2.4,0.7-3C617.1,336.8,617.6,336.6,618.3,336.6z M618.3,337.7
			c-0.2,0-0.3,0.1-0.5,0.2c-0.1,0.1-0.2,0.3-0.3,0.6c-0.1,0.4-0.1,1-0.1,1.9s0,1.5,0.1,1.8c0.1,0.3,0.2,0.5,0.3,0.6
			c0.1,0.1,0.3,0.2,0.5,0.2c0.2,0,0.3-0.1,0.5-0.2c0.1-0.1,0.2-0.3,0.3-0.6c0.1-0.4,0.1-1,0.1-1.8s0-1.5-0.1-1.8
			c-0.1-0.3-0.2-0.5-0.3-0.7S618.5,337.7,618.3,337.7z"/>
		<path class="st4" d="M621.7,342.1l1.4-0.1c0,0.3,0.2,0.6,0.4,0.8c0.2,0.2,0.4,0.3,0.7,0.3c0.3,0,0.5-0.1,0.7-0.4s0.3-0.6,0.3-1.1
			c0-0.5-0.1-0.8-0.3-1s-0.5-0.3-0.8-0.3c-0.4,0-0.8,0.2-1.1,0.5l-1.1-0.2l0.7-3.9h3.7v1.3h-2.6l-0.2,1.3c0.3-0.2,0.6-0.2,1-0.2
			c0.6,0,1.1,0.2,1.6,0.7c0.4,0.5,0.6,1.1,0.6,1.8c0,0.6-0.2,1.2-0.5,1.6c-0.5,0.7-1.1,1-2,1c-0.7,0-1.2-0.2-1.7-0.6
			S621.7,342.7,621.7,342.1z"/>
	</g>
	<g>
		<path class="st4" d="M558.6,33.2l1.4,0.5c-0.2,0.8-0.6,1.4-1.1,1.8s-1.2,0.6-1.9,0.6c-1,0-1.8-0.3-2.4-1c-0.6-0.7-0.9-1.6-0.9-2.8
			c0-1.2,0.3-2.2,0.9-2.9s1.5-1,2.5-1c0.9,0,1.6,0.3,2.2,0.8c0.3,0.3,0.6,0.8,0.7,1.4l-1.5,0.4c-0.1-0.4-0.3-0.7-0.5-0.9
			c-0.3-0.2-0.6-0.3-1-0.3c-0.5,0-1,0.2-1.3,0.6c-0.3,0.4-0.5,1-0.5,1.9c0,0.9,0.2,1.6,0.5,2s0.8,0.6,1.3,0.6c0.4,0,0.7-0.1,1-0.4
			C558.2,34.2,558.4,33.8,558.6,33.2z"/>
		<path class="st4" d="M561.1,35.9v-7.4h5.4v1.3h-3.9v1.6h3.7v1.2h-3.7v2h4.1v1.2H561.1z"/>
		<path class="st4" d="M567.7,35.9v-7.4h3.1c0.8,0,1.3,0.1,1.7,0.2c0.4,0.1,0.6,0.4,0.9,0.7s0.3,0.7,0.3,1.2c0,0.6-0.2,1-0.5,1.4
			c-0.3,0.4-0.8,0.6-1.4,0.7c0.3,0.2,0.6,0.4,0.8,0.6c0.2,0.2,0.5,0.6,0.8,1.2l0.9,1.4h-1.8l-1.1-1.6c-0.4-0.6-0.6-0.9-0.8-1.1
			s-0.3-0.3-0.4-0.3s-0.4-0.1-0.7-0.1h-0.3v3.1H567.7z M569.2,31.7h1.1c0.7,0,1.2,0,1.3-0.1c0.2-0.1,0.3-0.2,0.4-0.3
			c0.1-0.1,0.2-0.3,0.2-0.6c0-0.2-0.1-0.5-0.2-0.6c-0.1-0.2-0.3-0.3-0.6-0.3c-0.1,0-0.5,0-1.1,0h-1.2V31.7z"/>
		<path class="st4" d="M580.3,38.1h-1c-0.5-0.8-0.9-1.6-1.2-2.4c-0.3-0.8-0.4-1.7-0.4-2.4c0-1,0.2-1.9,0.5-2.8
			c0.3-0.8,0.6-1.5,1.1-2.1h1c-0.5,1-0.8,1.9-0.9,2.6c-0.2,0.7-0.3,1.5-0.3,2.3c0,0.6,0.1,1.1,0.2,1.7c0.1,0.6,0.2,1.1,0.4,1.7
			C579.8,37,580,37.5,580.3,38.1z"/>
		<path class="st4" d="M581.6,35.9v-7.3h1.5v6.1h3.7v1.2H581.6z"/>
		<path class="st4" d="M587.5,35.9v-7.4h1.5v7.4H587.5z"/>
		<path class="st4" d="M590,35.9v-7.4h5v1.3h-3.5v1.8h3.1v1.3h-3.1v3.1H590z"/>
		<path class="st4" d="M596,35.9v-7.4h5.4v1.3h-3.9v1.6h3.7v1.2h-3.7v2h4.1v1.2H596z"/>
		<path class="st4" d="M605.3,32.3c0-0.8,0.1-1.4,0.3-1.9c0.2-0.4,0.4-0.7,0.7-1c0.3-0.3,0.6-0.5,0.9-0.7c0.5-0.2,1-0.3,1.6-0.3
			c1.1,0,1.9,0.3,2.6,1c0.6,0.7,1,1.6,1,2.8c0,1.2-0.3,2.1-1,2.8c-0.6,0.7-1.5,1-2.6,1c-1.1,0-2-0.3-2.6-1
			C605.6,34.4,605.3,33.5,605.3,32.3z M606.8,32.2c0,0.8,0.2,1.5,0.6,1.9c0.4,0.4,0.9,0.6,1.5,0.6s1.1-0.2,1.4-0.6
			c0.4-0.4,0.6-1.1,0.6-1.9c0-0.8-0.2-1.5-0.6-1.9c-0.4-0.4-0.9-0.6-1.5-0.6s-1.1,0.2-1.5,0.6C607,30.7,606.8,31.4,606.8,32.2z"/>
		<path class="st4" d="M613.4,35.9v-7.4h5v1.3h-3.5v1.8h3.1v1.3h-3.1v3.1H613.4z"/>
		<path class="st4" d="M622.1,33.5l1.4-0.1c0.1,0.5,0.3,0.8,0.5,1.1s0.6,0.3,1.1,0.3c0.5,0,0.8-0.1,1.1-0.3c0.2-0.2,0.4-0.4,0.4-0.7
			c0-0.2-0.1-0.3-0.2-0.4c-0.1-0.1-0.3-0.2-0.5-0.3c-0.2-0.1-0.6-0.2-1.2-0.3c-0.8-0.2-1.3-0.4-1.7-0.7c-0.4-0.4-0.7-0.9-0.7-1.5
			c0-0.4,0.1-0.7,0.3-1.1c0.2-0.3,0.5-0.6,0.9-0.8s0.9-0.3,1.4-0.3c0.9,0,1.6,0.2,2.1,0.6c0.5,0.4,0.7,1,0.7,1.6l-1.5,0.1
			c-0.1-0.4-0.2-0.7-0.4-0.8c-0.2-0.2-0.5-0.3-0.9-0.3c-0.4,0-0.8,0.1-1,0.3c-0.2,0.1-0.2,0.3-0.2,0.5c0,0.2,0.1,0.3,0.2,0.4
			c0.2,0.2,0.6,0.3,1.4,0.5c0.7,0.2,1.3,0.3,1.6,0.5c0.3,0.2,0.6,0.4,0.8,0.8c0.2,0.3,0.3,0.7,0.3,1.2c0,0.4-0.1,0.8-0.3,1.2
			c-0.2,0.4-0.6,0.6-1,0.8s-1,0.3-1.6,0.3c-0.9,0-1.6-0.2-2.1-0.6C622.5,35,622.2,34.4,622.1,33.5z"/>
		<path class="st4" d="M630.7,35.9v-6.2h-2.2v-1.3h5.8v1.3h-2.2v6.2H630.7z"/>
		<path class="st4" d="M635.1,28.5h1.5v4c0,0.6,0,1,0.1,1.2c0.1,0.3,0.2,0.5,0.5,0.7c0.2,0.2,0.6,0.3,1,0.3c0.4,0,0.7-0.1,0.9-0.3
			c0.2-0.2,0.3-0.4,0.4-0.6c0-0.3,0.1-0.7,0.1-1.3v-4.1h1.5v3.9c0,0.9,0,1.5-0.1,1.9s-0.2,0.7-0.4,0.9c-0.2,0.3-0.5,0.5-0.9,0.6
			s-0.8,0.2-1.4,0.2c-0.7,0-1.2-0.1-1.6-0.2c-0.4-0.2-0.6-0.4-0.9-0.6c-0.2-0.3-0.3-0.5-0.4-0.8c-0.1-0.4-0.1-1.1-0.1-1.9V28.5z"/>
		<path class="st4" d="M642.3,28.5h2.7c0.6,0,1.1,0,1.4,0.1c0.4,0.1,0.8,0.4,1.1,0.7c0.3,0.3,0.5,0.7,0.7,1.2
			c0.2,0.5,0.2,1.1,0.2,1.8c0,0.6-0.1,1.1-0.2,1.6c-0.2,0.5-0.4,1-0.8,1.3c-0.3,0.3-0.6,0.4-1,0.6c-0.3,0.1-0.8,0.2-1.3,0.2h-2.8
			V28.5z M643.8,29.8v4.9h1.1c0.4,0,0.7,0,0.9-0.1c0.2-0.1,0.4-0.2,0.6-0.3c0.2-0.1,0.3-0.4,0.4-0.7c0.1-0.3,0.1-0.8,0.1-1.4
			s0-1-0.1-1.3s-0.2-0.5-0.4-0.7c-0.2-0.2-0.4-0.3-0.7-0.3c-0.2,0-0.6-0.1-1.2-0.1H643.8z"/>
		<path class="st4" d="M651.4,35.9v-3.1l-2.7-4.3h1.7l1.7,2.9l1.7-2.9h1.7l-2.7,4.3v3.1H651.4z"/>
		<path class="st4" d="M655.1,38.1c0.3-0.6,0.5-1.1,0.6-1.4c0.1-0.3,0.2-0.7,0.3-1.1c0.1-0.4,0.2-0.8,0.2-1.2c0-0.4,0.1-0.8,0.1-1.2
			c0-0.8-0.1-1.6-0.3-2.3s-0.5-1.6-0.9-2.6h1c0.5,0.7,0.9,1.5,1.2,2.3c0.3,0.8,0.4,1.6,0.4,2.5c0,0.7-0.1,1.5-0.3,2.3
			c-0.3,0.9-0.7,1.8-1.2,2.7H655.1z"/>
	</g>
	<polyline class="st13" points="541,38.4 541,39 670.9,39 670.9,38.4 541,38.4 	"/>
	<polyline class="st13" points="568.8,78.6 568.8,79.2 628.9,79.2 628.9,78.6 568.8,78.6 	"/>
</g>
<g>
	<g class="st9">
		
			<image style="overflow:visible;" width="839" height="1742" xlink:href="4E4296F8.png"  transform="matrix(0.24 0 0 0.24 214.4479 -17.5197)">
		</image>
	</g>
	<path class="st10" d="M377.3,227.6c0.4-5.6-0.5-45.4-0.1-46.8c0.4-1.4-0.7-47.3-0.1-48.7c0.6-1.4,0.7-48.2,0.6-53.8
		c-0.2-5.2-0.2-51.7-0.6-59.7c-0.1,0-0.2,0-0.3,0c-0.3,0-0.5-0.1-0.8-0.2h-9.2c-0.5,0.2-1.2,0.4-1.9,0.6c-0.3-0.2-0.6-0.4-0.9-0.6
		H252.2c0.3,4.7,0.5,9.4,0.4,14.1c0.1,0,0.2-0.1,0.4-0.1c0,0.9,0.1,1.4,0.1,1.4s1.1,43.8,0.2,46.5c-0.9,2.6-3.1,54.3-2.7,61.2
		c0.4,6.9-0.1,84.8,0.4,94c0.5,9.2,0.2,77.2,0.2,77.2s1,26.4,1.6,37.9c-0.1,0-0.1,0-0.2,0c0.1,1,0.2,2,0.2,3
		c-0.1-2.2,0.2,2.5,0.2,2.9c0.1,1.3,0.2,2.5,0.3,3.8c0,0.3,0,0.5,0.1,0.8c1.1,0,8.4,2.1,9.7,3.2c1.3,1.1,14.3-2.3,14.8-1.2
		c0.4,1.1,10.6-1.3,11.5-0.6c0.9,0.8,9.2-1.4,11.5-0.8c2.3,0.6,23.1-3,23.8-3.5c0.7-0.5,7.4-2.2,9-2.7c1.6-0.5,16-1.6,16-1.7
		c0,0,7.6,0.2,9.1,0.9c1.4,0.7,11.4,2.3,13.1,1.6c0.2-0.1,0.4-0.1,0.7-0.2c0.6-1.7,1.4-2.7,2.5-2.7c0.7,0,1.3,0.5,1.8,1.3
		c0.9-0.9,1.8-1.7,2.7-2.3c0.2-6,0.3-12.8,0.4-18.6v-13.2c-0.1-2.3-0.1-8.9,0-16.2v-23.2c-0.4-7.9-1.4-30.1-1.4-32.8
		C378.2,245.5,376.9,233.2,377.3,227.6z"/>
	<g>
		<path class="st4" d="M284.1,62.7v-7.4h5.4v1.3h-3.9v1.6h3.7v1.2h-3.7v2h4.1v1.2H284.1z"/>
		<path class="st4" d="M290.8,62.7v-7.4h5v1.3h-3.5v1.8h3.1v1.3h-3.1v3.1H290.8z"/>
		<path class="st4" d="M296.8,62.7v-7.4h5v1.3h-3.5v1.8h3.1v1.3h-3.1v3.1H296.8z"/>
		<path class="st4" d="M302.8,62.7v-7.4h5.4v1.3h-3.9v1.6h3.7v1.2h-3.7v2h4.1v1.2H302.8z"/>
		<path class="st4" d="M314.1,59.9l1.4,0.5c-0.2,0.8-0.6,1.4-1.1,1.8s-1.2,0.6-1.9,0.6c-1,0-1.8-0.3-2.4-1c-0.6-0.7-0.9-1.6-0.9-2.8
			c0-1.2,0.3-2.2,0.9-2.9s1.5-1,2.5-1c0.9,0,1.6,0.3,2.2,0.8c0.3,0.3,0.6,0.8,0.7,1.4l-1.5,0.4c-0.1-0.4-0.3-0.7-0.5-0.9
			c-0.3-0.2-0.6-0.3-1-0.3c-0.5,0-1,0.2-1.3,0.6c-0.3,0.4-0.5,1-0.5,1.9c0,0.9,0.2,1.6,0.5,2c0.3,0.4,0.8,0.6,1.3,0.6
			c0.4,0,0.7-0.1,1-0.4C313.8,60.9,314,60.5,314.1,59.9z"/>
		<path class="st4" d="M318.3,62.7v-6.2h-2.2v-1.3h5.8v1.3h-2.2v6.2H318.3z"/>
		<path class="st4" d="M322.6,62.7v-7.4h1.5v7.4H322.6z"/>
		<path class="st4" d="M326.9,62.7l-2.6-7.4h1.6l1.9,5.5l1.8-5.5h1.6l-2.6,7.4H326.9z"/>
		<path class="st4" d="M331.7,62.7v-7.4h5.4v1.3h-3.9v1.6h3.7v1.2h-3.7v2h4.1v1.2H331.7z"/>
	</g>
	<g>
		<path class="st4" d="M284.1,76.1v-7.4h2.4c0.9,0,1.5,0,1.8,0.1c0.4,0.1,0.8,0.4,1.1,0.7c0.3,0.4,0.4,0.9,0.4,1.4
			c0,0.5-0.1,0.8-0.2,1.1s-0.4,0.6-0.6,0.7c-0.3,0.2-0.5,0.3-0.8,0.4c-0.4,0.1-0.9,0.1-1.5,0.1h-1v2.8H284.1z M285.6,69.9V72h0.8
			c0.6,0,1,0,1.2-0.1s0.3-0.2,0.5-0.4c0.1-0.2,0.2-0.4,0.2-0.6c0-0.3-0.1-0.5-0.2-0.7c-0.2-0.2-0.4-0.3-0.6-0.3
			c-0.2,0-0.5-0.1-1.1-0.1H285.6z"/>
		<path class="st4" d="M290.8,76.1v-7.4h5.4v1.3h-3.9v1.6h3.7v1.2h-3.7v2h4.1v1.2H290.8z"/>
		<path class="st4" d="M297.4,76.1v-7.4h3.1c0.8,0,1.4,0.1,1.7,0.2c0.4,0.1,0.6,0.4,0.9,0.7s0.3,0.7,0.3,1.2c0,0.6-0.2,1-0.5,1.4
			c-0.3,0.4-0.8,0.6-1.4,0.7c0.3,0.2,0.6,0.4,0.8,0.6s0.5,0.6,0.8,1.2l0.9,1.4h-1.8l-1.1-1.6c-0.4-0.6-0.6-0.9-0.8-1.1
			s-0.3-0.3-0.4-0.3s-0.4-0.1-0.7-0.1h-0.3v3.1H297.4z M298.9,71.8h1.1c0.7,0,1.2,0,1.3-0.1c0.2-0.1,0.3-0.2,0.4-0.3
			c0.1-0.1,0.1-0.3,0.1-0.6c0-0.2-0.1-0.5-0.2-0.6c-0.1-0.2-0.3-0.3-0.6-0.3c-0.1,0-0.5,0-1.1,0h-1.2V71.8z"/>
		<path class="st4" d="M307.6,68.6h2.7c0.6,0,1.1,0,1.4,0.1c0.4,0.1,0.8,0.4,1.1,0.7c0.3,0.3,0.5,0.7,0.7,1.2
			c0.2,0.5,0.2,1.1,0.2,1.8c0,0.6-0.1,1.1-0.2,1.6c-0.2,0.5-0.4,1-0.8,1.3c-0.3,0.3-0.6,0.4-1,0.6c-0.3,0.1-0.8,0.2-1.3,0.2h-2.8
			V68.6z M309.1,69.9v4.9h1.1c0.4,0,0.7,0,0.9-0.1c0.2-0.1,0.4-0.2,0.6-0.3c0.2-0.1,0.3-0.4,0.4-0.7c0.1-0.3,0.2-0.8,0.2-1.4
			s0-1-0.2-1.3c-0.1-0.3-0.2-0.5-0.4-0.7c-0.2-0.2-0.4-0.3-0.7-0.3c-0.2,0-0.6-0.1-1.2-0.1H309.1z"/>
		<path class="st4" d="M314.8,76.1v-7.4h1.5v7.4H314.8z"/>
		<path class="st4" d="M317.2,76.1v-7.4h5.4v1.3h-3.9v1.6h3.7v1.2h-3.7v2h4.1v1.2H317.2z"/>
		<path class="st4" d="M323.8,76.1v-7.4h2.2l1.3,5.1l1.3-5.1h2.2v7.4h-1.4v-5.8l-1.5,5.8h-1.4l-1.4-5.8v5.8H323.8z"/>
	</g>
	<g>
		<path class="st4" d="M312.1,89.4h-1.4v-5.4c-0.5,0.5-1.1,0.8-1.8,1.1v-1.3c0.4-0.1,0.8-0.4,1.2-0.7c0.4-0.3,0.7-0.7,0.9-1.2h1.1
			V89.4z"/>
		<path class="st4" d="M316.3,82c0.7,0,1.3,0.3,1.7,0.8c0.5,0.6,0.7,1.6,0.7,3c0,1.4-0.2,2.4-0.7,3c-0.4,0.5-0.9,0.8-1.7,0.8
			c-0.7,0-1.3-0.3-1.7-0.8s-0.7-1.5-0.7-3c0-1.4,0.2-2.4,0.7-3C315,82.3,315.5,82,316.3,82z M316.3,83.2c-0.2,0-0.3,0.1-0.5,0.2
			c-0.1,0.1-0.2,0.3-0.3,0.6c-0.1,0.4-0.1,1-0.1,1.9c0,0.9,0,1.5,0.1,1.8c0.1,0.3,0.2,0.5,0.3,0.6c0.1,0.1,0.3,0.2,0.5,0.2
			s0.3-0.1,0.5-0.2s0.2-0.3,0.3-0.6c0.1-0.4,0.1-1,0.1-1.8c0-0.9,0-1.5-0.1-1.8c-0.1-0.3-0.2-0.5-0.3-0.7
			C316.6,83.2,316.4,83.2,316.3,83.2z"/>
		<path class="st4" d="M319.6,88h1.4v1c0,0.4,0,0.7-0.1,1c-0.1,0.2-0.2,0.5-0.4,0.6c-0.2,0.2-0.4,0.3-0.7,0.4l-0.3-0.6
			c0.3-0.1,0.5-0.2,0.6-0.4c0.1-0.2,0.2-0.4,0.2-0.7h-0.7V88z"/>
		<path class="st4" d="M325.1,89.4V88h-3v-1.2l3.2-4.7h1.2v4.7h0.9V88h-0.9v1.5H325.1z M325.1,86.7v-2.5l-1.7,2.5H325.1z"/>
		<path class="st4" d="M330.5,89.4V88h-3v-1.2l3.2-4.7h1.2v4.7h0.9V88h-0.9v1.5H330.5z M330.5,86.7v-2.5l-1.7,2.5H330.5z"/>
		<path class="st4" d="M333.2,87.7l1.4-0.2c0,0.3,0.1,0.5,0.3,0.6s0.3,0.2,0.6,0.2c0.3,0,0.5-0.1,0.7-0.4c0.2-0.3,0.3-0.8,0.4-1.7
			c-0.4,0.4-0.8,0.6-1.3,0.6c-0.6,0-1.1-0.2-1.5-0.7c-0.4-0.4-0.6-1-0.6-1.8c0-0.8,0.2-1.4,0.7-1.8c0.4-0.5,1-0.7,1.7-0.7
			c0.7,0,1.4,0.3,1.8,0.9c0.5,0.6,0.7,1.5,0.7,2.9c0,1.4-0.2,2.3-0.7,2.9c-0.5,0.6-1.1,0.9-1.9,0.9c-0.6,0-1-0.2-1.4-0.5
			C333.5,88.8,333.3,88.3,333.2,87.7z M336.3,84.6c0-0.5-0.1-0.8-0.3-1.1c-0.2-0.3-0.4-0.4-0.7-0.4c-0.3,0-0.5,0.1-0.6,0.3
			c-0.2,0.2-0.3,0.5-0.3,1c0,0.5,0.1,0.8,0.3,1.1s0.4,0.3,0.7,0.3c0.3,0,0.5-0.1,0.7-0.3C336.3,85.4,336.3,85,336.3,84.6z"/>
	</g>
	<g>
		<path class="st4" d="M313.9,96.8v-1.3h4.8v1c-0.4,0.4-0.8,1-1.2,1.7c-0.4,0.7-0.7,1.5-0.9,2.4c-0.2,0.8-0.3,1.6-0.3,2.2h-1.4
			c0-1,0.2-2.1,0.6-3.1c0.4-1.1,0.9-2,1.6-2.9H313.9z"/>
		<path class="st4" d="M319.6,101.4h1.4v1c0,0.4,0,0.7-0.1,1c-0.1,0.2-0.2,0.5-0.4,0.6c-0.2,0.2-0.4,0.3-0.7,0.4l-0.3-0.6
			c0.3-0.1,0.5-0.2,0.6-0.4c0.1-0.2,0.2-0.4,0.2-0.7h-0.7V101.4z"/>
		<path class="st4" d="M327,101.5v1.3h-4.9c0.1-0.5,0.2-1,0.5-1.4c0.3-0.4,0.8-1,1.6-1.8c0.6-0.6,1-1,1.2-1.2
			c0.2-0.3,0.3-0.6,0.3-0.9c0-0.3-0.1-0.6-0.3-0.7s-0.4-0.3-0.7-0.3c-0.3,0-0.5,0.1-0.7,0.3s-0.3,0.5-0.3,0.9l-1.4-0.1
			c0.1-0.8,0.3-1.3,0.8-1.7c0.4-0.3,1-0.5,1.6-0.5c0.7,0,1.3,0.2,1.7,0.6c0.4,0.4,0.6,0.9,0.6,1.5c0,0.3-0.1,0.7-0.2,1
			c-0.1,0.3-0.3,0.6-0.6,0.9c-0.2,0.2-0.5,0.5-0.9,0.9s-0.7,0.7-0.8,0.8s-0.2,0.3-0.3,0.4H327z"/>
		<path class="st4" d="M327.7,100.9l1.4-0.1c0,0.3,0.2,0.6,0.4,0.8s0.4,0.3,0.7,0.3c0.3,0,0.5-0.1,0.7-0.4c0.2-0.2,0.3-0.6,0.3-1.1
			c0-0.5-0.1-0.8-0.3-1s-0.5-0.3-0.8-0.3c-0.4,0-0.8,0.2-1.1,0.5l-1.1-0.2l0.7-3.9h3.7v1.3h-2.6l-0.2,1.3c0.3-0.2,0.6-0.2,1-0.2
			c0.6,0,1.1,0.2,1.6,0.7c0.4,0.5,0.6,1.1,0.6,1.8c0,0.6-0.2,1.2-0.5,1.6c-0.5,0.7-1.1,1-2,1c-0.7,0-1.2-0.2-1.7-0.6
			S327.8,101.5,327.7,100.9z"/>
		<path class="st4" d="M337.9,101.5v1.3H333c0.1-0.5,0.2-1,0.5-1.4c0.3-0.4,0.8-1,1.6-1.8c0.6-0.6,1-1,1.2-1.2
			c0.2-0.3,0.3-0.6,0.3-0.9c0-0.3-0.1-0.6-0.3-0.7s-0.4-0.3-0.7-0.3c-0.3,0-0.5,0.1-0.7,0.3c-0.2,0.2-0.3,0.5-0.3,0.9l-1.4-0.1
			c0.1-0.8,0.3-1.3,0.8-1.7c0.4-0.3,1-0.5,1.6-0.5c0.7,0,1.3,0.2,1.7,0.6c0.4,0.4,0.6,0.9,0.6,1.5c0,0.3-0.1,0.7-0.2,1
			c-0.1,0.3-0.3,0.6-0.6,0.9c-0.2,0.2-0.5,0.5-0.9,0.9s-0.7,0.7-0.8,0.8s-0.2,0.3-0.3,0.4H337.9z"/>
	</g>
	<g>
		<path class="st4" d="M313.9,110.2v-1.3h4.8v1c-0.4,0.4-0.8,1-1.2,1.7c-0.4,0.7-0.7,1.5-0.9,2.4c-0.2,0.8-0.3,1.6-0.3,2.2h-1.4
			c0-1,0.2-2.1,0.6-3.1c0.4-1.1,0.9-2,1.6-2.9H313.9z"/>
		<path class="st4" d="M319.6,114.8h1.4v1c0,0.4,0,0.7-0.1,1c-0.1,0.2-0.2,0.5-0.4,0.6c-0.2,0.2-0.4,0.3-0.7,0.4l-0.3-0.6
			c0.3-0.1,0.5-0.2,0.6-0.4c0.1-0.2,0.2-0.4,0.2-0.7h-0.7V114.8z"/>
		<path class="st4" d="M325.9,116.2h-1.4v-5.4c-0.5,0.5-1.1,0.8-1.8,1.1v-1.3c0.4-0.1,0.8-0.4,1.2-0.7c0.4-0.3,0.7-0.7,0.9-1.2h1.1
			V116.2z"/>
		<path class="st4" d="M330.1,108.8c0.7,0,1.3,0.3,1.7,0.8c0.5,0.6,0.7,1.6,0.7,3c0,1.4-0.2,2.4-0.7,3c-0.4,0.5-0.9,0.8-1.7,0.8
			c-0.7,0-1.3-0.3-1.7-0.8s-0.7-1.5-0.7-3c0-1.4,0.2-2.4,0.7-3C328.8,109,329.4,108.8,330.1,108.8z M330.1,110
			c-0.2,0-0.3,0.1-0.5,0.2c-0.1,0.1-0.2,0.3-0.3,0.6c-0.1,0.4-0.1,1-0.1,1.9c0,0.9,0,1.5,0.1,1.8c0.1,0.3,0.2,0.5,0.3,0.6
			c0.1,0.1,0.3,0.2,0.5,0.2s0.3-0.1,0.5-0.2s0.2-0.3,0.3-0.6c0.1-0.4,0.1-1,0.1-1.8c0-0.9,0-1.5-0.1-1.8c-0.1-0.3-0.2-0.5-0.3-0.7
			C330.4,110,330.3,110,330.1,110z"/>
		<path class="st4" d="M336.7,116.2h-1.4v-5.4c-0.5,0.5-1.1,0.8-1.8,1.1v-1.3c0.4-0.1,0.8-0.4,1.2-0.7c0.4-0.3,0.7-0.7,0.9-1.2h1.1
			V116.2z"/>
	</g>
	<g>
		<path class="st4" d="M313.9,123.6v-1.3h4.8v1c-0.4,0.4-0.8,1-1.2,1.7c-0.4,0.7-0.7,1.5-0.9,2.4c-0.2,0.8-0.3,1.6-0.3,2.2h-1.4
			c0-1,0.2-2.1,0.6-3.1c0.4-1.1,0.9-2,1.6-2.9H313.9z"/>
		<path class="st4" d="M319.6,128.2h1.4v1c0,0.4,0,0.7-0.1,1c-0.1,0.2-0.2,0.5-0.4,0.6c-0.2,0.2-0.4,0.3-0.7,0.4l-0.3-0.6
			c0.3-0.1,0.5-0.2,0.6-0.4c0.1-0.2,0.2-0.4,0.2-0.7h-0.7V128.2z"/>
		<path class="st4" d="M327,128.3v1.3h-4.9c0.1-0.5,0.2-1,0.5-1.4c0.3-0.4,0.8-1,1.6-1.8c0.6-0.6,1-1,1.2-1.2
			c0.2-0.3,0.3-0.6,0.3-0.9c0-0.3-0.1-0.6-0.3-0.7s-0.4-0.3-0.7-0.3c-0.3,0-0.5,0.1-0.7,0.3s-0.3,0.5-0.3,0.9l-1.4-0.1
			c0.1-0.8,0.3-1.3,0.8-1.7c0.4-0.3,1-0.5,1.6-0.5c0.7,0,1.3,0.2,1.7,0.6c0.4,0.4,0.6,0.9,0.6,1.5c0,0.3-0.1,0.7-0.2,1
			c-0.1,0.3-0.3,0.6-0.6,0.9c-0.2,0.2-0.5,0.5-0.9,0.9c-0.4,0.4-0.7,0.7-0.8,0.8c-0.1,0.1-0.2,0.3-0.3,0.4H327z"/>
		<path class="st4" d="M331.3,129.6h-1.4v-5.4c-0.5,0.5-1.1,0.8-1.8,1.1v-1.3c0.4-0.1,0.8-0.4,1.2-0.7c0.4-0.3,0.7-0.7,0.9-1.2h1.1
			V129.6z"/>
		<path class="st4" d="M337.9,128.3v1.3H333c0.1-0.5,0.2-1,0.5-1.4c0.3-0.4,0.8-1,1.6-1.8c0.6-0.6,1-1,1.2-1.2
			c0.2-0.3,0.3-0.6,0.3-0.9c0-0.3-0.1-0.6-0.3-0.7s-0.4-0.3-0.7-0.3c-0.3,0-0.5,0.1-0.7,0.3c-0.2,0.2-0.3,0.5-0.3,0.9l-1.4-0.1
			c0.1-0.8,0.3-1.3,0.8-1.7c0.4-0.3,1-0.5,1.6-0.5c0.7,0,1.3,0.2,1.7,0.6c0.4,0.4,0.6,0.9,0.6,1.5c0,0.3-0.1,0.7-0.2,1
			c-0.1,0.3-0.3,0.6-0.6,0.9c-0.2,0.2-0.5,0.5-0.9,0.9c-0.4,0.4-0.7,0.7-0.8,0.8c-0.1,0.1-0.2,0.3-0.3,0.4H337.9z"/>
	</g>
	<g>
		<path class="st4" d="M313.9,137v-1.3h4.8v1c-0.4,0.4-0.8,1-1.2,1.7c-0.4,0.7-0.7,1.5-0.9,2.4c-0.2,0.8-0.3,1.6-0.3,2.2h-1.4
			c0-1,0.2-2.1,0.6-3.1c0.4-1.1,0.9-2,1.6-2.9H313.9z"/>
		<path class="st4" d="M319.6,141.6h1.4v1c0,0.4,0,0.7-0.1,1c-0.1,0.2-0.2,0.5-0.4,0.6c-0.2,0.2-0.4,0.3-0.7,0.4l-0.3-0.6
			c0.3-0.1,0.5-0.2,0.6-0.4c0.1-0.2,0.2-0.4,0.2-0.7h-0.7V141.6z"/>
		<path class="st4" d="M327,141.7v1.3h-4.9c0.1-0.5,0.2-1,0.5-1.4c0.3-0.4,0.8-1,1.6-1.8c0.6-0.6,1-1,1.2-1.2
			c0.2-0.3,0.3-0.6,0.3-0.9c0-0.3-0.1-0.6-0.3-0.7s-0.4-0.3-0.7-0.3c-0.3,0-0.5,0.1-0.7,0.3s-0.3,0.5-0.3,0.9l-1.4-0.1
			c0.1-0.8,0.3-1.3,0.8-1.7c0.4-0.3,1-0.5,1.6-0.5c0.7,0,1.3,0.2,1.7,0.6c0.4,0.4,0.6,0.9,0.6,1.5c0,0.3-0.1,0.7-0.2,1
			c-0.1,0.3-0.3,0.6-0.6,0.9c-0.2,0.2-0.5,0.5-0.9,0.9c-0.4,0.4-0.7,0.7-0.8,0.8s-0.2,0.3-0.3,0.4H327z"/>
		<path class="st4" d="M327.7,141.1l1.4-0.1c0,0.3,0.2,0.6,0.4,0.8c0.2,0.2,0.4,0.3,0.7,0.3c0.3,0,0.5-0.1,0.7-0.4s0.3-0.6,0.3-1.1
			c0-0.5-0.1-0.8-0.3-1s-0.5-0.3-0.8-0.3c-0.4,0-0.8,0.2-1.1,0.5l-1.1-0.2l0.7-3.9h3.7v1.3h-2.6l-0.2,1.3c0.3-0.2,0.6-0.2,1-0.2
			c0.6,0,1.1,0.2,1.6,0.7c0.4,0.5,0.6,1.1,0.6,1.8c0,0.6-0.2,1.2-0.5,1.6c-0.5,0.7-1.1,1-2,1c-0.7,0-1.2-0.2-1.7-0.6
			S327.8,141.7,327.7,141.1z"/>
		<path class="st4" d="M336.7,143h-1.4v-5.4c-0.5,0.5-1.1,0.8-1.8,1.1v-1.3c0.4-0.1,0.8-0.4,1.2-0.7c0.4-0.3,0.7-0.7,0.9-1.2h1.1
			V143z"/>
	</g>
	<path class="st4" d="M313.9,150.4v-1.3h4.8v1c-0.4,0.4-0.8,1-1.2,1.7c-0.4,0.7-0.7,1.5-0.9,2.4c-0.2,0.8-0.3,1.6-0.3,2.2h-1.4
		c0-1,0.2-2.1,0.6-3.1c0.4-1.1,0.9-2,1.6-2.9H313.9z"/>
	<path class="st4" d="M319.6,155h1.4v1c0,0.4,0,0.7-0.1,1c-0.1,0.2-0.2,0.5-0.4,0.6c-0.2,0.2-0.4,0.3-0.7,0.4l-0.3-0.6
		c0.3-0.1,0.5-0.2,0.6-0.4c0.1-0.2,0.2-0.4,0.2-0.7h-0.7V155z"/>
	<path class="st4" d="M325.9,156.4h-1.4v-5.4c-0.5,0.5-1.1,0.8-1.8,1.1v-1.3c0.4-0.1,0.8-0.4,1.2-0.7c0.4-0.3,0.7-0.7,0.9-1.2h1.1
		V156.4z"/>
	<path class="st4" d="M327.7,154.7l1.4-0.2c0,0.3,0.1,0.5,0.3,0.6s0.3,0.2,0.6,0.2c0.3,0,0.5-0.1,0.7-0.4c0.2-0.3,0.3-0.8,0.4-1.7
		c-0.4,0.4-0.8,0.6-1.3,0.6c-0.6,0-1.1-0.2-1.5-0.7c-0.4-0.5-0.6-1-0.6-1.8c0-0.8,0.2-1.4,0.7-1.8c0.4-0.5,1-0.7,1.7-0.7
		c0.7,0,1.4,0.3,1.8,0.9c0.5,0.6,0.7,1.5,0.7,2.9c0,1.4-0.2,2.3-0.7,2.9c-0.5,0.6-1.1,0.9-1.9,0.9c-0.6,0-1-0.2-1.4-0.5
		C328.1,155.8,327.8,155.3,327.7,154.7z M330.9,151.6c0-0.5-0.1-0.8-0.3-1.1c-0.2-0.3-0.4-0.4-0.7-0.4c-0.3,0-0.5,0.1-0.6,0.3
		c-0.2,0.2-0.3,0.5-0.3,1c0,0.5,0.1,0.8,0.3,1.1c0.2,0.2,0.4,0.3,0.7,0.3c0.3,0,0.5-0.1,0.7-0.3C330.8,152.3,330.9,152,330.9,151.6z
		"/>
	<path class="st4" d="M333.2,154.7l1.4-0.2c0,0.3,0.1,0.5,0.3,0.6s0.3,0.2,0.6,0.2c0.3,0,0.5-0.1,0.7-0.4s0.3-0.8,0.4-1.7
		c-0.4,0.4-0.8,0.6-1.3,0.6c-0.6,0-1.1-0.2-1.5-0.7c-0.4-0.5-0.6-1-0.6-1.8c0-0.8,0.2-1.4,0.7-1.8s1-0.7,1.7-0.7
		c0.7,0,1.4,0.3,1.8,0.9c0.5,0.6,0.7,1.5,0.7,2.9c0,1.4-0.2,2.3-0.7,2.9c-0.5,0.6-1.1,0.9-1.9,0.9c-0.6,0-1-0.2-1.4-0.5
		S333.3,155.3,333.2,154.7z M336.3,151.6c0-0.5-0.1-0.8-0.3-1.1c-0.2-0.3-0.4-0.4-0.7-0.4c-0.3,0-0.5,0.1-0.6,0.3
		c-0.2,0.2-0.3,0.5-0.3,1c0,0.5,0.1,0.8,0.3,1.1c0.2,0.2,0.4,0.3,0.7,0.3c0.3,0,0.5-0.1,0.7-0.3C336.2,152.3,336.3,152,336.3,151.6z
		"/>
	<path class="st4" d="M313.9,163.8v-1.3h4.8v1c-0.4,0.4-0.8,1-1.2,1.7c-0.4,0.7-0.7,1.5-0.9,2.4c-0.2,0.8-0.3,1.6-0.3,2.2h-1.4
		c0-1,0.2-2.1,0.6-3.1c0.4-1.1,0.9-2,1.6-2.9H313.9z"/>
	<path class="st4" d="M319.6,168.4h1.4v1c0,0.4,0,0.7-0.1,1c-0.1,0.2-0.2,0.5-0.4,0.6c-0.2,0.2-0.4,0.3-0.7,0.4l-0.3-0.6
		c0.3-0.1,0.5-0.2,0.6-0.4c0.1-0.2,0.2-0.4,0.2-0.7h-0.7V168.4z"/>
	<path class="st4" d="M327,168.5v1.3h-4.9c0.1-0.5,0.2-1,0.5-1.4c0.3-0.4,0.8-1,1.6-1.8c0.6-0.6,1-1,1.2-1.2
		c0.2-0.3,0.3-0.6,0.3-0.9c0-0.3-0.1-0.6-0.3-0.7s-0.4-0.3-0.7-0.3c-0.3,0-0.5,0.1-0.7,0.3s-0.3,0.5-0.3,0.9l-1.4-0.1
		c0.1-0.8,0.3-1.3,0.8-1.7c0.4-0.3,1-0.5,1.6-0.5c0.7,0,1.3,0.2,1.7,0.6c0.4,0.4,0.6,0.9,0.6,1.5c0,0.3-0.1,0.7-0.2,1
		c-0.1,0.3-0.3,0.6-0.6,0.9c-0.2,0.2-0.5,0.5-0.9,0.9c-0.4,0.4-0.7,0.7-0.8,0.8s-0.2,0.3-0.3,0.4H327z"/>
	<path class="st4" d="M327.7,167.9l1.4-0.1c0,0.3,0.2,0.6,0.4,0.8c0.2,0.2,0.4,0.3,0.7,0.3c0.3,0,0.5-0.1,0.7-0.4s0.3-0.6,0.3-1.1
		c0-0.5-0.1-0.8-0.3-1s-0.5-0.3-0.8-0.3c-0.4,0-0.8,0.2-1.1,0.5l-1.1-0.2l0.7-3.9h3.7v1.3h-2.6l-0.2,1.3c0.3-0.2,0.6-0.2,1-0.2
		c0.6,0,1.1,0.2,1.6,0.7c0.4,0.5,0.6,1.1,0.6,1.8c0,0.6-0.2,1.2-0.5,1.6c-0.5,0.7-1.1,1-2,1c-0.7,0-1.2-0.2-1.7-0.6
		S327.8,168.5,327.7,167.9z"/>
	<path class="st4" d="M337.9,164.2l-1.4,0.2c0-0.3-0.1-0.5-0.3-0.6c-0.1-0.1-0.3-0.2-0.5-0.2c-0.3,0-0.5,0.1-0.8,0.4
		c-0.2,0.3-0.3,0.8-0.4,1.7c0.3-0.4,0.8-0.6,1.3-0.6c0.6,0,1.1,0.2,1.5,0.7c0.4,0.5,0.6,1,0.6,1.7c0,0.8-0.2,1.4-0.7,1.8
		c-0.4,0.5-1,0.7-1.7,0.7c-0.7,0-1.3-0.3-1.8-0.9s-0.7-1.5-0.7-2.9c0-1.4,0.2-2.3,0.7-2.9c0.5-0.6,1.1-0.9,1.9-0.9
		c0.6,0,1,0.2,1.4,0.5C337.6,163.1,337.8,163.6,337.9,164.2z M334.7,167.3c0,0.5,0.1,0.8,0.3,1.1s0.4,0.4,0.7,0.4
		c0.3,0,0.5-0.1,0.6-0.3s0.3-0.5,0.3-1c0-0.5-0.1-0.8-0.3-1.1c-0.2-0.2-0.4-0.3-0.7-0.3c-0.3,0-0.5,0.1-0.7,0.3
		C334.8,166.6,334.7,166.9,334.7,167.3z"/>
	<path class="st4" d="M313.9,194.7l1.4-0.1c0,0.3,0.2,0.6,0.4,0.8c0.2,0.2,0.4,0.3,0.7,0.3c0.3,0,0.5-0.1,0.7-0.4s0.3-0.6,0.3-1.1
		c0-0.5-0.1-0.8-0.3-1s-0.5-0.3-0.8-0.3c-0.4,0-0.8,0.2-1.1,0.5l-1.1-0.2l0.7-3.9h3.7v1.3h-2.6l-0.2,1.3c0.3-0.2,0.6-0.2,1-0.2
		c0.6,0,1.1,0.2,1.6,0.7c0.4,0.5,0.6,1.1,0.6,1.8c0,0.6-0.2,1.2-0.5,1.6c-0.5,0.7-1.1,1-2,1c-0.7,0-1.2-0.2-1.7-0.6
		S314,195.3,313.9,194.7z"/>
	<path class="st4" d="M319.6,195.2h1.4v1c0,0.4,0,0.7-0.1,1c-0.1,0.2-0.2,0.5-0.4,0.6c-0.2,0.2-0.4,0.3-0.7,0.4l-0.3-0.6
		c0.3-0.1,0.5-0.2,0.6-0.4c0.1-0.2,0.2-0.4,0.2-0.7h-0.7V195.2z"/>
	<path class="st4" d="M327,195.3v1.3h-4.9c0.1-0.5,0.2-1,0.5-1.4c0.3-0.4,0.8-1,1.6-1.8c0.6-0.6,1-1,1.2-1.2
		c0.2-0.3,0.3-0.6,0.3-0.9c0-0.3-0.1-0.6-0.3-0.7s-0.4-0.3-0.7-0.3c-0.3,0-0.5,0.1-0.7,0.3s-0.3,0.5-0.3,0.9l-1.4-0.1
		c0.1-0.8,0.3-1.3,0.8-1.7c0.4-0.3,1-0.5,1.6-0.5c0.7,0,1.3,0.2,1.7,0.6c0.4,0.4,0.6,0.9,0.6,1.5c0,0.3-0.1,0.7-0.2,1
		c-0.1,0.3-0.3,0.6-0.6,0.9c-0.2,0.2-0.5,0.5-0.9,0.9c-0.4,0.4-0.7,0.7-0.8,0.8s-0.2,0.3-0.3,0.4H327z"/>
	<path class="st4" d="M328.9,192.6c-0.4-0.2-0.6-0.4-0.8-0.6c-0.2-0.3-0.2-0.6-0.2-0.9c0-0.6,0.2-1,0.6-1.4c0.4-0.4,0.9-0.5,1.6-0.5
		c0.7,0,1.2,0.2,1.6,0.5c0.4,0.4,0.6,0.8,0.6,1.4c0,0.3-0.1,0.6-0.3,0.9c-0.2,0.3-0.4,0.5-0.7,0.6c0.4,0.2,0.7,0.4,0.9,0.7
		s0.3,0.7,0.3,1.1c0,0.7-0.2,1.2-0.6,1.7c-0.4,0.4-1,0.6-1.7,0.6c-0.7,0-1.2-0.2-1.7-0.5c-0.5-0.4-0.8-1-0.8-1.7
		c0-0.4,0.1-0.8,0.3-1.1S328.5,192.8,328.9,192.6z M329.1,194.3c0,0.4,0.1,0.7,0.3,0.9s0.4,0.3,0.7,0.3c0.3,0,0.5-0.1,0.7-0.3
		c0.2-0.2,0.3-0.5,0.3-0.9c0-0.3-0.1-0.6-0.3-0.8c-0.2-0.2-0.4-0.3-0.7-0.3c-0.3,0-0.6,0.1-0.8,0.4S329.1,194.1,329.1,194.3z
		 M329.2,191.2c0,0.3,0.1,0.5,0.2,0.7c0.2,0.2,0.4,0.2,0.6,0.2c0.3,0,0.5-0.1,0.6-0.2s0.2-0.4,0.2-0.7c0-0.3-0.1-0.5-0.2-0.6
		c-0.2-0.2-0.4-0.2-0.6-0.2c-0.3,0-0.5,0.1-0.6,0.2C329.3,190.7,329.2,190.9,329.2,191.2z"/>
	<path class="st4" d="M336.7,196.6h-1.4v-5.4c-0.5,0.5-1.1,0.8-1.8,1.1V191c0.4-0.1,0.8-0.4,1.2-0.7c0.4-0.3,0.7-0.7,0.9-1.2h1.1
		V196.6z"/>
	<path class="st4" d="M313.9,208.1l1.4-0.1c0,0.3,0.2,0.6,0.4,0.8c0.2,0.2,0.4,0.3,0.7,0.3c0.3,0,0.5-0.1,0.7-0.4s0.3-0.6,0.3-1.1
		c0-0.5-0.1-0.8-0.3-1s-0.5-0.3-0.8-0.3c-0.4,0-0.8,0.2-1.1,0.5l-1.1-0.2l0.7-3.9h3.7v1.3h-2.6l-0.2,1.3c0.3-0.2,0.6-0.2,1-0.2
		c0.6,0,1.1,0.2,1.6,0.7c0.4,0.5,0.6,1.1,0.6,1.8c0,0.6-0.2,1.2-0.5,1.6c-0.5,0.7-1.1,1-2,1c-0.7,0-1.2-0.2-1.7-0.6
		S314,208.7,313.9,208.1z"/>
	<path class="st4" d="M319.6,208.6h1.4v1c0,0.4,0,0.7-0.1,1c-0.1,0.2-0.2,0.5-0.4,0.6c-0.2,0.2-0.4,0.3-0.7,0.4l-0.3-0.6
		c0.3-0.1,0.5-0.2,0.6-0.4c0.1-0.2,0.2-0.4,0.2-0.7h-0.7V208.6z"/>
	<path class="st4" d="M322.2,208l1.4-0.2c0,0.4,0.2,0.6,0.3,0.8c0.2,0.2,0.4,0.3,0.7,0.3c0.3,0,0.5-0.1,0.7-0.3s0.3-0.5,0.3-0.9
		c0-0.4-0.1-0.6-0.3-0.8s-0.4-0.3-0.7-0.3c-0.2,0-0.4,0-0.6,0.1l0.2-1.2c0.4,0,0.7-0.1,0.9-0.3c0.2-0.2,0.3-0.4,0.3-0.7
		c0-0.3-0.1-0.4-0.2-0.6s-0.3-0.2-0.6-0.2c-0.2,0-0.4,0.1-0.6,0.3c-0.2,0.2-0.3,0.4-0.3,0.7l-1.3-0.2c0.1-0.4,0.2-0.8,0.4-1.1
		c0.2-0.3,0.4-0.5,0.8-0.6s0.7-0.2,1.1-0.2c0.7,0,1.2,0.2,1.7,0.7c0.3,0.4,0.5,0.8,0.5,1.2c0,0.6-0.4,1.2-1.1,1.6
		c0.4,0.1,0.8,0.3,1,0.6c0.3,0.3,0.4,0.7,0.4,1.1c0,0.7-0.2,1.2-0.7,1.7c-0.5,0.5-1.1,0.7-1.8,0.7c-0.7,0-1.2-0.2-1.6-0.6
		C322.6,209.1,322.3,208.6,322.2,208z"/>
	<path class="st4" d="M332.5,204.4l-1.4,0.2c0-0.3-0.1-0.5-0.3-0.6s-0.3-0.2-0.5-0.2c-0.3,0-0.5,0.1-0.8,0.4
		c-0.2,0.3-0.3,0.8-0.4,1.7c0.3-0.4,0.8-0.6,1.3-0.6c0.6,0,1.1,0.2,1.5,0.7c0.4,0.5,0.6,1,0.6,1.7c0,0.8-0.2,1.4-0.7,1.8
		s-1,0.7-1.7,0.7c-0.7,0-1.3-0.3-1.8-0.9c-0.5-0.6-0.7-1.5-0.7-2.9c0-1.4,0.2-2.3,0.7-2.9c0.5-0.6,1.1-0.9,1.9-0.9
		c0.6,0,1,0.2,1.4,0.5C332.1,203.3,332.4,203.8,332.5,204.4z M329.3,207.5c0,0.5,0.1,0.8,0.3,1.1c0.2,0.3,0.4,0.4,0.7,0.4
		c0.3,0,0.5-0.1,0.6-0.3c0.2-0.2,0.3-0.5,0.3-1c0-0.5-0.1-0.8-0.3-1.1s-0.4-0.3-0.7-0.3c-0.3,0-0.5,0.1-0.7,0.3
		C329.4,206.8,329.3,207.1,329.3,207.5z"/>
	<path class="st4" d="M333.1,208l1.4-0.2c0,0.4,0.2,0.6,0.3,0.8s0.4,0.3,0.7,0.3c0.3,0,0.5-0.1,0.7-0.3c0.2-0.2,0.3-0.5,0.3-0.9
		c0-0.4-0.1-0.6-0.3-0.8c-0.2-0.2-0.4-0.3-0.7-0.3c-0.2,0-0.4,0-0.6,0.1l0.2-1.2c0.4,0,0.7-0.1,0.9-0.3c0.2-0.2,0.3-0.4,0.3-0.7
		c0-0.3-0.1-0.4-0.2-0.6s-0.3-0.2-0.6-0.2c-0.2,0-0.4,0.1-0.6,0.3c-0.2,0.2-0.3,0.4-0.3,0.7l-1.3-0.2c0.1-0.4,0.2-0.8,0.4-1.1
		s0.4-0.5,0.8-0.6s0.7-0.2,1.1-0.2c0.7,0,1.2,0.2,1.7,0.7c0.3,0.4,0.5,0.8,0.5,1.2c0,0.6-0.4,1.2-1.1,1.6c0.4,0.1,0.8,0.3,1,0.6
		c0.3,0.3,0.4,0.7,0.4,1.1c0,0.7-0.2,1.2-0.7,1.7s-1.1,0.7-1.8,0.7c-0.7,0-1.2-0.2-1.6-0.6S333.2,208.6,333.1,208z"/>
	<path class="st4" d="M313.9,221.5l1.4-0.1c0,0.3,0.2,0.6,0.4,0.8c0.2,0.2,0.4,0.3,0.7,0.3c0.3,0,0.5-0.1,0.7-0.4s0.3-0.6,0.3-1.1
		c0-0.5-0.1-0.8-0.3-1s-0.5-0.3-0.8-0.3c-0.4,0-0.8,0.2-1.1,0.5l-1.1-0.2l0.7-3.9h3.7v1.3h-2.6l-0.2,1.3c0.3-0.2,0.6-0.2,1-0.2
		c0.6,0,1.1,0.2,1.6,0.7c0.4,0.5,0.6,1.1,0.6,1.8c0,0.6-0.2,1.2-0.5,1.6c-0.5,0.7-1.1,1-2,1c-0.7,0-1.2-0.2-1.7-0.6
		S314,222.1,313.9,221.5z"/>
	<path class="st4" d="M319.6,222h1.4v1c0,0.4,0,0.7-0.1,1c-0.1,0.2-0.2,0.5-0.4,0.6c-0.2,0.2-0.4,0.3-0.7,0.4l-0.3-0.6
		c0.3-0.1,0.5-0.2,0.6-0.4c0.1-0.2,0.2-0.4,0.2-0.7h-0.7V222z"/>
	<path class="st4" d="M322.2,221.4l1.4-0.2c0,0.4,0.2,0.6,0.3,0.8c0.2,0.2,0.4,0.3,0.7,0.3c0.3,0,0.5-0.1,0.7-0.3s0.3-0.5,0.3-0.9
		c0-0.4-0.1-0.6-0.3-0.8s-0.4-0.3-0.7-0.3c-0.2,0-0.4,0-0.6,0.1l0.2-1.2c0.4,0,0.7-0.1,0.9-0.3c0.2-0.2,0.3-0.4,0.3-0.7
		c0-0.3-0.1-0.4-0.2-0.6s-0.3-0.2-0.6-0.2c-0.2,0-0.4,0.1-0.6,0.3c-0.2,0.2-0.3,0.4-0.3,0.7l-1.3-0.2c0.1-0.4,0.2-0.8,0.4-1.1
		c0.2-0.3,0.4-0.5,0.8-0.6s0.7-0.2,1.1-0.2c0.7,0,1.2,0.2,1.7,0.7c0.3,0.4,0.5,0.8,0.5,1.2c0,0.6-0.4,1.2-1.1,1.6
		c0.4,0.1,0.8,0.3,1,0.6c0.3,0.3,0.4,0.7,0.4,1.1c0,0.7-0.2,1.2-0.7,1.7c-0.5,0.5-1.1,0.7-1.8,0.7c-0.7,0-1.2-0.2-1.6-0.6
		C322.6,222.5,322.3,222,322.2,221.4z"/>
	<path class="st4" d="M332.5,222.1v1.3h-4.9c0.1-0.5,0.2-1,0.5-1.4c0.3-0.4,0.8-1,1.6-1.8c0.6-0.6,1-1,1.2-1.2
		c0.2-0.3,0.3-0.6,0.3-0.9c0-0.3-0.1-0.6-0.3-0.7s-0.4-0.3-0.7-0.3c-0.3,0-0.5,0.1-0.7,0.3s-0.3,0.5-0.3,0.9l-1.4-0.1
		c0.1-0.8,0.3-1.3,0.8-1.7c0.4-0.3,1-0.5,1.6-0.5c0.7,0,1.3,0.2,1.7,0.6c0.4,0.4,0.6,0.9,0.6,1.5c0,0.3-0.1,0.7-0.2,1
		c-0.1,0.3-0.3,0.6-0.6,0.9c-0.2,0.2-0.5,0.5-0.9,0.9c-0.4,0.4-0.7,0.7-0.8,0.8s-0.2,0.3-0.3,0.4H332.5z"/>
	<path class="st4" d="M333.1,221.4l1.4-0.2c0,0.4,0.2,0.6,0.3,0.8s0.4,0.3,0.7,0.3c0.3,0,0.5-0.1,0.7-0.3c0.2-0.2,0.3-0.5,0.3-0.9
		c0-0.4-0.1-0.6-0.3-0.8c-0.2-0.2-0.4-0.3-0.7-0.3c-0.2,0-0.4,0-0.6,0.1l0.2-1.2c0.4,0,0.7-0.1,0.9-0.3c0.2-0.2,0.3-0.4,0.3-0.7
		c0-0.3-0.1-0.4-0.2-0.6s-0.3-0.2-0.6-0.2c-0.2,0-0.4,0.1-0.6,0.3c-0.2,0.2-0.3,0.4-0.3,0.7l-1.3-0.2c0.1-0.4,0.2-0.8,0.4-1.1
		s0.4-0.5,0.8-0.6s0.7-0.2,1.1-0.2c0.7,0,1.2,0.2,1.7,0.7c0.3,0.4,0.5,0.8,0.5,1.2c0,0.6-0.4,1.2-1.1,1.6c0.4,0.1,0.8,0.3,1,0.6
		c0.3,0.3,0.4,0.7,0.4,1.1c0,0.7-0.2,1.2-0.7,1.7s-1.1,0.7-1.8,0.7c-0.7,0-1.2-0.2-1.6-0.6S333.2,222,333.1,221.4z"/>
	<g>
		<path class="st4" d="M316.6,236.8v-1.5h-3V234l3.2-4.7h1.2v4.7h0.9v1.2H318v1.5H316.6z M316.6,234v-2.5l-1.7,2.5H316.6z"/>
		<path class="st4" d="M319.6,235.3h1.4v1c0,0.4,0,0.7-0.1,1c-0.1,0.2-0.2,0.5-0.4,0.6c-0.2,0.2-0.4,0.3-0.7,0.4l-0.3-0.6
			c0.3-0.1,0.5-0.2,0.6-0.4c0.1-0.2,0.2-0.4,0.2-0.7h-0.7V235.3z"/>
		<path class="st4" d="M327,231.2l-1.4,0.2c0-0.3-0.1-0.5-0.3-0.6s-0.3-0.2-0.5-0.2c-0.3,0-0.5,0.1-0.8,0.4
			c-0.2,0.3-0.3,0.8-0.4,1.7c0.3-0.4,0.8-0.6,1.3-0.6c0.6,0,1.1,0.2,1.5,0.7c0.4,0.5,0.6,1,0.6,1.7c0,0.8-0.2,1.4-0.7,1.8
			s-1,0.7-1.7,0.7c-0.7,0-1.3-0.3-1.8-0.9c-0.5-0.6-0.7-1.5-0.7-2.9c0-1.4,0.2-2.3,0.7-2.9c0.5-0.6,1.1-0.9,1.9-0.9
			c0.6,0,1,0.2,1.4,0.5C326.7,230.1,326.9,230.6,327,231.2z M323.9,234.3c0,0.5,0.1,0.8,0.3,1.1c0.2,0.3,0.4,0.4,0.7,0.4
			c0.3,0,0.5-0.1,0.6-0.3c0.2-0.2,0.3-0.5,0.3-1c0-0.5-0.1-0.8-0.3-1.1s-0.4-0.3-0.7-0.3c-0.3,0-0.5,0.1-0.7,0.3
			C324,233.5,323.9,233.8,323.9,234.3z"/>
		<path class="st4" d="M330.5,236.8v-1.5h-3V234l3.2-4.7h1.2v4.7h0.9v1.2h-0.9v1.5H330.5z M330.5,234v-2.5l-1.7,2.5H330.5z"/>
		<path class="st4" d="M335.5,229.3c0.7,0,1.3,0.3,1.7,0.8c0.5,0.6,0.7,1.6,0.7,3c0,1.4-0.2,2.4-0.7,3c-0.4,0.5-0.9,0.8-1.7,0.8
			c-0.7,0-1.3-0.3-1.7-0.8c-0.4-0.6-0.7-1.5-0.7-3c0-1.4,0.2-2.4,0.7-3C334.2,229.6,334.8,229.3,335.5,229.3z M335.5,230.5
			c-0.2,0-0.3,0.1-0.5,0.2c-0.1,0.1-0.2,0.3-0.3,0.6c-0.1,0.4-0.1,1-0.1,1.9s0,1.5,0.1,1.8c0.1,0.3,0.2,0.5,0.3,0.6
			c0.1,0.1,0.3,0.2,0.5,0.2c0.2,0,0.3-0.1,0.5-0.2c0.1-0.1,0.2-0.3,0.3-0.6c0.1-0.4,0.1-1,0.1-1.8s0-1.5-0.1-1.8
			c-0.1-0.3-0.2-0.5-0.3-0.7S335.7,230.5,335.5,230.5z"/>
	</g>
	<g>
		<path class="st4" d="M313.8,248.2l1.4-0.2c0,0.4,0.2,0.6,0.3,0.8s0.4,0.3,0.7,0.3c0.3,0,0.5-0.1,0.7-0.3c0.2-0.2,0.3-0.5,0.3-0.9
			c0-0.4-0.1-0.6-0.3-0.8c-0.2-0.2-0.4-0.3-0.7-0.3c-0.2,0-0.4,0-0.6,0.1l0.2-1.2c0.4,0,0.7-0.1,0.9-0.3c0.2-0.2,0.3-0.4,0.3-0.7
			c0-0.3-0.1-0.4-0.2-0.6s-0.3-0.2-0.6-0.2c-0.2,0-0.4,0.1-0.6,0.3c-0.2,0.2-0.3,0.4-0.3,0.7l-1.3-0.2c0.1-0.4,0.2-0.8,0.4-1.1
			s0.4-0.5,0.8-0.6s0.7-0.2,1.1-0.2c0.7,0,1.2,0.2,1.7,0.7c0.3,0.4,0.5,0.8,0.5,1.2c0,0.6-0.4,1.2-1.1,1.6c0.4,0.1,0.8,0.3,1,0.6
			c0.3,0.3,0.4,0.7,0.4,1.1c0,0.7-0.2,1.2-0.7,1.7s-1.1,0.7-1.8,0.7c-0.7,0-1.2-0.2-1.6-0.6S313.9,248.8,313.8,248.2z"/>
		<path class="st4" d="M319.6,248.7h1.4v1c0,0.4,0,0.7-0.1,1c-0.1,0.2-0.2,0.5-0.4,0.6c-0.2,0.2-0.4,0.3-0.7,0.4l-0.3-0.6
			c0.3-0.1,0.5-0.2,0.6-0.4c0.1-0.2,0.2-0.4,0.2-0.7h-0.7V248.7z"/>
		<path class="st4" d="M325.9,250.2h-1.4v-5.4c-0.5,0.5-1.1,0.8-1.8,1.1v-1.3c0.4-0.1,0.8-0.4,1.2-0.7c0.4-0.3,0.7-0.7,0.9-1.2h1.1
			V250.2z"/>
		<path class="st4" d="M327.7,248.3l1.4-0.1c0,0.3,0.2,0.6,0.4,0.8c0.2,0.2,0.4,0.3,0.7,0.3c0.3,0,0.5-0.1,0.7-0.4s0.3-0.6,0.3-1.1
			c0-0.5-0.1-0.8-0.3-1s-0.5-0.3-0.8-0.3c-0.4,0-0.8,0.2-1.1,0.5l-1.1-0.2l0.7-3.9h3.7v1.3h-2.6l-0.2,1.3c0.3-0.2,0.6-0.2,1-0.2
			c0.6,0,1.1,0.2,1.6,0.7c0.4,0.5,0.6,1.1,0.6,1.8c0,0.6-0.2,1.2-0.5,1.6c-0.5,0.7-1.1,1-2,1c-0.7,0-1.2-0.2-1.7-0.6
			S327.8,248.9,327.7,248.3z"/>
		<path class="st4" d="M336.7,250.2h-1.4v-5.4c-0.5,0.5-1.1,0.8-1.8,1.1v-1.3c0.4-0.1,0.8-0.4,1.2-0.7c0.4-0.3,0.7-0.7,0.9-1.2h1.1
			V250.2z"/>
	</g>
	<g>
		<path class="st4" d="M318.6,262.2v1.3h-4.9c0.1-0.5,0.2-1,0.5-1.4c0.3-0.4,0.8-1,1.6-1.8c0.6-0.6,1-1,1.2-1.2
			c0.2-0.3,0.3-0.6,0.3-0.9c0-0.3-0.1-0.6-0.3-0.7s-0.4-0.3-0.7-0.3c-0.3,0-0.5,0.1-0.7,0.3c-0.2,0.2-0.3,0.5-0.3,0.9l-1.4-0.1
			c0.1-0.8,0.3-1.3,0.8-1.7c0.4-0.3,1-0.5,1.6-0.5c0.7,0,1.3,0.2,1.7,0.6c0.4,0.4,0.6,0.9,0.6,1.5c0,0.3-0.1,0.7-0.2,1
			c-0.1,0.3-0.3,0.6-0.6,0.9c-0.2,0.2-0.5,0.5-0.9,0.9c-0.4,0.4-0.7,0.7-0.8,0.8s-0.2,0.3-0.3,0.4H318.6z"/>
		<path class="st4" d="M319.6,262.1h1.4v1c0,0.4,0,0.7-0.1,1c-0.1,0.2-0.2,0.5-0.4,0.6c-0.2,0.2-0.4,0.3-0.7,0.4l-0.3-0.6
			c0.3-0.1,0.5-0.2,0.6-0.4c0.1-0.2,0.2-0.4,0.2-0.7h-0.7V262.1z"/>
		<path class="st4" d="M325.9,263.6h-1.4v-5.4c-0.5,0.5-1.1,0.8-1.8,1.1V258c0.4-0.1,0.8-0.4,1.2-0.7c0.4-0.3,0.7-0.7,0.9-1.2h1.1
			V263.6z"/>
		<path class="st4" d="M332.5,262.2v1.3h-4.9c0.1-0.5,0.2-1,0.5-1.4c0.3-0.4,0.8-1,1.6-1.8c0.6-0.6,1-1,1.2-1.2
			c0.2-0.3,0.3-0.6,0.3-0.9c0-0.3-0.1-0.6-0.3-0.7s-0.4-0.3-0.7-0.3c-0.3,0-0.5,0.1-0.7,0.3s-0.3,0.5-0.3,0.9l-1.4-0.1
			c0.1-0.8,0.3-1.3,0.8-1.7c0.4-0.3,1-0.5,1.6-0.5c0.7,0,1.3,0.2,1.7,0.6c0.4,0.4,0.6,0.9,0.6,1.5c0,0.3-0.1,0.7-0.2,1
			c-0.1,0.3-0.3,0.6-0.6,0.9c-0.2,0.2-0.5,0.5-0.9,0.9c-0.4,0.4-0.7,0.7-0.8,0.8s-0.2,0.3-0.3,0.4H332.5z"/>
		<path class="st4" d="M333.1,257.6v-1.3h4.8v1c-0.4,0.4-0.8,1-1.2,1.7c-0.4,0.7-0.7,1.5-0.9,2.4c-0.2,0.8-0.3,1.6-0.3,2.2h-1.4
			c0-1,0.2-2.1,0.6-3.1c0.4-1.1,0.9-2,1.6-2.9H333.1z"/>
	</g>
	<g>
		<path class="st4" d="M272.4,35.9h-1.6l-0.6-1.7h-2.9l-0.6,1.7h-1.6l2.8-7.4h1.6L272.4,35.9z M269.7,32.9l-1-2.7l-1,2.7H269.7z"/>
		<path class="st4" d="M277.1,33.1l1.4,0.5c-0.2,0.8-0.6,1.4-1.1,1.8s-1.2,0.6-1.9,0.6c-1,0-1.8-0.3-2.4-1c-0.6-0.7-0.9-1.6-0.9-2.8
			c0-1.2,0.3-2.2,0.9-2.9s1.5-1,2.5-1c0.9,0,1.6,0.3,2.2,0.8c0.3,0.3,0.6,0.8,0.7,1.4l-1.5,0.4c-0.1-0.4-0.3-0.7-0.5-0.9
			c-0.3-0.2-0.6-0.3-1-0.3c-0.5,0-1,0.2-1.3,0.6c-0.3,0.4-0.5,1-0.5,1.9c0,0.9,0.2,1.6,0.5,2s0.8,0.6,1.3,0.6c0.4,0,0.7-0.1,1-0.4
			C276.8,34.1,277,33.7,277.1,33.1z"/>
		<path class="st4" d="M281.3,35.9v-6.2h-2.2v-1.3h5.8v1.3h-2.2v6.2H281.3z"/>
		<path class="st4" d="M285.6,28.5h1.5v4c0,0.6,0,1,0.1,1.2c0.1,0.3,0.2,0.5,0.5,0.7c0.2,0.2,0.6,0.3,1,0.3c0.4,0,0.7-0.1,0.9-0.3
			c0.2-0.2,0.3-0.4,0.4-0.6c0-0.3,0.1-0.7,0.1-1.3v-4.1h1.5v3.9c0,0.9,0,1.5-0.1,1.9s-0.2,0.7-0.4,0.9c-0.2,0.3-0.5,0.5-0.9,0.6
			s-0.8,0.2-1.4,0.2c-0.7,0-1.2-0.1-1.6-0.2c-0.4-0.2-0.6-0.4-0.9-0.6c-0.2-0.3-0.3-0.5-0.4-0.8c-0.1-0.4-0.1-1.1-0.1-1.9V28.5z"/>
		<path class="st4" d="M299.5,35.9h-1.6l-0.6-1.7h-2.9l-0.6,1.7h-1.6l2.8-7.4h1.6L299.5,35.9z M296.7,32.9l-1-2.7l-1,2.7H296.7z"/>
		<path class="st4" d="M299.5,35.9v-7.3h1.5v6.1h3.7v1.2H299.5z"/>
		<path class="st4" d="M305.1,33.5l1.4-0.1c0.1,0.5,0.3,0.8,0.5,1.1s0.6,0.3,1.1,0.3c0.5,0,0.8-0.1,1.1-0.3c0.2-0.2,0.4-0.4,0.4-0.7
			c0-0.2-0.1-0.3-0.2-0.4c-0.1-0.1-0.3-0.2-0.5-0.3c-0.2-0.1-0.6-0.2-1.2-0.3c-0.8-0.2-1.3-0.4-1.7-0.7c-0.4-0.4-0.7-0.9-0.7-1.5
			c0-0.4,0.1-0.7,0.3-1.1c0.2-0.3,0.5-0.6,0.9-0.8s0.9-0.3,1.4-0.3c0.9,0,1.6,0.2,2.1,0.6c0.5,0.4,0.7,1,0.7,1.6l-1.5,0.1
			c-0.1-0.4-0.2-0.7-0.4-0.8c-0.2-0.2-0.5-0.3-0.9-0.3c-0.4,0-0.8,0.1-1,0.3c-0.2,0.1-0.2,0.3-0.2,0.5c0,0.2,0.1,0.3,0.2,0.4
			c0.2,0.2,0.6,0.3,1.4,0.5c0.7,0.2,1.3,0.3,1.6,0.5c0.3,0.2,0.6,0.4,0.8,0.8c0.2,0.3,0.3,0.7,0.3,1.2c0,0.4-0.1,0.8-0.3,1.2
			c-0.2,0.4-0.6,0.6-1,0.8s-1,0.3-1.6,0.3c-0.9,0-1.6-0.2-2.1-0.6C305.5,34.9,305.2,34.3,305.1,33.5z"/>
		<path class="st4" d="M316.8,35.9v-6.2h-2.2v-1.3h5.8v1.3h-2.2v6.2H316.8z"/>
		<path class="st4" d="M320.8,32.2c0-0.8,0.1-1.4,0.3-1.9c0.2-0.4,0.4-0.7,0.7-1c0.3-0.3,0.6-0.5,0.9-0.7c0.5-0.2,1-0.3,1.6-0.3
			c1.1,0,1.9,0.3,2.6,1c0.6,0.7,1,1.6,1,2.8c0,1.2-0.3,2.1-1,2.8c-0.6,0.7-1.5,1-2.6,1c-1.1,0-2-0.3-2.6-1
			C321.2,34.3,320.8,33.4,320.8,32.2z M322.4,32.2c0,0.8,0.2,1.5,0.6,1.9c0.4,0.4,0.9,0.6,1.5,0.6s1.1-0.2,1.4-0.6
			c0.4-0.4,0.6-1.1,0.6-1.9c0-0.8-0.2-1.5-0.6-1.9c-0.4-0.4-0.9-0.6-1.5-0.6s-1.1,0.2-1.5,0.6C322.6,30.7,322.4,31.3,322.4,32.2z"/>
		<path class="st4" d="M332,28.5h2.7c0.6,0,1.1,0,1.4,0.1c0.4,0.1,0.8,0.4,1.1,0.7c0.3,0.3,0.5,0.7,0.7,1.2c0.2,0.5,0.2,1.1,0.2,1.8
			c0,0.6-0.1,1.1-0.2,1.6c-0.2,0.5-0.4,1-0.8,1.3c-0.3,0.3-0.6,0.4-1,0.6c-0.3,0.1-0.8,0.2-1.3,0.2H332V28.5z M333.4,29.7v4.9h1.1
			c0.4,0,0.7,0,0.9-0.1c0.2-0.1,0.4-0.2,0.6-0.3c0.2-0.1,0.3-0.4,0.4-0.7c0.1-0.3,0.1-0.8,0.1-1.4s0-1-0.1-1.3s-0.2-0.5-0.4-0.7
			c-0.2-0.2-0.4-0.3-0.7-0.3c-0.2,0-0.6-0.1-1.2-0.1H333.4z"/>
		<path class="st4" d="M345.8,35.9h-1.6l-0.6-1.7h-2.9l-0.6,1.7h-1.6l2.8-7.4h1.6L345.8,35.9z M343.1,32.9l-1-2.7l-1,2.7H343.1z"/>
		<path class="st4" d="M347.4,35.9v-6.2h-2.2v-1.3h5.8v1.3h-2.2v6.2H347.4z"/>
		<path class="st4" d="M351.8,35.9v-7.4h5.4v1.3h-3.9v1.6h3.7v1.2h-3.7v2h4.1v1.2H351.8z"/>
	</g>
	<polyline class="st13" points="259.8,38.3 259.8,38.9 367.8,38.9 367.8,38.3 259.8,38.3 	"/>
	<polyline class="st13" points="281,78.5 281,79.1 340.5,79.1 340.5,78.5 281,78.5 	"/>
	<g>
		<path class="st4" d="M318.6,275.6v1.3h-4.9c0.1-0.5,0.2-1,0.5-1.4c0.3-0.4,0.8-1,1.6-1.8c0.6-0.6,1-1,1.2-1.2
			c0.2-0.3,0.3-0.6,0.3-0.9c0-0.3-0.1-0.6-0.3-0.7s-0.4-0.3-0.7-0.3c-0.3,0-0.5,0.1-0.7,0.3c-0.2,0.2-0.3,0.5-0.3,0.9l-1.4-0.1
			c0.1-0.8,0.3-1.3,0.8-1.7c0.4-0.3,1-0.5,1.6-0.5c0.7,0,1.3,0.2,1.7,0.6c0.4,0.4,0.6,0.9,0.6,1.5c0,0.3-0.1,0.7-0.2,1
			c-0.1,0.3-0.3,0.6-0.6,0.9c-0.2,0.2-0.5,0.5-0.9,0.9c-0.4,0.4-0.7,0.7-0.8,0.8s-0.2,0.3-0.3,0.4H318.6z"/>
		<path class="st4" d="M319.6,275.5h1.4v1c0,0.4,0,0.7-0.1,1c-0.1,0.2-0.2,0.5-0.4,0.6c-0.2,0.2-0.4,0.3-0.7,0.4l-0.3-0.6
			c0.3-0.1,0.5-0.2,0.6-0.4c0.1-0.2,0.2-0.4,0.2-0.7h-0.7V275.5z"/>
		<path class="st4" d="M324.7,269.5c0.7,0,1.3,0.3,1.7,0.8c0.5,0.6,0.7,1.6,0.7,3c0,1.4-0.2,2.4-0.7,3c-0.4,0.5-0.9,0.8-1.7,0.8
			c-0.7,0-1.3-0.3-1.7-0.8c-0.4-0.6-0.7-1.5-0.7-3c0-1.4,0.2-2.4,0.7-3C323.4,269.8,324,269.5,324.7,269.5z M324.7,270.7
			c-0.2,0-0.3,0.1-0.5,0.2s-0.2,0.3-0.3,0.6c-0.1,0.4-0.1,1-0.1,1.9s0,1.5,0.1,1.8s0.2,0.5,0.3,0.6c0.1,0.1,0.3,0.2,0.5,0.2
			s0.3-0.1,0.5-0.2c0.1-0.1,0.2-0.3,0.3-0.6c0.1-0.4,0.1-1,0.1-1.8s0-1.5-0.1-1.8c-0.1-0.3-0.2-0.5-0.3-0.7
			C325,270.7,324.8,270.7,324.7,270.7z"/>
		<path class="st4" d="M328.9,273c-0.4-0.2-0.6-0.4-0.8-0.6c-0.2-0.3-0.2-0.6-0.2-0.9c0-0.6,0.2-1,0.6-1.4c0.4-0.4,0.9-0.5,1.6-0.5
			c0.7,0,1.2,0.2,1.6,0.5c0.4,0.4,0.6,0.8,0.6,1.4c0,0.3-0.1,0.6-0.3,0.9c-0.2,0.3-0.4,0.5-0.7,0.6c0.4,0.2,0.7,0.4,0.9,0.7
			s0.3,0.7,0.3,1.1c0,0.7-0.2,1.2-0.6,1.7c-0.4,0.4-1,0.6-1.7,0.6c-0.7,0-1.2-0.2-1.7-0.5c-0.5-0.4-0.8-1-0.8-1.7
			c0-0.4,0.1-0.8,0.3-1.1S328.5,273.1,328.9,273z M329.1,274.7c0,0.4,0.1,0.7,0.3,0.9s0.4,0.3,0.7,0.3c0.3,0,0.5-0.1,0.7-0.3
			c0.2-0.2,0.3-0.5,0.3-0.9c0-0.3-0.1-0.6-0.3-0.8c-0.2-0.2-0.4-0.3-0.7-0.3c-0.3,0-0.6,0.1-0.8,0.4S329.1,274.4,329.1,274.7z
			 M329.2,271.5c0,0.3,0.1,0.5,0.2,0.7c0.2,0.2,0.4,0.2,0.6,0.2c0.3,0,0.5-0.1,0.6-0.2s0.2-0.4,0.2-0.7c0-0.3-0.1-0.5-0.2-0.6
			c-0.2-0.2-0.4-0.2-0.6-0.2c-0.3,0-0.5,0.1-0.6,0.2C329.3,271,329.2,271.3,329.2,271.5z"/>
		<path class="st4" d="M333.2,275.2l1.4-0.2c0,0.3,0.1,0.5,0.3,0.6s0.3,0.2,0.6,0.2c0.3,0,0.5-0.1,0.7-0.4s0.3-0.8,0.4-1.7
			c-0.4,0.4-0.8,0.6-1.3,0.6c-0.6,0-1.1-0.2-1.5-0.7c-0.4-0.5-0.6-1-0.6-1.8c0-0.8,0.2-1.4,0.7-1.8s1-0.7,1.7-0.7
			c0.7,0,1.4,0.3,1.8,0.9c0.5,0.6,0.7,1.5,0.7,2.9c0,1.4-0.2,2.3-0.7,2.9c-0.5,0.6-1.1,0.9-1.9,0.9c-0.6,0-1-0.2-1.4-0.5
			S333.3,275.9,333.2,275.2z M336.3,272.1c0-0.5-0.1-0.8-0.3-1.1c-0.2-0.3-0.4-0.4-0.7-0.4c-0.3,0-0.5,0.1-0.6,0.3
			c-0.2,0.2-0.3,0.5-0.3,1c0,0.5,0.1,0.8,0.3,1.1c0.2,0.2,0.4,0.3,0.7,0.3c0.3,0,0.5-0.1,0.7-0.3
			C336.2,272.9,336.3,272.6,336.3,272.1z"/>
	</g>
	<path class="st4" d="M317.5,290.3h-1.4V285c-0.5,0.5-1.1,0.8-1.8,1.1v-1.3c0.4-0.1,0.8-0.4,1.2-0.7c0.4-0.3,0.7-0.7,0.9-1.2h1.1
		V290.3z"/>
	<path class="st4" d="M319.6,288.9h1.4v1c0,0.4,0,0.7-0.1,1c-0.1,0.2-0.2,0.5-0.4,0.6c-0.2,0.2-0.4,0.3-0.7,0.4l-0.3-0.6
		c0.3-0.1,0.5-0.2,0.6-0.4c0.1-0.2,0.2-0.4,0.2-0.7h-0.7V288.9z"/>
	<path class="st4" d="M322.3,288.6l1.4-0.2c0,0.3,0.1,0.5,0.3,0.6s0.3,0.2,0.6,0.2c0.3,0,0.5-0.1,0.7-0.4c0.2-0.3,0.3-0.8,0.4-1.7
		c-0.4,0.4-0.8,0.6-1.3,0.6c-0.6,0-1.1-0.2-1.5-0.7c-0.4-0.5-0.6-1-0.6-1.8c0-0.8,0.2-1.4,0.7-1.8c0.4-0.5,1-0.7,1.7-0.7
		c0.7,0,1.4,0.3,1.8,0.9c0.5,0.6,0.7,1.5,0.7,2.9c0,1.4-0.2,2.3-0.7,2.9c-0.5,0.6-1.1,0.9-1.9,0.9c-0.6,0-1-0.2-1.4-0.5
		C322.7,289.7,322.4,289.2,322.3,288.6z M325.5,285.5c0-0.5-0.1-0.8-0.3-1.1c-0.2-0.3-0.4-0.4-0.7-0.4c-0.3,0-0.5,0.1-0.6,0.3
		c-0.2,0.2-0.3,0.5-0.3,1c0,0.5,0.1,0.8,0.3,1.1c0.2,0.2,0.4,0.3,0.7,0.3c0.3,0,0.5-0.1,0.7-0.3
		C325.4,286.3,325.5,285.9,325.5,285.5z"/>
	<path class="st4" d="M327.7,288.4l1.4-0.1c0,0.3,0.2,0.6,0.4,0.8c0.2,0.2,0.4,0.3,0.7,0.3c0.3,0,0.5-0.1,0.7-0.4s0.3-0.6,0.3-1.1
		c0-0.5-0.1-0.8-0.3-1s-0.5-0.3-0.8-0.3c-0.4,0-0.8,0.2-1.1,0.5l-1.1-0.2l0.7-3.9h3.7v1.3h-2.6l-0.2,1.3c0.3-0.2,0.6-0.2,1-0.2
		c0.6,0,1.1,0.2,1.6,0.7c0.4,0.5,0.6,1.1,0.6,1.8c0,0.6-0.2,1.2-0.5,1.6c-0.5,0.7-1.1,1-2,1c-0.7,0-1.2-0.2-1.7-0.6
		S327.8,289.1,327.7,288.4z"/>
	<path class="st4" d="M334.3,286.3c-0.4-0.2-0.6-0.4-0.8-0.6c-0.2-0.3-0.2-0.6-0.2-0.9c0-0.6,0.2-1,0.6-1.4s0.9-0.5,1.6-0.5
		c0.7,0,1.2,0.2,1.6,0.5c0.4,0.4,0.6,0.8,0.6,1.4c0,0.3-0.1,0.6-0.3,0.9s-0.4,0.5-0.7,0.6c0.4,0.2,0.7,0.4,0.9,0.7
		c0.2,0.3,0.3,0.7,0.3,1.1c0,0.7-0.2,1.2-0.6,1.7c-0.4,0.4-1,0.6-1.7,0.6c-0.7,0-1.2-0.2-1.7-0.5c-0.5-0.4-0.8-1-0.8-1.7
		c0-0.4,0.1-0.8,0.3-1.1S333.9,286.5,334.3,286.3z M334.5,288.1c0,0.4,0.1,0.7,0.3,0.9c0.2,0.2,0.4,0.3,0.7,0.3
		c0.3,0,0.5-0.1,0.7-0.3c0.2-0.2,0.3-0.5,0.3-0.9c0-0.3-0.1-0.6-0.3-0.8c-0.2-0.2-0.4-0.3-0.7-0.3c-0.3,0-0.6,0.1-0.8,0.4
		S334.5,287.8,334.5,288.1z M334.6,284.9c0,0.3,0.1,0.5,0.2,0.7c0.2,0.2,0.4,0.2,0.6,0.2c0.3,0,0.5-0.1,0.6-0.2
		c0.2-0.2,0.2-0.4,0.2-0.7c0-0.3-0.1-0.5-0.2-0.6s-0.4-0.2-0.6-0.2c-0.3,0-0.5,0.1-0.6,0.2C334.7,284.4,334.6,284.6,334.6,284.9z"/>
	<path class="st4" d="M335.1,301.8v-1.4h2.8v1.4H335.1z"/>
	<path class="st4" d="M335.1,315.2v-1.4h2.8v1.4H335.1z"/>
	<path class="st4" d="M335.1,328.5v-1.4h2.8v1.4H335.1z"/>
	<path class="st4" d="M316.1,339.9c-0.4-0.2-0.6-0.4-0.8-0.6c-0.2-0.3-0.2-0.6-0.2-0.9c0-0.6,0.2-1,0.6-1.4s0.9-0.5,1.6-0.5
		c0.7,0,1.2,0.2,1.6,0.5c0.4,0.4,0.6,0.8,0.6,1.4c0,0.3-0.1,0.6-0.3,0.9s-0.4,0.5-0.7,0.6c0.4,0.2,0.7,0.4,0.9,0.7
		c0.2,0.3,0.3,0.7,0.3,1.1c0,0.7-0.2,1.2-0.6,1.7c-0.4,0.4-1,0.6-1.7,0.6c-0.7,0-1.2-0.2-1.7-0.5c-0.5-0.4-0.8-1-0.8-1.7
		c0-0.4,0.1-0.8,0.3-1.1S315.7,340.1,316.1,339.9z M316.3,341.7c0,0.4,0.1,0.7,0.3,0.9c0.2,0.2,0.4,0.3,0.7,0.3
		c0.3,0,0.5-0.1,0.7-0.3c0.2-0.2,0.3-0.5,0.3-0.9c0-0.3-0.1-0.6-0.3-0.8c-0.2-0.2-0.4-0.3-0.7-0.3c-0.3,0-0.6,0.1-0.8,0.4
		S316.3,341.4,316.3,341.7z M316.4,338.5c0,0.3,0.1,0.5,0.2,0.7c0.2,0.2,0.4,0.2,0.6,0.2c0.3,0,0.5-0.1,0.6-0.2
		c0.2-0.2,0.2-0.4,0.2-0.7c0-0.3-0.1-0.5-0.2-0.6s-0.4-0.2-0.6-0.2c-0.3,0-0.5,0.1-0.6,0.2C316.5,338,316.4,338.2,316.4,338.5z"/>
	<path class="st4" d="M320.9,342.5h1.4v1c0,0.4,0,0.7-0.1,1c-0.1,0.2-0.2,0.5-0.4,0.6c-0.2,0.2-0.4,0.3-0.7,0.4l-0.3-0.6
		c0.3-0.1,0.5-0.2,0.6-0.4c0.1-0.2,0.2-0.4,0.2-0.7h-0.7V342.5z"/>
	<path class="st4" d="M323.5,342.2l1.4-0.2c0,0.3,0.1,0.5,0.3,0.6s0.3,0.2,0.6,0.2c0.3,0,0.5-0.1,0.7-0.4s0.3-0.8,0.4-1.7
		c-0.4,0.4-0.8,0.6-1.3,0.6c-0.6,0-1.1-0.2-1.5-0.7c-0.4-0.5-0.6-1-0.6-1.8c0-0.8,0.2-1.4,0.7-1.8s1-0.7,1.7-0.7
		c0.7,0,1.4,0.3,1.8,0.9c0.5,0.6,0.7,1.5,0.7,2.9c0,1.4-0.2,2.3-0.7,2.9c-0.5,0.6-1.1,0.9-1.9,0.9c-0.6,0-1-0.2-1.4-0.5
		S323.6,342.8,323.5,342.2z M326.6,339.1c0-0.5-0.1-0.8-0.3-1.1c-0.2-0.3-0.4-0.4-0.7-0.4c-0.3,0-0.5,0.1-0.6,0.3
		c-0.2,0.2-0.3,0.5-0.3,1c0,0.5,0.1,0.8,0.3,1.1c0.2,0.2,0.4,0.3,0.7,0.3c0.3,0,0.5-0.1,0.7-0.3
		C326.6,339.8,326.6,339.5,326.6,339.1z"/>
	<path class="st4" d="M329.1,337.9v-1.3h4.8v1c-0.4,0.4-0.8,1-1.2,1.7c-0.4,0.7-0.7,1.5-0.9,2.4c-0.2,0.8-0.3,1.6-0.3,2.2h-1.4
		c0-1,0.2-2.1,0.6-3.1s0.9-2,1.6-2.9H329.1z"/>
	<path class="st4" d="M334.8,342l1.4-0.1c0,0.3,0.2,0.6,0.4,0.8c0.2,0.2,0.4,0.3,0.7,0.3c0.3,0,0.5-0.1,0.7-0.4s0.3-0.6,0.3-1.1
		c0-0.5-0.1-0.8-0.3-1s-0.5-0.3-0.8-0.3c-0.4,0-0.8,0.2-1.1,0.5l-1.1-0.2l0.7-3.9h3.7v1.3h-2.6l-0.2,1.3c0.3-0.2,0.6-0.2,1-0.2
		c0.6,0,1.1,0.2,1.6,0.7c0.4,0.5,0.6,1.1,0.6,1.8c0,0.6-0.2,1.2-0.5,1.6c-0.5,0.7-1.1,1-2,1c-0.7,0-1.2-0.2-1.7-0.6
		S334.9,342.6,334.8,342z"/>
	<rect x="250.4" y="172.1" class="st16" width="126.8" height="16.1"/>
	<g>
		<path class="st4" d="M313.9,177.2v-1.3h4.8v1c-0.4,0.4-0.8,1-1.2,1.7c-0.4,0.7-0.7,1.5-0.9,2.4c-0.2,0.8-0.3,1.6-0.3,2.2h-1.4
			c0-1,0.2-2.1,0.6-3.1c0.4-1.1,0.9-2,1.6-2.9H313.9z"/>
		<path class="st4" d="M319.6,181.8h1.4v1c0,0.4,0,0.7-0.1,1c-0.1,0.2-0.2,0.5-0.4,0.6c-0.2,0.2-0.4,0.3-0.7,0.4l-0.3-0.6
			c0.3-0.1,0.5-0.2,0.6-0.4c0.1-0.2,0.2-0.4,0.2-0.7h-0.7V181.8z"/>
		<path class="st4" d="M325.9,183.2h-1.4v-5.4c-0.5,0.5-1.1,0.8-1.8,1.1v-1.3c0.4-0.1,0.8-0.4,1.2-0.7c0.4-0.3,0.7-0.7,0.9-1.2h1.1
			V183.2z"/>
		<path class="st4" d="M330.1,175.8c0.7,0,1.3,0.3,1.7,0.8c0.5,0.6,0.7,1.6,0.7,3c0,1.4-0.2,2.4-0.7,3c-0.4,0.5-0.9,0.8-1.7,0.8
			c-0.7,0-1.3-0.3-1.7-0.8s-0.7-1.5-0.7-3c0-1.4,0.2-2.4,0.7-3C328.8,176,329.4,175.8,330.1,175.8z M330.1,177
			c-0.2,0-0.3,0.1-0.5,0.2c-0.1,0.1-0.2,0.3-0.3,0.6c-0.1,0.4-0.1,1-0.1,1.9c0,0.9,0,1.5,0.1,1.8c0.1,0.3,0.2,0.5,0.3,0.6
			c0.1,0.1,0.3,0.2,0.5,0.2s0.3-0.1,0.5-0.2s0.2-0.3,0.3-0.6c0.1-0.4,0.1-1,0.1-1.8c0-0.9,0-1.5-0.1-1.8c-0.1-0.3-0.2-0.5-0.3-0.7
			C330.4,177,330.3,177,330.1,177z"/>
		<path class="st4" d="M336.7,183.2h-1.4v-5.4c-0.5,0.5-1.1,0.8-1.8,1.1v-1.3c0.4-0.1,0.8-0.4,1.2-0.7c0.4-0.3,0.7-0.7,0.9-1.2h1.1
			V183.2z"/>
	</g>
</g>
</svg>
