<svg id="Layer_1" data-name="Layer 1" xmlns="http://www.w3.org/2000/svg" viewBox="0 0 540 200"><defs><style>.cls-1{fill:none;stroke:#4259a8;stroke-linejoin:bevel;stroke-width:3px}</style></defs><title>c-850</title><path class="cls-1" d="M259.7 127.2l-20.2 55.7-13-20.6-24.3 7.1 19.2-52.8m41.8 9.4l20.7 56.9 13-20.6 24.3 7.1-18.3-50.4"/><path class="cls-1" d="M320.3 94.2l-5.4-15.6 8.9-13.6-11.9-11.3 1.5-16.3-15.8-4.4-6.3-15-16 3.4L262.7 11l-12.6 10.4-16-3.4-6.2 15.1-15.8 4.4 1.5 16.3-11.9 11.3 8.9 13.7-5.4 15.6 14.3 7.9 2.4 16.3 16.4.4 9.6 13.3 14.8-7.2 14.8 7 9.7-13.3 16.4-.4L306 102z"/><circle class="cls-1" cx="262.6" cy="73.2" r="37.3"/></svg>