<svg id="Layer_1" data-name="Layer 1" xmlns="http://www.w3.org/2000/svg" viewBox="0 0 540 415.3"><defs><style>.cls-1,.cls-8{fill:#5fc8d7}.cls-2,.cls-5{fill:#4057a7}.cls-3{fill:#192530}.cls-4{fill:#333;stroke:#231f20;stroke-width:.5px}.cls-10,.cls-11,.cls-14,.cls-5{stroke:#333}.cls-10,.cls-11,.cls-14,.cls-5,.cls-6,.cls-7{stroke-miterlimit:10}.cls-5{stroke-width:.75px}.cls-10,.cls-14,.cls-6,.cls-7,.cls-9{fill:none}.cls-6{stroke:#27aae1}.cls-7,.cls-8,.cls-9{stroke:#424242}.cls-10,.cls-11,.cls-7,.cls-8,.cls-9{stroke-width:2.5px}.cls-8,.cls-9{stroke-linejoin:round}.cls-11,.cls-13{fill:#2dabe2}.cls-12{fill:#1d2e5e}.cls-14{stroke-width:2px}</style></defs><title>c-905</title><g id="_Group_" data-name="&lt;Group&gt;"><path class="cls-1" d="M319.1 248.7c0 1.3.1 2.6.1 3.9s0 2.1-.1 3.2-.1 2.8-.3 4.2-.1 1.3-.2 2-.1.9-.2 1.4-.2 1.6-.3 2.3-.8 4.2-1.2 6.3-1 4.1-1.7 6.1l-.5 1.5c-1 2.8-2.1 5.5-3.3 8.2l-1.9 3.8-2.1 3.7-2.3 3.6c-1.6 2.3-3.2 4.6-5 6.8l-1 1.2-.3.4-2.6 2.9-1.5 1.5c-1.6 1.7-3.4 3.3-5.2 4.8l-1.5 1.2-1.6 1.3-3.8 2.7-1.8 1.3-3.8 2.3-1.8 1-4.1 2.1-2.1.9-2.1.9-2.1.8-2.1.8-2.2.7-1.1.3-1.3.4c-2.3.7-4.6 1.2-7 1.7l-1.8.3-2 .3-1.4.2-1.9.2h-.5l-1.8.2-6.4.3a83.8 83.8 0 0 1 0-167.5h6.4l2.1.2 3.4.4 1.9.3 1.9.3 3.2.7 2 .5 6 1.8 3.6 1.3 4 1.7 2.4 1.1 1.2.6 2.6 1.4 2.7 1.5 1.7 1.1 2 1.3 3 2.1h.1l2.9 2.3 2.4 2.1a87.2 87.2 0 0 1 7.8 7.9l.3.3 2.9 3.6a85.5 85.5 0 0 1 5.2 7.6l2.3 4c1 1.9 2 3.9 2.8 5.9l.2.4a82.5 82.5 0 0 1 6 21.4c.3 2.6.6 5.2.7 7.8zm-22.1 3.9a61.6 61.6 0 1 0-61.6 61.6 61.6 61.6 0 0 0 61.6-61.6z"/><circle class="cls-2" cx="235.4" cy="252.6" r="61.6"/><path class="cls-3" d="M386.9 164.5H244.6a3.4 3.4 0 0 1-3.4-3.4v-29.6a3.4 3.4 0 0 1 3.4-3.4h142.3a3.4 3.4 0 0 1 3.4 3.4v29.6a3.4 3.4 0 0 1-3.4 3.4zM248 157.6h135.5v-22.7H248z"/><path class="cls-3" d="M370.9 135.3H228.6a3.4 3.4 0 0 1-3.4-3.4v-29.7a3.4 3.4 0 0 1 3.4-3.4h142.3a3.4 3.4 0 0 1 3.4 3.4v29.6a3.4 3.4 0 0 1-3.4 3.5zM232 128.4h135.5v-22.7H232zM315.7 248.5a70.5 70.5 0 0 0-.7-7 78.4 78.4 0 0 0-5.7-20.6v-.3c-1-2.2-1.9-4-2.8-5.7s-1.4-2.6-2.2-3.9a74.7 74.7 0 0 0-5-7.3l-2.8-3.4 5.1-4.5c1.2 1.3 2.2 2.6 3.1 3.8a80.7 80.7 0 0 1 5.4 7.9c.9 1.4 1.6 2.8 2.4 4.2s2 3.8 3 6.1l.2.5a85.2 85.2 0 0 1 6.2 22.2 76.6 76.6 0 0 1 .7 7.7zM296.2 200a78.9 78.9 0 0 0-7-7.2l4.6-5.1a85.2 85.2 0 0 1 7.6 7.8zM288.6 192.4l-2.1-1.8-2.8-2.2 4-5.5 3.1 2.4 2.5 2.2zM283.5 188.2l-2.8-2-1.9-1.3 3.6-5.8 2.1 1.4 3.1 2.2zM277.1 183.8l-2.6-1.5-2.5-1.3 3.1-6.1-1.6 3 1.6-3 2.7 1.5 2.7 1.6z"/><path class="cls-3" d="M271.9 181l-1.1-.6-2.3-1.1 2.8-6.2 2.5 1.2 1.4.7zM264.7 177.7l-3.5-1.3 2.2-6.5 3.7 1.3zM255.5 174.8l-1.9-.5 1.5-6.7 2.1.5zM250.5 173.6l-1.7-.3-1.9-.3 1-6.8 2 .3 2 .4zM243.7 172.6l-2-.2h-2l.2-6.8 2.4.2 2.1.2zM235.4 339.7a87.2 87.2 0 0 1 0-174.4v6.8a80.3 80.3 0 0 0 0 160.7zM242.1 339.5l-.5-6.8h1.7l.8 6.8zM244.7 339.3l-.9-6.8 1.8-.2 1 6.8zM248 338.8l-.9-6.8 1.9-.3 1.5-.3h.3l1.2 6.7h-.2l-1.7.3zM259.2 336.4l-1.7-6.6 1-.3 2.2 6.5zM261.7 335.7l-2-6.5 2-.7 2-.7 2-.8 1.9-.8 2-.9 3.1 6.1-2.2 1-2.2.9-2.2.9-2.2.8zM277 329.2l-3.3-6 .4-.2 1.3-.8 3.5 5.9-1.5.9zM283 325.6l-3.9-5.6 1.8-1.2 3.9 5.6zM288.6 321.6l-4.1-5.5 1.5-1.1 1.4-1.2 4.6 5.1-1.7 1.4zM297.2 314l-4.7-4.9 1.3-1.4 5 4.6zM303 307.7l-5.3-4.3a73 73 0 0 0 4.8-6.5l2.2-3.4c.7-1.2 1.4-2.4 2-3.6s1.2-2.5 1.8-3.7l6.2 2.9c-.6 1.3-1.3 2.7-2 4s-1.4 2.6-2.2 3.9-1.4 2.4-2.3 3.7a80.5 80.5 0 0 1-5.2 7zM318.1 280.5l-6.5-2.1.4-1.5 6.6 2-.5 1.6zM318.7 278.5l-6.5-2.1c.6-1.9 1.1-3.6 1.5-5.4s.9-4 1.2-6v-.3l.3-1.9 6.8.8-.3 2.1v.4c-.3 2.3-.8 4.5-1.3 6.6s-1.1 3.8-1.7 5.8zM322.1 262.3l-6.8-.9c.1-.6.1-1.1.2-1.7l6.8.5c-.1.7-.1 1.4-.2 2.1zM322.6 255.9l-6.8-.3c0-1 .1-2 .1-3h6.8c-.1 1.1-.1 2.2-.1 3.3z"/><path class="cls-3" d="M235.4 317.6a65 65 0 1 1 65-65 65.1 65.1 0 0 1-65 65zm0-123.2a58.2 58.2 0 1 0 58.2 58.2 58.2 58.2 0 0 0-58.2-58.2zM288.7 192.4l-2.2-1.9-2.8-2.2h-.2l-2.8-2-1.9-1.3-1.4-.9-.3-.2-2.6-1.5-2.3-1.2-.4-.2-1.1-.6-2.3-1.1-3.8-1.6-3.4-1.2-5.7-1.7-1.9-.5-3-.6-1.8-.3-1.9-.3-3.2-.4-2-.2h-6.2a3.4 3.4 0 0 1-3.4-3.4V161a3.4 3.4 0 0 1 3.4-3.4h142.3a3.4 3.4 0 0 1 3.4 3.4v29.2h-6.8v-26.1H238.9v1.4h3.4l2.1.2 3.5.4 2 .3 2 .4 3.2.7 2.1.5 6.2 1.8 3.7 1.4 4.1 1.7 2.5 1.2 1.1.6h.2l2.8 1.5 2.7 1.6.3.2 1.5 1 2 1.3 3.1 2.2h.2l3 2.4 2.5 2.2z"/><path class="cls-3" d="M377.8 193.7h-86.4a3.4 3.4 0 0 1-2.4-1l-.3-.2 2.7-3.1v-2.5h86.3z"/><path class="cls-3" d="M377.8 222.9h-65.4v-6.8h62v-22.8H291v-6.8h86.8a3.4 3.4 0 0 1 3.4 3.4v29.6a3.4 3.4 0 0 1-3.4 3.4z"/><path class="cls-3" d="M309.1 220.4c-.8-1.8-1.7-3.6-2.7-5.6l-2.2-3.9a82.5 82.5 0 0 0-5-7.2l-2.7-3.4-.3-.4a83.9 83.9 0 0 0-7.4-7.5l4.6-5.1a91.3 91.3 0 0 1 8.1 8.2v.2l3.1 3.8a89.3 89.3 0 0 1 5.4 7.9l2.4 4.2c1.2 2.2 2.1 4.2 3 6.1z"/><path class="cls-3" d="M370.9 252.1h-51.8a3.4 3.4 0 0 1-3.4-3.3c-.1-2.4-.3-4.8-.7-7.5a79 79 0 0 0-5.7-20.5v-.3a3.6 3.6 0 0 1 .3-3.3 3.4 3.4 0 0 1 2.8-1.6h58.7a3.4 3.4 0 0 1 3.4 3.4v29.6a3.4 3.4 0 0 1-3.6 3.5zm-48.6-6.8h45.2v-22.8h-50.2a86.1 86.1 0 0 1 4.5 17.9c.2 1.7.4 3.3.5 4.9z"/><path class="cls-3" d="M377.8 281.3h-62.5v-3.4l-3.3-1c.6-1.7 1.1-3.6 1.6-5.9s.9-4 1.2-6v-.3l.3-1.9c.1-.5.1-.8.1-1.2v-.2c.1-.4.1-.8.1-1.2v-.6c.1-1.3.2-2.6.2-3.9s.1-2.1.1-3.1 0-2.5-.1-3.7 0-.4 0-.5a3.4 3.4 0 0 1 3.4-3.4h58.7a3.4 3.4 0 0 1 3.4 3.4V278a3.4 3.4 0 0 1-3.2 3.3zm-57.9-6.8h54.5v-22.8h-51.8v.8c0 .2 0 2.2-.1 3.3s-.1 2.9-.3 4.3v.6c0 .5-.1 1-.2 1.5s-.1.9-.2 1.4l-.3 1.9v.4c-.4 2.2-.8 4.4-1.3 6.5z"/><path class="cls-3" d="M386.9 310.5H299v-4.1l-2.3-1.9 1-1.2c1.6-2 3.2-4.2 4.8-6.5l2.2-3.4 2-3.6 1.8-3.6c1.2-2.6 2.2-5.2 3.1-7.8v-.4l.3-.9v-.4a3.5 3.5 0 0 1 3.3-2.4h71.5a3.4 3.4 0 0 1 3.4 3.4v29.6a3.4 3.4 0 0 1-3.2 3.2zm-80.9-6.8h77.4v-22.8h-65.5q-1.4 4-3.2 8.1l-1.9 3.9-2.2 3.9-2.3 3.7z"/><path class="cls-3" d="M377.8 339.7H235.4a3.4 3.4 0 0 1 0-6.8l6.2-.2h2.4l1.5-.2 1.4-.2 1.9-.3 1.8-.3c2.2-.4 4.4-.9 6.7-1.6l1.1-.3 1.1-.3 2.1-.7.4-.2 1.6-.6 2-.8.5-.2 1.4-.6 2.1-.9 4-2 1.8-1 3.6-2.2.4-.2 1.3-.9 3.7-2.7 1.6-1.5 1.4-1.1c1.8-1.5 3.4-3 5.1-4.7l1.4-1.4 2.5-2.8.3-.3a4 4 0 0 1 2.7-1.3h78.5a3.4 3.4 0 0 1 3.4 3.4v29.6a3.4 3.4 0 0 1-3.5 3.3zm-108.5-6.8h105.1v-22.8h-73.5l-2 2.2-1.4 1.5c-1.9 1.9-3.7 3.6-5.5 5.1l-1.6 1.3-1.6 1.3-4 2.9-1.4 1-.4.3-4 2.4-1.9 1.1-4.4 2.2-2.1 1z"/></g><path class="cls-4" d="M64.9 239.4v-1.2h50a.8.8 0 0 0 .9-.7v-34.7H64.1v34.6a.8.8 0 0 0 .9.7v1.2a2.1 2.1 0 0 1-2.2-1.9v-35.2a.6.6 0 0 1 .2-.4l.5-.2h53.1l.5.2a.6.6 0 0 1 .2.4v35.2a2.1 2.1 0 0 1-2.2 1.9zM100.6 193.7v-6.1a3.7 3.7 0 1 1 7.4 0v6.1a3.7 3.7 0 1 1-7.4 0zm1.4-6.1v6.1a2.4 2.4 0 1 0 4.7 0v-6.1a2.4 2.4 0 1 0-4.7 0zM71.8 193.7v-6.1a3.7 3.7 0 1 1 7.4 0v6.1a3.7 3.7 0 1 1-7.4 0zm1.4 0a2.4 2.4 0 1 0 4.7 0v-6.1a2.4 2.4 0 1 0-4.7 0z"/><rect class="cls-5" x="73.9" y="207.5" width="5.1" height="5.07" rx="1" ry="1"/><rect class="cls-5" x="80.9" y="207.5" width="5.1" height="5.07" rx="1" ry="1"/><rect class="cls-5" x="87.9" y="207.5" width="5.1" height="5.07" rx="1" ry="1"/><rect class="cls-5" x="73.9" y="214.2" width="5.1" height="5.07" rx="1" ry="1"/><rect class="cls-5" x="87.9" y="214.2" width="5.1" height="5.07" rx="1" ry="1"/><rect class="cls-5" x="80.9" y="214.2" width="5.1" height="5.07" rx="1" ry="1"/><rect class="cls-5" x="73.9" y="220.9" width="5.1" height="5.07" rx="1" ry="1"/><rect class="cls-5" x="80.9" y="220.9" width="5.1" height="5.07" rx="1" ry="1"/><rect class="cls-5" x="66.9" y="214.2" width="5.1" height="5.07" rx="1" ry="1"/><rect class="cls-5" x="66.9" y="220.9" width="5.1" height="5.07" rx="1" ry="1"/><path class="cls-4" d="M78.6 191.4a.7.7 0 1 1 0-1.4h22.7a.7.7 0 0 1 0 1.4z"/><path class="cls-4" d="M63.4 203l-.5-.2a.7.7 0 0 1-.2-.5v-10.1a2.2 2.2 0 0 1 2.2-2.2h7.6a.7.7 0 0 1 0 1.4h-7.6a.9.9 0 0 0-.9.9v9.4h51.7v-9.4a.9.9 0 0 0-.9-.9h-7.6a.7.7 0 0 1 0-1.4h7.6a2.2 2.2 0 0 1 2.2 2.2v10.1a.7.7 0 0 1-.2.5l-.5.2z"/><rect class="cls-5" x="101.7" y="207.5" width="5.1" height="5.07" rx="1" ry="1"/><rect class="cls-5" x="108.7" y="207.5" width="5.1" height="5.07" rx="1" ry="1"/><rect class="cls-5" x="94.7" y="207.5" width="5.1" height="5.07" rx="1" ry="1"/><rect class="cls-5" x="101.7" y="214.2" width="5.1" height="5.07" rx="1" ry="1"/><rect class="cls-5" x="108.7" y="214.2" width="5.1" height="5.07" rx="1" ry="1"/><rect class="cls-5" x="94.7" y="214.2" width="5.1" height="5.07" rx="1" ry="1"/><rect class="cls-5" x="87.7" y="220.9" width="5.1" height="5.07" rx="1" ry="1"/><rect class="cls-5" x="101.5" y="220.9" width="5.1" height="5.07" rx="1" ry="1"/><rect class="cls-5" x="108.5" y="220.9" width="5.1" height="5.07" rx="1" ry="1"/><rect class="cls-5" x="94.5" y="220.9" width="5.1" height="5.07" rx="1" ry="1"/><rect class="cls-5" x="73.5" y="227.6" width="5.1" height="5.07" rx="1" ry="1"/><rect class="cls-5" x="80.5" y="227.6" width="5.1" height="5.07" rx="1" ry="1"/><rect class="cls-5" x="66.6" y="227.6" width="5.1" height="5.07" rx="1" ry="1"/><rect class="cls-5" x="87.3" y="227.6" width="5.1" height="5.07" rx="1" ry="1"/><rect class="cls-5" x="101.2" y="227.6" width="5.1" height="5.07" rx="1" ry="1"/><rect class="cls-5" x="94.2" y="227.6" width="5.1" height="5.07" rx="1" ry="1"/><path class="cls-6" d="M66 209.8h48.3M66 223.5h48.3M66 216.9h48.3"/><g id="_Group_2" data-name="&lt;Group&gt;"><path class="cls-1" d="M483.6 245.7v2.6h-9.5V234h9.5v11.7zM474.1 224.9h9.5v5.13h-9.5zM474.1 215.8h9.5v5.13h-9.5zM460 243.1h9.5v5.13H460zM460 234h9.5v5.12H460zM460 224.9h9.5v5.13H460zM460 215.8h9.5v5.13H460zM445.8 243.1h9.5v5.13h-9.5zM445.8 234h9.5v5.12h-9.5zM445.8 224.9h9.5v5.13h-9.5zM445.8 215.8h9.5v5.13h-9.5z"/><path class="cls-3" d="M486.1 255.6h-42.8a4.7 4.7 0 0 1-4.7-4.7v-62.5a4.7 4.7 0 0 1 4.7-4.7h42.9a4.7 4.7 0 0 1 4.7 4.7v62.4a4.7 4.7 0 0 1-4.8 4.8zm-42.9-69.9a2.7 2.7 0 0 0-2.7 2.7v62.4a2.7 2.7 0 0 0 2.7 2.7h42.9a2.7 2.7 0 0 0 2.7-2.7v-62.4a2.7 2.7 0 0 0-2.7-2.7z"/><path class="cls-3" d="M483.6 203.4h-37.8a1 1 0 0 1-1-1V191a1 1 0 0 1 1-1h37.8a1 1 0 0 1 1 1v11.4a1 1 0 0 1-1 1zm-36.8-2h35.8V192h-35.8zM455.3 221.9h-9.5a1 1 0 0 1-1-1v-5.1a1 1 0 0 1 1-1h9.5a1 1 0 0 1 1 1v5.1a1 1 0 0 1-1 1zm-8.5-2h7.5v-3.1h-7.5zM469.4 221.9H460a1 1 0 0 1-1-1v-5.1a1 1 0 0 1 1-1h9.5a1 1 0 0 1 1 1v5.1a1 1 0 0 1-1.1 1zm-8.5-2h7.5v-3.1H461zM483.6 221.9h-9.5a1 1 0 0 1-1-1v-5.1a1 1 0 0 1 1-1h9.5a1 1 0 0 1 1 1v5.1a1 1 0 0 1-1 1zm-8.5-2h7.5v-3.1h-7.5zM455.3 231h-9.5a1 1 0 0 1-1-1v-5.1a1 1 0 0 1 1-1h9.5a1 1 0 0 1 1 1v5.1a1 1 0 0 1-1 1zm-8.5-2h7.5v-3.1h-7.5zM469.4 231H460a1 1 0 0 1-1-1v-5.1a1 1 0 0 1 1-1h9.5a1 1 0 0 1 1 1v5.1a1 1 0 0 1-1.1 1zm-8.5-2h7.5v-3.1H461zM483.6 231h-9.5a1 1 0 0 1-1-1v-5.1a1 1 0 0 1 1-1h9.5a1 1 0 0 1 1 1v5.1a1 1 0 0 1-1 1zm-8.5-2h7.5v-3.1h-7.5zM455.3 240.1h-9.5a1 1 0 0 1-1-1V234a1 1 0 0 1 1-1h9.5a1 1 0 0 1 1 1v5.1a1 1 0 0 1-1 1zm-8.5-2h7.5V235h-7.5zM469.4 240.1H460a1 1 0 0 1-1-1V234a1 1 0 0 1 1-1h9.5a1 1 0 0 1 1 1v5.1a1 1 0 0 1-1.1 1zm-8.5-2h7.5V235H461zM455.3 249.2h-9.5a1 1 0 0 1-1-1v-5.1a1 1 0 0 1 1-1h9.5a1 1 0 0 1 1 1v5.1a1 1 0 0 1-1 1zm-8.5-2h7.5v-3.1h-7.5zM469.4 249.2H460a1 1 0 0 1-1-1v-5.1a1 1 0 0 1 1-1h9.5a1 1 0 0 1 1 1v5.1a1 1 0 0 1-1.1 1zm-8.5-2h7.5v-3.1H461zM483.6 249.2h-9.5a1 1 0 0 1-1-1V234a1 1 0 0 1 1-1h9.5a1 1 0 0 1 1 1v14.2a1 1 0 0 1-1 1zm-8.5-2h7.5V235h-7.5zM456.9 206.7h15.6v1.99h-15.6z"/></g><path class="cls-7" d="M464.7 277.9a33.1 33.1 0 1 0 33.1 33.1 33.2 33.2 0 0 0-33.1-33.1z"/><path class="cls-7" d="M464.3 288.8a22.2 22.2 0 1 0 22.1 22.2 22.2 22.2 0 0 0-22.1-22.2zM464.3 290v4.6M464.3 328v4.6M485.9 311h-4.5M447.9 311h-4.5"/><circle class="cls-8" cx="464.3" cy="311" r="4.2" transform="rotate(-45 464.31 310.976)"/><path class="cls-9" d="M459.8 310.4l-8.4 12.5 13.3-7.6M468 311.7l7.3-11.4-12.2 6.5"/><path class="cls-10" d="M90.2 312.9L81.1 338l-5.8-9.2-11 3.1 8.7-23.7M91.8 312.4l9.3 25.6 5.8-9.2 10.9 3.1-8.2-22.6"/><path class="cls-11" d="M117.4 298.1l-2.4-7 4-6.2-5.4-5.1.7-7.3-7.1-2-2.8-6.8-7.2 1.5-5.7-4.7-5.6 4.7-7.2-1.5-2.8 6.8-7.1 2 .7 7.3-5.4 5.2 4 6.2-2.4 7 6.4 3.6 1.1 7.3 7.4.2 4.4 6 6.6-3.3 6.6 3.3 4.4-6 7.4-.2 1.1-7.3zm-42.7-9.4a16.8 16.8 0 1 1 16.8 16.8 16.8 16.8 0 0 1-16.8-16.8z"/><g id="_Group_3" data-name="&lt;Group&gt;"><path class="cls-12" d="M125.2 112.8v22.3H98.8v2.1H85.9v-2.1H59.6v-8.7l17.4-8.8 8.1 4.4 15.5-6.2 7.6 4.4 17-7.4z"/><path class="cls-3" d="M126.3 135.1h-2.2V93.7H60.7v41.4h-2.2V92.5a1.1 1.1 0 0 1 1.1-1.1h65.6a1.1 1.1 0 0 1 1.1 1.1z"/><path class="cls-3" d="M132.3 135.1h-2.2V90a2.3 2.3 0 0 0-2.3-2.3H57a2.3 2.3 0 0 0-2.3 2.3v45.1h-2.3V90a4.6 4.6 0 0 1 4.6-4.6h70.8a4.6 4.6 0 0 1 4.5 4.5z"/><path class="cls-3" d="M139.6 143H45.1a1.1 1.1 0 0 1-.9-.5 14.7 14.7 0 0 1-1.9-3.2 17.7 17.7 0 0 1 0-4.4 1.1 1.1 0 0 1 1.1-1h42.5A1.1 1.1 0 0 1 87 135v1h10.7v-1a1.1 1.1 0 0 1 1.1-1.1h42.5a1.1 1.1 0 0 1 1.1 1 17.6 17.6 0 0 1 0 4.4 14.7 14.7 0 0 1-1.9 3.2 1.1 1.1 0 0 1-.9.5zm-93.9-2.2H139a11.7 11.7 0 0 0 1.2-2 12.3 12.3 0 0 0 0-2.6H99.9v1a1.1 1.1 0 0 1-1.1 1.1H85.9a1.1 1.1 0 0 1-1.1-1.1v-1H44.5a12.4 12.4 0 0 0 0 2.6 11.6 11.6 0 0 0 1.2 2zM60.1 127.4l-1-2 17.5-8.7a1.1 1.1 0 0 1 1 0l7.6 4.1 15.1-6a1.1 1.1 0 0 1 1 .1l7.1 4.2 16.5-7.2 1 2h-.1l-17 7.4a1.1 1.1 0 0 1-1-.1l-7.1-4.2-15.1 6a1.1 1.1 0 0 1-.9-.1l-7.7-4zM67.5 98.9h18.9v2.23H67.5zM67.5 103.8h10.8v2.23H67.5z"/></g><path class="cls-13" d="M495.9 143.6l-12.3 12v-12h12.3zM447.6 120.5h19.2v8.78h-19.2zM470 120.5h19v8.92h-19z"/><path class="cls-14" d="M483.1 155.3v-11a1 1 0 0 1 1-1H495M489 92.5h-17.3M489 98.7h-17.3M489 104.8h-17.3M489 110.9h-17.3M489 117.1h-41.9M489 135.5h-41.9M466.8 140.8h-19.7M465.9 129.7h-17.6a1 1 0 0 1-1-1v-7.5a1 1 0 0 1 1-1H466a1 1 0 0 1 1 1v7.5a1 1 0 0 1-1.1 1zM488.3 129.7h-17.6a1 1 0 0 1-1-1v-7.5a1 1 0 0 1 1-1h17.7a1 1 0 0 1 1 1v7.5a1 1 0 0 1-1.1 1z"/><path class="cls-14" d="M483.6 155.6H442a1 1 0 0 1-1-1V82a1 1 0 0 1 1-1h52.5a1 1 0 0 1 1 1v61.6a1 1 0 0 1-.3.7l-10.9 10.9a1 1 0 0 1-.7.4z"/><path class="cls-14" d="M467.3 88.2v12.4a9.6 9.6 0 0 1-19.3 0V82a7.8 7.8 0 0 1 15.5 0v16.3a5.5 5.5 0 0 1-11.1 0v-10"/></svg>