<svg xmlns="http://www.w3.org/2000/svg" viewBox="0 0 900 400"><title>c-910</title><path d="M95.78 50.81h2.45v11.13h-2.45zm4.37 3.07h2.1V55a2.88 2.88 0 0 1 2.46-1.34c2.35 0 2.95 1.33 2.95 3.32v5h-2.16v-4.59c0-1.33-.39-2-1.42-2-1.2 0-1.72.67-1.72 2.31v4.23h-2.21zm13.71 8.06h-2.46l-2.76-8.06H111l1.7 5.5 1.7-5.5h2.2zm7.56-8.28a4 4 0 0 1 4.18 4.26 4.17 4.17 0 1 1-8.34 0 4 4 0 0 1 4.16-4.26zm0 6.83c1.51 0 2-1.29 2-2.57s-.45-2.59-2-2.59-1.95 1.29-1.95 2.59.45 2.57 1.95 2.57zm7.89-7.86h-2.21v-1.82h2.21zm-2.21 1.25h2.21v8.06h-2.21zm9.45 2.84a1.51 1.51 0 0 0-1.64-1.39c-1.42 0-1.89 1.43-1.89 2.62s.45 2.54 1.84 2.54a1.7 1.7 0 0 0 1.76-1.64h2.14a3.6 3.6 0 0 1-3.88 3.31 3.91 3.91 0 0 1-4.07-4.16c0-2.51 1.5-4.37 4.12-4.37 1.9 0 3.65 1 3.79 3.06zm5.29 1.73c.06 1.4.75 2 2 2a1.82 1.82 0 0 0 1.75-1h1.95a3.63 3.63 0 0 1-3.77 2.71 3.94 3.94 0 0 1-4.12-4.24 4 4 0 0 1 4.12-4.26c2.74 0 4.07 2.31 3.91 4.79zm3.6-1.4c-.2-1.12-.69-1.72-1.76-1.72a1.75 1.75 0 0 0-1.84 1.67zM156 52.86h-3.34v-2.05h9.12v2.06h-3.34v9.08H156z" fill="#231f20"/><path d="M161.39 53.88h2.1v1.5a2.85 2.85 0 0 1 2.57-1.72 1.65 1.65 0 0 1 .48.08v2.06a4 4 0 0 0-.8-.08c-1.62 0-2.18 1.17-2.18 2.59v3.63h-2.21zm8.35-1.25h-2.21v-1.82h2.21zm-2.21 1.25h2.21v8.06h-2.21zm11.71 7.55c0 1.33-.47 3.57-4.18 3.57-1.59 0-3.45-.75-3.56-2.59h2.2a1.5 1.5 0 0 0 1.65 1.11c1.23 0 1.79-.84 1.78-2v-1.06a2.72 2.72 0 0 1-2.42 1.25c-2.42 0-3.45-1.84-3.45-4.05s1.2-4 3.46-4A2.51 2.51 0 0 1 177.1 55v-1.12h2.11zm-2.11-3.62c0-1.31-.45-2.48-1.89-2.48-1.25 0-1.79 1.09-1.79 2.29s.44 2.42 1.79 2.42a2 2 0 0 0 1.89-2.23zm11.63 3.62c0 1.33-.47 3.57-4.18 3.57-1.59 0-3.45-.75-3.56-2.59h2.2a1.5 1.5 0 0 0 1.65 1.11c1.23 0 1.79-.84 1.78-2v-1.06a2.72 2.72 0 0 1-2.42 1.25c-2.42 0-3.45-1.84-3.45-4.05s1.2-4 3.46-4a2.51 2.51 0 0 1 2.4 1.29v-1.07h2.11zm-2.11-3.62c0-1.31-.45-2.48-1.89-2.48-1.25 0-1.79 1.09-1.79 2.29s.44 2.42 1.79 2.42a2 2 0 0 0 1.9-2.23zm5.72.64c.06 1.4.75 2 2 2a1.82 1.82 0 0 0 1.75-1H198a3.63 3.63 0 0 1-3.77 2.71 3.94 3.94 0 0 1-4.12-4.24 4 4 0 0 1 4.12-4.26c2.74 0 4.07 2.31 3.91 4.79zM196 57c-.2-1.12-.69-1.72-1.76-1.72a1.75 1.75 0 0 0-1.87 1.72zm3.5-3.12h2.1v1.5a2.85 2.85 0 0 1 2.57-1.72 1.65 1.65 0 0 1 .48.08v2.06a4 4 0 0 0-.8-.08c-1.62 0-2.18 1.17-2.18 2.59v3.63h-2.17zm7.78 5.44c0 1 .83 1.36 1.7 1.36.64 0 1.45-.25 1.45-1s-.92-.9-2.51-1.25c-1.28-.28-2.56-.73-2.56-2.15 0-2.06 1.78-2.59 3.51-2.59s3.38.59 3.56 2.57h-2.1c-.06-.86-.72-1.09-1.51-1.09-.5 0-1.23.09-1.23.75s1.25.9 2.51 1.2 2.56.76 2.56 2.26c0 2.12-1.84 2.81-3.68 2.81s-3.7-.7-3.79-2.84z" fill="#231f20"/><path d="M133.28 132.91v-1.16h42.65a.73.73 0 0 0 .72-.72V96.86h-44.1V131a.73.73 0 0 0 .73.72v1.16a1.89 1.89 0 0 1-1.88-1.88V96.28a.58.58 0 0 1 .58-.58h45.26a.58.58 0 0 1 .58.58V131a1.89 1.89 0 0 1-1.89 1.89z" fill="#333"/><path d="M175.93 133.41h-43.14v-.05a2.39 2.39 0 0 1-1.89-2.36V96.28a1.08 1.08 0 0 1 1.1-1.08h45.26a1.08 1.08 0 0 1 1.08 1.08V131a2.39 2.39 0 0 1-2.41 2.41zm-42.15-1h42.15a1.39 1.39 0 0 0 1.39-1.39V96.28l-.08-.08H132l-.08.08V131a1.39 1.39 0 0 0 .89 1.29v-.18a1.23 1.23 0 0 1-.73-1.12V96.36h45.1V131a1.23 1.23 0 0 1-1.22 1.22h-42.17zm-.5-1.16h42.65a.23.23 0 0 0 .22-.23V97.36h-43.1V131a.23.23 0 0 0 .23.22z" fill="#231f20"/><path d="M163.69 88.93v-5.16a3.17 3.17 0 1 1 6.32 0v5.16a3.17 3.17 0 1 1-6.32 0zm1.16-5.16v5.16a2 2 0 1 0 4 0v-5.16a2 2 0 1 0-4 0z" fill="#333"/><path d="M166.86 92.88a3.84 3.84 0 0 1-3.67-3.95v-5.16a3.67 3.67 0 1 1 7.32 0v5.17a3.84 3.84 0 0 1-3.65 3.94zm-2.67-3.95a2.68 2.68 0 1 0 5.32 0v-5.16a2.68 2.68 0 1 0-5.32 0zm2.66 2.79a2.66 2.66 0 0 1-2.5-2.79v-5.17a2.51 2.51 0 1 1 5 0v5.17a2.66 2.66 0 0 1-2.49 2.79zm-1.5-7.95v5.16a1.52 1.52 0 1 0 3 0v-5.16a1.52 1.52 0 1 0-3 0z" fill="#231f20"/><path d="M139.2 88.93v-5.16a3.17 3.17 0 1 1 6.32 0v5.16a3.17 3.17 0 1 1-6.32 0zm1.16 0a2 2 0 1 0 4 0v-5.16a2 2 0 1 0-4 0z" fill="#333"/><path d="M142.37 92.88a3.84 3.84 0 0 1-3.67-3.95v-5.16a3.67 3.67 0 1 1 7.32 0v5.17a3.84 3.84 0 0 1-3.65 3.94zm-2.67-3.95a2.68 2.68 0 1 0 5.32 0v-5.16a2.68 2.68 0 1 0-5.32 0zm2.66 2.79a2.66 2.66 0 0 1-2.5-2.78v-5.17a2.51 2.51 0 1 1 5 0v5.17a2.66 2.66 0 0 1-2.5 2.78zm-1.5-2.79a1.52 1.52 0 1 0 3 0v-5.16a1.52 1.52 0 1 0-3 0z" fill="#231f20"/><path d="M147.75 108.42a1.33 1.33 0 0 1-1.33-1.33v-4.22a1.33 1.33 0 0 1 1.33-1.33H152a1.33 1.33 0 0 1 1.33 1.33v4.22a1.33 1.33 0 0 1-1.33 1.33zm-.17-5.55v4.22a.17.17 0 0 0 .17.17H152a.17.17 0 0 0 .17-.17v-4.22a.17.17 0 0 0-.17-.17h-4.22a.17.17 0 0 0-.19.16z" fill="#333"/><path d="M152 108.92h-4.23a1.84 1.84 0 0 1-1.83-1.83v-4.22a1.84 1.84 0 0 1 1.83-1.83H152a1.84 1.84 0 0 1 1.83 1.83v4.22a1.84 1.84 0 0 1-1.83 1.83zm-4.22-1H152a.84.84 0 0 0 .83-.83v-4.22a.84.84 0 0 0-.83-.87h-4.22a.84.84 0 0 0-.83.83v4.22a.84.84 0 0 0 .81.87zm4.22-.16h-4.22a.68.68 0 0 1-.67-.67v-4.22a.68.68 0 0 1 .67-.67H152a.68.68 0 0 1 .67.67v4.22a.68.68 0 0 1-.67.66zm-3.89-1h3.56v-3.56h-3.56z" fill="#231f20"/><path d="M157.24 108.42a1.33 1.33 0 0 1-1.33-1.33v-4.22a1.33 1.33 0 0 1 1.33-1.33h4.22a1.33 1.33 0 0 1 1.33 1.33v4.22a1.33 1.33 0 0 1-1.33 1.33zm-.17-5.55v4.22a.17.17 0 0 0 .17.17h4.22a.18.18 0 0 0 .17-.17v-4.22a.18.18 0 0 0-.17-.17h-4.22a.17.17 0 0 0-.17.16z" fill="#333"/><path d="M161.46 108.92h-4.23a1.84 1.84 0 0 1-1.83-1.83v-4.22a1.84 1.84 0 0 1 1.83-1.83h4.22a1.84 1.84 0 0 1 1.83 1.83v4.22a1.84 1.84 0 0 1-1.82 1.83zm-4.22-1h4.22a.84.84 0 0 0 .83-.83v-4.22a.84.84 0 0 0-.83-.83h-4.22a.84.84 0 0 0-.83.83v4.22a.84.84 0 0 0 .83.83zm4.22-.16h-4.22a.67.67 0 0 1-.67-.67v-4.22a.67.67 0 0 1 .67-.67h4.22a.68.68 0 0 1 .67.67v4.22a.68.68 0 0 1-.67.66zm-3.89-1h3.56v-3.56h-3.56z" fill="#231f20"/><path d="M166.72 108.42a1.33 1.33 0 0 1-1.33-1.33v-4.22a1.33 1.33 0 0 1 1.33-1.33h4.22a1.33 1.33 0 0 1 1.33 1.33v4.22a1.33 1.33 0 0 1-1.33 1.33zm-.17-5.55v4.22a.17.17 0 0 0 .17.17h4.22a.17.17 0 0 0 .17-.17v-4.22a.17.17 0 0 0-.17-.17h-4.22a.17.17 0 0 0-.16.16z" fill="#333"/><path d="M170.95 108.92h-4.22a1.84 1.84 0 0 1-1.83-1.83v-4.22a1.84 1.84 0 0 1 1.83-1.83h4.22a1.84 1.84 0 0 1 1.83 1.83v4.22a1.84 1.84 0 0 1-1.83 1.83zm-4.22-1h4.22a.84.84 0 0 0 .83-.83v-4.22a.84.84 0 0 0-.83-.83h-4.22a.83.83 0 0 0-.83.83v4.22a.83.83 0 0 0 .83.83zm4.22-.16h-4.22a.67.67 0 0 1-.67-.66v-4.23a.67.67 0 0 1 .66-.67h4.23a.67.67 0 0 1 .67.67v4.22a.67.67 0 0 1-.67.66zm-3.89-1h3.56v-3.56h-3.56z" fill="#231f20"/><path d="M147.75 117.54a1.33 1.33 0 0 1-1.33-1.33V112a1.33 1.33 0 0 1 1.33-1.33H152a1.33 1.33 0 0 1 1.33 1.33v4.22a1.33 1.33 0 0 1-1.33 1.33zm-.17-5.55v4.22a.17.17 0 0 0 .17.17H152a.18.18 0 0 0 .17-.17V112a.18.18 0 0 0-.17-.17h-4.22a.17.17 0 0 0-.19.17z" fill="#333"/><path d="M152 118h-4.22a1.84 1.84 0 0 1-1.83-1.83V112a1.84 1.84 0 0 1 1.83-1.83H152a1.84 1.84 0 0 1 1.83 1.83v4.22A1.84 1.84 0 0 1 152 118zm-4.22-1H152a.84.84 0 0 0 .83-.83V112a.84.84 0 0 0-.83-.83h-4.22a.84.84 0 0 0-.83.83v4.22a.84.84 0 0 0 .81.78zm4.22-.16h-4.22a.68.68 0 0 1-.67-.67V112a.68.68 0 0 1 .67-.67H152a.68.68 0 0 1 .67.67v4.22a.68.68 0 0 1-.67.65zm-3.89-1h3.56v-3.56h-3.56z" fill="#231f20"/><path d="M166.72 117.54a1.33 1.33 0 0 1-1.33-1.33V112a1.33 1.33 0 0 1 1.33-1.33h4.22a1.33 1.33 0 0 1 1.33 1.33v4.22a1.33 1.33 0 0 1-1.33 1.33zm-.17-5.55v4.22a.17.17 0 0 0 .17.17h4.22a.17.17 0 0 0 .17-.17V112a.17.17 0 0 0-.17-.17h-4.22a.17.17 0 0 0-.16.17z" fill="#333"/><path d="M170.95 118h-4.23a1.84 1.84 0 0 1-1.83-1.83V112a1.84 1.84 0 0 1 1.83-1.83h4.22a1.84 1.84 0 0 1 1.83 1.83v4.22a1.84 1.84 0 0 1-1.82 1.78zm-4.22-1h4.22a.84.84 0 0 0 .83-.83V112a.84.84 0 0 0-.83-.83h-4.22a.84.84 0 0 0-.83.83v4.22a.83.83 0 0 0 .83.78zm4.22-.16h-4.22a.67.67 0 0 1-.67-.67V112a.67.67 0 0 1 .67-.67h4.22a.67.67 0 0 1 .67.67v4.22a.67.67 0 0 1-.67.65zm-3.89-1h3.56v-3.56h-3.56z" fill="#231f20"/><path d="M157.24 117.54a1.33 1.33 0 0 1-1.33-1.33V112a1.33 1.33 0 0 1 1.33-1.33h4.22a1.34 1.34 0 0 1 1.34 1.33v4.22a1.33 1.33 0 0 1-1.33 1.33zm-.17-5.55v4.22a.17.17 0 0 0 .17.17h4.22a.17.17 0 0 0 .17-.17V112a.17.17 0 0 0-.17-.17h-4.22a.17.17 0 0 0-.17.17z" fill="#333"/><path d="M161.46 118h-4.22a1.84 1.84 0 0 1-1.83-1.83V112a1.84 1.84 0 0 1 1.83-1.83h4.22a1.84 1.84 0 0 1 1.84 1.83v4.22a1.84 1.84 0 0 1-1.84 1.78zm-4.22-1h4.22a.84.84 0 0 0 .83-.83V112a.84.84 0 0 0-.83-.83h-4.22a.84.84 0 0 0-.83.83v4.22a.84.84 0 0 0 .83.78zm4.22-.16h-4.22a.67.67 0 0 1-.67-.67V112a.67.67 0 0 1 .67-.67h4.22a.68.68 0 0 1 .67.67v4.22a.67.67 0 0 1-.67.65zm-3.89-1h3.56v-3.56h-3.56z" fill="#231f20"/><path d="M147.75 126.66a1.33 1.33 0 0 1-1.33-1.33v-4.23a1.33 1.33 0 0 1 1.33-1.33H152a1.33 1.33 0 0 1 1.33 1.33v4.22a1.33 1.33 0 0 1-1.33 1.33zm-.17-5.55v4.22a.17.17 0 0 0 .17.17H152a.17.17 0 0 0 .17-.17v-4.23a.17.17 0 0 0-.17-.17h-4.22a.17.17 0 0 0-.19.17z" fill="#333"/><path d="M152 127.16h-4.23a1.84 1.84 0 0 1-1.83-1.83v-4.23a1.84 1.84 0 0 1 1.83-1.83H152a1.84 1.84 0 0 1 1.83 1.83v4.22a1.84 1.84 0 0 1-1.83 1.84zm-4.22-1H152a.84.84 0 0 0 .83-.83v-4.23a.84.84 0 0 0-.83-.83h-4.22a.84.84 0 0 0-.83.83v4.22a.84.84 0 0 0 .81.84zM152 126h-4.22a.67.67 0 0 1-.67-.67v-4.23a.67.67 0 0 1 .67-.67H152a.68.68 0 0 1 .67.67v4.22a.68.68 0 0 1-.67.68zm-3.89-1h3.56v-3.56h-3.56z" fill="#231f20"/><path d="M157.24 126.66a1.33 1.33 0 0 1-1.33-1.33v-4.23a1.33 1.33 0 0 1 1.33-1.33h4.22a1.33 1.33 0 0 1 1.33 1.33v4.22a1.33 1.33 0 0 1-1.33 1.33zm-.17-5.55v4.22a.17.17 0 0 0 .17.17h4.22a.17.17 0 0 0 .17-.17v-4.23a.18.18 0 0 0-.17-.17h-4.22a.17.17 0 0 0-.17.17z" fill="#333"/><path d="M161.46 127.16h-4.23a1.84 1.84 0 0 1-1.83-1.83v-4.23a1.84 1.84 0 0 1 1.83-1.83h4.22a1.84 1.84 0 0 1 1.83 1.83v4.22a1.84 1.84 0 0 1-1.82 1.84zm-4.22-1h4.22a.84.84 0 0 0 .83-.83v-4.23a.84.84 0 0 0-.83-.83h-4.22a.84.84 0 0 0-.83.83v4.22a.84.84 0 0 0 .83.84zm4.22-.16h-4.22a.67.67 0 0 1-.67-.67v-4.23a.67.67 0 0 1 .67-.67h4.22a.68.68 0 0 1 .67.67v4.22a.68.68 0 0 1-.67.68zm-3.89-1h3.56v-3.56h-3.56z" fill="#231f20"/><path d="M138.27 117.54a1.34 1.34 0 0 1-1.33-1.33V112a1.33 1.33 0 0 1 1.33-1.33h4.22a1.33 1.33 0 0 1 1.33 1.33v4.22a1.33 1.33 0 0 1-1.33 1.33zm-.17-5.54v4.22a.18.18 0 0 0 .17.17h4.22a.18.18 0 0 0 .17-.17V112a.18.18 0 0 0-.17-.17h-4.22a.18.18 0 0 0-.17.17z" fill="#333"/><path d="M142.49 118h-4.23a1.84 1.84 0 0 1-1.83-1.83V112a1.84 1.84 0 0 1 1.83-1.83h4.22a1.84 1.84 0 0 1 1.83 1.83v4.22a1.84 1.84 0 0 1-1.82 1.78zm-4.22-1h4.22a.84.84 0 0 0 .83-.83V112a.84.84 0 0 0-.83-.83h-4.22a.84.84 0 0 0-.83.83v4.22a.84.84 0 0 0 .83.78zm0-.16a.67.67 0 0 1-.67-.67V112a.68.68 0 0 1 .67-.67h4.22a.68.68 0 0 1 .67.67v4.22a.67.67 0 0 1-.66.67zm.33-4.56v3.56h3.56v-3.56z" fill="#231f20"/><path d="M138.27 126.66a1.33 1.33 0 0 1-1.33-1.33v-4.23a1.33 1.33 0 0 1 1.33-1.33h4.22a1.33 1.33 0 0 1 1.33 1.33v4.22a1.33 1.33 0 0 1-1.33 1.33zm-.17-5.55v4.22a.18.18 0 0 0 .17.17h4.22a.17.17 0 0 0 .17-.17v-4.23a.17.17 0 0 0-.17-.17h-4.22a.18.18 0 0 0-.17.17z" fill="#333"/><path d="M142.49 127.16h-4.22a1.84 1.84 0 0 1-1.83-1.83v-4.23a1.84 1.84 0 0 1 1.83-1.83h4.22a1.84 1.84 0 0 1 1.83 1.83v4.22a1.84 1.84 0 0 1-1.83 1.84zm-4.22-1h4.22a.84.84 0 0 0 .83-.83v-4.23a.84.84 0 0 0-.83-.83h-4.22a.84.84 0 0 0-.83.83v4.22a.84.84 0 0 0 .83.84zm4.22-.16h-4.22a.68.68 0 0 1-.67-.67v-4.23a.68.68 0 0 1 .67-.67h4.22a.67.67 0 0 1 .67.67v4.22a.67.67 0 0 1-.67.68zm-3.89-1h3.56v-3.56h-3.56z" fill="#231f20"/><path d="M144.94 86.93a.58.58 0 1 1 0-1.16h19.33a.58.58 0 0 1 0 1.16z" fill="#333"/><path d="M164.27 87.43h-19.33a1.08 1.08 0 0 1 0-2.16h19.33a1.08 1.08 0 0 1 0 2.16zm-19.33-1.16a.08.08 0 0 0 0 .16h19.33a.08.08 0 0 0 0-.16z" fill="#231f20"/><path d="M132 96.86a.58.58 0 0 1-.58-.58v-8.63a1.89 1.89 0 0 1 1.89-1.89h6.5a.58.58 0 0 1 0 1.16h-6.5a.73.73 0 0 0-.73.73v8h44.1v-8a.73.73 0 0 0-.72-.73h-6.5a.58.58 0 0 1 0-1.16h6.5a1.89 1.89 0 0 1 1.89 1.89v8.62a.58.58 0 0 1-.58.58z" fill="#333"/><path d="M177.24 97.36H132a1.08 1.08 0 0 1-1.08-1.08v-8.63a2.39 2.39 0 0 1 2.39-2.39h6.5a1.08 1.08 0 0 1 0 2.16h-6.5a.23.23 0 0 0-.23.23v7.55h43.1v-7.55a.23.23 0 0 0-.23-.23h-6.5a1.08 1.08 0 0 1 0-2.16h6.5a2.39 2.39 0 0 1 2.39 2.39v8.62a1.08 1.08 0 0 1-1.08 1.08zm-44-11.09a1.39 1.39 0 0 0-1.39 1.39v8.62l.08.08h45.26l.08-.08v-8.63a1.39 1.39 0 0 0-1.39-1.39h-6.5a.08.08 0 0 0 0 .16h6.5a1.23 1.23 0 0 1 1.22 1.22v8.56H132v-8.55a1.23 1.23 0 0 1 1.22-1.23h6.5a.08.08 0 0 0 0-.16zm3.92 55.12a2.28 2.28 0 0 0-2.43-1.84c-2.06 0-2.94 1.7-2.94 3.51 0 2 .87 3.63 2.95 3.63a2.45 2.45 0 0 0 2.5-2.5h1.15a3.53 3.53 0 0 1-3.75 3.47c-2.69 0-4-2-4-4.51s1.43-4.56 4.1-4.56a3.32 3.32 0 0 1 3.57 2.81zm8.05 6.03a1.39 1.39 0 0 1-.74.17c-.53 0-.87-.29-.87-1a2.78 2.78 0 0 1-2.21 1c-1.14 0-2.07-.51-2.07-1.76 0-1.42 1.06-1.72 2.12-1.93s2.11-.15 2.11-.92-.74-1-1.4-1c-.87 0-1.52.27-1.56 1.19h-1c.06-1.55 1.26-2.1 2.66-2.1 1.13 0 2.35.25 2.35 1.72V146c0 .49 0 .7.33.7a.89.89 0 0 0 .32-.06zm-1.67-3.21a5.31 5.31 0 0 1-1.87.42c-.68.12-1.26.36-1.26 1.13s.58.92 1.21.92c1.36 0 1.92-.85 1.92-1.42zm2.69-5.43h1v8.66h-1zm7.98 6.67a2.53 2.53 0 0 1-2.68 2.13c-2 0-2.95-1.38-3-3.3a3 3 0 0 1 2.95-3.26c2.22 0 2.9 2.07 2.84 3.59h-4.69a1.85 1.85 0 0 0 2 2.06 1.51 1.51 0 0 0 1.63-1.23zm-1-1.75a1.8 1.8 0 0 0-1.81-1.77 1.79 1.79 0 0 0-1.8 1.77zm2.17-2.53h1v1a2.18 2.18 0 0 1 2-1.14c1.65 0 2.16.95 2.16 2.29v4.12h-1v-4.25a1.18 1.18 0 0 0-1.27-1.26 1.76 1.76 0 0 0-1.86 2v3.54h-1zm12.35 6.27h-1v-.85a2.11 2.11 0 0 1-2 1c-1.93 0-2.89-1.53-2.89-3.3s.95-3.26 2.86-3.26a2.4 2.4 0 0 1 2 1v-3.23h1zm-2.91-.76c1.38 0 1.92-1.19 1.92-2.37s-.56-2.38-2-2.38-1.88 1.2-1.88 2.43.62 2.32 1.96 2.32zm10.05.74a1.39 1.39 0 0 1-.74.17c-.53 0-.87-.29-.87-1a2.78 2.78 0 0 1-2.21 1c-1.14 0-2.07-.51-2.07-1.76 0-1.42 1.06-1.72 2.12-1.93s2.11-.15 2.11-.92-.74-1-1.4-1c-.87 0-1.52.27-1.56 1.19h-1c.06-1.55 1.26-2.1 2.66-2.1 1.13 0 2.35.25 2.35 1.72V146c0 .49 0 .7.33.7a.89.89 0 0 0 .32-.06zm-1.67-3.21a5.31 5.31 0 0 1-1.87.42c-.68.12-1.26.36-1.26 1.13s.58.92 1.21.92c1.36 0 1.92-.85 1.92-1.42zm2.59-3.04h1v1.32a2.28 2.28 0 0 1 2.3-1.47v1.09c-1.66 0-2.27.95-2.27 2.54v2.79h-1z" fill="#231f20"/><path d="M166.77 170.14a46.41 46.41 0 0 0-4.56-4.38H131.6v55.54h39.5v-46.54a47.07 47.07 0 0 0-4.32-4.62m4.26 4.81h-8.83v-9.19l8.83 9.19" fill="#fff"/><path d="M171.09 222.3H131.6l-1-1v-55.54l1-1h30.61c.53 0 .66 0 5.28 4.68s4.61 4.81 4.61 5.32v46.54zm-38.5-2h37.5v-44.35h-7.89l-1-1v-8.19h-28.6zm30.61-46.35h5.48l-5.48-5.71z" fill="#231f20"/><path d="M173.1 174.71a46.41 46.41 0 0 0-4.58-4.36l-30.61.12.21 55.54 39.5-.15-.18-46.54a47.07 47.07 0 0 0-4.34-4.6" fill="#fff"/><path d="M138.13 227l-1-1-.21-55.54 1-1 30.61-.12c.53 0 .66 0 5.29 4.66 4.63 4.65 4.63 4.78 4.63 5.31l.18 46.54-1 1zm.79-55.54l.21 53.54 37.5-.14-.17-45.24c-.3-.36-1.23-1.37-4-4.21s-3.82-3.76-4.18-4.06zm37.65 8.31zm-.12-.46zm-7.92-8zm-.47-.12z" fill="#231f20"/><path fill="#fff" d="M177.38 179.51l-8.83.03-.03-9.19 8.86 9.16"/><path d="M168.56 180.54l-1-1v-9.19l1.72-.7 8.86 9.16-.71 1.7zm1-7.71v5.71h5.48zm-31.5 65.34a2.28 2.28 0 0 0-2.43-1.84c-2.06 0-2.94 1.7-2.94 3.51 0 2 .87 3.63 2.95 3.63a2.45 2.45 0 0 0 2.5-2.5h1.15a3.52 3.52 0 0 1-3.75 3.47c-2.69 0-4-2-4-4.51s1.43-4.56 4.1-4.56a3.31 3.31 0 0 1 3.57 2.81zm5.2-.36a3.29 3.29 0 1 1-3 3.29 3 3 0 0 1 3-3.29zm0 5.65c1.08 0 2-.85 2-2.37s-.87-2.38-2-2.38-2 .85-2 2.38.92 2.37 2 2.37zm4.26-5.46h1v1a2.18 2.18 0 0 1 2-1.14c1.65 0 2.16.95 2.16 2.29v4.12h-1V240a1.18 1.18 0 0 0-1.27-1.26 1.76 1.76 0 0 0-1.86 2v3.54h-1zm8.17 0h1.25v.91h-1.25v3.89c0 .47.13.56.78.56h.47v.91h-.79c-1.07 0-1.49-.22-1.49-1.37v-4h-1.06v-.9h1.07v-1.88h1zm2.31 0h1v1.32a2.28 2.28 0 0 1 2.3-1.47v1.09c-1.66 0-2.27.95-2.27 2.54v2.79h-1zm9.68 6.2a1.39 1.39 0 0 1-.74.17c-.53 0-.87-.29-.87-1a2.78 2.78 0 0 1-2.21 1c-1.14 0-2.07-.51-2.07-1.76 0-1.42 1.06-1.72 2.12-1.93s2.11-.15 2.11-.92-.74-1-1.4-1c-.87 0-1.52.27-1.56 1.19h-1c.06-1.55 1.26-2.1 2.66-2.1 1.13 0 2.35.25 2.35 1.72v3.23c0 .49 0 .7.33.7a.88.88 0 0 0 .32-.06zM166 241a5.31 5.31 0 0 1-1.87.42c-.68.12-1.26.36-1.26 1.13s.58.92 1.21.92c1.36 0 1.92-.85 1.92-1.42zm6.89-1a1.46 1.46 0 0 0-1.55-1.25c-1.49 0-2 1.18-2 2.45s.52 2.29 1.83 2.29a1.62 1.62 0 0 0 1.72-1.53H174a2.61 2.61 0 0 1-2.77 2.44c-1.92 0-2.94-1.33-2.94-3.2s1-3.36 3-3.36A2.4 2.4 0 0 1 174 240zm3.69-2h1.25v.91h-1.25v3.89c0 .47.13.56.78.56h.47v.91H177c-1.07 0-1.49-.22-1.49-1.37v-4h-1.07v-.9h1.07v-1.88h1zm83.42-6.57h1.15v8.66H260zm2.94 2.39h1v1a2.18 2.18 0 0 1 2-1.14c1.65 0 2.16.95 2.16 2.29v4.12h-1v-4.25a1.18 1.18 0 0 0-1.27-1.26 1.76 1.76 0 0 0-1.86 2v3.54h-1zm9.57 6.27h-1.1l-2.33-6.27h1.15l1.76 5.23 1.71-5.23h1.08zm5.95-6.41a3.29 3.29 0 1 1-3 3.29 3 3 0 0 1 3-3.29zm0 5.65c1.08 0 2-.85 2-2.37s-.87-2.38-2-2.38-2 .85-2 2.38.92 2.37 2 2.37zm5.35-6.63h-1v-1.26h1zm-1 1.13h1v6.27h-1zm6.86 2.01a1.46 1.46 0 0 0-1.55-1.25c-1.49 0-2 1.18-2 2.45s.52 2.29 1.83 2.29a1.62 1.62 0 0 0 1.72-1.53h1.06a2.61 2.61 0 0 1-2.77 2.44c-1.92 0-2.94-1.33-2.94-3.2s1-3.36 3-3.36a2.4 2.4 0 0 1 2.71 2.16zm7.6 2.27a2.53 2.53 0 0 1-2.68 2.13c-2 0-2.95-1.38-3-3.3a3 3 0 0 1 2.95-3.26c2.22 0 2.9 2.07 2.84 3.59h-4.69a1.85 1.85 0 0 0 2 2.06 1.51 1.51 0 0 0 1.63-1.22zm-1-1.75a1.8 1.8 0 0 0-1.81-1.77 1.79 1.79 0 0 0-1.8 1.77zM307 234a1.89 1.89 0 0 0-2.15-1.77c-1 0-1.94.35-1.94 1.48s1.38 1.22 2.78 1.54 2.77.8 2.77 2.5-1.81 2.58-3.38 2.58c-1.94 0-3.58-.95-3.58-3.06h1.09c0 1.46 1.21 2.09 2.52 2.09 1 0 2.2-.33 2.2-1.58s-1.38-1.4-2.77-1.7-2.78-.7-2.78-2.29c0-1.76 1.56-2.54 3.14-2.54 1.77 0 3.12.84 3.19 2.74zm8 4.11a2.53 2.53 0 0 1-2.68 2.13c-2 0-2.95-1.38-3-3.3a3 3 0 0 1 2.95-3.26c2.22 0 2.9 2.07 2.84 3.59h-4.69a1.85 1.85 0 0 0 2 2.06 1.51 1.51 0 0 0 1.63-1.22zm-1-1.75a1.8 1.8 0 0 0-1.81-1.77 1.79 1.79 0 0 0-1.8 1.77zm2.18-2.54h1v1a2.18 2.18 0 0 1 2-1.14c1.65 0 2.16.95 2.16 2.29v4.12h-1v-4.25a1.18 1.18 0 0 0-1.27-1.26 1.76 1.76 0 0 0-1.86 2v3.54h-1zm8.18 0h1.25v.91h-1.25v3.89c0 .47.13.56.78.56h.47v.91h-.79c-1.07 0-1.49-.22-1.49-1.37v-4h-1.07v-.91h1.07v-1.88h1zm42.72-1.61h1.15v8.66h-1.15zm2.92 2.39h1v1a2.18 2.18 0 0 1 2-1.14c1.65 0 2.16.95 2.16 2.29v4.12h-1v-4.25a1.18 1.18 0 0 0-1.27-1.26 1.76 1.76 0 0 0-1.86 2v3.54h-1zm9.57 6.27h-1.1l-2.33-6.27h1.15l1.76 5.23 1.71-5.23h1.08zm5.94-6.42a3.29 3.29 0 1 1-3 3.29 3 3 0 0 1 3-3.29zm0 5.65c1.08 0 2-.85 2-2.37s-.87-2.38-2-2.38-2 .85-2 2.38.92 2.38 2 2.38zm5.35-6.63h-1v-1.26h1zm-1 1.13h1v6.27h-1zm6.86 2.01a1.46 1.46 0 0 0-1.55-1.25c-1.49 0-2 1.18-2 2.45s.52 2.29 1.83 2.29a1.62 1.62 0 0 0 1.72-1.53h1.06a2.61 2.61 0 0 1-2.77 2.44c-1.92 0-2.94-1.33-2.94-3.2s1-3.36 3-3.36a2.4 2.4 0 0 1 2.71 2.16zm7.61 2.27a2.53 2.53 0 0 1-2.68 2.13c-2 0-2.95-1.38-3-3.3a3 3 0 0 1 2.95-3.26c2.22 0 2.9 2.07 2.84 3.59h-4.69a1.85 1.85 0 0 0 2 2.06 1.51 1.51 0 0 0 1.63-1.22zm-1-1.75a1.8 1.8 0 0 0-1.81-1.77 1.79 1.79 0 0 0-1.8 1.77zm8.06-4.92h1.27l3.38 8.66h-1.27l-.95-2.61h-3.66l-1 2.61H408zm-.86 5.08h2.94l-1.44-4zm6.23-2.69h1v.85a2.11 2.11 0 0 1 2-1c1.93 0 2.89 1.53 2.89 3.3s-.95 3.26-2.86 3.26a2.4 2.4 0 0 1-2-1v3.24h-1zm2.91.76c-1.38 0-1.92 1.19-1.92 2.37s.56 2.38 2 2.38 1.88-1.2 1.88-2.43-.63-2.32-1.96-2.32zm4.33-.76h1v.85a2.11 2.11 0 0 1 2-1c1.93 0 2.89 1.53 2.89 3.3S429 241 427 241a2.4 2.4 0 0 1-2-1v3.24h-1zm2.91.76c-1.38 0-1.92 1.19-1.92 2.37s.56 2.38 2 2.38 1.88-1.2 1.88-2.43-.67-2.32-2.01-2.32zm4.16-.76h1v1.32a2.28 2.28 0 0 1 2.3-1.47v1.09c-1.66 0-2.27.95-2.27 2.54v2.79h-1zm6.57-.15a3.29 3.29 0 1 1-3 3.29 3 3 0 0 1 3-3.29zm0 5.65c1.08 0 2-.85 2-2.37s-.87-2.38-2-2.38-2 .85-2 2.38.92 2.38 2 2.38zm7.08.77h-1.1l-2.33-6.27h1.15l1.76 5.23 1.71-5.23H447zm8.59-1.99a2.53 2.53 0 0 1-2.68 2.13c-2 0-2.95-1.38-3-3.3a3 3 0 0 1 2.95-3.26c2.22 0 2.9 2.07 2.84 3.59h-4.7a1.85 1.85 0 0 0 2 2.06 1.51 1.51 0 0 0 1.63-1.22zm-1-1.75a1.81 1.81 0 0 0-1.81-1.77 1.79 1.79 0 0 0-1.8 1.77zm7.77 3.74h-1V240a2.11 2.11 0 0 1-2 1c-1.93 0-2.89-1.53-2.89-3.3s.95-3.26 2.86-3.26a2.4 2.4 0 0 1 2 1v-3.23h1zm-2.91-.76c1.38 0 1.92-1.19 1.92-2.37s-.56-2.38-2-2.38-1.88 1.2-1.88 2.43.62 2.32 1.96 2.32zm-66.8 6.66h1V250a2.11 2.11 0 0 1 2-1c1.93 0 2.89 1.53 2.89 3.3s-.95 3.26-2.86 3.26a2.4 2.4 0 0 1-2-1v.84h-1zm2.91 3.15c-1.38 0-1.92 1.19-1.92 2.37s.56 2.38 2 2.38 1.88-1.2 1.88-2.43-.62-2.32-1.96-2.32zm6.72 6.34c-.47 1.23-.9 1.67-1.82 1.67a2.07 2.07 0 0 1-.72-.11v-.95a2.11 2.11 0 0 0 .61.15.89.89 0 0 0 .85-.57l.42-1.07-2.49-6.24H398l1.83 5.13 1.76-5.13h1.09zm13.22-6.89a2.28 2.28 0 0 0-2.43-1.84c-2.06 0-2.94 1.7-2.94 3.51 0 2 .87 3.63 2.95 3.63a2.45 2.45 0 0 0 2.5-2.5h1.15a3.52 3.52 0 0 1-3.75 3.47c-2.69 0-4-2-4-4.51s1.43-4.56 4.1-4.56a3.31 3.31 0 0 1 3.57 2.81zm2.56-2.6h1v8.66h-1zm3.73 1.23h-1v-1.26h1zm-1 1.13h1v6.27h-1zm7.95 4.31a2.53 2.53 0 0 1-2.68 2.13c-2 0-2.95-1.38-3-3.3a3 3 0 0 1 2.95-3.26c2.22 0 2.9 2.07 2.84 3.59h-4.69a1.85 1.85 0 0 0 2 2.06 1.51 1.51 0 0 0 1.63-1.22zm-1-1.75a1.8 1.8 0 0 0-1.81-1.77 1.79 1.79 0 0 0-1.8 1.77zm2.16-2.53h1v1a2.18 2.18 0 0 1 2-1.14c1.65 0 2.16.95 2.16 2.29v4.12h-1v-4.25a1.18 1.18 0 0 0-1.27-1.26 1.76 1.76 0 0 0-1.86 2v3.54h-1zm8.18 0h1.2v.91h-1.2V254c0 .47.13.56.78.56h.42v.91h-.79c-1.07 0-1.49-.22-1.49-1.37v-4h-1.02v-.91h1.07v-1.88h1zm36.59-82.62l3.5-1.48a2.56 2.56 0 1 1 2 4.72l-2.44 1 1.38 3.27-1.06.45zm2.68 3.38l2.08-.88c1.2-.49 1.53-1.25 1.13-2.2s-1.17-1.23-2.36-.73l-2.08.88zm12.93-.57a1.39 1.39 0 0 1-.62.44c-.49.21-.92.07-1.18-.55a2.78 2.78 0 0 1-1.7 1.76c-1.05.44-2.11.34-2.6-.81-.55-1.31.3-2 1.21-2.6s1.89-1 1.59-1.67-1.09-.67-1.69-.42c-.81.34-1.29.84-1 1.7l-1 .4c-.55-1.45.35-2.42 1.63-3 1-.44 2.27-.68 2.84.67l1.26 3c.19.45.27.65.58.52a.89.89 0 0 0 .27-.18zm-2.83-2.35a5.3 5.3 0 0 1-1.56 1.12c-.58.38-1 .83-.72 1.53s.9.62 1.48.38c1.25-.53 1.44-1.53 1.21-2.05zm6.27 1.82c0 1.31-.18 1.89-1 2.25a2 2 0 0 1-.7.18l-.37-.87a2.1 2.1 0 0 0 .62-.1.89.89 0 0 0 .56-.86v-1.15l-4.72-4.78 1.07-.45 3.68 4-.37-5.41 1-.42zm.56-7.96l.89-.38.36.85a2.31 2.31 0 0 1 1.45-1.77 1.66 1.66 0 0 1 2 .31 2.32 2.32 0 0 1 1.4-1.75c1.15-.49 2.13-.33 2.63.87l1.79 4.24-1 .4-1.6-3.79c-.3-.72-.73-1.21-1.66-.81a1.52 1.52 0 0 0-.89 2.11l1.52 3.6-1 .4-1.6-3.79c-.32-.75-.78-1.19-1.63-.83a1.69 1.69 0 0 0-.92 2.13l1.52 3.6-1 .4zm16.13-2.15a2.53 2.53 0 0 1-1.64 3c-1.85.78-3.26-.13-4.06-1.87a3 3 0 0 1 1.45-4.15c2-.86 3.48.78 4 2.21l-4.33 1.83a1.85 1.85 0 0 0 2.6 1.14 1.51 1.51 0 0 0 1-1.76zm-1.6-1.22a1.81 1.81 0 0 0-2.36-.93 1.79 1.79 0 0 0-1 2.33zm1-3.18l.89-.38.39.92a2.18 2.18 0 0 1 1.44-1.84c1.52-.64 2.36 0 2.88 1.27l1.6 3.8-1 .4-1.65-3.91a1.18 1.18 0 0 0-1.66-.67 1.76 1.76 0 0 0-.95 2.53l1.38 3.27-1 .4zm7.54-3.18l1.15-.49.35.84-1.15.49 1.51 3.59c.18.44.34.46.93.21l.44-.18.35.84-.73.31c-1 .42-1.46.38-1.91-.68l-1.55-3.68-1 .42-.35-.84 1-.42-.73-1.73 1-.4zm4.53-4.51l3.76-1.59c1.5-.63 2.77-.21 3.31 1.07a2.08 2.08 0 0 1-.53 2.61c1-.21 1.48.39 1.89 1.14s.72 1.65 1.4 2l-1.18.5c-.44-.2-.63-1.13-1.12-1.85s-.91-1.32-1.94-.88l-2.59 1.09 1.44 3.41-1.06.45zm4.83 2.3c1-.42 1.74-1 1.25-2.2a1.37 1.37 0 0 0-2-.76l-2.68 1.11 1.17 2.78zm10.2-1.39a2.53 2.53 0 0 1-1.64 3c-1.84.78-3.25-.13-4.06-1.87a3 3 0 0 1 1.45-4.15c2-.86 3.48.78 4 2.21l-4.33 1.83a1.85 1.85 0 0 0 2.6 1.14 1.51 1.51 0 0 0 1-1.76zM533 146.3a1.81 1.81 0 0 0-2.35-.93 1.79 1.79 0 0 0-1 2.33zm5.74-2.97a1.46 1.46 0 0 0-1.92-.55c-1.38.58-1.34 1.84-.85 3s1.37 1.91 2.58 1.4a1.62 1.62 0 0 0 1-2.08l1-.41a2.61 2.61 0 0 1-1.6 3.32c-1.77.75-3.22-.09-4-1.81s-.41-3.48 1.42-4.25a2.41 2.41 0 0 1 3.33.94zm7.89-.87a2.53 2.53 0 0 1-1.64 3c-1.84.78-3.25-.13-4.06-1.87a3 3 0 0 1 1.45-4.15c2-.86 3.48.78 4 2.21l-4.33 1.83a1.85 1.85 0 0 0 2.6 1.14 1.51 1.51 0 0 0 1-1.76zm-1.6-1.22a1.81 1.81 0 0 0-2.35-.93 1.79 1.79 0 0 0-1 2.33zm1.57-4.64l-1 .4-.49-1.16 1-.4zm-.51 1.44l1-.4 2.44 5.78-1 .4zm7.47 3.66l-1 .43-4.56-4.88 1.06-.45 3.65 4.14-.46-5.48 1-.42zm7.14-5.17a2.53 2.53 0 0 1-1.64 3c-1.85.78-3.26-.13-4.06-1.87a3 3 0 0 1 1.45-4.15c2-.86 3.48.78 4 2.21l-4.33 1.83a1.85 1.85 0 0 0 2.6 1.14 1.51 1.51 0 0 0 1-1.76zm-1.6-1.22a1.81 1.81 0 0 0-2.36-.93 1.79 1.79 0 0 0-1 2.33zm8.61.42l-1 .4-.33-.78a2.11 2.11 0 0 1-1.46 1.7c-1.78.75-3.26-.29-3.94-1.92s-.4-3.38 1.37-4.12a2.4 2.4 0 0 1 2.25.12l-1.26-3 1-.4zm-3 .43c1.27-.54 1.3-1.84.85-2.93s-1.44-2-2.75-1.42-1.27 1.84-.79 3a2 2 0 0 0 2.71 1.35zm-73.4 96.06l1.13.46 1.56 8.23 2.66-6.5 1 .41-3.28 8-1.17-.48-1.56-8.15-2.65 6.46-1-.41zm9.61 6.36a3.29 3.29 0 1 1-4.07 1.89 3 3 0 0 1 4.07-1.89zm-2.14 5.24c1 .41 2.13 0 2.71-1.45s.09-2.53-.91-2.94-2.13 0-2.71 1.46-.09 2.51.91 2.92zm10.22-4.37l3.52 1.44a2.56 2.56 0 1 1-1.94 4.74l-2.45-1-1.34 3.28-1.07-.44zm-.51 4.28l2.09.86c1.2.5 2 .2 2.35-.75s.05-1.7-1.15-2.19l-2.09-.86zm9.51 8.74a1.39 1.39 0 0 1-.75-.12.82.82 0 0 1-.44-1.23 2.78 2.78 0 0 1-2.41.06c-1.06-.43-1.73-1.26-1.25-2.41.54-1.31 1.63-1.2 2.7-1s2 .67 2.3-.05-.29-1.25-.9-1.5c-.81-.33-1.51-.33-1.9.51l-1-.39c.64-1.41 2-1.47 3.26-.94 1 .43 2.08 1.13 1.53 2.49l-1.22 3c-.18.45-.27.65 0 .78a.9.9 0 0 0 .32.06zm-.33-3.61a5.29 5.29 0 0 1-1.89-.31c-.67-.14-1.31-.14-1.6.57s.19 1.07.77 1.31a1.68 1.68 0 0 0 2.31-.59zm3.15 5.7c-.9 1-1.47 1.21-2.32.86a2 2 0 0 1-.62-.37l.36-.88a2.11 2.11 0 0 0 .51.37.89.89 0 0 0 1-.21l.8-.83.06-6.72 1.08.44-.25 5.45 3.56-4.07 1 .41zm6.02-5.22l.9.37-.35.85a2.31 2.31 0 0 1 2.28-.22 1.67 1.67 0 0 1 1.19 1.64 2.32 2.32 0 0 1 2.22-.24c1.16.47 1.73 1.27 1.24 2.48l-1.74 4.26-1-.39 1.56-3.81c.29-.72.34-1.37-.59-1.75a1.52 1.52 0 0 0-2.12.86L529 257l-1-.39 1.56-3.81c.31-.75.29-1.39-.56-1.74a1.69 1.69 0 0 0-2.16.85l-1.48 3.62-1-.39zm12.91 9.92a2.53 2.53 0 0 1-3.29 1c-1.85-.76-2.21-2.4-1.54-4.19a3 3 0 0 1 4-1.9c2.06.84 1.9 3 1.27 4.4l-4.35-1.78a1.85 1.85 0 0 0 1 2.65 1.51 1.51 0 0 0 2-.52zm-.26-2a1.81 1.81 0 0 0-1-2.32 1.79 1.79 0 0 0-2.33 1zm2.96-1.53l.9.37-.35.9a2.19 2.19 0 0 1 2.32-.28c1.53.63 1.64 1.69 1.13 2.94l-1.56 3.82-1-.39 1.61-3.93a1.18 1.18 0 0 0-.7-1.65 1.76 1.76 0 0 0-2.46 1.12l-1.34 3.3-1-.39zm7.55 3.1l1.16.47-.34.84-1.16-.47-1.48 3.61c-.18.44-.09.57.51.81l.44.18-.34.84-.73-.3c-1-.4-1.3-.77-.86-1.83l1.51-3.7-1-.4.34-.84 1 .4.71-1.74 1 .39z" fill="#231f20"/><path d="M313.76 222.26h-42.53a2.31 2.31 0 0 1-2.31-2.31v-53.34a2.31 2.31 0 0 1 2.31-2.31h34.24a2.19 2.19 0 0 1 .45.09 1.11 1.11 0 0 1 .24.08 2.12 2.12 0 0 1 .61.37l8.5 7.24a2.28 2.28 0 0 1 .55.7 1.84 1.84 0 0 1 .1.23 2.2 2.2 0 0 1 .14.58v46.33a2.31 2.31 0 0 1-2.3 2.34zm-42.53-56a.31.31 0 0 0-.31.31v53.34a.31.31 0 0 0 .31.31h42.53a.31.31 0 0 0 .31-.31v-46.1a.28.28 0 0 0 0-.09.43.43 0 0 0-.07-.13l-8.79-7.32z" fill="#000f24"/><path d="M301.51 178.36a.66.66 0 0 0-1.31 0v1.32h-5v-1.32a.66.66 0 1 0-1.31 0v1.32h-8.68v-1.32a.66.66 0 0 0-1.31 0v1.32h-5.56v-1.32a.66.66 0 0 0-1.31 0v36.79a.66.66 0 1 0 1.31 0V214h5.56v1.16a.66.66 0 1 0 1.31 0V214h8.68v1.16a.66.66 0 1 0 1.31 0V214h5v1.16a.66.66 0 1 0 1.31 0V214h5.2v1.16a.66.66 0 1 0 1.31 0v-36.8a.66.66 0 1 0-1.31 0v1.32h-5.2zm-17.66 34.32h-5.56v-3.4h5.56zm0-4.71h-5.56v-3.41h5.56zm0-4.72h-5.56v-3.4h5.56zm0-4.71h-5.56v-3.41h5.56zm0-4.72h-5.56v-3.4h5.56zm0-4.72h-5.56v-3.4h5.56zm0-4.72h-5.56V181h5.56zm10 28.29h-8.68v-3.4h8.68zm0-4.71h-8.68v-3.41h8.68zm0-4.72h-8.68v-3.4h8.68zm0-4.71h-8.68v-3.41h8.68zm0-4.72h-8.68v-3.4h8.68zm0-4.72h-8.68v-3.4h8.68zm0-4.72h-8.68V181h8.68zm6.36 28.29h-5v-3.4h5zm0-4.71h-5v-3.41h5zm0-4.72h-5v-3.4h5zm0-4.71h-5v-3.41h5zm0-4.72h-5v-3.4h5zm0-4.72h-5v-3.4h5zm0-4.72h-5V181h5zm6.51 28.29h-5.2v-3.4h5.2zm0-4.71h-5.2v-3.41h5.2zm0-4.72h-5.2v-3.4h5.2zm0-4.71h-5.2v-3.41h5.2zm0-4.72h-5.2v-3.4h5.2zm0-4.72h-5.2v-3.4h5.2zm0-8.12v3.4h-5.2V181zm-28.43-6.41h19.23a1.31 1.31 0 1 0 0-2.62h-19.23a1.31 1.31 0 0 0 0 2.62z" fill="#000f24"/><path d="M633.29 277.47a23.37 23.37 0 1 1 23.37-23.37 23.39 23.39 0 0 1-23.37 23.37zm0-44.73a21.37 21.37 0 1 0 21.37 21.37 21.39 21.39 0 0 0-21.37-21.37z"/><path d="M633.3 260.93h-.3a3.37 3.37 0 0 1-3-3L628.66 244a4.66 4.66 0 0 1 4.21-5.06 4.67 4.67 0 0 1 5.06 4.2 5.21 5.21 0 0 1 0 .85l-1.28 13.83a3.37 3.37 0 0 1-3.35 3.06zm0-20h-.3a2.65 2.65 0 0 0-2.4 2.88l1.28 13.82a1.37 1.37 0 0 0 2.72 0l1.28-13.82a3 3 0 0 0 0-.49 2.66 2.66 0 0 0-2.59-2.32z"/><path d="M633.29 269.34a4.14 4.14 0 1 1 4.14-4.14 4.14 4.14 0 0 1-4.14 4.14zm0-6.28a2.14 2.14 0 1 0 2.14 2.14 2.14 2.14 0 0 0-2.14-2.14z"/><path d="M608.06 284.38h4.08c1.63 0 2.63.89 2.63 2.27a2.08 2.08 0 0 1-1.5 2.2c1 .19 1.21.93 1.3 1.78a4.44 4.44 0 0 0 .51 2.39h-1.29c-.33-.35-.15-1.29-.32-2.13s-.33-1.57-1.44-1.57h-2.81V293h-1.15zm3.55 4c1.08 0 2-.28 2-1.54a1.37 1.37 0 0 0-1.54-1.48h-2.86v3zm9.94 2.67a2.53 2.53 0 0 1-2.68 2.13c-2 0-2.95-1.38-3-3.3a3 3 0 0 1 2.95-3.26c2.22 0 2.9 2.07 2.84 3.59H617a1.85 1.85 0 0 0 2 2.06 1.51 1.51 0 0 0 1.63-1.22zm-1-1.75a1.8 1.8 0 0 0-3.6 0zm2.16-2.53h1v.92a2.31 2.31 0 0 1 2-1.07 1.66 1.66 0 0 1 1.72 1.07 2.32 2.32 0 0 1 2-1.07c1.25 0 2.09.52 2.09 1.82V293h-1v-4.11c0-.78-.21-1.4-1.21-1.4a1.52 1.52 0 0 0-1.64 1.6V293h-1v-4.11c0-.81-.25-1.4-1.18-1.4a1.69 1.69 0 0 0-1.67 1.6V293h-1zm11.44-1.13h-1v-1.26h1zm-1 1.13h1V293h-1zm2.6 0h1v1a2.18 2.18 0 0 1 2-1.14c1.65 0 2.16.95 2.16 2.29V293h-1v-4.25a1.18 1.18 0 0 0-1.27-1.26 1.76 1.76 0 0 0-1.86 2V293h-1zM648.1 293h-1v-.85a2.11 2.11 0 0 1-2 1c-1.93 0-2.89-1.53-2.89-3.3s.95-3.26 2.86-3.26a2.4 2.4 0 0 1 2 1v-3.23h1zm-2.91-.76c1.38 0 1.92-1.19 1.92-2.37s-.56-2.38-2-2.38-1.88 1.2-1.88 2.43.63 2.36 1.96 2.36zm9.81-1.19a2.53 2.53 0 0 1-2.68 2.13c-2 0-2.95-1.38-3-3.3a3 3 0 0 1 2.95-3.26c2.22 0 2.9 2.07 2.84 3.59h-4.69a1.85 1.85 0 0 0 2 2.06 1.51 1.51 0 0 0 1.63-1.22zm-1-1.75a1.8 1.8 0 0 0-3.6 0zm2.17-2.53h1v1.32a2.28 2.28 0 0 1 2.3-1.47v1.09c-1.66 0-2.27.95-2.27 2.54V293h-1zm-247.34-76.44c-2.37 0-4.29-2.17-4.37-2.27l-8.09-8.5a2.57 2.57 0 0 1-.41-3.69 19.19 19.19 0 0 1 2.13-2.16l.12-.11a10.35 10.35 0 0 1 1.21-1 2.62 2.62 0 0 1 3.4.35l.23.25c.2.22.44.48.62.69.78.92 2.45 2.68 4.73 5l.13-.2c1.78-2.76 6.1-9.45 8.17-12.61 4.76-7.27 11-11.23 14.55-9.22l1.13.64-.91.93s-3.78 3.91-10.86 16.39c-2.95 5.19-6.4 10.71-8 13.16a4.57 4.57 0 0 1-3.5 2.37zm-7.91-16.19a.74.74 0 0 0-.41.12 8.82 8.82 0 0 0-1 .81l-.12.11a17.92 17.92 0 0 0-1.9 1.91c-.22.28-.34.53.19 1l.06.06 8.15 8.56c.44.5 1.78 1.69 3 1.61a2.71 2.71 0 0 0 2-1.46c1.57-2.43 5-7.91 7.92-13.06a117.73 117.73 0 0 1 10.05-15.51c-2.6.16-6.89 3.27-10.54 8.84-2.07 3.16-6.38 9.84-8.16 12.6l-.22.34a1.89 1.89 0 0 1-1.39 1 1.68 1.68 0 0 1-1.37-.52c-1.73-1.73-4-4.06-5.09-5.33-.16-.19-.38-.42-.56-.62l-.26-.28a.53.53 0 0 0-.35-.19z" fill="#231f20"/><path d="M437.91 218.41h-48.85a1 1 0 0 1-1-1v-48.84a1 1 0 0 1 1-1h48.85a1 1 0 0 1 1 1v48.85a1 1 0 0 1-1 .99zm-47.85-2h46.85v-46.84h-46.85zm306.19 67.97h1.15V293h-1.15zm2.92 2.39h1v1a2.18 2.18 0 0 1 2-1.14c1.65 0 2.16.95 2.16 2.29V293h-1v-4.25a1.18 1.18 0 0 0-1.27-1.26 1.76 1.76 0 0 0-1.86 2V293h-1zm8.17 0h1.25v.91h-1.25v3.89c0 .47.13.56.78.56h.47v.87h-.79c-1.07 0-1.49-.22-1.49-1.37v-4h-1.07v-.91h1.07v-1.88h1zm7.74 4.28a2.53 2.53 0 0 1-2.68 2.13c-2 0-2.95-1.38-3-3.3a3 3 0 0 1 2.95-3.26c2.22 0 2.9 2.07 2.84 3.59h-4.69a1.85 1.85 0 0 0 2 2.06 1.51 1.51 0 0 0 1.63-1.22zm-1-1.75a1.8 1.8 0 0 0-3.6 0zm2.13-2.53h1v1.32a2.28 2.28 0 0 1 2.3-1.47v1.09c-1.66 0-2.27.95-2.27 2.54V293h-1zm9.21 4.28a2.53 2.53 0 0 1-2.68 2.13c-2 0-2.95-1.38-3-3.3a3 3 0 0 1 2.95-3.26c2.22 0 2.9 2.07 2.84 3.59h-4.69a1.85 1.85 0 0 0 2 2.06 1.51 1.51 0 0 0 1.63-1.22zm-1-1.75a1.8 1.8 0 0 0-3.6 0zm2.79 1.76c0 .92.84 1.21 1.69 1.21.64 0 1.52-.15 1.52-.93s-1-.93-2-1.17-2-.57-2-1.77 1.25-1.78 2.34-1.78c1.38 0 2.49.44 2.57 2h-1c-.07-.8-.78-1.06-1.46-1.06s-1.33.17-1.33.8 1.09.86 2 1.09 2 .57 2 1.78c0 1.49-1.39 2-2.67 2s-2.6-.57-2.66-2.12zm6.87-4.29h1.25v.91h-1.25v3.89c0 .47.13.56.78.56h.47v.87h-.79c-1.07 0-1.49-.22-1.49-1.37v-4H732v-.91h1v-1.88h1zm-34.76 14.77a2.28 2.28 0 0 0-2.43-1.84c-2.06 0-2.94 1.7-2.94 3.51 0 2 .87 3.63 2.95 3.63a2.45 2.45 0 0 0 2.5-2.5h1.15a3.53 3.53 0 0 1-3.75 3.47c-2.69 0-4-2-4-4.51s1.43-4.56 4.1-4.56a3.31 3.31 0 0 1 3.57 2.81zm2.49-2.6h1v3.31a2.12 2.12 0 0 1 2-1.07c1.65 0 2.16.95 2.16 2.29v4.12h-1v-4.25a1.18 1.18 0 0 0-1.27-1.26 1.76 1.76 0 0 0-1.86 2v3.54h-1zm12.3 8.63a1.39 1.39 0 0 1-.74.17c-.53 0-.87-.29-.87-1a2.78 2.78 0 0 1-2.21 1c-1.14 0-2.07-.51-2.07-1.76 0-1.42 1.06-1.72 2.12-1.93s2.11-.15 2.11-.92-.74-1-1.39-1c-.87 0-1.52.27-1.57 1.19h-1c.06-1.55 1.26-2.1 2.66-2.1 1.13 0 2.35.25 2.35 1.72v3.23c0 .49 0 .7.33.7a.88.88 0 0 0 .32-.06zm-1.67-3.21a5.31 5.31 0 0 1-1.87.42c-.68.12-1.26.36-1.26 1.13s.58.92 1.21.92c1.36 0 1.92-.85 1.92-1.42zm2.56-3.03h1v1.32a2.28 2.28 0 0 1 2.3-1.47v1.09c-1.66 0-2.27.95-2.27 2.54v2.79h-1zm9.18 5.73c0 2-.93 3.08-2.91 3.08-1.18 0-2.54-.47-2.6-1.84h1c0 .75.95 1 1.63 1 1.35 0 1.88-1 1.88-2.38v-.41a2.09 2.09 0 0 1-2 1.14c-1.87 0-2.8-1.47-2.8-3.18 0-1.48.73-3.31 2.9-3.31a2 2 0 0 1 1.87 1v-.9h1zm-1-2.73c0-1.1-.49-2.25-1.78-2.25s-1.86 1.08-1.86 2.28.41 2.39 1.77 2.39 1.85-1.24 1.85-2.42zm7.9 1.28a2.53 2.53 0 0 1-2.68 2.13c-2 0-2.95-1.38-3-3.3a3 3 0 0 1 2.95-3.26c2.22 0 2.9 2.07 2.84 3.59h-4.69a1.85 1.85 0 0 0 2 2.06 1.51 1.51 0 0 0 1.63-1.22zm-1-1.75a1.8 1.8 0 0 0-3.6 0zm7.77 3.74h-1v-.85a2.11 2.11 0 0 1-2 1c-1.93 0-2.89-1.53-2.89-3.3s.95-3.26 2.86-3.26a2.4 2.4 0 0 1 2 1v-3.23h1zm-2.91-.76c1.38 0 1.92-1.19 1.92-2.37s-.56-2.38-2-2.38-1.88 1.2-1.88 2.43.63 2.31 1.96 2.31zm-33.45-49.03a11.27 11.27 0 0 1-4.56-.94 11.65 11.65 0 0 1-3.71-2.56 12.22 12.22 0 0 1-2.48-3.76 12.16 12.16 0 0 1 0-9.28 12.37 12.37 0 0 1 2.48-3.79 11.43 11.43 0 0 1 16.51 0 12.39 12.39 0 0 1 2.48 3.79 12.17 12.17 0 0 1 0 9.28 12.24 12.24 0 0 1-2.49 3.76 11.69 11.69 0 0 1-3.69 2.56 11.19 11.19 0 0 1-4.54.94zm0-21.85a9.27 9.27 0 0 0-3.76.77 9.59 9.59 0 0 0-3.07 2.13 10.38 10.38 0 0 0-2.08 3.18 9.88 9.88 0 0 0-.76 3.87 9.77 9.77 0 0 0 .76 3.85 10.25 10.25 0 0 0 2.08 3.15 9.66 9.66 0 0 0 3.07 2.12 9.55 9.55 0 0 0 7.5 0 9.69 9.69 0 0 0 3.06-2.12 10.25 10.25 0 0 0 2.08-3.15 9.8 9.8 0 0 0 .76-3.85 9.9 9.9 0 0 0-.76-3.87 10.39 10.39 0 0 0-2.08-3.18 9.63 9.63 0 0 0-3.06-2.13 9.19 9.19 0 0 0-3.74-.73zm27.96 40.65a11.19 11.19 0 0 1-4.55-.94 11.73 11.73 0 0 1-3.69-2.56 12.19 12.19 0 0 1-2.49-3.78 12.2 12.2 0 0 1 0-9.29 12.17 12.17 0 0 1 2.49-3.78 11.72 11.72 0 0 1 3.69-2.56 11.54 11.54 0 0 1 9.1 0 11.9 11.9 0 0 1 3.7 2.55 12.1 12.1 0 0 1 2.5 3.78 12.21 12.21 0 0 1 0 9.29 12.11 12.11 0 0 1-2.5 3.78 11.89 11.89 0 0 1-3.7 2.55 11.17 11.17 0 0 1-4.55.96zm0-21.85a9.19 9.19 0 0 0-3.74.77 9.75 9.75 0 0 0-3.06 2.12 10.22 10.22 0 0 0-2.08 3.16 10.21 10.21 0 0 0 0 7.74 10.19 10.19 0 0 0 2.08 3.16 9.73 9.73 0 0 0 3.06 2.12 9.52 9.52 0 0 0 7.48 0 9.9 9.9 0 0 0 3.08-2.12 10.1 10.1 0 0 0 2.09-3.16 10.21 10.21 0 0 0 0-7.74 10.1 10.1 0 0 0-2.09-3.16 9.9 9.9 0 0 0-3.08-2.12 9.17 9.17 0 0 0-3.74-.77z" fill="#231f20"/><path d="M703.25 276.61h-8.71l26.27-34.3-7-5 21.71-6-1.63 20.41-7.39-5.3zm-4.66-2h3.67l23.78-31 6.09 4.37 1.12-14-14.92 4.13 5.31 3.81zm2.9-21.39a6.94 6.94 0 0 1-2.82-.58 7.15 7.15 0 0 1-2.28-1.58 7.51 7.51 0 0 1-1.53-2.31 7.48 7.48 0 0 1 0-5.71 7.59 7.59 0 0 1 1.53-2.33 7.05 7.05 0 0 1 10.18 0 7.57 7.57 0 0 1 1.52 2.33 7.47 7.47 0 0 1 0 5.71 7.51 7.51 0 0 1-1.53 2.31 7.2 7.2 0 0 1-2.27 1.57 6.89 6.89 0 0 1-2.8.59zm0-12.67a5 5 0 0 0-2 .41 5.13 5.13 0 0 0-1.65 1.14 5.62 5.62 0 0 0-1.12 1.72 5.31 5.31 0 0 0-.41 2.08 5.25 5.25 0 0 0 .41 2.07 5.53 5.53 0 0 0 1.12 1.7 5.18 5.18 0 0 0 1.65 1.14 5.1 5.1 0 0 0 4 0 5.23 5.23 0 0 0 1.65-1.14 5.49 5.49 0 0 0 1.12-1.7 5.24 5.24 0 0 0 .41-2.07 5.31 5.31 0 0 0-.41-2.08 5.6 5.6 0 0 0-1.12-1.72 5.17 5.17 0 0 0-1.64-1.14 4.84 4.84 0 0 0-2.01-.41z" fill="#231f20"/><path d="M729.47 272a7 7 0 0 1-2.81-.58 7.19 7.19 0 0 1-2.28-1.58 7.52 7.52 0 0 1-1.53-2.31 7.48 7.48 0 0 1 0-5.71 7.59 7.59 0 0 1 1.53-2.33 7 7 0 0 1 10.18 0 7.61 7.61 0 0 1 1.52 2.33 7.5 7.5 0 0 1 0 5.71 7.54 7.54 0 0 1-1.53 2.31 7.23 7.23 0 0 1-2.27 1.58 6.91 6.91 0 0 1-2.81.58zm0-12.67a5 5 0 0 0-2 .41 5.11 5.11 0 0 0-1.65 1.14 5.61 5.61 0 0 0-1.12 1.72 5.32 5.32 0 0 0-.41 2.08 5.2 5.2 0 0 0 .41 2.07 5.54 5.54 0 0 0 1.12 1.7 5.2 5.2 0 0 0 1.65 1.14 5.13 5.13 0 0 0 4 0 5.24 5.24 0 0 0 1.65-1.14 5.56 5.56 0 0 0 1.12-1.7 5.19 5.19 0 0 0 .41-2.07 5.33 5.33 0 0 0-.41-2.08 5.61 5.61 0 0 0-1.12-1.72 5.16 5.16 0 0 0-1.64-1.14 4.91 4.91 0 0 0-2.01-.39zm61.38 25.05h1.27l3.38 8.66h-1.27l-.95-2.61h-3.66l-1 2.61h-1.19zm-.86 5.08h2.94l-1.44-4z" fill="#231f20"/><path d="M798.78 284.17h.89l-3.59 9.07h-.89zm1.61.21h4.08c1.63 0 2.63.89 2.63 2.27a2.08 2.08 0 0 1-1.5 2.2c1 .19 1.21.93 1.3 1.78a4.44 4.44 0 0 0 .51 2.39h-1.29c-.33-.35-.15-1.29-.32-2.13s-.33-1.57-1.44-1.57h-2.81V293h-1.15zm3.55 4c1.08 0 2-.28 2-1.54a1.37 1.37 0 0 0-1.54-1.48h-2.86v3zm-27.35 10.56h4.08c1.63 0 2.63.89 2.63 2.27a2.08 2.08 0 0 1-1.5 2.2c1 .19 1.21.93 1.3 1.78a4.44 4.44 0 0 0 .51 2.39h-1.29c-.33-.35-.15-1.29-.32-2.13s-.33-1.57-1.44-1.57h-2.81v3.7h-1.15zm3.55 4c1.08 0 2-.28 2-1.54a1.37 1.37 0 0 0-1.54-1.48h-2.86v3zm9.94 2.67a2.53 2.53 0 0 1-2.68 2.13c-2 0-2.95-1.38-3-3.3a3 3 0 0 1 2.95-3.26c2.22 0 2.9 2.07 2.84 3.59h-4.69a1.85 1.85 0 0 0 2 2.06 1.51 1.51 0 0 0 1.63-1.22zm-1-1.75a1.8 1.8 0 0 0-3.6 0zm2.79 1.76c0 .92.84 1.21 1.69 1.21.64 0 1.52-.15 1.52-.93s-1-.93-2-1.17-2-.57-2-1.77 1.25-1.78 2.34-1.78c1.38 0 2.49.44 2.57 2h-1c-.07-.8-.78-1.06-1.46-1.06s-1.33.17-1.33.8 1.09.86 2 1.09 2 .57 2 1.78c0 1.49-1.39 2-2.67 2s-2.6-.57-2.66-2.12zm10.79-.01a2.53 2.53 0 0 1-2.68 2.13c-2 0-2.95-1.38-3-3.3a3 3 0 0 1 2.95-3.26c2.22 0 2.9 2.07 2.84 3.59h-4.69a1.85 1.85 0 0 0 2 2.06 1.51 1.51 0 0 0 1.63-1.22zm-1-1.75a1.8 1.8 0 0 0-3.6 0zm2.13-2.53h1v1.32a2.28 2.28 0 0 1 2.3-1.47v1.09c-1.66 0-2.27.95-2.27 2.54v2.79h-1zm6.9 6.27h-1.1l-2.33-6.27h1.15l1.76 5.23 1.71-5.23H813zm8.59-1.99a2.53 2.53 0 0 1-2.68 2.13c-2 0-2.95-1.38-3-3.3a3 3 0 0 1 2.95-3.26c2.22 0 2.9 2.07 2.84 3.59h-4.69a1.85 1.85 0 0 0 2 2.06 1.51 1.51 0 0 0 1.63-1.22zm-1-1.75a1.8 1.8 0 0 0-3.6 0zM816.71 235h-38.12a3.47 3.47 0 0 0-3.47 3.47v31.23a3.47 3.47 0 0 0 3.47 3.47h38.12a3.47 3.47 0 0 0 3.47-3.47v-31.19a3.47 3.47 0 0 0-3.47-3.51zm1.73 34.66a1.73 1.73 0 0 1-1.73 1.73h-38.12a1.73 1.73 0 0 1-1.73-1.73V268a.87.87 0 0 0 .87-.87v-7.8a.87.87 0 0 0-.87-.87v-8.66a.87.87 0 0 0 .87-.87v-7.8a.87.87 0 0 0-.87-.87v-1.73a1.73 1.73 0 0 1 1.73-1.73h38.12a1.73 1.73 0 0 1 1.73 1.73z" fill="#231f20"/><path d="M809.67 240.89a3.46 3.46 0 0 0-5.9 2.22l-2.34 2.34a8.63 8.63 0 0 0-10.89 2.86l-3.08-.83a3.47 3.47 0 1 0-1.34 5l2.87.77a8.68 8.68 0 0 0 8.38 8.63l.68 2.54a3.47 3.47 0 1 0 5-1.35l-.69-2.59a8.67 8.67 0 0 0 2.86-11.48l2.22-2.22a3.46 3.46 0 0 0 2.23-5.9zm-1.23 3.68a1.7 1.7 0 0 1-1.22.5h-.48l-3.74 3.71.4.59a6.93 6.93 0 0 1-2.44 10l-.6.33 1.23 4.6.34.18a1.71 1.71 0 0 1 .89 1.09 1.74 1.74 0 0 1-1.23 2.12 1.75 1.75 0 0 1-2.12-1.23 1.71 1.71 0 0 1 .23-1.39l.21-.32-1.23-4.58h-1.03a6.94 6.94 0 0 1-6.93-6.93v-.56l.06-.72-5-1.33-.32.21a1.72 1.72 0 0 1-2.61-1.89 1.76 1.76 0 0 1 2.12-1.23 1.71 1.71 0 0 1 1.09.89l.17.34 5 1.35.33-.57a6.91 6.91 0 0 1 9.48-2.48l.58.34 3.79-3.79v-.38a1.72 1.72 0 0 1 .5-1.32 1.77 1.77 0 0 1 2.45 0 1.73 1.73 0 0 1 0 2.45z" fill="#231f20"/><path d="M797.65 249.77a3.47 3.47 0 1 0 3.47 3.47 3.47 3.47 0 0 0-3.47-3.47zm0 5.2a1.73 1.73 0 1 1 1.73-1.73 1.73 1.73 0 0 1-1.73 1.76zm14.73-3.46a1.73 1.73 0 0 0-.87 3.23v2.84a.87.87 0 0 0 1.73 0v-2.84a1.73 1.73 0 0 0-.87-3.23zM619.76 153h3.8a2.56 2.56 0 1 1 0 5.12h-2.64v3.54h-1.15zm1.15 4.15h2.26c1.3 0 1.89-.56 1.89-1.59s-.59-1.59-1.89-1.59h-2.26zm12.09 4.46a1.39 1.39 0 0 1-.74.17c-.53 0-.87-.29-.87-1a2.78 2.78 0 0 1-2.21 1c-1.14 0-2.07-.51-2.07-1.76 0-1.42 1.06-1.72 2.12-1.93s2.11-.15 2.11-.92-.74-1-1.39-1c-.87 0-1.52.27-1.57 1.19h-1c.06-1.55 1.26-2.1 2.66-2.1 1.13 0 2.35.25 2.35 1.72v3.23c0 .49 0 .7.33.7a.89.89 0 0 0 .32-.06zm-1.67-3.21a5.31 5.31 0 0 1-1.87.42c-.68.12-1.26.36-1.26 1.13s.58.92 1.21.92c1.36 0 1.92-.85 1.92-1.42zm5.1 4.07c-.47 1.23-.9 1.67-1.82 1.67a2.05 2.05 0 0 1-.72-.11v-.95a2.11 2.11 0 0 0 .61.15.89.89 0 0 0 .85-.57l.42-1.07-2.49-6.23h1.17l1.83 5.13 1.76-5.13h1.09zm3.57-7.11h1v.92a2.31 2.31 0 0 1 2-1.07 1.66 1.66 0 0 1 1.72 1.07 2.32 2.32 0 0 1 2-1.07c1.25 0 2.09.52 2.09 1.82v4.6h-1v-4.11c0-.78-.21-1.4-1.21-1.4a1.52 1.52 0 0 0-1.64 1.6v3.91h-1v-4.11c0-.81-.25-1.4-1.18-1.4a1.69 1.69 0 0 0-1.67 1.6v3.91h-1zm15.73 4.28a2.53 2.53 0 0 1-2.68 2.13c-2 0-2.95-1.38-3-3.3a3 3 0 0 1 2.95-3.26c2.22 0 2.9 2.07 2.84 3.59h-4.69a1.85 1.85 0 0 0 2 2.06 1.51 1.51 0 0 0 1.63-1.23zm-1-1.75a1.8 1.8 0 0 0-3.6 0zm2.16-2.53h1v1a2.18 2.18 0 0 1 2-1.14c1.65 0 2.16.95 2.16 2.29v4.12h-1v-4.25a1.18 1.18 0 0 0-1.27-1.26 1.76 1.76 0 0 0-1.86 2v3.54h-1zm8.18 0h1.25v.91h-1.25v3.89c0 .47.13.56.78.56h.47v.91h-.79c-1.07 0-1.49-.22-1.49-1.37v-4H663v-.91h1v-1.88h1z" fill="#231f20"/><path d="M658.48 137.64H627a2.76 2.76 0 0 1-2.78-3.29l4.53-26.29a3.62 3.62 0 0 1 3.49-2.94h21a3.62 3.62 0 0 1 3.49 2.94l4.53 26.29a2.76 2.76 0 0 1-2.78 3.29zm-26.22-30.42a1.54 1.54 0 0 0-1.42 1.2l-4.54 26.28a.67.67 0 0 0 .71.84h31.47a.67.67 0 0 0 .71-.84l-4.53-26.29a1.54 1.54 0 0 0-1.42-1.2z" fill="#414042"/><path d="M649 133.45h-12.55a1 1 0 0 1-1-.75c-.3-1-2.11-2.2-4.34-2.41a1.05 1.05 0 0 1-.94-1.17l2.1-17.83a1 1 0 1 1 2.08.25l-2 16.82a7.2 7.2 0 0 1 4.76 3h11.23a7.2 7.2 0 0 1 4.76-3l-2-16.82a1 1 0 1 1 2.08-.25l2.1 17.83a1.05 1.05 0 0 1-.94 1.17c-2.23.21-4 1.41-4.34 2.41a1 1 0 0 1-1 .75z" fill="#414042"/><path d="M642.75 123c-4.12 0-7.34-2.3-7.34-5.24s3.23-5.24 7.34-5.24 7.34 2.3 7.34 5.24-3.23 5.24-7.34 5.24zm0-8.39c-2.84 0-5.24 1.44-5.24 3.15s2.4 3.15 5.24 3.15 5.24-1.44 5.24-3.15-2.4-3.2-5.24-3.2z" fill="#414042"/><path d="M660.58 98.83h-35.67a5.25 5.25 0 0 0-5.24 5.24v6.29a5.25 5.25 0 0 0 5.24 5.24h3.62l.36-2.1h-4a3.15 3.15 0 0 1-3.15-3.15v-6.29a3.15 3.15 0 0 1 3.15-3.15h35.67a3.15 3.15 0 0 1 3.15 3.15v6.29a3.15 3.15 0 0 1-3.15 3.15h-4l.36 2.1h3.62a5.25 5.25 0 0 0 5.24-5.24v-6.29a5.25 5.25 0 0 0-5.2-5.24zm.34 36.71h-.8a1.67 1.67 0 0 1-1.16 1l.23 1.32a.67.67 0 0 1-.71.84H627a.67.67 0 0 1-.71-.84l.23-1.32a1.67 1.67 0 0 1-1.16-1h-.8l-.34 2a2.76 2.76 0 0 0 2.78 3.29h31.47a2.76 2.76 0 0 0 2.78-3.29z" fill="#414042"/><path d="M660.92 138.69h-.8a1.67 1.67 0 0 1-1.16 1l.23 1.32a.67.67 0 0 1-.71.84H627a.67.67 0 0 1-.71-.84l.23-1.32a1.67 1.67 0 0 1-1.16-1h-.8l-.34 2a2.76 2.76 0 0 0 2.78 3.29h31.47a2.76 2.76 0 0 0 2.78-3.29z" fill="#414042"/><path d="M125.57 317.38h3c2.67 0 4.16 1.33 4.16 4.12s-1.27 4.54-4.16 4.54h-3zm1.15 7.69h1.92c.79 0 2.91-.22 2.91-3.41 0-2.06-.76-3.31-2.89-3.31h-1.94zm12.57-1.02a2.53 2.53 0 0 1-2.68 2.13c-2 0-2.95-1.38-3-3.3a3 3 0 0 1 2.95-3.26c2.22 0 2.9 2.07 2.84 3.59h-4.69a1.85 1.85 0 0 0 2 2.06 1.51 1.51 0 0 0 1.63-1.22zm-1-1.75a1.8 1.8 0 0 0-1.81-1.77 1.79 1.79 0 0 0-1.8 1.77zm2.22-4.92h1V326h-1zm3.73 1.26h-1v-1.26h1zm-1 1.13h1V326h-1zm5.43 6.23h-1.1l-2.33-6.27h1.15l1.76 5.23 1.71-5.23H151zm8.58-1.95a2.53 2.53 0 0 1-2.68 2.13c-2 0-2.95-1.38-3-3.3a3 3 0 0 1 2.95-3.26c2.22 0 2.9 2.07 2.84 3.59h-4.69a1.85 1.85 0 0 0 2 2.06 1.51 1.51 0 0 0 1.63-1.22zm-1-1.75a1.8 1.8 0 0 0-1.81-1.77 1.79 1.79 0 0 0-1.8 1.77zm2.13-2.53h1v1.32a2.28 2.28 0 0 1 2.3-1.47v1.09c-1.66 0-2.27.95-2.27 2.54V326h-1zM168 326a1.39 1.39 0 0 1-.74.17c-.53 0-.87-.29-.87-1a2.78 2.78 0 0 1-2.21 1c-1.14 0-2.07-.51-2.07-1.76 0-1.42 1.06-1.72 2.12-1.93s2.11-.15 2.11-.92-.74-1-1.4-1c-.87 0-1.52.27-1.56 1.19h-1c.06-1.55 1.26-2.1 2.66-2.1 1.13 0 2.35.25 2.35 1.72v3.23c0 .49 0 .7.33.7a.88.88 0 0 0 .32-.06zm-1.67-3.21a5.31 5.31 0 0 1-1.87.42c-.68.12-1.26.36-1.26 1.13s.58.92 1.21.92c1.36 0 1.92-.85 1.92-1.42zm2.67-5.41h1v3.24a2.11 2.11 0 0 1 2-1c1.93 0 2.89 1.53 2.89 3.3s-.95 3.26-2.86 3.26a2.4 2.4 0 0 1-2-1v.82h-1zm2.91 3.15c-1.38 0-1.92 1.19-1.92 2.37s.56 2.38 2 2.38 1.88-1.2 1.88-2.43-.62-2.32-1.95-2.32zm4.31-3.15h1V326h-1zm7.99 6.67a2.53 2.53 0 0 1-2.68 2.13c-2 0-2.95-1.38-3-3.3a3 3 0 0 1 2.95-3.26c2.22 0 2.9 2.07 2.84 3.59h-4.69a1.85 1.85 0 0 0 2 2.06 1.51 1.51 0 0 0 1.63-1.22zm-1-1.75a1.8 1.8 0 0 0-1.81-1.77 1.79 1.79 0 0 0-1.8 1.77z" fill="#231f20"/><path fill="#282525" d="M172.44 272.99h13.85v-2.53h-15.03m4.71 10.1h6.53v-2.52h-7.7"/><path d="M178.39 293.91l-1.39-1.44a3.42 3.42 0 0 0 .73-3.91l-4.73-10.1 1.81-.85 4.71 10.1a5.42 5.42 0 0 1-1.13 6.2z" fill="#282525"/><path fill="#282525" d="M172.84 295.71h12.58v-2.52h-7.73m-21.09 10.1h17.46v-2.53h-12.05m-21.66 10.1h45.07v-2.52h-39.65l-5.42 2.52zm10.46-19.68a7.21 7.21 0 0 1-2.23-.35l-25-8.12.62-1.9 25 8.12a5.18 5.18 0 0 0 3.77-.22 4.67 4.67 0 0 0 2.47-2.62l8.65-23.63 1.88.69-8.65 23.63a6.65 6.65 0 0 1-3.51 3.75 7.17 7.17 0 0 1-3 .65z"/><path fill="#282525" d="M136.417 311.105l8.992-22.166 1.853.752-8.992 22.165zm20.469-25.243l.728-1.863 21.449 8.389-.729 1.862z"/><path d="M138 312.5a5.43 5.43 0 0 1-4.92-3.13l-10.67-22.89a5.42 5.42 0 0 1 2.62-7.2l36.62-17.07a5.42 5.42 0 0 1 7.2 2.62l6 12.79-1.81.85-6-12.79a3.42 3.42 0 0 0-4.54-1.65l-36.6 17.06a3.42 3.42 0 0 0-1.65 4.54l10.67 22.89a3.42 3.42 0 0 0 4.54 1.65l.47-.22 37.34-17.67.86 1.81L140.31 312a5.4 5.4 0 0 1-2.31.5z" fill="#282525"/><path fill="#231f20" d="M192.459 267.884l46.156-26.993 1.01 1.727-46.157 26.993z"/><path fill="#231f20" d="M241.01 249.31l7.4-12.99-14.95.08 7.55 12.91zm220.96-36.516l.768-1.846 121.706 50.611-.768 1.847z"/><path fill="#231f20" d="M579.15 268.52l14.83-1.93-9.09-11.88-5.74 13.81zm-117.195-82.191l121.715-50.59.768 1.847-121.715 50.59z"/><path fill="#231f20" d="M584.89 144.41l9.09-11.88-14.83-1.93 5.74 13.81zm-390.837-18.004l1-1.72 45.984 26.735-1 1.72z"/><path fill="#231f20" d="M236.46 157.71l14.96.08-7.41-13-7.55 12.92zm-44.001 110.174l46.156-26.993 1.01 1.727-46.157 26.993z"/><path fill="#231f20" d="M241.01 249.31l7.4-12.99-14.95.08 7.55 12.91zm-48.14-50.9h42.01v2h-42.01z"/><path fill="#231f20" d="M232.69 206.89l12.95-7.48-12.95-7.48v14.96zm95.41-9.35h32.33v2H328.1z"/><path fill="#231f20" d="M358.24 206.02l12.95-7.48-12.95-7.48v14.96zm307.16 50.56h5.63v2h-5.63z"/><path fill="#231f20" d="M668.84 265.06l12.96-7.48-12.96-7.48v14.96zm82.27-8.48h5.63v2h-5.63z"/><path fill="#231f20" d="M754.55 265.06l12.95-7.48-12.95-7.48v14.96z"/></svg>