<svg id="Layer_1" data-name="Layer 1" xmlns="http://www.w3.org/2000/svg" viewBox="0 0 900 400"><defs><style>.cls-1{fill:#231f20}</style></defs><title>Artboard 1</title><path class="cls-1" d="M368.1 45.4h4.1V64h-4.1zM375.4 50.5h3.6v1.9h.1a4.8 4.8 0 0 1 4.1-2.2c3.9 0 4.9 2.2 4.9 5.6V64h-3.7v-7.6c0-2.2-.7-3.3-2.4-3.3s-2.9 1.1-2.9 3.9v7h-3.7zM398.4 64h-4.1l-4.6-13.5h3.9l2.8 9.2h.1l2.8-9.2h3.7zM411.1 50.2c4.3 0 7 2.8 7 7.1s-2.7 7.1-7 7.1-7-2.8-7-7.1 2.7-7.1 7-7.1zm0 11.4c2.5 0 3.3-2.2 3.3-4.3s-.8-4.3-3.3-4.3-3.3 2.2-3.3 4.3.8 4.3 3.3 4.3zM424.3 48.4h-3.7v-3h3.7zm-3.7 2.1h3.7V64h-3.7zM436.4 55.3a2.5 2.5 0 0 0-2.7-2.3c-2.4 0-3.2 2.4-3.2 4.4s.8 4.3 3.1 4.3a2.9 2.9 0 0 0 3-2.7h3.6c-.5 3.6-3 5.5-6.5 5.5a6.6 6.6 0 0 1-6.8-6.9c0-4.2 2.5-7.3 6.9-7.3s6.1 1.7 6.3 5.1zM445.3 58.2c.1 2.4 1.3 3.4 3.3 3.4a3.1 3.1 0 0 0 2.9-1.8h3.3a6.1 6.1 0 0 1-6.3 4.5c-4.3 0-6.9-2.9-6.9-7.1a6.8 6.8 0 0 1 6.9-7.1c4.6 0 6.8 3.9 6.6 8zm6-2.4c-.3-1.9-1.1-2.9-3-2.9a2.9 2.9 0 0 0-3.1 2.9zM469 48.8h-5.6v-3.4h15.3v3.4h-5.6V64H469z"/><path class="cls-1" d="M478 50.5h3.5V53h.1a4.8 4.8 0 0 1 4.3-2.9h.8v3.4h-1.3c-2.7 0-3.7 2-3.7 4.3V64H478zM492 48.4h-3.7v-3h3.7zm-3.7 2.1h3.7V64h-3.7zM507.9 63.2c0 2.2-.8 6-7 6-2.7 0-5.8-1.3-6-4.3h3.7a2.5 2.5 0 0 0 2.8 1.9c2.1 0 3-1.4 3-3.3v-1.9h-.1a4.6 4.6 0 0 1-4 2.1c-4 0-5.8-3.1-5.8-6.8s2-6.7 5.8-6.7a4.2 4.2 0 0 1 4 2.2h.1v-1.9h3.5zm-3.5-6.1c0-2.2-.8-4.2-3.2-4.2s-3 1.8-3 3.8.7 4 3 4 3.2-1.6 3.2-3.6zM523.9 63.2c0 2.2-.8 6-7 6-2.7 0-5.8-1.3-6-4.3h3.7a2.5 2.5 0 0 0 2.8 1.9c2.1 0 3-1.4 3-3.3v-1.9h-.1a4.6 4.6 0 0 1-4 2.1c-4 0-5.8-3.1-5.8-6.8s2-6.7 5.8-6.7a4.2 4.2 0 0 1 4 2.2h.1v-1.9h3.5zm-3.5-6.1c0-2.2-.8-4.2-3.2-4.2s-3 1.8-3 3.8.7 4 3 4 3.2-1.6 3.2-3.6zM529.9 58.2c.1 2.4 1.3 3.4 3.3 3.4a3.1 3.1 0 0 0 2.9-1.8h3.3a6.1 6.1 0 0 1-6.3 4.5c-4.3 0-6.9-2.9-6.9-7.1a6.8 6.8 0 0 1 6.9-7.1c4.6 0 6.8 3.9 6.6 8zm6-2.4c-.3-1.9-1.1-2.9-3-2.9a2.9 2.9 0 0 0-3.1 2.9zM541.9 50.5h3.5V53h.1a4.8 4.8 0 0 1 4.3-2.9h.8v3.4h-1.3c-2.7 0-3.7 2-3.7 4.3V64h-3.7zM554.9 59.7c0 1.6 1.4 2.3 2.8 2.3s2.4-.4 2.4-1.7-1.5-1.5-4.2-2.1-4.3-1.2-4.3-3.6 3-4.3 5.9-4.3 5.7 1 6 4.3H560c-.1-1.4-1.2-1.8-2.5-1.8s-2.1.2-2.1 1.3 2.1 1.5 4.2 2 4.3 1.3 4.3 3.8-3.1 4.7-6.2 4.7-6.2-1.2-6.3-4.8zM101.7 107.8h4.3a1.7 1.7 0 0 0 1.7-1.7v-4.3a1.7 1.7 0 0 0-1.7-1.7h-4.3a1.7 1.7 0 0 0-1.7 1.7v4.3a1.7 1.7 0 0 0 1.7 1.7zm.2-2V102h3.8v3.8zM111.2 107.8h4.3a1.7 1.7 0 0 0 1.7-1.7v-4.3a1.7 1.7 0 0 0-1.7-1.7h-4.3a1.7 1.7 0 0 0-1.7 1.7v4.3a1.7 1.7 0 0 0 1.7 1.7zm.2-2V102h3.8v3.8zM125 100.1h-4.3a1.7 1.7 0 0 0-1.7 1.7v4.2a1.7 1.7 0 0 0 1.7 1.7h4.3a1.7 1.7 0 0 0 1.7-1.7v-4.3a1.7 1.7 0 0 0-1.7-1.6zm-.2 2v3.8H121v-3.8zM105.9 109.3h-4.3a1.7 1.7 0 0 0-1.7 1.7v4.3a1.7 1.7 0 0 0 1.7 1.7h4.3a1.7 1.7 0 0 0 1.7-1.7V111a1.7 1.7 0 0 0-1.7-1.7zm-.2 2v3.7h-3.8v-3.8zM125 109.3h-4.3a1.7 1.7 0 0 0-1.7 1.7v4.3a1.7 1.7 0 0 0 1.7 1.7h4.3a1.7 1.7 0 0 0 1.7-1.7V111a1.7 1.7 0 0 0-1.7-1.7zm-.2 2v3.7H121v-3.8zM115.5 109.3h-4.2a1.7 1.7 0 0 0-1.7 1.7v4.3a1.7 1.7 0 0 0 1.7 1.7h4.3a1.7 1.7 0 0 0 1.7-1.7V111a1.7 1.7 0 0 0-1.8-1.7zm-.2 2v3.7h-3.8v-3.8zM105.9 118.5h-4.3a1.7 1.7 0 0 0-1.7 1.7v4.3a1.7 1.7 0 0 0 1.7 1.7h4.3a1.7 1.7 0 0 0 1.7-1.7v-4.3a1.7 1.7 0 0 0-1.7-1.7zm-.2 2v3.8h-3.8v-3.8zM115.5 118.5h-4.3a1.7 1.7 0 0 0-1.7 1.7v4.3a1.7 1.7 0 0 0 1.7 1.7h4.3a1.7 1.7 0 0 0 1.7-1.7v-4.3a1.7 1.7 0 0 0-1.7-1.7zm-.2 2v3.8h-3.8v-3.8zM96.4 109.3h-4.3a1.7 1.7 0 0 0-1.7 1.7v4.3a1.7 1.7 0 0 0 1.7 1.7h4.3a1.7 1.7 0 0 0 1.7-1.7V111a1.7 1.7 0 0 0-1.7-1.7zm-.2 2v3.7h-3.9v-3.8zM96.4 118.5h-4.3a1.7 1.7 0 0 0-1.7 1.7v4.3a1.7 1.7 0 0 0 1.7 1.7h4.3a1.7 1.7 0 0 0 1.7-1.7v-4.3a1.7 1.7 0 0 0-1.7-1.7zm-.2 2v3.8h-3.9v-3.8z"/><path class="cls-1" d="M132.3 86.5a2.3 2.3 0 0 0-2.3-2.3h-5.6v-1.6a3.6 3.6 0 1 0-7.2 0v1.6H99.8v-1.6a3.6 3.6 0 1 0-7.2 0v1.6h-5.5a2.3 2.3 0 0 0-2.3 2.3v43.7a2.3 2.3 0 0 0 1.9 2.3H130a2.3 2.3 0 0 0 2.3-2.3v-35zm-45.5 43.7v-34h43.6v34a.3.3 0 0 1-.3.3h-43a.3.3 0 0 1-.3-.3zm11-42.4a1.6 1.6 0 1 1-3.2 0v-5.2a1.6 1.6 0 1 1 3.2 0zm-1.6 3.9a3.8 3.8 0 0 0 3.6-3.9v-1.6h17.5v1.6a3.6 3.6 0 1 0 7.2 0v-1.6h5.5a.3.3 0 0 1 .3.3v7.7H86.8v-7.7a.3.3 0 0 1 .3-.3h5.6v1.6a3.8 3.8 0 0 0 3.5 3.9zm26.3-6.5v2.6a1.6 1.6 0 1 1-3.2 0v-5.2a1.6 1.6 0 1 1 3.2 0zM131.3 179.7c0-.5 0-.7-4.7-5.4s-4.8-4.7-5.4-4.7h-1.1c-4.6-4.6-4.7-4.6-5.3-4.6H84.1l-1.1 1.1V222l1.1 1.1h5.5v3.7l1.1 1.1 39.8-.2 1.1-1.1zm-3.6-.9h-5.3v-5.6zm-10.8-9.2h-.9v-.9zm-31.8 51.3v-53.8h28.7v2.5H90.4l-1.1 1.1.2 50.1zm6.6 4.7l-.2-53.8h28.7v8.2l1.1 1.1h7.9l.2 44.5zM90.6 239a2.3 2.3 0 0 0-2.4-1.9c-2.1 0-3 1.7-3 3.5s.9 3.7 3 3.7a2.5 2.5 0 0 0 2.5-2.5h1.2a3.5 3.5 0 0 1-3.8 3.5c-2.7 0-4-2-4-4.5s1.4-4.6 4.1-4.6a3.3 3.3 0 0 1 3.6 2.8zM95.8 238.6a3.3 3.3 0 1 1-3.1 3.3 3 3 0 0 1 3.1-3.3zm0 5.7c1.1 0 2-.9 2-2.4s-.9-2.4-2-2.4-2 .9-2 2.4.9 2.4 2 2.4zM100.1 238.7h1v1a2.2 2.2 0 0 1 2.1-1.1c1.7 0 2.2 1 2.2 2.3v4.2h-1v-4.3a1.2 1.2 0 0 0-1.3-1.3 1.8 1.8 0 0 0-1.9 2v3.6h-1zM108.3 238.7h1.3v.9h-1.3v3.9c0 .5.1.6.8.6h.5v.9h-.8c-1.1 0-1.5-.2-1.5-1.4v-4h-1.1v-.9h1.1v-1.9h1zM110.7 238.7h1v1.3a2.3 2.3 0 0 1 2.3-1.5v1.1c-1.7 0-2.3 1-2.3 2.6v2.8h-1zM120.4 245l-.7.2c-.5 0-.9-.3-.9-1a2.8 2.8 0 0 1-2.2 1c-1.1 0-2.1-.5-2.1-1.8s1.1-1.7 2.1-1.9 2.1-.1 2.1-.9-.7-1.1-1.4-1.1-1.5.3-1.6 1.2h-1c.1-1.6 1.3-2.1 2.7-2.1s2.4.3 2.4 1.7v3.2c0 .5 0 .7.3.7h.3zm-1.7-3.2a5.3 5.3 0 0 1-1.9.4c-.7.1-1.3.4-1.3 1.1s.6.9 1.2.9 1.9-.9 1.9-1.4zM125.6 240.8a1.5 1.5 0 0 0-1.6-1.3c-1.5 0-2 1.2-2 2.5s.5 2.3 1.8 2.3a1.6 1.6 0 0 0 1.7-1.5h1.1a2.6 2.6 0 0 1-2.8 2.5c-1.9 0-3-1.3-3-3.2s1-3.4 3-3.4a2.4 2.4 0 0 1 2.7 2.2zM129.4 238.7h1.3v.9h-1.3v3.9c0 .5.1.6.8.6h.5v.9h-.8c-1.1 0-1.5-.2-1.5-1.4v-4h-1.1v-.9h1.1v-1.9h1zM219.8 225.6h1.2v8.7h-1.2zM222.7 228h1v1a2.2 2.2 0 0 1 2.1-1.1c1.7 0 2.2 1 2.2 2.3v4.2h-1V230a1.2 1.2 0 0 0-1.3-1.3 1.8 1.8 0 0 0-1.9 2v3.6h-1zM232.3 234.3h-1.1l-2.3-6.3h1.1l1.8 5.3 1.7-5.3h1.1zM238.3 227.9a3.3 3.3 0 1 1-3.1 3.3 3 3 0 0 1 3.1-3.3zm0 5.7c1.1 0 2-.9 2-2.4s-.9-2.4-2-2.4-2 .9-2 2.4.9 2.3 2 2.3zM243.7 226.9h-1v-1.3h1zm-1 1.1h1v6.3h-1zM249.6 230a1.5 1.5 0 0 0-1.6-1.3c-1.5 0-2 1.2-2 2.5s.5 2.3 1.8 2.3a1.6 1.6 0 0 0 1.7-1.5h1.1a2.6 2.6 0 0 1-2.8 2.5c-1.9 0-3-1.3-3-3.2s1-3.4 3-3.4a2.4 2.4 0 0 1 2.7 2.2zM257.3 232.3a2.5 2.5 0 0 1-2.7 2.1c-2 0-3-1.4-3-3.3a3 3 0 0 1 3-3.3c2.2 0 2.9 2.1 2.9 3.6h-4.7a1.9 1.9 0 0 0 2 2.1 1.5 1.5 0 0 0 1.6-1.2zm-1-1.8a1.8 1.8 0 0 0-1.8-1.8 1.8 1.8 0 0 0-1.8 1.8zM267 228.2a1.9 1.9 0 0 0-2.2-1.8c-1 0-2 .4-2 1.5s1.4 1.2 2.8 1.5 2.8.8 2.8 2.5-1.8 2.6-3.4 2.6-3.6-1-3.6-3.1h1.1c0 1.5 1.2 2.1 2.5 2.1s2.2-.3 2.2-1.6-1.4-1.4-2.8-1.7-2.8-.7-2.8-2.3 1.6-2.6 3.2-2.6 3.1.8 3.2 2.8zM275.1 232.3a2.5 2.5 0 0 1-2.7 2.1c-2 0-3-1.4-3-3.3a3 3 0 0 1 3-3.3c2.2 0 2.9 2.1 2.9 3.6h-4.7a1.9 1.9 0 0 0 2 2.1 1.5 1.5 0 0 0 1.6-1.2zm-1-1.8a1.8 1.8 0 0 0-1.8-1.8 1.8 1.8 0 0 0-1.8 1.8zM276.3 228h1v1a2.2 2.2 0 0 1 2.1-1.1c1.7 0 2.2 1 2.2 2.3v4.2h-1V230a1.2 1.2 0 0 0-1.3-1.3 1.8 1.8 0 0 0-1.9 2v3.6h-1zM284.5 228h1.3v.9h-1.3v3.9c0 .5.1.6.8.6h.5v.9h-.8c-1.1 0-1.5-.2-1.5-1.4v-4h-1.1v-.9h1.1v-1.9h1zM329.4 218h1.2v8.7h-1.2zM332.3 220.4h1v1a2.2 2.2 0 0 1 2.1-1.1c1.7 0 2.2 1 2.2 2.3v4.2h-1v-4.3a1.2 1.2 0 0 0-1.3-1.3 1.8 1.8 0 0 0-1.9 2v3.6h-1zM341.9 226.7h-1.1l-2.3-6.3h1.2l1.8 5.3 1.7-5.3h1.1zM347.9 220.3a3.3 3.3 0 1 1-3.1 3.3 3 3 0 0 1 3.1-3.3zm0 5.7c1.1 0 2-.9 2-2.4s-.9-2.4-2-2.4-2 .9-2 2.4.9 2.4 2 2.4zM353.3 219.3h-1V218h1zm-1 1.1h1v6.3h-1zM359.2 222.4a1.5 1.5 0 0 0-1.6-1.3c-1.5 0-2 1.2-2 2.5s.5 2.3 1.8 2.3a1.6 1.6 0 0 0 1.7-1.5h1.1a2.6 2.6 0 0 1-2.8 2.5c-1.9 0-3-1.3-3-3.2s1-3.4 3-3.4a2.4 2.4 0 0 1 2.7 2.2zM366.9 224.7a2.5 2.5 0 0 1-2.7 2.1c-2 0-3-1.4-3-3.3a3 3 0 0 1 3-3.3c2.2 0 2.9 2.1 2.9 3.6h-4.7a1.9 1.9 0 0 0 2 2.1 1.5 1.5 0 0 0 1.6-1.2zm-1-1.8a1.8 1.8 0 0 0-1.8-1.8 1.8 1.8 0 0 0-1.8 1.8zM374 218h1.3l3.4 8.7h-1.3l-1-2.6h-3.7l-1 2.6h-1.2zm-.9 5.1h3l-1.5-4.1zM379.4 220.4h1v.9a2.1 2.1 0 0 1 2-1c1.9 0 2.9 1.5 2.9 3.3s-1 3.3-2.9 3.3a2.4 2.4 0 0 1-2-1v3.3h-1zm2.9.8c-1.4 0-1.9 1.2-1.9 2.4s.6 2.4 2 2.4 1.9-1.2 1.9-2.4-.7-2.4-2-2.4zM386.6 220.4h1v.9a2.1 2.1 0 0 1 2-1c1.9 0 2.9 1.5 2.9 3.3s-1 3.3-2.9 3.3a2.4 2.4 0 0 1-2-1v3.3h-1zm2.9.8c-1.4 0-1.9 1.2-1.9 2.4s.6 2.4 2 2.4 1.9-1.2 1.9-2.4-.6-2.4-2-2.4zM393.8 220.4h1v1.3a2.3 2.3 0 0 1 2.3-1.5v1.1c-1.7 0-2.3 1-2.3 2.6v2.8h-1zM400.4 220.3a3.3 3.3 0 1 1-3.1 3.3 3 3 0 0 1 3.1-3.3zm0 5.7c1.1 0 2-.9 2-2.4s-.9-2.4-2-2.4-2 .9-2 2.4.9 2.4 2 2.4zM407.5 226.7h-1.1l-2.3-6.3h1.2l1.8 5.3 1.7-5.3h1.1zM416.2 224.7a2.5 2.5 0 0 1-2.7 2.1c-2 0-3-1.4-3-3.3a3 3 0 0 1 3-3.3c2.2 0 2.9 2.1 2.9 3.6h-4.7a1.9 1.9 0 0 0 2 2.1 1.5 1.5 0 0 0 1.6-1.2zm-1-1.8a1.8 1.8 0 0 0-1.8-1.8 1.8 1.8 0 0 0-1.8 1.8zM423 226.7h-1v-.9a2.1 2.1 0 0 1-2 1c-1.9 0-2.9-1.5-2.9-3.3s1-3.3 2.9-3.3a2.4 2.4 0 0 1 2 1V218h1zm-3-.7c1.4 0 1.9-1.2 1.9-2.4s-.6-2.4-2-2.4-1.9 1.2-1.9 2.4.7 2.4 2 2.4zM352.8 232.7h1v3.3a2.1 2.1 0 0 1 2-1c1.9 0 2.9 1.5 2.9 3.3s-1 3.3-2.9 3.3a2.4 2.4 0 0 1-2-1v.8h-1zm2.9 3.2c-1.4 0-1.9 1.2-1.9 2.4s.6 2.4 2 2.4 1.9-1.2 1.9-2.4-.6-2.5-2-2.5zM362.5 242.2c-.5 1.2-.9 1.7-1.8 1.7h-.7v-1h.6a.9.9 0 0 0 .9-.6l.4-1.1-2.5-6.3h1.2l1.8 5.2 1.8-5.2h1.1zM375.8 235.3a2.3 2.3 0 0 0-2.4-1.9c-2.1 0-3 1.7-3 3.5s.9 3.7 3 3.7a2.5 2.5 0 0 0 2.5-2.5h1.2a3.5 3.5 0 0 1-3.8 3.5c-2.7 0-4-2-4-4.5s1.4-4.6 4.1-4.6a3.3 3.3 0 0 1 3.6 2.8zM378.4 232.7h1v8.7h-1zM382.1 233.9h-1v-1.3h1zm-1 1.1h1v6.3h-1zM389.1 239.4a2.5 2.5 0 0 1-2.7 2.1c-2 0-3-1.4-3-3.3a3 3 0 0 1 3-3.3c2.2 0 2.9 2.1 2.9 3.6h-4.7a1.9 1.9 0 0 0 2 2.1 1.5 1.5 0 0 0 1.6-1.2zm-1-1.8a1.8 1.8 0 0 0-1.8-1.8 1.8 1.8 0 0 0-1.8 1.8zM390.3 235.1h1v1a2.2 2.2 0 0 1 2.1-1.1c1.7 0 2.2 1 2.2 2.3v4.2h-1v-4.3a1.2 1.2 0 0 0-1.3-1.3 1.8 1.8 0 0 0-1.9 2v3.6h-1zM398.5 235.1h1.3v.9h-1.3v3.9c0 .5.1.6.8.6h.5v.9h-.8c-1.1 0-1.5-.2-1.5-1.4v-4h-1.1v-.9h1.1v-1.9h1zM440.5 166.3l3.5-1.5a2.6 2.6 0 1 1 2 4.7l-2.5 1 1.4 3.3-1.1.5zm2.7 3.4l2.1-.9c1.2-.5 1.5-1.3 1.1-2.2s-1.2-1.2-2.4-.7l-2.1.9zM456.2 169.1l-.6.4c-.5.2-.9.1-1.2-.6a2.8 2.8 0 0 1-1.7 1.8c-1.1.4-2.1.3-2.6-.8s.3-2 1.2-2.6 1.9-1 1.6-1.7-1.1-.7-1.7-.4-1.3.8-1 1.7l-1 .4c-.6-1.5.3-2.4 1.6-3s2.3-.7 2.9.7l1.3 3c.2.4.3.7.6.5l.3-.2zm-2.8-2.3a5.3 5.3 0 0 1-1.6 1.1c-.6.4-1 .8-.7 1.5s.9.6 1.5.4 1.4-1.5 1.2-2.1zM459.7 168.6c0 1.3-.2 1.9-1 2.3l-.7.2-.4-.9h.6a.9.9 0 0 0 .6-.9V168l-4.7-4.8 1.1-.5 3.7 4-.4-5.4 1-.4zM460.3 160.5l.9-.4.4.9a2.3 2.3 0 0 1 1.5-1.8 1.7 1.7 0 0 1 2 .3 2.3 2.3 0 0 1 1.4-1.8c1.2-.5 2.1-.3 2.6.9l1.8 4.3-1 .4-1.6-3.8c-.3-.7-.7-1.2-1.7-.8a1.5 1.5 0 0 0-.9 2.1l1.5 3.6-1 .4-1.6-3.8c-.3-.8-.8-1.2-1.6-.8a1.7 1.7 0 0 0-.9 2.1l1.5 3.6-1 .4zM476.5 158.4a2.5 2.5 0 0 1-1.7 3c-1.9.8-3.3-.1-4.1-1.9a3 3 0 0 1 1.5-4.2c2.1-.9 3.5.8 4 2.2l-4.4 1.8a1.9 1.9 0 0 0 2.6 1.1 1.5 1.5 0 0 0 1-1.8zm-1.6-1.2a1.8 1.8 0 0 0-2.4-.9 1.8 1.8 0 0 0-1 2.3zM475.9 154l.9-.4.4.9a2.2 2.2 0 0 1 1.4-1.9c1.5-.6 2.4 0 2.9 1.3l1.6 3.8-1 .4-1.7-3.9a1.2 1.2 0 0 0-1.7-.7 1.8 1.8 0 0 0-1 2.5l1.4 3.3-1 .4zM483.5 150.8l1.2-.5.4.8-1.2.5 1.5 3.6c.2.4.3.5.9.2l.4-.2.4.8-.7.3c-1 .4-1.5.4-1.9-.7l-1.6-3.7-1 .4-.4-.8 1-.4-.7-1.7 1-.4zM488.1 146.2l3.8-1.6c1.5-.6 2.8-.2 3.3 1.1a2.1 2.1 0 0 1-.5 2.6c1-.2 1.5.4 1.9 1.1s.7 1.7 1.4 2l-1.2.5c-.4-.2-.6-1.1-1.1-1.9s-.9-1.3-2-.9l-2.6 1.1 1.4 3.4-1.1.5zm4.9 2.3c1-.4 1.7-1 1.3-2.2a1.4 1.4 0 0 0-2-.8l-2.7 1.1 1.2 2.8zM503.2 147.1a2.5 2.5 0 0 1-1.7 3c-1.9.8-3.3-.1-4.1-1.9a3 3 0 0 1 1.5-4.2c2.1-.9 3.5.8 4 2.2l-4.4 1.8a1.9 1.9 0 0 0 2.6 1.1 1.5 1.5 0 0 0 1-1.8zm-1.6-1.2a1.8 1.8 0 0 0-2.4-.9 1.8 1.8 0 0 0-1 2.3zM507.3 142.9a1.5 1.5 0 0 0-1.9-.6c-1.4.6-1.4 1.9-.9 3s1.4 1.9 2.6 1.4a1.6 1.6 0 0 0 1-2.1l1-.4a2.6 2.6 0 0 1-1.6 3.3c-1.8.8-3.2-.1-4-1.8s-.4-3.5 1.4-4.3a2.4 2.4 0 0 1 3.4.9zM515.3 142a2.5 2.5 0 0 1-1.7 3c-1.9.8-3.3-.1-4.1-1.9a3 3 0 0 1 1.5-4.1c2.1-.9 3.5.8 4 2.2l-4.4 1.8a1.9 1.9 0 0 0 2.6 1.1 1.5 1.5 0 0 0 1-1.8zm-1.6-1.2a1.8 1.8 0 0 0-2.4-.9 1.8 1.8 0 0 0-1 2.3zM515.2 136.1l-1 .4-.5-1.2 1-.4zm-.5 1.5l1-.4 2.5 5.8-1 .4zM522.2 141.3l-1 .4-4.6-4.9 1.1-.5 3.7 4.2-.5-5.5 1-.4zM529.4 136.1a2.5 2.5 0 0 1-1.7 3c-1.9.8-3.3-.1-4.1-1.9a3 3 0 0 1 1.5-4.2c2.1-.9 3.5.8 4 2.2l-4.4 1.8a1.9 1.9 0 0 0 2.6 1.1 1.5 1.5 0 0 0 1-1.8zm-1.6-1.2a1.8 1.8 0 0 0-2.4-.9 1.8 1.8 0 0 0-1 2.3zM536.5 135.3l-1 .4-.3-.8a2.1 2.1 0 0 1-1.5 1.7c-1.8.8-3.3-.3-4-1.9s-.4-3.4 1.4-4.1a2.4 2.4 0 0 1 2.3.1l-1.3-3 1-.4zm-3 .4c1.3-.5 1.3-1.9.9-2.9s-1.4-2-2.8-1.4-1.3 1.9-.8 3a2.1 2.1 0 0 0 2.7 1.3zM459.6 232.4l1.1.5 1.6 8.3 2.7-6.5 1 .4-3.3 8.1-1.2-.5-1.6-8.2-2.7 6.5-1-.4zM469.3 238.8a3.3 3.3 0 1 1-4.1 1.9 3 3 0 0 1 4.1-1.9zm-2.2 5.3c1 .4 2.1 0 2.7-1.5s.1-2.5-.9-3-2.1 0-2.7 1.5-.1 2.5.9 2.9zM477.4 239.6l3.5 1.4a2.6 2.6 0 1 1-2 4.8l-2.5-1-1.4 3.3-1.1-.4zm-.5 4.3l2.1.9c1.2.5 2 .2 2.4-.8s.1-1.7-1.2-2.2l-2.1-.9zM486.4 252.7h-.8a.8.8 0 0 1-.4-1.2 2.8 2.8 0 0 1-2.4.1c-1.1-.4-1.7-1.3-1.3-2.4s1.6-1.2 2.7-1 2 .7 2.3-.1-.3-1.3-.9-1.5-1.5-.3-1.9.5l-1-.4c.6-1.4 2-1.5 3.3-.9s2.1 1.1 1.5 2.5l-1.2 3c-.2.5-.3.7 0 .8h.3zm-.3-3.6a5.3 5.3 0 0 1-1.9-.3c-.7-.1-1.3-.1-1.6.6s.2 1.1.8 1.3a1.7 1.7 0 0 0 2.3-.6zM489.3 254.9c-.9 1-1.5 1.2-2.3.9l-.6-.4.4-.9.5.4a.9.9 0 0 0 1-.2l.8-.8V247l1.1.4-.2 5.5 3.6-4.1 1 .4zM495.3 249.6l.9.4-.4.9a2.3 2.3 0 0 1 2.3-.2 1.7 1.7 0 0 1 1.2 1.7 2.3 2.3 0 0 1 2.2-.2c1.2.5 1.7 1.3 1.3 2.5L501 259l-1-.4 1.6-3.8c.3-.7.3-1.4-.6-1.8a1.5 1.5 0 0 0-2.1.9l-1.5 3.6-1-.4 1.6-3.8c.3-.8.3-1.4-.6-1.7a1.7 1.7 0 0 0-2.2.9l-1.5 3.6-1-.4zM508.3 259.6a2.5 2.5 0 0 1-3.3 1c-1.9-.8-2.2-2.4-1.5-4.2a3 3 0 0 1 4-1.9c2.1.8 1.9 3 1.3 4.4l-4.4-1.8a1.9 1.9 0 0 0 1 2.7 1.5 1.5 0 0 0 2-.5zm-.3-2a1.8 1.8 0 0 0-1-2.3 1.8 1.8 0 0 0-2.3 1zM511 256l.9.4-.4.9a2.2 2.2 0 0 1 2.3-.3c1.5.6 1.7 1.7 1.1 3l-1.6 3.8-1-.4 1.6-4a1.2 1.2 0 0 0-.7-1.7 1.8 1.8 0 0 0-2.2 1.3l-1.4 3.3-1-.4zM518.7 259.1l1.2.5-.3.8-1.2-.5-1.5 3.6c-.2.4-.1.6.5.8l.4.2-.3.8-.7-.3c-1-.4-1.3-.8-.9-1.8l1.5-3.7-1-.4.3-.8 1 .4.7-1.8 1 .4zM273.8 216.4H231a2.4 2.4 0 0 1-2.4-2.4v-53.6a2.4 2.4 0 0 1 2.4-2.4h35.1l.7.4 8.5 7.3.6.7v.2a2.3 2.3 0 0 1 .1.6V214a2.4 2.4 0 0 1-2.2 2.4zM231 160.1a.3.3 0 0 0-.3.3V214a.3.3 0 0 0 .3.3h42.8a.3.3 0 0 0 .3-.3v-46.2h-.1l-8.6-7.3H231zm34 0zm.4-2.1z"/><path class="cls-1" d="M261.5 172.2a.7.7 0 1 0-1.3 0v1.3h-5.1v-1.3a.7.7 0 1 0-1.3 0v1.3h-8.7v-1.3a.7.7 0 1 0-1.3 0v1.3h-5.6v-1.3a.7.7 0 1 0-1.3 0v37a.7.7 0 1 0 1.3 0V208h5.6v1.2a.7.7 0 1 0 1.3 0V208h8.7v1.2a.7.7 0 1 0 1.3 0V208h5.1v1.2a.7.7 0 1 0 1.3 0V208h5.2v1.2a.7.7 0 1 0 1.3 0v-37a.7.7 0 1 0-1.3 0v1.3h-5.2zm-17.8 34.5h-5.6v-3.4h5.6zm0-4.7h-5.6v-3.4h5.6zm0-4.7h-5.6v-3.4h5.6zm0-4.7h-5.6v-3.4h5.6zm0-4.7h-5.6v-3.4h5.6zm0-4.7h-5.6v-3.4h5.6zm0-4.7h-5.6v-3.4h5.6zm10.1 28.5h-8.7v-3.4h8.7zm0-4.7h-8.7v-3.4h8.7zm0-4.7h-8.7v-3.4h8.7zm0-4.7h-8.7v-3.4h8.7zm0-4.7h-8.7v-3.4h8.7zm0-4.7h-8.7v-3.4h8.7zm0-4.7h-8.7v-3.4h8.7zm6.4 28.5h-5.1v-3.4h5.1zm0-4.7h-5.1v-3.4h5.1zm0-4.7h-5.1v-3.4h5.1zm0-4.7h-5.1v-3.4h5.1zm0-4.7h-5.1v-3.4h5.1zm0-4.7h-5.1v-3.4h5.1zm0-4.7h-5.1v-3.4h5.1zm6.6 28.5h-5.2v-3.4h5.2zm0-4.7h-5.2v-3.4h5.2zm0-4.7h-5.2v-3.4h5.2zm0-4.7h-5.2v-3.4h5.2zm0-4.7h-5.2v-3.4h5.2zm0-4.7h-5.2v-3.4h5.2zm0-8.2v3.4h-5.2v-3.4zM224.8 210.9v-19.4a1.3 1.3 0 1 0-2.6 0v19.4a1.3 1.3 0 1 0 2.6 0zM602.9 280.1a23.6 23.6 0 1 1 23.6-23.6 23.6 23.6 0 0 1-23.6 23.6zm0-45a21.4 21.4 0 1 0 21.4 21.4 21.5 21.5 0 0 0-21.4-21.4z"/><path class="cls-1" d="M602.9 263.5h-.3a3.4 3.4 0 0 1-3.1-3.1l-1.3-13.9a4.7 4.7 0 0 1 4.3-5.2 4.7 4.7 0 0 1 5.2 4.3 5.2 5.2 0 0 1 0 .9l-1.3 13.9a3.4 3.4 0 0 1-3.4 3.1zm-.2-20.1a2.6 2.6 0 0 0-2.4 2.8l1.3 13.9a1.3 1.3 0 0 0 2.6 0l1.3-13.9a3.1 3.1 0 0 0 0-.5 2.6 2.6 0 0 0-2.8-2.4z"/><path class="cls-1" d="M602.9 271.9a4.2 4.2 0 1 1 4.2-4.2 4.2 4.2 0 0 1-4.2 4.2zm0-6.3a2.1 2.1 0 1 0 2.1 2.1 2.1 2.1 0 0 0-2.1-2.1zM577.5 287h4.1c1.6 0 2.6.9 2.6 2.3a2.1 2.1 0 0 1-1.5 2.2c1 .2 1.2.9 1.3 1.8a4.5 4.5 0 0 0 .5 2.4h-1.3c-.3-.4-.1-1.3-.3-2.1s-.3-1.6-1.5-1.6h-2.8v3.7h-1.2zm3.6 4c1.1 0 2-.3 2-1.6a1.4 1.4 0 0 0-1.5-1.5h-2.9v3zM591.1 293.7a2.5 2.5 0 0 1-2.7 2.1c-2 0-3-1.4-3-3.3a3 3 0 0 1 3-3.3c2.2 0 2.9 2.1 2.9 3.6h-4.7a1.9 1.9 0 0 0 2 2.1 1.5 1.5 0 0 0 1.6-1.2zm-1-1.8a1.8 1.8 0 0 0-3.6 0zM592.2 289.4h1v.9a2.3 2.3 0 0 1 2-1.1 1.7 1.7 0 0 1 1.7 1.1 2.3 2.3 0 0 1 2-1.1c1.3 0 2.1.5 2.1 1.8v4.6h-1v-4.1c0-.8-.2-1.4-1.2-1.4a1.5 1.5 0 0 0-1.6 1.6v3.9h-1v-4.1c0-.8-.3-1.4-1.2-1.4a1.7 1.7 0 0 0-1.7 1.6v3.9h-1zM603.7 288.3h-1V287h1zm-1 1.1h1v6.3h-1zM605.4 289.4h1v1a2.2 2.2 0 0 1 2.1-1.1c1.7 0 2.2 1 2.2 2.3v4.2h-1v-4.3a1.2 1.2 0 0 0-1.3-1.3 1.8 1.8 0 0 0-1.9 2v3.6h-1zM617.8 295.7h-1v-.9a2.1 2.1 0 0 1-2 1c-1.9 0-2.9-1.5-2.9-3.3s1-3.3 2.9-3.3a2.4 2.4 0 0 1 2 1V287h1zm-2.9-.8c1.4 0 1.9-1.2 1.9-2.4s-.6-2.4-2-2.4-1.9 1.2-1.9 2.4.6 2.5 1.9 2.5zM624.8 293.7a2.5 2.5 0 0 1-2.7 2.1c-2 0-3-1.4-3-3.3a3 3 0 0 1 3-3.3c2.2 0 2.9 2.1 2.9 3.6h-4.7a1.9 1.9 0 0 0 2 2.1 1.5 1.5 0 0 0 1.6-1.2zm-1-1.8a1.8 1.8 0 0 0-3.6 0zM625.9 289.4h1v1.3a2.3 2.3 0 0 1 2.3-1.5v1.1c-1.7 0-2.3 1-2.3 2.6v2.8h-1zM371.4 196c-2.4 0-4.2-2.1-4.4-2.3l-8.1-8.6a2.6 2.6 0 0 1-.4-3.8 19.3 19.3 0 0 1 2.2-2.2h.1l1.2-1a2.7 2.7 0 0 1 3.5.4l.2.3.6.7c.8.9 2.4 2.6 4.7 4.9l8.3-12.8c4.8-7.3 11.1-11.3 14.7-9.3l1.2.7-1 1s-3.8 3.9-10.9 16.5c-3 5.2-6.4 10.8-8 13.2a4.6 4.6 0 0 1-3.6 2.4zm-7.9-16.3h-.4l-1 .8h-.1a18 18 0 0 0-1.9 1.9c-.2.3-.3.5.2.9h.1l8.2 8.6c.4.5 1.8 1.7 3 1.6a2.7 2.7 0 0 0 1.9-1.4c1.6-2.4 5-7.9 8-13.1a119.8 119.8 0 0 1 10-15.5c-2.6.2-6.8 3.4-10.4 8.9l-8.4 13a2 2 0 0 1-1.4 1 1.7 1.7 0 0 1-1.4-.5c-1.7-1.7-4-4.1-5.1-5.4l-.6-.6-.3-.3zm7.3 4.9z"/><path class="cls-1" d="M400.7 204.2h-49.2a1.1 1.1 0 0 1-1.1-1.1V154a1.1 1.1 0 0 1 1.1-1.1h49.2a1.1 1.1 0 0 1 1.1 1.1v49.2a1.1 1.1 0 0 1-1.1 1zm-48.1-2.1h47V155h-47zM693.9 278.2h1.2v8.7h-1.2zM696.9 280.6h1v1a2.2 2.2 0 0 1 2.1-1.1c1.7 0 2.2 1 2.2 2.3v4.2h-1v-4.3a1.2 1.2 0 0 0-1.3-1.3 1.8 1.8 0 0 0-1.9 2v3.6h-1zM705.1 280.6h1.3v.9h-1.3v3.9c0 .5.1.6.8.6h.5v.9h-.8c-1.1 0-1.5-.2-1.5-1.4v-4H703v-.9h1.1v-1.9h1zM712.9 284.9a2.5 2.5 0 0 1-2.7 2.1c-2 0-3-1.4-3-3.3a3 3 0 0 1 3-3.3c2.2 0 2.9 2.1 2.9 3.6h-4.7a1.9 1.9 0 0 0 2 2.1 1.5 1.5 0 0 0 1.6-1.2zm-1-1.8a1.8 1.8 0 0 0-3.6 0zM714 280.6h1v1.4a2.3 2.3 0 0 1 2.3-1.5v1.1c-1.7 0-2.3 1-2.3 2.6v2.8h-1zM723.3 284.9a2.5 2.5 0 0 1-2.7 2.1c-2 0-3-1.4-3-3.3a3 3 0 0 1 3-3.3c2.2 0 2.9 2.1 2.9 3.6h-4.7a1.9 1.9 0 0 0 2 2.1 1.5 1.5 0 0 0 1.6-1.2zm-1-1.8a1.8 1.8 0 0 0-3.6 0zM725.1 285c0 .9.8 1.2 1.7 1.2s1.5-.1 1.5-.9-1-.9-2.1-1.2-2.1-.6-2.1-1.8 1.3-1.8 2.4-1.8 2.5.4 2.6 2h-1c-.1-.8-.8-1.1-1.5-1.1s-1.3.2-1.3.8 1.1.9 2.1 1.1 2.1.6 2.1 1.8-1.4 2-2.7 2-2.6-.6-2.7-2.1zM732 280.6h1.3v.9H732v3.9c0 .5.1.6.8.6h.5v.9h-.8c-1.1 0-1.5-.2-1.5-1.4v-4h-1.1v-.9h1.1v-1.9h1zM697 295.5a2.3 2.3 0 0 0-2.4-1.9c-2.1 0-3 1.7-3 3.5s.9 3.7 3 3.7a2.5 2.5 0 0 0 2.5-2.5h1.2a3.5 3.5 0 0 1-3.8 3.5c-2.7 0-4-2-4-4.5s1.4-4.6 4.1-4.6a3.3 3.3 0 0 1 3.6 2.8zM699.5 292.9h1v3.3a2.1 2.1 0 0 1 2-1.1c1.7 0 2.2 1 2.2 2.3v4.2h-1v-4.3a1.2 1.2 0 0 0-1.3-1.3 1.8 1.8 0 0 0-1.9 2v3.6h-1zM711.9 301.6l-.7.2c-.5 0-.9-.3-.9-1a2.8 2.8 0 0 1-2.2 1c-1.1 0-2.1-.5-2.1-1.8s1.1-1.7 2.1-1.9 2.1-.1 2.1-.9-.7-1.1-1.4-1.1-1.5.3-1.6 1.2h-1c.1-1.6 1.3-2.1 2.7-2.1s2.4.3 2.4 1.7v3.2c0 .5 0 .7.3.7h.3zm-1.7-3.2a5.3 5.3 0 0 1-1.9.4c-.7.1-1.3.4-1.3 1.1s.6.9 1.2.9 1.9-.9 1.9-1.4zM712.8 295.3h1v1.3a2.3 2.3 0 0 1 2.3-1.5v1.1c-1.7 0-2.3 1-2.3 2.6v2.8h-1zM722 301.1c0 2.1-.9 3.1-2.9 3.1s-2.6-.5-2.6-1.9h1c0 .8 1 1 1.6 1s1.9-1 1.9-2.4v-.4a2.1 2.1 0 0 1-2 1.1c-1.9 0-2.8-1.5-2.8-3.2s.7-3.3 2.9-3.3a2.1 2.1 0 0 1 1.9 1v-.9h1zm-1-2.7c0-1.1-.5-2.3-1.8-2.3s-1.9 1.1-1.9 2.3.4 2.4 1.8 2.4 1.9-1.3 1.9-2.5zM729 299.6a2.5 2.5 0 0 1-2.7 2.1c-2 0-3-1.4-3-3.3a3 3 0 0 1 3-3.3c2.2 0 2.9 2.1 2.9 3.6h-4.7a1.9 1.9 0 0 0 2 2.1 1.5 1.5 0 0 0 1.6-1.2zm-1-1.8a1.8 1.8 0 0 0-3.6 0zM735.8 301.6h-1v-.9a2.1 2.1 0 0 1-2 1c-1.9 0-2.9-1.5-2.9-3.3s1-3.3 2.9-3.3a2.4 2.4 0 0 1 2 1v-3.2h1zm-2.9-.8c1.4 0 1.9-1.2 1.9-2.4s-.6-2.4-2-2.4-1.9 1.2-1.9 2.4.6 2.4 2 2.4zM699.2 251.5a11.4 11.4 0 0 1-4.6-.9 11.8 11.8 0 0 1-3.7-2.6 12.4 12.4 0 0 1-2.5-3.8 12.3 12.3 0 0 1 0-9.4 12.5 12.5 0 0 1 2.5-3.8 11.7 11.7 0 0 1 3.7-2.6 11.6 11.6 0 0 1 9.2 0 11.7 11.7 0 0 1 3.7 2.6 12.5 12.5 0 0 1 2.5 3.8 12.3 12.3 0 0 1 0 9.4 12.4 12.4 0 0 1-2.5 3.8 11.8 11.8 0 0 1-3.7 2.6 11.3 11.3 0 0 1-4.6.9zm0-22a9.3 9.3 0 0 0-3.8.8 9.6 9.6 0 0 0-3.1 2.1 10.4 10.4 0 0 0-2.1 3.2 9.9 9.9 0 0 0-.8 3.9 9.8 9.8 0 0 0 .8 3.9 10.3 10.3 0 0 0 2.1 3.2 9.7 9.7 0 0 0 3.1 2.1 9.3 9.3 0 0 0 3.8.8 9.2 9.2 0 0 0 3.7-.8 9.7 9.7 0 0 0 3.1-2.1 10.3 10.3 0 0 0 2.1-3.2 9.8 9.8 0 0 0 .8-3.9 9.9 9.9 0 0 0-.8-3.9 10.4 10.4 0 0 0-2.1-3.2 9.6 9.6 0 0 0-3.1-2.1 9.2 9.2 0 0 0-3.7-.7zM727.3 270.5a11.3 11.3 0 0 1-4.6-1 11.9 11.9 0 0 1-3.7-2.6 12.3 12.3 0 0 1-2.5-3.8 12.3 12.3 0 0 1 0-9.4 12.3 12.3 0 0 1 2.5-3.8 11.9 11.9 0 0 1 3.7-2.6 11.6 11.6 0 0 1 9.2 0 12 12 0 0 1 3.7 2.6 12.2 12.2 0 0 1 2.5 3.8 12.3 12.3 0 0 1 0 9.4 12.2 12.2 0 0 1-2.5 3.8 12 12 0 0 1-3.7 2.6 11.3 11.3 0 0 1-4.6 1zm0-22a9.2 9.2 0 0 0-3.7.8 9.8 9.8 0 0 0-3.1 2.1 10.2 10.2 0 0 0-2.1 3.2 10.2 10.2 0 0 0 0 7.7 10.2 10.2 0 0 0 2.1 3.2 9.7 9.7 0 0 0 3.1 2.1 9.5 9.5 0 0 0 7.5 0 9.9 9.9 0 0 0 3.1-2.1 10.1 10.1 0 0 0 2.1-3.2 10.2 10.2 0 0 0 0-7.7 10.1 10.1 0 0 0-2.1-3.2 9.9 9.9 0 0 0-3.1-2.1 9.2 9.2 0 0 0-3.8-.8z"/><path class="cls-1" d="M701 270.5h-8.9l26.5-34.6-7.1-5.1 22-6.1-1.7 20.7-7.5-5.4zm-4.6-2.1h3.6l24-31.2 6.1 4.4 1.1-13.9-14.8 4.1 5.3 3.8zM699.2 246.9a7.1 7.1 0 0 1-2.9-.6 7.3 7.3 0 0 1-2.3-1.6 7.6 7.6 0 0 1-1.5-2.3 7.6 7.6 0 0 1 0-5.8 7.7 7.7 0 0 1 1.5-2.4 7.2 7.2 0 0 1 10.3 0 7.7 7.7 0 0 1 1.5 2.4 7.6 7.6 0 0 1 0 5.8 7.6 7.6 0 0 1-1.5 2.3 7.3 7.3 0 0 1-2.3 1.6 7 7 0 0 1-2.8.6zm0-12.8a5 5 0 0 0-2 .4 5.1 5.1 0 0 0-1.6 1.1 5.6 5.6 0 0 0-1.1 1.7 5.3 5.3 0 0 0-.4 2.1 5.2 5.2 0 0 0 .4 2.1 5.5 5.5 0 0 0 1.1 1.7 5.2 5.2 0 0 0 1.6 1.1 5.1 5.1 0 0 0 4 0 5.2 5.2 0 0 0 1.6-1.1 5.5 5.5 0 0 0 1.1-1.7 5.2 5.2 0 0 0 .4-2.1 5.3 5.3 0 0 0-.4-2.1 5.6 5.6 0 0 0-1.1-1.7 5.2 5.2 0 0 0-1.6-1.1 4.9 4.9 0 0 0-2-.3z"/><path class="cls-1" d="M727.4 265.9a7 7 0 0 1-2.9-.6 7.3 7.3 0 0 1-2.3-1.6 7.6 7.6 0 0 1-1.5-2.3 7.6 7.6 0 0 1 0-5.8 7.7 7.7 0 0 1 1.5-2.4 7.1 7.1 0 0 1 10.3 0 7.7 7.7 0 0 1 1.5 2.4 7.6 7.6 0 0 1 0 5.8 7.6 7.6 0 0 1-1.5 2.3 7.3 7.3 0 0 1-2.3 1.6 7 7 0 0 1-2.8.6zm0-12.8a5 5 0 0 0-2 .4 5.1 5.1 0 0 0-1.6 1.1 5.6 5.6 0 0 0-1.1 1.7 5.3 5.3 0 0 0-.4 2.1 5.2 5.2 0 0 0 .4 2.1 5.5 5.5 0 0 0 1.1 1.7 5.2 5.2 0 0 0 1.6 1.1 5.1 5.1 0 0 0 4 0 5.2 5.2 0 0 0 1.6-1.1 5.5 5.5 0 0 0 1.1-1.7 5.2 5.2 0 0 0 .4-2.1 5.3 5.3 0 0 0-.4-2.1 5.6 5.6 0 0 0-1.1-1.7 5.2 5.2 0 0 0-1.6-1.1 4.9 4.9 0 0 0-2-.4zM823.3 278.1h1.3l3.4 8.7h-1.3l-1-2.6H822l-1 2.6h-1.2zm-.9 5.1h3l-1.5-4.1z"/><path class="cls-1" d="M831.3 277.9h.9l-3.6 9.1h-.9zM832.9 278.1h4.1c1.6 0 2.6.9 2.6 2.3a2.1 2.1 0 0 1-1.5 2.2c1 .2 1.2.9 1.3 1.8a4.5 4.5 0 0 0 .5 2.4h-1.3c-.3-.4-.1-1.3-.3-2.1s-.3-1.6-1.5-1.6H834v3.7h-1.2zm3.6 4c1.1 0 2-.3 2-1.6a1.4 1.4 0 0 0-1.5-1.5h-2.9v3zM808.9 292.8h4.1c1.6 0 2.6.9 2.6 2.3a2.1 2.1 0 0 1-1.5 2.2c1 .2 1.2.9 1.3 1.8a4.5 4.5 0 0 0 .5 2.4h-1.3c-.3-.4-.1-1.3-.3-2.1s-.3-1.6-1.5-1.6H810v3.7h-1.2zm3.6 4c1.1 0 2-.3 2-1.6a1.4 1.4 0 0 0-1.5-1.5h-2.9v3zM822.5 299.5a2.5 2.5 0 0 1-2.7 2.1c-2 0-3-1.4-3-3.3a3 3 0 0 1 3-3.3c2.2 0 2.9 2.1 2.9 3.6H818a1.9 1.9 0 0 0 2 2.1 1.5 1.5 0 0 0 1.6-1.2zm-1-1.8a1.8 1.8 0 0 0-3.6 0zM824.3 299.5c0 .9.8 1.2 1.7 1.2s1.5-.1 1.5-.9-1-.9-2.1-1.2-2.1-.6-2.1-1.8 1.3-1.8 2.4-1.8 2.5.4 2.6 2h-1c-.1-.8-.8-1.1-1.5-1.1s-1.3.2-1.3.8 1.1.9 2.1 1.1 2.1.6 2.1 1.8-1.4 2-2.7 2-2.6-.6-2.7-2.1zM835.2 299.5a2.5 2.5 0 0 1-2.7 2.1c-2 0-3-1.4-3-3.3a3 3 0 0 1 3-3.3c2.2 0 2.9 2.1 2.9 3.6h-4.7a1.9 1.9 0 0 0 2 2.1 1.5 1.5 0 0 0 1.6-1.2zm-1-1.8a1.8 1.8 0 0 0-3.6 0zM836.3 295.2h1v1.3a2.3 2.3 0 0 1 2.3-1.5v1.1c-1.7 0-2.3 1-2.3 2.6v2.8h-1zM843.2 301.5h-1.1l-2.3-6.3h1.2l1.8 5.3 1.7-5.3h1.1zM851.9 299.5a2.5 2.5 0 0 1-2.7 2.1c-2 0-3-1.4-3-3.3a3 3 0 0 1 3-3.3c2.2 0 2.9 2.1 2.9 3.6h-4.7a1.9 1.9 0 0 0 2 2.1 1.5 1.5 0 0 0 1.6-1.2zm-1-1.8a1.8 1.8 0 0 0-3.6 0zM582.4 152.7h3.8a2.6 2.6 0 1 1 0 5.2h-2.7v3.6h-1.2zm1.2 4.2h2.3c1.3 0 1.9-.6 1.9-1.6s-.6-1.6-1.9-1.6h-2.3zM595.7 161.4l-.7.2c-.5 0-.9-.3-.9-1a2.8 2.8 0 0 1-2.2 1c-1.1 0-2.1-.5-2.1-1.8s1.1-1.7 2.1-1.9 2.1-.1 2.1-.9-.7-1.1-1.4-1.1-1.5.3-1.6 1.2h-1c.1-1.6 1.3-2.1 2.7-2.1s2.4.3 2.4 1.7v3.3c0 .5 0 .7.3.7h.3zm-1.7-3.2a5.3 5.3 0 0 1-1.9.4c-.7.1-1.3.4-1.3 1.1s.6.9 1.2.9 1.9-.9 1.9-1.4zM599.1 162.3c-.5 1.2-.9 1.7-1.8 1.7h-.7v-1h.6a.9.9 0 0 0 .9-.6l.4-1.1-2.5-6.3h1.2l1.8 5.2 1.8-5.2h1.1zM602.8 155.1h1v.9a2.3 2.3 0 0 1 2-1.1 1.7 1.7 0 0 1 1.7 1.1 2.3 2.3 0 0 1 2-1.1c1.3 0 2.1.5 2.1 1.8v4.6h-1v-4.1c0-.8-.2-1.4-1.2-1.4a1.5 1.5 0 0 0-1.6 1.6v3.9h-1v-4.1c0-.8-.3-1.4-1.2-1.4a1.7 1.7 0 0 0-1.7 1.6v3.9h-1zM618.5 159.5a2.5 2.5 0 0 1-2.7 2.1c-2 0-3-1.4-3-3.3a3 3 0 0 1 3-3.3c2.2 0 2.9 2.1 2.9 3.6H614a1.9 1.9 0 0 0 2 2.1 1.5 1.5 0 0 0 1.6-1.2zm-1-1.8a1.8 1.8 0 0 0-3.6 0zM619.7 155.1h1v1a2.2 2.2 0 0 1 2.1-1.1c1.7 0 2.2 1 2.2 2.3v4.2h-1v-4.3a1.2 1.2 0 0 0-1.3-1.3 1.8 1.8 0 0 0-1.9 2v3.6h-1zM628 155.1h1.3v.9H628v4c0 .5.1.6.8.6h.5v.9h-.8c-1.1 0-1.5-.2-1.5-1.4v-4h-1.1v-.9h1.1v-1.9h1zM615.7 110a1.2 1.2 0 0 0-.9-.2 1.2 1.2 0 0 0-1 1.3l2 16.8a7.4 7.4 0 0 0-4.7 3h-11.2a7.4 7.4 0 0 0-4.7-3l2-16.8a1.2 1.2 0 0 0-1-1.3 1.2 1.2 0 0 0-.9.2 1.2 1.2 0 0 0-.5.8l-2.1 17.9a1.2 1.2 0 0 0 1.1 1.3c2.2.2 4 1.4 4.3 2.3a1.2 1.2 0 0 0 1.1.8h12.7a1.2 1.2 0 0 0 1.1-.8c.3-1 2.1-2.1 4.3-2.3a1.2 1.2 0 0 0 1.1-1.3l-2.1-17.9a1.2 1.2 0 0 0-.6-.8z"/><path class="cls-1" d="M605.5 122.7c4.2 0 7.5-2.4 7.5-5.4s-3.3-5.4-7.5-5.4-7.5 2.4-7.5 5.4 3.3 5.4 7.5 5.4zm-5.1-5.4c0-1.6 2.4-3 5.1-3s5.1 1.4 5.1 3-2.4 3-5.1 3-5.2-1.4-5.2-3z"/><path class="cls-1" d="M623.4 98.1h-35.9a5.4 5.4 0 0 0-5.4 5.4v6.3a5.4 5.4 0 0 0 5.4 5.4h2.5l-3.3 18.8a3 3 0 0 0 .2 1.8l-.2 1.4a3 3 0 0 0 .2 1.8l-.2 1.4a2.9 2.9 0 0 0 2.9 3.5h31.7a2.9 2.9 0 0 0 2.9-3.5l-.2-1.4a3 3 0 0 0 .2-1.8l-.2-1.4a3 3 0 0 0 .2-1.8l-3.2-18.7h2.4a5.4 5.4 0 0 0 5.4-5.4v-6.3a5.4 5.4 0 0 0-5.4-5.5zm-1.5 42.6a.6.6 0 0 1-.1.5l-.5.2h-31.6l-.5-.2a.6.6 0 0 1-.1-.5v-.2h32.8zm0-3.2a.6.6 0 0 1-.1.5l-.5.2h-31.6l-.5-.2a.6.6 0 0 1-.1-.5v-.2h32.8zm-.1-2.7l-.5.2h-31.6l-.5-.2a.6.6 0 0 1-.1-.5l4.6-26.5a1.4 1.4 0 0 1 1.3-1.1h21a1.4 1.4 0 0 1 1.3 1.1l4.6 26.5a.6.6 0 0 1-.1.6zm-2.1-27.4a3.8 3.8 0 0 0-3.6-3.1h-21.2a3.8 3.8 0 0 0-3.6 3.1l-.9 5.4h-2.8a3 3 0 0 1-3-3v-6.3a3 3 0 0 1 3-3h35.9a3 3 0 0 1 3 3v6.3a3 3 0 0 1-3 3h-2.8zM78.5 319.1h3c2.7 0 4.2 1.3 4.2 4.2s-1.3 4.6-4.2 4.6h-3zm1.2 7.7h1.9c.8 0 2.9-.2 2.9-3.4s-.8-3.3-2.9-3.3h-2zM92.3 325.9a2.5 2.5 0 0 1-2.7 2.1c-2 0-3-1.4-3-3.3a3 3 0 0 1 3-3.3c2.2 0 2.9 2.1 2.9 3.6h-4.9a1.9 1.9 0 0 0 2 2.1 1.5 1.5 0 0 0 1.6-1.2zm-1-1.8a1.8 1.8 0 0 0-1.8-1.8 1.8 1.8 0 0 0-1.8 1.8zM93.5 319.1h1v8.7h-1zM97.3 320.4h-1v-1.3h1zm-1 1.1h1v6.3h-1zM101.7 327.9h-1.1l-2.3-6.3h1.2l1.8 5.3 1.7-5.3h1zM110.4 325.9a2.5 2.5 0 0 1-2.7 2.1c-2 0-3-1.4-3-3.3a3 3 0 0 1 3-3.3c2.2 0 2.9 2.1 2.9 3.6h-4.7a1.9 1.9 0 0 0 2 2.1 1.5 1.5 0 0 0 1.6-1.2zm-1-1.8a1.8 1.8 0 0 0-1.8-1.8 1.8 1.8 0 0 0-1.8 1.8zM111.5 321.5h1v1.3a2.3 2.3 0 0 1 2.3-1.5v1.1c-1.7 0-2.3 1-2.3 2.6v2.8h-1zM121.2 327.8l-.7.2c-.5 0-.9-.3-.9-1a2.8 2.8 0 0 1-2.2 1c-1.1 0-2.1-.5-2.1-1.8s1.1-1.7 2.1-1.9 2.1-.1 2.1-.9-.7-1.1-1.4-1.1-1.5.3-1.6 1.2h-1c.1-1.6 1.3-2.1 2.7-2.1s2.4.3 2.4 1.7v3.2c0 .5 0 .7.3.7h.3zm-1.7-3.2a5.3 5.3 0 0 1-1.9.4c-.7.1-1.3.4-1.3 1.1s.6.9 1.2.9 1.9-.9 1.9-1.4zM122.2 319.1h1v3.3a2.1 2.1 0 0 1 2-1c1.9 0 2.9 1.5 2.9 3.3s-1 3.3-2.9 3.3a2.4 2.4 0 0 1-2-1v.8h-1zm2.9 3.2c-1.4 0-1.9 1.2-1.9 2.4s.6 2.4 2 2.4 1.9-1.2 1.9-2.4-.6-2.4-2-2.4zM129.4 319.1h1v8.7h-1zM137.5 325.9a2.5 2.5 0 0 1-2.7 2.1c-2 0-3-1.4-3-3.3a3 3 0 0 1 3-3.3c2.2 0 2.9 2.1 2.9 3.6H133a1.9 1.9 0 0 0 2 2.1 1.5 1.5 0 0 0 1.6-1.2zm-1-1.8a1.8 1.8 0 0 0-1.8-1.8 1.8 1.8 0 0 0-1.8 1.8zM139.6 271.9h-14.8l-2.7-5.7a5.5 5.5 0 0 0-7.3-2.7l-36.9 17.2a5.5 5.5 0 0 0-2.7 7.3l10.7 23a5.5 5.5 0 0 0 7.3 2.7l2.5-1.2h42.9V310h-37.4l10.7-5.1h15.3v-2.5h-10l10.7-5.1h10.7v-2.5h-6.4a5.5 5.5 0 0 0 .5-5.5l-3.3-7.2h6.3v-2.5h-7.5l-.2-.4-2.2-4.6h13.6zm-60.8 10.8l36.9-17.2 1-.3-8.2 22.4a4.6 4.6 0 0 1-2.5 2.6 5.1 5.1 0 0 1-3.8.2l-23.6-7.7zm9.1 27.5l-10.7-23a3.4 3.4 0 0 1-.1-2.7l21 6.8-8.3 20.6a3.4 3.4 0 0 1-1.9-1.7zm5 1.4l-.5.2-.5.2 8.1-20 1.5.5a7.3 7.3 0 0 0 5.3-.3 6.7 6.7 0 0 0 3.6-3.8l.2-.6 17.9 7zm33.1-32.1l.2.5 4.7 10.2a3.4 3.4 0 0 1-.2 3.2l-19.3-7.6 7.4-20.1a3.4 3.4 0 0 1 1.4 1.5z"/><path class="cls-1" transform="rotate(-30.3 177.107 255.077)" d="M149 254.2h56.1v1.59H149z"/><path class="cls-1" d="M202.7 246.8l5.9-10.3-11.9.1 6 10.2z"/><path class="cls-1" transform="rotate(-67.4 492.756 237.749)" d="M491.9 170.3h1.6v134.92h-1.6z"/><path class="cls-1" d="M551.1 268.5l11.8-1.5-7.2-9.5-4.6 11z"/><path class="cls-1" transform="rotate(-22.6 492.154 161.054)" d="M425.2 160.4h134.9v1.59H425.2z"/><path class="cls-1" d="M555.7 141.5l7.2-9.5-11.8-1.5 4.6 11z"/><path class="cls-1" transform="rotate(-59.7 180.03 138.986)" d="M179.2 110.9h1.6v56.08h-1.6z"/><path class="cls-1" d="M199.7 157.4l11.9.1-5.9-10.4-6 10.3z"/><path class="cls-1" transform="rotate(-30.3 177.107 255.077)" d="M149 254.2h56.1v1.59H149z"/><path class="cls-1" d="M202.7 246.8l5.9-10.3-11.9.1 6 10.2zM152.7 198.5h44.5v1.59h-44.5z"/><path class="cls-1" d="M195.5 205.3l10.3-6-10.3-5.9v11.9zM299.8 197.7h12.4v1.59h-12.4z"/><path class="cls-1" d="M310.5 204.4l10.3-5.9-10.3-6v11.9zM645 263.6h7.9v1.59H645z"/><path class="cls-1" d="M651.2 270.4l10.3-6-10.3-5.9v11.9zM764.7 263.6h7.9v1.59h-7.9z"/><path class="cls-1" d="M770.9 270.4l10.3-6-10.3-5.9v11.9zM95.6 139.3h3.1c2.8 0 4.3 1.4 4.3 4.3s-1.3 4.7-4.3 4.7h-3.1zm1.2 8h2c.8 0 3-.2 3-3.6s-.8-3.5-3-3.5h-2zM110.1 148.3l-.8.2c-.6 0-.9-.3-.9-1a2.9 2.9 0 0 1-2.3 1c-1.2 0-2.2-.5-2.2-1.8s1.1-1.8 2.2-2 2.2-.2 2.2-1-.8-1.1-1.5-1.1-1.6.3-1.6 1.2h-1.1c.1-1.6 1.3-2.2 2.8-2.2s2.5.3 2.5 1.8v3.4c0 .5 0 .7.3.7h.3zm-1.7-3.3a5.5 5.5 0 0 1-1.9.4c-.7.1-1.3.4-1.3 1.2s.6 1 1.3 1 2-.9 2-1.5zM112.6 141.8h1.3v.9h-1.3v4.1c0 .5.1.6.8.6h.5v.9h-.8c-1.1 0-1.6-.2-1.6-1.4v-4.2h-1.1v-.9h1.1v-2h1.1zM120.7 146.3a2.6 2.6 0 0 1-2.8 2.2c-2.1 0-3.1-1.4-3.1-3.4a3.1 3.1 0 0 1 3.1-3.4c2.3 0 3 2.2 3 3.7H116a1.9 1.9 0 0 0 2 2.1 1.6 1.6 0 0 0 1.7-1.3zm-1-1.8a1.9 1.9 0 0 0-1.9-1.8 1.9 1.9 0 0 0-1.9 1.8zM852.3 261.1l-17.1-29.6c-1.4-2.4-3.3-3.7-5.3-3.7s-4 1.3-5.3 3.7l-17.1 29.6c-1.4 2.4-1.5 4.6-.5 6.5s3.1 2.8 5.8 2.8H847c2.7 0 4.8-1 5.8-2.8s.9-4.1-.5-6.5zm-1.9 5.1c-.5.9-1.8 1.4-3.5 1.4h-34.2c-1.7 0-3-.5-3.5-1.4s-.3-2.3.5-3.7l17.1-29.6c.8-1.5 1.9-2.3 3-2.3s2.1.8 3 2.3l17.1 29.6c.9 1.4 1.1 2.8.5 3.7z"/><path class="cls-1" d="M829.9 257.8a3.6 3.6 0 0 0-2.6 1.1 3.6 3.6 0 1 0 2.6-1.1zm.9 4.5a1.2 1.2 0 0 1-.9.4 1.2 1.2 0 0 1-.9-.4 1.2 1.2 0 0 1 0-1.8 1.2 1.2 0 0 1 .9-.4 1.2 1.2 0 0 1 .9.4 1.2 1.2 0 0 1 0 1.8zM829.7 236.9a3.9 3.9 0 0 0-3.1 1.3 4.9 4.9 0 0 0-1 3.6l1.2 14a1.2 1.2 0 0 0 1.2 1.1h3.6a1.2 1.2 0 0 0 1.2-1.1l1.2-14a5 5 0 0 0-1.1-3.6 4 4 0 0 0-3.2-1.3zm1.9 4.6l-1.1 12.9H829l-1.1-12.9a2.6 2.6 0 0 1 .4-1.7 1.5 1.5 0 0 1 1.3-.5 1.7 1.7 0 0 1 1.3.5 2.7 2.7 0 0 1 .6 1.8z"/></svg>