<?xml version="1.0" encoding="utf-8"?>
<!-- Generator: Adobe Illustrator 19.2.0, SVG Export Plug-In . SVG Version: 6.00 Build 0)  -->
<svg version="1.1" id="Layer_1" xmlns="http://www.w3.org/2000/svg" xmlns:xlink="http://www.w3.org/1999/xlink" x="0px" y="0px"
	 viewBox="0 0 32 32" style="enable-background:new 0 0 32 32;" xml:space="preserve">
<style type="text/css">
	.st0{fill:#FFFFFF;}
</style>
<g>
	<path class="st0" d="M16,32C7.2,32,0,24.8,0,16S7.2,0,16,0s16,7.2,16,16S24.8,32,16,32z M16,1C7.7,1,1,7.7,1,16c0,8.3,6.7,15,15,15
		c8.3,0,15-6.7,15-15C31,7.7,24.3,1,16,1z"/>
</g>
<path class="st0" d="M21.6,24.5l-2.9-2.8c-0.9,0.3-1.8,0.4-2.7,0.4c-4.7,0-8.5-3.3-8.5-7.3s3.8-7.3,8.5-7.3s8.5,3.3,8.5,7.3
	c0,2.2-1.1,4.2-2.9,5.5V24.5z M18.9,21l2.1,2V20l0.1-0.1c1.7-1.1,2.7-3.1,2.8-5.1c0-3.7-3.5-6.7-7.9-6.7s-7.9,3-7.9,6.7
	s3.5,6.7,7.9,6.7c0.9,0,1.8-0.1,2.7-0.4L18.9,21z M20.2,15.2h-8.3c-0.2,0-0.3-0.1-0.3-0.3c0-0.2,0.1-0.3,0.3-0.3c0,0,0.1,0,0.1,0
	h8.3c0.2,0,0.3,0.1,0.3,0.2S20.4,15.2,20.2,15.2C20.2,15.2,20.2,15.2,20.2,15.2L20.2,15.2z M20.2,17.2h-8.3c-0.2,0-0.3-0.1-0.3-0.3
	c0-0.2,0.1-0.3,0.3-0.3h8.3c0.2,0,0.3,0.1,0.3,0.3S20.4,17.2,20.2,17.2C20.2,17.2,20.2,17.2,20.2,17.2L20.2,17.2z M20.2,13.2h-8.3
	c-0.2,0-0.3-0.1-0.3-0.3c0-0.2,0.1-0.3,0.3-0.3h8.3c0.2,0,0.3,0.1,0.3,0.3S20.3,13.2,20.2,13.2L20.2,13.2z"/>
</svg>
