<?xml version="1.0" encoding="utf-8"?>
<!-- Generator: Adobe Illustrator 19.2.0, SVG Export Plug-In . SVG Version: 6.00 Build 0)  -->
<svg version="1.1" id="Layer_1" xmlns="http://www.w3.org/2000/svg" xmlns:xlink="http://www.w3.org/1999/xlink" x="0px" y="0px"
	 viewBox="0 0 32 32" style="enable-background:new 0 0 32 32;" xml:space="preserve">
<style type="text/css">
	.st0{fill:#FFFFFF;}
</style>
<g>
	<path class="st0" d="M16,32C7.2,32,0,24.8,0,16S7.2,0,16,0s16,7.2,16,16S24.8,32,16,32z M16,1C7.7,1,1,7.7,1,16c0,8.3,6.7,15,15,15
		c8.3,0,15-6.7,15-15C31,7.7,24.3,1,16,1z"/>
</g>
<path class="st0" d="M21.9,8.2C21.9,8.1,21.8,8,21.6,8h-8.2c0-0.1,0-0.1,0-0.2C13.4,7.4,13,7,12.6,7c-0.5,0-0.8,0.4-0.8,0.8
	c0,0.3,0.2,0.6,0.5,0.8v15.8h-1.9c-0.2,0-0.3,0.1-0.3,0.3c0,0.2,0.1,0.3,0.3,0.3c0,0,0,0,0,0h4.5c0.2,0,0.3-0.1,0.3-0.3
	c0-0.2-0.1-0.3-0.3-0.3c0,0,0,0,0,0h-1.9v-9.2h8.7c0.1,0,0.2-0.1,0.3-0.2c0.1-0.1,0.1-0.2,0-0.3l-2.1-3.1l2.1-3.1
	C22,8.4,22,8.3,21.9,8.2z M12.4,7.8c0-0.1,0.1-0.2,0.2-0.2c0,0,0,0,0,0c0.1,0,0.2,0.1,0.2,0.2c0,0,0,0,0,0C12.8,8,12.4,8,12.4,7.8
	L12.4,7.8z M19.1,11.4c-0.1,0.1-0.1,0.3,0,0.4l1.9,2.8h-8.1V8.7H21L19.1,11.4z"/>
</svg>
