<?xml version="1.0" encoding="utf-8"?>
<!-- Generator: Adobe Illustrator 19.2.0, SVG Export Plug-In . SVG Version: 6.00 Build 0)  -->
<svg version="1.1" id="Layer_1" xmlns="http://www.w3.org/2000/svg" xmlns:xlink="http://www.w3.org/1999/xlink" x="0px" y="0px"
	 viewBox="0 0 32 32" style="enable-background:new 0 0 32 32;" xml:space="preserve">
<style type="text/css">
	.st0{fill:#FFFFFF;}
</style>
<g>
	<path class="st0" d="M16,32C7.2,32,0,24.8,0,16S7.2,0,16,0s16,7.2,16,16S24.8,32,16,32z M16,1C7.7,1,1,7.7,1,16c0,8.3,6.7,15,15,15
		c8.3,0,15-6.7,15-15C31,7.7,24.3,1,16,1z"/>
</g>
<g>
	<path class="st0" d="M22,10.3c-0.5-0.5-1.3-0.7-1.9-0.3L8.9,14.1c-0.6,0.2-1.2,0.5-1.2,1.1s0.8,0.6,1.5,0.6h5.1c1.1,0,2,0.9,2,2
		v5.1c0,0.4,0,1.5,0.7,1.5c0.4,0,0.7-0.3,1-1.2l4.1-11.2C22.3,11.4,22.3,10.8,22,10.3z M21.3,11.6l-4.1,11.2c0,0,0,0,0,0v-5.1
		c0-1.6-1.3-2.8-2.8-2.8H9.2c0,0,0,0,0,0l11.2-4.1c0.3-0.2,0.7-0.2,0.9,0C21.4,11,21.4,11.4,21.3,11.6L21.3,11.6z"/>
</g>
</svg>
