<svg xmlns="http://www.w3.org/2000/svg" width="94" height="76" viewBox="0 0 47 38">
  <defs>
    <style>
      .cls-1 {
        fill: #a383b0;
        fill-rule: evenodd;
      }
    </style>
  </defs>
  <path class="cls-1" d="M1123.5,370.155a3.654,3.654,0,1,1,3.6-3.654A3.627,3.627,0,0,1,1123.5,370.155Zm0-5.847a2.193,2.193,0,1,0,2.16,2.193A2.178,2.178,0,0,0,1123.5,364.308Zm-0.01,23.809-0.56-.694c-0.39-.484-9.49-11.947-9.49-19.445,0-6.053,4.51-10.978,10.06-10.978,5.53,0,10.05,4.923,10.07,10.975,0.03,7.5-9.13,18.965-9.52,19.45Zm0.01-29.655c-4.75,0-8.62,4.269-8.62,9.516,0,5.967,6.62,15.175,8.61,17.8,2-2.626,8.67-11.837,8.64-17.8C1132.11,362.732,1128.24,358.462,1123.5,358.462ZM1147.01,395H1100l8.7-16.077h6.9v1.462h-6.05l-7.12,13.154h42.15l-7.12-13.154h-6.05v-1.462h6.9Z" transform="translate(-1100 -357)"/>
</svg>
