<svg xmlns="http://www.w3.org/2000/svg" width="78" height="98" viewBox="0 0 39 49">
  <defs>
    <style>
      .cls-1 {
        fill: #a383b0;
        fill-rule: evenodd;
      }
    </style>
  </defs>
  <path class="cls-1" d="M820.408,620.437c0,10.605-9.669,19.907-20.694,19.907-7.374,0-9.692-2.736-9.71-2.756l-1.273.918c0.1,0.134,2.565,3.147,10.187,3.35v4.613h-7.163V648h15.918v-1.531H800.51v-4.615C812.047,641.419,822,631.6,822,620.437,822,609.017,811.586,599,799.714,599v1.531C810.739,600.531,820.408,609.833,820.408,620.437Zm-20.694,16.079c9.217,0,16.715-7.213,16.715-16.079s-7.5-16.078-16.715-16.078S783,611.572,783,620.437,790.5,636.516,799.714,636.516Zm0-30.625c8.339,0,15.123,6.525,15.123,14.546s-6.784,14.547-15.123,14.547-15.122-6.525-15.122-14.547S791.375,605.891,799.714,605.891Z" transform="translate(-783 -599)"/>
</svg>
